<?xml version="1.0" standalone="no"?>
<!DOCTYPE svg PUBLIC "-//W3C//DTD SVG 1.1//EN" "http://www.w3.org/Graphics/SVG/1.1/DTD/svg11.dtd" >
<svg xmlns="http://www.w3.org/2000/svg" xmlns:xlink="http://www.w3.org/1999/xlink" version="1.1">
<metadata>
Created by FontForge 20170731 at Thu Aug  5 13:52:18 2021
 By Aleksey,,,
Copyright 2020 The Saira Project Authors (https://github.com/Omnibus-Type/Saira)
</metadata>
<defs>
<font id="Saira-Black" horiz-adv-x="0" >
  <font-face 
    font-family="Saira Black"
    font-weight="900"
    font-stretch="normal"
    units-per-em="1000"
    panose-1="0 0 0 0 0 0 0 0 0 0"
    ascent="800"
    descent="-200"
    x-height="510"
    cap-height="688"
    bbox="-200 -439 1252 1156"
    underline-thickness="35"
    underline-position="-211"
    unicode-range="U+000D-FB02"
  />
<missing-glyph horiz-adv-x="500" 
d="M0 0v700h500v-700h-500zM225 99v70h60v-70h-60zM50 50h400v600h-400v-600zM229 215v63q0 32 16.5 52t37.5 37t38.5 38.5t17.5 59.5q0 14 -6 34.5t-25 36.5t-58 16q-34 0 -53.5 -12t-29 -29.5t-12.5 -33.5t-3 -25v-28h-49q-1 5 -2.5 14t-1.5 17q0 9 4 32.5t19 50
t45.5 45.5t82.5 19q53 0 82 -19t42 -44t16 -46t3 -26q0 -50 -22 -79.5t-45 -49.5q-17 -14 -30.5 -29.5t-13.5 -40.5v-53h-53z" />
    <glyph glyph-name="fi" unicode="fi" horiz-adv-x="763" 
d="M102 0v360h-85v150h85v13q0 65 7.5 106t27 64t56.5 33.5t95.5 13t143.5 2.5v-137q-41 0 -64 -1.5t-33.5 -7t-13 -17t-2.5 -32.5v-37h113v-150h-113v-360h-217zM501 0v510h218v-510h-218zM501 592v151h218v-151h-218z" />
    <glyph glyph-name="fl" unicode="fl" horiz-adv-x="743" 
d="M102 0v360h-85v150h85v13q0 65 7.5 106t27 64t56.5 33.5t95.5 13t143.5 2.5v-137q-41 0 -64 -1.5t-33.5 -7t-13 -17t-2.5 -32.5v-37h113v-150h-113v-360h-217zM481 0v743h218v-743h-218z" />
    <glyph glyph-name="f_f" unicode="ff" horiz-adv-x="836" 
d="M102 0v360h-85v150h85v13q0 65 7.5 106t27 64t56.5 33.5t95.5 13t143.5 2.5v-137q-41 0 -64 -1.5t-33.5 -7t-13 -17t-2.5 -32.5v-37h162v13q0 65 7.5 106t27 64t56.5 33.5t95.5 13t143.5 2.5v-137q-41 0 -64 -1.5t-33.5 -7t-13 -17t-2.5 -32.5v-37h113v-150h-113v-360
h-217v360h-162v-360h-217z" />
    <glyph glyph-name="f_f_i" unicode="ffi" horiz-adv-x="1142" 
d="M102 0v360h-85v150h85v13q0 65 7.5 106t27 64t56.5 33.5t95.5 13t143.5 2.5v-137q-41 0 -64 -1.5t-33.5 -7t-13 -17t-2.5 -32.5v-37h162v13q0 65 7.5 106t27 64t56.5 33.5t95.5 13t143.5 2.5v-137q-41 0 -64 -1.5t-33.5 -7t-13 -17t-2.5 -32.5v-37h113v-150h-113v-360
h-217v360h-162v-360h-217zM880 0v510h218v-510h-218zM880 592v151h218v-151h-218z" />
    <glyph glyph-name="f_f_l" unicode="ffl" horiz-adv-x="1122" 
d="M102 0v360h-85v150h85v13q0 65 7.5 106t27 64t56.5 33.5t95.5 13t143.5 2.5v-137q-41 0 -64 -1.5t-33.5 -7t-13 -17t-2.5 -32.5v-37h162v13q0 65 7.5 106t27 64t56.5 33.5t95.5 13t143.5 2.5v-137q-41 0 -64 -1.5t-33.5 -7t-13 -17t-2.5 -32.5v-37h113v-150h-113v-360
h-217v360h-162v-360h-217zM860 0v743h218v-743h-218z" />
    <glyph glyph-name=".notdef" horiz-adv-x="500" 
d="M0 0v700h500v-700h-500zM225 99v70h60v-70h-60zM50 50h400v600h-400v-600zM229 215v63q0 32 16.5 52t37.5 37t38.5 38.5t17.5 59.5q0 14 -6 34.5t-25 36.5t-58 16q-34 0 -53.5 -12t-29 -29.5t-12.5 -33.5t-3 -25v-28h-49q-1 5 -2.5 14t-1.5 17q0 9 4 32.5t19 50
t45.5 45.5t82.5 19q53 0 82 -19t42 -44t16 -46t3 -26q0 -50 -22 -79.5t-45 -49.5q-17 -14 -30.5 -29.5t-13.5 -40.5v-53h-53z" />
    <glyph glyph-name=".null" 
 />
    <glyph glyph-name="nonmarkingreturn" horiz-adv-x="333" 
 />
    <glyph glyph-name="CR" unicode="&#xd;" horiz-adv-x="264" 
 />
    <glyph glyph-name="space" unicode=" " horiz-adv-x="264" 
 />
    <glyph glyph-name="exclam" unicode="!" horiz-adv-x="381" 
d="M123 252q-7 63 -14 121.5t-12.5 109t-9.5 89.5t-6 65t-2 35v16h243v-16q0 -9 -2 -35t-6 -65t-9.5 -89.5t-12 -109t-14.5 -121.5h-155zM91 0v171h219v-171h-219z" />
    <glyph glyph-name="quotedbl" unicode="&#x22;" horiz-adv-x="553" 
d="M324 421l-21 221v46h184v-46l-21 -221h-142zM86 421l-21 221v46h184v-46l-21 -221h-142z" />
    <glyph glyph-name="numbersign" unicode="#" horiz-adv-x="685" 
d="M87 0l38 167h-81v121h109l26 113h-98v121h126l39 166h135l-39 -166h98l39 166h135l-39 -166h81v-121h-109l-26 -113h98v-121h-126l-38 -167h-135l38 167h-98l-38 -167h-135zM288 288h98l26 113h-98z" />
    <glyph glyph-name="dollar" unicode="$" horiz-adv-x="539" 
d="M270 65q-28 0 -60.5 2t-69.5 6t-82 9v142q18 -1 38 -2.5t39 -2.5t35.5 -1.5t28.5 -0.5q50 0 70.5 1.5t25 6.5t4.5 17q0 7 -1.5 10.5t-9.5 6t-27 4.5l-68 9q-70 9 -102 33t-40.5 61.5t-8.5 87.5q0 49 13.5 81t42 50.5t73 26.5t105.5 8q35 0 72.5 -3t69.5 -7t51 -7v-142
q-29 2 -56.5 3.5t-48 2.5t-31.5 1q-33 0 -52 -0.5t-28 -2.5t-11 -6t-2 -11t1.5 -11.5t10 -6.5t27.5 -5l78 -9q47 -6 78 -19.5t46.5 -47.5t15.5 -103q0 -70 -20.5 -109.5t-70 -55.5t-136.5 -16zM193 -8v704h156v-704h-156z" />
    <glyph glyph-name="percent" unicode="%" horiz-adv-x="909" 
d="M169 0l449 688h122l-449 -688h-122zM201 311q-51 0 -82 6.5t-47 25.5t-21.5 57.5t-5.5 103.5q0 64 5.5 102.5t21.5 57.5t47 25.5t82 6.5t82.5 -6.5t47.5 -25.5t22 -57.5t6 -102.5q0 -65 -6 -103.5t-22 -57.5t-47.5 -25.5t-82.5 -6.5zM201 398q14 0 22 2.5t11.5 12t4 31
t0.5 59.5q0 39 -0.5 60.5t-4 31t-11.5 12t-22 2.5q-13 0 -20.5 -2.5t-11 -12t-4 -31t-0.5 -60.5q0 -38 0.5 -59.5t4 -31t11 -12t20.5 -2.5zM706 -8q-51 0 -82 6.5t-47 25.5t-21.5 57.5t-5.5 103.5q0 64 5.5 102.5t21.5 57.5t47 25.5t82 6.5t82.5 -6.5t47.5 -25.5t22 -57.5
t6 -102.5q0 -65 -6 -103.5t-22 -57.5t-47.5 -25.5t-82.5 -6.5zM706 79q14 0 22 2.5t11.5 12t4 31t0.5 59.5q0 39 -0.5 60.5t-4 31t-11.5 12t-22 2.5q-13 0 -20.5 -2.5t-11 -12t-4 -31t-0.5 -60.5q0 -38 0.5 -59.5t4 -31t11 -12t20.5 -2.5z" />
    <glyph glyph-name="ampersand" unicode="&#x26;" horiz-adv-x="734" 
d="M358 -8q-85 0 -143.5 9.5t-95 27t-56 41.5t-26.5 53t-7 61q0 56 14.5 88.5t42.5 50t68 26.5v4q-60 14 -89.5 50.5t-29.5 111.5q0 41 14 74t49.5 57t98 37t159.5 13q40 0 87.5 -3.5t94 -9t82.5 -12.5v-144q-33 4 -74 7t-82.5 5t-75.5 2q-44 0 -70 -2t-39.5 -8t-17.5 -18
t-4 -33t2.5 -33t9.5 -17.5t20 -6.5t34 -1h28v-150h-28q-21 0 -35 -1.5t-22 -7.5t-11.5 -18.5t-3.5 -35.5q0 -27 8 -40.5t30.5 -18t67.5 -4.5h26t27.5 1t31.5 3l-35 -48v320h317v-150h-100v-256q-38 -7 -85.5 -12.5t-94.5 -8.5t-87 -3z" />
    <glyph glyph-name="quotesingle" unicode="'" horiz-adv-x="314" 
d="M86 421l-21 221v46h184v-46l-21 -221h-142z" />
    <glyph glyph-name="parenleft" unicode="(" horiz-adv-x="384" 
d="M230 -150q-39 41 -68.5 74.5t-50 66.5t-33 74t-18.5 97t-6 135t6 135.5t18.5 98.5t33 76t50 66t68.5 70h133q-23 -30 -41.5 -56.5t-32.5 -57.5t-23 -74t-14 -105.5t-5 -152.5q0 -91 5 -153.5t14 -105.5t23 -74t32.5 -57.5t41.5 -56.5h-133z" />
    <glyph glyph-name="parenright" unicode=")" horiz-adv-x="384" 
d="M21 -150q23 30 41.5 56.5t32.5 57.5t23 74t14 105.5t5 153.5q0 90 -5 152.5t-14 105.5t-23 74t-32.5 57.5t-41.5 56.5h133q39 -38 68.5 -70t50 -66t33 -76t18.5 -98.5t6 -135.5t-6 -135t-18.5 -97t-33 -74t-50 -66.5t-68.5 -74.5h-133z" />
    <glyph glyph-name="asterisk" unicode="*" horiz-adv-x="456" 
d="M178 320l13 120l-100 -72l-50 86l111 49l-111 51l50 86l100 -72l-13 120h100l-13 -119l100 71l50 -86l-113 -51l113 -49l-50 -86l-100 72l13 -120h-100z" />
    <glyph glyph-name="plus" unicode="+" horiz-adv-x="540" 
d="M197 53v128h-127v143h127v129h145v-129h128v-143h-128v-128h-145z" />
    <glyph glyph-name="comma" unicode="," horiz-adv-x="347" 
d="M64 -162v77q34 0 49.5 6.5t20.5 22t5 41.5v15h-75v171h219v-133q0 -58 -7 -96.5t-29 -61.5t-66 -32.5t-117 -9.5z" />
    <glyph glyph-name="hyphen" unicode="-" horiz-adv-x="381" 
d="M45 205v158h291v-158h-291z" />
    <glyph glyph-name="period" unicode="." horiz-adv-x="347" 
d="M64 0v171h219v-171h-219z" />
    <glyph glyph-name="slash" unicode="/" horiz-adv-x="440" 
d="M-12 -55l290 798h174l-291 -798h-173z" />
    <glyph glyph-name="zero" unicode="0" horiz-adv-x="658" 
d="M329 -8q-78 0 -130 7t-83.5 27t-47.5 59t-21 102t-5 157t5 157t21 102t47.5 59t83.5 27t130 7t130 -7t83.5 -27t47.5 -59t21 -102t5 -157t-5 -157t-21 -102t-47.5 -59t-83.5 -27t-130 -7zM329 159q16 0 25.5 2t15 11t8 28.5t3 54.5t0.5 89t-0.5 89t-3 54.5t-8 28.5
t-15 11t-25.5 2t-25.5 -2t-15 -11t-8 -28.5t-3 -54.5t-0.5 -89t0.5 -89t3 -54.5t8 -28.5t15 -11t25.5 -2z" />
    <glyph glyph-name="one" unicode="1" horiz-adv-x="406" 
d="M122 0v470l-117 -46v170l191 94h160v-688h-234z" />
    <glyph glyph-name="two" unicode="2" horiz-adv-x="614" 
d="M43 0v104q0 56 2 97.5t11.5 72.5t31 53t59.5 38l140 56q23 9 33 16t12.5 17.5t2.5 31.5q0 20 -6.5 29t-23 11.5t-47.5 2.5q-21 0 -53 -2t-70 -5t-78 -8v158q35 7 79 12.5t90 8.5t86 3q52 0 98.5 -7t82 -27t56 -59.5t20.5 -105.5t-14 -107.5t-38 -64.5t-54 -35l-157 -60
q-14 -5 -23 -10t-13 -12t-4 -19v-19h303v-170h-526z" />
    <glyph glyph-name="three" unicode="3" horiz-adv-x="611" 
d="M278 -8q-35 0 -76.5 3t-82.5 8.5t-74 11.5v156q37 -3 76 -6t74 -4.5t60 -1.5q34 0 51 2.5t22.5 13t5.5 34.5q0 27 -5 39t-18.5 15t-39.5 3h-107v163h107q28 0 40 3.5t15 14.5t3 33q0 24 -4.5 34t-22.5 12.5t-57 2.5q-29 0 -64.5 -2t-70 -4.5t-61.5 -6.5v157q32 7 72.5 12
t82 8t75.5 3q82 0 136.5 -11.5t87 -34.5t46.5 -57t14 -78q0 -75 -29.5 -111.5t-90.5 -50.5v-4q41 -10 69 -27t42 -49.5t14 -88.5q0 -45 -12.5 -80.5t-44 -60.5t-88 -38t-145.5 -13z" />
    <glyph glyph-name="four" unicode="4" horiz-adv-x="656" 
d="M333 0v125h-306v149l205 414h249l-217 -396h80l71 124h146v-124h73v-167h-73v-125h-228z" />
    <glyph glyph-name="five" unicode="5" horiz-adv-x="629" 
d="M295 -8q-33 0 -74 3t-82 7.5t-77 11.5v156q32 -3 69.5 -5.5t72.5 -4t61 -1.5q29 0 46 1.5t26 7t12 18t3 34.5q0 20 -3 32.5t-11.5 18.5t-25.5 8t-45 2q-29 0 -64 -1.5t-69.5 -3.5t-63.5 -5v417h465v-170h-268v-80q17 2 35 3.5t38 2t40 0.5q61 0 101 -14.5t63 -42
t32.5 -66.5t9.5 -89q0 -61 -12.5 -106t-44 -75t-88.5 -44.5t-146 -14.5z" />
    <glyph glyph-name="six" unicode="6" horiz-adv-x="665" 
d="M345 -8q-75 0 -128.5 8.5t-89.5 33.5t-59 75q-8 19 -14 52t-9 79t-3 105q0 47 2.5 86.5t8.5 72.5t16 58q19 49 54 78.5t91.5 42.5t137.5 13q29 0 67.5 -3t81.5 -8t83 -12v-156q-41 4 -78.5 6.5t-66.5 4t-46 1.5q-39 0 -63 -4.5t-36 -18t-16.5 -40t-4.5 -69.5h6
q6 7 19.5 18t40.5 20t70 9q51 0 91 -8.5t68 -30.5t43 -63t15 -106q0 -63 -12 -109t-43 -76t-85.5 -44.5t-140.5 -14.5zM337 155q21 0 35 2t21.5 8t10.5 18.5t3 33.5t-3 34t-10.5 19.5t-21.5 8.5t-35 2q-22 0 -34.5 -3t-18.5 -10.5t-7.5 -18.5t-1.5 -28q0 -25 3.5 -38.5
t10.5 -19.5t19 -7t29 -1z" />
    <glyph glyph-name="seven" unicode="7" horiz-adv-x="578" 
d="M77 0l233 518h-281v170h522v-155l-220 -533h-254z" />
    <glyph glyph-name="eight" unicode="8" horiz-adv-x="678" 
d="M339 -8q-91 0 -149.5 13t-91 38t-45.5 60.5t-13 80.5q0 56 14.5 88.5t42.5 50t68 26.5v4q-60 14 -89.5 50.5t-29.5 111.5q0 44 14.5 78t48 57t90 34.5t140.5 11.5t140.5 -11.5t90 -34.5t48 -57t14.5 -78q0 -75 -30 -111.5t-89 -50.5v-4q41 -9 68.5 -26.5t42 -50
t14.5 -88.5q0 -45 -13 -80.5t-45.5 -60.5t-91 -38t-149.5 -13zM339 150q29 0 43.5 4t19.5 17.5t5 41.5q0 23 -2.5 36t-10 19t-21 8t-34.5 2t-34.5 -2t-20.5 -8t-10 -19t-3 -36q0 -28 5 -41.5t20 -17.5t43 -4zM339 416q29 0 42 3.5t16.5 16.5t3.5 40q0 28 -3.5 41t-16.5 16.5
t-42 3.5q-28 0 -41 -3.5t-17 -16.5t-4 -41q0 -27 3.5 -40t17 -16.5t41.5 -3.5z" />
    <glyph glyph-name="nine" unicode="9" horiz-adv-x="665" 
d="M313 -8q-30 0 -70.5 3t-82.5 8.5t-79 11.5v156q42 -3 79 -6t66.5 -4.5t45.5 -1.5q39 0 63 4.5t36 18t16.5 40t4.5 69.5h-6q-5 -7 -19 -18t-40.5 -20t-70.5 -9q-51 0 -91 8.5t-68 30.5t-43 63t-15 106q0 63 12 109t43 76t86 44.5t140 14.5t141.5 -10t90.5 -38t49 -83
q13 -43 17.5 -97t4.5 -125q0 -55 -3.5 -100t-11.5 -79.5t-22 -59.5q-22 -41 -58 -65.5t-88.5 -35.5t-126.5 -11zM328 407q22 0 34.5 3t18.5 10.5t7.5 19t1.5 27.5q0 25 -3.5 38.5t-10.5 19.5t-19 7t-29 1q-21 0 -35 -2t-21.5 -8t-10.5 -18.5t-3 -33.5t3 -34t10.5 -19.5
t21.5 -8.5t35 -2z" />
    <glyph glyph-name="colon" unicode=":" horiz-adv-x="347" 
d="M64 338v172h219v-172h-219zM64 0v171h219v-171h-219z" />
    <glyph glyph-name="semicolon" unicode=";" horiz-adv-x="347" 
d="M64 -162v77q34 0 49.5 6.5t20.5 22t5 41.5v15h-75v171h219v-133q0 -58 -7 -96.5t-29 -61.5t-66 -32.5t-117 -9.5zM64 338v172h219v-172h-219z" />
    <glyph glyph-name="less" unicode="&#x3c;" horiz-adv-x="541" 
d="M471 45l-400 138v139l400 139v-142l-220 -66l220 -66v-142z" />
    <glyph glyph-name="equal" unicode="=" horiz-adv-x="540" 
d="M70 289v143h400v-143h-400zM70 73v143h400v-143h-400z" />
    <glyph glyph-name="greater" unicode="&#x3e;" horiz-adv-x="541" 
d="M70 45v142l219 66l-219 66v142l400 -139v-139z" />
    <glyph glyph-name="question" unicode="?" horiz-adv-x="524" 
d="M127 252v59q0 42 8 66t24.5 37t41.5 21l21 7q13 4 19 8t8 12.5t2 24.5q0 20 -4.5 29t-17 11t-35.5 2q-15 0 -37.5 -1t-46 -2.5t-44 -3t-32.5 -3.5v157q27 6 63 10.5t75 7t74 2.5q42 0 83 -4t74.5 -21t53.5 -55t20 -107q0 -54 -10.5 -85t-28 -47.5t-39.5 -25t-45 -17.5
l-15 -5q-10 -4 -15.5 -7t-8 -8t-3 -16.5t-0.5 -31.5v-14h-185zM111 0v171h219v-171h-219z" />
    <glyph glyph-name="at" unicode="@" horiz-adv-x="946" 
d="M473 -108q-114 0 -188.5 8t-118 30.5t-65 67t-27.5 116.5t-6 180t6 180t27.5 116.5t65 67t118 30.5t188.5 8t188.5 -8t118 -30.5t65 -67t27.5 -116.5t6 -180q0 -82 -7.5 -127t-24 -64.5t-43 -23.5t-65.5 -4h-228l-4 51h-8q-18 -27 -36.5 -39t-38 -15.5t-41.5 -3.5
q-39 0 -65 14.5t-39.5 44.5t-13.5 75q0 52 11.5 80.5t42 39.5t88.5 11q10 0 28 -0.5t37.5 -1t33.5 -1.5v14q0 17 -2.5 26.5t-11.5 13.5t-27.5 5t-49.5 1h-17t-20 -0.5t-33.5 -1.5t-56.5 -3v118q43 8 90 11.5t94 3.5q78 0 122 -11t64.5 -34t26 -57.5t5.5 -82.5v-186h57
q17 0 27.5 3t15.5 16t6.5 43t1.5 85q0 90 -3 149.5t-15 95.5t-40.5 54.5t-79.5 25.5q-27 4 -74 4.5t-112 0.5t-112.5 -0.5t-73.5 -4.5q-51 -7 -79 -25.5t-40.5 -54.5t-15 -95.5t-2.5 -149.5q0 -102 3.5 -165t20.5 -97.5t56.5 -49t111.5 -18.5q20 -1 54.5 -1h78.5h65
t56.5 0.5t49 1.5t41.5 2v-73q-13 -1 -28 -1.5t-37 -0.5h-57.5h-91.5zM469 185q18 0 25.5 5.5t9 17t1.5 28.5v23h-34q-17 0 -25 -2.5t-10.5 -11t-2.5 -26.5q0 -12 1.5 -19.5t9.5 -11t25 -3.5z" />
    <glyph glyph-name="A" unicode="A" horiz-adv-x="697" 
d="M-5 0l191 688h325l191 -688h-232l-25 103h-199l-24 -103h-227zM284 263h122l-57 237h-9z" />
    <glyph glyph-name="B" unicode="B" horiz-adv-x="660" 
d="M51 0v688h368q63 0 108.5 -18t69.5 -56t24 -99q0 -50 -13.5 -82.5t-41 -51t-68.5 -28.5v-4q39 -9 67 -25.5t43 -49t15 -90.5q0 -46 -12 -80.5t-37 -57.5t-64 -34.5t-93 -11.5h-366zM281 161h48q27 0 40 3.5t16.5 16t3.5 38.5q0 27 -3.5 39.5t-16.5 16.5t-40 4h-48v-118z
M281 416h48q27 0 40 3.5t16.5 15.5t3.5 36q0 26 -3.5 37.5t-16.5 15t-40 3.5h-48v-111z" />
    <glyph glyph-name="C" unicode="C" horiz-adv-x="567" 
d="M342 -8q-80 0 -134 11t-87.5 35.5t-50 65t-22.5 100t-6 140.5t6 140.5t22.5 100t50 65t87.5 35.5t134 11q32 0 66 -2.5t65.5 -6.5t54.5 -10v-156q-40 3 -65.5 5t-40.5 2.5t-25 0.5q-36 0 -58.5 -3t-35.5 -13.5t-18.5 -30.5t-6.5 -53.5t-1 -84.5t1 -84.5t6.5 -54
t18.5 -30.5t35.5 -13t58.5 -3q30 0 68 2t67 6v-159q-22 -4 -54.5 -8t-67.5 -6t-68 -2z" />
    <glyph glyph-name="D" unicode="D" horiz-adv-x="670" 
d="M51 0v688h255q96 0 156.5 -10t94.5 -33t49 -62.5t18.5 -98t3.5 -140.5t-3.5 -140.5t-18.5 -98t-49 -62.5t-94.5 -33t-156.5 -10h-255zM285 167h24q25 0 41 2.5t25 11t12.5 27.5t4.5 51.5t1 83.5q0 52 -1 85t-4.5 52t-12.5 28t-25 11t-41 2h-24v-354z" />
    <glyph glyph-name="E" unicode="E" horiz-adv-x="603" 
d="M51 0v688h504v-167h-271v-92h224v-163h-224v-99h271v-167h-504z" />
    <glyph glyph-name="F" unicode="F" horiz-adv-x="569" 
d="M51 0v688h484v-167h-251v-121h214v-167h-214v-233h-233z" />
    <glyph glyph-name="G" unicode="G" horiz-adv-x="662" 
d="M357 -8q-78 0 -132.5 10.5t-90.5 34t-56 64t-28 100.5t-8 143t8 143t28 100.5t56 64t90.5 34t132.5 10.5q37 0 81.5 -3t89.5 -8.5t83 -12.5v-156q-31 4 -65.5 6.5t-65 4.5t-48.5 2q-47 0 -77 -2t-47 -11t-25 -28.5t-10 -54.5t-2 -89q0 -48 1.5 -81.5t7 -54.5t16 -32.5
t28 -16t43.5 -4.5q4 0 11 0.5t16 0.5h16v107h-66v151h270v-401q-37 -6 -82.5 -10.5t-91 -7.5t-83.5 -3z" />
    <glyph glyph-name="H" unicode="H" horiz-adv-x="697" 
d="M51 0v688h234v-250h127v250h234v-688h-234v251h-127v-251h-234z" />
    <glyph glyph-name="I" unicode="I" horiz-adv-x="336" 
d="M51 0v688h234v-688h-234z" />
    <glyph glyph-name="J" unicode="J" horiz-adv-x="438" 
d="M18 0v158q49 0 76.5 2.5t40 13.5t15.5 34t3 63v417h234v-360q0 -94 -5 -155.5t-23 -96.5t-57.5 -51t-108 -20.5t-175.5 -4.5z" />
    <glyph glyph-name="K" unicode="K" horiz-adv-x="696" 
d="M51 0v688h234v-257h10l149 257h249l-207 -323l210 -365h-255l-146 268h-10v-268h-234z" />
    <glyph glyph-name="L" unicode="L" horiz-adv-x="533" 
d="M51 0v688h234v-512h230v-176h-464z" />
    <glyph glyph-name="M" unicode="M" horiz-adv-x="903" 
d="M51 0v688h320l77 -323h9l76 323h319v-688h-223v387h-11l-92 -387h-155l-92 387h-11v-387h-217z" />
    <glyph glyph-name="N" unicode="N" horiz-adv-x="705" 
d="M51 0v688h239l134 -266h7v266h223v-688h-215l-159 321h-6v-321h-223z" />
    <glyph glyph-name="O" unicode="O" horiz-adv-x="695" 
d="M347 -8q-91 0 -148.5 11t-89.5 35t-46.5 65t-17.5 100.5t-3 140.5t3 140.5t17.5 100.5t46.5 65t89.5 35t148.5 11t148.5 -11t90 -35t46.5 -65t17.5 -100.5t3.5 -140.5t-3.5 -140.5t-17.5 -100.5t-46.5 -65t-90 -35t-148.5 -11zM347 159q21 0 34.5 2t21 11t10.5 28.5
t4 54.5t1 89t-1 89t-4 54.5t-10.5 28.5t-21 11t-34.5 2t-34.5 -2t-20.5 -11t-10.5 -28.5t-4 -54.5t-0.5 -89t0.5 -89t4 -54.5t10.5 -28.5t20.5 -11t34.5 -2z" />
    <glyph glyph-name="P" unicode="P" horiz-adv-x="636" 
d="M51 0v688h353q69 0 110.5 -14.5t63.5 -44.5t29.5 -75t7.5 -106q0 -55 -6.5 -99t-27.5 -75.5t-63.5 -48t-113.5 -16.5h-119v-209h-234zM285 372h31q22 0 34.5 2t19 9.5t8.5 22.5t2 42t-2 43t-8.5 23t-19 9t-34.5 2h-31v-153z" />
    <glyph glyph-name="Q" unicode="Q" horiz-adv-x="695" 
d="M462 -115l-218 333h231l225 -324v-9h-238zM347 -8q-91 0 -148.5 11t-89.5 35t-46.5 65t-17.5 100.5t-3 140.5t3 140.5t17.5 100.5t46.5 65t89.5 35t148.5 11t148.5 -11t90 -35t46.5 -65t17.5 -100.5t3.5 -140.5t-3.5 -140.5t-17.5 -100.5t-46.5 -65t-90 -35t-148.5 -11z
M347 159q21 0 34.5 2t21 11t10.5 28.5t4 54.5t1 89t-1 89t-4 54.5t-10.5 28.5t-21 11t-34.5 2t-34.5 -2t-20.5 -11t-10.5 -28.5t-4 -54.5t-0.5 -89t0.5 -89t4 -54.5t10.5 -28.5t20.5 -11t34.5 -2z" />
    <glyph glyph-name="R" unicode="R" horiz-adv-x="665" 
d="M51 0v688h362q69 0 111.5 -14t64.5 -42.5t29.5 -72t7.5 -101.5q0 -47 -5.5 -85.5t-22.5 -67.5t-51 -48l94 -257h-240l-82 272l58 -33q-10 -7 -20.5 -8.5t-27.5 -1.5h-44v-229h-234zM285 384h42q21 0 34 1.5t20 8t9 21t2 39.5q0 24 -1 38t-7 21t-19.5 9.5t-38.5 2.5h-41
v-141z" />
    <glyph glyph-name="S" unicode="S" horiz-adv-x="609" 
d="M320 -8q-43 0 -92 2.5t-95 6.5t-80 9v159q37 -3 72.5 -5.5t67 -3.5t53.5 -1q40 0 60 1.5t27 6.5q5 4 7 9t2.5 12t0.5 16q0 15 -3 23t-12 12.5t-27 7.5t-48 7l-117 15q-31 4 -51 20.5t-31.5 44t-16 66t-4.5 85.5q0 68 21 109.5t58.5 63.5t86.5 30t106 8q42 0 86.5 -3
t84 -7.5t65.5 -10.5v-157q-25 3 -59.5 5.5t-70.5 4t-68 1.5q-24 0 -39 -1t-23 -6t-11.5 -12.5t-3.5 -18.5q0 -17 3 -26t15 -12.5t38 -7.5l105 -13q26 -3 49 -10t43 -21.5t35 -43.5q7 -12 11.5 -31t7.5 -44.5t3 -58.5q0 -63 -12.5 -105t-36 -67t-55.5 -38t-70.5 -17t-81.5 -4
z" />
    <glyph glyph-name="T" unicode="T" horiz-adv-x="597" 
d="M181 0v512h-168v176h571v-176h-169v-512h-234z" />
    <glyph glyph-name="U" unicode="U" horiz-adv-x="675" 
d="M337 -8q-85 0 -139 10.5t-84 33.5t-43.5 60.5t-16.5 92t-3 127.5v372h234v-410q0 -41 1 -64.5t5.5 -34.5t15.5 -14t30 -3q20 0 30.5 3t15.5 14t6 34.5t1 64.5v410h234v-372q0 -73 -3 -127.5t-16.5 -92t-44 -60.5t-84.5 -33.5t-139 -10.5z" />
    <glyph glyph-name="V" unicode="V" horiz-adv-x="663" 
d="M177 0l-180 688h238l93 -442h11l93 442h234l-180 -688h-309z" />
    <glyph glyph-name="W" unicode="W" horiz-adv-x="985" 
d="M127 0l-127 688h232l58 -432h11l74 432h240l76 -432h11l50 432h233l-127 -688h-295l-65 347h-11l-65 -347h-295z" />
    <glyph glyph-name="X" unicode="X" horiz-adv-x="702" 
d="M5 0l198 346l-194 342h260l81 -172h9l85 172h250l-194 -338l197 -350h-260l-85 175h-11l-86 -175h-250z" />
    <glyph glyph-name="Y" unicode="Y" horiz-adv-x="662" 
d="M214 0v222l-217 466h238l95 -256h7l95 256h233l-217 -466v-222h-234z" />
    <glyph glyph-name="Z" unicode="Z" horiz-adv-x="620" 
d="M38 0v161l260 360h-249v167h533v-156l-264 -365h263v-167h-543z" />
    <glyph glyph-name="bracketleft" unicode="[" horiz-adv-x="409" 
d="M59 -150v893h304v-120l-119 -4v-645l119 -4v-120h-304z" />
    <glyph glyph-name="backslash" unicode="\" horiz-adv-x="440" 
d="M279 -55l-291 798h174l290 -798h-173z" />
    <glyph glyph-name="bracketright" unicode="]" horiz-adv-x="409" 
d="M46 -150v120l119 4v645l-119 4v120h304v-893h-304z" />
    <glyph glyph-name="asciicircum" unicode="^" horiz-adv-x="421" 
d="M-2 444l142 305h141l142 -305h-145l-68 177l-68 -177h-144z" />
    <glyph glyph-name="underscore" unicode="_" horiz-adv-x="406" 
d="M0 -193v142h406v-142h-406z" />
    <glyph glyph-name="grave" unicode="`" horiz-adv-x="284" 
d="M136 565l-136 143v5h198l86 -143v-5h-148z" />
    <glyph glyph-name="a" unicode="a" horiz-adv-x="567" 
d="M166 -8q-46 0 -76.5 16t-46 51t-15.5 90q0 57 13 90.5t49 48t103 14.5q8 0 21.5 -0.5t30.5 -1t33.5 -1t30.5 -1.5v17q0 20 -3.5 31t-13.5 15.5t-31.5 5.5t-57.5 1q-24 0 -49.5 -1t-50.5 -2t-48 -3v138q38 7 92.5 12.5t121.5 5.5q72 0 119 -9t74.5 -26.5t40.5 -43.5
t16.5 -60t3.5 -77v-302h-209l-4 56h-10q-21 -29 -42.5 -43t-44 -17.5t-47.5 -3.5zM267 129q12 0 19 2t12 6.5t7 10.5q3 7 3.5 17t0.5 23v27h-40q-20 0 -29.5 -3t-12 -13t-2.5 -31q0 -14 2 -23t11 -12.5t29 -3.5z" />
    <glyph glyph-name="b" unicode="b" horiz-adv-x="584" 
d="M400 -8q-26 0 -51.5 5t-46.5 19t-36 41h-11l-4 -57h-207v743h214v-284h10q17 26 37.5 38t44 16t47.5 4q41 0 70.5 -12t49 -41.5t28.5 -81t9 -129.5t-9 -129t-28 -80t-48 -40.5t-69 -11.5zM299 157q16 0 24.5 2t12 11t4.5 29t1 56t-1 56t-4.5 29t-12 11t-24.5 2
q-18 0 -26.5 -3t-11.5 -18q-2 -13 -2.5 -31t-0.5 -46t0.5 -46t2.5 -30q3 -15 11.5 -18.5t26.5 -3.5z" />
    <glyph glyph-name="c" unicode="c" horiz-adv-x="466" 
d="M264 -8q-68 0 -112 12.5t-69 35.5t-36 55t-14 72.5t-3 86.5t2.5 86.5t13.5 73t36 56t69 36t113 12.5q44 0 85 -4.5t80 -13.5v-138q-18 2 -48 4t-57 2t-42.5 -4t-23 -15.5t-9.5 -34t-2 -59.5t2 -59.5t9 -34t22.5 -15.5t43.5 -4q23 0 53.5 2t55.5 5v-138q-41 -9 -84.5 -14
t-84.5 -5z" />
    <glyph glyph-name="d" unicode="d" horiz-adv-x="584" 
d="M184 -8q-40 0 -69 11.5t-48 40.5t-28 80t-9 129t9 129.5t28.5 81t49 41.5t70.5 12q25 0 48 -4t43.5 -16t37.5 -38h10v284h214v-743h-207l-4 57h-11q-15 -27 -36 -41t-46 -19t-52 -5zM285 157q20 0 28 4t10 21q2 15 2.5 32t0.5 41v39.5t-2 28.5q-2 21 -10.5 25.5
t-28.5 4.5q-16 0 -24.5 -2t-12 -11t-4.5 -29t-1 -56t1 -56t4.5 -29t12 -11t24.5 -2z" />
    <glyph glyph-name="e" unicode="e" horiz-adv-x="558" 
d="M303 -8q-79 0 -130 9.5t-80 29t-42.5 50.5t-17 74t-3.5 99q0 71 6 121t29.5 81.5t74.5 46.5t141 15q73 0 118.5 -8.5t71 -27t36.5 -49t13.5 -75t2.5 -104.5v-39h-284q0 -27 3 -42t14 -21.5t34.5 -8t63.5 -1.5q17 0 41 1t52.5 2.5t55.5 3.5v-137q-20 -6 -52.5 -10.5
t-71 -7t-76.5 -2.5zM325 284v16q0 30 -1 47t-5.5 24.5t-13.5 9.5t-24 2q-14 0 -22.5 -2t-12.5 -9.5t-5.5 -24.5t-1.5 -47h102z" />
    <glyph glyph-name="f" unicode="f" horiz-adv-x="457" 
d="M102 0v360h-85v150h85v13q0 65 7.5 106t27 64t56.5 33.5t95.5 13t143.5 2.5v-137q-41 0 -64 -1.5t-33.5 -7t-13 -17t-2.5 -32.5v-37h113v-150h-113v-360h-217z" />
    <glyph glyph-name="g" unicode="g" horiz-adv-x="584" 
d="M265 -206q-33 0 -69 2t-67.5 5.5t-53.5 7.5v135h43.5h43.5h44q45 0 69.5 1.5t35 8.5t13 22.5t2.5 43.5v47h-10q-17 -25 -37.5 -37.5t-43.5 -16.5t-48 -4q-41 0 -70.5 12t-49 40.5t-28.5 78t-9 125.5t9 125.5t28 77t48 39t69 11.5q27 0 52 -5t46 -19t36 -41h11l4 57h207
v-455q0 -64 -6.5 -112.5t-32.5 -81.5t-81.5 -50t-154.5 -17zM285 173q20 0 28 4t10 21q2 12 2.5 27.5t0.5 37.5v36.5t-2 25.5q-2 20 -10.5 24t-28.5 4q-16 0 -24.5 -2t-12 -10t-4.5 -26.5t-1 -51.5t1 -51.5t4.5 -26.5t12 -10t24.5 -2z" />
    <glyph glyph-name="h" unicode="h" horiz-adv-x="588" 
d="M44 0v743h214v-290h10q18 27 40.5 41t47 19t44.5 5q49 0 77.5 -13t43 -38.5t19 -62.5t4.5 -85v-319h-214v269q0 31 -1 48t-4 24.5t-10.5 9t-19.5 1.5q-13 0 -21 -1.5t-11 -9t-4 -24.5t-1 -48v-269h-214z" />
    <glyph glyph-name="i" unicode="i" horiz-adv-x="306" 
d="M44 592v151h218v-151h-218zM44 0v510h218v-510h-218z" />
    <glyph glyph-name="j" unicode="j" horiz-adv-x="306" 
d="M44 592v151h218v-151h-218zM-28 -199v138q35 0 50 5.5t18.5 17t3.5 28.5v520h218v-473q0 -81 -11 -128.5t-41.5 -70.5t-88 -30t-149.5 -7z" />
    <glyph glyph-name="k" unicode="k" horiz-adv-x="601" 
d="M44 0v743h214v-416h9l107 183h224l-153 -241l156 -269h-234l-100 177h-9v-177h-214z" />
    <glyph glyph-name="l" unicode="l" horiz-adv-x="306" 
d="M44 0v743h218v-743h-218z" />
    <glyph glyph-name="m" unicode="m" horiz-adv-x="865" 
d="M44 0v510h207l4 -57h10q18 27 41.5 41t48 19t44.5 5q57 0 88 -15t44 -50h10q18 27 41.5 41t48 19t45.5 5q63 0 94 -23.5t41 -67.5t10 -108v-319h-214v269q0 31 -1 48t-4.5 24.5t-10 9t-17.5 1.5q-13 0 -20.5 -1.5t-10.5 -9t-3.5 -24.5t-0.5 -48v-269h-213v269q0 31 -1 48
t-4.5 24.5t-10 9t-17.5 1.5q-13 0 -20.5 -1.5t-10.5 -9t-3.5 -24.5t-0.5 -48v-269h-214z" />
    <glyph glyph-name="n" unicode="n" horiz-adv-x="588" 
d="M44 0v510h207l4 -57h10q18 27 41.5 41t48 19t44.5 5q49 0 78 -13t43.5 -38.5t19 -62.5t4.5 -85v-319h-214v269q0 31 -1 48t-4 24.5t-10.5 9t-19.5 1.5q-13 0 -21 -1.5t-11 -9t-4 -24.5t-1 -48v-269h-214z" />
    <glyph glyph-name="o" unicode="o" horiz-adv-x="571" 
d="M285 -8q-73 0 -120.5 7.5t-75 25.5t-40 48.5t-16 75t-3.5 106.5t3.5 106.5t16 75t40 48.5t75 25.5t120.5 7.5t120.5 -7.5t75 -25.5t40.5 -48.5t16.5 -75t3.5 -106.5t-3.5 -106.5t-16.5 -75t-40.5 -48.5t-75 -25.5t-120.5 -7.5zM285 142q16 0 24.5 2.5t12.5 13.5t5 34
t1 63q0 41 -1 63.5t-5 33.5t-12.5 13.5t-24.5 2.5t-24.5 -2.5t-12 -13.5t-4.5 -33.5t-1 -63.5q0 -40 1 -63t4.5 -34t12 -13.5t24.5 -2.5z" />
    <glyph glyph-name="p" unicode="p" horiz-adv-x="584" 
d="M44 -199v709h207l4 -57h11q15 27 36 41t46.5 19t51.5 5q40 0 69 -11.5t48 -40.5t28 -80t9 -129t-9 -129t-28.5 -80.5t-49 -42t-70.5 -12.5q-24 0 -47.5 4t-44 16.5t-37.5 37.5h-10v-250h-214zM299 157q16 0 24.5 2t12 11t4.5 29t1 56t-1 56t-4.5 29t-12 11t-24.5 2
q-18 0 -26.5 -3.5t-11.5 -20.5q-2 -12 -2.5 -29.5t-0.5 -44.5q0 -28 0.5 -46t1.5 -26q4 -19 13 -22.5t26 -3.5z" />
    <glyph glyph-name="q" unicode="q" horiz-adv-x="584" 
d="M326 -199v250h-10q-17 -25 -37.5 -37.5t-43.5 -16.5t-48 -4q-41 0 -70.5 12.5t-49 42t-28.5 80.5t-9 129t9 129t28 80t48 40.5t69 11.5q27 0 52 -5t46 -19t36 -41h11l4 57h207v-709h-214zM285 157q16 0 24.5 3t12.5 16q3 8 3.5 27t0.5 52q0 30 -0.5 49t-3.5 30
q-4 13 -12 16t-25 3q-16 0 -24.5 -2t-12 -11t-4.5 -29t-1 -56t1 -56t4.5 -29t12 -11t24.5 -2z" />
    <glyph glyph-name="r" unicode="r" horiz-adv-x="438" 
d="M44 0v510h207l4 -85h10q15 36 35 56t49 28.5t69 8.5v-186q-59 0 -94.5 -12t-50.5 -46.5t-15 -102.5v-171h-214z" />
    <glyph glyph-name="s" unicode="s" horiz-adv-x="502" 
d="M264 -8q-35 0 -75.5 2t-78.5 5t-68 7v136q19 -1 38.5 -2.5t38 -2.5t34.5 -1.5t28 -0.5q49 0 69.5 1t25 6.5t4.5 16.5q0 6 -2 9.5t-12 6t-35 5.5l-119 15q-37 5 -55.5 26.5t-24.5 57t-6 82.5q0 54 17.5 85.5t48 47t71.5 20t87 4.5q36 0 73.5 -2t70.5 -5t54 -7v-136
q-28 2 -55 3.5t-47.5 2.5t-31.5 1q-44 0 -63.5 -1t-24 -5t-4.5 -13q0 -7 2 -11t11 -6t30 -5l101 -13q32 -4 57 -16t39 -44t14 -98q0 -61 -16.5 -95.5t-46 -50.5t-67.5 -20.5t-82 -4.5z" />
    <glyph glyph-name="t" unicode="t" horiz-adv-x="438" 
d="M101 0v360h-84v150h84v148h218v-148h102v-150h-102v-360h-218z" />
    <glyph glyph-name="u" unicode="u" horiz-adv-x="588" 
d="M189 -8q-49 0 -78 13t-43.5 38.5t-19 62.5t-4.5 85v319h214v-269q0 -31 1 -48t4 -24.5t10.5 -9t19.5 -1.5q14 0 21.5 1.5t10.5 9t4 24.5t1 48v269h214v-510h-207l-4 57h-10q-17 -27 -40.5 -41t-48 -19t-45.5 -5z" />
    <glyph glyph-name="v" unicode="v" horiz-adv-x="566" 
d="M136 0l-131 510h214l61 -330h11l58 330h212l-132 -510h-293z" />
    <glyph glyph-name="w" unicode="w" horiz-adv-x="862" 
d="M115 0l-105 510h207l40 -316h11l67 316h195l71 -316h11l36 316h204l-105 -510h-265l-45 206h-11l-45 -206h-266z" />
    <glyph glyph-name="x" unicode="x" horiz-adv-x="586" 
d="M0 0l156 260l-150 250h231l60 -121h8l56 121h218l-150 -250l157 -260h-231l-66 131h-9l-62 -131h-218z" />
    <glyph glyph-name="y" unicode="y" horiz-adv-x="588" 
d="M272 -206q-33 0 -68 2t-66 5.5t-52 7.5v135h44h44h44q42 0 65 1.5t33 8t12 22.5t2 45v52h-10q-17 -27 -40 -41t-46.5 -19t-44.5 -5q-49 0 -78 13t-43.5 38.5t-19 62.5t-4.5 85v303h214v-253q0 -31 1 -48t4 -24.5t10.5 -9t19.5 -1.5q14 0 21.5 1.5t10.5 9t4 24.5t1 48v253
h214v-455q0 -64 -6.5 -112.5t-31.5 -81.5t-80.5 -50t-153.5 -17z" />
    <glyph glyph-name="z" unicode="z" horiz-adv-x="537" 
d="M35 0v142l198 218h-186v150h453v-142l-198 -218h200v-150h-467z" />
    <glyph glyph-name="braceleft" unicode="{" horiz-adv-x="390" 
d="M237 -150q-30 14 -55.5 35.5t-44.5 49t-29 58t-10 61.5v105q0 27 -7 46t-23.5 31.5t-46.5 19.5v81q30 7 46.5 19.5t23.5 32t7 45.5v105q0 31 10 61.5t29 58t44.5 49.5t55.5 35h133q-19 -18 -35 -40t-27.5 -45.5t-18 -46.5t-6.5 -43v-123q0 -56 -31 -95t-101 -50v-7
q70 -11 101 -50t31 -95v-123q0 -20 6.5 -43t18 -46.5t27.5 -45.5t35 -40h-133z" />
    <glyph glyph-name="bar" unicode="|" horiz-adv-x="309" 
d="M65 -161v904h179v-904h-179z" />
    <glyph glyph-name="braceright" unicode="}" horiz-adv-x="390" 
d="M20 -150q19 18 35 40t27.5 45.5t18 46.5t6.5 43v123q0 56 31 95t101 50v7q-70 11 -101 50t-31 95v123q0 20 -6.5 43t-18 46.5t-27.5 45.5t-35 40h133q30 -13 55.5 -35t44.5 -49.5t29 -58t10 -61.5v-105q0 -26 7 -45.5t23.5 -32t46.5 -19.5v-81q-30 -7 -46.5 -19.5
t-23.5 -31.5t-7 -46v-105q0 -31 -10 -61.5t-29 -58t-44.5 -49t-55.5 -35.5h-133z" />
    <glyph glyph-name="asciitilde" unicode="~" horiz-adv-x="497" 
d="M44 220q0 49 4.5 84t26 54t73.5 19q30 0 61 -5.5t57 -10.5q20 -4 37 -7t28 -3q17 0 19.5 8.5t2.5 29.5h100q0 -48 -4.5 -83.5t-26 -54.5t-73.5 -19q-30 0 -61 5.5t-58 10.5q-19 4 -36 7t-28 3q-16 0 -19 -9t-3 -29h-100z" />
    <glyph glyph-name="uni00A0" unicode="&#xa0;" horiz-adv-x="264" 
 />
    <glyph glyph-name="exclamdown" unicode="&#xa1;" horiz-adv-x="358" 
d="M58 -178v16q0 9 2 35t6 65t9.5 89.5t12.5 109t14 121.5h155q8 -63 14.5 -121.5t12 -109t9.5 -89.5t6 -65t2 -35v-16h-243zM70 339v171h219v-171h-219z" />
    <glyph glyph-name="cent" unicode="&#xa2;" horiz-adv-x="469" 
d="M266 68q-65 0 -108.5 12t-69 42t-36 83.5t-10.5 135.5q0 49 4 91t15.5 76t33.5 58.5t57.5 37.5t87.5 13q31 0 57 -0.5t55.5 -4.5t71.5 -14v-143q-16 2 -44.5 4t-54.5 2q-24 0 -38 -4.5t-21.5 -16.5t-9.5 -35.5t-2 -62.5t2 -62.5t9 -35.5t21 -16.5t39 -4.5q23 0 52 2t51 5
v-143q-16 -4 -38.5 -8.5t-52.5 -7.5t-71 -3zM184 -8v704h156v-704h-156z" />
    <glyph glyph-name="sterling" unicode="&#xa3;" horiz-adv-x="612" 
d="M38 0v167h74v108h-74v155h75v10q0 68 12.5 116.5t43.5 79.5t86 45.5t140 14.5q43 0 91 -5.5t79 -13.5v-157q-21 3 -43.5 5t-42 3t-31.5 1q-32 0 -52 -3t-31 -12t-15 -27t-4 -47v-10h142v-155h-142v-108h229v-167h-537z" />
    <glyph glyph-name="currency" unicode="&#xa4;" horiz-adv-x="682" 
d="M133 1l-101 101l69 69q-10 31 -12.5 73.5t-2.5 100.5q0 56 2 98t12 73l-70 70l103 103l84 -84q25 5 55.5 6.5t68.5 1.5q39 0 70 -2t56 -7l84 84l101 -101l-70 -70q10 -31 12.5 -73t2.5 -99t-2.5 -99.5t-12.5 -72.5l70 -70l-103 -103l-84 84q-25 -4 -55.5 -6t-68.5 -2
t-69 2t-56 6zM341 226q16 0 24.5 3t12.5 14t5 35t1 67q0 42 -1 66t-5 35t-12.5 14t-24.5 3t-24.5 -3t-12 -14t-4.5 -35t-1 -66q0 -43 1 -67t4.5 -35t12 -14t24.5 -3z" />
    <glyph glyph-name="yen" unicode="&#xa5;" horiz-adv-x="634" 
d="M200 0v195h-163v98h146l-171 395h227l77 -250h7l76 250h223l-171 -395h144v-98h-161v-195h-234zM37 347v98h558v-98h-558z" />
    <glyph glyph-name="brokenbar" unicode="&#xa6;" horiz-adv-x="309" 
d="M65 390v353h179v-353h-179zM65 -161v353h179v-353h-179z" />
    <glyph glyph-name="section" unicode="&#xa7;" horiz-adv-x="688" 
d="M330 -171q-46 0 -87.5 3t-72.5 7t-48 8v150q22 -1 55 -3t72.5 -3t78.5 -1q14 0 21 1.5t9.5 5.5t2.5 12q0 7 -2.5 10.5t-12.5 7t-33 10.5l-130 40q-41 13 -70 25t-47.5 30.5t-27.5 51t-9 86.5q0 44 4.5 74t15.5 50t30.5 32.5t48.5 20.5q-4 15 -6 34t-2 42q0 58 18.5 92.5
t51 52t75.5 23t92 5.5q47 0 88 -3t72.5 -7t48.5 -8v-150q-31 2 -88.5 4.5t-119.5 2.5q-13 0 -19.5 -1.5t-9 -5.5t-2.5 -12q0 -7 2.5 -10.5t14.5 -7.5l39 -13l132 -41q36 -11 63 -22.5t44.5 -30t26 -50.5t8.5 -86q0 -44 -4.5 -74t-15.5 -50t-30.5 -32.5t-48.5 -20.5
q5 -16 7.5 -34.5t2.5 -41.5q0 -58 -18.5 -92.5t-51.5 -52t-76 -23t-92 -5.5zM227 296q0 -20 3.5 -31t13 -16.5t27.5 -11.5l151 -48q17 -5 22 -6.5t6 -1.5q7 0 9 9.5t2 38.5q0 20 -3.5 30.5t-11 16t-20.5 9.5l-154 49l-24 7.5t-10 2.5q-7 0 -9 -9.5t-2 -38.5z" />
    <glyph glyph-name="dieresis" unicode="&#xa8;" horiz-adv-x="389" 
d="M0 576v124h165v-124h-165zM224 576v124h165v-124h-165z" />
    <glyph glyph-name="copyright" unicode="&#xa9;" horiz-adv-x="757" 
d="M379 -8q-85 0 -141.5 7t-89.5 27t-49 59t-21 102t-5 157t5 157t21 102t49 59t89.5 27t141.5 7q86 0 142 -7t89 -27t49 -59t20.5 -102t4.5 -157t-4.5 -157t-20.5 -102t-49 -59t-89 -27t-142 -7zM399 155q-53 0 -85 10t-48 32t-21 58.5t-5 88.5q0 53 5 89t21 58t48 32
t85 10q25 0 52.5 -2.5t46.5 -7.5v-84q-16 2 -37 3t-32 1q-24 0 -37 -3t-19 -12.5t-7 -29.5t-1 -54t1 -54t7 -29.5t19 -12.5t37 -3q20 0 40 1.5t31 2.5v-86q-21 -4 -49.5 -6t-51.5 -2zM379 63q68 0 110.5 3t66.5 16t34.5 43t13 83t2.5 136t-2.5 136t-13 83t-34.5 43t-66.5 16
t-110.5 3q-67 0 -110 -3t-67.5 -16t-35 -43t-13 -83t-2.5 -136t2.5 -136t13 -83t35 -43t67.5 -16t110 -3z" />
    <glyph glyph-name="ordfeminine" unicode="&#xaa;" horiz-adv-x="424" 
d="M129 312q-33 0 -55 12.5t-33.5 38.5t-11.5 64q0 42 9.5 66t35.5 34.5t74 10.5q8 0 22.5 -0.5t31.5 -1t30 -1.5v13q0 19 -5 27t-21 9.5t-51 1.5q-11 0 -23.5 -0.5t-31.5 -1t-51 -2.5v100q35 7 74.5 10.5t79.5 3.5q65 0 102 -9.5t54.5 -29t22 -49.5t4.5 -70v-220h-151
l-3 44h-7q-14 -23 -29.5 -33.5t-32 -13.5t-34.5 -3zM201 412q7 0 11.5 1t8.5 3.5t7 5.5q3 4 3.5 12.5t0.5 20.5v20h-29q-22 0 -27 -5.5t-5 -28.5q0 -16 4 -22.5t26 -6.5z" />
    <glyph glyph-name="guillemotleft" unicode="&#xab;" horiz-adv-x="521" 
d="M141 99l-132 205l132 206h131l-99 -206l99 -205h-131zM349 99l-132 205l132 206h131l-99 -206l99 -205h-131z" />
    <glyph glyph-name="logicalnot" unicode="&#xac;" horiz-adv-x="540" 
d="M324 53v128h-254v143h399v-271h-145z" />
    <glyph glyph-name="uni00AD" unicode="&#xad;" horiz-adv-x="381" 
d="M45 205v158h291v-158h-291z" />
    <glyph glyph-name="registered" unicode="&#xae;" horiz-adv-x="757" 
d="M379 -8q-85 0 -141.5 7t-89.5 27t-49 59t-21 102t-5 157t5 157t21 102t49 59t89.5 27t141.5 7q86 0 142 -7t89 -27t49 -59t20.5 -102t4.5 -157t-4.5 -157t-20.5 -102t-49 -59t-89 -27t-142 -7zM379 63q68 0 110.5 3t66.5 16t34.5 43t13 83t2.5 136t-2.5 136t-13 83
t-34.5 43t-66.5 16t-110.5 3q-67 0 -110 -3t-67.5 -16t-35 -43t-13 -83t-2.5 -136t2.5 -136t13 -83t35 -43t67.5 -16t110 -3zM227 159v370h188q52 0 77 -13.5t33 -41t8 -69.5q0 -37 -7.5 -65t-34.5 -43l50 -138h-123l-36 123h-37v-123h-118zM345 366h34q15 0 22.5 2t9.5 9.5
t2 25.5q0 17 -1.5 25t-8.5 10.5t-25 2.5h-33v-75z" />
    <glyph glyph-name="macron" unicode="&#xaf;" horiz-adv-x="358" 
d="M0 576v112h358v-112h-358z" />
    <glyph glyph-name="degree" unicode="&#xb0;" horiz-adv-x="400" 
d="M201 397q-53 0 -84.5 6t-47 22t-20.5 45.5t-5 75.5t5 75.5t20.5 45.5t47 22.5t84.5 6.5t84 -6.5t46.5 -22.5t20 -45.5t4.5 -75.5t-4.5 -75.5t-20 -45.5t-46.5 -22t-84 -6zM201 478q18 0 25.5 4.5t9 19.5t1.5 44q0 30 -1.5 44.5t-9 19.5t-25.5 5t-26 -5t-10 -19.5
t-2 -44.5q0 -29 2 -44t10 -19.5t26 -4.5z" />
    <glyph glyph-name="plusminus" unicode="&#xb1;" horiz-adv-x="540" 
d="M197 192v128h-127v143h127v129h145v-129h128v-143h-128v-128h-145zM70 0v142h400v-142h-400z" />
    <glyph glyph-name="uni00B2" unicode="&#xb2;" horiz-adv-x="349" 
d="M26 420v88q0 21 3.5 43t17.5 42t47 33l69 28q13 5 18.5 8.5t7 9.5t1.5 17t-3.5 15.5t-12.5 6t-27 1.5t-49 -2t-64 -6v88q29 6 69 10t74 4q39 0 72 -7.5t52.5 -31t19.5 -72.5q0 -35 -5.5 -58t-20.5 -37t-42 -24l-79 -29q-11 -3 -16 -6.5t-6 -7.5t-1 -11v-7h170v-95h-295z
" />
    <glyph glyph-name="uni00B3" unicode="&#xb3;" horiz-adv-x="348" 
d="M159 416q-29 0 -66 3.5t-65 8.5v88q31 -3 64 -5t54 -2q29 0 36.5 3.5t7.5 23.5q0 23 -6.5 27t-28.5 4h-60v91h60q16 0 22.5 2t8.5 8t2 18q0 13 -3 18t-13 6.5t-32 1.5q-25 0 -56 -2t-54 -5v88q27 5 64 9t65 4q62 0 96.5 -11.5t49 -34t14.5 -55.5q0 -41 -16.5 -61
t-51.5 -28v-3q35 -8 53 -26t18 -65q0 -33 -13 -56.5t-48.5 -36.5t-101.5 -13z" />
    <glyph glyph-name="acute" unicode="&#xb4;" horiz-adv-x="284" 
d="M0 565v5l86 143h198v-5l-136 -143h-148z" />
    <glyph glyph-name="uni00B5" unicode="&#xb5;" horiz-adv-x="588" 
d="M44 -189v699h214v-269q0 -31 1 -48t4 -24.5t10.5 -9t19.5 -1.5q14 0 21.5 1.5t10.5 9t4 24.5t1 48v269h214v-510h-207l-4 57h-10q-13 -15 -27.5 -28t-35 -21t-51.5 -8q-21 0 -45 8.5t-45 25.5t-34 42l191 -40h-18v-225h-214z" />
    <glyph glyph-name="paragraph" unicode="&#xb6;" horiz-adv-x="668" 
d="M282 -144v366q-70 0 -115 5t-71.5 18.5t-38.5 39t-15.5 67t-3.5 102.5t3.5 102.5t15.5 67.5t38.5 40t71.5 19t115 5h129v-832h-129zM477 -144v832h130v-832h-130z" />
    <glyph glyph-name="periodcentered" unicode="&#xb7;" horiz-adv-x="347" 
d="M64 214v171h219v-171h-219z" />
    <glyph glyph-name="cedilla" unicode="&#xb8;" horiz-adv-x="221" 
d="M0 -190v5l87 203h134v-5l-34 -203h-187z" />
    <glyph glyph-name="uni00B9" unicode="&#xb9;" horiz-adv-x="231" 
d="M69 420v259l-66 -25v95l107 52h85v-381h-126z" />
    <glyph glyph-name="ordmasculine" unicode="&#xba;" horiz-adv-x="446" 
d="M223 313q-57 0 -93.5 6.5t-56 26t-27 57.5t-7.5 101t7.5 101.5t27 58t56 26t93.5 6.5t93.5 -6.5t56 -26t27 -58t7.5 -101.5t-7.5 -101t-27 -57.5t-56 -26t-93.5 -6.5zM223 422q11 0 17.5 2t9.5 9.5t3.5 24.5t0.5 46q0 30 -0.5 46.5t-3.5 24.5t-9.5 10t-17.5 2
q-12 0 -18 -2t-9 -10t-3.5 -24.5t-0.5 -46.5q0 -29 0.5 -46t3.5 -24.5t9 -9.5t18 -2z" />
    <glyph glyph-name="guillemotright" unicode="&#xbb;" horiz-adv-x="521" 
d="M41 99l99 205l-99 206h131l132 -206l-132 -205h-131zM249 99l99 205l-99 206h131l132 -206l-132 -205h-131z" />
    <glyph glyph-name="onequarter" unicode="&#xbc;" horiz-adv-x="726" 
d="M69 308v259l-66 -25v95l107 52h85v-381h-126zM31 0l449 688h125l-449 -688h-125zM544 0v69h-172v83l115 229h140l-122 -219h45l40 68h82v-68h41v-93h-41v-69h-128z" />
    <glyph glyph-name="onehalf" unicode="&#xbd;" horiz-adv-x="754" 
d="M69 308v259l-66 -25v95l107 52h85v-381h-126zM31 0l449 688h125l-449 -688h-125zM431 0v88q0 21 3.5 43t17.5 42t47 33l69 28q13 5 18.5 8.5t7 9.5t1.5 17t-3.5 15.5t-12.5 6t-27 1.5t-49 -2t-64 -6v88q29 6 69 10t74 4q39 0 72 -7.5t52.5 -31t19.5 -72.5q0 -35 -5.5 -58
t-20.5 -37t-42 -24l-79 -29q-11 -3 -16 -6.5t-6 -7.5t-1 -11v-7h170v-95h-295z" />
    <glyph glyph-name="threequarters" unicode="&#xbe;" horiz-adv-x="843" 
d="M159 304q-29 0 -66 3.5t-65 8.5v88q31 -3 64 -5t54 -2q29 0 36.5 3.5t7.5 23.5q0 23 -6.5 27t-28.5 4h-60v91h60q16 0 22.5 2t8.5 8t2 18q0 13 -3 18t-13 6.5t-32 1.5q-25 0 -56 -2t-54 -5v88q27 5 64 9t65 4q62 0 96.5 -11.5t49 -34t14.5 -55.5q0 -41 -16.5 -61
t-51.5 -28v-3q35 -8 53 -26t18 -65q0 -33 -13 -56.5t-48.5 -36.5t-101.5 -13zM148 0l449 688h125l-449 -688h-125zM661 0v69h-172v83l115 229h140l-122 -219h45l40 68h82v-68h41v-93h-41v-69h-128z" />
    <glyph glyph-name="questiondown" unicode="&#xbf;" horiz-adv-x="470" 
d="M279 -186q-58 0 -101.5 8t-72.5 28t-43 56.5t-14 94.5q0 40 5 67.5t16.5 46t30 31t45.5 21.5l44 15q9 3 13.5 6t7 8.5t3 16.5t0.5 31v14h185v-59q0 -42 -8 -66t-24.5 -36.5t-41.5 -21.5l-20 -7q-13 -4 -19.5 -9t-8.5 -13t-2 -23q0 -20 5 -29t17.5 -11t34.5 -2
q16 0 36 0.5t41.5 2t43 3.5t39.5 4v-157q-26 -6 -62.5 -10.5t-75.5 -7t-74 -2.5zM195 339v171h219v-171h-219z" />
    <glyph glyph-name="Agrave" unicode="&#xc0;" horiz-adv-x="697" 
d="M-5 0l191 688h325l191 -688h-232l-25 103h-199l-24 -103h-227zM284 263h122l-57 237h-9zM270 743l-136 143v5h198l86 -143v-5h-148z" />
    <glyph glyph-name="Aacute" unicode="&#xc1;" horiz-adv-x="697" 
d="M-5 0l191 688h325l191 -688h-232l-25 103h-199l-24 -103h-227zM284 263h122l-57 237h-9zM243 743v5l86 143h198v-5l-136 -143h-148z" />
    <glyph glyph-name="Acircumflex" unicode="&#xc2;" horiz-adv-x="697" 
d="M-5 0l191 688h325l191 -688h-232l-25 103h-199l-24 -103h-227zM284 263h122l-57 237h-9zM165 743v8l89 140h189l90 -140v-8h-134l-51 72l-49 -72h-134z" />
    <glyph glyph-name="Atilde" unicode="&#xc3;" horiz-adv-x="697" 
d="M-5 0l191 688h325l191 -688h-232l-25 103h-199l-24 -103h-227zM284 263h122l-57 237h-9zM144 732q0 49 4.5 84t26 54t73.5 19q30 0 61 -5.5t56 -10.5q21 -4 38 -7t28 -3q17 0 19.5 8.5t2.5 29.5h100q0 -48 -4.5 -83.5t-26 -54.5t-73.5 -19q-30 0 -60.5 6t-56.5 10
q-21 4 -38 7t-28 3q-16 0 -19 -9t-3 -29h-100z" />
    <glyph glyph-name="Adieresis" unicode="&#xc4;" horiz-adv-x="697" 
d="M-5 0l191 688h325l191 -688h-232l-25 103h-199l-24 -103h-227zM284 263h122l-57 237h-9zM154 754v124h165v-124h-165zM378 754v124h165v-124h-165z" />
    <glyph glyph-name="Aring" unicode="&#xc5;" horiz-adv-x="683" 
d="M-5 0l191 688h325l191 -688h-232l-25 103h-199l-24 -103h-227zM284 263h122l-57 237h-9zM384 622q-52 0 -83 6t-46.5 20.5t-20.5 38t-5 57.5q0 35 5 59t20.5 38t46.5 20.5t83 6.5t83 -6.5t47 -20.5t21 -38t5 -59q0 -34 -5 -57.5t-21 -38t-47 -20.5t-83 -6zM384 699
q26 0 36.5 3.5t12.5 13.5t2 28q0 19 -2 29t-12.5 14t-36.5 4q-25 0 -35.5 -4t-12.5 -14t-2 -29q0 -18 2 -28t12.5 -13.5t35.5 -3.5z" />
    <glyph glyph-name="AE" unicode="&#xc6;" horiz-adv-x="980" 
d="M-25 0l309 688h648v-167h-323l9 -92h267v-163h-249l10 -99h286v-167h-477l-10 106h-203l-40 -106h-227zM303 266h128l-22 255h-9z" />
    <glyph glyph-name="Ccedilla" unicode="&#xc7;" horiz-adv-x="567" 
d="M342 -8q-80 0 -134 11t-87.5 35.5t-50 65t-22.5 100t-6 140.5t6 140.5t22.5 100t50 65t87.5 35.5t134 11q32 0 66 -2.5t65.5 -6.5t54.5 -10v-156q-40 3 -65.5 5t-40.5 2.5t-25 0.5q-36 0 -58.5 -3t-35.5 -13.5t-18.5 -30.5t-6.5 -53.5t-1 -84.5t1 -84.5t6.5 -54
t18.5 -30.5t35.5 -13t58.5 -3q30 0 68 2t67 6v-159q-22 -4 -54.5 -8t-67.5 -6t-68 -2zM176 -190v5l87 203h134v-5l-34 -203h-187z" />
    <glyph glyph-name="Egrave" unicode="&#xc8;" horiz-adv-x="603" 
d="M51 0v688h504v-167h-271v-92h224v-163h-224v-99h271v-167h-504zM229 743l-136 143v5h198l86 -143v-5h-148z" />
    <glyph glyph-name="Eacute" unicode="&#xc9;" horiz-adv-x="603" 
d="M51 0v688h504v-167h-271v-92h224v-163h-224v-99h271v-167h-504zM202 743v5l86 143h198v-5l-136 -143h-148z" />
    <glyph glyph-name="Ecircumflex" unicode="&#xca;" horiz-adv-x="603" 
d="M51 0v688h504v-167h-271v-92h224v-163h-224v-99h271v-167h-504zM124 743v8l89 140h189l90 -140v-8h-134l-51 72l-49 -72h-134z" />
    <glyph glyph-name="Edieresis" unicode="&#xcb;" horiz-adv-x="603" 
d="M51 0v688h504v-167h-271v-92h224v-163h-224v-99h271v-167h-504zM113 754v124h165v-124h-165zM337 754v124h165v-124h-165z" />
    <glyph glyph-name="Igrave" unicode="&#xcc;" horiz-adv-x="336" 
d="M51 0v688h234v-688h-234zM89 743l-136 143v5h198l86 -143v-5h-148z" />
    <glyph glyph-name="Iacute" unicode="&#xcd;" horiz-adv-x="336" 
d="M51 0v688h234v-688h-234zM62 743v5l86 143h198v-5l-136 -143h-148z" />
    <glyph glyph-name="Icircumflex" unicode="&#xce;" horiz-adv-x="336" 
d="M51 0v688h234v-688h-234zM-16 743v8l89 140h189l90 -140v-8h-134l-51 72l-49 -72h-134z" />
    <glyph glyph-name="Idieresis" unicode="&#xcf;" horiz-adv-x="336" 
d="M51 0v688h234v-688h-234zM-27 754v124h165v-124h-165zM197 754v124h165v-124h-165z" />
    <glyph glyph-name="Eth" unicode="&#xd0;" horiz-adv-x="670" 
d="M51 0v280h-60v137h60v271h255q96 0 156.5 -10t94.5 -33t49 -62.5t18.5 -98t3.5 -140.5t-3.5 -140.5t-18.5 -98t-49 -62.5t-94.5 -33t-156.5 -10h-255zM285 167h24q25 0 41 2.5t25 11t12.5 27.5t4.5 51.5t1 83.5q0 52 -1 85t-4.5 52t-12.5 28t-25 11t-41 2h-24v-104h62
v-137h-62v-113z" />
    <glyph glyph-name="Ntilde" unicode="&#xd1;" horiz-adv-x="705" 
d="M51 0v688h239l134 -266h7v266h223v-688h-215l-159 321h-6v-321h-223zM153 732q0 49 4.5 84t26 54t73.5 19q30 0 61 -5.5t56 -10.5q21 -4 38 -7t28 -3q17 0 19.5 8.5t2.5 29.5h100q0 -48 -4.5 -83.5t-26 -54.5t-73.5 -19q-30 0 -60.5 6t-56.5 10q-21 4 -38 7t-28 3
q-16 0 -19 -9t-3 -29h-100z" />
    <glyph glyph-name="Ograve" unicode="&#xd2;" horiz-adv-x="695" 
d="M347 -8q-91 0 -148.5 11t-89.5 35t-46.5 65t-17.5 100.5t-3 140.5t3 140.5t17.5 100.5t46.5 65t89.5 35t148.5 11t148.5 -11t90 -35t46.5 -65t17.5 -100.5t3.5 -140.5t-3.5 -140.5t-17.5 -100.5t-46.5 -65t-90 -35t-148.5 -11zM347 159q21 0 34.5 2t21 11t10.5 28.5
t4 54.5t1 89t-1 89t-4 54.5t-10.5 28.5t-21 11t-34.5 2t-34.5 -2t-20.5 -11t-10.5 -28.5t-4 -54.5t-0.5 -89t0.5 -89t4 -54.5t10.5 -28.5t20.5 -11t34.5 -2zM269 743l-136 143v5h198l86 -143v-5h-148z" />
    <glyph glyph-name="Oacute" unicode="&#xd3;" horiz-adv-x="695" 
d="M347 -8q-91 0 -148.5 11t-89.5 35t-46.5 65t-17.5 100.5t-3 140.5t3 140.5t17.5 100.5t46.5 65t89.5 35t148.5 11t148.5 -11t90 -35t46.5 -65t17.5 -100.5t3.5 -140.5t-3.5 -140.5t-17.5 -100.5t-46.5 -65t-90 -35t-148.5 -11zM347 159q21 0 34.5 2t21 11t10.5 28.5
t4 54.5t1 89t-1 89t-4 54.5t-10.5 28.5t-21 11t-34.5 2t-34.5 -2t-20.5 -11t-10.5 -28.5t-4 -54.5t-0.5 -89t0.5 -89t4 -54.5t10.5 -28.5t20.5 -11t34.5 -2zM242 743v5l86 143h198v-5l-136 -143h-148z" />
    <glyph glyph-name="Ocircumflex" unicode="&#xd4;" horiz-adv-x="695" 
d="M347 -8q-91 0 -148.5 11t-89.5 35t-46.5 65t-17.5 100.5t-3 140.5t3 140.5t17.5 100.5t46.5 65t89.5 35t148.5 11t148.5 -11t90 -35t46.5 -65t17.5 -100.5t3.5 -140.5t-3.5 -140.5t-17.5 -100.5t-46.5 -65t-90 -35t-148.5 -11zM347 159q21 0 34.5 2t21 11t10.5 28.5
t4 54.5t1 89t-1 89t-4 54.5t-10.5 28.5t-21 11t-34.5 2t-34.5 -2t-20.5 -11t-10.5 -28.5t-4 -54.5t-0.5 -89t0.5 -89t4 -54.5t10.5 -28.5t20.5 -11t34.5 -2zM164 743v8l89 140h189l90 -140v-8h-134l-51 72l-49 -72h-134z" />
    <glyph glyph-name="Otilde" unicode="&#xd5;" horiz-adv-x="695" 
d="M347 -8q-91 0 -148.5 11t-89.5 35t-46.5 65t-17.5 100.5t-3 140.5t3 140.5t17.5 100.5t46.5 65t89.5 35t148.5 11t148.5 -11t90 -35t46.5 -65t17.5 -100.5t3.5 -140.5t-3.5 -140.5t-17.5 -100.5t-46.5 -65t-90 -35t-148.5 -11zM347 159q21 0 34.5 2t21 11t10.5 28.5
t4 54.5t1 89t-1 89t-4 54.5t-10.5 28.5t-21 11t-34.5 2t-34.5 -2t-20.5 -11t-10.5 -28.5t-4 -54.5t-0.5 -89t0.5 -89t4 -54.5t10.5 -28.5t20.5 -11t34.5 -2zM143 732q0 49 4.5 84t26 54t73.5 19q30 0 61 -5.5t56 -10.5q21 -4 38 -7t28 -3q17 0 19.5 8.5t2.5 29.5h100
q0 -48 -4.5 -83.5t-26 -54.5t-73.5 -19q-30 0 -60.5 6t-56.5 10q-21 4 -38 7t-28 3q-16 0 -19 -9t-3 -29h-100z" />
    <glyph glyph-name="Odieresis" unicode="&#xd6;" horiz-adv-x="695" 
d="M347 -8q-91 0 -148.5 11t-89.5 35t-46.5 65t-17.5 100.5t-3 140.5t3 140.5t17.5 100.5t46.5 65t89.5 35t148.5 11t148.5 -11t90 -35t46.5 -65t17.5 -100.5t3.5 -140.5t-3.5 -140.5t-17.5 -100.5t-46.5 -65t-90 -35t-148.5 -11zM347 159q21 0 34.5 2t21 11t10.5 28.5
t4 54.5t1 89t-1 89t-4 54.5t-10.5 28.5t-21 11t-34.5 2t-34.5 -2t-20.5 -11t-10.5 -28.5t-4 -54.5t-0.5 -89t0.5 -89t4 -54.5t10.5 -28.5t20.5 -11t34.5 -2zM153 754v124h165v-124h-165zM377 754v124h165v-124h-165z" />
    <glyph glyph-name="multiply" unicode="&#xd7;" horiz-adv-x="537" 
d="M173 56l-101 102l95 95l-97 97l103 103l97 -97l96 96l101 -101l-96 -96l96 -96l-103 -103l-96 96z" />
    <glyph glyph-name="Oslash" unicode="&#xd8;" horiz-adv-x="695" 
d="M42 -55l437 798h174l-438 -798h-173zM347 -8q-91 0 -148.5 11t-89.5 35t-46.5 65t-17.5 100.5t-3 140.5t3 140.5t17.5 100.5t46.5 65t89.5 35t148.5 11t148.5 -11t90 -35t46.5 -65t17.5 -100.5t3.5 -140.5t-3.5 -140.5t-17.5 -100.5t-46.5 -65t-90 -35t-148.5 -11z
M347 159q21 0 34.5 2t21 11t10.5 28.5t4 54.5t1 89t-1 89t-4 54.5t-10.5 28.5t-21 11t-34.5 2t-34.5 -2t-20.5 -11t-10.5 -28.5t-4 -54.5t-0.5 -89t0.5 -89t4 -54.5t10.5 -28.5t20.5 -11t34.5 -2z" />
    <glyph glyph-name="Ugrave" unicode="&#xd9;" horiz-adv-x="675" 
d="M337 -8q-85 0 -139 10.5t-84 33.5t-43.5 60.5t-16.5 92t-3 127.5v372h234v-410q0 -41 1 -64.5t5.5 -34.5t15.5 -14t30 -3q20 0 30.5 3t15.5 14t6 34.5t1 64.5v410h234v-372q0 -73 -3 -127.5t-16.5 -92t-44 -60.5t-84.5 -33.5t-139 -10.5zM259 743l-136 143v5h198l86 -143
v-5h-148z" />
    <glyph glyph-name="Uacute" unicode="&#xda;" horiz-adv-x="675" 
d="M337 -8q-85 0 -139 10.5t-84 33.5t-43.5 60.5t-16.5 92t-3 127.5v372h234v-410q0 -41 1 -64.5t5.5 -34.5t15.5 -14t30 -3q20 0 30.5 3t15.5 14t6 34.5t1 64.5v410h234v-372q0 -73 -3 -127.5t-16.5 -92t-44 -60.5t-84.5 -33.5t-139 -10.5zM232 743v5l86 143h198v-5
l-136 -143h-148z" />
    <glyph glyph-name="Ucircumflex" unicode="&#xdb;" horiz-adv-x="675" 
d="M337 -8q-85 0 -139 10.5t-84 33.5t-43.5 60.5t-16.5 92t-3 127.5v372h234v-410q0 -41 1 -64.5t5.5 -34.5t15.5 -14t30 -3q20 0 30.5 3t15.5 14t6 34.5t1 64.5v410h234v-372q0 -73 -3 -127.5t-16.5 -92t-44 -60.5t-84.5 -33.5t-139 -10.5zM154 743v8l89 140h189l90 -140
v-8h-134l-51 72l-49 -72h-134z" />
    <glyph glyph-name="Udieresis" unicode="&#xdc;" horiz-adv-x="675" 
d="M337 -8q-85 0 -139 10.5t-84 33.5t-43.5 60.5t-16.5 92t-3 127.5v372h234v-410q0 -41 1 -64.5t5.5 -34.5t15.5 -14t30 -3q20 0 30.5 3t15.5 14t6 34.5t1 64.5v410h234v-372q0 -73 -3 -127.5t-16.5 -92t-44 -60.5t-84.5 -33.5t-139 -10.5zM143 754v124h165v-124h-165z
M367 754v124h165v-124h-165z" />
    <glyph glyph-name="Yacute" unicode="&#xdd;" horiz-adv-x="662" 
d="M214 0v222l-217 466h238l95 -256h7l95 256h233l-217 -466v-222h-234zM225 743v5l86 143h198v-5l-136 -143h-148z" />
    <glyph glyph-name="Thorn" unicode="&#xde;" horiz-adv-x="636" 
d="M52 0v688h233v-96h119q69 0 110.5 -14.5t63.5 -44.5t29.5 -75t7.5 -106q0 -55 -6.5 -99t-27.5 -75.5t-63.5 -48t-113.5 -16.5h-119v-113h-233zM285 276h31q22 0 34.5 2t19 9.5t8.5 22.5t2 42t-2 43t-8.5 23t-19 9t-34.5 2h-31v-153z" />
    <glyph glyph-name="germandbls" unicode="&#xdf;" horiz-adv-x="607" 
d="M44 0v560q0 65 23.5 107t80.5 62.5t156 20.5q79 0 130.5 -12t81 -34.5t41 -54.5t11.5 -72q0 -68 -28.5 -102t-87.5 -43v-4q62 -12 93.5 -53.5t31.5 -137.5q0 -67 -10.5 -112.5t-37.5 -73t-76.5 -39.5t-126.5 -12h-25v150h5q17 0 28 2t17 10.5t8 29t2 57.5q0 50 -4.5 71
t-16.5 25.5t-37 4.5h-7v150h7q24 0 33.5 2.5t11.5 13t2 35.5q0 22 -3.5 33t-12.5 14t-25 3q-21 0 -32 -3.5t-15 -15.5t-4 -39v-543h-214z" />
    <glyph glyph-name="agrave" unicode="&#xe0;" horiz-adv-x="567" 
d="M166 -8q-46 0 -76.5 16t-46 51t-15.5 90q0 57 13 90.5t49 48t103 14.5q8 0 21.5 -0.5t30.5 -1t33.5 -1t30.5 -1.5v17q0 20 -3.5 31t-13.5 15.5t-31.5 5.5t-57.5 1q-24 0 -49.5 -1t-50.5 -2t-48 -3v138q38 7 92.5 12.5t121.5 5.5q72 0 119 -9t74.5 -26.5t40.5 -43.5
t16.5 -60t3.5 -77v-302h-209l-4 56h-10q-21 -29 -42.5 -43t-44 -17.5t-47.5 -3.5zM267 129q12 0 19 2t12 6.5t7 10.5q3 7 3.5 17t0.5 23v27h-40q-20 0 -29.5 -3t-12 -13t-2.5 -31q0 -14 2 -23t11 -12.5t29 -3.5zM225 565l-136 143v5h198l86 -143v-5h-148z" />
    <glyph glyph-name="aacute" unicode="&#xe1;" horiz-adv-x="567" 
d="M166 -8q-46 0 -76.5 16t-46 51t-15.5 90q0 57 13 90.5t49 48t103 14.5q8 0 21.5 -0.5t30.5 -1t33.5 -1t30.5 -1.5v17q0 20 -3.5 31t-13.5 15.5t-31.5 5.5t-57.5 1q-24 0 -49.5 -1t-50.5 -2t-48 -3v138q38 7 92.5 12.5t121.5 5.5q72 0 119 -9t74.5 -26.5t40.5 -43.5
t16.5 -60t3.5 -77v-302h-209l-4 56h-10q-21 -29 -42.5 -43t-44 -17.5t-47.5 -3.5zM267 129q12 0 19 2t12 6.5t7 10.5q3 7 3.5 17t0.5 23v27h-40q-20 0 -29.5 -3t-12 -13t-2.5 -31q0 -14 2 -23t11 -12.5t29 -3.5zM166 565v5l86 143h198v-5l-136 -143h-148z" />
    <glyph glyph-name="acircumflex" unicode="&#xe2;" horiz-adv-x="567" 
d="M166 -8q-46 0 -76.5 16t-46 51t-15.5 90q0 57 13 90.5t49 48t103 14.5q8 0 21.5 -0.5t30.5 -1t33.5 -1t30.5 -1.5v17q0 20 -3.5 31t-13.5 15.5t-31.5 5.5t-57.5 1q-24 0 -49.5 -1t-50.5 -2t-48 -3v138q38 7 92.5 12.5t121.5 5.5q72 0 119 -9t74.5 -26.5t40.5 -43.5
t16.5 -60t3.5 -77v-302h-209l-4 56h-10q-21 -29 -42.5 -43t-44 -17.5t-47.5 -3.5zM267 129q12 0 19 2t12 6.5t7 10.5q3 7 3.5 17t0.5 23v27h-40q-20 0 -29.5 -3t-12 -13t-2.5 -31q0 -14 2 -23t11 -12.5t29 -3.5zM104 565v8l89 140h189l90 -140v-8h-134l-51 72l-49 -72h-134z
" />
    <glyph glyph-name="atilde" unicode="&#xe3;" horiz-adv-x="567" 
d="M166 -8q-46 0 -76.5 16t-46 51t-15.5 90q0 57 13 90.5t49 48t103 14.5q8 0 21.5 -0.5t30.5 -1t33.5 -1t30.5 -1.5v17q0 20 -3.5 31t-13.5 15.5t-31.5 5.5t-57.5 1q-24 0 -49.5 -1t-50.5 -2t-48 -3v138q38 7 92.5 12.5t121.5 5.5q72 0 119 -9t74.5 -26.5t40.5 -43.5
t16.5 -60t3.5 -77v-302h-209l-4 56h-10q-21 -29 -42.5 -43t-44 -17.5t-47.5 -3.5zM267 129q12 0 19 2t12 6.5t7 10.5q3 7 3.5 17t0.5 23v27h-40q-20 0 -29.5 -3t-12 -13t-2.5 -31q0 -14 2 -23t11 -12.5t29 -3.5zM83 554q0 49 4.5 84t26 54t73.5 19q30 0 61 -5.5t56 -10.5
q21 -4 38 -7t28 -3q17 0 19.5 8.5t2.5 29.5h100q0 -48 -4.5 -83.5t-26 -54.5t-73.5 -19q-30 0 -60.5 6t-56.5 10q-21 4 -38 7t-28 3q-16 0 -19 -9t-3 -29h-100z" />
    <glyph glyph-name="adieresis" unicode="&#xe4;" horiz-adv-x="567" 
d="M166 -8q-46 0 -76.5 16t-46 51t-15.5 90q0 57 13 90.5t49 48t103 14.5q8 0 21.5 -0.5t30.5 -1t33.5 -1t30.5 -1.5v17q0 20 -3.5 31t-13.5 15.5t-31.5 5.5t-57.5 1q-24 0 -49.5 -1t-50.5 -2t-48 -3v138q38 7 92.5 12.5t121.5 5.5q72 0 119 -9t74.5 -26.5t40.5 -43.5
t16.5 -60t3.5 -77v-302h-209l-4 56h-10q-21 -29 -42.5 -43t-44 -17.5t-47.5 -3.5zM267 129q12 0 19 2t12 6.5t7 10.5q3 7 3.5 17t0.5 23v27h-40q-20 0 -29.5 -3t-12 -13t-2.5 -31q0 -14 2 -23t11 -12.5t29 -3.5zM94 576v124h165v-124h-165zM318 576v124h165v-124h-165z" />
    <glyph glyph-name="aring" unicode="&#xe5;" horiz-adv-x="567" 
d="M166 -8q-46 0 -76.5 16t-46 51t-15.5 90q0 57 13 90.5t49 48t103 14.5q8 0 21.5 -0.5t30.5 -1t33.5 -1t30.5 -1.5v17q0 20 -3.5 31t-13.5 15.5t-31.5 5.5t-57.5 1q-24 0 -49.5 -1t-50.5 -2t-48 -3v138q38 7 92.5 12.5t121.5 5.5q72 0 119 -9t74.5 -26.5t40.5 -43.5
t16.5 -60t3.5 -77v-302h-209l-4 56h-10q-21 -29 -42.5 -43t-44 -17.5t-47.5 -3.5zM267 129q12 0 19 2t12 6.5t7 10.5q3 7 3.5 17t0.5 23v27h-40q-20 0 -29.5 -3t-12 -13t-2.5 -31q0 -14 2 -23t11 -12.5t29 -3.5zM287 551q-52 0 -83 6t-46.5 20.5t-20.5 38t-5 57.5q0 35 5 59
t20.5 38t46.5 20.5t83 6.5t83 -6.5t47 -20.5t21 -38t5 -59q0 -34 -5 -57.5t-21 -38t-47 -20.5t-83 -6zM287 628q26 0 36.5 3.5t12.5 13.5t2 28q0 19 -2 29t-12.5 14t-36.5 4q-25 0 -35.5 -4t-12.5 -14t-2 -29q0 -18 2 -28t12.5 -13.5t35.5 -3.5z" />
    <glyph glyph-name="ae" unicode="&#xe6;" horiz-adv-x="842" 
d="M216 -8q-60 0 -97 9t-57 28t-27 48.5t-7 71.5q0 57 13 90.5t49 48t103 14.5q11 0 31 -0.5t43.5 -1.5t41.5 -2v17q0 20 -3.5 31t-13.5 15.5t-31.5 5.5t-57.5 1q-20 0 -43.5 -0.5t-49.5 -2t-55 -3.5v138q35 7 84 12.5t110 5.5q55 0 97.5 -9.5t72.5 -29.5q30 20 71.5 29.5
t94.5 9.5q67 0 109 -8.5t65.5 -27t33.5 -49t12 -75t2 -104.5v-39h-284q0 -27 3 -42t14 -21.5t34.5 -8t63.5 -1.5q17 0 41 1t52.5 2.5t55.5 3.5v-137q-20 -6 -52.5 -10.5t-71 -7t-76.5 -2.5q-48 0 -84.5 4t-63 12.5t-44.5 20.5q-27 -17 -56 -25t-59 -10t-64 -2zM267 129
q15 0 23.5 3.5t12.5 9.5t5 15q1 8 1 15.5v15.5v27h-40q-20 0 -29.5 -3t-12 -13t-2.5 -31q0 -14 2 -23t11 -12.5t29 -3.5zM609 260q0 46 -0.5 71t-4 36t-13 13.5t-26.5 2.5q-14 0 -22.5 -2t-12.5 -9.5t-5.5 -24.5t-1.5 -47h119z" />
    <glyph glyph-name="ccedilla" unicode="&#xe7;" horiz-adv-x="466" 
d="M264 -8q-68 0 -112 12.5t-69 35.5t-36 55t-14 72.5t-3 86.5t2.5 86.5t13.5 73t36 56t69 36t113 12.5q44 0 85 -4.5t80 -13.5v-138q-18 2 -48 4t-57 2t-42.5 -4t-23 -15.5t-9.5 -34t-2 -59.5t2 -59.5t9 -34t22.5 -15.5t43.5 -4q23 0 53.5 2t55.5 5v-138q-41 -9 -84.5 -14
t-84.5 -5zM127 -190v5l87 203h134v-5l-34 -203h-187z" />
    <glyph glyph-name="egrave" unicode="&#xe8;" horiz-adv-x="558" 
d="M303 -8q-79 0 -130 9.5t-80 29t-42.5 50.5t-17 74t-3.5 99q0 71 6 121t29.5 81.5t74.5 46.5t141 15q73 0 118.5 -8.5t71 -27t36.5 -49t13.5 -75t2.5 -104.5v-39h-284q0 -27 3 -42t14 -21.5t34.5 -8t63.5 -1.5q17 0 41 1t52.5 2.5t55.5 3.5v-137q-20 -6 -52.5 -10.5
t-71 -7t-76.5 -2.5zM325 284v16q0 30 -1 47t-5.5 24.5t-13.5 9.5t-24 2q-14 0 -22.5 -2t-12.5 -9.5t-5.5 -24.5t-1.5 -47h102zM220 565l-136 143v5h198l86 -143v-5h-148z" />
    <glyph glyph-name="eacute" unicode="&#xe9;" horiz-adv-x="558" 
d="M303 -8q-79 0 -130 9.5t-80 29t-42.5 50.5t-17 74t-3.5 99q0 71 6 121t29.5 81.5t74.5 46.5t141 15q73 0 118.5 -8.5t71 -27t36.5 -49t13.5 -75t2.5 -104.5v-39h-284q0 -27 3 -42t14 -21.5t34.5 -8t63.5 -1.5q17 0 41 1t52.5 2.5t55.5 3.5v-137q-20 -6 -52.5 -10.5
t-71 -7t-76.5 -2.5zM325 284v16q0 30 -1 47t-5.5 24.5t-13.5 9.5t-24 2q-14 0 -22.5 -2t-12.5 -9.5t-5.5 -24.5t-1.5 -47h102zM161 565v5l86 143h198v-5l-136 -143h-148z" />
    <glyph glyph-name="ecircumflex" unicode="&#xea;" horiz-adv-x="558" 
d="M303 -8q-79 0 -130 9.5t-80 29t-42.5 50.5t-17 74t-3.5 99q0 71 6 121t29.5 81.5t74.5 46.5t141 15q73 0 118.5 -8.5t71 -27t36.5 -49t13.5 -75t2.5 -104.5v-39h-284q0 -27 3 -42t14 -21.5t34.5 -8t63.5 -1.5q17 0 41 1t52.5 2.5t55.5 3.5v-137q-20 -6 -52.5 -10.5
t-71 -7t-76.5 -2.5zM325 284v16q0 30 -1 47t-5.5 24.5t-13.5 9.5t-24 2q-14 0 -22.5 -2t-12.5 -9.5t-5.5 -24.5t-1.5 -47h102zM99 565v8l89 140h189l90 -140v-8h-134l-51 72l-49 -72h-134z" />
    <glyph glyph-name="edieresis" unicode="&#xeb;" horiz-adv-x="558" 
d="M303 -8q-79 0 -130 9.5t-80 29t-42.5 50.5t-17 74t-3.5 99q0 71 6 121t29.5 81.5t74.5 46.5t141 15q73 0 118.5 -8.5t71 -27t36.5 -49t13.5 -75t2.5 -104.5v-39h-284q0 -27 3 -42t14 -21.5t34.5 -8t63.5 -1.5q17 0 41 1t52.5 2.5t55.5 3.5v-137q-20 -6 -52.5 -10.5
t-71 -7t-76.5 -2.5zM325 284v16q0 30 -1 47t-5.5 24.5t-13.5 9.5t-24 2q-14 0 -22.5 -2t-12.5 -9.5t-5.5 -24.5t-1.5 -47h102zM89 576v124h165v-124h-165zM313 576v124h165v-124h-165z" />
    <glyph glyph-name="igrave" unicode="&#xec;" horiz-adv-x="306" 
d="M44 0v510h218v-510h-218zM90 565l-136 143v5h198l86 -143v-5h-148z" />
    <glyph glyph-name="iacute" unicode="&#xed;" horiz-adv-x="306" 
d="M44 0v510h218v-510h-218zM31 565v5l86 143h198v-5l-136 -143h-148z" />
    <glyph glyph-name="icircumflex" unicode="&#xee;" horiz-adv-x="306" 
d="M44 0v510h218v-510h-218zM-31 565v8l89 140h189l90 -140v-8h-134l-51 72l-49 -72h-134z" />
    <glyph glyph-name="idieresis" unicode="&#xef;" horiz-adv-x="306" 
d="M44 0v510h218v-510h-218zM-42 576v124h165v-124h-165zM182 576v124h165v-124h-165z" />
    <glyph glyph-name="eth" unicode="&#xf0;" horiz-adv-x="571" 
d="M285 -8q-73 0 -120.5 7.5t-75 25.5t-40 48.5t-16 75t-3.5 106.5q0 72 5.5 122t23.5 81.5t54 45.5t96 14q23 0 40 -2t39 -6l6 5q-4 16 -10 30t-13 27l-135 -17v110l65 8q-17 19 -35.5 35.5t-35.5 30.5v4h228q15 -12 24.5 -22t17.5 -21l136 18v-110l-58 -9q19 -37 32.5 -81
t21.5 -100q3 -23 5 -48.5t3 -54t1 -60.5q0 -62 -3.5 -106.5t-16.5 -75t-40.5 -48.5t-75 -25.5t-120.5 -7.5zM285 142q16 0 24.5 2.5t12.5 13.5t5 34t1 63q0 41 -1 63.5t-5 33.5t-12.5 13.5t-24.5 2.5t-24.5 -2.5t-12 -13.5t-4.5 -33.5t-1 -63.5q0 -40 1 -63t4.5 -34
t12 -13.5t24.5 -2.5z" />
    <glyph glyph-name="ntilde" unicode="&#xf1;" horiz-adv-x="588" 
d="M44 0v510h207l4 -57h10q18 27 41.5 41t48 19t44.5 5q49 0 78 -13t43.5 -38.5t19 -62.5t4.5 -85v-319h-214v269q0 31 -1 48t-4 24.5t-10.5 9t-19.5 1.5q-13 0 -21 -1.5t-11 -9t-4 -24.5t-1 -48v-269h-214zM89 554q0 49 4.5 84t26 54t73.5 19q30 0 61 -5.5t56 -10.5
q21 -4 38 -7t28 -3q17 0 19.5 8.5t2.5 29.5h100q0 -48 -4.5 -83.5t-26 -54.5t-73.5 -19q-30 0 -60.5 6t-56.5 10q-21 4 -38 7t-28 3q-16 0 -19 -9t-3 -29h-100z" />
    <glyph glyph-name="ograve" unicode="&#xf2;" horiz-adv-x="571" 
d="M285 -8q-73 0 -120.5 7.5t-75 25.5t-40 48.5t-16 75t-3.5 106.5t3.5 106.5t16 75t40 48.5t75 25.5t120.5 7.5t120.5 -7.5t75 -25.5t40.5 -48.5t16.5 -75t3.5 -106.5t-3.5 -106.5t-16.5 -75t-40.5 -48.5t-75 -25.5t-120.5 -7.5zM285 142q16 0 24.5 2.5t12.5 13.5t5 34
t1 63q0 41 -1 63.5t-5 33.5t-12.5 13.5t-24.5 2.5t-24.5 -2.5t-12 -13.5t-4.5 -33.5t-1 -63.5q0 -40 1 -63t4.5 -34t12 -13.5t24.5 -2.5zM223 565l-136 143v5h198l86 -143v-5h-148z" />
    <glyph glyph-name="oacute" unicode="&#xf3;" horiz-adv-x="571" 
d="M285 -8q-73 0 -120.5 7.5t-75 25.5t-40 48.5t-16 75t-3.5 106.5t3.5 106.5t16 75t40 48.5t75 25.5t120.5 7.5t120.5 -7.5t75 -25.5t40.5 -48.5t16.5 -75t3.5 -106.5t-3.5 -106.5t-16.5 -75t-40.5 -48.5t-75 -25.5t-120.5 -7.5zM285 142q16 0 24.5 2.5t12.5 13.5t5 34
t1 63q0 41 -1 63.5t-5 33.5t-12.5 13.5t-24.5 2.5t-24.5 -2.5t-12 -13.5t-4.5 -33.5t-1 -63.5q0 -40 1 -63t4.5 -34t12 -13.5t24.5 -2.5zM164 565v5l86 143h198v-5l-136 -143h-148z" />
    <glyph glyph-name="ocircumflex" unicode="&#xf4;" horiz-adv-x="571" 
d="M285 -8q-73 0 -120.5 7.5t-75 25.5t-40 48.5t-16 75t-3.5 106.5t3.5 106.5t16 75t40 48.5t75 25.5t120.5 7.5t120.5 -7.5t75 -25.5t40.5 -48.5t16.5 -75t3.5 -106.5t-3.5 -106.5t-16.5 -75t-40.5 -48.5t-75 -25.5t-120.5 -7.5zM285 142q16 0 24.5 2.5t12.5 13.5t5 34
t1 63q0 41 -1 63.5t-5 33.5t-12.5 13.5t-24.5 2.5t-24.5 -2.5t-12 -13.5t-4.5 -33.5t-1 -63.5q0 -40 1 -63t4.5 -34t12 -13.5t24.5 -2.5zM102 565v8l89 140h189l90 -140v-8h-134l-51 72l-49 -72h-134z" />
    <glyph glyph-name="otilde" unicode="&#xf5;" horiz-adv-x="571" 
d="M285 -8q-73 0 -120.5 7.5t-75 25.5t-40 48.5t-16 75t-3.5 106.5t3.5 106.5t16 75t40 48.5t75 25.5t120.5 7.5t120.5 -7.5t75 -25.5t40.5 -48.5t16.5 -75t3.5 -106.5t-3.5 -106.5t-16.5 -75t-40.5 -48.5t-75 -25.5t-120.5 -7.5zM285 142q16 0 24.5 2.5t12.5 13.5t5 34
t1 63q0 41 -1 63.5t-5 33.5t-12.5 13.5t-24.5 2.5t-24.5 -2.5t-12 -13.5t-4.5 -33.5t-1 -63.5q0 -40 1 -63t4.5 -34t12 -13.5t24.5 -2.5zM81 554q0 49 4.5 84t26 54t73.5 19q30 0 61 -5.5t56 -10.5q21 -4 38 -7t28 -3q17 0 19.5 8.5t2.5 29.5h100q0 -48 -4.5 -83.5
t-26 -54.5t-73.5 -19q-30 0 -60.5 6t-56.5 10q-21 4 -38 7t-28 3q-16 0 -19 -9t-3 -29h-100z" />
    <glyph glyph-name="odieresis" unicode="&#xf6;" horiz-adv-x="571" 
d="M285 -8q-73 0 -120.5 7.5t-75 25.5t-40 48.5t-16 75t-3.5 106.5t3.5 106.5t16 75t40 48.5t75 25.5t120.5 7.5t120.5 -7.5t75 -25.5t40.5 -48.5t16.5 -75t3.5 -106.5t-3.5 -106.5t-16.5 -75t-40.5 -48.5t-75 -25.5t-120.5 -7.5zM285 142q16 0 24.5 2.5t12.5 13.5t5 34
t1 63q0 41 -1 63.5t-5 33.5t-12.5 13.5t-24.5 2.5t-24.5 -2.5t-12 -13.5t-4.5 -33.5t-1 -63.5q0 -40 1 -63t4.5 -34t12 -13.5t24.5 -2.5zM92 576v124h165v-124h-165zM316 576v124h165v-124h-165z" />
    <glyph glyph-name="divide" unicode="&#xf7;" horiz-adv-x="540" 
d="M70 181v143h400v-143h-400zM197 7v114h145v-114h-145zM197 385v114h145v-114h-145z" />
    <glyph glyph-name="oslash" unicode="&#xf8;" horiz-adv-x="571" 
d="M31 -55l336 620h174l-337 -620h-173zM285 -8q-73 0 -120.5 7.5t-75 25.5t-40 48.5t-16 75t-3.5 106.5t3.5 106.5t16 75t40 48.5t75 25.5t120.5 7.5t120.5 -7.5t75 -25.5t40.5 -48.5t16.5 -75t3.5 -106.5t-3.5 -106.5t-16.5 -75t-40.5 -48.5t-75 -25.5t-120.5 -7.5z
M285 142q16 0 24.5 2.5t12.5 13.5t5 34t1 63q0 41 -1 63.5t-5 33.5t-12.5 13.5t-24.5 2.5t-24.5 -2.5t-12 -13.5t-4.5 -33.5t-1 -63.5q0 -40 1 -63t4.5 -34t12 -13.5t24.5 -2.5z" />
    <glyph glyph-name="ugrave" unicode="&#xf9;" horiz-adv-x="588" 
d="M189 -8q-49 0 -78 13t-43.5 38.5t-19 62.5t-4.5 85v319h214v-269q0 -31 1 -48t4 -24.5t10.5 -9t19.5 -1.5q14 0 21.5 1.5t10.5 9t4 24.5t1 48v269h214v-510h-207l-4 57h-10q-17 -27 -40.5 -41t-48 -19t-45.5 -5zM231 565l-136 143v5h198l86 -143v-5h-148z" />
    <glyph glyph-name="uacute" unicode="&#xfa;" horiz-adv-x="588" 
d="M189 -8q-49 0 -78 13t-43.5 38.5t-19 62.5t-4.5 85v319h214v-269q0 -31 1 -48t4 -24.5t10.5 -9t19.5 -1.5q14 0 21.5 1.5t10.5 9t4 24.5t1 48v269h214v-510h-207l-4 57h-10q-17 -27 -40.5 -41t-48 -19t-45.5 -5zM172 565v5l86 143h198v-5l-136 -143h-148z" />
    <glyph glyph-name="ucircumflex" unicode="&#xfb;" horiz-adv-x="588" 
d="M189 -8q-49 0 -78 13t-43.5 38.5t-19 62.5t-4.5 85v319h214v-269q0 -31 1 -48t4 -24.5t10.5 -9t19.5 -1.5q14 0 21.5 1.5t10.5 9t4 24.5t1 48v269h214v-510h-207l-4 57h-10q-17 -27 -40.5 -41t-48 -19t-45.5 -5zM110 565v8l89 140h189l90 -140v-8h-134l-51 72l-49 -72
h-134z" />
    <glyph glyph-name="udieresis" unicode="&#xfc;" horiz-adv-x="588" 
d="M189 -8q-49 0 -78 13t-43.5 38.5t-19 62.5t-4.5 85v319h214v-269q0 -31 1 -48t4 -24.5t10.5 -9t19.5 -1.5q14 0 21.5 1.5t10.5 9t4 24.5t1 48v269h214v-510h-207l-4 57h-10q-17 -27 -40.5 -41t-48 -19t-45.5 -5zM100 576v124h165v-124h-165zM324 576v124h165v-124h-165z
" />
    <glyph glyph-name="yacute" unicode="&#xfd;" horiz-adv-x="588" 
d="M272 -206q-33 0 -68 2t-66 5.5t-52 7.5v135h44h44h44q42 0 65 1.5t33 8t12 22.5t2 45v52h-10q-17 -27 -40 -41t-46.5 -19t-44.5 -5q-49 0 -78 13t-43.5 38.5t-19 62.5t-4.5 85v303h214v-253q0 -31 1 -48t4 -24.5t10.5 -9t19.5 -1.5q14 0 21.5 1.5t10.5 9t4 24.5t1 48v253
h214v-455q0 -64 -6.5 -112.5t-31.5 -81.5t-80.5 -50t-153.5 -17zM172 565v5l86 143h198v-5l-136 -143h-148z" />
    <glyph glyph-name="thorn" unicode="&#xfe;" horiz-adv-x="584" 
d="M44 -189v932h214v-290h11q15 27 35.5 41t45 19t50.5 5q40 0 69 -11.5t48 -40.5t28 -80t9 -129t-9 -129t-28.5 -80.5t-49 -42t-70.5 -12.5q-37 0 -70 10t-59 48h-10v-240h-214zM299 157q16 0 24.5 2t12 11t4.5 29t1 56t-1 56t-4.5 29t-12 11t-24.5 2q-19 0 -28 -4.5
t-11 -25.5q-1 -12 -1.5 -28.5t-0.5 -39.5q0 -28 0.5 -45t1.5 -25q4 -20 12.5 -24t26.5 -4z" />
    <glyph glyph-name="ydieresis" unicode="&#xff;" horiz-adv-x="588" 
d="M272 -206q-33 0 -68 2t-66 5.5t-52 7.5v135h44h44h44q42 0 65 1.5t33 8t12 22.5t2 45v52h-10q-17 -27 -40 -41t-46.5 -19t-44.5 -5q-49 0 -78 13t-43.5 38.5t-19 62.5t-4.5 85v303h214v-253q0 -31 1 -48t4 -24.5t10.5 -9t19.5 -1.5q14 0 21.5 1.5t10.5 9t4 24.5t1 48v253
h214v-455q0 -64 -6.5 -112.5t-31.5 -81.5t-80.5 -50t-153.5 -17zM100 576v124h165v-124h-165zM324 576v124h165v-124h-165z" />
    <glyph glyph-name="Amacron" unicode="&#x100;" horiz-adv-x="697" 
d="M-5 0l191 688h325l191 -688h-232l-25 103h-199l-24 -103h-227zM284 263h122l-57 237h-9zM170 754v112h358v-112h-358z" />
    <glyph glyph-name="amacron" unicode="&#x101;" horiz-adv-x="567" 
d="M166 -8q-46 0 -76.5 16t-46 51t-15.5 90q0 57 13 90.5t49 48t103 14.5q8 0 21.5 -0.5t30.5 -1t33.5 -1t30.5 -1.5v17q0 20 -3.5 31t-13.5 15.5t-31.5 5.5t-57.5 1q-24 0 -49.5 -1t-50.5 -2t-48 -3v138q38 7 92.5 12.5t121.5 5.5q72 0 119 -9t74.5 -26.5t40.5 -43.5
t16.5 -60t3.5 -77v-302h-209l-4 56h-10q-21 -29 -42.5 -43t-44 -17.5t-47.5 -3.5zM267 129q12 0 19 2t12 6.5t7 10.5q3 7 3.5 17t0.5 23v27h-40q-20 0 -29.5 -3t-12 -13t-2.5 -31q0 -14 2 -23t11 -12.5t29 -3.5zM109 576v112h358v-112h-358z" />
    <glyph glyph-name="Abreve" unicode="&#x102;" horiz-adv-x="697" 
d="M-5 0l191 688h325l191 -688h-232l-25 103h-199l-24 -103h-227zM284 263h122l-57 237h-9zM348 739q-51 0 -83 11t-49 31.5t-23 48.5t-6 61h111q0 -13 2 -24t12.5 -17.5t35.5 -6.5q26 0 36.5 6.5t12.5 17.5t2 24h111q0 -33 -6.5 -61t-23.5 -48.5t-49 -31.5t-83 -11z" />
    <glyph glyph-name="abreve" unicode="&#x103;" horiz-adv-x="567" 
d="M166 -8q-46 0 -76.5 16t-46 51t-15.5 90q0 57 13 90.5t49 48t103 14.5q8 0 21.5 -0.5t30.5 -1t33.5 -1t30.5 -1.5v17q0 20 -3.5 31t-13.5 15.5t-31.5 5.5t-57.5 1q-24 0 -49.5 -1t-50.5 -2t-48 -3v138q38 7 92.5 12.5t121.5 5.5q72 0 119 -9t74.5 -26.5t40.5 -43.5
t16.5 -60t3.5 -77v-302h-209l-4 56h-10q-21 -29 -42.5 -43t-44 -17.5t-47.5 -3.5zM267 129q12 0 19 2t12 6.5t7 10.5q3 7 3.5 17t0.5 23v27h-40q-20 0 -29.5 -3t-12 -13t-2.5 -31q0 -14 2 -23t11 -12.5t29 -3.5zM287 561q-51 0 -83 11t-49 31.5t-23 48.5t-6 61h111
q0 -13 2 -24t12.5 -17.5t35.5 -6.5q26 0 36.5 6.5t12.5 17.5t2 24h111q0 -33 -6.5 -61t-23.5 -48.5t-49 -31.5t-83 -11z" />
    <glyph glyph-name="Aogonek" unicode="&#x104;" horiz-adv-x="697" 
d="M-5 0l191 688h325l191 -688h-232l-25 103h-199l-24 -103h-227zM284 263h122l-57 237h-9zM616 -200q-56 0 -88 12.5t-44.5 33t-12.5 43.5q0 31 21 62.5t54 58.5l156 -10q-13 -6 -27.5 -18t-25 -25.5t-10.5 -26.5q0 -14 9 -23.5t38 -9.5h6t11 1v-94q-17 -1 -42 -2.5
t-45 -1.5z" />
    <glyph glyph-name="aogonek" unicode="&#x105;" horiz-adv-x="567" 
d="M166 -8q-46 0 -76.5 16t-46 51t-15.5 90q0 57 13 90.5t49 48t103 14.5q8 0 21.5 -0.5t30.5 -1t33.5 -1t30.5 -1.5v17q0 20 -3.5 31t-13.5 15.5t-31.5 5.5t-57.5 1q-24 0 -49.5 -1t-50.5 -2t-48 -3v138q38 7 92.5 12.5t121.5 5.5q72 0 119 -9t74.5 -26.5t40.5 -43.5
t16.5 -60t3.5 -77v-302h-209l-4 56h-10q-21 -29 -42.5 -43t-44 -17.5t-47.5 -3.5zM267 129q12 0 19 2t12 6.5t7 10.5q3 7 3.5 17t0.5 23v27h-40q-20 0 -29.5 -3t-12 -13t-2.5 -31q0 -14 2 -23t11 -12.5t29 -3.5zM437 -200q-56 0 -88 12.5t-44.5 33t-12.5 43.5q0 31 21 62.5
t54 58.5l156 -10q-13 -6 -27.5 -18t-25 -25.5t-10.5 -26.5q0 -14 9 -23.5t38 -9.5h6t11 1v-94q-17 -1 -42 -2.5t-45 -1.5z" />
    <glyph glyph-name="Cacute" unicode="&#x106;" horiz-adv-x="567" 
d="M342 -8q-80 0 -134 11t-87.5 35.5t-50 65t-22.5 100t-6 140.5t6 140.5t22.5 100t50 65t87.5 35.5t134 11q32 0 66 -2.5t65.5 -6.5t54.5 -10v-156q-40 3 -65.5 5t-40.5 2.5t-25 0.5q-36 0 -58.5 -3t-35.5 -13.5t-18.5 -30.5t-6.5 -53.5t-1 -84.5t1 -84.5t6.5 -54
t18.5 -30.5t35.5 -13t58.5 -3q30 0 68 2t67 6v-159q-22 -4 -54.5 -8t-67.5 -6t-68 -2zM216 743v5l86 143h198v-5l-136 -143h-148z" />
    <glyph glyph-name="cacute" unicode="&#x107;" horiz-adv-x="466" 
d="M264 -8q-68 0 -112 12.5t-69 35.5t-36 55t-14 72.5t-3 86.5t2.5 86.5t13.5 73t36 56t69 36t113 12.5q44 0 85 -4.5t80 -13.5v-138q-18 2 -48 4t-57 2t-42.5 -4t-23 -15.5t-9.5 -34t-2 -59.5t2 -59.5t9 -34t22.5 -15.5t43.5 -4q23 0 53.5 2t55.5 5v-138q-41 -9 -84.5 -14
t-84.5 -5zM121 565v5l86 143h198v-5l-136 -143h-148z" />
    <glyph glyph-name="Ccircumflex" unicode="&#x108;" horiz-adv-x="567" 
d="M342 -8q-80 0 -134 11t-87.5 35.5t-50 65t-22.5 100t-6 140.5t6 140.5t22.5 100t50 65t87.5 35.5t134 11q32 0 66 -2.5t65.5 -6.5t54.5 -10v-156q-40 3 -65.5 5t-40.5 2.5t-25 0.5q-36 0 -58.5 -3t-35.5 -13.5t-18.5 -30.5t-6.5 -53.5t-1 -84.5t1 -84.5t6.5 -54
t18.5 -30.5t35.5 -13t58.5 -3q30 0 68 2t67 6v-159q-22 -4 -54.5 -8t-67.5 -6t-68 -2zM138 743v8l89 140h189l90 -140v-8h-134l-51 72l-49 -72h-134z" />
    <glyph glyph-name="ccircumflex" unicode="&#x109;" horiz-adv-x="466" 
d="M264 -8q-68 0 -112 12.5t-69 35.5t-36 55t-14 72.5t-3 86.5t2.5 86.5t13.5 73t36 56t69 36t113 12.5q44 0 85 -4.5t80 -13.5v-138q-18 2 -48 4t-57 2t-42.5 -4t-23 -15.5t-9.5 -34t-2 -59.5t2 -59.5t9 -34t22.5 -15.5t43.5 -4q23 0 53.5 2t55.5 5v-138q-41 -9 -84.5 -14
t-84.5 -5zM59 565v8l89 140h189l90 -140v-8h-134l-51 72l-49 -72h-134z" />
    <glyph glyph-name="Cdotaccent" unicode="&#x10a;" horiz-adv-x="567" 
d="M342 -8q-80 0 -134 11t-87.5 35.5t-50 65t-22.5 100t-6 140.5t6 140.5t22.5 100t50 65t87.5 35.5t134 11q32 0 66 -2.5t65.5 -6.5t54.5 -10v-156q-40 3 -65.5 5t-40.5 2.5t-25 0.5q-36 0 -58.5 -3t-35.5 -13.5t-18.5 -30.5t-6.5 -53.5t-1 -84.5t1 -84.5t6.5 -54
t18.5 -30.5t35.5 -13t58.5 -3q30 0 68 2t67 6v-159q-22 -4 -54.5 -8t-67.5 -6t-68 -2zM239 754v124h165v-124h-165z" />
    <glyph glyph-name="cdotaccent" unicode="&#x10b;" horiz-adv-x="466" 
d="M264 -8q-68 0 -112 12.5t-69 35.5t-36 55t-14 72.5t-3 86.5t2.5 86.5t13.5 73t36 56t69 36t113 12.5q44 0 85 -4.5t80 -13.5v-138q-18 2 -48 4t-57 2t-42.5 -4t-23 -15.5t-9.5 -34t-2 -59.5t2 -59.5t9 -34t22.5 -15.5t43.5 -4q23 0 53.5 2t55.5 5v-138q-41 -9 -84.5 -14
t-84.5 -5zM160 576v124h165v-124h-165z" />
    <glyph glyph-name="Ccaron" unicode="&#x10c;" horiz-adv-x="567" 
d="M342 -8q-80 0 -134 11t-87.5 35.5t-50 65t-22.5 100t-6 140.5t6 140.5t22.5 100t50 65t87.5 35.5t134 11q32 0 66 -2.5t65.5 -6.5t54.5 -10v-156q-40 3 -65.5 5t-40.5 2.5t-25 0.5q-36 0 -58.5 -3t-35.5 -13.5t-18.5 -30.5t-6.5 -53.5t-1 -84.5t1 -84.5t6.5 -54
t18.5 -30.5t35.5 -13t58.5 -3q30 0 68 2t67 6v-159q-22 -4 -54.5 -8t-67.5 -6t-68 -2zM227 743l-89 140v8h134l52 -72l48 72h134v-8l-90 -140h-189z" />
    <glyph glyph-name="ccaron" unicode="&#x10d;" horiz-adv-x="466" 
d="M264 -8q-68 0 -112 12.5t-69 35.5t-36 55t-14 72.5t-3 86.5t2.5 86.5t13.5 73t36 56t69 36t113 12.5q44 0 85 -4.5t80 -13.5v-138q-18 2 -48 4t-57 2t-42.5 -4t-23 -15.5t-9.5 -34t-2 -59.5t2 -59.5t9 -34t22.5 -15.5t43.5 -4q23 0 53.5 2t55.5 5v-138q-41 -9 -84.5 -14
t-84.5 -5zM148 565l-89 140v8h134l52 -72l48 72h134v-8l-90 -140h-189z" />
    <glyph glyph-name="Dcaron" unicode="&#x10e;" horiz-adv-x="670" 
d="M51 0v688h255q96 0 156.5 -10t94.5 -33t49 -62.5t18.5 -98t3.5 -140.5t-3.5 -140.5t-18.5 -98t-49 -62.5t-94.5 -33t-156.5 -10h-255zM285 167h24q25 0 41 2.5t25 11t12.5 27.5t4.5 51.5t1 83.5q0 52 -1 85t-4.5 52t-12.5 28t-25 11t-41 2h-24v-354zM240 743l-89 140v8
h134l52 -72l48 72h134v-8l-90 -140h-189z" />
    <glyph glyph-name="dcaron" unicode="&#x10f;" horiz-adv-x="584" 
d="M184 -8q-40 0 -69 11.5t-48 40.5t-28 80t-9 129t9 129.5t28.5 81t49 41.5t70.5 12q25 0 48 -4t43.5 -16t37.5 -38h10v284h214v-743h-207l-4 57h-11q-15 -27 -36 -41t-46 -19t-52 -5zM285 157q20 0 28 4t10 21q2 15 2.5 32t0.5 41v39.5t-2 28.5q-2 21 -10.5 25.5
t-28.5 4.5q-16 0 -24.5 -2t-12 -11t-4.5 -29t-1 -56t1 -56t4.5 -29t12 -11t24.5 -2zM570 421l9 221v46h154v-46l-51 -221h-112z" />
    <glyph glyph-name="Dcroat" unicode="&#x110;" horiz-adv-x="670" 
d="M51 0v280h-60v137h60v271h255q96 0 156.5 -10t94.5 -33t49 -62.5t18.5 -98t3.5 -140.5t-3.5 -140.5t-18.5 -98t-49 -62.5t-94.5 -33t-156.5 -10h-255zM285 167h24q25 0 41 2.5t25 11t12.5 27.5t4.5 51.5t1 83.5q0 52 -1 85t-4.5 52t-12.5 28t-25 11t-41 2h-24v-104h62
v-137h-62v-113z" />
    <glyph glyph-name="dcroat" unicode="&#x111;" horiz-adv-x="584" 
d="M207 595v93h386v-93h-386zM184 -8q-40 0 -69 11.5t-48 40.5t-28 80t-9 129t9 129.5t28.5 81t49 41.5t70.5 12q25 0 48 -4t43.5 -16t37.5 -38h10v284h214v-743h-207l-4 57h-11q-15 -27 -36 -41t-46 -19t-52 -5zM285 157q20 0 28 4t10 21q2 15 2.5 32t0.5 41v39.5t-2 28.5
q-2 21 -10.5 25.5t-28.5 4.5q-16 0 -24.5 -2t-12 -11t-4.5 -29t-1 -56t1 -56t4.5 -29t12 -11t24.5 -2z" />
    <glyph glyph-name="Emacron" unicode="&#x112;" horiz-adv-x="603" 
d="M51 0v688h504v-167h-271v-92h224v-163h-224v-99h271v-167h-504zM129 754v112h358v-112h-358z" />
    <glyph glyph-name="emacron" unicode="&#x113;" horiz-adv-x="558" 
d="M303 -8q-79 0 -130 9.5t-80 29t-42.5 50.5t-17 74t-3.5 99q0 71 6 121t29.5 81.5t74.5 46.5t141 15q73 0 118.5 -8.5t71 -27t36.5 -49t13.5 -75t2.5 -104.5v-39h-284q0 -27 3 -42t14 -21.5t34.5 -8t63.5 -1.5q17 0 41 1t52.5 2.5t55.5 3.5v-137q-20 -6 -52.5 -10.5
t-71 -7t-76.5 -2.5zM325 284v16q0 30 -1 47t-5.5 24.5t-13.5 9.5t-24 2q-14 0 -22.5 -2t-12.5 -9.5t-5.5 -24.5t-1.5 -47h102zM104 576v112h358v-112h-358z" />
    <glyph glyph-name="Ebreve" unicode="&#x114;" horiz-adv-x="603" 
d="M51 0v688h504v-167h-271v-92h224v-163h-224v-99h271v-167h-504zM307 739q-51 0 -83 11t-49 31.5t-23 48.5t-6 61h111q0 -13 2 -24t12.5 -17.5t35.5 -6.5q26 0 36.5 6.5t12.5 17.5t2 24h111q0 -33 -6.5 -61t-23.5 -48.5t-49 -31.5t-83 -11z" />
    <glyph glyph-name="ebreve" unicode="&#x115;" horiz-adv-x="558" 
d="M303 -8q-79 0 -130 9.5t-80 29t-42.5 50.5t-17 74t-3.5 99q0 71 6 121t29.5 81.5t74.5 46.5t141 15q73 0 118.5 -8.5t71 -27t36.5 -49t13.5 -75t2.5 -104.5v-39h-284q0 -27 3 -42t14 -21.5t34.5 -8t63.5 -1.5q17 0 41 1t52.5 2.5t55.5 3.5v-137q-20 -6 -52.5 -10.5
t-71 -7t-76.5 -2.5zM325 284v16q0 30 -1 47t-5.5 24.5t-13.5 9.5t-24 2q-14 0 -22.5 -2t-12.5 -9.5t-5.5 -24.5t-1.5 -47h102zM282 561q-51 0 -83 11t-49 31.5t-23 48.5t-6 61h111q0 -13 2 -24t12.5 -17.5t35.5 -6.5q26 0 36.5 6.5t12.5 17.5t2 24h111q0 -33 -6.5 -61
t-23.5 -48.5t-49 -31.5t-83 -11z" />
    <glyph glyph-name="Edotaccent" unicode="&#x116;" horiz-adv-x="603" 
d="M51 0v688h504v-167h-271v-92h224v-163h-224v-99h271v-167h-504zM225 754v124h165v-124h-165z" />
    <glyph glyph-name="edotaccent" unicode="&#x117;" horiz-adv-x="558" 
d="M303 -8q-79 0 -130 9.5t-80 29t-42.5 50.5t-17 74t-3.5 99q0 71 6 121t29.5 81.5t74.5 46.5t141 15q73 0 118.5 -8.5t71 -27t36.5 -49t13.5 -75t2.5 -104.5v-39h-284q0 -27 3 -42t14 -21.5t34.5 -8t63.5 -1.5q17 0 41 1t52.5 2.5t55.5 3.5v-137q-20 -6 -52.5 -10.5
t-71 -7t-76.5 -2.5zM325 284v16q0 30 -1 47t-5.5 24.5t-13.5 9.5t-24 2q-14 0 -22.5 -2t-12.5 -9.5t-5.5 -24.5t-1.5 -47h102zM200 576v124h165v-124h-165z" />
    <glyph glyph-name="Eogonek" unicode="&#x118;" horiz-adv-x="603" 
d="M51 0v688h504v-167h-271v-92h224v-163h-224v-99h271v-167h-504zM469 -200q-56 0 -88 12.5t-44.5 33t-12.5 43.5q0 31 21 62.5t54 58.5l156 -10q-13 -6 -27.5 -18t-25 -25.5t-10.5 -26.5q0 -14 9 -23.5t38 -9.5h6t11 1v-94q-17 -1 -42 -2.5t-45 -1.5z" />
    <glyph glyph-name="eogonek" unicode="&#x119;" horiz-adv-x="558" 
d="M303 -8q-79 0 -130 9.5t-80 29t-42.5 50.5t-17 74t-3.5 99q0 71 6 121t29.5 81.5t74.5 46.5t141 15q73 0 118.5 -8.5t71 -27t36.5 -49t13.5 -75t2.5 -104.5v-39h-284q0 -27 3 -42t14 -21.5t34.5 -8t63.5 -1.5q17 0 41 1t52.5 2.5t55.5 3.5v-137q-20 -6 -52.5 -10.5
t-71 -7t-76.5 -2.5zM325 284v16q0 30 -1 47t-5.5 24.5t-13.5 9.5t-24 2q-14 0 -22.5 -2t-12.5 -9.5t-5.5 -24.5t-1.5 -47h102zM417 -188q-56 0 -88 12.5t-44.5 33t-12.5 43.5q0 31 21 62.5t54 58.5l156 -10q-13 -6 -27.5 -18t-25 -25.5t-10.5 -26.5q0 -14 9 -23.5t38 -9.5h6
t11 1v-94q-17 -1 -42 -2.5t-45 -1.5z" />
    <glyph glyph-name="Ecaron" unicode="&#x11a;" horiz-adv-x="603" 
d="M51 0v688h504v-167h-271v-92h224v-163h-224v-99h271v-167h-504zM213 743l-89 140v8h134l52 -72l48 72h134v-8l-90 -140h-189z" />
    <glyph glyph-name="ecaron" unicode="&#x11b;" horiz-adv-x="558" 
d="M303 -8q-79 0 -130 9.5t-80 29t-42.5 50.5t-17 74t-3.5 99q0 71 6 121t29.5 81.5t74.5 46.5t141 15q73 0 118.5 -8.5t71 -27t36.5 -49t13.5 -75t2.5 -104.5v-39h-284q0 -27 3 -42t14 -21.5t34.5 -8t63.5 -1.5q17 0 41 1t52.5 2.5t55.5 3.5v-137q-20 -6 -52.5 -10.5
t-71 -7t-76.5 -2.5zM325 284v16q0 30 -1 47t-5.5 24.5t-13.5 9.5t-24 2q-14 0 -22.5 -2t-12.5 -9.5t-5.5 -24.5t-1.5 -47h102zM188 565l-89 140v8h134l52 -72l48 72h134v-8l-90 -140h-189z" />
    <glyph glyph-name="Gcircumflex" unicode="&#x11c;" horiz-adv-x="662" 
d="M357 -8q-78 0 -132.5 10.5t-90.5 34t-56 64t-28 100.5t-8 143t8 143t28 100.5t56 64t90.5 34t132.5 10.5q37 0 81.5 -3t89.5 -8.5t83 -12.5v-156q-31 4 -65.5 6.5t-65 4.5t-48.5 2q-47 0 -77 -2t-47 -11t-25 -28.5t-10 -54.5t-2 -89q0 -48 1.5 -81.5t7 -54.5t16 -32.5
t28 -16t43.5 -4.5q4 0 11 0.5t16 0.5h16v107h-66v151h270v-401q-37 -6 -82.5 -10.5t-91 -7.5t-83.5 -3zM172 743v8l89 140h189l90 -140v-8h-134l-51 72l-49 -72h-134z" />
    <glyph glyph-name="gcircumflex" unicode="&#x11d;" horiz-adv-x="584" 
d="M265 -206q-33 0 -69 2t-67.5 5.5t-53.5 7.5v135h43.5h43.5h44q45 0 69.5 1.5t35 8.5t13 22.5t2.5 43.5v47h-10q-17 -25 -37.5 -37.5t-43.5 -16.5t-48 -4q-41 0 -70.5 12t-49 40.5t-28.5 78t-9 125.5t9 125.5t28 77t48 39t69 11.5q27 0 52 -5t46 -19t36 -41h11l4 57h207
v-455q0 -64 -6.5 -112.5t-32.5 -81.5t-81.5 -50t-154.5 -17zM285 173q20 0 28 4t10 21q2 12 2.5 27.5t0.5 37.5v36.5t-2 25.5q-2 20 -10.5 24t-28.5 4q-16 0 -24.5 -2t-12 -10t-4.5 -26.5t-1 -51.5t1 -51.5t4.5 -26.5t12 -10t24.5 -2zM108 565v8l89 140h189l90 -140v-8h-134
l-51 72l-49 -72h-134z" />
    <glyph glyph-name="Gbreve" unicode="&#x11e;" horiz-adv-x="662" 
d="M357 -8q-78 0 -132.5 10.5t-90.5 34t-56 64t-28 100.5t-8 143t8 143t28 100.5t56 64t90.5 34t132.5 10.5q37 0 81.5 -3t89.5 -8.5t83 -12.5v-156q-31 4 -65.5 6.5t-65 4.5t-48.5 2q-47 0 -77 -2t-47 -11t-25 -28.5t-10 -54.5t-2 -89q0 -48 1.5 -81.5t7 -54.5t16 -32.5
t28 -16t43.5 -4.5q4 0 11 0.5t16 0.5h16v107h-66v151h270v-401q-37 -6 -82.5 -10.5t-91 -7.5t-83.5 -3zM355 739q-51 0 -83 11t-49 31.5t-23 48.5t-6 61h111q0 -13 2 -24t12.5 -17.5t35.5 -6.5q26 0 36.5 6.5t12.5 17.5t2 24h111q0 -33 -6.5 -61t-23.5 -48.5t-49 -31.5
t-83 -11z" />
    <glyph glyph-name="gbreve" unicode="&#x11f;" horiz-adv-x="584" 
d="M265 -206q-33 0 -69 2t-67.5 5.5t-53.5 7.5v135h43.5h43.5h44q45 0 69.5 1.5t35 8.5t13 22.5t2.5 43.5v47h-10q-17 -25 -37.5 -37.5t-43.5 -16.5t-48 -4q-41 0 -70.5 12t-49 40.5t-28.5 78t-9 125.5t9 125.5t28 77t48 39t69 11.5q27 0 52 -5t46 -19t36 -41h11l4 57h207
v-455q0 -64 -6.5 -112.5t-32.5 -81.5t-81.5 -50t-154.5 -17zM285 173q20 0 28 4t10 21q2 12 2.5 27.5t0.5 37.5v36.5t-2 25.5q-2 20 -10.5 24t-28.5 4q-16 0 -24.5 -2t-12 -10t-4.5 -26.5t-1 -51.5t1 -51.5t4.5 -26.5t12 -10t24.5 -2zM291 561q-51 0 -83 11t-49 31.5
t-23 48.5t-6 61h111q0 -13 2 -24t12.5 -17.5t35.5 -6.5q26 0 36.5 6.5t12.5 17.5t2 24h111q0 -33 -6.5 -61t-23.5 -48.5t-49 -31.5t-83 -11z" />
    <glyph glyph-name="Gdotaccent" unicode="&#x120;" horiz-adv-x="662" 
d="M357 -8q-78 0 -132.5 10.5t-90.5 34t-56 64t-28 100.5t-8 143t8 143t28 100.5t56 64t90.5 34t132.5 10.5q37 0 81.5 -3t89.5 -8.5t83 -12.5v-156q-31 4 -65.5 6.5t-65 4.5t-48.5 2q-47 0 -77 -2t-47 -11t-25 -28.5t-10 -54.5t-2 -89q0 -48 1.5 -81.5t7 -54.5t16 -32.5
t28 -16t43.5 -4.5q4 0 11 0.5t16 0.5h16v107h-66v151h270v-401q-37 -6 -82.5 -10.5t-91 -7.5t-83.5 -3zM273 754v124h165v-124h-165z" />
    <glyph glyph-name="gdotaccent" unicode="&#x121;" horiz-adv-x="584" 
d="M265 -206q-33 0 -69 2t-67.5 5.5t-53.5 7.5v135h43.5h43.5h44q45 0 69.5 1.5t35 8.5t13 22.5t2.5 43.5v47h-10q-17 -25 -37.5 -37.5t-43.5 -16.5t-48 -4q-41 0 -70.5 12t-49 40.5t-28.5 78t-9 125.5t9 125.5t28 77t48 39t69 11.5q27 0 52 -5t46 -19t36 -41h11l4 57h207
v-455q0 -64 -6.5 -112.5t-32.5 -81.5t-81.5 -50t-154.5 -17zM285 173q20 0 28 4t10 21q2 12 2.5 27.5t0.5 37.5v36.5t-2 25.5q-2 20 -10.5 24t-28.5 4q-16 0 -24.5 -2t-12 -10t-4.5 -26.5t-1 -51.5t1 -51.5t4.5 -26.5t12 -10t24.5 -2zM209 576v124h165v-124h-165z" />
    <glyph glyph-name="uni0122" unicode="&#x122;" horiz-adv-x="662" 
d="M357 -8q-78 0 -132.5 10.5t-90.5 34t-56 64t-28 100.5t-8 143t8 143t28 100.5t56 64t90.5 34t132.5 10.5q37 0 81.5 -3t89.5 -8.5t83 -12.5v-156q-31 4 -65.5 6.5t-65 4.5t-48.5 2q-47 0 -77 -2t-47 -11t-25 -28.5t-10 -54.5t-2 -89q0 -48 1.5 -81.5t7 -54.5t16 -32.5
t28 -16t43.5 -4.5q4 0 11 0.5t16 0.5h16v107h-66v151h270v-401q-37 -6 -82.5 -10.5t-91 -7.5t-83.5 -3zM253 -297v72q32 0 46.5 3.5t19 11.5t4.5 21v6h-70v118h205v-75q0 -46 -6.5 -76.5t-27 -48t-61.5 -25t-110 -7.5z" />
    <glyph glyph-name="uni0123" unicode="&#x123;" horiz-adv-x="584" 
d="M265 -206q-33 0 -69 2t-67.5 5.5t-53.5 7.5v135h43.5h43.5h44q45 0 69.5 1.5t35 8.5t13 22.5t2.5 43.5v47h-10q-17 -25 -37.5 -37.5t-43.5 -16.5t-48 -4q-41 0 -70.5 12t-49 40.5t-28.5 78t-9 125.5t9 125.5t28 77t48 39t69 11.5q27 0 52 -5t46 -19t36 -41h11l4 57h207
v-455q0 -64 -6.5 -112.5t-32.5 -81.5t-81.5 -50t-154.5 -17zM285 173q20 0 28 4t10 21q2 12 2.5 27.5t0.5 37.5v36.5t-2 25.5q-2 20 -10.5 24t-28.5 4q-16 0 -24.5 -2t-12 -10t-4.5 -26.5t-1 -51.5t1 -51.5t4.5 -26.5t12 -10t24.5 -2zM189 560v75q0 46 6.5 76.5t27 48
t61.5 25t110 7.5v-72q-47 0 -58.5 -8t-11.5 -28v-6h70v-118h-205z" />
    <glyph glyph-name="Hcircumflex" unicode="&#x124;" horiz-adv-x="697" 
d="M51 0v688h234v-250h127v250h234v-688h-234v251h-127v-251h-234zM165 743v8l89 140h189l90 -140v-8h-134l-51 72l-49 -72h-134z" />
    <glyph glyph-name="hcircumflex" unicode="&#x125;" horiz-adv-x="588" 
d="M44 0v743h214v-290h10q18 27 40.5 41t47 19t44.5 5q49 0 77.5 -13t43 -38.5t19 -62.5t4.5 -85v-319h-214v269q0 31 -1 48t-4 24.5t-10.5 9t-19.5 1.5q-13 0 -21 -1.5t-11 -9t-4 -24.5t-1 -48v-269h-214zM-33 765v8l89 140h189l90 -140v-8h-134l-51 72l-49 -72h-134z" />
    <glyph glyph-name="Hbar" unicode="&#x126;" horiz-adv-x="697" 
d="M51 0v688h234v-77h127v77h234v-688h-234v211h-127v-211h-234zM285 398h127v76h-127v-76z" />
    <glyph glyph-name="hbar" unicode="&#x127;" horiz-adv-x="588" 
d="M-9 596v92h386v-92h-386zM44 0v743h214v-290h10q18 27 40.5 41t47 19t44.5 5q49 0 77.5 -13t43 -38.5t19 -62.5t4.5 -85v-319h-214v269q0 31 -1 48t-4 24.5t-10.5 9t-19.5 1.5q-13 0 -21 -1.5t-11 -9t-4 -24.5t-1 -48v-269h-214z" />
    <glyph glyph-name="Itilde" unicode="&#x128;" horiz-adv-x="336" 
d="M51 0v688h234v-688h-234zM-37 732q0 49 4.5 84t26 54t73.5 19q30 0 61 -5.5t56 -10.5q21 -4 38 -7t28 -3q17 0 19.5 8.5t2.5 29.5h100q0 -48 -4.5 -83.5t-26 -54.5t-73.5 -19q-30 0 -60.5 6t-56.5 10q-21 4 -38 7t-28 3q-16 0 -19 -9t-3 -29h-100z" />
    <glyph glyph-name="itilde" unicode="&#x129;" horiz-adv-x="306" 
d="M44 0v510h218v-510h-218zM-52 554q0 49 4.5 84t26 54t73.5 19q30 0 61 -5.5t56 -10.5q21 -4 38 -7t28 -3q17 0 19.5 8.5t2.5 29.5h100q0 -48 -4.5 -83.5t-26 -54.5t-73.5 -19q-30 0 -60.5 6t-56.5 10q-21 4 -38 7t-28 3q-16 0 -19 -9t-3 -29h-100z" />
    <glyph glyph-name="Imacron" unicode="&#x12a;" horiz-adv-x="336" 
d="M51 0v688h234v-688h-234zM-11 754v112h358v-112h-358z" />
    <glyph glyph-name="imacron" unicode="&#x12b;" horiz-adv-x="306" 
d="M44 0v510h218v-510h-218zM-26 576v112h358v-112h-358z" />
    <glyph glyph-name="Ibreve" unicode="&#x12c;" horiz-adv-x="336" 
d="M51 0v688h234v-688h-234zM167 739q-51 0 -83 11t-49 31.5t-23 48.5t-6 61h111q0 -13 2 -24t12.5 -17.5t35.5 -6.5q26 0 36.5 6.5t12.5 17.5t2 24h111q0 -33 -6.5 -61t-23.5 -48.5t-49 -31.5t-83 -11z" />
    <glyph glyph-name="ibreve" unicode="&#x12d;" horiz-adv-x="306" 
d="M44 0v510h218v-510h-218zM152 561q-51 0 -83 11t-49 31.5t-23 48.5t-6 61h111q0 -13 2 -24t12.5 -17.5t35.5 -6.5q26 0 36.5 6.5t12.5 17.5t2 24h111q0 -33 -6.5 -61t-23.5 -48.5t-49 -31.5t-83 -11z" />
    <glyph glyph-name="Iogonek" unicode="&#x12e;" horiz-adv-x="336" 
d="M51 0v688h234v-688h-234zM199 -200q-56 0 -88 12.5t-44.5 33t-12.5 43.5q0 31 21 62.5t54 58.5l156 -10q-13 -6 -27.5 -18t-25 -25.5t-10.5 -26.5q0 -14 9 -23.5t38 -9.5h6t11 1v-94q-17 -1 -42 -2.5t-45 -1.5z" />
    <glyph glyph-name="iogonek" unicode="&#x12f;" horiz-adv-x="306" 
d="M44 592v151h218v-151h-218zM44 0v510h218v-510h-218zM176 -200q-56 0 -88 12.5t-44.5 33t-12.5 43.5q0 31 21 62.5t54 58.5l156 -10q-13 -6 -27.5 -18t-25 -25.5t-10.5 -26.5q0 -14 9 -23.5t38 -9.5h6t11 1v-94q-17 -1 -42 -2.5t-45 -1.5z" />
    <glyph glyph-name="Idotaccent" unicode="&#x130;" horiz-adv-x="336" 
d="M51 0v688h234v-688h-234zM85 754v124h165v-124h-165z" />
    <glyph glyph-name="dotlessi" unicode="&#x131;" horiz-adv-x="306" 
d="M44 0v510h218v-510h-218z" />
    <glyph glyph-name="IJ" unicode="&#x132;" horiz-adv-x="774" 
d="M51 0v688h234v-688h-234zM354 0v158q49 0 76.5 2.5t40 13.5t15.5 34t3 63v417h234v-360q0 -94 -5 -155.5t-23 -96.5t-57.5 -51t-108 -20.5t-175.5 -4.5z" />
    <glyph glyph-name="ij" unicode="&#x133;" horiz-adv-x="612" 
d="M44 592v151h218v-151h-218zM44 0v510h218v-510h-218zM350 592v151h218v-151h-218zM278 -199v138q35 0 50 5.5t18.5 17t3.5 28.5v520h218v-473q0 -81 -11 -128.5t-41.5 -70.5t-88 -30t-149.5 -7z" />
    <glyph glyph-name="Jcircumflex" unicode="&#x134;" horiz-adv-x="438" 
d="M18 0v158q49 0 76.5 2.5t40 13.5t15.5 34t3 63v417h234v-360q0 -94 -5 -155.5t-23 -96.5t-57.5 -51t-108 -20.5t-175.5 -4.5zM86 743v8l89 140h189l90 -140v-8h-134l-51 72l-49 -72h-134z" />
    <glyph glyph-name="jcircumflex" unicode="&#x135;" horiz-adv-x="306" 
d="M-28 -199v138q35 0 50 5.5t18.5 17t3.5 28.5v520h218v-473q0 -81 -11 -128.5t-41.5 -70.5t-88 -30t-149.5 -7zM-31 565v8l89 140h189l90 -140v-8h-134l-51 72l-49 -72h-134z" />
    <glyph glyph-name="uni0136" unicode="&#x136;" horiz-adv-x="696" 
d="M51 0v688h234v-257h10l149 257h249l-207 -323l210 -365h-255l-146 268h-10v-268h-234zM245 -297v72q32 0 46.5 3.5t19 11.5t4.5 21v6h-70v118h205v-75q0 -46 -6.5 -76.5t-27 -48t-61.5 -25t-110 -7.5z" />
    <glyph glyph-name="uni0137" unicode="&#x137;" horiz-adv-x="601" 
d="M44 0v743h214v-416h9l107 183h224l-153 -241l156 -269h-234l-100 177h-9v-177h-214zM209 -297v72q32 0 46.5 3.5t19 11.5t4.5 21v6h-70v118h205v-75q0 -46 -6.5 -76.5t-27 -48t-61.5 -25t-110 -7.5z" />
    <glyph glyph-name="kgreenlandic" unicode="&#x138;" horiz-adv-x="601" 
d="M44 0v510h214v-183h9l107 183h224l-153 -241l156 -269h-234l-100 177h-9v-177h-214z" />
    <glyph glyph-name="Lacute" unicode="&#x139;" horiz-adv-x="533" 
d="M51 0v688h234v-512h230v-176h-464zM62 743v5l86 143h198v-5l-136 -143h-148z" />
    <glyph glyph-name="lacute" unicode="&#x13a;" horiz-adv-x="306" 
d="M44 0v743h218v-743h-218zM47 805v5l86 143h198v-5l-136 -143h-148z" />
    <glyph glyph-name="uni013B" unicode="&#x13b;" horiz-adv-x="533" 
d="M51 0v688h234v-512h230v-176h-464zM188 -297v72q32 0 46.5 3.5t19 11.5t4.5 21v6h-70v118h205v-75q0 -46 -6.5 -76.5t-27 -48t-61.5 -25t-110 -7.5z" />
    <glyph glyph-name="uni013C" unicode="&#x13c;" horiz-adv-x="306" 
d="M44 0v743h218v-743h-218zM51 -297v72q32 0 46.5 3.5t19 11.5t4.5 21v6h-70v118h205v-75q0 -46 -6.5 -76.5t-27 -48t-61.5 -25t-110 -7.5z" />
    <glyph glyph-name="Lcaron" unicode="&#x13d;" horiz-adv-x="533" 
d="M51 0v688h234v-512h230v-176h-464zM360 421l9 221v46h154v-46l-51 -221h-112z" />
    <glyph glyph-name="lcaron" unicode="&#x13e;" horiz-adv-x="306" 
d="M44 0v743h218v-743h-218zM289 421l9 221v46h154v-46l-51 -221h-112z" />
    <glyph glyph-name="Ldot" unicode="&#x13f;" horiz-adv-x="536" 
d="M51 0v688h234v-512h230v-176h-464zM374 274v171h148v-171h-148z" />
    <glyph glyph-name="ldot" unicode="&#x140;" horiz-adv-x="426" 
d="M44 0v743h218v-743h-218zM293 214v171h148v-171h-148z" />
    <glyph glyph-name="Lslash" unicode="&#x141;" horiz-adv-x="533" 
d="M-1 230v142l409 149v-142zM51 0v688h234v-512h230v-176h-464z" />
    <glyph glyph-name="lslash" unicode="&#x142;" horiz-adv-x="339" 
d="M60 0v278l-55 -20v141l55 20v324h218v-253l56 20v-141l-56 -20v-349h-218z" />
    <glyph glyph-name="Nacute" unicode="&#x143;" horiz-adv-x="705" 
d="M51 0v688h239l134 -266h7v266h223v-688h-215l-159 321h-6v-321h-223zM252 743v5l86 143h198v-5l-136 -143h-148z" />
    <glyph glyph-name="nacute" unicode="&#x144;" horiz-adv-x="588" 
d="M44 0v510h207l4 -57h10q18 27 41.5 41t48 19t44.5 5q49 0 78 -13t43.5 -38.5t19 -62.5t4.5 -85v-319h-214v269q0 31 -1 48t-4 24.5t-10.5 9t-19.5 1.5q-13 0 -21 -1.5t-11 -9t-4 -24.5t-1 -48v-269h-214zM172 565v5l86 143h198v-5l-136 -143h-148z" />
    <glyph glyph-name="uni0145" unicode="&#x145;" horiz-adv-x="705" 
d="M51 0v688h239l134 -266h7v266h223v-688h-215l-159 321h-6v-321h-223zM255 -297v72q32 0 46.5 3.5t19 11.5t4.5 21v6h-70v118h205v-75q0 -46 -6.5 -76.5t-27 -48t-61.5 -25t-110 -7.5z" />
    <glyph glyph-name="uni0146" unicode="&#x146;" horiz-adv-x="588" 
d="M44 0v510h207l4 -57h10q18 27 41.5 41t48 19t44.5 5q49 0 78 -13t43.5 -38.5t19 -62.5t4.5 -85v-319h-214v269q0 31 -1 48t-4 24.5t-10.5 9t-19.5 1.5q-13 0 -21 -1.5t-11 -9t-4 -24.5t-1 -48v-269h-214zM192 -297v72q32 0 46.5 3.5t19 11.5t4.5 21v6h-70v118h205v-75
q0 -46 -6.5 -76.5t-27 -48t-61.5 -25t-110 -7.5z" />
    <glyph glyph-name="Ncaron" unicode="&#x147;" horiz-adv-x="705" 
d="M51 0v688h239l134 -266h7v266h223v-688h-215l-159 321h-6v-321h-223zM263 743l-89 140v8h134l52 -72l48 72h134v-8l-90 -140h-189z" />
    <glyph glyph-name="ncaron" unicode="&#x148;" horiz-adv-x="588" 
d="M44 0v510h207l4 -57h10q18 27 41.5 41t48 19t44.5 5q49 0 78 -13t43.5 -38.5t19 -62.5t4.5 -85v-319h-214v269q0 31 -1 48t-4 24.5t-10.5 9t-19.5 1.5q-13 0 -21 -1.5t-11 -9t-4 -24.5t-1 -48v-269h-214zM199 565l-89 140v8h134l52 -72l48 72h134v-8l-90 -140h-189z" />
    <glyph glyph-name="napostrophe" unicode="&#x149;" horiz-adv-x="604" 
d="M44 0v510h207l4 -57h10q18 27 41.5 41t48 19t44.5 5q49 0 78 -13t43.5 -38.5t19 -62.5t4.5 -85v-319h-214v269q0 31 -1 48t-4 24.5t-10.5 9t-19.5 1.5q-13 0 -21 -1.5t-11 -9t-4 -24.5t-1 -48v-269h-214zM0 431v72q32 0 46.5 6t19 20.5t4.5 39.5v14h-70v130h205v-95
q0 -54 -6.5 -90.5t-27 -57.5t-61.5 -30t-110 -9z" />
    <glyph glyph-name="Eng" unicode="&#x14a;" horiz-adv-x="705" 
d="M359 -199v138q35 0 50 5.5t18.5 17t3.5 28.5v26l-151 305h-6v-321h-223v688h239l134 -266h7v266h223v-651q0 -65 -7 -108t-25 -68.5t-51 -38.5t-85 -17t-127 -4z" />
    <glyph glyph-name="eng" unicode="&#x14b;" horiz-adv-x="588" 
d="M258 -199v138q35 0 50 5.5t18.5 17t3.5 28.5v279q0 31 -1 48t-4 24.5t-10.5 9t-19.5 1.5q-13 0 -21 -1.5t-11 -9t-4 -24.5t-1 -48v-269h-214v510h207l4 -57h10q18 27 41.5 41t48 19t44.5 5q49 0 78 -13t43.5 -38.5t19 -62.5t4.5 -85v-282q0 -81 -11 -128.5t-41 -70.5
t-86.5 -30t-147.5 -7z" />
    <glyph glyph-name="Omacron" unicode="&#x14c;" horiz-adv-x="695" 
d="M347 -8q-91 0 -148.5 11t-89.5 35t-46.5 65t-17.5 100.5t-3 140.5t3 140.5t17.5 100.5t46.5 65t89.5 35t148.5 11t148.5 -11t90 -35t46.5 -65t17.5 -100.5t3.5 -140.5t-3.5 -140.5t-17.5 -100.5t-46.5 -65t-90 -35t-148.5 -11zM347 159q21 0 34.5 2t21 11t10.5 28.5
t4 54.5t1 89t-1 89t-4 54.5t-10.5 28.5t-21 11t-34.5 2t-34.5 -2t-20.5 -11t-10.5 -28.5t-4 -54.5t-0.5 -89t0.5 -89t4 -54.5t10.5 -28.5t20.5 -11t34.5 -2zM169 754v112h358v-112h-358z" />
    <glyph glyph-name="omacron" unicode="&#x14d;" horiz-adv-x="571" 
d="M285 -8q-73 0 -120.5 7.5t-75 25.5t-40 48.5t-16 75t-3.5 106.5t3.5 106.5t16 75t40 48.5t75 25.5t120.5 7.5t120.5 -7.5t75 -25.5t40.5 -48.5t16.5 -75t3.5 -106.5t-3.5 -106.5t-16.5 -75t-40.5 -48.5t-75 -25.5t-120.5 -7.5zM285 142q16 0 24.5 2.5t12.5 13.5t5 34
t1 63q0 41 -1 63.5t-5 33.5t-12.5 13.5t-24.5 2.5t-24.5 -2.5t-12 -13.5t-4.5 -33.5t-1 -63.5q0 -40 1 -63t4.5 -34t12 -13.5t24.5 -2.5zM107 576v112h358v-112h-358z" />
    <glyph glyph-name="Obreve" unicode="&#x14e;" horiz-adv-x="695" 
d="M347 -8q-91 0 -148.5 11t-89.5 35t-46.5 65t-17.5 100.5t-3 140.5t3 140.5t17.5 100.5t46.5 65t89.5 35t148.5 11t148.5 -11t90 -35t46.5 -65t17.5 -100.5t3.5 -140.5t-3.5 -140.5t-17.5 -100.5t-46.5 -65t-90 -35t-148.5 -11zM347 159q21 0 34.5 2t21 11t10.5 28.5
t4 54.5t1 89t-1 89t-4 54.5t-10.5 28.5t-21 11t-34.5 2t-34.5 -2t-20.5 -11t-10.5 -28.5t-4 -54.5t-0.5 -89t0.5 -89t4 -54.5t10.5 -28.5t20.5 -11t34.5 -2zM347 739q-51 0 -83 11t-49 31.5t-23 48.5t-6 61h111q0 -13 2 -24t12.5 -17.5t35.5 -6.5q26 0 36.5 6.5t12.5 17.5
t2 24h111q0 -33 -6.5 -61t-23.5 -48.5t-49 -31.5t-83 -11z" />
    <glyph glyph-name="obreve" unicode="&#x14f;" horiz-adv-x="571" 
d="M285 -8q-73 0 -120.5 7.5t-75 25.5t-40 48.5t-16 75t-3.5 106.5t3.5 106.5t16 75t40 48.5t75 25.5t120.5 7.5t120.5 -7.5t75 -25.5t40.5 -48.5t16.5 -75t3.5 -106.5t-3.5 -106.5t-16.5 -75t-40.5 -48.5t-75 -25.5t-120.5 -7.5zM285 142q16 0 24.5 2.5t12.5 13.5t5 34
t1 63q0 41 -1 63.5t-5 33.5t-12.5 13.5t-24.5 2.5t-24.5 -2.5t-12 -13.5t-4.5 -33.5t-1 -63.5q0 -40 1 -63t4.5 -34t12 -13.5t24.5 -2.5zM285 561q-51 0 -83 11t-49 31.5t-23 48.5t-6 61h111q0 -13 2 -24t12.5 -17.5t35.5 -6.5q26 0 36.5 6.5t12.5 17.5t2 24h111
q0 -33 -6.5 -61t-23.5 -48.5t-49 -31.5t-83 -11z" />
    <glyph glyph-name="Ohungarumlaut" unicode="&#x150;" horiz-adv-x="695" 
d="M347 -8q-91 0 -148.5 11t-89.5 35t-46.5 65t-17.5 100.5t-3 140.5t3 140.5t17.5 100.5t46.5 65t89.5 35t148.5 11t148.5 -11t90 -35t46.5 -65t17.5 -100.5t3.5 -140.5t-3.5 -140.5t-17.5 -100.5t-46.5 -65t-90 -35t-148.5 -11zM347 159q21 0 34.5 2t21 11t10.5 28.5
t4 54.5t1 89t-1 89t-4 54.5t-10.5 28.5t-21 11t-34.5 2t-34.5 -2t-20.5 -11t-10.5 -28.5t-4 -54.5t-0.5 -89t0.5 -89t4 -54.5t10.5 -28.5t20.5 -11t34.5 -2zM190 743v4l67 121h160v-4l-108 -121h-119zM379 743v4l69 121h159v-4l-107 -121h-121z" />
    <glyph glyph-name="ohungarumlaut" unicode="&#x151;" horiz-adv-x="571" 
d="M285 -8q-73 0 -120.5 7.5t-75 25.5t-40 48.5t-16 75t-3.5 106.5t3.5 106.5t16 75t40 48.5t75 25.5t120.5 7.5t120.5 -7.5t75 -25.5t40.5 -48.5t16.5 -75t3.5 -106.5t-3.5 -106.5t-16.5 -75t-40.5 -48.5t-75 -25.5t-120.5 -7.5zM285 142q16 0 24.5 2.5t12.5 13.5t5 34
t1 63q0 41 -1 63.5t-5 33.5t-12.5 13.5t-24.5 2.5t-24.5 -2.5t-12 -13.5t-4.5 -33.5t-1 -63.5q0 -40 1 -63t4.5 -34t12 -13.5t24.5 -2.5zM125 565v4l67 121h160v-4l-108 -121h-119zM314 565v4l69 121h159v-4l-107 -121h-121z" />
    <glyph glyph-name="OE" unicode="&#x152;" horiz-adv-x="974" 
d="M347 0q-91 0 -148.5 10.5t-89.5 34.5t-46.5 63.5t-17.5 98t-3 137.5t3 137.5t17.5 98t46.5 63.5t89.5 34.5t148.5 10.5h579v-167h-219q-21 0 -41.5 2t-29.5 6q4 -14 7 -30t5.5 -33.5t3.5 -36.5h227v-163h-227q0 -20 -1.5 -39t-5 -36t-9.5 -32q6 2 24.5 5t46.5 3h219v-167
h-579zM347 167q21 0 34.5 2t21 10.5t10.5 27.5t4 52t1 85t-1 85t-4 52t-10.5 27.5t-21 10.5t-34.5 2t-34.5 -2t-20.5 -10.5t-10.5 -27.5t-4 -52t-0.5 -85t0.5 -85t4 -52t10.5 -27.5t20.5 -10.5t34.5 -2z" />
    <glyph glyph-name="oe" unicode="&#x153;" horiz-adv-x="860" 
d="M277 -8q-88 0 -138.5 12.5t-73.5 42t-29 80.5t-6 128t6 128t29 80.5t73.5 42t138.5 12.5q53 0 93 -9.5t68 -31.5q30 21 70.5 31t90.5 10q85 0 131.5 -13.5t66.5 -43.5t24 -81t4 -126v-39h-284q0 -27 3 -42t14 -21.5t34.5 -8t63.5 -1.5q17 0 41 1t52.5 2.5t55.5 3.5v-137
q-18 -6 -48.5 -10.5t-65.5 -7t-70 -2.5q-57 0 -102 10t-77 32q-19 -14 -43.5 -23.5t-54.5 -14t-67 -4.5zM285 142q16 0 24.5 2.5t12.5 13.5t5 34t1 63q0 41 -1 63.5t-5 33.5t-12.5 13.5t-24.5 2.5t-24.5 -2.5t-12 -13.5t-4.5 -33.5t-1 -63.5q0 -40 1 -63t4.5 -34t12 -13.5
t24.5 -2.5zM627 277v23q0 30 -1 47t-5.5 24.5t-13.5 9.5t-24 2q-14 0 -22.5 -2t-12.5 -9.5t-5.5 -24.5t-1.5 -47h109z" />
    <glyph glyph-name="Racute" unicode="&#x154;" horiz-adv-x="665" 
d="M51 0v688h362q69 0 111.5 -14t64.5 -42.5t29.5 -72t7.5 -101.5q0 -47 -5.5 -85.5t-22.5 -67.5t-51 -48l94 -257h-240l-82 272l58 -33q-10 -7 -20.5 -8.5t-27.5 -1.5h-44v-229h-234zM285 384h42q21 0 34 1.5t20 8t9 21t2 39.5q0 24 -1 38t-7 21t-19.5 9.5t-38.5 2.5h-41
v-141zM227 743v5l86 143h198v-5l-136 -143h-148z" />
    <glyph glyph-name="racute" unicode="&#x155;" horiz-adv-x="438" 
d="M44 0v510h207l4 -85h10q15 36 35 56t49 28.5t69 8.5v-186q-59 0 -94.5 -12t-50.5 -46.5t-15 -102.5v-171h-214zM97 565v5l86 143h198v-5l-136 -143h-148z" />
    <glyph glyph-name="uni0156" unicode="&#x156;" horiz-adv-x="665" 
d="M51 0v688h362q69 0 111.5 -14t64.5 -42.5t29.5 -72t7.5 -101.5q0 -47 -5.5 -85.5t-22.5 -67.5t-51 -48l94 -257h-240l-82 272l58 -33q-10 -7 -20.5 -8.5t-27.5 -1.5h-44v-229h-234zM285 384h42q21 0 34 1.5t20 8t9 21t2 39.5q0 24 -1 38t-7 21t-19.5 9.5t-38.5 2.5h-41
v-141zM230 -297v72q32 0 46.5 3.5t19 11.5t4.5 21v6h-70v118h205v-75q0 -46 -6.5 -76.5t-27 -48t-61.5 -25t-110 -7.5z" />
    <glyph glyph-name="uni0157" unicode="&#x157;" horiz-adv-x="438" 
d="M44 0v510h207l4 -85h10q15 36 35 56t49 28.5t69 8.5v-186q-59 0 -94.5 -12t-50.5 -46.5t-15 -102.5v-171h-214zM49 -297v72q32 0 46.5 3.5t19 11.5t4.5 21v6h-70v118h205v-75q0 -46 -6.5 -76.5t-27 -48t-61.5 -25t-110 -7.5z" />
    <glyph glyph-name="Rcaron" unicode="&#x158;" horiz-adv-x="665" 
d="M51 0v688h362q69 0 111.5 -14t64.5 -42.5t29.5 -72t7.5 -101.5q0 -47 -5.5 -85.5t-22.5 -67.5t-51 -48l94 -257h-240l-82 272l58 -33q-10 -7 -20.5 -8.5t-27.5 -1.5h-44v-229h-234zM285 384h42q21 0 34 1.5t20 8t9 21t2 39.5q0 24 -1 38t-7 21t-19.5 9.5t-38.5 2.5h-41
v-141zM238 743l-89 140v8h134l52 -72l48 72h134v-8l-90 -140h-189z" />
    <glyph glyph-name="rcaron" unicode="&#x159;" horiz-adv-x="438" 
d="M44 0v510h207l4 -85h10q15 36 35 56t49 28.5t69 8.5v-186q-59 0 -94.5 -12t-50.5 -46.5t-15 -102.5v-171h-214zM124 565l-89 140v8h134l52 -72l48 72h134v-8l-90 -140h-189z" />
    <glyph glyph-name="Sacute" unicode="&#x15a;" horiz-adv-x="609" 
d="M320 -8q-43 0 -92 2.5t-95 6.5t-80 9v159q37 -3 72.5 -5.5t67 -3.5t53.5 -1q40 0 60 1.5t27 6.5q5 4 7 9t2.5 12t0.5 16q0 15 -3 23t-12 12.5t-27 7.5t-48 7l-117 15q-31 4 -51 20.5t-31.5 44t-16 66t-4.5 85.5q0 68 21 109.5t58.5 63.5t86.5 30t106 8q42 0 86.5 -3
t84 -7.5t65.5 -10.5v-157q-25 3 -59.5 5.5t-70.5 4t-68 1.5q-24 0 -39 -1t-23 -6t-11.5 -12.5t-3.5 -18.5q0 -17 3 -26t15 -12.5t38 -7.5l105 -13q26 -3 49 -10t43 -21.5t35 -43.5q7 -12 11.5 -31t7.5 -44.5t3 -58.5q0 -63 -12.5 -105t-36 -67t-55.5 -38t-70.5 -17t-81.5 -4
zM199 743v5l86 143h198v-5l-136 -143h-148z" />
    <glyph glyph-name="sacute" unicode="&#x15b;" horiz-adv-x="502" 
d="M264 -8q-35 0 -75.5 2t-78.5 5t-68 7v136q19 -1 38.5 -2.5t38 -2.5t34.5 -1.5t28 -0.5q49 0 69.5 1t25 6.5t4.5 16.5q0 6 -2 9.5t-12 6t-35 5.5l-119 15q-37 5 -55.5 26.5t-24.5 57t-6 82.5q0 54 17.5 85.5t48 47t71.5 20t87 4.5q36 0 73.5 -2t70.5 -5t54 -7v-136
q-28 2 -55 3.5t-47.5 2.5t-31.5 1q-44 0 -63.5 -1t-24 -5t-4.5 -13q0 -7 2 -11t11 -6t30 -5l101 -13q32 -4 57 -16t39 -44t14 -98q0 -61 -16.5 -95.5t-46 -50.5t-67.5 -20.5t-82 -4.5zM129 565v5l86 143h198v-5l-136 -143h-148z" />
    <glyph glyph-name="Scircumflex" unicode="&#x15c;" horiz-adv-x="609" 
d="M320 -8q-43 0 -92 2.5t-95 6.5t-80 9v159q37 -3 72.5 -5.5t67 -3.5t53.5 -1q40 0 60 1.5t27 6.5q5 4 7 9t2.5 12t0.5 16q0 15 -3 23t-12 12.5t-27 7.5t-48 7l-117 15q-31 4 -51 20.5t-31.5 44t-16 66t-4.5 85.5q0 68 21 109.5t58.5 63.5t86.5 30t106 8q42 0 86.5 -3
t84 -7.5t65.5 -10.5v-157q-25 3 -59.5 5.5t-70.5 4t-68 1.5q-24 0 -39 -1t-23 -6t-11.5 -12.5t-3.5 -18.5q0 -17 3 -26t15 -12.5t38 -7.5l105 -13q26 -3 49 -10t43 -21.5t35 -43.5q7 -12 11.5 -31t7.5 -44.5t3 -58.5q0 -63 -12.5 -105t-36 -67t-55.5 -38t-70.5 -17t-81.5 -4
zM121 743v8l89 140h189l90 -140v-8h-134l-51 72l-49 -72h-134z" />
    <glyph glyph-name="scircumflex" unicode="&#x15d;" horiz-adv-x="502" 
d="M264 -8q-35 0 -75.5 2t-78.5 5t-68 7v136q19 -1 38.5 -2.5t38 -2.5t34.5 -1.5t28 -0.5q49 0 69.5 1t25 6.5t4.5 16.5q0 6 -2 9.5t-12 6t-35 5.5l-119 15q-37 5 -55.5 26.5t-24.5 57t-6 82.5q0 54 17.5 85.5t48 47t71.5 20t87 4.5q36 0 73.5 -2t70.5 -5t54 -7v-136
q-28 2 -55 3.5t-47.5 2.5t-31.5 1q-44 0 -63.5 -1t-24 -5t-4.5 -13q0 -7 2 -11t11 -6t30 -5l101 -13q32 -4 57 -16t39 -44t14 -98q0 -61 -16.5 -95.5t-46 -50.5t-67.5 -20.5t-82 -4.5zM67 565v8l89 140h189l90 -140v-8h-134l-51 72l-49 -72h-134z" />
    <glyph glyph-name="Scedilla" unicode="&#x15e;" horiz-adv-x="609" 
d="M320 -8q-43 0 -92 2.5t-95 6.5t-80 9v159q37 -3 72.5 -5.5t67 -3.5t53.5 -1q40 0 60 1.5t27 6.5q5 4 7 9t2.5 12t0.5 16q0 15 -3 23t-12 12.5t-27 7.5t-48 7l-117 15q-31 4 -51 20.5t-31.5 44t-16 66t-4.5 85.5q0 68 21 109.5t58.5 63.5t86.5 30t106 8q42 0 86.5 -3
t84 -7.5t65.5 -10.5v-157q-25 3 -59.5 5.5t-70.5 4t-68 1.5q-24 0 -39 -1t-23 -6t-11.5 -12.5t-3.5 -18.5q0 -17 3 -26t15 -12.5t38 -7.5l105 -13q26 -3 49 -10t43 -21.5t35 -43.5q7 -12 11.5 -31t7.5 -44.5t3 -58.5q0 -63 -12.5 -105t-36 -67t-55.5 -38t-70.5 -17t-81.5 -4
zM159 -190v5l87 203h134v-5l-34 -203h-187z" />
    <glyph glyph-name="scedilla" unicode="&#x15f;" horiz-adv-x="502" 
d="M264 -8q-35 0 -75.5 2t-78.5 5t-68 7v136q19 -1 38.5 -2.5t38 -2.5t34.5 -1.5t28 -0.5q49 0 69.5 1t25 6.5t4.5 16.5q0 6 -2 9.5t-12 6t-35 5.5l-119 15q-37 5 -55.5 26.5t-24.5 57t-6 82.5q0 54 17.5 85.5t48 47t71.5 20t87 4.5q36 0 73.5 -2t70.5 -5t54 -7v-136
q-28 2 -55 3.5t-47.5 2.5t-31.5 1q-44 0 -63.5 -1t-24 -5t-4.5 -13q0 -7 2 -11t11 -6t30 -5l101 -13q32 -4 57 -16t39 -44t14 -98q0 -61 -16.5 -95.5t-46 -50.5t-67.5 -20.5t-82 -4.5zM105 -190v5l87 203h134v-5l-34 -203h-187z" />
    <glyph glyph-name="Scaron" unicode="&#x160;" horiz-adv-x="609" 
d="M320 -8q-43 0 -92 2.5t-95 6.5t-80 9v159q37 -3 72.5 -5.5t67 -3.5t53.5 -1q40 0 60 1.5t27 6.5q5 4 7 9t2.5 12t0.5 16q0 15 -3 23t-12 12.5t-27 7.5t-48 7l-117 15q-31 4 -51 20.5t-31.5 44t-16 66t-4.5 85.5q0 68 21 109.5t58.5 63.5t86.5 30t106 8q42 0 86.5 -3
t84 -7.5t65.5 -10.5v-157q-25 3 -59.5 5.5t-70.5 4t-68 1.5q-24 0 -39 -1t-23 -6t-11.5 -12.5t-3.5 -18.5q0 -17 3 -26t15 -12.5t38 -7.5l105 -13q26 -3 49 -10t43 -21.5t35 -43.5q7 -12 11.5 -31t7.5 -44.5t3 -58.5q0 -63 -12.5 -105t-36 -67t-55.5 -38t-70.5 -17t-81.5 -4
zM210 743l-89 140v8h134l52 -72l48 72h134v-8l-90 -140h-189z" />
    <glyph glyph-name="scaron" unicode="&#x161;" horiz-adv-x="502" 
d="M264 -8q-35 0 -75.5 2t-78.5 5t-68 7v136q19 -1 38.5 -2.5t38 -2.5t34.5 -1.5t28 -0.5q49 0 69.5 1t25 6.5t4.5 16.5q0 6 -2 9.5t-12 6t-35 5.5l-119 15q-37 5 -55.5 26.5t-24.5 57t-6 82.5q0 54 17.5 85.5t48 47t71.5 20t87 4.5q36 0 73.5 -2t70.5 -5t54 -7v-136
q-28 2 -55 3.5t-47.5 2.5t-31.5 1q-44 0 -63.5 -1t-24 -5t-4.5 -13q0 -7 2 -11t11 -6t30 -5l101 -13q32 -4 57 -16t39 -44t14 -98q0 -61 -16.5 -95.5t-46 -50.5t-67.5 -20.5t-82 -4.5zM156 565l-89 140v8h134l52 -72l48 72h134v-8l-90 -140h-189z" />
    <glyph glyph-name="uni0162" unicode="&#x162;" horiz-adv-x="597" 
d="M181 0v512h-168v176h571v-176h-169v-512h-234zM153 -190v5l87 203h134v-5l-34 -203h-187z" />
    <glyph glyph-name="uni0163" unicode="&#x163;" horiz-adv-x="438" 
d="M101 0v360h-84v150h84v148h218v-148h102v-150h-102v-360h-218zM64 -190v5l87 203h134v-5l-34 -203h-187z" />
    <glyph glyph-name="Tcaron" unicode="&#x164;" horiz-adv-x="597" 
d="M181 0v512h-168v176h571v-176h-169v-512h-234zM204 743l-89 140v8h134l52 -72l48 72h134v-8l-90 -140h-189z" />
    <glyph glyph-name="tcaron" unicode="&#x165;" horiz-adv-x="438" 
d="M101 0v360h-84v150h84v148h218v-148h102v-150h-102v-360h-218zM353 546l9 221v46h154v-46l-51 -221h-112z" />
    <glyph glyph-name="Tbar" unicode="&#x166;" horiz-adv-x="597" 
d="M33 251v137h530v-137h-530zM181 0v512h-168v176h571v-176h-169v-512h-234z" />
    <glyph glyph-name="tbar" unicode="&#x167;" horiz-adv-x="438" 
d="M19 147v137h399v-137h-399zM101 0v360h-84v150h84v148h218v-148h102v-150h-102v-360h-218z" />
    <glyph glyph-name="Utilde" unicode="&#x168;" horiz-adv-x="675" 
d="M337 -8q-85 0 -139 10.5t-84 33.5t-43.5 60.5t-16.5 92t-3 127.5v372h234v-410q0 -41 1 -64.5t5.5 -34.5t15.5 -14t30 -3q20 0 30.5 3t15.5 14t6 34.5t1 64.5v410h234v-372q0 -73 -3 -127.5t-16.5 -92t-44 -60.5t-84.5 -33.5t-139 -10.5zM133 732q0 49 4.5 84t26 54
t73.5 19q30 0 61 -5.5t56 -10.5q21 -4 38 -7t28 -3q17 0 19.5 8.5t2.5 29.5h100q0 -48 -4.5 -83.5t-26 -54.5t-73.5 -19q-30 0 -60.5 6t-56.5 10q-21 4 -38 7t-28 3q-16 0 -19 -9t-3 -29h-100z" />
    <glyph glyph-name="utilde" unicode="&#x169;" horiz-adv-x="588" 
d="M189 -8q-49 0 -78 13t-43.5 38.5t-19 62.5t-4.5 85v319h214v-269q0 -31 1 -48t4 -24.5t10.5 -9t19.5 -1.5q14 0 21.5 1.5t10.5 9t4 24.5t1 48v269h214v-510h-207l-4 57h-10q-17 -27 -40.5 -41t-48 -19t-45.5 -5zM89 554q0 49 4.5 84t26 54t73.5 19q30 0 61 -5.5t56 -10.5
q21 -4 38 -7t28 -3q17 0 19.5 8.5t2.5 29.5h100q0 -48 -4.5 -83.5t-26 -54.5t-73.5 -19q-30 0 -60.5 6t-56.5 10q-21 4 -38 7t-28 3q-16 0 -19 -9t-3 -29h-100z" />
    <glyph glyph-name="Umacron" unicode="&#x16a;" horiz-adv-x="675" 
d="M337 -8q-85 0 -139 10.5t-84 33.5t-43.5 60.5t-16.5 92t-3 127.5v372h234v-410q0 -41 1 -64.5t5.5 -34.5t15.5 -14t30 -3q20 0 30.5 3t15.5 14t6 34.5t1 64.5v410h234v-372q0 -73 -3 -127.5t-16.5 -92t-44 -60.5t-84.5 -33.5t-139 -10.5zM159 754v112h358v-112h-358z" />
    <glyph glyph-name="umacron" unicode="&#x16b;" horiz-adv-x="588" 
d="M189 -8q-49 0 -78 13t-43.5 38.5t-19 62.5t-4.5 85v319h214v-269q0 -31 1 -48t4 -24.5t10.5 -9t19.5 -1.5q14 0 21.5 1.5t10.5 9t4 24.5t1 48v269h214v-510h-207l-4 57h-10q-17 -27 -40.5 -41t-48 -19t-45.5 -5zM115 576v112h358v-112h-358z" />
    <glyph glyph-name="Ubreve" unicode="&#x16c;" horiz-adv-x="675" 
d="M337 -8q-85 0 -139 10.5t-84 33.5t-43.5 60.5t-16.5 92t-3 127.5v372h234v-410q0 -41 1 -64.5t5.5 -34.5t15.5 -14t30 -3q20 0 30.5 3t15.5 14t6 34.5t1 64.5v410h234v-372q0 -73 -3 -127.5t-16.5 -92t-44 -60.5t-84.5 -33.5t-139 -10.5zM337 739q-51 0 -83 11t-49 31.5
t-23 48.5t-6 61h111q0 -13 2 -24t12.5 -17.5t35.5 -6.5q26 0 36.5 6.5t12.5 17.5t2 24h111q0 -33 -6.5 -61t-23.5 -48.5t-49 -31.5t-83 -11z" />
    <glyph glyph-name="ubreve" unicode="&#x16d;" horiz-adv-x="588" 
d="M189 -8q-49 0 -78 13t-43.5 38.5t-19 62.5t-4.5 85v319h214v-269q0 -31 1 -48t4 -24.5t10.5 -9t19.5 -1.5q14 0 21.5 1.5t10.5 9t4 24.5t1 48v269h214v-510h-207l-4 57h-10q-17 -27 -40.5 -41t-48 -19t-45.5 -5zM293 561q-51 0 -83 11t-49 31.5t-23 48.5t-6 61h111
q0 -13 2 -24t12.5 -17.5t35.5 -6.5q26 0 36.5 6.5t12.5 17.5t2 24h111q0 -33 -6.5 -61t-23.5 -48.5t-49 -31.5t-83 -11z" />
    <glyph glyph-name="Uring" unicode="&#x16e;" horiz-adv-x="675" 
d="M337 -8q-85 0 -139 10.5t-84 33.5t-43.5 60.5t-16.5 92t-3 127.5v372h234v-410q0 -41 1 -64.5t5.5 -34.5t15.5 -14t30 -3q20 0 30.5 3t15.5 14t6 34.5t1 64.5v410h234v-372q0 -73 -3 -127.5t-16.5 -92t-44 -60.5t-84.5 -33.5t-139 -10.5zM337 729q-52 0 -83 6t-46.5 20.5
t-20.5 38t-5 57.5q0 35 5 59t20.5 38t46.5 20.5t83 6.5t83 -6.5t47 -20.5t21 -38t5 -59q0 -34 -5 -57.5t-21 -38t-47 -20.5t-83 -6zM337 806q26 0 36.5 3.5t12.5 13.5t2 28q0 19 -2 29t-12.5 14t-36.5 4q-25 0 -35.5 -4t-12.5 -14t-2 -29q0 -18 2 -28t12.5 -13.5t35.5 -3.5z
" />
    <glyph glyph-name="uring" unicode="&#x16f;" horiz-adv-x="588" 
d="M189 -8q-49 0 -78 13t-43.5 38.5t-19 62.5t-4.5 85v319h214v-269q0 -31 1 -48t4 -24.5t10.5 -9t19.5 -1.5q14 0 21.5 1.5t10.5 9t4 24.5t1 48v269h214v-510h-207l-4 57h-10q-17 -27 -40.5 -41t-48 -19t-45.5 -5zM293 551q-52 0 -83 6t-46.5 20.5t-20.5 38t-5 57.5
q0 35 5 59t20.5 38t46.5 20.5t83 6.5t83 -6.5t47 -20.5t21 -38t5 -59q0 -34 -5 -57.5t-21 -38t-47 -20.5t-83 -6zM293 628q26 0 36.5 3.5t12.5 13.5t2 28q0 19 -2 29t-12.5 14t-36.5 4q-25 0 -35.5 -4t-12.5 -14t-2 -29q0 -18 2 -28t12.5 -13.5t35.5 -3.5z" />
    <glyph glyph-name="Uhungarumlaut" unicode="&#x170;" horiz-adv-x="675" 
d="M337 -8q-85 0 -139 10.5t-84 33.5t-43.5 60.5t-16.5 92t-3 127.5v372h234v-410q0 -41 1 -64.5t5.5 -34.5t15.5 -14t30 -3q20 0 30.5 3t15.5 14t6 34.5t1 64.5v410h234v-372q0 -73 -3 -127.5t-16.5 -92t-44 -60.5t-84.5 -33.5t-139 -10.5zM180 743v4l67 121h160v-4
l-108 -121h-119zM369 743v4l69 121h159v-4l-107 -121h-121z" />
    <glyph glyph-name="uhungarumlaut" unicode="&#x171;" horiz-adv-x="588" 
d="M189 -8q-49 0 -78 13t-43.5 38.5t-19 62.5t-4.5 85v319h214v-269q0 -31 1 -48t4 -24.5t10.5 -9t19.5 -1.5q14 0 21.5 1.5t10.5 9t4 24.5t1 48v269h214v-510h-207l-4 57h-10q-17 -27 -40.5 -41t-48 -19t-45.5 -5zM133 565v4l67 121h160v-4l-108 -121h-119zM322 565v4
l69 121h159v-4l-107 -121h-121z" />
    <glyph glyph-name="Uogonek" unicode="&#x172;" horiz-adv-x="675" 
d="M337 -8q-85 0 -139 10.5t-84 33.5t-43.5 60.5t-16.5 92t-3 127.5v372h234v-410q0 -41 1 -64.5t5.5 -34.5t15.5 -14t30 -3q20 0 30.5 3t15.5 14t6 34.5t1 64.5v410h234v-372q0 -73 -3 -127.5t-16.5 -92t-44 -60.5t-84.5 -33.5t-139 -10.5zM350 -200q-56 0 -88 12.5
t-44.5 33t-12.5 43.5q0 31 21 62.5t54 58.5l156 -10q-13 -6 -27.5 -18t-25 -25.5t-10.5 -26.5q0 -14 9 -23.5t38 -9.5h6t11 1v-94q-17 -1 -42 -2.5t-45 -1.5z" />
    <glyph glyph-name="uogonek" unicode="&#x173;" horiz-adv-x="588" 
d="M189 -8q-49 0 -78 13t-43.5 38.5t-19 62.5t-4.5 85v319h214v-269q0 -31 1 -48t4 -24.5t10.5 -9t19.5 -1.5q14 0 21.5 1.5t10.5 9t4 24.5t1 48v269h214v-510h-207l-4 57h-10q-17 -27 -40.5 -41t-48 -19t-45.5 -5zM458 -200q-56 0 -88 12.5t-44.5 33t-12.5 43.5
q0 31 21 62.5t54 58.5l156 -10q-13 -6 -27.5 -18t-25 -25.5t-10.5 -26.5q0 -14 9 -23.5t38 -9.5h6t11 1v-94q-17 -1 -42 -2.5t-45 -1.5z" />
    <glyph glyph-name="Wcircumflex" unicode="&#x174;" horiz-adv-x="985" 
d="M127 0l-127 688h232l58 -432h11l74 432h240l76 -432h11l50 432h233l-127 -688h-295l-65 347h-11l-65 -347h-295zM309 743v8l89 140h189l90 -140v-8h-134l-51 72l-49 -72h-134z" />
    <glyph glyph-name="wcircumflex" unicode="&#x175;" horiz-adv-x="862" 
d="M115 0l-105 510h207l40 -316h11l67 316h195l71 -316h11l36 316h204l-105 -510h-265l-45 206h-11l-45 -206h-266zM247 565v8l89 140h189l90 -140v-8h-134l-51 72l-49 -72h-134z" />
    <glyph glyph-name="Ycircumflex" unicode="&#x176;" horiz-adv-x="662" 
d="M214 0v222l-217 466h238l95 -256h7l95 256h233l-217 -466v-222h-234zM147 743v8l89 140h189l90 -140v-8h-134l-51 72l-49 -72h-134z" />
    <glyph glyph-name="ycircumflex" unicode="&#x177;" horiz-adv-x="588" 
d="M272 -206q-33 0 -68 2t-66 5.5t-52 7.5v135h44h44h44q42 0 65 1.5t33 8t12 22.5t2 45v52h-10q-17 -27 -40 -41t-46.5 -19t-44.5 -5q-49 0 -78 13t-43.5 38.5t-19 62.5t-4.5 85v303h214v-253q0 -31 1 -48t4 -24.5t10.5 -9t19.5 -1.5q14 0 21.5 1.5t10.5 9t4 24.5t1 48v253
h214v-455q0 -64 -6.5 -112.5t-31.5 -81.5t-80.5 -50t-153.5 -17zM110 565v8l89 140h189l90 -140v-8h-134l-51 72l-49 -72h-134z" />
    <glyph glyph-name="Ydieresis" unicode="&#x178;" horiz-adv-x="662" 
d="M214 0v222l-217 466h238l95 -256h7l95 256h233l-217 -466v-222h-234zM136 754v124h165v-124h-165zM360 754v124h165v-124h-165z" />
    <glyph glyph-name="Zacute" unicode="&#x179;" horiz-adv-x="620" 
d="M38 0v161l260 360h-249v167h533v-156l-264 -365h263v-167h-543zM204 743v5l86 143h198v-5l-136 -143h-148z" />
    <glyph glyph-name="zacute" unicode="&#x17a;" horiz-adv-x="537" 
d="M35 0v142l198 218h-186v150h453v-142l-198 -218h200v-150h-467zM152 565v5l86 143h198v-5l-136 -143h-148z" />
    <glyph glyph-name="Zdotaccent" unicode="&#x17b;" horiz-adv-x="620" 
d="M38 0v161l260 360h-249v167h533v-156l-264 -365h263v-167h-543zM227 754v124h165v-124h-165z" />
    <glyph glyph-name="zdotaccent" unicode="&#x17c;" horiz-adv-x="537" 
d="M35 0v142l198 218h-186v150h453v-142l-198 -218h200v-150h-467zM191 576v124h165v-124h-165z" />
    <glyph glyph-name="Zcaron" unicode="&#x17d;" horiz-adv-x="620" 
d="M38 0v161l260 360h-249v167h533v-156l-264 -365h263v-167h-543zM215 743l-89 140v8h134l52 -72l48 72h134v-8l-90 -140h-189z" />
    <glyph glyph-name="zcaron" unicode="&#x17e;" horiz-adv-x="537" 
d="M35 0v142l198 218h-186v150h453v-142l-198 -218h200v-150h-467zM179 565l-89 140v8h134l52 -72l48 72h134v-8l-90 -140h-189z" />
    <glyph glyph-name="longs" unicode="&#x17f;" horiz-adv-x="437" 
d="M102 0v360h-85v150h85v13q0 65 7.5 106t27 64t56.5 33.5t95.5 13t143.5 2.5v-137q-41 0 -64 -1.5t-33.5 -7t-13 -17t-2.5 -32.5v-547h-217z" />
    <glyph glyph-name="uni018F" unicode="&#x18f;" horiz-adv-x="695" 
d="M337 -8q-88 0 -143.5 11t-86.5 35t-45 65t-17 100.5t-3 140.5v85h365q-2 27 -6.5 45t-14 29t-26 16.5t-41.5 7.5t-61 2q-30 0 -68 -2t-67 -6v159q23 5 55 8.5t67.5 5.5t67.5 2q88 0 147.5 -11t96 -35.5t55 -65t25 -100t6.5 -140.5t-3.5 -140.5t-17.5 -100.5t-46.5 -65
t-90 -35t-148.5 -11zM337 159q20 0 33.5 1.5t22.5 6.5t14 16.5t7.5 31.5t3.5 51h-151q1 -31 2.5 -51t6 -31.5t12.5 -16.5t20 -6.5t29 -1.5z" />
    <glyph glyph-name="florin" unicode="&#x192;" horiz-adv-x="570" 
d="M-94 -198l29 137q41 0 64 1.5t34 7t16.5 17t9.5 32.5l77 363h-85l32 150h108l-27 -20l5 24q14 67 30.5 110t41.5 67t64 35t98 13.5t144 2.5l-29 -137q-41 0 -64.5 -2t-36 -11.5t-19.5 -30t-15 -57.5l-4 -20l-26 26h145l-32 -150h-113l-84 -392q-10 -49 -24 -80t-37 -48.5
t-61.5 -25.5t-97 -10t-143.5 -2z" />
    <glyph glyph-name="uni019D" unicode="&#x19d;" horiz-adv-x="705" 
d="M-21 -199v138q26 0 40.5 3t21.5 9.5t8.5 16t1.5 22.5v698h239l134 -266h7v266h223v-688h-215l-159 321h-6v-284q0 -65 -7 -108t-25 -68.5t-51 -38.5t-85 -17t-127 -4z" />
    <glyph glyph-name="Ohorn" unicode="&#x1a0;" horiz-adv-x="695" 
d="M460 616v72h26q47 0 58.5 14.5t11.5 51.5v22h135v-13q0 -43 -6.5 -71.5t-27 -45t-61.5 -23.5t-110 -7h-26zM347 -8q-91 0 -148.5 11t-89.5 35t-46.5 65t-17.5 100.5t-3 140.5t3 140.5t17.5 100.5t46.5 65t89.5 35t148.5 11t148.5 -11t90 -35t46.5 -65t17.5 -100.5
t3.5 -140.5t-3.5 -140.5t-17.5 -100.5t-46.5 -65t-90 -35t-148.5 -11zM347 159q21 0 34.5 2t21 11t10.5 28.5t4 54.5t1 89t-1 89t-4 54.5t-10.5 28.5t-21 11t-34.5 2t-34.5 -2t-20.5 -11t-10.5 -28.5t-4 -54.5t-0.5 -89t0.5 -89t4 -54.5t10.5 -28.5t20.5 -11t34.5 -2z" />
    <glyph glyph-name="ohorn" unicode="&#x1a1;" horiz-adv-x="571" 
d="M343 438v72h26q47 0 58.5 14.5t11.5 51.5v22h135v-13q0 -43 -6.5 -71.5t-27 -45t-61.5 -23.5t-110 -7h-26zM285 -8q-73 0 -120.5 7.5t-75 25.5t-40 48.5t-16 75t-3.5 106.5t3.5 106.5t16 75t40 48.5t75 25.5t120.5 7.5t120.5 -7.5t75 -25.5t40.5 -48.5t16.5 -75
t3.5 -106.5t-3.5 -106.5t-16.5 -75t-40.5 -48.5t-75 -25.5t-120.5 -7.5zM285 142q16 0 24.5 2.5t12.5 13.5t5 34t1 63q0 41 -1 63.5t-5 33.5t-12.5 13.5t-24.5 2.5t-24.5 -2.5t-12 -13.5t-4.5 -33.5t-1 -63.5q0 -40 1 -63t4.5 -34t12 -13.5t24.5 -2.5z" />
    <glyph glyph-name="Uhorn" unicode="&#x1af;" horiz-adv-x="675" 
d="M494 616v72h26q47 0 58.5 14.5t11.5 51.5v22h135v-13q0 -43 -6.5 -71.5t-27 -45t-61.5 -23.5t-110 -7h-26zM337 -8q-85 0 -139 10.5t-84 33.5t-43.5 60.5t-16.5 92t-3 127.5v372h234v-410q0 -41 1 -64.5t5.5 -34.5t15.5 -14t30 -3q20 0 30.5 3t15.5 14t6 34.5t1 64.5v410
h234v-372q0 -73 -3 -127.5t-16.5 -92t-44 -60.5t-84.5 -33.5t-139 -10.5z" />
    <glyph glyph-name="uhorn" unicode="&#x1b0;" horiz-adv-x="588" 
d="M402 438v72h26q47 0 58.5 14.5t11.5 51.5v22h135v-13q0 -43 -6.5 -71.5t-27 -45t-61.5 -23.5t-110 -7h-26zM189 -8q-49 0 -78 13t-43.5 38.5t-19 62.5t-4.5 85v319h214v-269q0 -31 1 -48t4 -24.5t10.5 -9t19.5 -1.5q14 0 21.5 1.5t10.5 9t4 24.5t1 48v269h214v-510h-207
l-4 57h-10q-17 -27 -40.5 -41t-48 -19t-45.5 -5z" />
    <glyph glyph-name="uni01C4" unicode="&#x1c4;" horiz-adv-x="1290" 
d="M51 0v688h255q96 0 156.5 -10t94.5 -33t49 -62.5t18.5 -98t3.5 -140.5t-3.5 -140.5t-18.5 -98t-49 -62.5t-94.5 -33t-156.5 -10h-255zM285 167h24q25 0 41 2.5t25 11t12.5 27.5t4.5 51.5t1 83.5q0 52 -1 85t-4.5 52t-12.5 28t-25 11t-41 2h-24v-354zM708 0v161l260 360
h-249v167h533v-156l-264 -365h263v-167h-543zM885 743l-89 140v8h134l52 -72l48 72h134v-8l-90 -140h-189z" />
    <glyph glyph-name="uni01C5" unicode="&#x1c5;" horiz-adv-x="1207" 
d="M51 0v688h255q96 0 156.5 -10t94.5 -33t49 -62.5t18.5 -98t3.5 -140.5t-3.5 -140.5t-18.5 -98t-49 -62.5t-94.5 -33t-156.5 -10h-255zM285 167h24q25 0 41 2.5t25 11t12.5 27.5t4.5 51.5t1 83.5q0 52 -1 85t-4.5 52t-12.5 28t-25 11t-41 2h-24v-354zM705 0v142l198 218
h-186v150h453v-142l-198 -218h200v-150h-467zM849 565l-89 140v8h134l52 -72l48 72h134v-8l-90 -140h-189z" />
    <glyph glyph-name="uni01C6" unicode="&#x1c6;" horiz-adv-x="1121" 
d="M184 -8q-40 0 -69 11.5t-48 40.5t-28 80t-9 129t9 129.5t28.5 81t49 41.5t70.5 12q25 0 48 -4t43.5 -16t37.5 -38h10v284h214v-743h-207l-4 57h-11q-15 -27 -36 -41t-46 -19t-52 -5zM285 157q20 0 28 4t10 21q2 15 2.5 32t0.5 41v39.5t-2 28.5q-2 21 -10.5 25.5
t-28.5 4.5q-16 0 -24.5 -2t-12 -11t-4.5 -29t-1 -56t1 -56t4.5 -29t12 -11t24.5 -2zM619 0v142l198 218h-186v150h453v-142l-198 -218h200v-150h-467zM763 565l-89 140v8h134l52 -72l48 72h134v-8l-90 -140h-189z" />
    <glyph glyph-name="uni01C7" unicode="&#x1c7;" horiz-adv-x="971" 
d="M51 0v688h234v-512h230v-176h-464zM551 0v158q49 0 76.5 2.5t40 13.5t15.5 34t3 63v417h234v-360q0 -94 -5 -155.5t-23 -96.5t-57.5 -51t-108 -20.5t-175.5 -4.5z" />
    <glyph glyph-name="uni01C8" unicode="&#x1c8;" horiz-adv-x="839" 
d="M51 0v688h234v-512h230v-176h-464zM577 592v151h218v-151h-218zM505 -199v138q35 0 50 5.5t18.5 17t3.5 28.5v520h218v-473q0 -81 -11 -128.5t-41.5 -70.5t-88 -30t-149.5 -7z" />
    <glyph glyph-name="uni01C9" unicode="&#x1c9;" horiz-adv-x="612" 
d="M44 0v743h218v-743h-218zM350 592v151h218v-151h-218zM278 -199v138q35 0 50 5.5t18.5 17t3.5 28.5v520h218v-473q0 -81 -11 -128.5t-41.5 -70.5t-88 -30t-149.5 -7z" />
    <glyph glyph-name="uni01CA" unicode="&#x1ca;" horiz-adv-x="1143" 
d="M51 0v688h239l134 -266h7v266h223v-688h-215l-159 321h-6v-321h-223zM723 0v158q49 0 76.5 2.5t40 13.5t15.5 34t3 63v417h234v-360q0 -94 -5 -155.5t-23 -96.5t-57.5 -51t-108 -20.5t-175.5 -4.5z" />
    <glyph glyph-name="uni01CB" unicode="&#x1cb;" horiz-adv-x="1011" 
d="M51 0v688h239l134 -266h7v266h223v-688h-215l-159 321h-6v-321h-223zM749 592v151h218v-151h-218zM677 -199v138q35 0 50 5.5t18.5 17t3.5 28.5v520h218v-473q0 -81 -11 -128.5t-41.5 -70.5t-88 -30t-149.5 -7z" />
    <glyph glyph-name="uni01CC" unicode="&#x1cc;" horiz-adv-x="894" 
d="M44 0v510h207l4 -57h10q18 27 41.5 41t48 19t44.5 5q49 0 78 -13t43.5 -38.5t19 -62.5t4.5 -85v-319h-214v269q0 31 -1 48t-4 24.5t-10.5 9t-19.5 1.5q-13 0 -21 -1.5t-11 -9t-4 -24.5t-1 -48v-269h-214zM632 592v151h218v-151h-218zM560 -199v138q35 0 50 5.5t18.5 17
t3.5 28.5v520h218v-473q0 -81 -11 -128.5t-41.5 -70.5t-88 -30t-149.5 -7z" />
    <glyph glyph-name="uni01CD" unicode="&#x1cd;" horiz-adv-x="697" 
d="M-5 0l191 688h325l191 -688h-232l-25 103h-199l-24 -103h-227zM284 263h122l-57 237h-9zM254 743l-89 140v8h134l52 -72l48 72h134v-8l-90 -140h-189z" />
    <glyph glyph-name="uni01CE" unicode="&#x1ce;" horiz-adv-x="567" 
d="M166 -8q-46 0 -76.5 16t-46 51t-15.5 90q0 57 13 90.5t49 48t103 14.5q8 0 21.5 -0.5t30.5 -1t33.5 -1t30.5 -1.5v17q0 20 -3.5 31t-13.5 15.5t-31.5 5.5t-57.5 1q-24 0 -49.5 -1t-50.5 -2t-48 -3v138q38 7 92.5 12.5t121.5 5.5q72 0 119 -9t74.5 -26.5t40.5 -43.5
t16.5 -60t3.5 -77v-302h-209l-4 56h-10q-21 -29 -42.5 -43t-44 -17.5t-47.5 -3.5zM267 129q12 0 19 2t12 6.5t7 10.5q3 7 3.5 17t0.5 23v27h-40q-20 0 -29.5 -3t-12 -13t-2.5 -31q0 -14 2 -23t11 -12.5t29 -3.5zM193 565l-89 140v8h134l52 -72l48 72h134v-8l-90 -140h-189z
" />
    <glyph glyph-name="uni01CF" unicode="&#x1cf;" horiz-adv-x="336" 
d="M51 0v688h234v-688h-234zM73 743l-89 140v8h134l52 -72l48 72h134v-8l-90 -140h-189z" />
    <glyph glyph-name="uni01D0" unicode="&#x1d0;" horiz-adv-x="306" 
d="M44 0v510h218v-510h-218zM58 565l-89 140v8h134l52 -72l48 72h134v-8l-90 -140h-189z" />
    <glyph glyph-name="uni01D1" unicode="&#x1d1;" horiz-adv-x="695" 
d="M347 -8q-91 0 -148.5 11t-89.5 35t-46.5 65t-17.5 100.5t-3 140.5t3 140.5t17.5 100.5t46.5 65t89.5 35t148.5 11t148.5 -11t90 -35t46.5 -65t17.5 -100.5t3.5 -140.5t-3.5 -140.5t-17.5 -100.5t-46.5 -65t-90 -35t-148.5 -11zM347 159q21 0 34.5 2t21 11t10.5 28.5
t4 54.5t1 89t-1 89t-4 54.5t-10.5 28.5t-21 11t-34.5 2t-34.5 -2t-20.5 -11t-10.5 -28.5t-4 -54.5t-0.5 -89t0.5 -89t4 -54.5t10.5 -28.5t20.5 -11t34.5 -2zM253 743l-89 140v8h134l52 -72l48 72h134v-8l-90 -140h-189z" />
    <glyph glyph-name="uni01D2" unicode="&#x1d2;" horiz-adv-x="571" 
d="M285 -8q-73 0 -120.5 7.5t-75 25.5t-40 48.5t-16 75t-3.5 106.5t3.5 106.5t16 75t40 48.5t75 25.5t120.5 7.5t120.5 -7.5t75 -25.5t40.5 -48.5t16.5 -75t3.5 -106.5t-3.5 -106.5t-16.5 -75t-40.5 -48.5t-75 -25.5t-120.5 -7.5zM285 142q16 0 24.5 2.5t12.5 13.5t5 34
t1 63q0 41 -1 63.5t-5 33.5t-12.5 13.5t-24.5 2.5t-24.5 -2.5t-12 -13.5t-4.5 -33.5t-1 -63.5q0 -40 1 -63t4.5 -34t12 -13.5t24.5 -2.5zM191 565l-89 140v8h134l52 -72l48 72h134v-8l-90 -140h-189z" />
    <glyph glyph-name="uni01D3" unicode="&#x1d3;" horiz-adv-x="675" 
d="M337 -8q-85 0 -139 10.5t-84 33.5t-43.5 60.5t-16.5 92t-3 127.5v372h234v-410q0 -41 1 -64.5t5.5 -34.5t15.5 -14t30 -3q20 0 30.5 3t15.5 14t6 34.5t1 64.5v410h234v-372q0 -73 -3 -127.5t-16.5 -92t-44 -60.5t-84.5 -33.5t-139 -10.5zM243 743l-89 140v8h134l52 -72
l48 72h134v-8l-90 -140h-189z" />
    <glyph glyph-name="uni01D4" unicode="&#x1d4;" horiz-adv-x="588" 
d="M189 -8q-49 0 -78 13t-43.5 38.5t-19 62.5t-4.5 85v319h214v-269q0 -31 1 -48t4 -24.5t10.5 -9t19.5 -1.5q14 0 21.5 1.5t10.5 9t4 24.5t1 48v269h214v-510h-207l-4 57h-10q-17 -27 -40.5 -41t-48 -19t-45.5 -5zM199 565l-89 140v8h134l52 -72l48 72h134v-8l-90 -140
h-189z" />
    <glyph glyph-name="uni01D5" unicode="&#x1d5;" horiz-adv-x="675" 
d="M337 -8q-85 0 -139 10.5t-84 33.5t-43.5 60.5t-16.5 92t-3 127.5v372h234v-410q0 -41 1 -64.5t5.5 -34.5t15.5 -14t30 -3q20 0 30.5 3t15.5 14t6 34.5t1 64.5v410h234v-372q0 -73 -3 -127.5t-16.5 -92t-44 -60.5t-84.5 -33.5t-139 -10.5zM143 754v124h165v-124h-165z
M367 754v124h165v-124h-165zM159 934v112h358v-112h-358z" />
    <glyph glyph-name="uni01D6" unicode="&#x1d6;" horiz-adv-x="588" 
d="M189 -8q-49 0 -78 13t-43.5 38.5t-19 62.5t-4.5 85v319h214v-269q0 -31 1 -48t4 -24.5t10.5 -9t19.5 -1.5q14 0 21.5 1.5t10.5 9t4 24.5t1 48v269h214v-510h-207l-4 57h-10q-17 -27 -40.5 -41t-48 -19t-45.5 -5zM100 576v124h165v-124h-165zM324 576v124h165v-124h-165z
M116 746v112h358v-112h-358z" />
    <glyph glyph-name="uni01D7" unicode="&#x1d7;" horiz-adv-x="675" 
d="M337 -8q-85 0 -139 10.5t-84 33.5t-43.5 60.5t-16.5 92t-3 127.5v372h234v-410q0 -41 1 -64.5t5.5 -34.5t15.5 -14t30 -3q20 0 30.5 3t15.5 14t6 34.5t1 64.5v410h234v-372q0 -73 -3 -127.5t-16.5 -92t-44 -60.5t-84.5 -33.5t-139 -10.5zM143 754v124h165v-124h-165z
M367 754v124h165v-124h-165zM232 923v5l86 143h198v-5l-136 -143h-148z" />
    <glyph glyph-name="uni01D8" unicode="&#x1d8;" horiz-adv-x="588" 
d="M189 -8q-49 0 -78 13t-43.5 38.5t-19 62.5t-4.5 85v319h214v-269q0 -31 1 -48t4 -24.5t10.5 -9t19.5 -1.5q14 0 21.5 1.5t10.5 9t4 24.5t1 48v269h214v-510h-207l-4 57h-10q-17 -27 -40.5 -41t-48 -19t-45.5 -5zM100 576v124h165v-124h-165zM324 576v124h165v-124h-165z
M173 735v5l86 143h198v-5l-136 -143h-148z" />
    <glyph glyph-name="uni01D9" unicode="&#x1d9;" horiz-adv-x="675" 
d="M337 -8q-85 0 -139 10.5t-84 33.5t-43.5 60.5t-16.5 92t-3 127.5v372h234v-410q0 -41 1 -64.5t5.5 -34.5t15.5 -14t30 -3q20 0 30.5 3t15.5 14t6 34.5t1 64.5v410h234v-372q0 -73 -3 -127.5t-16.5 -92t-44 -60.5t-84.5 -33.5t-139 -10.5zM143 754v124h165v-124h-165z
M367 754v124h165v-124h-165zM243 923l-89 140v8h134l52 -72l48 72h134v-8l-90 -140h-189z" />
    <glyph glyph-name="uni01DA" unicode="&#x1da;" horiz-adv-x="588" 
d="M189 -8q-49 0 -78 13t-43.5 38.5t-19 62.5t-4.5 85v319h214v-269q0 -31 1 -48t4 -24.5t10.5 -9t19.5 -1.5q14 0 21.5 1.5t10.5 9t4 24.5t1 48v269h214v-510h-207l-4 57h-10q-17 -27 -40.5 -41t-48 -19t-45.5 -5zM100 576v124h165v-124h-165zM324 576v124h165v-124h-165z
M200 735l-89 140v8h134l52 -72l48 72h134v-8l-90 -140h-189z" />
    <glyph glyph-name="uni01DB" unicode="&#x1db;" horiz-adv-x="675" 
d="M337 -8q-85 0 -139 10.5t-84 33.5t-43.5 60.5t-16.5 92t-3 127.5v372h234v-410q0 -41 1 -64.5t5.5 -34.5t15.5 -14t30 -3q20 0 30.5 3t15.5 14t6 34.5t1 64.5v410h234v-372q0 -73 -3 -127.5t-16.5 -92t-44 -60.5t-84.5 -33.5t-139 -10.5zM143 754v124h165v-124h-165z
M367 754v124h165v-124h-165zM259 923l-136 143v5h198l86 -143v-5h-148z" />
    <glyph glyph-name="uni01DC" unicode="&#x1dc;" horiz-adv-x="588" 
d="M189 -8q-49 0 -78 13t-43.5 38.5t-19 62.5t-4.5 85v319h214v-269q0 -31 1 -48t4 -24.5t10.5 -9t19.5 -1.5q14 0 21.5 1.5t10.5 9t4 24.5t1 48v269h214v-510h-207l-4 57h-10q-17 -27 -40.5 -41t-48 -19t-45.5 -5zM100 576v124h165v-124h-165zM324 576v124h165v-124h-165z
M232 735l-136 143v5h198l86 -143v-5h-148z" />
    <glyph glyph-name="Gcaron" unicode="&#x1e6;" horiz-adv-x="662" 
d="M357 -8q-78 0 -132.5 10.5t-90.5 34t-56 64t-28 100.5t-8 143t8 143t28 100.5t56 64t90.5 34t132.5 10.5q37 0 81.5 -3t89.5 -8.5t83 -12.5v-156q-31 4 -65.5 6.5t-65 4.5t-48.5 2q-47 0 -77 -2t-47 -11t-25 -28.5t-10 -54.5t-2 -89q0 -48 1.5 -81.5t7 -54.5t16 -32.5
t28 -16t43.5 -4.5q4 0 11 0.5t16 0.5h16v107h-66v151h270v-401q-37 -6 -82.5 -10.5t-91 -7.5t-83.5 -3zM261 743l-89 140v8h134l52 -72l48 72h134v-8l-90 -140h-189z" />
    <glyph glyph-name="gcaron" unicode="&#x1e7;" horiz-adv-x="584" 
d="M265 -206q-33 0 -69 2t-67.5 5.5t-53.5 7.5v135h43.5h43.5h44q45 0 69.5 1.5t35 8.5t13 22.5t2.5 43.5v47h-10q-17 -25 -37.5 -37.5t-43.5 -16.5t-48 -4q-41 0 -70.5 12t-49 40.5t-28.5 78t-9 125.5t9 125.5t28 77t48 39t69 11.5q27 0 52 -5t46 -19t36 -41h11l4 57h207
v-455q0 -64 -6.5 -112.5t-32.5 -81.5t-81.5 -50t-154.5 -17zM285 173q20 0 28 4t10 21q2 12 2.5 27.5t0.5 37.5v36.5t-2 25.5q-2 20 -10.5 24t-28.5 4q-16 0 -24.5 -2t-12 -10t-4.5 -26.5t-1 -51.5t1 -51.5t4.5 -26.5t12 -10t24.5 -2zM197 565l-89 140v8h134l52 -72l48 72
h134v-8l-90 -140h-189z" />
    <glyph glyph-name="uni01EA" unicode="&#x1ea;" horiz-adv-x="695" 
d="M347 -8q-91 0 -148.5 11t-89.5 35t-46.5 65t-17.5 100.5t-3 140.5t3 140.5t17.5 100.5t46.5 65t89.5 35t148.5 11t148.5 -11t90 -35t46.5 -65t17.5 -100.5t3.5 -140.5t-3.5 -140.5t-17.5 -100.5t-46.5 -65t-90 -35t-148.5 -11zM347 159q21 0 34.5 2t21 11t10.5 28.5
t4 54.5t1 89t-1 89t-4 54.5t-10.5 28.5t-21 11t-34.5 2t-34.5 -2t-20.5 -11t-10.5 -28.5t-4 -54.5t-0.5 -89t0.5 -89t4 -54.5t10.5 -28.5t20.5 -11t34.5 -2zM354 -200q-56 0 -88 12.5t-44.5 33t-12.5 43.5q0 31 21 62.5t54 58.5l156 -10q-13 -6 -27.5 -18t-25 -25.5
t-10.5 -26.5q0 -14 9 -23.5t38 -9.5h6t11 1v-94q-17 -1 -42 -2.5t-45 -1.5z" />
    <glyph glyph-name="uni01EB" unicode="&#x1eb;" horiz-adv-x="571" 
d="M285 -8q-73 0 -120.5 7.5t-75 25.5t-40 48.5t-16 75t-3.5 106.5t3.5 106.5t16 75t40 48.5t75 25.5t120.5 7.5t120.5 -7.5t75 -25.5t40.5 -48.5t16.5 -75t3.5 -106.5t-3.5 -106.5t-16.5 -75t-40.5 -48.5t-75 -25.5t-120.5 -7.5zM285 142q16 0 24.5 2.5t12.5 13.5t5 34
t1 63q0 41 -1 63.5t-5 33.5t-12.5 13.5t-24.5 2.5t-24.5 -2.5t-12 -13.5t-4.5 -33.5t-1 -63.5q0 -40 1 -63t4.5 -34t12 -13.5t24.5 -2.5zM299 -200q-56 0 -88 12.5t-44.5 33t-12.5 43.5q0 31 21 62.5t54 58.5l156 -10q-13 -6 -27.5 -18t-25 -25.5t-10.5 -26.5q0 -14 9 -23.5
t38 -9.5h6t11 1v-94q-17 -1 -42 -2.5t-45 -1.5z" />
    <glyph glyph-name="uni01F1" unicode="&#x1f1;" horiz-adv-x="1290" 
d="M51 0v688h255q96 0 156.5 -10t94.5 -33t49 -62.5t18.5 -98t3.5 -140.5t-3.5 -140.5t-18.5 -98t-49 -62.5t-94.5 -33t-156.5 -10h-255zM285 167h24q25 0 41 2.5t25 11t12.5 27.5t4.5 51.5t1 83.5q0 52 -1 85t-4.5 52t-12.5 28t-25 11t-41 2h-24v-354zM708 0v161l260 360
h-249v167h533v-156l-264 -365h263v-167h-543z" />
    <glyph glyph-name="uni01F2" unicode="&#x1f2;" horiz-adv-x="1207" 
d="M51 0v688h255q96 0 156.5 -10t94.5 -33t49 -62.5t18.5 -98t3.5 -140.5t-3.5 -140.5t-18.5 -98t-49 -62.5t-94.5 -33t-156.5 -10h-255zM285 167h24q25 0 41 2.5t25 11t12.5 27.5t4.5 51.5t1 83.5q0 52 -1 85t-4.5 52t-12.5 28t-25 11t-41 2h-24v-354zM705 0v142l198 218
h-186v150h453v-142l-198 -218h200v-150h-467z" />
    <glyph glyph-name="uni01F3" unicode="&#x1f3;" horiz-adv-x="1121" 
d="M184 -8q-40 0 -69 11.5t-48 40.5t-28 80t-9 129t9 129.5t28.5 81t49 41.5t70.5 12q25 0 48 -4t43.5 -16t37.5 -38h10v284h214v-743h-207l-4 57h-11q-15 -27 -36 -41t-46 -19t-52 -5zM285 157q20 0 28 4t10 21q2 15 2.5 32t0.5 41v39.5t-2 28.5q-2 21 -10.5 25.5
t-28.5 4.5q-16 0 -24.5 -2t-12 -11t-4.5 -29t-1 -56t1 -56t4.5 -29t12 -11t24.5 -2zM619 0v142l198 218h-186v150h453v-142l-198 -218h200v-150h-467z" />
    <glyph glyph-name="uni01F4" unicode="&#x1f4;" horiz-adv-x="662" 
d="M357 -8q-78 0 -132.5 10.5t-90.5 34t-56 64t-28 100.5t-8 143t8 143t28 100.5t56 64t90.5 34t132.5 10.5q37 0 81.5 -3t89.5 -8.5t83 -12.5v-156q-31 4 -65.5 6.5t-65 4.5t-48.5 2q-47 0 -77 -2t-47 -11t-25 -28.5t-10 -54.5t-2 -89q0 -48 1.5 -81.5t7 -54.5t16 -32.5
t28 -16t43.5 -4.5q4 0 11 0.5t16 0.5h16v107h-66v151h270v-401q-37 -6 -82.5 -10.5t-91 -7.5t-83.5 -3zM250 743v5l86 143h198v-5l-136 -143h-148z" />
    <glyph glyph-name="uni01F5" unicode="&#x1f5;" horiz-adv-x="584" 
d="M265 -206q-33 0 -69 2t-67.5 5.5t-53.5 7.5v135h43.5h43.5h44q45 0 69.5 1.5t35 8.5t13 22.5t2.5 43.5v47h-10q-17 -25 -37.5 -37.5t-43.5 -16.5t-48 -4q-41 0 -70.5 12t-49 40.5t-28.5 78t-9 125.5t9 125.5t28 77t48 39t69 11.5q27 0 52 -5t46 -19t36 -41h11l4 57h207
v-455q0 -64 -6.5 -112.5t-32.5 -81.5t-81.5 -50t-154.5 -17zM285 173q20 0 28 4t10 21q2 12 2.5 27.5t0.5 37.5v36.5t-2 25.5q-2 20 -10.5 24t-28.5 4q-16 0 -24.5 -2t-12 -10t-4.5 -26.5t-1 -51.5t1 -51.5t4.5 -26.5t12 -10t24.5 -2zM170 565v5l86 143h198v-5l-136 -143
h-148z" />
    <glyph glyph-name="Aringacute" unicode="&#x1fa;" horiz-adv-x="683" 
d="M-5 0l191 688h325l191 -688h-232l-25 103h-199l-24 -103h-227zM284 263h122l-57 237h-9zM384 620q-52 0 -83 6t-46.5 20.5t-20.5 38t-5 57.5q0 35 5 59t20.5 38t46.5 20.5t83 6.5t83 -6.5t47 -20.5t21 -38t5 -59q0 -34 -5 -57.5t-21 -38t-47 -20.5t-83 -6zM384 697
q26 0 36.5 3.5t12.5 13.5t2 28q0 19 -2 29t-12.5 14t-36.5 4q-25 0 -35.5 -4t-12.5 -14t-2 -29q0 -18 2 -28t12.5 -13.5t35.5 -3.5zM307 864v5l86 143h198v-5l-136 -143h-148z" />
    <glyph glyph-name="aringacute" unicode="&#x1fb;" horiz-adv-x="567" 
d="M166 -8q-46 0 -76.5 16t-46 51t-15.5 90q0 57 13 90.5t49 48t103 14.5q8 0 21.5 -0.5t30.5 -1t33.5 -1t30.5 -1.5v17q0 20 -3.5 31t-13.5 15.5t-31.5 5.5t-57.5 1q-24 0 -49.5 -1t-50.5 -2t-48 -3v138q38 7 92.5 12.5t121.5 5.5q72 0 119 -9t74.5 -26.5t40.5 -43.5
t16.5 -60t3.5 -77v-302h-209l-4 56h-10q-21 -29 -42.5 -43t-44 -17.5t-47.5 -3.5zM267 129q12 0 19 2t12 6.5t7 10.5q3 7 3.5 17t0.5 23v27h-40q-20 0 -29.5 -3t-12 -13t-2.5 -31q0 -14 2 -23t11 -12.5t29 -3.5zM287 551q-52 0 -83 6t-46.5 20.5t-20.5 38t-5 57.5q0 35 5 59
t20.5 38t46.5 20.5t83 6.5t83 -6.5t47 -20.5t21 -38t5 -59q0 -34 -5 -57.5t-21 -38t-47 -20.5t-83 -6zM287 628q26 0 36.5 3.5t12.5 13.5t2 28q0 19 -2 29t-12.5 14t-36.5 4q-25 0 -35.5 -4t-12.5 -14t-2 -29q0 -18 2 -28t12.5 -13.5t35.5 -3.5zM166 835v5l86 143h198v-5
l-136 -143h-148z" />
    <glyph glyph-name="AEacute" unicode="&#x1fc;" horiz-adv-x="980" 
d="M-25 0l309 688h648v-167h-323l9 -92h267v-163h-249l10 -99h286v-167h-477l-10 106h-203l-40 -106h-227zM303 266h128l-22 255h-9zM384 743v5l86 143h198v-5l-136 -143h-148z" />
    <glyph glyph-name="aeacute" unicode="&#x1fd;" horiz-adv-x="842" 
d="M216 -8q-60 0 -97 9t-57 28t-27 48.5t-7 71.5q0 57 13 90.5t49 48t103 14.5q11 0 31 -0.5t43.5 -1.5t41.5 -2v17q0 20 -3.5 31t-13.5 15.5t-31.5 5.5t-57.5 1q-20 0 -43.5 -0.5t-49.5 -2t-55 -3.5v138q35 7 84 12.5t110 5.5q55 0 97.5 -9.5t72.5 -29.5q30 20 71.5 29.5
t94.5 9.5q67 0 109 -8.5t65.5 -27t33.5 -49t12 -75t2 -104.5v-39h-284q0 -27 3 -42t14 -21.5t34.5 -8t63.5 -1.5q17 0 41 1t52.5 2.5t55.5 3.5v-137q-20 -6 -52.5 -10.5t-71 -7t-76.5 -2.5q-48 0 -84.5 4t-63 12.5t-44.5 20.5q-27 -17 -56 -25t-59 -10t-64 -2zM267 129
q15 0 23.5 3.5t12.5 9.5t5 15q1 8 1 15.5v15.5v27h-40q-20 0 -29.5 -3t-12 -13t-2.5 -31q0 -14 2 -23t11 -12.5t29 -3.5zM609 260q0 46 -0.5 71t-4 36t-13 13.5t-26.5 2.5q-14 0 -22.5 -2t-12.5 -9.5t-5.5 -24.5t-1.5 -47h119zM299 565v5l86 143h198v-5l-136 -143h-148z" />
    <glyph glyph-name="Oslashacute" unicode="&#x1fe;" horiz-adv-x="695" 
d="M42 -55l437 798h174l-438 -798h-173zM347 -8q-91 0 -148.5 11t-89.5 35t-46.5 65t-17.5 100.5t-3 140.5t3 140.5t17.5 100.5t46.5 65t89.5 35t148.5 11t148.5 -11t90 -35t46.5 -65t17.5 -100.5t3.5 -140.5t-3.5 -140.5t-17.5 -100.5t-46.5 -65t-90 -35t-148.5 -11z
M347 159q21 0 34.5 2t21 11t10.5 28.5t4 54.5t1 89t-1 89t-4 54.5t-10.5 28.5t-21 11t-34.5 2t-34.5 -2t-20.5 -11t-10.5 -28.5t-4 -54.5t-0.5 -89t0.5 -89t4 -54.5t10.5 -28.5t20.5 -11t34.5 -2zM242 743v5l86 143h198v-5l-136 -143h-148z" />
    <glyph glyph-name="oslashacute" unicode="&#x1ff;" horiz-adv-x="571" 
d="M31 -55l336 620h174l-337 -620h-173zM285 -8q-73 0 -120.5 7.5t-75 25.5t-40 48.5t-16 75t-3.5 106.5t3.5 106.5t16 75t40 48.5t75 25.5t120.5 7.5t120.5 -7.5t75 -25.5t40.5 -48.5t16.5 -75t3.5 -106.5t-3.5 -106.5t-16.5 -75t-40.5 -48.5t-75 -25.5t-120.5 -7.5z
M285 142q16 0 24.5 2.5t12.5 13.5t5 34t1 63q0 41 -1 63.5t-5 33.5t-12.5 13.5t-24.5 2.5t-24.5 -2.5t-12 -13.5t-4.5 -33.5t-1 -63.5q0 -40 1 -63t4.5 -34t12 -13.5t24.5 -2.5zM164 565v5l86 143h198v-5l-136 -143h-148z" />
    <glyph glyph-name="uni0200" unicode="&#x200;" horiz-adv-x="697" 
d="M-5 0l191 688h325l191 -688h-232l-25 103h-199l-24 -103h-227zM284 263h122l-57 237h-9zM514 743h-119l-108 121v4h160l67 -121v-4zM325 743h-121l-107 121v4h159l69 -121v-4z" />
    <glyph glyph-name="uni0201" unicode="&#x201;" horiz-adv-x="567" 
d="M166 -8q-46 0 -76.5 16t-46 51t-15.5 90q0 57 13 90.5t49 48t103 14.5q8 0 21.5 -0.5t30.5 -1t33.5 -1t30.5 -1.5v17q0 20 -3.5 31t-13.5 15.5t-31.5 5.5t-57.5 1q-24 0 -49.5 -1t-50.5 -2t-48 -3v138q38 7 92.5 12.5t121.5 5.5q72 0 119 -9t74.5 -26.5t40.5 -43.5
t16.5 -60t3.5 -77v-302h-209l-4 56h-10q-21 -29 -42.5 -43t-44 -17.5t-47.5 -3.5zM267 129q12 0 19 2t12 6.5t7 10.5q3 7 3.5 17t0.5 23v27h-40q-20 0 -29.5 -3t-12 -13t-2.5 -31q0 -14 2 -23t11 -12.5t29 -3.5zM457 565h-119l-108 121v4h160l67 -121v-4zM268 565h-121
l-107 121v4h159l69 -121v-4z" />
    <glyph glyph-name="uni0202" unicode="&#x202;" horiz-adv-x="697" 
d="M-5 0l191 688h325l191 -688h-232l-25 103h-199l-24 -103h-227zM284 263h122l-57 237h-9zM349 895q51 0 83 -11t49 -31.5t23 -48.5t6 -61h-111q0 13 -2 24t-12.5 17.5t-35.5 6.5t-36 -6.5t-13 -17.5t-2 -24h-111q0 33 6.5 61t23.5 48.5t49 31.5t83 11z" />
    <glyph glyph-name="uni0203" unicode="&#x203;" horiz-adv-x="567" 
d="M166 -8q-46 0 -76.5 16t-46 51t-15.5 90q0 57 13 90.5t49 48t103 14.5q8 0 21.5 -0.5t30.5 -1t33.5 -1t30.5 -1.5v17q0 20 -3.5 31t-13.5 15.5t-31.5 5.5t-57.5 1q-24 0 -49.5 -1t-50.5 -2t-48 -3v138q38 7 92.5 12.5t121.5 5.5q72 0 119 -9t74.5 -26.5t40.5 -43.5
t16.5 -60t3.5 -77v-302h-209l-4 56h-10q-21 -29 -42.5 -43t-44 -17.5t-47.5 -3.5zM267 129q12 0 19 2t12 6.5t7 10.5q3 7 3.5 17t0.5 23v27h-40q-20 0 -29.5 -3t-12 -13t-2.5 -31q0 -14 2 -23t11 -12.5t29 -3.5zM288 717q51 0 83 -11t49 -31.5t23 -48.5t6 -61h-111
q0 13 -2 24t-12.5 17.5t-35.5 6.5t-36 -6.5t-13 -17.5t-2 -24h-111q0 33 6.5 61t23.5 48.5t49 31.5t83 11z" />
    <glyph glyph-name="uni0204" unicode="&#x204;" horiz-adv-x="603" 
d="M51 0v688h504v-167h-271v-92h224v-163h-224v-99h271v-167h-504zM473 743h-119l-108 121v4h160l67 -121v-4zM284 743h-121l-107 121v4h159l69 -121v-4z" />
    <glyph glyph-name="uni0205" unicode="&#x205;" horiz-adv-x="558" 
d="M303 -8q-79 0 -130 9.5t-80 29t-42.5 50.5t-17 74t-3.5 99q0 71 6 121t29.5 81.5t74.5 46.5t141 15q73 0 118.5 -8.5t71 -27t36.5 -49t13.5 -75t2.5 -104.5v-39h-284q0 -27 3 -42t14 -21.5t34.5 -8t63.5 -1.5q17 0 41 1t52.5 2.5t55.5 3.5v-137q-20 -6 -52.5 -10.5
t-71 -7t-76.5 -2.5zM325 284v16q0 30 -1 47t-5.5 24.5t-13.5 9.5t-24 2q-14 0 -22.5 -2t-12.5 -9.5t-5.5 -24.5t-1.5 -47h102zM452 565h-119l-108 121v4h160l67 -121v-4zM263 565h-121l-107 121v4h159l69 -121v-4z" />
    <glyph glyph-name="uni0206" unicode="&#x206;" horiz-adv-x="603" 
d="M51 0v688h504v-167h-271v-92h224v-163h-224v-99h271v-167h-504zM308 895q51 0 83 -11t49 -31.5t23 -48.5t6 -61h-111q0 13 -2 24t-12.5 17.5t-35.5 6.5t-36 -6.5t-13 -17.5t-2 -24h-111q0 33 6.5 61t23.5 48.5t49 31.5t83 11z" />
    <glyph glyph-name="uni0207" unicode="&#x207;" horiz-adv-x="558" 
d="M303 -8q-79 0 -130 9.5t-80 29t-42.5 50.5t-17 74t-3.5 99q0 71 6 121t29.5 81.5t74.5 46.5t141 15q73 0 118.5 -8.5t71 -27t36.5 -49t13.5 -75t2.5 -104.5v-39h-284q0 -27 3 -42t14 -21.5t34.5 -8t63.5 -1.5q17 0 41 1t52.5 2.5t55.5 3.5v-137q-20 -6 -52.5 -10.5
t-71 -7t-76.5 -2.5zM325 284v16q0 30 -1 47t-5.5 24.5t-13.5 9.5t-24 2q-14 0 -22.5 -2t-12.5 -9.5t-5.5 -24.5t-1.5 -47h102zM283 717q51 0 83 -11t49 -31.5t23 -48.5t6 -61h-111q0 13 -2 24t-12.5 17.5t-35.5 6.5t-36 -6.5t-13 -17.5t-2 -24h-111q0 33 6.5 61t23.5 48.5
t49 31.5t83 11z" />
    <glyph glyph-name="uni0208" unicode="&#x208;" horiz-adv-x="336" 
d="M51 0v688h234v-688h-234zM333 743h-119l-108 121v4h160l67 -121v-4zM144 743h-121l-107 121v4h159l69 -121v-4z" />
    <glyph glyph-name="uni0209" unicode="&#x209;" horiz-adv-x="306" 
d="M44 0v510h218v-510h-218zM322 565h-119l-108 121v4h160l67 -121v-4zM133 565h-121l-107 121v4h159l69 -121v-4z" />
    <glyph glyph-name="uni020A" unicode="&#x20a;" horiz-adv-x="336" 
d="M51 0v688h234v-688h-234zM168 895q51 0 83 -11t49 -31.5t23 -48.5t6 -61h-111q0 13 -2 24t-12.5 17.5t-35.5 6.5t-36 -6.5t-13 -17.5t-2 -24h-111q0 33 6.5 61t23.5 48.5t49 31.5t83 11z" />
    <glyph glyph-name="uni020B" unicode="&#x20b;" horiz-adv-x="306" 
d="M44 0v510h218v-510h-218zM153 717q51 0 83 -11t49 -31.5t23 -48.5t6 -61h-111q0 13 -2 24t-12.5 17.5t-35.5 6.5t-36 -6.5t-13 -17.5t-2 -24h-111q0 33 6.5 61t23.5 48.5t49 31.5t83 11z" />
    <glyph glyph-name="uni020C" unicode="&#x20c;" horiz-adv-x="695" 
d="M347 -8q-91 0 -148.5 11t-89.5 35t-46.5 65t-17.5 100.5t-3 140.5t3 140.5t17.5 100.5t46.5 65t89.5 35t148.5 11t148.5 -11t90 -35t46.5 -65t17.5 -100.5t3.5 -140.5t-3.5 -140.5t-17.5 -100.5t-46.5 -65t-90 -35t-148.5 -11zM347 159q21 0 34.5 2t21 11t10.5 28.5
t4 54.5t1 89t-1 89t-4 54.5t-10.5 28.5t-21 11t-34.5 2t-34.5 -2t-20.5 -11t-10.5 -28.5t-4 -54.5t-0.5 -89t0.5 -89t4 -54.5t10.5 -28.5t20.5 -11t34.5 -2zM513 743h-119l-108 121v4h160l67 -121v-4zM324 743h-121l-107 121v4h159l69 -121v-4z" />
    <glyph glyph-name="uni020D" unicode="&#x20d;" horiz-adv-x="571" 
d="M285 -8q-73 0 -120.5 7.5t-75 25.5t-40 48.5t-16 75t-3.5 106.5t3.5 106.5t16 75t40 48.5t75 25.5t120.5 7.5t120.5 -7.5t75 -25.5t40.5 -48.5t16.5 -75t3.5 -106.5t-3.5 -106.5t-16.5 -75t-40.5 -48.5t-75 -25.5t-120.5 -7.5zM285 142q16 0 24.5 2.5t12.5 13.5t5 34
t1 63q0 41 -1 63.5t-5 33.5t-12.5 13.5t-24.5 2.5t-24.5 -2.5t-12 -13.5t-4.5 -33.5t-1 -63.5q0 -40 1 -63t4.5 -34t12 -13.5t24.5 -2.5zM455 565h-119l-108 121v4h160l67 -121v-4zM266 565h-121l-107 121v4h159l69 -121v-4z" />
    <glyph glyph-name="uni020E" unicode="&#x20e;" horiz-adv-x="695" 
d="M347 -8q-91 0 -148.5 11t-89.5 35t-46.5 65t-17.5 100.5t-3 140.5t3 140.5t17.5 100.5t46.5 65t89.5 35t148.5 11t148.5 -11t90 -35t46.5 -65t17.5 -100.5t3.5 -140.5t-3.5 -140.5t-17.5 -100.5t-46.5 -65t-90 -35t-148.5 -11zM347 159q21 0 34.5 2t21 11t10.5 28.5
t4 54.5t1 89t-1 89t-4 54.5t-10.5 28.5t-21 11t-34.5 2t-34.5 -2t-20.5 -11t-10.5 -28.5t-4 -54.5t-0.5 -89t0.5 -89t4 -54.5t10.5 -28.5t20.5 -11t34.5 -2zM348 895q51 0 83 -11t49 -31.5t23 -48.5t6 -61h-111q0 13 -2 24t-12.5 17.5t-35.5 6.5t-36 -6.5t-13 -17.5t-2 -24
h-111q0 33 6.5 61t23.5 48.5t49 31.5t83 11z" />
    <glyph glyph-name="uni020F" unicode="&#x20f;" horiz-adv-x="571" 
d="M285 -8q-73 0 -120.5 7.5t-75 25.5t-40 48.5t-16 75t-3.5 106.5t3.5 106.5t16 75t40 48.5t75 25.5t120.5 7.5t120.5 -7.5t75 -25.5t40.5 -48.5t16.5 -75t3.5 -106.5t-3.5 -106.5t-16.5 -75t-40.5 -48.5t-75 -25.5t-120.5 -7.5zM285 142q16 0 24.5 2.5t12.5 13.5t5 34
t1 63q0 41 -1 63.5t-5 33.5t-12.5 13.5t-24.5 2.5t-24.5 -2.5t-12 -13.5t-4.5 -33.5t-1 -63.5q0 -40 1 -63t4.5 -34t12 -13.5t24.5 -2.5zM286 717q51 0 83 -11t49 -31.5t23 -48.5t6 -61h-111q0 13 -2 24t-12.5 17.5t-35.5 6.5t-36 -6.5t-13 -17.5t-2 -24h-111q0 33 6.5 61
t23.5 48.5t49 31.5t83 11z" />
    <glyph glyph-name="uni0210" unicode="&#x210;" horiz-adv-x="665" 
d="M51 0v688h362q69 0 111.5 -14t64.5 -42.5t29.5 -72t7.5 -101.5q0 -47 -5.5 -85.5t-22.5 -67.5t-51 -48l94 -257h-240l-82 272l58 -33q-10 -7 -20.5 -8.5t-27.5 -1.5h-44v-229h-234zM285 384h42q21 0 34 1.5t20 8t9 21t2 39.5q0 24 -1 38t-7 21t-19.5 9.5t-38.5 2.5h-41
v-141zM498 743h-119l-108 121v4h160l67 -121v-4zM309 743h-121l-107 121v4h159l69 -121v-4z" />
    <glyph glyph-name="uni0211" unicode="&#x211;" horiz-adv-x="438" 
d="M44 0v510h207l4 -85h10q15 36 35 56t49 28.5t69 8.5v-186q-59 0 -94.5 -12t-50.5 -46.5t-15 -102.5v-171h-214zM388 565h-119l-108 121v4h160l67 -121v-4zM199 565h-121l-107 121v4h159l69 -121v-4z" />
    <glyph glyph-name="uni0212" unicode="&#x212;" horiz-adv-x="665" 
d="M51 0v688h362q69 0 111.5 -14t64.5 -42.5t29.5 -72t7.5 -101.5q0 -47 -5.5 -85.5t-22.5 -67.5t-51 -48l94 -257h-240l-82 272l58 -33q-10 -7 -20.5 -8.5t-27.5 -1.5h-44v-229h-234zM285 384h42q21 0 34 1.5t20 8t9 21t2 39.5q0 24 -1 38t-7 21t-19.5 9.5t-38.5 2.5h-41
v-141zM333 895q51 0 83 -11t49 -31.5t23 -48.5t6 -61h-111q0 13 -2 24t-12.5 17.5t-35.5 6.5t-36 -6.5t-13 -17.5t-2 -24h-111q0 33 6.5 61t23.5 48.5t49 31.5t83 11z" />
    <glyph glyph-name="uni0213" unicode="&#x213;" horiz-adv-x="438" 
d="M44 0v510h207l4 -85h10q15 36 35 56t49 28.5t69 8.5v-186q-59 0 -94.5 -12t-50.5 -46.5t-15 -102.5v-171h-214zM219 717q51 0 83 -11t49 -31.5t23 -48.5t6 -61h-111q0 13 -2 24t-12.5 17.5t-35.5 6.5t-36 -6.5t-13 -17.5t-2 -24h-111q0 33 6.5 61t23.5 48.5t49 31.5
t83 11z" />
    <glyph glyph-name="uni0214" unicode="&#x214;" horiz-adv-x="675" 
d="M337 -8q-85 0 -139 10.5t-84 33.5t-43.5 60.5t-16.5 92t-3 127.5v372h234v-410q0 -41 1 -64.5t5.5 -34.5t15.5 -14t30 -3q20 0 30.5 3t15.5 14t6 34.5t1 64.5v410h234v-372q0 -73 -3 -127.5t-16.5 -92t-44 -60.5t-84.5 -33.5t-139 -10.5zM503 743h-119l-108 121v4h160
l67 -121v-4zM314 743h-121l-107 121v4h159l69 -121v-4z" />
    <glyph glyph-name="uni0215" unicode="&#x215;" horiz-adv-x="588" 
d="M189 -8q-49 0 -78 13t-43.5 38.5t-19 62.5t-4.5 85v319h214v-269q0 -31 1 -48t4 -24.5t10.5 -9t19.5 -1.5q14 0 21.5 1.5t10.5 9t4 24.5t1 48v269h214v-510h-207l-4 57h-10q-17 -27 -40.5 -41t-48 -19t-45.5 -5zM463 565h-119l-108 121v4h160l67 -121v-4zM274 565h-121
l-107 121v4h159l69 -121v-4z" />
    <glyph glyph-name="uni0216" unicode="&#x216;" horiz-adv-x="675" 
d="M337 -8q-85 0 -139 10.5t-84 33.5t-43.5 60.5t-16.5 92t-3 127.5v372h234v-410q0 -41 1 -64.5t5.5 -34.5t15.5 -14t30 -3q20 0 30.5 3t15.5 14t6 34.5t1 64.5v410h234v-372q0 -73 -3 -127.5t-16.5 -92t-44 -60.5t-84.5 -33.5t-139 -10.5zM338 895q51 0 83 -11t49 -31.5
t23 -48.5t6 -61h-111q0 13 -2 24t-12.5 17.5t-35.5 6.5t-36 -6.5t-13 -17.5t-2 -24h-111q0 33 6.5 61t23.5 48.5t49 31.5t83 11z" />
    <glyph glyph-name="uni0217" unicode="&#x217;" horiz-adv-x="588" 
d="M189 -8q-49 0 -78 13t-43.5 38.5t-19 62.5t-4.5 85v319h214v-269q0 -31 1 -48t4 -24.5t10.5 -9t19.5 -1.5q14 0 21.5 1.5t10.5 9t4 24.5t1 48v269h214v-510h-207l-4 57h-10q-17 -27 -40.5 -41t-48 -19t-45.5 -5zM294 717q51 0 83 -11t49 -31.5t23 -48.5t6 -61h-111
q0 13 -2 24t-12.5 17.5t-35.5 6.5t-36 -6.5t-13 -17.5t-2 -24h-111q0 33 6.5 61t23.5 48.5t49 31.5t83 11z" />
    <glyph glyph-name="uni0218" unicode="&#x218;" horiz-adv-x="609" 
d="M320 -8q-43 0 -92 2.5t-95 6.5t-80 9v159q37 -3 72.5 -5.5t67 -3.5t53.5 -1q40 0 60 1.5t27 6.5q5 4 7 9t2.5 12t0.5 16q0 15 -3 23t-12 12.5t-27 7.5t-48 7l-117 15q-31 4 -51 20.5t-31.5 44t-16 66t-4.5 85.5q0 68 21 109.5t58.5 63.5t86.5 30t106 8q42 0 86.5 -3
t84 -7.5t65.5 -10.5v-157q-25 3 -59.5 5.5t-70.5 4t-68 1.5q-24 0 -39 -1t-23 -6t-11.5 -12.5t-3.5 -18.5q0 -17 3 -26t15 -12.5t38 -7.5l105 -13q26 -3 49 -10t43 -21.5t35 -43.5q7 -12 11.5 -31t7.5 -44.5t3 -58.5q0 -63 -12.5 -105t-36 -67t-55.5 -38t-70.5 -17t-81.5 -4
zM202 -297v72q32 0 46.5 3.5t19 11.5t4.5 21v6h-70v118h205v-75q0 -46 -6.5 -76.5t-27 -48t-61.5 -25t-110 -7.5z" />
    <glyph glyph-name="uni0219" unicode="&#x219;" horiz-adv-x="502" 
d="M264 -8q-35 0 -75.5 2t-78.5 5t-68 7v136q19 -1 38.5 -2.5t38 -2.5t34.5 -1.5t28 -0.5q49 0 69.5 1t25 6.5t4.5 16.5q0 6 -2 9.5t-12 6t-35 5.5l-119 15q-37 5 -55.5 26.5t-24.5 57t-6 82.5q0 54 17.5 85.5t48 47t71.5 20t87 4.5q36 0 73.5 -2t70.5 -5t54 -7v-136
q-28 2 -55 3.5t-47.5 2.5t-31.5 1q-44 0 -63.5 -1t-24 -5t-4.5 -13q0 -7 2 -11t11 -6t30 -5l101 -13q32 -4 57 -16t39 -44t14 -98q0 -61 -16.5 -95.5t-46 -50.5t-67.5 -20.5t-82 -4.5zM149 -297v72q32 0 46.5 3.5t19 11.5t4.5 21v6h-70v118h205v-75q0 -46 -6.5 -76.5
t-27 -48t-61.5 -25t-110 -7.5z" />
    <glyph glyph-name="uni021A" unicode="&#x21a;" horiz-adv-x="597" 
d="M181 0v512h-168v176h571v-176h-169v-512h-234zM196 -297v72q32 0 46.5 3.5t19 11.5t4.5 21v6h-70v118h205v-75q0 -46 -6.5 -76.5t-27 -48t-61.5 -25t-110 -7.5z" />
    <glyph glyph-name="uni021B" unicode="&#x21b;" horiz-adv-x="438" 
d="M101 0v360h-84v150h84v148h218v-148h102v-150h-102v-360h-218zM108 -297v72q32 0 46.5 3.5t19 11.5t4.5 21v6h-70v118h205v-75q0 -46 -6.5 -76.5t-27 -48t-61.5 -25t-110 -7.5z" />
    <glyph glyph-name="uni022A" unicode="&#x22a;" horiz-adv-x="695" 
d="M347 -8q-91 0 -148.5 11t-89.5 35t-46.5 65t-17.5 100.5t-3 140.5t3 140.5t17.5 100.5t46.5 65t89.5 35t148.5 11t148.5 -11t90 -35t46.5 -65t17.5 -100.5t3.5 -140.5t-3.5 -140.5t-17.5 -100.5t-46.5 -65t-90 -35t-148.5 -11zM347 159q21 0 34.5 2t21 11t10.5 28.5
t4 54.5t1 89t-1 89t-4 54.5t-10.5 28.5t-21 11t-34.5 2t-34.5 -2t-20.5 -11t-10.5 -28.5t-4 -54.5t-0.5 -89t0.5 -89t4 -54.5t10.5 -28.5t20.5 -11t34.5 -2zM153 754v124h165v-124h-165zM377 754v124h165v-124h-165zM169 934v112h358v-112h-358z" />
    <glyph glyph-name="uni022B" unicode="&#x22b;" horiz-adv-x="571" 
d="M285 -8q-73 0 -120.5 7.5t-75 25.5t-40 48.5t-16 75t-3.5 106.5t3.5 106.5t16 75t40 48.5t75 25.5t120.5 7.5t120.5 -7.5t75 -25.5t40.5 -48.5t16.5 -75t3.5 -106.5t-3.5 -106.5t-16.5 -75t-40.5 -48.5t-75 -25.5t-120.5 -7.5zM285 142q16 0 24.5 2.5t12.5 13.5t5 34
t1 63q0 41 -1 63.5t-5 33.5t-12.5 13.5t-24.5 2.5t-24.5 -2.5t-12 -13.5t-4.5 -33.5t-1 -63.5q0 -40 1 -63t4.5 -34t12 -13.5t24.5 -2.5zM92 576v124h165v-124h-165zM316 576v124h165v-124h-165zM108 746v112h358v-112h-358z" />
    <glyph glyph-name="uni022C" unicode="&#x22c;" horiz-adv-x="695" 
d="M347 -8q-91 0 -148.5 11t-89.5 35t-46.5 65t-17.5 100.5t-3 140.5t3 140.5t17.5 100.5t46.5 65t89.5 35t148.5 11t148.5 -11t90 -35t46.5 -65t17.5 -100.5t3.5 -140.5t-3.5 -140.5t-17.5 -100.5t-46.5 -65t-90 -35t-148.5 -11zM347 159q21 0 34.5 2t21 11t10.5 28.5
t4 54.5t1 89t-1 89t-4 54.5t-10.5 28.5t-21 11t-34.5 2t-34.5 -2t-20.5 -11t-10.5 -28.5t-4 -54.5t-0.5 -89t0.5 -89t4 -54.5t10.5 -28.5t20.5 -11t34.5 -2zM143 732q0 49 4.5 84t26 54t73.5 19q30 0 61 -5.5t56 -10.5q21 -4 38 -7t28 -3q17 0 19.5 8.5t2.5 29.5h100
q0 -48 -4.5 -83.5t-26 -54.5t-73.5 -19q-30 0 -60.5 6t-56.5 10q-21 4 -38 7t-28 3q-16 0 -19 -9t-3 -29h-100zM169 932v112h358v-112h-358z" />
    <glyph glyph-name="uni022D" unicode="&#x22d;" horiz-adv-x="571" 
d="M285 -8q-73 0 -120.5 7.5t-75 25.5t-40 48.5t-16 75t-3.5 106.5t3.5 106.5t16 75t40 48.5t75 25.5t120.5 7.5t120.5 -7.5t75 -25.5t40.5 -48.5t16.5 -75t3.5 -106.5t-3.5 -106.5t-16.5 -75t-40.5 -48.5t-75 -25.5t-120.5 -7.5zM285 142q16 0 24.5 2.5t12.5 13.5t5 34
t1 63q0 41 -1 63.5t-5 33.5t-12.5 13.5t-24.5 2.5t-24.5 -2.5t-12 -13.5t-4.5 -33.5t-1 -63.5q0 -40 1 -63t4.5 -34t12 -13.5t24.5 -2.5zM81 554q0 49 4.5 84t26 54t73.5 19q30 0 61 -5.5t56 -10.5q21 -4 38 -7t28 -3q17 0 19.5 8.5t2.5 29.5h100q0 -48 -4.5 -83.5
t-26 -54.5t-73.5 -19q-30 0 -60.5 6t-56.5 10q-21 4 -38 7t-28 3q-16 0 -19 -9t-3 -29h-100zM106 754v112h358v-112h-358z" />
    <glyph glyph-name="uni0230" unicode="&#x230;" horiz-adv-x="695" 
d="M347 -8q-91 0 -148.5 11t-89.5 35t-46.5 65t-17.5 100.5t-3 140.5t3 140.5t17.5 100.5t46.5 65t89.5 35t148.5 11t148.5 -11t90 -35t46.5 -65t17.5 -100.5t3.5 -140.5t-3.5 -140.5t-17.5 -100.5t-46.5 -65t-90 -35t-148.5 -11zM347 159q21 0 34.5 2t21 11t10.5 28.5
t4 54.5t1 89t-1 89t-4 54.5t-10.5 28.5t-21 11t-34.5 2t-34.5 -2t-20.5 -11t-10.5 -28.5t-4 -54.5t-0.5 -89t0.5 -89t4 -54.5t10.5 -28.5t20.5 -11t34.5 -2zM265 754v124h165v-124h-165zM169 919v112h358v-112h-358z" />
    <glyph glyph-name="uni0231" unicode="&#x231;" horiz-adv-x="571" 
d="M285 -8q-73 0 -120.5 7.5t-75 25.5t-40 48.5t-16 75t-3.5 106.5t3.5 106.5t16 75t40 48.5t75 25.5t120.5 7.5t120.5 -7.5t75 -25.5t40.5 -48.5t16.5 -75t3.5 -106.5t-3.5 -106.5t-16.5 -75t-40.5 -48.5t-75 -25.5t-120.5 -7.5zM285 142q16 0 24.5 2.5t12.5 13.5t5 34
t1 63q0 41 -1 63.5t-5 33.5t-12.5 13.5t-24.5 2.5t-24.5 -2.5t-12 -13.5t-4.5 -33.5t-1 -63.5q0 -40 1 -63t4.5 -34t12 -13.5t24.5 -2.5zM203 576v124h165v-124h-165zM107 746v112h358v-112h-358z" />
    <glyph glyph-name="uni0232" unicode="&#x232;" horiz-adv-x="662" 
d="M214 0v222l-217 466h238l95 -256h7l95 256h233l-217 -466v-222h-234zM152 754v112h358v-112h-358z" />
    <glyph glyph-name="uni0233" unicode="&#x233;" horiz-adv-x="588" 
d="M272 -206q-33 0 -68 2t-66 5.5t-52 7.5v135h44h44h44q42 0 65 1.5t33 8t12 22.5t2 45v52h-10q-17 -27 -40 -41t-46.5 -19t-44.5 -5q-49 0 -78 13t-43.5 38.5t-19 62.5t-4.5 85v303h214v-253q0 -31 1 -48t4 -24.5t10.5 -9t19.5 -1.5q14 0 21.5 1.5t10.5 9t4 24.5t1 48v253
h214v-455q0 -64 -6.5 -112.5t-31.5 -81.5t-80.5 -50t-153.5 -17zM115 576v112h358v-112h-358z" />
    <glyph glyph-name="uni0237" unicode="&#x237;" horiz-adv-x="306" 
d="M-28 -199v138q35 0 50 5.5t18.5 17t3.5 28.5v520h218v-473q0 -81 -11 -128.5t-41.5 -70.5t-88 -30t-149.5 -7z" />
    <glyph glyph-name="uni0259" unicode="&#x259;" horiz-adv-x="558" 
d="M255 518q79 0 130 -9.5t80 -29t42.5 -50.5t17 -74t3.5 -99q0 -71 -6 -121t-29.5 -81.5t-74.5 -46.5t-141 -15q-73 0 -118.5 8.5t-71 27t-36.5 49t-13.5 75t-2.5 104.5v39h284q0 27 -3 42t-14 21.5t-34.5 8t-63.5 1.5q-16 0 -40.5 -1t-52.5 -2.5t-56 -3.5v137
q20 6 52.5 10.5t71 7t76.5 2.5zM233 226v-16q0 -30 1 -47t5.5 -24.5t13.5 -9.5t24 -2q14 0 22.5 2t12.5 9.5t5.5 24.5t1.5 47h-102z" />
    <glyph glyph-name="uni0272" unicode="&#x272;" horiz-adv-x="588" 
d="M-28 -199v138q35 0 50 5.5t18.5 17t3.5 28.5v520h207l4 -57h10q18 27 41.5 41t48 19t44.5 5q49 0 78 -13t43.5 -38.5t19 -62.5t4.5 -85v-319h-214v269q0 31 -1 48t-4 24.5t-10.5 9t-19.5 1.5q-13 0 -21 -1.5t-11 -9t-4 -24.5t-1 -48v-232q0 -81 -11 -128.5t-41 -70.5
t-86.5 -30t-147.5 -7z" />
    <glyph glyph-name="uni02B9" unicode="&#x2b9;" horiz-adv-x="213" 
d="M0 361l29 327h184l-10 -106l-61 -221h-142z" />
    <glyph glyph-name="uni02BA" unicode="&#x2ba;" horiz-adv-x="433" 
d="M220 361l29 327h184l-10 -106l-61 -221h-142zM0 361l29 327h184l-10 -106l-61 -221h-142z" />
    <glyph glyph-name="uni02BC" unicode="&#x2bc;" horiz-adv-x="205" 
d="M0 461v72q32 0 46.5 6t19 20.5t4.5 39.5v14h-70v130h205v-95q0 -54 -6.5 -90.5t-27 -57.5t-61.5 -30t-110 -9z" />
    <glyph glyph-name="circumflex" unicode="&#x2c6;" horiz-adv-x="368" 
d="M0 565v8l89 140h189l90 -140v-8h-134l-51 72l-49 -72h-134z" />
    <glyph glyph-name="caron" unicode="&#x2c7;" horiz-adv-x="368" 
d="M89 565l-89 140v8h134l52 -72l48 72h134v-8l-90 -140h-189z" />
    <glyph glyph-name="uni02C9" unicode="&#x2c9;" horiz-adv-x="358" 
d="M0 576v112h358v-112h-358z" />
    <glyph glyph-name="breve" unicode="&#x2d8;" horiz-adv-x="323" 
d="M161 561q-51 0 -83 11t-49 31.5t-23 48.5t-6 61h111q0 -13 2 -24t12.5 -17.5t35.5 -6.5q26 0 36.5 6.5t12.5 17.5t2 24h111q0 -33 -6.5 -61t-23.5 -48.5t-49 -31.5t-83 -11z" />
    <glyph glyph-name="dotaccent" unicode="&#x2d9;" horiz-adv-x="165" 
d="M0 576v124h165v-124h-165z" />
    <glyph glyph-name="ring" unicode="&#x2da;" horiz-adv-x="311" 
d="M155 551q-52 0 -83 6t-46.5 20.5t-20.5 38t-5 57.5q0 35 5 59t20.5 38t46.5 20.5t83 6.5t83 -6.5t47 -20.5t21 -38t5 -59q0 -34 -5 -57.5t-21 -38t-47 -20.5t-83 -6zM155 628q26 0 36.5 3.5t12.5 13.5t2 28q0 19 -2 29t-12.5 14t-36.5 4q-25 0 -35.5 -4t-12.5 -14t-2 -29
q0 -18 2 -28t12.5 -13.5t35.5 -3.5z" />
    <glyph glyph-name="ogonek" unicode="&#x2db;" horiz-adv-x="232" 
d="M145 -196q-56 0 -88 12.5t-44.5 33t-12.5 43.5q0 31 21 62.5t54 58.5l156 -10q-13 -6 -27.5 -18t-25 -25.5t-10.5 -26.5q0 -14 9 -23.5t38 -9.5h6t11 1v-94q-17 -1 -42 -2.5t-45 -1.5z" />
    <glyph glyph-name="tilde" unicode="&#x2dc;" horiz-adv-x="409" 
d="M0 554q0 49 4.5 84t26 54t73.5 19q30 0 61 -5.5t56 -10.5q21 -4 38 -7t28 -3q17 0 19.5 8.5t2.5 29.5h100q0 -48 -4.5 -83.5t-26 -54.5t-73.5 -19q-30 0 -60.5 6t-56.5 10q-21 4 -38 7t-28 3q-16 0 -19 -9t-3 -29h-100z" />
    <glyph glyph-name="hungarumlaut" unicode="&#x2dd;" horiz-adv-x="417" 
d="M0 565v4l67 121h160v-4l-108 -121h-119zM189 565v4l69 121h159v-4l-107 -121h-121z" />
    <glyph glyph-name="gravecomb" unicode="&#x300;" 
d="M136 565l-136 143v5h198l86 -143v-5h-148z" />
    <glyph glyph-name="acutecomb" unicode="&#x301;" 
d="M0 565v5l86 143h198v-5l-136 -143h-148z" />
    <glyph glyph-name="uni0302" unicode="&#x302;" 
d="M0 565v8l89 140h189l90 -140v-8h-134l-51 72l-49 -72h-134z" />
    <glyph glyph-name="tildecomb" unicode="&#x303;" 
d="M0 554q0 49 4.5 84t26 54t73.5 19q30 0 61 -5.5t56 -10.5q21 -4 38 -7t28 -3q17 0 19.5 8.5t2.5 29.5h100q0 -48 -4.5 -83.5t-26 -54.5t-73.5 -19q-30 0 -60.5 6t-56.5 10q-21 4 -38 7t-28 3q-16 0 -19 -9t-3 -29h-100z" />
    <glyph glyph-name="uni0304" unicode="&#x304;" 
d="M0 576v112h358v-112h-358z" />
    <glyph glyph-name="uni0306" unicode="&#x306;" 
d="M161 561q-51 0 -83 11t-49 31.5t-23 48.5t-6 61h111q0 -13 2 -24t12.5 -17.5t35.5 -6.5q26 0 36.5 6.5t12.5 17.5t2 24h111q0 -33 -6.5 -61t-23.5 -48.5t-49 -31.5t-83 -11z" />
    <glyph glyph-name="uni0307" unicode="&#x307;" 
d="M0 576v124h165v-124h-165z" />
    <glyph glyph-name="uni0308" unicode="&#x308;" 
d="M0 576v124h165v-124h-165zM224 576v124h165v-124h-165z" />
    <glyph glyph-name="hookabovecomb" unicode="&#x309;" 
d="M65 561v2q0 23 4 37.5t15 23t32 13.5l15 4q12 3 17.5 5.5t7.5 7t2 11.5q0 12 -3 17t-14.5 6.5t-35.5 1.5q-13 0 -33 -1l-40 -2t-32 -3v91q27 5 66 8.5t72 3.5q41 0 75 -5t55 -28t21 -76q0 -27 -6 -43.5t-23 -26.5t-49 -19l-10 -3q-11 -3 -17.5 -6.5t-8.5 -8t-2 -10.5
h-108z" />
    <glyph glyph-name="uni030A" unicode="&#x30a;" 
d="M155 551q-52 0 -83 6t-46.5 20.5t-20.5 38t-5 57.5q0 35 5 59t20.5 38t46.5 20.5t83 6.5t83 -6.5t47 -20.5t21 -38t5 -59q0 -34 -5 -57.5t-21 -38t-47 -20.5t-83 -6zM155 628q26 0 36.5 3.5t12.5 13.5t2 28q0 19 -2 29t-12.5 14t-36.5 4q-25 0 -35.5 -4t-12.5 -14t-2 -29
q0 -18 2 -28t12.5 -13.5t35.5 -3.5z" />
    <glyph glyph-name="uni030B" unicode="&#x30b;" 
d="M0 565v4l67 121h160v-4l-108 -121h-119zM189 565v4l69 121h159v-4l-107 -121h-121z" />
    <glyph glyph-name="uni030C" unicode="&#x30c;" 
d="M89 565l-89 140v8h134l52 -72l48 72h134v-8l-90 -140h-189z" />
    <glyph glyph-name="uni030F" unicode="&#x30f;" 
d="M417 565h-119l-108 121v4h160l67 -121v-4zM228 565h-121l-107 121v4h159l69 -121v-4z" />
    <glyph glyph-name="uni0311" unicode="&#x311;" 
d="M162 717q51 0 83 -11t49 -31.5t23 -48.5t6 -61h-111q0 13 -2 24t-12.5 17.5t-35.5 6.5t-36 -6.5t-13 -17.5t-2 -24h-111q0 33 6.5 61t23.5 48.5t49 31.5t83 11z" />
    <glyph glyph-name="uni0312" unicode="&#x312;" 
d="M0 560v75q0 46 6.5 76.5t27 48t61.5 25t110 7.5v-72q-47 0 -58.5 -8t-11.5 -28v-6h70v-118h-205z" />
    <glyph glyph-name="uni031B" unicode="&#x31b;" 
d="M0 438v72h26q47 0 58.5 14.5t11.5 51.5v22h135v-13q0 -43 -6.5 -71.5t-27 -45t-61.5 -23.5t-110 -7h-26z" />
    <glyph glyph-name="dotbelowcomb" unicode="&#x323;" 
d="M0 -233v148h164v-148h-164z" />
    <glyph glyph-name="uni0324" unicode="&#x324;" 
d="M0 -216v124h165v-124h-165zM224 -216v124h165v-124h-165z" />
    <glyph glyph-name="uni0326" unicode="&#x326;" 
d="M0 -297v72q32 0 46.5 3.5t19 11.5t4.5 21v6h-70v118h205v-75q0 -46 -6.5 -76.5t-27 -48t-61.5 -25t-110 -7.5z" />
    <glyph glyph-name="uni0327" unicode="&#x327;" 
d="M0 -190v5l87 203h134v-5l-34 -203h-187z" />
    <glyph glyph-name="uni0328" unicode="&#x328;" 
d="M145 -196q-56 0 -88 12.5t-44.5 33t-12.5 43.5q0 31 21 62.5t54 58.5l156 -10q-13 -6 -27.5 -18t-25 -25.5t-10.5 -26.5q0 -14 9 -23.5t38 -9.5h6t11 1v-94q-17 -1 -42 -2.5t-45 -1.5z" />
    <glyph glyph-name="uni032E" unicode="&#x32e;" 
d="M161 -244q-51 0 -83 11t-49 31.5t-23 48.5t-6 61h111q0 -13 2 -24t12.5 -17.5t35.5 -6.5q26 0 36.5 6.5t12.5 17.5t2 24h111q0 -33 -6.5 -61t-23.5 -48.5t-49 -31.5t-83 -11z" />
    <glyph glyph-name="uni0331" unicode="&#x331;" 
d="M0 -228v112h358v-112h-358z" />
    <glyph glyph-name="uni0335" unicode="&#x335;" 
d="M0 280v137h356v-137h-356z" />
    <glyph glyph-name="uni0336" unicode="&#x336;" 
d="M0 474v137h595v-137h-595z" />
    <glyph glyph-name="uni0394" unicode="&#x394;" horiz-adv-x="697" 
d="M-5 0l191 688h325l191 -688h-707zM251 163h188l-90 363h-9z" />
    <glyph glyph-name="uni03A9" unicode="&#x3a9;" horiz-adv-x="704" 
d="M42 0v167h12l128 -43v9q-39 18 -69.5 49.5t-48 83.5t-17.5 130q0 53 3 99t17.5 83t46.5 63.5t89.5 40.5t148.5 14t148.5 -14t89.5 -40.5t46.5 -63.5t17.5 -83t3 -99q0 -78 -17.5 -130t-47.5 -83.5t-70 -49.5v-9l128 43h12v-167h-265v163q8 5 13 22.5t7.5 43t3.5 55.5
t1 60q0 54 -0.5 89t-4 54.5t-10.5 28.5t-20.5 11t-34.5 2t-34.5 -2t-20.5 -11t-10.5 -28.5t-4 -54.5t-0.5 -89q0 -30 1 -60t3.5 -55.5t7.5 -43t13 -22.5v-163h-265z" />
    <glyph glyph-name="uni03BC" unicode="&#x3bc;" horiz-adv-x="588" 
d="M44 -189v699h214v-269q0 -31 1 -48t4 -24.5t10.5 -9t19.5 -1.5q14 0 21.5 1.5t10.5 9t4 24.5t1 48v269h214v-510h-207l-4 57h-10q-13 -15 -27.5 -28t-35 -21t-51.5 -8q-21 0 -45 8.5t-45 25.5t-34 42l191 -40h-18v-225h-214z" />
    <glyph glyph-name="pi" unicode="&#x3c0;" horiz-adv-x="589" 
d="M48 0v510h494v-510h-218v360h-58v-360h-218z" />
    <glyph glyph-name="uni1E0C" unicode="&#x1e0c;" horiz-adv-x="670" 
d="M51 0v688h255q96 0 156.5 -10t94.5 -33t49 -62.5t18.5 -98t3.5 -140.5t-3.5 -140.5t-18.5 -98t-49 -62.5t-94.5 -33t-156.5 -10h-255zM285 167h24q25 0 41 2.5t25 11t12.5 27.5t4.5 51.5t1 83.5q0 52 -1 85t-4.5 52t-12.5 28t-25 11t-41 2h-24v-354zM253 -233v148h164
v-148h-164z" />
    <glyph glyph-name="uni1E0D" unicode="&#x1e0d;" horiz-adv-x="584" 
d="M184 -8q-40 0 -69 11.5t-48 40.5t-28 80t-9 129t9 129.5t28.5 81t49 41.5t70.5 12q25 0 48 -4t43.5 -16t37.5 -38h10v284h214v-743h-207l-4 57h-11q-15 -27 -36 -41t-46 -19t-52 -5zM285 157q20 0 28 4t10 21q2 15 2.5 32t0.5 41v39.5t-2 28.5q-2 21 -10.5 25.5
t-28.5 4.5q-16 0 -24.5 -2t-12 -11t-4.5 -29t-1 -56t1 -56t4.5 -29t12 -11t24.5 -2zM210 -233v148h164v-148h-164z" />
    <glyph glyph-name="uni1E24" unicode="&#x1e24;" horiz-adv-x="697" 
d="M51 0v688h234v-250h127v250h234v-688h-234v251h-127v-251h-234zM267 -233v148h164v-148h-164z" />
    <glyph glyph-name="uni1E25" unicode="&#x1e25;" horiz-adv-x="588" 
d="M44 0v743h214v-290h10q18 27 40.5 41t47 19t44.5 5q49 0 77.5 -13t43 -38.5t19 -62.5t4.5 -85v-319h-214v269q0 31 -1 48t-4 24.5t-10.5 9t-19.5 1.5q-13 0 -21 -1.5t-11 -9t-4 -24.5t-1 -48v-269h-214zM212 -233v148h164v-148h-164z" />
    <glyph glyph-name="uni1E44" unicode="&#x1e44;" horiz-adv-x="705" 
d="M51 0v688h239l134 -266h7v266h223v-688h-215l-159 321h-6v-321h-223zM275 754v124h165v-124h-165z" />
    <glyph glyph-name="uni1E45" unicode="&#x1e45;" horiz-adv-x="588" 
d="M44 0v510h207l4 -57h10q18 27 41.5 41t48 19t44.5 5q49 0 78 -13t43.5 -38.5t19 -62.5t4.5 -85v-319h-214v269q0 31 -1 48t-4 24.5t-10.5 9t-19.5 1.5q-13 0 -21 -1.5t-11 -9t-4 -24.5t-1 -48v-269h-214zM211 576v124h165v-124h-165z" />
    <glyph glyph-name="uni1E5A" unicode="&#x1e5a;" horiz-adv-x="665" 
d="M51 0v688h362q69 0 111.5 -14t64.5 -42.5t29.5 -72t7.5 -101.5q0 -47 -5.5 -85.5t-22.5 -67.5t-51 -48l94 -257h-240l-82 272l58 -33q-10 -7 -20.5 -8.5t-27.5 -1.5h-44v-229h-234zM285 384h42q21 0 34 1.5t20 8t9 21t2 39.5q0 24 -1 38t-7 21t-19.5 9.5t-38.5 2.5h-41
v-141zM251 -233v148h164v-148h-164z" />
    <glyph glyph-name="uni1E5B" unicode="&#x1e5b;" horiz-adv-x="438" 
d="M44 0v510h207l4 -85h10q15 36 35 56t49 28.5t69 8.5v-186q-59 0 -94.5 -12t-50.5 -46.5t-15 -102.5v-171h-214zM69 -233v148h164v-148h-164z" />
    <glyph glyph-name="uni1E62" unicode="&#x1e62;" horiz-adv-x="609" 
d="M320 -8q-43 0 -92 2.5t-95 6.5t-80 9v159q37 -3 72.5 -5.5t67 -3.5t53.5 -1q40 0 60 1.5t27 6.5q5 4 7 9t2.5 12t0.5 16q0 15 -3 23t-12 12.5t-27 7.5t-48 7l-117 15q-31 4 -51 20.5t-31.5 44t-16 66t-4.5 85.5q0 68 21 109.5t58.5 63.5t86.5 30t106 8q42 0 86.5 -3
t84 -7.5t65.5 -10.5v-157q-25 3 -59.5 5.5t-70.5 4t-68 1.5q-24 0 -39 -1t-23 -6t-11.5 -12.5t-3.5 -18.5q0 -17 3 -26t15 -12.5t38 -7.5l105 -13q26 -3 49 -10t43 -21.5t35 -43.5q7 -12 11.5 -31t7.5 -44.5t3 -58.5q0 -63 -12.5 -105t-36 -67t-55.5 -38t-70.5 -17t-81.5 -4
zM223 -233v148h164v-148h-164z" />
    <glyph glyph-name="uni1E63" unicode="&#x1e63;" horiz-adv-x="502" 
d="M264 -8q-35 0 -75.5 2t-78.5 5t-68 7v136q19 -1 38.5 -2.5t38 -2.5t34.5 -1.5t28 -0.5q49 0 69.5 1t25 6.5t4.5 16.5q0 6 -2 9.5t-12 6t-35 5.5l-119 15q-37 5 -55.5 26.5t-24.5 57t-6 82.5q0 54 17.5 85.5t48 47t71.5 20t87 4.5q36 0 73.5 -2t70.5 -5t54 -7v-136
q-28 2 -55 3.5t-47.5 2.5t-31.5 1q-44 0 -63.5 -1t-24 -5t-4.5 -13q0 -7 2 -11t11 -6t30 -5l101 -13q32 -4 57 -16t39 -44t14 -98q0 -61 -16.5 -95.5t-46 -50.5t-67.5 -20.5t-82 -4.5zM169 -233v148h164v-148h-164z" />
    <glyph glyph-name="uni1E6C" unicode="&#x1e6c;" horiz-adv-x="597" 
d="M181 0v512h-168v176h571v-176h-169v-512h-234zM217 -233v148h164v-148h-164z" />
    <glyph glyph-name="uni1E6D" unicode="&#x1e6d;" horiz-adv-x="438" 
d="M101 0v360h-84v150h84v148h218v-148h102v-150h-102v-360h-218zM128 -233v148h164v-148h-164z" />
    <glyph glyph-name="Wgrave" unicode="&#x1e80;" horiz-adv-x="985" 
d="M127 0l-127 688h232l58 -432h11l74 432h240l76 -432h11l50 432h233l-127 -688h-295l-65 347h-11l-65 -347h-295zM414 743l-136 143v5h198l86 -143v-5h-148z" />
    <glyph glyph-name="wgrave" unicode="&#x1e81;" horiz-adv-x="862" 
d="M115 0l-105 510h207l40 -316h11l67 316h195l71 -316h11l36 316h204l-105 -510h-265l-45 206h-11l-45 -206h-266zM368 565l-136 143v5h198l86 -143v-5h-148z" />
    <glyph glyph-name="Wacute" unicode="&#x1e82;" horiz-adv-x="985" 
d="M127 0l-127 688h232l58 -432h11l74 432h240l76 -432h11l50 432h233l-127 -688h-295l-65 347h-11l-65 -347h-295zM387 743v5l86 143h198v-5l-136 -143h-148z" />
    <glyph glyph-name="wacute" unicode="&#x1e83;" horiz-adv-x="862" 
d="M115 0l-105 510h207l40 -316h11l67 316h195l71 -316h11l36 316h204l-105 -510h-265l-45 206h-11l-45 -206h-266zM309 565v5l86 143h198v-5l-136 -143h-148z" />
    <glyph glyph-name="Wdieresis" unicode="&#x1e84;" horiz-adv-x="985" 
d="M127 0l-127 688h232l58 -432h11l74 432h240l76 -432h11l50 432h233l-127 -688h-295l-65 347h-11l-65 -347h-295zM298 754v124h165v-124h-165zM522 754v124h165v-124h-165z" />
    <glyph glyph-name="wdieresis" unicode="&#x1e85;" horiz-adv-x="862" 
d="M115 0l-105 510h207l40 -316h11l67 316h195l71 -316h11l36 316h204l-105 -510h-265l-45 206h-11l-45 -206h-266zM237 576v124h165v-124h-165zM461 576v124h165v-124h-165z" />
    <glyph glyph-name="uni1E92" unicode="&#x1e92;" horiz-adv-x="620" 
d="M38 0v161l260 360h-249v167h533v-156l-264 -365h263v-167h-543zM228 -233v148h164v-148h-164z" />
    <glyph glyph-name="uni1E93" unicode="&#x1e93;" horiz-adv-x="537" 
d="M35 0v142l198 218h-186v150h453v-142l-198 -218h200v-150h-467zM192 -233v148h164v-148h-164z" />
    <glyph glyph-name="uni1E9E" unicode="&#x1e9e;" horiz-adv-x="790" 
d="M483 -8q-32 0 -72.5 6.5t-70.5 16.5v156q26 -5 54 -8.5t46 -3.5q34 0 51 2.5t22.5 13t5.5 34.5q0 27 -5.5 39t-21.5 15t-46 3h-87v142l172 188l31 -83q-36 8 -71 11.5t-61 4t-36 0.5q-33 0 -53.5 -4t-32 -15.5t-16.5 -34t-6 -59.5t-1 -92v-324h-234v354q0 82 5.5 140.5
t23 97.5t51 62t88.5 32.5t137 9.5q65 0 128.5 -5.5t123 -13.5t111.5 -16v-142l-195 -214l-64 76h15q93 0 155 -14t92.5 -55.5t30.5 -127.5q0 -45 -11.5 -80.5t-41 -60.5t-82 -38t-135.5 -13z" />
    <glyph glyph-name="uni1EA0" unicode="&#x1ea0;" horiz-adv-x="697" 
d="M-5 0l191 688h325l191 -688h-232l-25 103h-199l-24 -103h-227zM284 263h122l-57 237h-9zM267 -233v148h164v-148h-164z" />
    <glyph glyph-name="uni1EA1" unicode="&#x1ea1;" horiz-adv-x="567" 
d="M166 -8q-46 0 -76.5 16t-46 51t-15.5 90q0 57 13 90.5t49 48t103 14.5q8 0 21.5 -0.5t30.5 -1t33.5 -1t30.5 -1.5v17q0 20 -3.5 31t-13.5 15.5t-31.5 5.5t-57.5 1q-24 0 -49.5 -1t-50.5 -2t-48 -3v138q38 7 92.5 12.5t121.5 5.5q72 0 119 -9t74.5 -26.5t40.5 -43.5
t16.5 -60t3.5 -77v-302h-209l-4 56h-10q-21 -29 -42.5 -43t-44 -17.5t-47.5 -3.5zM267 129q12 0 19 2t12 6.5t7 10.5q3 7 3.5 17t0.5 23v27h-40q-20 0 -29.5 -3t-12 -13t-2.5 -31q0 -14 2 -23t11 -12.5t29 -3.5zM202 -233v148h164v-148h-164z" />
    <glyph glyph-name="uni1EA2" unicode="&#x1ea2;" horiz-adv-x="697" 
d="M-5 0l191 688h325l191 -688h-232l-25 103h-199l-24 -103h-227zM284 263h122l-57 237h-9zM277 739v2q0 23 4 37.5t15 23t32 13.5l15 4q12 3 17.5 5.5t7.5 7t2 11.5q0 12 -3 17t-14.5 6.5t-35.5 1.5q-13 0 -33 -1l-40 -2t-32 -3v91q27 5 66 8.5t72 3.5q41 0 75 -5t55 -28
t21 -76q0 -27 -6 -43.5t-23 -26.5t-49 -19l-10 -3q-11 -3 -17.5 -6.5t-8.5 -8t-2 -10.5h-108z" />
    <glyph glyph-name="uni1EA3" unicode="&#x1ea3;" horiz-adv-x="567" 
d="M166 -8q-46 0 -76.5 16t-46 51t-15.5 90q0 57 13 90.5t49 48t103 14.5q8 0 21.5 -0.5t30.5 -1t33.5 -1t30.5 -1.5v17q0 20 -3.5 31t-13.5 15.5t-31.5 5.5t-57.5 1q-24 0 -49.5 -1t-50.5 -2t-48 -3v138q38 7 92.5 12.5t121.5 5.5q72 0 119 -9t74.5 -26.5t40.5 -43.5
t16.5 -60t3.5 -77v-302h-209l-4 56h-10q-21 -29 -42.5 -43t-44 -17.5t-47.5 -3.5zM267 129q12 0 19 2t12 6.5t7 10.5q3 7 3.5 17t0.5 23v27h-40q-20 0 -29.5 -3t-12 -13t-2.5 -31q0 -14 2 -23t11 -12.5t29 -3.5zM216 561v2q0 23 4 37.5t15 23t32 13.5l15 4q12 3 17.5 5.5
t7.5 7t2 11.5q0 12 -3 17t-14.5 6.5t-35.5 1.5q-13 0 -33 -1l-40 -2t-32 -3v91q27 5 66 8.5t72 3.5q41 0 75 -5t55 -28t21 -76q0 -27 -6 -43.5t-23 -26.5t-49 -19l-10 -3q-11 -3 -17.5 -6.5t-8.5 -8t-2 -10.5h-108z" />
    <glyph glyph-name="uni1EA4" unicode="&#x1ea4;" horiz-adv-x="697" 
d="M-5 0l191 688h325l191 -688h-232l-25 103h-199l-24 -103h-227zM284 263h122l-57 237h-9zM165 743v8l89 140h189l90 -140v-8h-134l-51 72l-49 -72h-134zM243 921v5l86 143h198v-5l-136 -143h-148z" />
    <glyph glyph-name="uni1EA5" unicode="&#x1ea5;" horiz-adv-x="567" 
d="M166 -8q-46 0 -76.5 16t-46 51t-15.5 90q0 57 13 90.5t49 48t103 14.5q8 0 21.5 -0.5t30.5 -1t33.5 -1t30.5 -1.5v17q0 20 -3.5 31t-13.5 15.5t-31.5 5.5t-57.5 1q-24 0 -49.5 -1t-50.5 -2t-48 -3v138q38 7 92.5 12.5t121.5 5.5q72 0 119 -9t74.5 -26.5t40.5 -43.5
t16.5 -60t3.5 -77v-302h-209l-4 56h-10q-21 -29 -42.5 -43t-44 -17.5t-47.5 -3.5zM267 129q12 0 19 2t12 6.5t7 10.5q3 7 3.5 17t0.5 23v27h-40q-20 0 -29.5 -3t-12 -13t-2.5 -31q0 -14 2 -23t11 -12.5t29 -3.5zM104 565v8l89 140h189l90 -140v-8h-134l-51 72l-49 -72h-134z
M166 743v5l86 143h198v-5l-136 -143h-148z" />
    <glyph glyph-name="uni1EA6" unicode="&#x1ea6;" horiz-adv-x="697" 
d="M-5 0l191 688h325l191 -688h-232l-25 103h-199l-24 -103h-227zM284 263h122l-57 237h-9zM165 743v8l89 140h189l90 -140v-8h-134l-51 72l-49 -72h-134zM270 921l-136 143v5h198l86 -143v-5h-148z" />
    <glyph glyph-name="uni1EA7" unicode="&#x1ea7;" horiz-adv-x="567" 
d="M166 -8q-46 0 -76.5 16t-46 51t-15.5 90q0 57 13 90.5t49 48t103 14.5q8 0 21.5 -0.5t30.5 -1t33.5 -1t30.5 -1.5v17q0 20 -3.5 31t-13.5 15.5t-31.5 5.5t-57.5 1q-24 0 -49.5 -1t-50.5 -2t-48 -3v138q38 7 92.5 12.5t121.5 5.5q72 0 119 -9t74.5 -26.5t40.5 -43.5
t16.5 -60t3.5 -77v-302h-209l-4 56h-10q-21 -29 -42.5 -43t-44 -17.5t-47.5 -3.5zM267 129q12 0 19 2t12 6.5t7 10.5q3 7 3.5 17t0.5 23v27h-40q-20 0 -29.5 -3t-12 -13t-2.5 -31q0 -14 2 -23t11 -12.5t29 -3.5zM104 565v8l89 140h189l90 -140v-8h-134l-51 72l-49 -72h-134z
M225 743l-136 143v5h198l86 -143v-5h-148z" />
    <glyph glyph-name="uni1EA8" unicode="&#x1ea8;" horiz-adv-x="697" 
d="M-5 0l191 688h325l191 -688h-232l-25 103h-199l-24 -103h-227zM284 263h122l-57 237h-9zM165 743v8l89 141h189l90 -141v-8h-134l-51 73l-49 -73h-134zM277 918v2q0 23 4 37.5t15 23t32 13.5l15 4q12 3 17.5 5.5t7.5 7t2 11.5q0 12 -3 17t-14.5 6.5t-35.5 1.5
q-13 0 -33 -1l-40 -2t-32 -3v91q27 5 66 8.5t72 3.5q41 0 75 -5t55 -28t21 -76q0 -27 -6 -43.5t-23 -26.5t-49 -19l-10 -3q-11 -3 -17.5 -6.5t-8.5 -8t-2 -10.5h-108z" />
    <glyph glyph-name="uni1EA9" unicode="&#x1ea9;" horiz-adv-x="567" 
d="M166 -8q-46 0 -76.5 16t-46 51t-15.5 90q0 57 13 90.5t49 48t103 14.5q8 0 21.5 -0.5t30.5 -1t33.5 -1t30.5 -1.5v17q0 20 -3.5 31t-13.5 15.5t-31.5 5.5t-57.5 1q-24 0 -49.5 -1t-50.5 -2t-48 -3v138q38 7 92.5 12.5t121.5 5.5q72 0 119 -9t74.5 -26.5t40.5 -43.5
t16.5 -60t3.5 -77v-302h-209l-4 56h-10q-21 -29 -42.5 -43t-44 -17.5t-47.5 -3.5zM267 129q12 0 19 2t12 6.5t7 10.5q3 7 3.5 17t0.5 23v27h-40q-20 0 -29.5 -3t-12 -13t-2.5 -31q0 -14 2 -23t11 -12.5t29 -3.5zM104 565v8l89 140h189l90 -140v-8h-134l-51 72l-49 -72h-134z
M216 739v2q0 23 4 37.5t15 23t32 13.5l15 4q12 3 17.5 5.5t7.5 7t2 11.5q0 12 -3 17t-14.5 6.5t-35.5 1.5q-13 0 -33 -1l-40 -2t-32 -3v91q27 5 66 8.5t72 3.5q41 0 75 -5t55 -28t21 -76q0 -27 -6 -43.5t-23 -26.5t-49 -19l-10 -3q-11 -3 -17.5 -6.5t-8.5 -8t-2 -10.5h-108z
" />
    <glyph glyph-name="uni1EAA" unicode="&#x1eaa;" horiz-adv-x="697" 
d="M-5 0l191 688h325l191 -688h-232l-25 103h-199l-24 -103h-227zM284 263h122l-57 237h-9zM165 743v8l89 140h189l90 -140v-8h-134l-51 72l-49 -72h-134zM144 910q0 49 4.5 84t26 54t73.5 19q30 0 61 -5.5t56 -10.5q21 -4 38 -7t28 -3q17 0 19.5 8.5t2.5 29.5h100
q0 -48 -4.5 -83.5t-26 -54.5t-73.5 -19q-30 0 -60.5 6t-56.5 10q-21 4 -38 7t-28 3q-16 0 -19 -9t-3 -29h-100z" />
    <glyph glyph-name="uni1EAB" unicode="&#x1eab;" horiz-adv-x="567" 
d="M166 -8q-46 0 -76.5 16t-46 51t-15.5 90q0 57 13 90.5t49 48t103 14.5q8 0 21.5 -0.5t30.5 -1t33.5 -1t30.5 -1.5v17q0 20 -3.5 31t-13.5 15.5t-31.5 5.5t-57.5 1q-24 0 -49.5 -1t-50.5 -2t-48 -3v138q38 7 92.5 12.5t121.5 5.5q72 0 119 -9t74.5 -26.5t40.5 -43.5
t16.5 -60t3.5 -77v-302h-209l-4 56h-10q-21 -29 -42.5 -43t-44 -17.5t-47.5 -3.5zM267 129q12 0 19 2t12 6.5t7 10.5q3 7 3.5 17t0.5 23v27h-40q-20 0 -29.5 -3t-12 -13t-2.5 -31q0 -14 2 -23t11 -12.5t29 -3.5zM104 565v8l89 140h189l90 -140v-8h-134l-51 72l-49 -72h-134z
M83 732q0 49 4.5 84t26 54t73.5 19q30 0 61 -5.5t56 -10.5q21 -4 38 -7t28 -3q17 0 19.5 8.5t2.5 29.5h100q0 -48 -4.5 -83.5t-26 -54.5t-73.5 -19q-30 0 -60.5 6t-56.5 10q-21 4 -38 7t-28 3q-16 0 -19 -9t-3 -29h-100z" />
    <glyph glyph-name="uni1EAC" unicode="&#x1eac;" horiz-adv-x="697" 
d="M-5 0l191 688h325l191 -688h-232l-25 103h-199l-24 -103h-227zM284 263h122l-57 237h-9zM267 -233v148h164v-148h-164zM165 743v8l89 140h189l90 -140v-8h-134l-51 72l-49 -72h-134z" />
    <glyph glyph-name="uni1EAD" unicode="&#x1ead;" horiz-adv-x="567" 
d="M166 -8q-46 0 -76.5 16t-46 51t-15.5 90q0 57 13 90.5t49 48t103 14.5q8 0 21.5 -0.5t30.5 -1t33.5 -1t30.5 -1.5v17q0 20 -3.5 31t-13.5 15.5t-31.5 5.5t-57.5 1q-24 0 -49.5 -1t-50.5 -2t-48 -3v138q38 7 92.5 12.5t121.5 5.5q72 0 119 -9t74.5 -26.5t40.5 -43.5
t16.5 -60t3.5 -77v-302h-209l-4 56h-10q-21 -29 -42.5 -43t-44 -17.5t-47.5 -3.5zM267 129q12 0 19 2t12 6.5t7 10.5q3 7 3.5 17t0.5 23v27h-40q-20 0 -29.5 -3t-12 -13t-2.5 -31q0 -14 2 -23t11 -12.5t29 -3.5zM202 -233v148h164v-148h-164zM104 565v8l89 140h189l90 -140
v-8h-134l-51 72l-49 -72h-134z" />
    <glyph glyph-name="uni1EAE" unicode="&#x1eae;" horiz-adv-x="697" 
d="M-5 0l191 688h325l191 -688h-232l-25 103h-199l-24 -103h-227zM284 263h122l-57 237h-9zM348 739q-51 0 -83 11t-49 31.5t-23 48.5t-6 61h111q0 -13 2 -24t12.5 -17.5t35.5 -6.5q26 0 36.5 6.5t12.5 17.5t2 24h111q0 -33 -6.5 -61t-23.5 -48.5t-49 -31.5t-83 -11z
M243 918v5l86 143h198v-5l-136 -143h-148z" />
    <glyph glyph-name="uni1EAF" unicode="&#x1eaf;" horiz-adv-x="567" 
d="M166 -8q-46 0 -76.5 16t-46 51t-15.5 90q0 57 13 90.5t49 48t103 14.5q8 0 21.5 -0.5t30.5 -1t33.5 -1t30.5 -1.5v17q0 20 -3.5 31t-13.5 15.5t-31.5 5.5t-57.5 1q-24 0 -49.5 -1t-50.5 -2t-48 -3v138q38 7 92.5 12.5t121.5 5.5q72 0 119 -9t74.5 -26.5t40.5 -43.5
t16.5 -60t3.5 -77v-302h-209l-4 56h-10q-21 -29 -42.5 -43t-44 -17.5t-47.5 -3.5zM267 129q12 0 19 2t12 6.5t7 10.5q3 7 3.5 17t0.5 23v27h-40q-20 0 -29.5 -3t-12 -13t-2.5 -31q0 -14 2 -23t11 -12.5t29 -3.5zM287 561q-51 0 -83 11t-49 31.5t-23 48.5t-6 61h111
q0 -13 2 -24t12.5 -17.5t35.5 -6.5q26 0 36.5 6.5t12.5 17.5t2 24h111q0 -33 -6.5 -61t-23.5 -48.5t-49 -31.5t-83 -11zM166 740v5l86 143h198v-5l-136 -143h-148z" />
    <glyph glyph-name="uni1EB0" unicode="&#x1eb0;" horiz-adv-x="697" 
d="M-5 0l191 688h325l191 -688h-232l-25 103h-199l-24 -103h-227zM284 263h122l-57 237h-9zM348 739q-51 0 -83 11t-49 31.5t-23 48.5t-6 61h111q0 -13 2 -24t12.5 -17.5t35.5 -6.5q26 0 36.5 6.5t12.5 17.5t2 24h111q0 -33 -6.5 -61t-23.5 -48.5t-49 -31.5t-83 -11z
M286 918l-136 143v5h198l86 -143v-5h-148z" />
    <glyph glyph-name="uni1EB1" unicode="&#x1eb1;" horiz-adv-x="567" 
d="M166 -8q-46 0 -76.5 16t-46 51t-15.5 90q0 57 13 90.5t49 48t103 14.5q8 0 21.5 -0.5t30.5 -1t33.5 -1t30.5 -1.5v17q0 20 -3.5 31t-13.5 15.5t-31.5 5.5t-57.5 1q-24 0 -49.5 -1t-50.5 -2t-48 -3v138q38 7 92.5 12.5t121.5 5.5q72 0 119 -9t74.5 -26.5t40.5 -43.5
t16.5 -60t3.5 -77v-302h-209l-4 56h-10q-21 -29 -42.5 -43t-44 -17.5t-47.5 -3.5zM267 129q12 0 19 2t12 6.5t7 10.5q3 7 3.5 17t0.5 23v27h-40q-20 0 -29.5 -3t-12 -13t-2.5 -31q0 -14 2 -23t11 -12.5t29 -3.5zM287 561q-51 0 -83 11t-49 31.5t-23 48.5t-6 61h111
q0 -13 2 -24t12.5 -17.5t35.5 -6.5q26 0 36.5 6.5t12.5 17.5t2 24h111q0 -33 -6.5 -61t-23.5 -48.5t-49 -31.5t-83 -11zM225 740l-136 143v5h198l86 -143v-5h-148z" />
    <glyph glyph-name="uni1EB2" unicode="&#x1eb2;" horiz-adv-x="697" 
d="M-5 0l191 688h325l191 -688h-232l-25 103h-199l-24 -103h-227zM284 263h122l-57 237h-9zM348 739q-51 0 -83 11t-49 31.5t-23 48.5t-6 61h111q0 -13 2 -24t12.5 -17.5t35.5 -6.5q26 0 36.5 6.5t12.5 17.5t2 24h111q0 -33 -6.5 -61t-23.5 -48.5t-49 -31.5t-83 -11z
M277 914v2q0 23 4 37.5t15 23t32 13.5l15 4q12 3 17.5 5.5t7.5 7t2 11.5q0 12 -3 17t-14.5 6.5t-35.5 1.5q-13 0 -33 -1l-40 -2t-32 -3v91q27 5 66 8.5t72 3.5q41 0 75 -5t55 -28t21 -76q0 -27 -6 -43.5t-23 -26.5t-49 -19l-10 -3q-11 -3 -17.5 -6.5t-8.5 -8t-2 -10.5h-108z
" />
    <glyph glyph-name="uni1EB3" unicode="&#x1eb3;" horiz-adv-x="567" 
d="M166 -8q-46 0 -76.5 16t-46 51t-15.5 90q0 57 13 90.5t49 48t103 14.5q8 0 21.5 -0.5t30.5 -1t33.5 -1t30.5 -1.5v17q0 20 -3.5 31t-13.5 15.5t-31.5 5.5t-57.5 1q-24 0 -49.5 -1t-50.5 -2t-48 -3v138q38 7 92.5 12.5t121.5 5.5q72 0 119 -9t74.5 -26.5t40.5 -43.5
t16.5 -60t3.5 -77v-302h-209l-4 56h-10q-21 -29 -42.5 -43t-44 -17.5t-47.5 -3.5zM267 129q12 0 19 2t12 6.5t7 10.5q3 7 3.5 17t0.5 23v27h-40q-20 0 -29.5 -3t-12 -13t-2.5 -31q0 -14 2 -23t11 -12.5t29 -3.5zM287 561q-51 0 -83 11t-49 31.5t-23 48.5t-6 61h111
q0 -13 2 -24t12.5 -17.5t35.5 -6.5q26 0 36.5 6.5t12.5 17.5t2 24h111q0 -33 -6.5 -61t-23.5 -48.5t-49 -31.5t-83 -11zM216 736v2q0 23 4 37.5t15 23t32 13.5l15 4q12 3 17.5 5.5t7.5 7t2 11.5q0 12 -3 17t-14.5 6.5t-35.5 1.5q-13 0 -33 -1l-40 -2t-32 -3v91q27 5 66 8.5
t72 3.5q41 0 75 -5t55 -28t21 -76q0 -27 -6 -43.5t-23 -26.5t-49 -19l-10 -3q-11 -3 -17.5 -6.5t-8.5 -8t-2 -10.5h-108z" />
    <glyph glyph-name="uni1EB4" unicode="&#x1eb4;" horiz-adv-x="697" 
d="M-5 0l191 688h325l191 -688h-232l-25 103h-199l-24 -103h-227zM284 263h122l-57 237h-9zM348 739q-51 0 -83 11t-49 31.5t-23 48.5t-6 61h111q0 -13 2 -24t12.5 -17.5t35.5 -6.5q26 0 36.5 6.5t12.5 17.5t2 24h111q0 -33 -6.5 -61t-23.5 -48.5t-49 -31.5t-83 -11z
M144 907q0 49 4.5 84t26 54t73.5 19q30 0 61 -5.5t56 -10.5q21 -4 38 -7t28 -3q17 0 19.5 8.5t2.5 29.5h100q0 -48 -4.5 -83.5t-26 -54.5t-73.5 -19q-30 0 -60.5 6t-56.5 10q-21 4 -38 7t-28 3q-16 0 -19 -9t-3 -29h-100z" />
    <glyph glyph-name="uni1EB5" unicode="&#x1eb5;" horiz-adv-x="567" 
d="M166 -8q-46 0 -76.5 16t-46 51t-15.5 90q0 57 13 90.5t49 48t103 14.5q8 0 21.5 -0.5t30.5 -1t33.5 -1t30.5 -1.5v17q0 20 -3.5 31t-13.5 15.5t-31.5 5.5t-57.5 1q-24 0 -49.5 -1t-50.5 -2t-48 -3v138q38 7 92.5 12.5t121.5 5.5q72 0 119 -9t74.5 -26.5t40.5 -43.5
t16.5 -60t3.5 -77v-302h-209l-4 56h-10q-21 -29 -42.5 -43t-44 -17.5t-47.5 -3.5zM267 129q12 0 19 2t12 6.5t7 10.5q3 7 3.5 17t0.5 23v27h-40q-20 0 -29.5 -3t-12 -13t-2.5 -31q0 -14 2 -23t11 -12.5t29 -3.5zM287 561q-51 0 -83 11t-49 31.5t-23 48.5t-6 61h111
q0 -13 2 -24t12.5 -17.5t35.5 -6.5q26 0 36.5 6.5t12.5 17.5t2 24h111q0 -33 -6.5 -61t-23.5 -48.5t-49 -31.5t-83 -11zM83 729q0 49 4.5 84t26 54t73.5 19q30 0 61 -5.5t56 -10.5q21 -4 38 -7t28 -3q17 0 19.5 8.5t2.5 29.5h100q0 -48 -4.5 -83.5t-26 -54.5t-73.5 -19
q-30 0 -60.5 6t-56.5 10q-21 4 -38 7t-28 3q-16 0 -19 -9t-3 -29h-100z" />
    <glyph glyph-name="uni1EB6" unicode="&#x1eb6;" horiz-adv-x="697" 
d="M-5 0l191 688h325l191 -688h-232l-25 103h-199l-24 -103h-227zM284 263h122l-57 237h-9zM267 -233v148h164v-148h-164zM348 739q-51 0 -83 11t-49 31.5t-23 48.5t-6 61h111q0 -13 2 -24t12.5 -17.5t35.5 -6.5q26 0 36.5 6.5t12.5 17.5t2 24h111q0 -33 -6.5 -61
t-23.5 -48.5t-49 -31.5t-83 -11z" />
    <glyph glyph-name="uni1EB7" unicode="&#x1eb7;" horiz-adv-x="567" 
d="M166 -8q-46 0 -76.5 16t-46 51t-15.5 90q0 57 13 90.5t49 48t103 14.5q8 0 21.5 -0.5t30.5 -1t33.5 -1t30.5 -1.5v17q0 20 -3.5 31t-13.5 15.5t-31.5 5.5t-57.5 1q-24 0 -49.5 -1t-50.5 -2t-48 -3v138q38 7 92.5 12.5t121.5 5.5q72 0 119 -9t74.5 -26.5t40.5 -43.5
t16.5 -60t3.5 -77v-302h-209l-4 56h-10q-21 -29 -42.5 -43t-44 -17.5t-47.5 -3.5zM267 129q12 0 19 2t12 6.5t7 10.5q3 7 3.5 17t0.5 23v27h-40q-20 0 -29.5 -3t-12 -13t-2.5 -31q0 -14 2 -23t11 -12.5t29 -3.5zM202 -233v148h164v-148h-164zM287 561q-51 0 -83 11t-49 31.5
t-23 48.5t-6 61h111q0 -13 2 -24t12.5 -17.5t35.5 -6.5q26 0 36.5 6.5t12.5 17.5t2 24h111q0 -33 -6.5 -61t-23.5 -48.5t-49 -31.5t-83 -11z" />
    <glyph glyph-name="uni1EB8" unicode="&#x1eb8;" horiz-adv-x="603" 
d="M51 0v688h504v-167h-271v-92h224v-163h-224v-99h271v-167h-504zM226 -233v148h164v-148h-164z" />
    <glyph glyph-name="uni1EB9" unicode="&#x1eb9;" horiz-adv-x="558" 
d="M303 -8q-79 0 -130 9.5t-80 29t-42.5 50.5t-17 74t-3.5 99q0 71 6 121t29.5 81.5t74.5 46.5t141 15q73 0 118.5 -8.5t71 -27t36.5 -49t13.5 -75t2.5 -104.5v-39h-284q0 -27 3 -42t14 -21.5t34.5 -8t63.5 -1.5q17 0 41 1t52.5 2.5t55.5 3.5v-137q-20 -6 -52.5 -10.5
t-71 -7t-76.5 -2.5zM325 284v16q0 30 -1 47t-5.5 24.5t-13.5 9.5t-24 2q-14 0 -22.5 -2t-12.5 -9.5t-5.5 -24.5t-1.5 -47h102zM197 -233v148h164v-148h-164z" />
    <glyph glyph-name="uni1EBA" unicode="&#x1eba;" horiz-adv-x="603" 
d="M51 0v688h504v-167h-271v-92h224v-163h-224v-99h271v-167h-504zM236 739v2q0 23 4 37.5t15 23t32 13.5l15 4q12 3 17.5 5.5t7.5 7t2 11.5q0 12 -3 17t-14.5 6.5t-35.5 1.5q-13 0 -33 -1l-40 -2t-32 -3v91q27 5 66 8.5t72 3.5q41 0 75 -5t55 -28t21 -76q0 -27 -6 -43.5
t-23 -26.5t-49 -19l-10 -3q-11 -3 -17.5 -6.5t-8.5 -8t-2 -10.5h-108z" />
    <glyph glyph-name="uni1EBB" unicode="&#x1ebb;" horiz-adv-x="558" 
d="M303 -8q-79 0 -130 9.5t-80 29t-42.5 50.5t-17 74t-3.5 99q0 71 6 121t29.5 81.5t74.5 46.5t141 15q73 0 118.5 -8.5t71 -27t36.5 -49t13.5 -75t2.5 -104.5v-39h-284q0 -27 3 -42t14 -21.5t34.5 -8t63.5 -1.5q17 0 41 1t52.5 2.5t55.5 3.5v-137q-20 -6 -52.5 -10.5
t-71 -7t-76.5 -2.5zM325 284v16q0 30 -1 47t-5.5 24.5t-13.5 9.5t-24 2q-14 0 -22.5 -2t-12.5 -9.5t-5.5 -24.5t-1.5 -47h102zM211 561v2q0 23 4 37.5t15 23t32 13.5l15 4q12 3 17.5 5.5t7.5 7t2 11.5q0 12 -3 17t-14.5 6.5t-35.5 1.5q-13 0 -33 -1l-40 -2t-32 -3v91
q27 5 66 8.5t72 3.5q41 0 75 -5t55 -28t21 -76q0 -27 -6 -43.5t-23 -26.5t-49 -19l-10 -3q-11 -3 -17.5 -6.5t-8.5 -8t-2 -10.5h-108z" />
    <glyph glyph-name="uni1EBC" unicode="&#x1ebc;" horiz-adv-x="603" 
d="M51 0v688h504v-167h-271v-92h224v-163h-224v-99h271v-167h-504zM103 732q0 49 4.5 84t26 54t73.5 19q30 0 61 -5.5t56 -10.5q21 -4 38 -7t28 -3q17 0 19.5 8.5t2.5 29.5h100q0 -48 -4.5 -83.5t-26 -54.5t-73.5 -19q-30 0 -60.5 6t-56.5 10q-21 4 -38 7t-28 3
q-16 0 -19 -9t-3 -29h-100z" />
    <glyph glyph-name="uni1EBD" unicode="&#x1ebd;" horiz-adv-x="558" 
d="M303 -8q-79 0 -130 9.5t-80 29t-42.5 50.5t-17 74t-3.5 99q0 71 6 121t29.5 81.5t74.5 46.5t141 15q73 0 118.5 -8.5t71 -27t36.5 -49t13.5 -75t2.5 -104.5v-39h-284q0 -27 3 -42t14 -21.5t34.5 -8t63.5 -1.5q17 0 41 1t52.5 2.5t55.5 3.5v-137q-20 -6 -52.5 -10.5
t-71 -7t-76.5 -2.5zM325 284v16q0 30 -1 47t-5.5 24.5t-13.5 9.5t-24 2q-14 0 -22.5 -2t-12.5 -9.5t-5.5 -24.5t-1.5 -47h102zM78 554q0 49 4.5 84t26 54t73.5 19q30 0 61 -5.5t56 -10.5q21 -4 38 -7t28 -3q17 0 19.5 8.5t2.5 29.5h100q0 -48 -4.5 -83.5t-26 -54.5
t-73.5 -19q-30 0 -60.5 6t-56.5 10q-21 4 -38 7t-28 3q-16 0 -19 -9t-3 -29h-100z" />
    <glyph glyph-name="uni1EBE" unicode="&#x1ebe;" horiz-adv-x="603" 
d="M51 0v688h504v-167h-271v-92h224v-163h-224v-99h271v-167h-504zM124 743v8l89 140h189l90 -140v-8h-134l-51 72l-49 -72h-134zM202 921v5l86 143h198v-5l-136 -143h-148z" />
    <glyph glyph-name="uni1EBF" unicode="&#x1ebf;" horiz-adv-x="558" 
d="M303 -8q-79 0 -130 9.5t-80 29t-42.5 50.5t-17 74t-3.5 99q0 71 6 121t29.5 81.5t74.5 46.5t141 15q73 0 118.5 -8.5t71 -27t36.5 -49t13.5 -75t2.5 -104.5v-39h-284q0 -27 3 -42t14 -21.5t34.5 -8t63.5 -1.5q17 0 41 1t52.5 2.5t55.5 3.5v-137q-20 -6 -52.5 -10.5
t-71 -7t-76.5 -2.5zM325 284v16q0 30 -1 47t-5.5 24.5t-13.5 9.5t-24 2q-14 0 -22.5 -2t-12.5 -9.5t-5.5 -24.5t-1.5 -47h102zM99 565v8l89 140h189l90 -140v-8h-134l-51 72l-49 -72h-134zM161 743v5l86 143h198v-5l-136 -143h-148z" />
    <glyph glyph-name="uni1EC0" unicode="&#x1ec0;" horiz-adv-x="603" 
d="M51 0v688h504v-167h-271v-92h224v-163h-224v-99h271v-167h-504zM124 743v8l89 140h189l90 -140v-8h-134l-51 72l-49 -72h-134zM229 921l-136 143v5h198l86 -143v-5h-148z" />
    <glyph glyph-name="uni1EC1" unicode="&#x1ec1;" horiz-adv-x="558" 
d="M303 -8q-79 0 -130 9.5t-80 29t-42.5 50.5t-17 74t-3.5 99q0 71 6 121t29.5 81.5t74.5 46.5t141 15q73 0 118.5 -8.5t71 -27t36.5 -49t13.5 -75t2.5 -104.5v-39h-284q0 -27 3 -42t14 -21.5t34.5 -8t63.5 -1.5q17 0 41 1t52.5 2.5t55.5 3.5v-137q-20 -6 -52.5 -10.5
t-71 -7t-76.5 -2.5zM325 284v16q0 30 -1 47t-5.5 24.5t-13.5 9.5t-24 2q-14 0 -22.5 -2t-12.5 -9.5t-5.5 -24.5t-1.5 -47h102zM99 565v8l89 140h189l90 -140v-8h-134l-51 72l-49 -72h-134zM220 743l-136 143v5h198l86 -143v-5h-148z" />
    <glyph glyph-name="uni1EC2" unicode="&#x1ec2;" horiz-adv-x="603" 
d="M51 0v688h504v-167h-271v-92h224v-163h-224v-99h271v-167h-504zM124 743v8l89 141h189l90 -141v-8h-134l-51 73l-49 -73h-134zM236 918v2q0 23 4 37.5t15 23t32 13.5l15 4q12 3 17.5 5.5t7.5 7t2 11.5q0 12 -3 17t-14.5 6.5t-35.5 1.5q-13 0 -33 -1l-40 -2t-32 -3v91
q27 5 66 8.5t72 3.5q41 0 75 -5t55 -28t21 -76q0 -27 -6 -43.5t-23 -26.5t-49 -19l-10 -3q-11 -3 -17.5 -6.5t-8.5 -8t-2 -10.5h-108z" />
    <glyph glyph-name="uni1EC3" unicode="&#x1ec3;" horiz-adv-x="558" 
d="M303 -8q-79 0 -130 9.5t-80 29t-42.5 50.5t-17 74t-3.5 99q0 71 6 121t29.5 81.5t74.5 46.5t141 15q73 0 118.5 -8.5t71 -27t36.5 -49t13.5 -75t2.5 -104.5v-39h-284q0 -27 3 -42t14 -21.5t34.5 -8t63.5 -1.5q17 0 41 1t52.5 2.5t55.5 3.5v-137q-20 -6 -52.5 -10.5
t-71 -7t-76.5 -2.5zM325 284v16q0 30 -1 47t-5.5 24.5t-13.5 9.5t-24 2q-14 0 -22.5 -2t-12.5 -9.5t-5.5 -24.5t-1.5 -47h102zM99 565v8l89 140h189l90 -140v-8h-134l-51 72l-49 -72h-134zM211 739v2q0 23 4 37.5t15 23t32 13.5l15 4q12 3 17.5 5.5t7.5 7t2 11.5q0 12 -3 17
t-14.5 6.5t-35.5 1.5q-13 0 -33 -1l-40 -2t-32 -3v91q27 5 66 8.5t72 3.5q41 0 75 -5t55 -28t21 -76q0 -27 -6 -43.5t-23 -26.5t-49 -19l-10 -3q-11 -3 -17.5 -6.5t-8.5 -8t-2 -10.5h-108z" />
    <glyph glyph-name="uni1EC4" unicode="&#x1ec4;" horiz-adv-x="603" 
d="M51 0v688h504v-167h-271v-92h224v-163h-224v-99h271v-167h-504zM124 743v8l89 140h189l90 -140v-8h-134l-51 72l-49 -72h-134zM103 910q0 49 4.5 84t26 54t73.5 19q30 0 61 -5.5t56 -10.5q21 -4 38 -7t28 -3q17 0 19.5 8.5t2.5 29.5h100q0 -48 -4.5 -83.5t-26 -54.5
t-73.5 -19q-30 0 -60.5 6t-56.5 10q-21 4 -38 7t-28 3q-16 0 -19 -9t-3 -29h-100z" />
    <glyph glyph-name="uni1EC5" unicode="&#x1ec5;" horiz-adv-x="558" 
d="M303 -8q-79 0 -130 9.5t-80 29t-42.5 50.5t-17 74t-3.5 99q0 71 6 121t29.5 81.5t74.5 46.5t141 15q73 0 118.5 -8.5t71 -27t36.5 -49t13.5 -75t2.5 -104.5v-39h-284q0 -27 3 -42t14 -21.5t34.5 -8t63.5 -1.5q17 0 41 1t52.5 2.5t55.5 3.5v-137q-20 -6 -52.5 -10.5
t-71 -7t-76.5 -2.5zM325 284v16q0 30 -1 47t-5.5 24.5t-13.5 9.5t-24 2q-14 0 -22.5 -2t-12.5 -9.5t-5.5 -24.5t-1.5 -47h102zM99 565v8l89 140h189l90 -140v-8h-134l-51 72l-49 -72h-134zM78 732q0 49 4.5 84t26 54t73.5 19q30 0 61 -5.5t56 -10.5q21 -4 38 -7t28 -3
q17 0 19.5 8.5t2.5 29.5h100q0 -48 -4.5 -83.5t-26 -54.5t-73.5 -19q-30 0 -60.5 6t-56.5 10q-21 4 -38 7t-28 3q-16 0 -19 -9t-3 -29h-100z" />
    <glyph glyph-name="uni1EC6" unicode="&#x1ec6;" horiz-adv-x="603" 
d="M51 0v688h504v-167h-271v-92h224v-163h-224v-99h271v-167h-504zM226 -233v148h164v-148h-164zM124 743v8l89 140h189l90 -140v-8h-134l-51 72l-49 -72h-134z" />
    <glyph glyph-name="uni1EC7" unicode="&#x1ec7;" horiz-adv-x="558" 
d="M303 -8q-79 0 -130 9.5t-80 29t-42.5 50.5t-17 74t-3.5 99q0 71 6 121t29.5 81.5t74.5 46.5t141 15q73 0 118.5 -8.5t71 -27t36.5 -49t13.5 -75t2.5 -104.5v-39h-284q0 -27 3 -42t14 -21.5t34.5 -8t63.5 -1.5q17 0 41 1t52.5 2.5t55.5 3.5v-137q-20 -6 -52.5 -10.5
t-71 -7t-76.5 -2.5zM325 284v16q0 30 -1 47t-5.5 24.5t-13.5 9.5t-24 2q-14 0 -22.5 -2t-12.5 -9.5t-5.5 -24.5t-1.5 -47h102zM197 -233v148h164v-148h-164zM99 565v8l89 140h189l90 -140v-8h-134l-51 72l-49 -72h-134z" />
    <glyph glyph-name="uni1EC8" unicode="&#x1ec8;" horiz-adv-x="336" 
d="M51 0v688h234v-688h-234zM96 739v2q0 23 4 37.5t15 23t32 13.5l15 4q12 3 17.5 5.5t7.5 7t2 11.5q0 12 -3 17t-14.5 6.5t-35.5 1.5q-13 0 -33 -1l-40 -2t-32 -3v91q27 5 66 8.5t72 3.5q41 0 75 -5t55 -28t21 -76q0 -27 -6 -43.5t-23 -26.5t-49 -19l-10 -3
q-11 -3 -17.5 -6.5t-8.5 -8t-2 -10.5h-108z" />
    <glyph glyph-name="uni1EC9" unicode="&#x1ec9;" horiz-adv-x="306" 
d="M44 0v510h218v-510h-218zM81 561v2q0 23 4 37.5t15 23t32 13.5l15 4q12 3 17.5 5.5t7.5 7t2 11.5q0 12 -3 17t-14.5 6.5t-35.5 1.5q-13 0 -33 -1l-40 -2t-32 -3v91q27 5 66 8.5t72 3.5q41 0 75 -5t55 -28t21 -76q0 -27 -6 -43.5t-23 -26.5t-49 -19l-10 -3
q-11 -3 -17.5 -6.5t-8.5 -8t-2 -10.5h-108z" />
    <glyph glyph-name="uni1ECA" unicode="&#x1eca;" horiz-adv-x="336" 
d="M51 0v688h234v-688h-234zM86 -233v148h164v-148h-164z" />
    <glyph glyph-name="uni1ECB" unicode="&#x1ecb;" horiz-adv-x="306" 
d="M44 592v151h218v-151h-218zM44 0v510h218v-510h-218zM71 -233v148h164v-148h-164z" />
    <glyph glyph-name="uni1ECC" unicode="&#x1ecc;" horiz-adv-x="695" 
d="M347 -8q-91 0 -148.5 11t-89.5 35t-46.5 65t-17.5 100.5t-3 140.5t3 140.5t17.5 100.5t46.5 65t89.5 35t148.5 11t148.5 -11t90 -35t46.5 -65t17.5 -100.5t3.5 -140.5t-3.5 -140.5t-17.5 -100.5t-46.5 -65t-90 -35t-148.5 -11zM347 159q21 0 34.5 2t21 11t10.5 28.5
t4 54.5t1 89t-1 89t-4 54.5t-10.5 28.5t-21 11t-34.5 2t-34.5 -2t-20.5 -11t-10.5 -28.5t-4 -54.5t-0.5 -89t0.5 -89t4 -54.5t10.5 -28.5t20.5 -11t34.5 -2zM266 -233v148h164v-148h-164z" />
    <glyph glyph-name="uni1ECD" unicode="&#x1ecd;" horiz-adv-x="571" 
d="M285 -8q-73 0 -120.5 7.5t-75 25.5t-40 48.5t-16 75t-3.5 106.5t3.5 106.5t16 75t40 48.5t75 25.5t120.5 7.5t120.5 -7.5t75 -25.5t40.5 -48.5t16.5 -75t3.5 -106.5t-3.5 -106.5t-16.5 -75t-40.5 -48.5t-75 -25.5t-120.5 -7.5zM285 142q16 0 24.5 2.5t12.5 13.5t5 34
t1 63q0 41 -1 63.5t-5 33.5t-12.5 13.5t-24.5 2.5t-24.5 -2.5t-12 -13.5t-4.5 -33.5t-1 -63.5q0 -40 1 -63t4.5 -34t12 -13.5t24.5 -2.5zM204 -233v148h164v-148h-164z" />
    <glyph glyph-name="uni1ECE" unicode="&#x1ece;" horiz-adv-x="695" 
d="M347 -8q-91 0 -148.5 11t-89.5 35t-46.5 65t-17.5 100.5t-3 140.5t3 140.5t17.5 100.5t46.5 65t89.5 35t148.5 11t148.5 -11t90 -35t46.5 -65t17.5 -100.5t3.5 -140.5t-3.5 -140.5t-17.5 -100.5t-46.5 -65t-90 -35t-148.5 -11zM347 159q21 0 34.5 2t21 11t10.5 28.5
t4 54.5t1 89t-1 89t-4 54.5t-10.5 28.5t-21 11t-34.5 2t-34.5 -2t-20.5 -11t-10.5 -28.5t-4 -54.5t-0.5 -89t0.5 -89t4 -54.5t10.5 -28.5t20.5 -11t34.5 -2zM276 739v2q0 23 4 37.5t15 23t32 13.5l15 4q12 3 17.5 5.5t7.5 7t2 11.5q0 12 -3 17t-14.5 6.5t-35.5 1.5
q-13 0 -33 -1l-40 -2t-32 -3v91q27 5 66 8.5t72 3.5q41 0 75 -5t55 -28t21 -76q0 -27 -6 -43.5t-23 -26.5t-49 -19l-10 -3q-11 -3 -17.5 -6.5t-8.5 -8t-2 -10.5h-108z" />
    <glyph glyph-name="uni1ECF" unicode="&#x1ecf;" horiz-adv-x="571" 
d="M285 -8q-73 0 -120.5 7.5t-75 25.5t-40 48.5t-16 75t-3.5 106.5t3.5 106.5t16 75t40 48.5t75 25.5t120.5 7.5t120.5 -7.5t75 -25.5t40.5 -48.5t16.5 -75t3.5 -106.5t-3.5 -106.5t-16.5 -75t-40.5 -48.5t-75 -25.5t-120.5 -7.5zM285 142q16 0 24.5 2.5t12.5 13.5t5 34
t1 63q0 41 -1 63.5t-5 33.5t-12.5 13.5t-24.5 2.5t-24.5 -2.5t-12 -13.5t-4.5 -33.5t-1 -63.5q0 -40 1 -63t4.5 -34t12 -13.5t24.5 -2.5zM214 561v2q0 23 4 37.5t15 23t32 13.5l15 4q12 3 17.5 5.5t7.5 7t2 11.5q0 12 -3 17t-14.5 6.5t-35.5 1.5q-13 0 -33 -1l-40 -2t-32 -3
v91q27 5 66 8.5t72 3.5q41 0 75 -5t55 -28t21 -76q0 -27 -6 -43.5t-23 -26.5t-49 -19l-10 -3q-11 -3 -17.5 -6.5t-8.5 -8t-2 -10.5h-108z" />
    <glyph glyph-name="uni1ED0" unicode="&#x1ed0;" horiz-adv-x="695" 
d="M347 -8q-91 0 -148.5 11t-89.5 35t-46.5 65t-17.5 100.5t-3 140.5t3 140.5t17.5 100.5t46.5 65t89.5 35t148.5 11t148.5 -11t90 -35t46.5 -65t17.5 -100.5t3.5 -140.5t-3.5 -140.5t-17.5 -100.5t-46.5 -65t-90 -35t-148.5 -11zM347 159q21 0 34.5 2t21 11t10.5 28.5
t4 54.5t1 89t-1 89t-4 54.5t-10.5 28.5t-21 11t-34.5 2t-34.5 -2t-20.5 -11t-10.5 -28.5t-4 -54.5t-0.5 -89t0.5 -89t4 -54.5t10.5 -28.5t20.5 -11t34.5 -2zM164 743v8l89 140h189l90 -140v-8h-134l-51 72l-49 -72h-134zM242 921v5l86 143h198v-5l-136 -143h-148z" />
    <glyph glyph-name="uni1ED1" unicode="&#x1ed1;" horiz-adv-x="571" 
d="M285 -8q-73 0 -120.5 7.5t-75 25.5t-40 48.5t-16 75t-3.5 106.5t3.5 106.5t16 75t40 48.5t75 25.5t120.5 7.5t120.5 -7.5t75 -25.5t40.5 -48.5t16.5 -75t3.5 -106.5t-3.5 -106.5t-16.5 -75t-40.5 -48.5t-75 -25.5t-120.5 -7.5zM285 142q16 0 24.5 2.5t12.5 13.5t5 34
t1 63q0 41 -1 63.5t-5 33.5t-12.5 13.5t-24.5 2.5t-24.5 -2.5t-12 -13.5t-4.5 -33.5t-1 -63.5q0 -40 1 -63t4.5 -34t12 -13.5t24.5 -2.5zM102 565v8l89 140h189l90 -140v-8h-134l-51 72l-49 -72h-134zM164 743v5l86 143h198v-5l-136 -143h-148z" />
    <glyph glyph-name="uni1ED2" unicode="&#x1ed2;" horiz-adv-x="695" 
d="M347 -8q-91 0 -148.5 11t-89.5 35t-46.5 65t-17.5 100.5t-3 140.5t3 140.5t17.5 100.5t46.5 65t89.5 35t148.5 11t148.5 -11t90 -35t46.5 -65t17.5 -100.5t3.5 -140.5t-3.5 -140.5t-17.5 -100.5t-46.5 -65t-90 -35t-148.5 -11zM347 159q21 0 34.5 2t21 11t10.5 28.5
t4 54.5t1 89t-1 89t-4 54.5t-10.5 28.5t-21 11t-34.5 2t-34.5 -2t-20.5 -11t-10.5 -28.5t-4 -54.5t-0.5 -89t0.5 -89t4 -54.5t10.5 -28.5t20.5 -11t34.5 -2zM164 743v8l89 140h189l90 -140v-8h-134l-51 72l-49 -72h-134zM269 921l-136 143v5h198l86 -143v-5h-148z" />
    <glyph glyph-name="uni1ED3" unicode="&#x1ed3;" horiz-adv-x="571" 
d="M285 -8q-73 0 -120.5 7.5t-75 25.5t-40 48.5t-16 75t-3.5 106.5t3.5 106.5t16 75t40 48.5t75 25.5t120.5 7.5t120.5 -7.5t75 -25.5t40.5 -48.5t16.5 -75t3.5 -106.5t-3.5 -106.5t-16.5 -75t-40.5 -48.5t-75 -25.5t-120.5 -7.5zM285 142q16 0 24.5 2.5t12.5 13.5t5 34
t1 63q0 41 -1 63.5t-5 33.5t-12.5 13.5t-24.5 2.5t-24.5 -2.5t-12 -13.5t-4.5 -33.5t-1 -63.5q0 -40 1 -63t4.5 -34t12 -13.5t24.5 -2.5zM102 565v8l89 140h189l90 -140v-8h-134l-51 72l-49 -72h-134zM223 743l-136 143v5h198l86 -143v-5h-148z" />
    <glyph glyph-name="uni1ED4" unicode="&#x1ed4;" horiz-adv-x="695" 
d="M347 -8q-91 0 -148.5 11t-89.5 35t-46.5 65t-17.5 100.5t-3 140.5t3 140.5t17.5 100.5t46.5 65t89.5 35t148.5 11t148.5 -11t90 -35t46.5 -65t17.5 -100.5t3.5 -140.5t-3.5 -140.5t-17.5 -100.5t-46.5 -65t-90 -35t-148.5 -11zM347 159q21 0 34.5 2t21 11t10.5 28.5
t4 54.5t1 89t-1 89t-4 54.5t-10.5 28.5t-21 11t-34.5 2t-34.5 -2t-20.5 -11t-10.5 -28.5t-4 -54.5t-0.5 -89t0.5 -89t4 -54.5t10.5 -28.5t20.5 -11t34.5 -2zM164 743v8l89 141h189l90 -141v-8h-134l-51 73l-49 -73h-134zM276 918v2q0 23 4 37.5t15 23t32 13.5l15 4
q12 3 17.5 5.5t7.5 7t2 11.5q0 12 -3 17t-14.5 6.5t-35.5 1.5q-13 0 -33 -1l-40 -2t-32 -3v91q27 5 66 8.5t72 3.5q41 0 75 -5t55 -28t21 -76q0 -27 -6 -43.5t-23 -26.5t-49 -19l-10 -3q-11 -3 -17.5 -6.5t-8.5 -8t-2 -10.5h-108z" />
    <glyph glyph-name="uni1ED5" unicode="&#x1ed5;" horiz-adv-x="571" 
d="M285 -8q-73 0 -120.5 7.5t-75 25.5t-40 48.5t-16 75t-3.5 106.5t3.5 106.5t16 75t40 48.5t75 25.5t120.5 7.5t120.5 -7.5t75 -25.5t40.5 -48.5t16.5 -75t3.5 -106.5t-3.5 -106.5t-16.5 -75t-40.5 -48.5t-75 -25.5t-120.5 -7.5zM285 142q16 0 24.5 2.5t12.5 13.5t5 34
t1 63q0 41 -1 63.5t-5 33.5t-12.5 13.5t-24.5 2.5t-24.5 -2.5t-12 -13.5t-4.5 -33.5t-1 -63.5q0 -40 1 -63t4.5 -34t12 -13.5t24.5 -2.5zM102 565v8l89 140h189l90 -140v-8h-134l-51 72l-49 -72h-134zM214 739v2q0 23 4 37.5t15 23t32 13.5l15 4q12 3 17.5 5.5t7.5 7t2 11.5
q0 12 -3 17t-14.5 6.5t-35.5 1.5q-13 0 -33 -1l-40 -2t-32 -3v91q27 5 66 8.5t72 3.5q41 0 75 -5t55 -28t21 -76q0 -27 -6 -43.5t-23 -26.5t-49 -19l-10 -3q-11 -3 -17.5 -6.5t-8.5 -8t-2 -10.5h-108z" />
    <glyph glyph-name="uni1ED6" unicode="&#x1ed6;" horiz-adv-x="695" 
d="M347 -8q-91 0 -148.5 11t-89.5 35t-46.5 65t-17.5 100.5t-3 140.5t3 140.5t17.5 100.5t46.5 65t89.5 35t148.5 11t148.5 -11t90 -35t46.5 -65t17.5 -100.5t3.5 -140.5t-3.5 -140.5t-17.5 -100.5t-46.5 -65t-90 -35t-148.5 -11zM347 159q21 0 34.5 2t21 11t10.5 28.5
t4 54.5t1 89t-1 89t-4 54.5t-10.5 28.5t-21 11t-34.5 2t-34.5 -2t-20.5 -11t-10.5 -28.5t-4 -54.5t-0.5 -89t0.5 -89t4 -54.5t10.5 -28.5t20.5 -11t34.5 -2zM164 743v8l89 140h189l90 -140v-8h-134l-51 72l-49 -72h-134zM143 910q0 49 4.5 84t26 54t73.5 19q30 0 61 -5.5
t56 -10.5q21 -4 38 -7t28 -3q17 0 19.5 8.5t2.5 29.5h100q0 -48 -4.5 -83.5t-26 -54.5t-73.5 -19q-30 0 -60.5 6t-56.5 10q-21 4 -38 7t-28 3q-16 0 -19 -9t-3 -29h-100z" />
    <glyph glyph-name="uni1ED7" unicode="&#x1ed7;" horiz-adv-x="571" 
d="M285 -8q-73 0 -120.5 7.5t-75 25.5t-40 48.5t-16 75t-3.5 106.5t3.5 106.5t16 75t40 48.5t75 25.5t120.5 7.5t120.5 -7.5t75 -25.5t40.5 -48.5t16.5 -75t3.5 -106.5t-3.5 -106.5t-16.5 -75t-40.5 -48.5t-75 -25.5t-120.5 -7.5zM285 142q16 0 24.5 2.5t12.5 13.5t5 34
t1 63q0 41 -1 63.5t-5 33.5t-12.5 13.5t-24.5 2.5t-24.5 -2.5t-12 -13.5t-4.5 -33.5t-1 -63.5q0 -40 1 -63t4.5 -34t12 -13.5t24.5 -2.5zM102 565v8l89 140h189l90 -140v-8h-134l-51 72l-49 -72h-134zM81 732q0 49 4.5 84t26 54t73.5 19q30 0 61 -5.5t56 -10.5q21 -4 38 -7
t28 -3q17 0 19.5 8.5t2.5 29.5h100q0 -48 -4.5 -83.5t-26 -54.5t-73.5 -19q-30 0 -60.5 6t-56.5 10q-21 4 -38 7t-28 3q-16 0 -19 -9t-3 -29h-100z" />
    <glyph glyph-name="uni1ED8" unicode="&#x1ed8;" horiz-adv-x="695" 
d="M347 -8q-91 0 -148.5 11t-89.5 35t-46.5 65t-17.5 100.5t-3 140.5t3 140.5t17.5 100.5t46.5 65t89.5 35t148.5 11t148.5 -11t90 -35t46.5 -65t17.5 -100.5t3.5 -140.5t-3.5 -140.5t-17.5 -100.5t-46.5 -65t-90 -35t-148.5 -11zM347 159q21 0 34.5 2t21 11t10.5 28.5
t4 54.5t1 89t-1 89t-4 54.5t-10.5 28.5t-21 11t-34.5 2t-34.5 -2t-20.5 -11t-10.5 -28.5t-4 -54.5t-0.5 -89t0.5 -89t4 -54.5t10.5 -28.5t20.5 -11t34.5 -2zM266 -233v148h164v-148h-164zM164 743v8l89 140h189l90 -140v-8h-134l-51 72l-49 -72h-134z" />
    <glyph glyph-name="uni1ED9" unicode="&#x1ed9;" horiz-adv-x="571" 
d="M285 -8q-73 0 -120.5 7.5t-75 25.5t-40 48.5t-16 75t-3.5 106.5t3.5 106.5t16 75t40 48.5t75 25.5t120.5 7.5t120.5 -7.5t75 -25.5t40.5 -48.5t16.5 -75t3.5 -106.5t-3.5 -106.5t-16.5 -75t-40.5 -48.5t-75 -25.5t-120.5 -7.5zM285 142q16 0 24.5 2.5t12.5 13.5t5 34
t1 63q0 41 -1 63.5t-5 33.5t-12.5 13.5t-24.5 2.5t-24.5 -2.5t-12 -13.5t-4.5 -33.5t-1 -63.5q0 -40 1 -63t4.5 -34t12 -13.5t24.5 -2.5zM204 -233v148h164v-148h-164zM102 565v8l89 140h189l90 -140v-8h-134l-51 72l-49 -72h-134z" />
    <glyph glyph-name="uni1EDA" unicode="&#x1eda;" horiz-adv-x="695" 
d="M460 616v72h26q47 0 58.5 14.5t11.5 51.5v22h135v-13q0 -43 -6.5 -71.5t-27 -45t-61.5 -23.5t-110 -7h-26zM347 -8q-91 0 -148.5 11t-89.5 35t-46.5 65t-17.5 100.5t-3 140.5t3 140.5t17.5 100.5t46.5 65t89.5 35t148.5 11t148.5 -11t90 -35t46.5 -65t17.5 -100.5
t3.5 -140.5t-3.5 -140.5t-17.5 -100.5t-46.5 -65t-90 -35t-148.5 -11zM347 159q21 0 34.5 2t21 11t10.5 28.5t4 54.5t1 89t-1 89t-4 54.5t-10.5 28.5t-21 11t-34.5 2t-34.5 -2t-20.5 -11t-10.5 -28.5t-4 -54.5t-0.5 -89t0.5 -89t4 -54.5t10.5 -28.5t20.5 -11t34.5 -2z
M242 743v5l86 143h198v-5l-136 -143h-148z" />
    <glyph glyph-name="uni1EDB" unicode="&#x1edb;" horiz-adv-x="571" 
d="M343 438v72h26q47 0 58.5 14.5t11.5 51.5v22h135v-13q0 -43 -6.5 -71.5t-27 -45t-61.5 -23.5t-110 -7h-26zM285 -8q-73 0 -120.5 7.5t-75 25.5t-40 48.5t-16 75t-3.5 106.5t3.5 106.5t16 75t40 48.5t75 25.5t120.5 7.5t120.5 -7.5t75 -25.5t40.5 -48.5t16.5 -75
t3.5 -106.5t-3.5 -106.5t-16.5 -75t-40.5 -48.5t-75 -25.5t-120.5 -7.5zM285 142q16 0 24.5 2.5t12.5 13.5t5 34t1 63q0 41 -1 63.5t-5 33.5t-12.5 13.5t-24.5 2.5t-24.5 -2.5t-12 -13.5t-4.5 -33.5t-1 -63.5q0 -40 1 -63t4.5 -34t12 -13.5t24.5 -2.5zM164 565v5l86 143h198
v-5l-136 -143h-148z" />
    <glyph glyph-name="uni1EDC" unicode="&#x1edc;" horiz-adv-x="695" 
d="M460 616v72h26q47 0 58.5 14.5t11.5 51.5v22h135v-13q0 -43 -6.5 -71.5t-27 -45t-61.5 -23.5t-110 -7h-26zM347 -8q-91 0 -148.5 11t-89.5 35t-46.5 65t-17.5 100.5t-3 140.5t3 140.5t17.5 100.5t46.5 65t89.5 35t148.5 11t148.5 -11t90 -35t46.5 -65t17.5 -100.5
t3.5 -140.5t-3.5 -140.5t-17.5 -100.5t-46.5 -65t-90 -35t-148.5 -11zM347 159q21 0 34.5 2t21 11t10.5 28.5t4 54.5t1 89t-1 89t-4 54.5t-10.5 28.5t-21 11t-34.5 2t-34.5 -2t-20.5 -11t-10.5 -28.5t-4 -54.5t-0.5 -89t0.5 -89t4 -54.5t10.5 -28.5t20.5 -11t34.5 -2z
M269 743l-136 143v5h198l86 -143v-5h-148z" />
    <glyph glyph-name="uni1EDD" unicode="&#x1edd;" horiz-adv-x="571" 
d="M343 438v72h26q47 0 58.5 14.5t11.5 51.5v22h135v-13q0 -43 -6.5 -71.5t-27 -45t-61.5 -23.5t-110 -7h-26zM285 -8q-73 0 -120.5 7.5t-75 25.5t-40 48.5t-16 75t-3.5 106.5t3.5 106.5t16 75t40 48.5t75 25.5t120.5 7.5t120.5 -7.5t75 -25.5t40.5 -48.5t16.5 -75
t3.5 -106.5t-3.5 -106.5t-16.5 -75t-40.5 -48.5t-75 -25.5t-120.5 -7.5zM285 142q16 0 24.5 2.5t12.5 13.5t5 34t1 63q0 41 -1 63.5t-5 33.5t-12.5 13.5t-24.5 2.5t-24.5 -2.5t-12 -13.5t-4.5 -33.5t-1 -63.5q0 -40 1 -63t4.5 -34t12 -13.5t24.5 -2.5zM223 565l-136 143v5
h198l86 -143v-5h-148z" />
    <glyph glyph-name="uni1EDE" unicode="&#x1ede;" horiz-adv-x="695" 
d="M460 616v72h26q47 0 58.5 14.5t11.5 51.5v22h135v-13q0 -43 -6.5 -71.5t-27 -45t-61.5 -23.5t-110 -7h-26zM347 -8q-91 0 -148.5 11t-89.5 35t-46.5 65t-17.5 100.5t-3 140.5t3 140.5t17.5 100.5t46.5 65t89.5 35t148.5 11t148.5 -11t90 -35t46.5 -65t17.5 -100.5
t3.5 -140.5t-3.5 -140.5t-17.5 -100.5t-46.5 -65t-90 -35t-148.5 -11zM347 159q21 0 34.5 2t21 11t10.5 28.5t4 54.5t1 89t-1 89t-4 54.5t-10.5 28.5t-21 11t-34.5 2t-34.5 -2t-20.5 -11t-10.5 -28.5t-4 -54.5t-0.5 -89t0.5 -89t4 -54.5t10.5 -28.5t20.5 -11t34.5 -2z
M276 739v2q0 23 4 37.5t15 23t32 13.5l15 4q12 3 17.5 5.5t7.5 7t2 11.5q0 12 -3 17t-14.5 6.5t-35.5 1.5q-13 0 -33 -1l-40 -2t-32 -3v91q27 5 66 8.5t72 3.5q41 0 75 -5t55 -28t21 -76q0 -27 -6 -43.5t-23 -26.5t-49 -19l-10 -3q-11 -3 -17.5 -6.5t-8.5 -8t-2 -10.5h-108z
" />
    <glyph glyph-name="uni1EDF" unicode="&#x1edf;" horiz-adv-x="571" 
d="M343 438v72h26q47 0 58.5 14.5t11.5 51.5v22h135v-13q0 -43 -6.5 -71.5t-27 -45t-61.5 -23.5t-110 -7h-26zM285 -8q-73 0 -120.5 7.5t-75 25.5t-40 48.5t-16 75t-3.5 106.5t3.5 106.5t16 75t40 48.5t75 25.5t120.5 7.5t120.5 -7.5t75 -25.5t40.5 -48.5t16.5 -75
t3.5 -106.5t-3.5 -106.5t-16.5 -75t-40.5 -48.5t-75 -25.5t-120.5 -7.5zM285 142q16 0 24.5 2.5t12.5 13.5t5 34t1 63q0 41 -1 63.5t-5 33.5t-12.5 13.5t-24.5 2.5t-24.5 -2.5t-12 -13.5t-4.5 -33.5t-1 -63.5q0 -40 1 -63t4.5 -34t12 -13.5t24.5 -2.5zM214 561v2
q0 23 4 37.5t15 23t32 13.5l15 4q12 3 17.5 5.5t7.5 7t2 11.5q0 12 -3 17t-14.5 6.5t-35.5 1.5q-13 0 -33 -1l-40 -2t-32 -3v91q27 5 66 8.5t72 3.5q41 0 75 -5t55 -28t21 -76q0 -27 -6 -43.5t-23 -26.5t-49 -19l-10 -3q-11 -3 -17.5 -6.5t-8.5 -8t-2 -10.5h-108z" />
    <glyph glyph-name="uni1EE0" unicode="&#x1ee0;" horiz-adv-x="695" 
d="M460 616v72h26q47 0 58.5 14.5t11.5 51.5v22h135v-13q0 -43 -6.5 -71.5t-27 -45t-61.5 -23.5t-110 -7h-26zM347 -8q-91 0 -148.5 11t-89.5 35t-46.5 65t-17.5 100.5t-3 140.5t3 140.5t17.5 100.5t46.5 65t89.5 35t148.5 11t148.5 -11t90 -35t46.5 -65t17.5 -100.5
t3.5 -140.5t-3.5 -140.5t-17.5 -100.5t-46.5 -65t-90 -35t-148.5 -11zM347 159q21 0 34.5 2t21 11t10.5 28.5t4 54.5t1 89t-1 89t-4 54.5t-10.5 28.5t-21 11t-34.5 2t-34.5 -2t-20.5 -11t-10.5 -28.5t-4 -54.5t-0.5 -89t0.5 -89t4 -54.5t10.5 -28.5t20.5 -11t34.5 -2z
M143 732q0 49 4.5 84t26 54t73.5 19q30 0 61 -5.5t56 -10.5q21 -4 38 -7t28 -3q17 0 19.5 8.5t2.5 29.5h100q0 -48 -4.5 -83.5t-26 -54.5t-73.5 -19q-30 0 -60.5 6t-56.5 10q-21 4 -38 7t-28 3q-16 0 -19 -9t-3 -29h-100z" />
    <glyph glyph-name="uni1EE1" unicode="&#x1ee1;" horiz-adv-x="580" 
d="M343 438v72h26q47 0 58.5 14.5t11.5 51.5v22h135v-13q0 -43 -6.5 -71.5t-27 -45t-61.5 -23.5t-110 -7h-26zM285 -8q-73 0 -120.5 7.5t-75 25.5t-40 48.5t-16 75t-3.5 106.5t3.5 106.5t16 75t40 48.5t75 25.5t120.5 7.5t120.5 -7.5t75 -25.5t40.5 -48.5t16.5 -75
t3.5 -106.5t-3.5 -106.5t-16.5 -75t-40.5 -48.5t-75 -25.5t-120.5 -7.5zM285 142q16 0 24.5 2.5t12.5 13.5t5 34t1 63q0 41 -1 63.5t-5 33.5t-12.5 13.5t-24.5 2.5t-24.5 -2.5t-12 -13.5t-4.5 -33.5t-1 -63.5q0 -40 1 -63t4.5 -34t12 -13.5t24.5 -2.5zM128 554q0 49 4.5 84
t26 54t73.5 19q30 0 61 -5.5t56 -10.5q21 -4 38 -7t28 -3q17 0 19.5 8.5t2.5 29.5h100q0 -48 -4.5 -83.5t-26 -54.5t-73.5 -19q-30 0 -60.5 6t-56.5 10q-21 4 -38 7t-28 3q-16 0 -19 -9t-3 -29h-100z" />
    <glyph glyph-name="uni1EE2" unicode="&#x1ee2;" horiz-adv-x="695" 
d="M460 616v72h26q47 0 58.5 14.5t11.5 51.5v22h135v-13q0 -43 -6.5 -71.5t-27 -45t-61.5 -23.5t-110 -7h-26zM347 -8q-91 0 -148.5 11t-89.5 35t-46.5 65t-17.5 100.5t-3 140.5t3 140.5t17.5 100.5t46.5 65t89.5 35t148.5 11t148.5 -11t90 -35t46.5 -65t17.5 -100.5
t3.5 -140.5t-3.5 -140.5t-17.5 -100.5t-46.5 -65t-90 -35t-148.5 -11zM347 159q21 0 34.5 2t21 11t10.5 28.5t4 54.5t1 89t-1 89t-4 54.5t-10.5 28.5t-21 11t-34.5 2t-34.5 -2t-20.5 -11t-10.5 -28.5t-4 -54.5t-0.5 -89t0.5 -89t4 -54.5t10.5 -28.5t20.5 -11t34.5 -2z
M266 -233v148h164v-148h-164z" />
    <glyph glyph-name="uni1EE3" unicode="&#x1ee3;" horiz-adv-x="571" 
d="M343 438v72h26q47 0 58.5 14.5t11.5 51.5v22h135v-13q0 -43 -6.5 -71.5t-27 -45t-61.5 -23.5t-110 -7h-26zM285 -8q-73 0 -120.5 7.5t-75 25.5t-40 48.5t-16 75t-3.5 106.5t3.5 106.5t16 75t40 48.5t75 25.5t120.5 7.5t120.5 -7.5t75 -25.5t40.5 -48.5t16.5 -75
t3.5 -106.5t-3.5 -106.5t-16.5 -75t-40.5 -48.5t-75 -25.5t-120.5 -7.5zM285 142q16 0 24.5 2.5t12.5 13.5t5 34t1 63q0 41 -1 63.5t-5 33.5t-12.5 13.5t-24.5 2.5t-24.5 -2.5t-12 -13.5t-4.5 -33.5t-1 -63.5q0 -40 1 -63t4.5 -34t12 -13.5t24.5 -2.5zM204 -233v148h164
v-148h-164z" />
    <glyph glyph-name="uni1EE4" unicode="&#x1ee4;" horiz-adv-x="675" 
d="M337 -8q-85 0 -139 10.5t-84 33.5t-43.5 60.5t-16.5 92t-3 127.5v372h234v-410q0 -41 1 -64.5t5.5 -34.5t15.5 -14t30 -3q20 0 30.5 3t15.5 14t6 34.5t1 64.5v410h234v-372q0 -73 -3 -127.5t-16.5 -92t-44 -60.5t-84.5 -33.5t-139 -10.5zM256 -233v148h164v-148h-164z
" />
    <glyph glyph-name="uni1EE5" unicode="&#x1ee5;" horiz-adv-x="588" 
d="M189 -8q-49 0 -78 13t-43.5 38.5t-19 62.5t-4.5 85v319h214v-269q0 -31 1 -48t4 -24.5t10.5 -9t19.5 -1.5q14 0 21.5 1.5t10.5 9t4 24.5t1 48v269h214v-510h-207l-4 57h-10q-17 -27 -40.5 -41t-48 -19t-45.5 -5zM202 -233v148h164v-148h-164z" />
    <glyph glyph-name="uni1EE6" unicode="&#x1ee6;" horiz-adv-x="675" 
d="M337 -8q-85 0 -139 10.5t-84 33.5t-43.5 60.5t-16.5 92t-3 127.5v372h234v-410q0 -41 1 -64.5t5.5 -34.5t15.5 -14t30 -3q20 0 30.5 3t15.5 14t6 34.5t1 64.5v410h234v-372q0 -73 -3 -127.5t-16.5 -92t-44 -60.5t-84.5 -33.5t-139 -10.5zM266 739v2q0 23 4 37.5t15 23
t32 13.5l15 4q12 3 17.5 5.5t7.5 7t2 11.5q0 12 -3 17t-14.5 6.5t-35.5 1.5q-13 0 -33 -1l-40 -2t-32 -3v91q27 5 66 8.5t72 3.5q41 0 75 -5t55 -28t21 -76q0 -27 -6 -43.5t-23 -26.5t-49 -19l-10 -3q-11 -3 -17.5 -6.5t-8.5 -8t-2 -10.5h-108z" />
    <glyph glyph-name="uni1EE7" unicode="&#x1ee7;" horiz-adv-x="588" 
d="M189 -8q-49 0 -78 13t-43.5 38.5t-19 62.5t-4.5 85v319h214v-269q0 -31 1 -48t4 -24.5t10.5 -9t19.5 -1.5q14 0 21.5 1.5t10.5 9t4 24.5t1 48v269h214v-510h-207l-4 57h-10q-17 -27 -40.5 -41t-48 -19t-45.5 -5zM222 561v2q0 23 4 37.5t15 23t32 13.5l15 4q12 3 17.5 5.5
t7.5 7t2 11.5q0 12 -3 17t-14.5 6.5t-35.5 1.5q-13 0 -33 -1l-40 -2t-32 -3v91q27 5 66 8.5t72 3.5q41 0 75 -5t55 -28t21 -76q0 -27 -6 -43.5t-23 -26.5t-49 -19l-10 -3q-11 -3 -17.5 -6.5t-8.5 -8t-2 -10.5h-108z" />
    <glyph glyph-name="uni1EE8" unicode="&#x1ee8;" horiz-adv-x="675" 
d="M494 616v72h26q47 0 58.5 14.5t11.5 51.5v22h135v-13q0 -43 -6.5 -71.5t-27 -45t-61.5 -23.5t-110 -7h-26zM337 -8q-85 0 -139 10.5t-84 33.5t-43.5 60.5t-16.5 92t-3 127.5v372h234v-410q0 -41 1 -64.5t5.5 -34.5t15.5 -14t30 -3q20 0 30.5 3t15.5 14t6 34.5t1 64.5v410
h234v-372q0 -73 -3 -127.5t-16.5 -92t-44 -60.5t-84.5 -33.5t-139 -10.5zM232 743v5l86 143h198v-5l-136 -143h-148z" />
    <glyph glyph-name="uni1EE9" unicode="&#x1ee9;" horiz-adv-x="588" 
d="M402 438v72h26q47 0 58.5 14.5t11.5 51.5v22h135v-13q0 -43 -6.5 -71.5t-27 -45t-61.5 -23.5t-110 -7h-26zM189 -8q-49 0 -78 13t-43.5 38.5t-19 62.5t-4.5 85v319h214v-269q0 -31 1 -48t4 -24.5t10.5 -9t19.5 -1.5q14 0 21.5 1.5t10.5 9t4 24.5t1 48v269h214v-510h-207
l-4 57h-10q-17 -27 -40.5 -41t-48 -19t-45.5 -5zM172 565v5l86 143h198v-5l-136 -143h-148z" />
    <glyph glyph-name="uni1EEA" unicode="&#x1eea;" horiz-adv-x="675" 
d="M494 616v72h26q47 0 58.5 14.5t11.5 51.5v22h135v-13q0 -43 -6.5 -71.5t-27 -45t-61.5 -23.5t-110 -7h-26zM337 -8q-85 0 -139 10.5t-84 33.5t-43.5 60.5t-16.5 92t-3 127.5v372h234v-410q0 -41 1 -64.5t5.5 -34.5t15.5 -14t30 -3q20 0 30.5 3t15.5 14t6 34.5t1 64.5v410
h234v-372q0 -73 -3 -127.5t-16.5 -92t-44 -60.5t-84.5 -33.5t-139 -10.5zM259 743l-136 143v5h198l86 -143v-5h-148z" />
    <glyph glyph-name="uni1EEB" unicode="&#x1eeb;" horiz-adv-x="588" 
d="M402 438v72h26q47 0 58.5 14.5t11.5 51.5v22h135v-13q0 -43 -6.5 -71.5t-27 -45t-61.5 -23.5t-110 -7h-26zM189 -8q-49 0 -78 13t-43.5 38.5t-19 62.5t-4.5 85v319h214v-269q0 -31 1 -48t4 -24.5t10.5 -9t19.5 -1.5q14 0 21.5 1.5t10.5 9t4 24.5t1 48v269h214v-510h-207
l-4 57h-10q-17 -27 -40.5 -41t-48 -19t-45.5 -5zM231 565l-136 143v5h198l86 -143v-5h-148z" />
    <glyph glyph-name="uni1EEC" unicode="&#x1eec;" horiz-adv-x="675" 
d="M494 616v72h26q47 0 58.5 14.5t11.5 51.5v22h135v-13q0 -43 -6.5 -71.5t-27 -45t-61.5 -23.5t-110 -7h-26zM337 -8q-85 0 -139 10.5t-84 33.5t-43.5 60.5t-16.5 92t-3 127.5v372h234v-410q0 -41 1 -64.5t5.5 -34.5t15.5 -14t30 -3q20 0 30.5 3t15.5 14t6 34.5t1 64.5v410
h234v-372q0 -73 -3 -127.5t-16.5 -92t-44 -60.5t-84.5 -33.5t-139 -10.5zM266 739v2q0 23 4 37.5t15 23t32 13.5l15 4q12 3 17.5 5.5t7.5 7t2 11.5q0 12 -3 17t-14.5 6.5t-35.5 1.5q-13 0 -33 -1l-40 -2t-32 -3v91q27 5 66 8.5t72 3.5q41 0 75 -5t55 -28t21 -76
q0 -27 -6 -43.5t-23 -26.5t-49 -19l-10 -3q-11 -3 -17.5 -6.5t-8.5 -8t-2 -10.5h-108z" />
    <glyph glyph-name="uni1EED" unicode="&#x1eed;" horiz-adv-x="588" 
d="M402 438v72h26q47 0 58.5 14.5t11.5 51.5v22h135v-13q0 -43 -6.5 -71.5t-27 -45t-61.5 -23.5t-110 -7h-26zM189 -8q-49 0 -78 13t-43.5 38.5t-19 62.5t-4.5 85v319h214v-269q0 -31 1 -48t4 -24.5t10.5 -9t19.5 -1.5q14 0 21.5 1.5t10.5 9t4 24.5t1 48v269h214v-510h-207
l-4 57h-10q-17 -27 -40.5 -41t-48 -19t-45.5 -5zM222 561v2q0 23 4 37.5t15 23t32 13.5l15 4q12 3 17.5 5.5t7.5 7t2 11.5q0 12 -3 17t-14.5 6.5t-35.5 1.5q-13 0 -33 -1l-40 -2t-32 -3v91q27 5 66 8.5t72 3.5q41 0 75 -5t55 -28t21 -76q0 -27 -6 -43.5t-23 -26.5t-49 -19
l-10 -3q-11 -3 -17.5 -6.5t-8.5 -8t-2 -10.5h-108z" />
    <glyph glyph-name="uni1EEE" unicode="&#x1eee;" horiz-adv-x="675" 
d="M494 616v72h26q47 0 58.5 14.5t11.5 51.5v22h135v-13q0 -43 -6.5 -71.5t-27 -45t-61.5 -23.5t-110 -7h-26zM337 -8q-85 0 -139 10.5t-84 33.5t-43.5 60.5t-16.5 92t-3 127.5v372h234v-410q0 -41 1 -64.5t5.5 -34.5t15.5 -14t30 -3q20 0 30.5 3t15.5 14t6 34.5t1 64.5v410
h234v-372q0 -73 -3 -127.5t-16.5 -92t-44 -60.5t-84.5 -33.5t-139 -10.5zM133 732q0 49 4.5 84t26 54t73.5 19q30 0 61 -5.5t56 -10.5q21 -4 38 -7t28 -3q17 0 19.5 8.5t2.5 29.5h100q0 -48 -4.5 -83.5t-26 -54.5t-73.5 -19q-30 0 -60.5 6t-56.5 10q-21 4 -38 7t-28 3
q-16 0 -19 -9t-3 -29h-100z" />
    <glyph glyph-name="uni1EEF" unicode="&#x1eef;" horiz-adv-x="604" 
d="M402 438v72h26q47 0 58.5 14.5t11.5 51.5v22h135v-13q0 -43 -6.5 -71.5t-27 -45t-61.5 -23.5t-110 -7h-26zM189 -8q-49 0 -78 13t-43.5 38.5t-19 62.5t-4.5 85v319h214v-269q0 -31 1 -48t4 -24.5t10.5 -9t19.5 -1.5q14 0 21.5 1.5t10.5 9t4 24.5t1 48v269h214v-510h-207
l-4 57h-10q-17 -27 -40.5 -41t-48 -19t-45.5 -5zM140 554q0 49 4.5 84t26 54t73.5 19q30 0 61 -5.5t56 -10.5q21 -4 38 -7t28 -3q17 0 19.5 8.5t2.5 29.5h100q0 -48 -4.5 -83.5t-26 -54.5t-73.5 -19q-30 0 -60.5 6t-56.5 10q-21 4 -38 7t-28 3q-16 0 -19 -9t-3 -29h-100z
" />
    </font>
</defs>
</svg>
