<?xml version="1.0" standalone="no"?>
<!DOCTYPE svg PUBLIC "-//W3C//DTD SVG 1.1//EN" "http://www.w3.org/Graphics/SVG/1.1/DTD/svg11.dtd" >
<svg xmlns="http://www.w3.org/2000/svg" xmlns:xlink="http://www.w3.org/1999/xlink" version="1.1">
<metadata>
Created by FontForge 20170731 at Thu Aug  5 13:52:18 2021
 By Aleksey,,,
Copyright 2020 The Saira Project Authors (https://github.com/Omnibus-Type/Saira)
</metadata>
<defs>
<font id="Saira-ExtraLight" horiz-adv-x="0" >
  <font-face 
    font-family="Saira ExtraLight"
    font-weight="250"
    font-stretch="normal"
    units-per-em="1000"
    panose-1="0 0 0 0 0 0 0 0 0 0"
    ascent="800"
    descent="-200"
    x-height="510"
    cap-height="688"
    bbox="-181 -394 1240 1163"
    underline-thickness="35"
    underline-position="-211"
    unicode-range="U+000D-FB02"
  />
<missing-glyph horiz-adv-x="500" 
d="M0 0v700h500v-700h-500zM225 99v70h60v-70h-60zM50 50h400v600h-400v-600zM229 215v63q0 32 16.5 52t37.5 37t38.5 38.5t17.5 59.5q0 14 -6 34.5t-25 36.5t-58 16q-34 0 -53.5 -12t-29 -29.5t-12.5 -33.5t-3 -25v-28h-49q-1 5 -2.5 14t-1.5 17q0 9 4 32.5t19 50
t45.5 45.5t82.5 19q53 0 82 -19t42 -44t16 -46t3 -26q0 -50 -22 -79.5t-45 -49.5q-17 -14 -30.5 -29.5t-13.5 -40.5v-53h-53z" />
    <glyph glyph-name="fi" unicode="fi" horiz-adv-x="590" 
d="M136 0v469h-107v41h107v107q0 34 7 57t21.5 36.5t36.5 21t51 9.5t65 2v-38q-40 0 -66 -3.5t-41 -12t-21.5 -24.5t-6.5 -40v-115h135v-41h-135v-469h-46zM448 0v510h46v-510h-46zM444 675v68h53v-68h-53z" />
    <glyph glyph-name="fl" unicode="fl" horiz-adv-x="570" 
d="M136 0v469h-107v41h107v107q0 34 7 57t21.5 36.5t36.5 21t51 9.5t65 2v-38q-40 0 -66 -3.5t-41 -12t-21.5 -24.5t-6.5 -40v-115h135v-41h-135v-469h-46zM428 0v743h46v-743h-46z" />
    <glyph glyph-name="f_f" unicode="ff" horiz-adv-x="642" 
d="M136 0v469h-107v41h107v107q0 34 7 57t21.5 36.5t36.5 21t51 9.5t65 2v-38q-40 0 -66 -3.5t-41 -12t-21.5 -24.5t-6.5 -40v-115h246v107q0 34 7 57t21 36.5t36 21t51 9.5t66 2v-38q-41 0 -67 -3.5t-41 -12t-21 -24.5t-6 -40v-115h135v-41h-135v-469h-46v469h-246v-469
h-46z" />
    <glyph glyph-name="f_f_i" unicode="ffi" horiz-adv-x="882" 
d="M136 0v469h-107v41h107v107q0 34 7 57t21.5 36.5t36.5 21t51 9.5t65 2v-38q-40 0 -66 -3.5t-41 -12t-21.5 -24.5t-6.5 -40v-115h246v107q0 34 7 57t21 36.5t36 21t51 9.5t66 2v-38q-41 0 -67 -3.5t-41 -12t-21 -24.5t-6 -40v-115h135v-41h-135v-469h-46v469h-246v-469
h-46zM739 0v510h46v-510h-46zM735 675v68h54v-68h-54z" />
    <glyph glyph-name="f_f_l" unicode="ffl" horiz-adv-x="862" 
d="M136 0v469h-107v41h107v107q0 34 7 57t21.5 36.5t36.5 21t51 9.5t65 2v-38q-40 0 -66 -3.5t-41 -12t-21.5 -24.5t-6.5 -40v-115h246v107q0 34 7 57t21 36.5t36 21t51 9.5t66 2v-38q-41 0 -67 -3.5t-41 -12t-21 -24.5t-6 -40v-115h135v-41h-135v-469h-46v469h-246v-469
h-46zM719 0v743h46v-743h-46z" />
    <glyph glyph-name=".notdef" horiz-adv-x="500" 
d="M0 0v700h500v-700h-500zM225 99v70h60v-70h-60zM50 50h400v600h-400v-600zM229 215v63q0 32 16.5 52t37.5 37t38.5 38.5t17.5 59.5q0 14 -6 34.5t-25 36.5t-58 16q-34 0 -53.5 -12t-29 -29.5t-12.5 -33.5t-3 -25v-28h-49q-1 5 -2.5 14t-1.5 17q0 9 4 32.5t19 50
t45.5 45.5t82.5 19q53 0 82 -19t42 -44t16 -46t3 -26q0 -50 -22 -79.5t-45 -49.5q-17 -14 -30.5 -29.5t-13.5 -40.5v-53h-53z" />
    <glyph glyph-name=".null" 
 />
    <glyph glyph-name="nonmarkingreturn" horiz-adv-x="333" 
 />
    <glyph glyph-name="CR" unicode="&#xd;" horiz-adv-x="227" 
 />
    <glyph glyph-name="space" unicode=" " horiz-adv-x="227" 
 />
    <glyph glyph-name="exclam" unicode="!" horiz-adv-x="210" 
d="M88 179q-2 43 -2.5 86.5t-2 85t-2.5 78.5t-1 68v55v136h52v-136q0 -24 -0.5 -55t-1 -68t-2 -78.5t-2.5 -85t-2 -86.5h-36zM76 0v73h59v-73h-59z" />
    <glyph glyph-name="quotedbl" unicode="&#x22;" horiz-adv-x="289" 
d="M184 452l-9 150v86h49v-86l-9 -150h-31zM74 452l-9 150v86h49v-86l-9 -150h-31z" />
    <glyph glyph-name="numbersign" unicode="#" horiz-adv-x="823" 
d="M131 0l45 199h-101v41h111l46 199h-120v40h130l48 209h41l-49 -209h194l49 209h40l-48 -209h108v-40h-117l-47 -199h127v-41h-136l-46 -199h-40l45 199h-194l-45 -199h-41zM226 240h195l46 199h-194z" />
    <glyph glyph-name="dollar" unicode="$" horiz-adv-x="537" 
d="M273 68q-32 1 -65 2t-62 3.5t-52 6.5v42q22 -3 42 -5.5t39 -3.5t40.5 -2t47.5 -1q64 -1 95.5 7.5t43 32t11.5 67.5q0 46 -6.5 66.5t-22 26.5t-41.5 8l-153 15q-45 6 -69.5 19.5t-34 41t-9.5 73.5q0 49 12.5 79.5t36.5 45.5t59 21t81 6q30 0 59 -1.5t57 -4t49 -7.5v-42
q-25 4 -54 7t-57 4.5t-53 1.5q-32 0 -58 -2t-45 -11.5t-29.5 -31t-10.5 -59.5q0 -39 6 -59t22.5 -27t44.5 -10l160 -15q41 -4 63.5 -16.5t31 -42.5t8.5 -86q0 -61 -19 -93.5t-59.5 -44t-108.5 -11.5zM250 -8v704h42v-704h-42z" />
    <glyph glyph-name="percent" unicode="%" horiz-adv-x="802" 
d="M153 0l449 688h47l-449 -688h-47zM196 311q-47 0 -75 7.5t-41 28.5t-17 58.5t-4 97.5t4 98t17 58.5t41 28.5t75 8q48 0 75.5 -8t40.5 -28.5t17 -58.5t4 -98t-4 -97.5t-17 -58.5t-40.5 -28.5t-75.5 -7.5zM196 349q33 0 52.5 3.5t29 17t12 45t2.5 88.5t-2 89t-11 45.5
t-28.5 17t-54.5 3.5q-32 0 -51.5 -3.5t-29 -17t-12.5 -45.5t-3 -89t3 -88.5t12.5 -45t29 -17t51.5 -3.5zM607 -8q-48 0 -75.5 7.5t-40.5 28.5t-17 58.5t-4 97.5t4 98t17 58.5t40.5 28.5t75.5 8t75 -8t40.5 -28.5t17 -58.5t3.5 -98t-3.5 -97.5t-17 -58.5t-40.5 -28.5
t-75 -7.5zM607 30q33 0 52 3.5t28.5 17t12.5 45t3 88.5t-2 89t-11 45.5t-28.5 17t-54.5 3.5q-33 0 -52 -3.5t-28.5 -17t-12.5 -45.5t-3 -89t3 -88.5t12.5 -45t28.5 -17t52 -3.5z" />
    <glyph glyph-name="ampersand" unicode="&#x26;" horiz-adv-x="734" 
d="M363 -8q-76 0 -127 8t-83 24.5t-49 39.5t-23 53.5t-6 66.5q0 56 14.5 88.5t42.5 50t68 26.5v4q-60 14 -89.5 50.5t-29.5 111.5q0 41 11 74.5t40.5 57t85 36.5t144.5 13q31 0 68 -2t73 -6t64 -9v-40q-30 5 -63.5 8.5t-65 5.5t-54.5 2q-85 0 -136.5 -8t-77 -25.5t-34.5 -45
t-9 -65.5q0 -22 4.5 -46.5t20 -46t48.5 -35t91 -13.5h110v-43h-110q-58 0 -92 -10t-51 -30t-22 -47t-5 -61q0 -64 26.5 -95t80 -41t135.5 -10q30 0 63 1.5t66 4.5t61 9l-28 -29v351h166v-43h-120v-318q-23 -4 -57 -8t-73.5 -6.5t-77.5 -2.5z" />
    <glyph glyph-name="quotesingle" unicode="'" horiz-adv-x="179" 
d="M74 452l-9 150v86h49v-86l-9 -150h-31z" />
    <glyph glyph-name="parenleft" unicode="(" horiz-adv-x="286" 
d="M226 -150q-31 38 -54 70t-39.5 66t-26 76t-14 99t-4.5 136t4.5 135.5t14 98.5t26 76t39.5 66t54 70h40q-26 -34 -47 -63.5t-37 -62t-27 -75t-16.5 -102t-5.5 -143.5t5.5 -143.5t16.5 -102t27 -75.5t37 -62t47 -64h-40z" />
    <glyph glyph-name="parenright" unicode=")" horiz-adv-x="286" 
d="M20 -150q26 35 47 64t37 62t27 75.5t16.5 102t5.5 143.5t-5.5 143.5t-16.5 102t-27 75t-37 62t-47 63.5h40q31 -38 54 -70t39.5 -66t26 -76t14 -98.5t4.5 -135.5t-4.5 -136t-14 -99t-26 -76t-39.5 -66t-54 -70h-40z" />
    <glyph glyph-name="asterisk" unicode="*" horiz-adv-x="439" 
d="M198 321l6 156l-133 -83l-21 37l138 73l-138 74l21 37l133 -84l-6 157h43l-7 -157l134 84l21 -37l-138 -74l138 -73l-21 -37l-133 83l6 -156h-43z" />
    <glyph glyph-name="plus" unicode="+" horiz-adv-x="540" 
d="M249 53v180h-179v40h179v180h40v-180h181v-40h-181v-180h-40z" />
    <glyph glyph-name="comma" unicode="," horiz-adv-x="187" 
d="M36 -106v26q23 0 34.5 5.5t14.5 19.5t3 38v17h-24v73h59v-77q0 -30 -3.5 -50t-13 -31.5t-26.5 -16t-44 -4.5z" />
    <glyph glyph-name="hyphen" unicode="-" horiz-adv-x="357" 
d="M64 263v45h229v-45h-229z" />
    <glyph glyph-name="period" unicode="." horiz-adv-x="187" 
d="M64 0v73h59v-73h-59z" />
    <glyph glyph-name="slash" unicode="/" horiz-adv-x="335" 
d="M-1 -55l290 798h47l-291 -798h-46z" />
    <glyph glyph-name="zero" unicode="0" horiz-adv-x="675" 
d="M337 -8q-73 0 -120 7.5t-74 28t-38.5 59.5t-14.5 101.5t-3 155.5t3 155.5t14.5 101.5t38.5 59.5t74 28t120 7.5q74 0 121 -7.5t73.5 -28t38.5 -59.5t15 -101.5t3 -155.5t-3 -155.5t-15 -101.5t-38.5 -59.5t-73.5 -28t-121 -7.5zM337 36q60 0 97.5 3.5t59 18t31.5 47.5
t12.5 91t2.5 148t-2.5 148t-12.5 91t-31.5 47.5t-59 18t-97.5 3.5q-58 0 -96 -3.5t-59.5 -18t-32 -47.5t-12.5 -91t-2 -148t2 -148t12.5 -91t32 -47.5t59.5 -18t96 -3.5z" />
    <glyph glyph-name="one" unicode="1" horiz-adv-x="368" 
d="M194 0v629l-147 -76v47l159 88h36v-688h-48z" />
    <glyph glyph-name="two" unicode="2" horiz-adv-x="608" 
d="M78 0v73q0 56 2 92.5t12 59.5t33.5 40t66.5 36l200 86q38 17 57 33.5t26.5 40t7.5 59.5q0 57 -16 85t-56 37.5t-113 9.5q-26 0 -62 -1.5t-73.5 -4t-70.5 -5.5v41q27 4 64 7.5t77.5 5t76.5 1.5q46 0 86 -4.5t70.5 -20t47.5 -49.5t17 -93q0 -57 -12 -90.5t-39.5 -54.5
t-74.5 -42l-227 -98q-27 -12 -38 -29t-13 -43t-2 -67v-61h406v-44h-453z" />
    <glyph glyph-name="three" unicode="3" horiz-adv-x="597" 
d="M260 -8q-29 0 -64.5 2t-70 5.5t-61.5 7.5v41q34 -3 70 -6t69 -4.5t56 -1.5q65 0 111.5 9.5t71.5 40t25 93.5q0 53 -15 85.5t-47.5 47.5t-85.5 15h-136v44h136q34 0 65.5 11t53 41t21.5 88q0 62 -22.5 92.5t-68.5 39.5t-119 9q-26 0 -57.5 -1.5t-64 -4t-59.5 -6.5v41
q27 4 61 7.5t69 5.5t63 2q71 0 118.5 -10.5t75.5 -31.5t40 -55.5t12 -83.5q0 -75 -31 -112.5t-86 -48.5v-4q38 -6 66 -23.5t43.5 -52t15.5 -90.5q0 -45 -10 -81t-36.5 -61t-77 -37.5t-131.5 -12.5z" />
    <glyph glyph-name="four" unicode="4" horiz-adv-x="639" 
d="M431 0v172h-379v40l276 476h55l-276 -472h325l4 287h43v-287h107v-44h-107v-172h-48z" />
    <glyph glyph-name="five" unicode="5" horiz-adv-x="617" 
d="M285 -8q-30 0 -65.5 2t-70 5.5t-61.5 7.5v41q34 -3 70.5 -6t69 -4.5t55.5 -1.5q65 0 105.5 8t63 26.5t31 50t8.5 77.5q0 51 -9 82t-33.5 47t-69 21.5t-114.5 5.5q-16 0 -43 -2t-59.5 -5t-66.5 -8v349h392v-44h-346v-258q22 4 49 6.5t56.5 4t59.5 1.5q78 0 124 -12
t69.5 -36t31 -60t7.5 -84q0 -60 -10.5 -101.5t-38.5 -65.5t-77.5 -35.5t-127.5 -11.5z" />
    <glyph glyph-name="six" unicode="6" horiz-adv-x="650" 
d="M349 -8q-69 0 -118 7.5t-80 32t-48 75.5q-7 21 -10.5 53t-4.5 75.5t-1 99.5q0 55 1.5 99t6 79t12.5 61q16 51 47.5 77t81 35.5t120.5 9.5q25 0 57.5 -2t68.5 -5.5t70 -7.5v-41q-30 4 -63.5 6.5t-65 4t-56.5 1.5q-78 0 -124 -11.5t-69.5 -43t-31 -91.5t-7.5 -157h6
q12 13 33.5 25t63.5 19t113 7q66 0 112.5 -6t74.5 -25t40 -56.5t12 -100.5q0 -65 -9 -108t-34.5 -67.5t-73 -34.5t-124.5 -10zM341 36q61 0 100.5 4.5t61.5 20.5t30.5 47t8.5 85q0 58 -8 91t-29 48.5t-61 20t-103 4.5q-69 0 -110 -7.5t-61 -22.5t-26 -39.5t-6 -60.5
q0 -64 9.5 -102t32.5 -57.5t62 -25.5t99 -6z" />
    <glyph glyph-name="seven" unicode="7" horiz-adv-x="559" 
d="M156 0l293 644h-405v44h459v-38l-293 -650h-54z" />
    <glyph glyph-name="eight" unicode="8" horiz-adv-x="682" 
d="M341 -8q-83 0 -134 11.5t-78 36t-37 60.5t-10 84q0 61 14.5 93.5t42.5 48t68 23.5v4q-61 11 -90 49t-29 113q0 47 11.5 81.5t39.5 56.5t77 32.5t125 10.5t125 -10.5t77 -32.5t39.5 -56.5t11.5 -81.5q0 -75 -29 -113t-90 -49v-4q41 -8 68.5 -23.5t42 -48t14.5 -93.5
q0 -48 -10 -84t-37 -60.5t-78 -36t-134 -11.5zM341 36q80 0 126 10.5t65 42t19 90.5q0 48 -9 77t-32 44.5t-64 20.5t-105 5t-105 -5t-64 -20.5t-32 -44.5t-9 -77q0 -59 19 -90.5t65 -42t126 -10.5zM341 370q82 0 126 12t61 43t17 86t-16 85.5t-60 43t-128 12.5t-128 -12.5
t-60 -43t-16 -85.5t17 -86t61.5 -43t125.5 -12z" />
    <glyph glyph-name="nine" unicode="9" horiz-adv-x="650" 
d="M294 -8q-26 0 -59.5 2t-69 5.5t-67.5 7.5v41q30 -3 62.5 -6t65 -4.5t58.5 -1.5q77 0 123 11.5t69.5 43t31 91.5t7.5 157h-6q-11 -13 -33 -25t-64 -19t-113 -7q-66 0 -112 6t-74 25t-40.5 56.5t-12.5 100.5q0 65 9.5 108t34.5 67.5t72.5 34.5t124.5 10q70 0 119.5 -7
t80 -30t44.5 -71q12 -39 15 -96t3 -139q0 -55 -1.5 -100.5t-6.5 -81.5t-15 -65q-15 -46 -46 -70.5t-80 -34t-120 -9.5zM309 331q69 0 110.5 7.5t61 22.5t25.5 39.5t6 60.5q0 64 -9.5 102t-32.5 57.5t-62 25.5t-99 6q-61 0 -100.5 -4.5t-61.5 -20.5t-30.5 -47t-8.5 -85
q0 -58 8 -91t29 -48.5t61 -20t103 -4.5z" />
    <glyph glyph-name="colon" unicode=":" horiz-adv-x="187" 
d="M64 437v73h59v-73h-59zM64 0v73h59v-73h-59z" />
    <glyph glyph-name="semicolon" unicode=";" horiz-adv-x="187" 
d="M36 -106v26q23 0 34.5 5.5t14.5 19.5t3 38v17h-24v73h59v-77q0 -30 -3.5 -50t-13 -31.5t-26.5 -16t-44 -4.5zM64 437v73h59v-73h-59z" />
    <glyph glyph-name="less" unicode="&#x3c;" horiz-adv-x="541" 
d="M471 45l-400 179v58l400 179v-45l-367 -163l367 -163v-45z" />
    <glyph glyph-name="equal" unicode="=" horiz-adv-x="540" 
d="M70 333v40h400v-40h-400zM70 133v40h400v-40h-400z" />
    <glyph glyph-name="greater" unicode="&#x3e;" horiz-adv-x="541" 
d="M70 45v45l367 163l-367 163v45l400 -179v-58z" />
    <glyph glyph-name="question" unicode="?" horiz-adv-x="498" 
d="M162 179v85q0 38 7.5 57t25.5 29t48 21l30 10q44 16 64.5 30.5t27.5 40t7 72.5q0 58 -15.5 85t-51 35t-96.5 8q-15 0 -34.5 -1t-42.5 -2.5t-46.5 -3.5t-45.5 -5v42q27 4 59.5 7t63.5 5t56 2q53 0 90.5 -7t62 -25.5t36.5 -50t12 -80.5q0 -33 -2.5 -60t-11 -49t-26.5 -38.5
t-49 -27.5l-25 -8q-36 -14 -56 -22.5t-29 -17t-11.5 -20t-2.5 -32.5v-79h-45zM155 0v73h59v-73h-59z" />
    <glyph glyph-name="at" unicode="@" horiz-adv-x="925" 
d="M463 -108q-111 0 -181.5 8.5t-110 32.5t-57 68.5t-22 116t-4.5 176.5t4.5 176.5t22 116t57 68.5t110 32.5t181.5 8.5q110 0 180.5 -8.5t110 -32.5t57.5 -68.5t22 -116t4 -176.5q0 -79 -6.5 -123.5t-21.5 -65t-38.5 -25.5t-58.5 -5h-110l-3 69h-5q-11 -34 -37 -50.5
t-57.5 -21t-60.5 -4.5q-53 0 -87 10t-50.5 37t-16.5 79q0 47 11 75t39.5 40t78.5 12q14 0 45.5 -0.5t69 -1.5t66.5 -2v34q0 45 -5.5 70.5t-20 37.5t-43 16t-74.5 4q-15 0 -34 -1t-38.5 -2.5t-36 -3.5t-28.5 -4v40q31 5 71 7.5t82 2.5q55 0 88.5 -7.5t51.5 -25.5t24.5 -49
t6.5 -80v-248h85q19 0 33.5 4t24 20.5t14 54.5t4.5 107q0 102 -4 169t-19.5 107t-48.5 59t-92 25q-32 5 -75.5 7t-98.5 2q-53 0 -95 -2t-75 -6q-60 -6 -94 -25t-50 -59t-19.5 -107t-3.5 -170q0 -104 4.5 -172t22 -107t56 -58t106.5 -25q20 -2 59 -4t90 -2h58.5t50.5 0.5
t40 1t27 1.5v-34q-13 -1 -25.5 -1.5t-31.5 -1t-47.5 -0.5h-71.5zM444 106q57 0 90 13t47 44.5t14 88.5v32h-170q-39 0 -60 -5.5t-28.5 -24.5t-7.5 -59q0 -36 8.5 -55.5t34 -26.5t72.5 -7z" />
    <glyph glyph-name="A" unicode="A" horiz-adv-x="683" 
d="M37 0l278 688h53l278 -688h-51l-86 214h-336l-86 -214h-50zM190 258h302l-148 370h-5z" />
    <glyph glyph-name="B" unicode="B" horiz-adv-x="686" 
d="M111 0v688h310q68 0 106.5 -22t53.5 -60.5t15 -89.5q0 -43 -11.5 -76.5t-37 -55.5t-68.5 -30v-4q55 -9 81.5 -35.5t35 -62t8.5 -72.5q0 -33 -7 -65t-27 -58t-57.5 -41.5t-98.5 -15.5h-303zM159 44h253q55 0 86.5 15t44.5 47t13 79q0 49 -15 80.5t-46.5 46.5t-82.5 15
h-253v-283zM159 371h250q45 0 76 15.5t47 46.5t16 74q0 47 -12 77.5t-42.5 45t-84.5 14.5h-250v-273z" />
    <glyph glyph-name="C" unicode="C" horiz-adv-x="577" 
d="M356 -8q-69 0 -117 7t-77.5 27t-46 58.5t-22.5 102t-6 157.5q0 93 6 156t22.5 101.5t46 59t77.5 28t117 7.5q26 0 54 -1.5t54.5 -4.5t45.5 -7v-41q-20 3 -45 5.5t-50 3.5t-46 1q-63 0 -106 -5t-68.5 -21.5t-38.5 -50t-17 -90t-4 -141.5t4 -141.5t17 -90t38.5 -50
t68.5 -21.5t106 -5q35 0 75 3t70 7v-43q-20 -3 -47.5 -5.5t-56.5 -4t-54 -1.5z" />
    <glyph glyph-name="D" unicode="D" horiz-adv-x="692" 
d="M111 0v688h209q81 0 133.5 -7t83 -27t45.5 -58.5t19 -99.5t4 -152t-4 -152t-19 -99.5t-45.5 -58.5t-83 -27t-133.5 -7h-209zM159 44h142q73 0 120.5 3t75 17t40 46t16.5 89t4 145t-4 145t-17 89t-41 46t-75 17t-119 3h-142v-600z" />
    <glyph glyph-name="E" unicode="E" horiz-adv-x="599" 
d="M111 0v688h431v-44h-383v-274h336v-44h-336v-282h383v-44h-431z" />
    <glyph glyph-name="F" unicode="F" horiz-adv-x="562" 
d="M111 0v688h411v-44h-363v-289h326v-43h-326v-312h-48z" />
    <glyph glyph-name="G" unicode="G" horiz-adv-x="681" 
d="M371 -8q-71 0 -121 7.5t-82 28t-49.5 59.5t-24.5 101.5t-7 155.5t7 155.5t25 101.5t50.5 59.5t82 28t119.5 7.5q34 0 72.5 -2.5t74.5 -6.5t63 -10v-41q-30 5 -63 8.5t-63 5.5t-51 2q-66 0 -113 -3t-77.5 -17.5t-47.5 -47.5t-24 -90.5t-7 -149.5q0 -81 4 -136t18 -89
t40 -52.5t68 -25t106 -6.5q23 0 53.5 2t61 4.5t51.5 4.5v265h-185v43h232v-344q-32 -6 -70 -10t-75.5 -6t-67.5 -2z" />
    <glyph glyph-name="H" unicode="H" horiz-adv-x="736" 
d="M111 0v688h48v-318h418v318h48v-688h-48v326h-418v-326h-48z" />
    <glyph glyph-name="I" unicode="I" horiz-adv-x="271" 
d="M111 0v688h48v-688h-48z" />
    <glyph glyph-name="J" unicode="J" horiz-adv-x="331" 
d="M38 0v43q54 2 83 7t42 23t15.5 59.5t2.5 115.5v440h48v-420q0 -76 -2.5 -126t-11.5 -78.5t-30 -41.5t-56 -17t-91 -5z" />
    <glyph glyph-name="K" unicode="K" horiz-adv-x="666" 
d="M111 0v688h48v-317h161l252 317h54l-266 -338l269 -350h-56l-253 327h-161v-327h-48z" />
    <glyph glyph-name="L" unicode="L" horiz-adv-x="536" 
d="M111 0v688h48v-644h343v-44h-391z" />
    <glyph glyph-name="M" unicode="M" horiz-adv-x="913" 
d="M111 0v688h63l280 -614h5l280 614h62v-688h-47v602h-4l-275 -602h-39l-275 602h-4v-602h-46z" />
    <glyph glyph-name="N" unicode="N" horiz-adv-x="736" 
d="M111 0v688h48l416 -599h4v599h46v-688h-46l-417 602h-4v-602h-47z" />
    <glyph glyph-name="O" unicode="O" horiz-adv-x="724" 
d="M362 -8q-78 0 -129 7.5t-80.5 28t-43.5 59.5t-18 101.5t-4 155.5t4 155.5t18 101.5t43.5 59.5t80.5 28t129 7.5t129 -7.5t80.5 -28t43.5 -59.5t18 -101.5t4 -155.5t-4 -155.5t-18 -101.5t-43.5 -59.5t-80.5 -28t-129 -7.5zM362 36q62 0 103.5 3.5t66.5 18t37.5 47.5
t16 90.5t3.5 148.5t-3.5 148.5t-16 90.5t-37.5 47.5t-66.5 18t-103.5 3.5q-63 0 -104 -3.5t-66 -18t-37.5 -47.5t-16 -90.5t-3.5 -148.5t3.5 -148.5t16 -90.5t37.5 -47.5t66 -18t104 -3.5z" />
    <glyph glyph-name="P" unicode="P" horiz-adv-x="654" 
d="M111 0v688h292q67 0 105.5 -17t56 -46t22.5 -66.5t5 -79.5t-5 -80t-23.5 -67t-57 -46t-104.5 -17h-243v-269h-48zM159 313h235q53 0 83 11t44.5 32t18.5 52t4 71q0 39 -3.5 70t-17.5 52t-44.5 32t-84.5 11h-235v-331z" />
    <glyph glyph-name="Q" unicode="Q" horiz-adv-x="724" 
d="M593 -115l-250 333h55l252 -331v-2h-57zM362 -8q-78 0 -129 7.5t-80.5 28t-43.5 59.5t-18 101.5t-4 155.5t4 155.5t18 101.5t43.5 59.5t80.5 28t129 7.5t129 -7.5t80.5 -28t43.5 -59.5t18 -101.5t4 -155.5t-4 -155.5t-18 -101.5t-43.5 -59.5t-80.5 -28t-129 -7.5zM362 36
q62 0 103.5 3.5t66.5 18t37.5 47.5t16 90.5t3.5 148.5t-3.5 148.5t-16 90.5t-37.5 47.5t-66.5 18t-103.5 3.5q-63 0 -104 -3.5t-66 -18t-37.5 -47.5t-16 -90.5t-3.5 -148.5t3.5 -148.5t16 -90.5t37.5 -47.5t66 -18t104 -3.5z" />
    <glyph glyph-name="R" unicode="R" horiz-adv-x="684" 
d="M111 0v688h309q64 0 100.5 -16.5t53.5 -45t21.5 -64t4.5 -73.5q0 -40 -6.5 -79t-30 -68.5t-75.5 -43.5l120 -298h-53l-119 300l17 -7q-7 -2 -18 -3t-33 -1h-243v-289h-48zM159 333h239q54 0 85 11t45.5 32t19 49t4.5 64q0 35 -3.5 63.5t-16.5 49t-42 31.5t-79 11h-252
v-311z" />
    <glyph glyph-name="S" unicode="S" horiz-adv-x="634" 
d="M332 -8q-36 0 -79 1.5t-83.5 4.5t-72.5 6v45q34 -3 74.5 -6t79.5 -5t67 -2q52 0 86.5 4t62.5 19q19 11 28 29.5t11.5 43.5t2.5 53q0 43 -2.5 68.5t-13 39.5t-35.5 20t-68 11l-180 19q-48 5 -75 18.5t-39.5 35t-15.5 50.5t-3 65q0 59 14.5 95.5t44 55.5t75 26t106.5 7
q38 0 77 -1.5t73 -5t55 -7.5v-42q-27 4 -62 6.5t-70.5 4t-66.5 1.5q-60 0 -98.5 -6t-61.5 -22q-25 -16 -31.5 -45t-6.5 -68q0 -46 6 -71t27 -36t62 -15l173 -19q42 -3 73.5 -9.5t51.5 -21t30 -44.5q4 -13 6 -28.5t2.5 -34.5t0.5 -42q0 -56 -10 -93t-30 -58t-47.5 -31.5
t-62 -13t-75.5 -2.5z" />
    <glyph glyph-name="T" unicode="T" horiz-adv-x="582" 
d="M267 0v644h-229v44h506v-44h-229v-644h-48z" />
    <glyph glyph-name="U" unicode="U" horiz-adv-x="715" 
d="M358 -8q-70 0 -117 8.5t-74.5 28.5t-42 55t-18.5 87t-4 125v392h48v-423q0 -70 5.5 -114.5t25 -70t62 -35t115.5 -9.5q74 0 115.5 9.5t61.5 35t25 70t5 114.5v423h48v-392q0 -73 -4 -125t-18 -87t-41.5 -55t-74.5 -28.5t-117 -8.5z" />
    <glyph glyph-name="V" unicode="V" horiz-adv-x="663" 
d="M305 0l-268 688h52l240 -622h5l242 622h49l-267 -688h-53z" />
    <glyph glyph-name="W" unicode="W" horiz-adv-x="985" 
d="M245 0l-200 688h51l174 -612h6l192 612h51l193 -612h5l174 612h49l-200 -688h-51l-195 607h-4l-194 -607h-51z" />
    <glyph glyph-name="X" unicode="X" horiz-adv-x="674" 
d="M37 0l271 346l-267 342h59l234 -300h7l236 300h57l-268 -341l271 -347h-59l-237 304h-8l-239 -304h-57z" />
    <glyph glyph-name="Y" unicode="Y" horiz-adv-x="601" 
d="M276 0v277l-258 411h54l226 -362h7l226 362h52l-259 -411v-277h-48z" />
    <glyph glyph-name="Z" unicode="Z" horiz-adv-x="602" 
d="M58 0v41l422 603h-411v44h472v-41l-422 -603h429v-44h-490z" />
    <glyph glyph-name="bracketleft" unicode="[" horiz-adv-x="316" 
d="M111 -150v893h164v-39l-119 -4v-807l119 -4v-39h-164z" />
    <glyph glyph-name="backslash" unicode="\" horiz-adv-x="335" 
d="M290 -55l-291 798h47l290 -798h-46z" />
    <glyph glyph-name="bracketright" unicode="]" horiz-adv-x="316" 
d="M40 -150v39l119 4v807l-119 4v39h164v-893h-164z" />
    <glyph glyph-name="asciicircum" unicode="^" horiz-adv-x="467" 
d="M65 444l139 305h58l139 -305h-44l-124 274l-124 -274h-44z" />
    <glyph glyph-name="underscore" unicode="_" horiz-adv-x="344" 
d="M0 -162v40h344v-40h-344z" />
    <glyph glyph-name="grave" unicode="`" horiz-adv-x="162" 
d="M127 603l-127 133v5h56l106 -133v-5h-35z" />
    <glyph glyph-name="a" unicode="a" horiz-adv-x="573" 
d="M243 -8q-62 0 -102 11.5t-59 43t-19 92.5q0 56 13 88t46 45t93 13q11 0 35.5 -0.5t56 -1t63.5 -1t60 -1.5v42q0 54 -6.5 84.5t-24.5 46t-52 19.5t-88 4q-23 0 -53.5 -2t-59.5 -4.5t-48 -5.5v41q32 5 78.5 8.5t99.5 3.5q50 0 85.5 -5.5t58 -18t34.5 -34t17 -54.5t5 -78
v-328h-39l-3 80h-4q-15 -39 -46 -58t-68.5 -24.5t-72.5 -5.5zM249 32q34 0 65.5 3.5t55.5 15.5t37 38q13 28 18 56.5t5 64.5v37h-203q-47 0 -73 -7.5t-36 -30.5t-10 -69q0 -44 11.5 -67.5t42 -32t87.5 -8.5z" />
    <glyph glyph-name="b" unicode="b" horiz-adv-x="595" 
d="M324 -8q-39 0 -75 6t-64 25t-42 58h-4l-3 -81h-39v743h46v-305h4q13 30 36.5 47.5t59 25t82.5 7.5q61 0 100 -11.5t60 -40.5t29 -80.5t8 -130.5t-8 -130.5t-29 -80.5t-60 -40.5t-101 -11.5zM309 34q54 0 87.5 7.5t50.5 30t23 66.5t6 117t-6 117t-23 66.5t-50.5 30
t-87.5 7.5q-63 0 -99.5 -17t-50.5 -54q-11 -32 -13.5 -67.5t-2.5 -82.5q0 -45 2 -80.5t13 -67.5q14 -39 51.5 -56t99.5 -17z" />
    <glyph glyph-name="c" unicode="c" horiz-adv-x="458" 
d="M275 -8q-56 0 -92.5 9t-58.5 29t-33 50.5t-14.5 74t-3.5 99.5q0 63 4.5 107.5t17.5 75t35.5 48t56.5 25.5t83 8q34 0 71 -3t61 -9v-40q-25 4 -59.5 7.5t-61.5 3.5q-53 0 -85 -9.5t-49 -33.5t-22.5 -67.5t-5.5 -110.5q0 -70 5.5 -114.5t23 -68t50 -32t85.5 -8.5
q31 0 66 3.5t58 8.5v-41q-23 -5 -60 -8.5t-72 -3.5z" />
    <glyph glyph-name="d" unicode="d" horiz-adv-x="595" 
d="M271 -8q-62 0 -101 11.5t-60 40.5t-29 80t-8 131q0 79 8 130.5t29 80.5t59.5 40.5t100.5 11.5q47 0 82 -7.5t59 -25t36 -47.5h5v305h46v-743h-39l-3 81h-5q-14 -39 -42 -58t-64 -25t-74 -6zM286 34q62 0 99.5 17t50.5 54q12 34 14 72t2 90q0 36 -2 69.5t-11 59.5
q-16 44 -53.5 62t-104.5 18q-52 0 -84.5 -7.5t-49.5 -30t-22.5 -66.5t-5.5 -117t6 -117t23 -66.5t50 -30t88 -7.5z" />
    <glyph glyph-name="e" unicode="e" horiz-adv-x="561" 
d="M292 -8q-58 0 -97.5 7.5t-63.5 25t-37 47.5t-17 75t-4 107q0 74 5 124.5t25.5 81t65.5 44.5t124 14q56 0 92 -8.5t57 -26t31 -48.5t13 -75t3 -104v-17h-370q0 -62 5.5 -102.5t23 -63.5t54 -31.5t98.5 -8.5q26 0 56.5 1.5t60 4.5t52.5 7v-41q-20 -4 -49.5 -7t-62.5 -4.5
t-65 -1.5zM443 258v38q0 61 -7 97t-24 54.5t-47 24t-75 5.5q-58 0 -92 -7t-51.5 -28t-22.5 -60t-5 -104h344z" />
    <glyph glyph-name="f" unicode="f" horiz-adv-x="351" 
d="M136 0v469h-107v41h107v107q0 34 7 57t21.5 36.5t36.5 21t51 9.5t65 2v-38q-40 0 -66 -3.5t-41 -12t-21.5 -24.5t-6.5 -40v-115h135v-41h-135v-469h-46z" />
    <glyph glyph-name="g" unicode="g" horiz-adv-x="595" 
d="M278 -206q-32 0 -66 1t-65.5 2.5t-53.5 4.5v40q28 -2 59.5 -3.5t62 -2.5t55.5 -1q61 0 97 10t54.5 35t24.5 68t6 109v16h-5q-12 -30 -35.5 -47.5t-58.5 -25t-82 -7.5q-63 0 -101.5 11.5t-59.5 40t-29 80t-8 130.5t8 130.5t29 80.5t60 40.5t101 11.5q38 0 74 -6t64 -25
t42 -58h5l3 81h39v-439q0 -78 -7.5 -131.5t-30 -85.5t-66 -46t-116.5 -14zM286 34q63 0 100 17.5t50 57.5q11 29 13.5 65t2.5 81t-2 79.5t-11 60.5q-15 45 -53 63t-100 18q-55 0 -88 -7.5t-50 -30t-23 -66.5t-6 -117t6 -117t23 -66.5t50 -30t88 -7.5z" />
    <glyph glyph-name="h" unicode="h" horiz-adv-x="603" 
d="M97 0v743h46v-306h4q8 19 25.5 37.5t53 31t96.5 12.5q60 0 96.5 -11.5t55.5 -34.5t25.5 -61t6.5 -91v-320h-46v309q0 55 -5.5 88t-22 50.5t-46 23t-77.5 5.5q-62 0 -96 -16t-49 -44.5t-18 -67.5t-3 -84v-264h-46z" />
    <glyph glyph-name="i" unicode="i" horiz-adv-x="240" 
d="M93 675v68h54v-68h-54zM97 0v510h46v-510h-46z" />
    <glyph glyph-name="j" unicode="j" horiz-adv-x="240" 
d="M93 675v68h54v-68h-54zM-4 -200v38q47 0 68 5t27 17.5t6 34.5v615h46v-603q0 -38 -8.5 -59.5t-26.5 -31.5t-45.5 -13t-66.5 -3z" />
    <glyph glyph-name="k" unicode="k" horiz-adv-x="524" 
d="M97 0v743h46v-462h80l205 229h55l-222 -248l225 -262h-57l-206 238h-80v-238h-46z" />
    <glyph glyph-name="l" unicode="l" horiz-adv-x="240" 
d="M97 0v743h46v-743h-46z" />
    <glyph glyph-name="m" unicode="m" horiz-adv-x="890" 
d="M97 0v510h39l3 -81h4q8 24 24.5 44t49 32.5t86.5 12.5q74 0 109 -20.5t47 -68.5h5q8 24 25.5 44t51 32.5t87.5 12.5q72 0 107.5 -20t47 -63.5t11.5 -114.5v-320h-47v309q0 55 -4.5 88t-18 50.5t-40 23t-69.5 5.5q-54 0 -84.5 -14.5t-43.5 -42.5t-16 -67t-3 -88v-264h-46
v309q0 55 -4.5 88t-18.5 50.5t-40 23t-69 5.5q-55 0 -85 -16t-43 -44.5t-16 -67.5t-3 -84v-264h-46z" />
    <glyph glyph-name="n" unicode="n" horiz-adv-x="603" 
d="M97 0v510h39l3 -81h4q9 24 27.5 44t54.5 32.5t97 12.5q60 0 96.5 -11.5t55.5 -34.5t25.5 -61t6.5 -91v-320h-46v309q0 55 -5.5 88t-22 50.5t-46 23t-77.5 5.5q-62 0 -96 -16t-49 -44.5t-18 -67.5t-3 -84v-264h-46z" />
    <glyph glyph-name="o" unicode="o" horiz-adv-x="579" 
d="M290 -8q-62 0 -102 6.5t-63.5 23.5t-34.5 47t-14 75.5t-3 109.5q0 65 3 110.5t14 75.5t34.5 47t63.5 24t102 7q61 0 101 -7t63.5 -24t35 -47t14.5 -75.5t3 -110.5q0 -64 -3 -109.5t-14.5 -75.5t-35 -47t-63.5 -23.5t-101 -6.5zM290 33q64 0 99 8.5t50 31.5t18 67t3 114
q0 71 -3 115t-18 67.5t-50 32t-99 8.5t-99.5 -8.5t-50.5 -32t-18 -67.5t-3 -115q0 -70 3 -114t18 -67t50.5 -31.5t99.5 -8.5z" />
    <glyph glyph-name="p" unicode="p" horiz-adv-x="595" 
d="M97 -200v710h39l3 -81h4q14 39 42 58t64 25t75 6q62 0 101 -11.5t60 -40.5t29 -80t8 -131q0 -79 -8 -130.5t-29 -80.5t-60 -40.5t-100 -11.5q-47 0 -82.5 7.5t-59 25t-36.5 47.5h-4v-272h-46zM309 34q54 0 87.5 7.5t50.5 30t23 66.5t6 117t-6 117t-23 66.5t-50.5 30
t-87.5 7.5q-63 0 -100.5 -17.5t-51.5 -58.5q-10 -30 -12 -65.5t-2 -79.5q0 -45 2 -79.5t9 -57.5q16 -46 54 -65t101 -19z" />
    <glyph glyph-name="q" unicode="q" horiz-adv-x="595" 
d="M452 -200v272h-5q-12 -30 -36 -47.5t-59 -25t-82 -7.5q-62 0 -100.5 11.5t-59.5 40.5t-29 80t-8 131q0 79 8 130.5t29 80.5t60 40.5t101 11.5q38 0 74 -6t64 -25t42 -58h5l3 81h39v-710h-46zM286 34q63 0 100.5 18.5t52.5 61.5q9 26 11 61t2 80t-2.5 81t-14.5 70
q-12 37 -49.5 53.5t-99.5 16.5q-55 0 -88 -7.5t-50 -30t-23 -66.5t-6 -117t6 -117t23 -66.5t50 -30t88 -7.5z" />
    <glyph glyph-name="r" unicode="r" horiz-adv-x="347" 
d="M97 0v510h38l4 -106h4q12 46 37.5 71t60.5 34t77 9v-47q-72 0 -110 -25t-51.5 -74t-13.5 -120v-252h-46z" />
    <glyph glyph-name="s" unicode="s" horiz-adv-x="500" 
d="M254 -8q-26 0 -58 1.5t-62.5 4t-54.5 5.5v41q32 -3 55.5 -5t43.5 -3.5t40.5 -2t45.5 -0.5q56 0 83 10t36 32.5t9 59.5q0 43 -7 62t-22.5 24.5t-44.5 8.5l-145 15q-44 5 -68 17.5t-33 39.5t-9 70q0 50 12.5 79.5t38 44t61.5 18.5t82 4q24 0 51 -1.5t53.5 -4t47.5 -7.5v-40
q-28 4 -54 7t-52.5 4t-58.5 1q-40 0 -71 -5t-48 -25.5t-17 -68.5q0 -37 6.5 -55.5t23 -25t45.5 -9.5l142 -14q45 -4 68.5 -15.5t33.5 -39t10 -84.5q0 -45 -10.5 -73t-33 -43t-57 -21t-82.5 -6z" />
    <glyph glyph-name="t" unicode="t" horiz-adv-x="336" 
d="M136 0v469h-107v41h107v148h46v-148h125v-41h-125v-469h-46z" />
    <glyph glyph-name="u" unicode="u" horiz-adv-x="603" 
d="M281 -8q-60 0 -96.5 11.5t-55.5 34.5t-25.5 61t-6.5 91v320h46v-309q0 -54 5.5 -87.5t21.5 -51t46 -23t78 -5.5q62 0 96 16t49 44.5t18 67.5t3 84v264h46v-510h-39l-3 81h-5q-8 -24 -26.5 -44t-54.5 -32.5t-97 -12.5z" />
    <glyph glyph-name="v" unicode="v" horiz-adv-x="523" 
d="M236 0l-203 510h49l177 -452h6l177 452h48l-203 -510h-51z" />
    <glyph glyph-name="w" unicode="w" horiz-adv-x="806" 
d="M211 0l-174 510h49l148 -443h6l140 443h48l140 -443h7l146 443h48l-174 -510h-49l-140 431h-7l-138 -431h-50z" />
    <glyph glyph-name="x" unicode="x" horiz-adv-x="539" 
d="M38 0l202 259l-195 251h56l166 -213h5l167 213h55l-195 -250l203 -260h-57l-173 222h-5l-174 -222h-55z" />
    <glyph glyph-name="y" unicode="y" horiz-adv-x="603" 
d="M284 -206q-29 0 -60.5 1t-60.5 2.5t-50 3.5v41q29 -2 57.5 -3.5t55.5 -2.5t50 -1q63 0 100.5 12t55 37.5t23 65.5t5.5 96v28h-5q-6 -19 -24 -38t-53.5 -31t-96.5 -12q-60 0 -96.5 11t-55.5 34.5t-25.5 61t-6.5 91.5v319h46v-309q0 -54 5.5 -87.5t21.5 -50.5t46 -23t78 -6
q62 0 96 16t49 45t18 67.5t3 84.5v263h46v-444q0 -75 -8.5 -127.5t-31.5 -84t-67 -46t-115 -14.5z" />
    <glyph glyph-name="z" unicode="z" horiz-adv-x="499" 
d="M54 0v36l328 433h-316v41h377v-36l-327 -433h329v-41h-391z" />
    <glyph glyph-name="braceleft" unicode="{" horiz-adv-x="306" 
d="M243 -150q-22 12 -41.5 31t-34 43.5t-22.5 53t-8 58.5v115q0 31 -9.5 60.5t-33 49t-65.5 19.5v33q42 0 65.5 19.5t33 49t9.5 60.5v115q0 29 8 57.5t22.5 53.5t34 44t41.5 31h43q-22 -14 -41 -33.5t-33 -43t-22 -49t-8 -49.5v-121q0 -58 -20 -96.5t-68 -51.5v-5
q48 -13 68 -51.5t20 -96.5v-121q0 -24 8 -49.5t22 -49t33 -43t41 -33.5h-43z" />
    <glyph glyph-name="bar" unicode="|" horiz-adv-x="268" 
d="M112 -161v904h44v-904h-44z" />
    <glyph glyph-name="braceright" unicode="}" horiz-adv-x="306" 
d="M20 -150q22 14 40.5 33.5t32.5 43t22.5 49t8.5 49.5v121q0 58 20 96.5t68 51.5v5q-48 13 -68 51.5t-20 96.5v121q0 24 -8.5 49.5t-22.5 49t-32.5 43t-40.5 33.5h43q23 -12 41.5 -31t33.5 -44t23 -53.5t8 -57.5v-115q0 -31 9.5 -60.5t32.5 -49t65 -19.5v-33
q-42 0 -65 -19.5t-32.5 -49t-9.5 -60.5v-115q0 -30 -8 -58.5t-23 -53t-33.5 -43.5t-41.5 -31h-43z" />
    <glyph glyph-name="asciitilde" unicode="~" horiz-adv-x="497" 
d="M75 247q0 36 4.5 58t18.5 31.5t42 9.5q30 0 59.5 -8t59.5 -19q24 -7 49 -14.5t48 -7.5t28.5 13.5t5.5 46.5h32q0 -36 -4.5 -58t-18.5 -31.5t-42 -9.5q-30 0 -59.5 8.5t-60.5 18.5q-23 8 -48 15t-48 7q-22 0 -28 -13.5t-6 -46.5h-32z" />
    <glyph glyph-name="uni00A0" unicode="&#xa0;" horiz-adv-x="227" 
 />
    <glyph glyph-name="exclamdown" unicode="&#xa1;" horiz-adv-x="209" 
d="M79 -178v136v55t0.5 68t2 78.5t2.5 85t2 86.5h37q1 -43 2 -86.5t2 -85t2 -78.5t1 -68v-55v-136h-51zM75 437v73h59v-73h-59z" />
    <glyph glyph-name="cent" unicode="&#xa2;" horiz-adv-x="467" 
d="M278 68q-66 1 -106.5 14t-62 43.5t-29 83.5t-7.5 133q0 70 6 118t21 79.5t38.5 48.5t57.5 24t80 7q23 0 45.5 -1.5t45 -4.5t41.5 -7v-42q-23 6 -58.5 9.5t-68.5 2.5q-49 -1 -81 -9.5t-48.5 -32.5t-23.5 -69.5t-7 -120.5q0 -76 6.5 -122t24 -70t49.5 -32.5t83 -9.5
q31 0 68 4t61 10v-44q-15 -3 -36.5 -5.5t-46.5 -4.5t-52 -2zM258 -8v704h41v-704h-41z" />
    <glyph glyph-name="sterling" unicode="&#xa3;" horiz-adv-x="583" 
d="M58 0v44h74v292h-74v43h75v45q0 82 11.5 135t39.5 83t76 42t120 12q38 0 78 -3.5t64 -9.5v-41q-19 3 -43 5t-49.5 3.5t-49.5 1.5q-62 0 -101 -9.5t-60.5 -34t-29.5 -69.5t-8 -115v-45h266v-43h-266v-292h353v-44h-476z" />
    <glyph glyph-name="currency" unicode="&#xa4;" horiz-adv-x="752" 
d="M100 -15l-27 28l114 114q-19 30 -24 83t-5 133q0 81 4.5 133t23.5 83l-113 114l28 28l113 -113q24 18 63 24.5t99 6.5t99 -6.5t62 -24.5l114 113l28 -27l-114 -114q19 -31 23.5 -83.5t4.5 -133.5q0 -80 -4.5 -132.5t-23.5 -83.5l115 -114l-29 -29l-115 115
q-24 -17 -62.5 -23.5t-97.5 -6.5q-60 0 -99 6.5t-62 24.5zM376 110q64 0 99 9t50 33.5t18 70.5t3 120q0 75 -3 121t-18 71t-50 34t-99 9t-99.5 -9t-50.5 -34t-18 -71t-3 -121q0 -74 3 -120t18 -70.5t50.5 -33.5t99.5 -9z" />
    <glyph glyph-name="yen" unicode="&#xa5;" horiz-adv-x="620" 
d="M285 0v256h-212v39h193l-228 393h53l216 -383h7l216 383h52l-229 -393h193v-39h-213v-256h-48zM73 410v39h473v-39h-473z" />
    <glyph glyph-name="brokenbar" unicode="&#xa6;" horiz-adv-x="268" 
d="M112 390v353h44v-353h-44zM112 -161v353h44v-353h-44z" />
    <glyph glyph-name="section" unicode="&#xa7;" horiz-adv-x="698" 
d="M326 -171q-29 0 -61 1.5t-60 4t-47 5.5v42q22 -3 49 -5t55 -3t52 -1q58 0 98 4.5t61 25.5t21 68q0 40 -6 61.5t-21.5 33t-45.5 18.5l-245 67q-28 7 -48.5 15.5t-33.5 23t-20 37t-7 56.5q0 27 3.5 55t14.5 52.5t32.5 40.5t58.5 18q-15 21 -17.5 48t-2.5 55q0 44 14 72.5
t42 44t68 21.5t92 6q31 0 62 -1.5t59 -4t47 -5.5v-42q-33 5 -76.5 7t-79.5 2q-57 0 -97.5 -4.5t-61.5 -25t-21 -68.5q0 -40 7 -62t27.5 -34t60.5 -23l228 -62q23 -6 42 -15t33 -22.5t21.5 -36.5t7.5 -57q0 -26 -3.5 -55t-14 -53.5t-32.5 -40.5t-59 -17q15 -21 17.5 -48
t2.5 -55q0 -44 -14 -72.5t-42 -44t-67.5 -21.5t-92.5 -6zM114 297q0 -34 5.5 -53.5t20.5 -30.5t44 -18l255 -69q26 -7 41 -11t26 -4q39 0 58.5 27.5t19.5 88.5q0 34 -5.5 54t-23 31t-52.5 21l-241 64q-28 7 -43.5 11.5t-26.5 4.5q-38 0 -58 -27.5t-20 -88.5z" />
    <glyph glyph-name="dieresis" unicode="&#xa8;" horiz-adv-x="260" 
d="M0 645v65h51v-65h-51zM209 645v65h51v-65h-51z" />
    <glyph glyph-name="copyright" unicode="&#xa9;" horiz-adv-x="726" 
d="M363 -8q-81 0 -132 7t-80.5 27.5t-42.5 59.5t-16 102t-3 156t3 156t16 102t42.5 59.5t80.5 27.5t132 7t132 -7t80.5 -27.5t42.5 -59.5t16 -102t3 -156t-3 -156t-16 -102t-42.5 -59.5t-80.5 -27.5t-132 -7zM386 154q-47 0 -76.5 6.5t-44.5 25.5t-20.5 57t-5.5 101
q0 62 5.5 100t20.5 57.5t44.5 26t76.5 6.5q25 0 49 -2t37 -5v-33q-16 2 -38.5 3.5t-41.5 1.5q-40 0 -63 -4t-34.5 -19.5t-15 -47t-3.5 -84.5q0 -54 3.5 -85.5t15 -46.5t34.5 -19.5t63 -4.5q20 0 43.5 1.5t38.5 3.5v-34q-16 -2 -41 -3.5t-47 -1.5zM363 21q71 0 116 5t71 22
t37.5 52.5t14.5 94.5t3 149t-3 149t-14.5 94.5t-37.5 52.5t-71 21.5t-116 4.5t-116 -4.5t-71 -21.5t-37.5 -52.5t-14.5 -94.5t-3 -149t3 -149t14.5 -94.5t37.5 -52.5t71 -22t116 -5z" />
    <glyph glyph-name="ordfeminine" unicode="&#xaa;" horiz-adv-x="403" 
d="M174 316q-44 0 -73 8t-43 31t-14 68q0 41 9 64.5t33.5 33t68.5 9.5q12 0 37.5 -0.5t56 -1t55.5 -1.5v27q0 49 -8.5 71t-34 28t-76.5 6q-18 0 -40 -1t-42.5 -3t-34.5 -5v37q23 5 57.5 7t72.5 2q46 0 75 -6.5t45 -21.5t21 -42t5 -69v-237h-34l-5 43h-4q-13 -22 -34.5 -32
t-45.5 -12.5t-47 -2.5zM179 350q23 0 46 2.5t41 11.5t25 27q8 18 10.5 37.5t2.5 43.5v24h-139q-50 0 -66 -13t-16 -59q0 -45 19 -59.5t77 -14.5z" />
    <glyph glyph-name="guillemotleft" unicode="&#xab;" horiz-adv-x="459" 
d="M189 99l-132 205l132 206h37l-118 -206l118 -205h-37zM344 99l-132 205l132 206h38l-118 -206l118 -205h-38z" />
    <glyph glyph-name="logicalnot" unicode="&#xac;" horiz-adv-x="539" 
d="M427 53v181h-357v42h399v-223h-42z" />
    <glyph glyph-name="uni00AD" unicode="&#xad;" horiz-adv-x="357" 
d="M64 263v45h229v-45h-229z" />
    <glyph glyph-name="registered" unicode="&#xae;" horiz-adv-x="726" 
d="M363 -8q-81 0 -132 7t-80.5 27.5t-42.5 59.5t-16 102t-3 156t3 156t16 102t42.5 59.5t80.5 27.5t132 7t132 -7t80.5 -27.5t42.5 -59.5t16 -102t3 -156t-3 -156t-16 -102t-42.5 -59.5t-80.5 -27.5t-132 -7zM363 21q71 0 116 5t71 22t37.5 52.5t14.5 94.5t3 149t-3 149
t-14.5 94.5t-37.5 52.5t-71 21.5t-116 4.5t-116 -4.5t-71 -21.5t-37.5 -52.5t-14.5 -94.5t-3 -149t3 -149t14.5 -94.5t37.5 -52.5t71 -22t116 -5zM234 157v372h166q49 0 70 -16.5t26 -41.5t5 -52q0 -32 -10 -61.5t-46 -42.5l64 -158h-41l-59 152h-138v-152h-37zM271 343h117
q36 0 52.5 10t20.5 27t4 39q0 23 -4 40t-18.5 26.5t-46.5 9.5h-125v-152z" />
    <glyph glyph-name="macron" unicode="&#xaf;" horiz-adv-x="271" 
d="M0 645v37h271v-37h-271z" />
    <glyph glyph-name="degree" unicode="&#xb0;" horiz-adv-x="386" 
d="M193 397q-44 0 -69 6.5t-37 22.5t-15.5 45.5t-3.5 74.5t3.5 74.5t15.5 45.5t37 23t69 7t69 -7t37 -23t15.5 -45.5t3.5 -74.5t-3.5 -74.5t-15.5 -45.5t-37 -22.5t-69 -6.5zM193 432q43 0 60.5 8.5t21 33t3.5 72.5t-3.5 73t-21 33.5t-60.5 8.5q-42 0 -60 -8.5t-21.5 -33.5
t-3.5 -73t3.5 -72.5t21.5 -33t60 -8.5z" />
    <glyph glyph-name="plusminus" unicode="&#xb1;" horiz-adv-x="540" 
d="M249 184v180h-179v40h179v180h40v-180h181v-40h-181v-180h-40zM70 0v40h400v-40h-400z" />
    <glyph glyph-name="uni00B2" unicode="&#xb2;" horiz-adv-x="358" 
d="M44 420v43q0 43 3 66.5t17 37t45 25.5l113 44q22 9 32.5 16t13.5 18t3 30q0 28 -8.5 41.5t-30.5 17.5t-63 4q-21 0 -54.5 -1.5t-62.5 -4.5v35q24 4 60.5 6.5t69.5 2.5q37 0 66.5 -5t47.5 -25.5t18 -65.5q0 -30 -7 -49.5t-22.5 -31t-42.5 -22.5l-128 -50
q-12 -5 -18.5 -10.5t-8 -17.5t-1.5 -38v-28h228v-38h-270z" />
    <glyph glyph-name="uni00B3" unicode="&#xb3;" horiz-adv-x="352" 
d="M154 416q-25 0 -58.5 2t-59.5 6v35q29 -2 61 -4t52 -2q55 0 84.5 11t29.5 57q0 40 -19 55.5t-62 15.5h-79v37h79q20 0 37.5 5t28.5 19.5t11 42.5q0 30 -12 44.5t-37.5 18.5t-65.5 4q-22 0 -51.5 -1.5t-54.5 -4.5v35q25 4 58 6.5t59 2.5q55 0 87 -9.5t45.5 -31t13.5 -58.5
q0 -41 -18 -61.5t-50 -27.5v-2q34 -5 53.5 -24.5t19.5 -66.5q0 -34 -12 -57.5t-44.5 -35t-95.5 -11.5z" />
    <glyph glyph-name="acute" unicode="&#xb4;" horiz-adv-x="162" 
d="M0 603v5l106 134h56v-5l-127 -134h-35z" />
    <glyph glyph-name="uni00B5" unicode="&#xb5;" horiz-adv-x="603" 
d="M97 -190v700h46v-309q0 -54 5.5 -87.5t21.5 -51t46 -23t78 -5.5q62 0 96 16t49 44.5t18 67.5t3 84v264h46v-510h-39l-3 81h-5q-8 -24 -26.5 -44t-54.5 -32.5t-97 -12.5q-42 0 -73 7t-51.5 22t-33.5 40l38 -25h-18v-226h-46z" />
    <glyph glyph-name="paragraph" unicode="&#xb6;" horiz-adv-x="564" 
d="M317 -144v366q-70 0 -115 5t-71.5 18.5t-38.5 39t-15.5 67t-3.5 102.5t3.5 102.5t15.5 67.5t38.5 40t71.5 19t115 5h42v-832h-42zM425 -144v832h42v-832h-42z" />
    <glyph glyph-name="periodcentered" unicode="&#xb7;" horiz-adv-x="187" 
d="M64 263v73h59v-73h-59z" />
    <glyph glyph-name="cedilla" unicode="&#xb8;" horiz-adv-x="95" 
d="M0 -190v5l62 203h33v-5l-45 -203h-50z" />
    <glyph glyph-name="uni00B9" unicode="&#xb9;" horiz-adv-x="222" 
d="M111 420v328l-86 -42v39l96 51h33v-376h-43z" />
    <glyph glyph-name="ordmasculine" unicode="&#xba;" horiz-adv-x="416" 
d="M208 315q-56 0 -88 8t-47.5 28t-19.5 57t-4 96q0 58 4 96t19.5 58.5t47.5 29t88 8.5t88 -8.5t47 -29t19 -58.5t4 -96q0 -59 -4 -96t-19 -57t-47 -28t-88 -8zM208 350q45 0 69 5.5t34 22t12.5 47t2.5 79.5q0 48 -2.5 79t-12.5 47.5t-34 22.5t-69 6q-44 0 -68.5 -6
t-34.5 -22.5t-12.5 -47.5t-2.5 -79q0 -49 2.5 -79.5t12.5 -47t34.5 -22t68.5 -5.5z" />
    <glyph glyph-name="guillemotright" unicode="&#xbb;" horiz-adv-x="459" 
d="M77 99l118 205l-118 206h38l132 -206l-132 -205h-38zM233 99l118 205l-118 206h38l132 -206l-132 -205h-38z" />
    <glyph glyph-name="onequarter" unicode="&#xbc;" horiz-adv-x="658" 
d="M111 308v328l-86 -42v39l96 51h33v-376h-43zM41 0l449 688h47l-449 -688h-47zM530 0v89h-216v32l152 255h47l-152 -251h169l9 139h33v-139h60v-36h-60v-89h-42z" />
    <glyph glyph-name="onehalf" unicode="&#xbd;" horiz-adv-x="714" 
d="M111 308v328l-86 -42v39l96 51h33v-376h-43zM41 0l449 688h47l-449 -688h-47zM400 0v43q0 43 3 66.5t17 37t45 25.5l113 44q22 9 32.5 16t13.5 18t3 30q0 28 -8.5 41.5t-30.5 17.5t-63 4q-21 0 -54.5 -1.5t-62.5 -4.5v35q24 4 60.5 6.5t69.5 2.5q37 0 66.5 -5t47.5 -25.5
t18 -65.5q0 -30 -7 -49.5t-22.5 -31t-42.5 -22.5l-128 -50q-12 -5 -18.5 -10.5t-8 -17.5t-1.5 -38v-28h228v-38h-270z" />
    <glyph glyph-name="threequarters" unicode="&#xbe;" horiz-adv-x="788" 
d="M154 304q-25 0 -58.5 2t-59.5 6v35q29 -2 61 -4t52 -2q55 0 84.5 11t29.5 57q0 40 -19 55.5t-62 15.5h-79v37h79q20 0 37.5 5.5t28.5 19.5t11 42q0 30 -12 44.5t-37.5 18.5t-65.5 4q-22 0 -51.5 -1.5t-54.5 -4.5v35q25 4 58 6.5t59 2.5q55 0 87 -9.5t45.5 -31t13.5 -58.5
q0 -41 -18 -61.5t-50 -27.5v-2q34 -5 53.5 -24.5t19.5 -66.5q0 -34 -12 -57.5t-44.5 -35t-95.5 -11.5zM171 0l449 688h47l-449 -688h-47zM660 0v89h-216v32l152 255h47l-152 -251h169l9 139h33v-139h60v-36h-60v-89h-42z" />
    <glyph glyph-name="questiondown" unicode="&#xbf;" horiz-adv-x="429" 
d="M269 -186q-53 0 -90.5 7t-62 25.5t-36.5 50t-12 80.5q0 33 2.5 60t11 49t27 39t50.5 28l53 19q25 9 39 15.5t20.5 13.5t8 19t1.5 32v79h46v-85q0 -37 -7.5 -56.5t-25 -29.5t-47.5 -21l-27 -9q-45 -15 -67 -30.5t-29.5 -41t-7.5 -72.5q0 -57 15.5 -84.5t52 -35.5t96.5 -8
q15 0 34.5 1t42 2.5t46 3.5t46.5 5v-42q-28 -4 -60.5 -7t-63.5 -5t-56 -2zM274 437v73h59v-73h-59z" />
    <glyph glyph-name="Agrave" unicode="&#xc0;" horiz-adv-x="683" 
d="M37 0l278 688h53l278 -688h-51l-86 214h-336l-86 -214h-50zM190 258h302l-148 370h-5zM361 782l-127 133v5h56l106 -133v-5h-35z" />
    <glyph glyph-name="Aacute" unicode="&#xc1;" horiz-adv-x="683" 
d="M37 0l278 688h53l278 -688h-51l-86 214h-336l-86 -214h-50zM190 258h302l-148 370h-5zM303 781v5l106 134h56v-5l-127 -134h-35z" />
    <glyph glyph-name="Acircumflex" unicode="&#xc2;" horiz-adv-x="683" 
d="M37 0l278 688h53l278 -688h-51l-86 214h-336l-86 -214h-50zM190 258h302l-148 370h-5zM208 782v5l106 134h55l106 -134v-5h-34l-100 105l-99 -105h-34z" />
    <glyph glyph-name="Atilde" unicode="&#xc3;" horiz-adv-x="683" 
d="M37 0l278 688h53l278 -688h-51l-86 214h-336l-86 -214h-50zM190 258h302l-148 370h-5zM178 794q0 36 4.5 58t18.5 32t42 10t55 -8t55 -19q21 -8 42 -15t45 -7q22 0 28 13.5t6 46.5h31q0 -36 -4.5 -58t-18.5 -32t-41 -10q-30 0 -55.5 9t-54.5 19q-22 7 -43 14.5t-44 7.5
q-22 0 -28 -13.5t-6 -47.5h-32z" />
    <glyph glyph-name="Adieresis" unicode="&#xc4;" horiz-adv-x="683" 
d="M37 0l278 688h53l278 -688h-51l-86 214h-336l-86 -214h-50zM190 258h302l-148 370h-5zM211 823v65h51v-65h-51zM420 823v65h51v-65h-51z" />
    <glyph glyph-name="Aring" unicode="&#xc5;" horiz-adv-x="683" 
d="M37 0l278 688h53l278 -688h-51l-86 214h-336l-86 -214h-50zM190 258h302l-148 370h-5zM344 660q-41 0 -64 5.5t-34 16.5t-14 29t-3 45q0 26 3 44.5t14 30t34 17t64 5.5q42 0 65.5 -5.5t34.5 -17t14 -30t3 -44.5q0 -27 -3 -45t-14 -29t-34.5 -16.5t-65.5 -5.5zM344 692
q40 0 56.5 5.5t20 19.5t3.5 39q0 26 -3.5 40t-20 20t-56.5 6q-38 0 -54.5 -6t-20 -20t-3.5 -40q0 -25 3.5 -39t20 -19.5t54.5 -5.5z" />
    <glyph glyph-name="AE" unicode="&#xc6;" horiz-adv-x="949" 
d="M-2 0l350 688h544v-44h-479l84 -274h348v-44h-336l85 -282h298v-44h-336l-64 214h-336l-108 -214h-50zM178 258h302l-110 370h-5z" />
    <glyph glyph-name="Ccedilla" unicode="&#xc7;" horiz-adv-x="577" 
d="M356 -8q-69 0 -117 7t-77.5 27t-46 58.5t-22.5 102t-6 157.5q0 93 6 156t22.5 101.5t46 59t77.5 28t117 7.5q26 0 54 -1.5t54.5 -4.5t45.5 -7v-41q-20 3 -45 5.5t-50 3.5t-46 1q-63 0 -106 -5t-68.5 -21.5t-38.5 -50t-17 -90t-4 -141.5t4 -141.5t17 -90t38.5 -50
t68.5 -21.5t106 -5q35 0 75 3t70 7v-43q-20 -3 -47.5 -5.5t-56.5 -4t-54 -1.5zM256 -190v5l62 203h33v-5l-45 -203h-50z" />
    <glyph glyph-name="Egrave" unicode="&#xc8;" horiz-adv-x="599" 
d="M111 0v688h431v-44h-383v-274h336v-44h-336v-282h383v-44h-431zM351 782l-127 133v5h56l106 -133v-5h-35z" />
    <glyph glyph-name="Eacute" unicode="&#xc9;" horiz-adv-x="599" 
d="M111 0v688h431v-44h-383v-274h336v-44h-336v-282h383v-44h-431zM293 781v5l106 134h56v-5l-127 -134h-35z" />
    <glyph glyph-name="Ecircumflex" unicode="&#xca;" horiz-adv-x="599" 
d="M111 0v688h431v-44h-383v-274h336v-44h-336v-282h383v-44h-431zM199 782v5l106 134h55l106 -134v-5h-34l-100 105l-99 -105h-34z" />
    <glyph glyph-name="Edieresis" unicode="&#xcb;" horiz-adv-x="599" 
d="M111 0v688h431v-44h-383v-274h336v-44h-336v-282h383v-44h-431zM202 823v65h51v-65h-51zM411 823v65h51v-65h-51z" />
    <glyph glyph-name="Igrave" unicode="&#xcc;" horiz-adv-x="271" 
d="M111 0v688h48v-688h-48zM154 782l-127 133v5h56l106 -133v-5h-35z" />
    <glyph glyph-name="Iacute" unicode="&#xcd;" horiz-adv-x="271" 
d="M111 0v688h48v-688h-48zM96 781v5l106 134h56v-5l-127 -134h-35z" />
    <glyph glyph-name="Icircumflex" unicode="&#xce;" horiz-adv-x="271" 
d="M111 0v688h48v-688h-48zM2 782v5l106 134h55l106 -134v-5h-34l-100 105l-99 -105h-34z" />
    <glyph glyph-name="Idieresis" unicode="&#xcf;" horiz-adv-x="271" 
d="M111 0v688h48v-688h-48zM5 823v65h51v-65h-51zM214 823v65h51v-65h-51z" />
    <glyph glyph-name="Eth" unicode="&#xd0;" horiz-adv-x="692" 
d="M111 0v327h-69v44h69v317h209q81 0 133.5 -7t83 -27t45.5 -58.5t19 -99.5t4 -152t-4 -152t-19 -99.5t-45.5 -58.5t-83 -27t-133.5 -7h-209zM159 44h142q73 0 120.5 3t75 17t40 46t16.5 89t4 145t-4 145t-17 89t-41 46t-75 17t-119 3h-142v-273h125v-44h-125v-283z" />
    <glyph glyph-name="Ntilde" unicode="&#xd1;" horiz-adv-x="736" 
d="M111 0v688h48l416 -599h4v599h46v-688h-46l-417 602h-4v-602h-47zM214 794q0 36 4.5 58t18.5 32t42 10t55 -8t55 -19q21 -8 42 -15t45 -7q22 0 28 13.5t6 46.5h31q0 -36 -4.5 -58t-18.5 -32t-41 -10q-30 0 -55.5 9t-54.5 19q-22 7 -43 14.5t-44 7.5q-22 0 -28 -13.5
t-6 -47.5h-32z" />
    <glyph glyph-name="Ograve" unicode="&#xd2;" horiz-adv-x="724" 
d="M362 -8q-78 0 -129 7.5t-80.5 28t-43.5 59.5t-18 101.5t-4 155.5t4 155.5t18 101.5t43.5 59.5t80.5 28t129 7.5t129 -7.5t80.5 -28t43.5 -59.5t18 -101.5t4 -155.5t-4 -155.5t-18 -101.5t-43.5 -59.5t-80.5 -28t-129 -7.5zM362 36q62 0 103.5 3.5t66.5 18t37.5 47.5
t16 90.5t3.5 148.5t-3.5 148.5t-16 90.5t-37.5 47.5t-66.5 18t-103.5 3.5q-63 0 -104 -3.5t-66 -18t-37.5 -47.5t-16 -90.5t-3.5 -148.5t3.5 -148.5t16 -90.5t37.5 -47.5t66 -18t104 -3.5zM381 782l-127 133v5h56l106 -133v-5h-35z" />
    <glyph glyph-name="Oacute" unicode="&#xd3;" horiz-adv-x="724" 
d="M362 -8q-78 0 -129 7.5t-80.5 28t-43.5 59.5t-18 101.5t-4 155.5t4 155.5t18 101.5t43.5 59.5t80.5 28t129 7.5t129 -7.5t80.5 -28t43.5 -59.5t18 -101.5t4 -155.5t-4 -155.5t-18 -101.5t-43.5 -59.5t-80.5 -28t-129 -7.5zM362 36q62 0 103.5 3.5t66.5 18t37.5 47.5
t16 90.5t3.5 148.5t-3.5 148.5t-16 90.5t-37.5 47.5t-66.5 18t-103.5 3.5q-63 0 -104 -3.5t-66 -18t-37.5 -47.5t-16 -90.5t-3.5 -148.5t3.5 -148.5t16 -90.5t37.5 -47.5t66 -18t104 -3.5zM323 781v5l106 134h56v-5l-127 -134h-35z" />
    <glyph glyph-name="Ocircumflex" unicode="&#xd4;" horiz-adv-x="724" 
d="M362 -8q-78 0 -129 7.5t-80.5 28t-43.5 59.5t-18 101.5t-4 155.5t4 155.5t18 101.5t43.5 59.5t80.5 28t129 7.5t129 -7.5t80.5 -28t43.5 -59.5t18 -101.5t4 -155.5t-4 -155.5t-18 -101.5t-43.5 -59.5t-80.5 -28t-129 -7.5zM362 36q62 0 103.5 3.5t66.5 18t37.5 47.5
t16 90.5t3.5 148.5t-3.5 148.5t-16 90.5t-37.5 47.5t-66.5 18t-103.5 3.5q-63 0 -104 -3.5t-66 -18t-37.5 -47.5t-16 -90.5t-3.5 -148.5t3.5 -148.5t16 -90.5t37.5 -47.5t66 -18t104 -3.5zM228 782v5l106 134h55l106 -134v-5h-34l-100 105l-99 -105h-34z" />
    <glyph glyph-name="Otilde" unicode="&#xd5;" horiz-adv-x="724" 
d="M362 -8q-78 0 -129 7.5t-80.5 28t-43.5 59.5t-18 101.5t-4 155.5t4 155.5t18 101.5t43.5 59.5t80.5 28t129 7.5t129 -7.5t80.5 -28t43.5 -59.5t18 -101.5t4 -155.5t-4 -155.5t-18 -101.5t-43.5 -59.5t-80.5 -28t-129 -7.5zM362 36q62 0 103.5 3.5t66.5 18t37.5 47.5
t16 90.5t3.5 148.5t-3.5 148.5t-16 90.5t-37.5 47.5t-66.5 18t-103.5 3.5q-63 0 -104 -3.5t-66 -18t-37.5 -47.5t-16 -90.5t-3.5 -148.5t3.5 -148.5t16 -90.5t37.5 -47.5t66 -18t104 -3.5zM198 794q0 36 4.5 58t18.5 32t42 10t55 -8t55 -19q21 -8 42 -15t45 -7q22 0 28 13.5
t6 46.5h31q0 -36 -4.5 -58t-18.5 -32t-41 -10q-30 0 -55.5 9t-54.5 19q-22 7 -43 14.5t-44 7.5q-22 0 -28 -13.5t-6 -47.5h-32z" />
    <glyph glyph-name="Odieresis" unicode="&#xd6;" horiz-adv-x="724" 
d="M362 -8q-78 0 -129 7.5t-80.5 28t-43.5 59.5t-18 101.5t-4 155.5t4 155.5t18 101.5t43.5 59.5t80.5 28t129 7.5t129 -7.5t80.5 -28t43.5 -59.5t18 -101.5t4 -155.5t-4 -155.5t-18 -101.5t-43.5 -59.5t-80.5 -28t-129 -7.5zM362 36q62 0 103.5 3.5t66.5 18t37.5 47.5
t16 90.5t3.5 148.5t-3.5 148.5t-16 90.5t-37.5 47.5t-66.5 18t-103.5 3.5q-63 0 -104 -3.5t-66 -18t-37.5 -47.5t-16 -90.5t-3.5 -148.5t3.5 -148.5t16 -90.5t37.5 -47.5t66 -18t104 -3.5zM231 823v65h51v-65h-51zM440 823v65h51v-65h-51z" />
    <glyph glyph-name="multiply" unicode="&#xd7;" horiz-adv-x="471" 
d="M98 87l-28 29l137 136l-137 137l28 29l138 -137l137 137l28 -28l-137 -137l137 -138l-29 -28l-137 137z" />
    <glyph glyph-name="Oslash" unicode="&#xd8;" horiz-adv-x="724" 
d="M87 -55l503 798h47l-504 -798h-46zM362 -8q-78 0 -129 7.5t-80.5 28t-43.5 59.5t-18 101.5t-4 155.5t4 155.5t18 101.5t43.5 59.5t80.5 28t129 7.5t129 -7.5t80.5 -28t43.5 -59.5t18 -101.5t4 -155.5t-4 -155.5t-18 -101.5t-43.5 -59.5t-80.5 -28t-129 -7.5zM362 36
q62 0 103.5 3.5t66.5 18t37.5 47.5t16 90.5t3.5 148.5t-3.5 148.5t-16 90.5t-37.5 47.5t-66.5 18t-103.5 3.5q-63 0 -104 -3.5t-66 -18t-37.5 -47.5t-16 -90.5t-3.5 -148.5t3.5 -148.5t16 -90.5t37.5 -47.5t66 -18t104 -3.5z" />
    <glyph glyph-name="Ugrave" unicode="&#xd9;" horiz-adv-x="715" 
d="M358 -8q-70 0 -117 8.5t-74.5 28.5t-42 55t-18.5 87t-4 125v392h48v-423q0 -70 5.5 -114.5t25 -70t62 -35t115.5 -9.5q74 0 115.5 9.5t61.5 35t25 70t5 114.5v423h48v-392q0 -73 -4 -125t-18 -87t-41.5 -55t-74.5 -28.5t-117 -8.5zM377 782l-127 133v5h56l106 -133v-5
h-35z" />
    <glyph glyph-name="Uacute" unicode="&#xda;" horiz-adv-x="715" 
d="M358 -8q-70 0 -117 8.5t-74.5 28.5t-42 55t-18.5 87t-4 125v392h48v-423q0 -70 5.5 -114.5t25 -70t62 -35t115.5 -9.5q74 0 115.5 9.5t61.5 35t25 70t5 114.5v423h48v-392q0 -73 -4 -125t-18 -87t-41.5 -55t-74.5 -28.5t-117 -8.5zM319 781v5l106 134h56v-5l-127 -134
h-35z" />
    <glyph glyph-name="Ucircumflex" unicode="&#xdb;" horiz-adv-x="715" 
d="M358 -8q-70 0 -117 8.5t-74.5 28.5t-42 55t-18.5 87t-4 125v392h48v-423q0 -70 5.5 -114.5t25 -70t62 -35t115.5 -9.5q74 0 115.5 9.5t61.5 35t25 70t5 114.5v423h48v-392q0 -73 -4 -125t-18 -87t-41.5 -55t-74.5 -28.5t-117 -8.5zM224 782v5l106 134h55l106 -134v-5h-34
l-100 105l-99 -105h-34z" />
    <glyph glyph-name="Udieresis" unicode="&#xdc;" horiz-adv-x="715" 
d="M358 -8q-70 0 -117 8.5t-74.5 28.5t-42 55t-18.5 87t-4 125v392h48v-423q0 -70 5.5 -114.5t25 -70t62 -35t115.5 -9.5q74 0 115.5 9.5t61.5 35t25 70t5 114.5v423h48v-392q0 -73 -4 -125t-18 -87t-41.5 -55t-74.5 -28.5t-117 -8.5zM227 823v65h51v-65h-51zM436 823v65h51
v-65h-51z" />
    <glyph glyph-name="Yacute" unicode="&#xdd;" horiz-adv-x="601" 
d="M276 0v277l-258 411h54l226 -362h7l226 362h52l-259 -411v-277h-48zM262 781v5l106 134h56v-5l-127 -134h-35z" />
    <glyph glyph-name="Thorn" unicode="&#xde;" horiz-adv-x="654" 
d="M111 0v688h48v-128h244q67 0 105.5 -17t56 -46t22.5 -66.5t5 -80.5q0 -41 -5 -79t-23.5 -67t-57 -46t-104.5 -17h-243v-141h-48zM159 184h235q53 0 83 11t44.5 32.5t18.5 52.5t4 70q0 40 -3.5 70.5t-17.5 52t-44.5 32.5t-84.5 11h-235v-332z" />
    <glyph glyph-name="germandbls" unicode="&#xdf;" horiz-adv-x="612" 
d="M97 0v530q0 75 20.5 124t69.5 72.5t135 23.5q62 0 102 -11t63.5 -32.5t33 -54.5t9.5 -76q0 -61 -28 -93t-88 -41v-4q62 -10 93.5 -53.5t31.5 -141.5q0 -69 -7.5 -115t-28 -74.5t-60 -41t-103.5 -12.5h-88v41h68q57 0 91.5 5.5t52 24.5t23.5 58t6 106q0 72 -15 111.5
t-50.5 55t-100.5 15.5h-38v41h38q57 0 91.5 12t50 38.5t15.5 70.5q0 48 -14.5 76.5t-51 41t-104.5 12.5q-58 0 -96.5 -14t-57 -53.5t-18.5 -117.5v-524h-45z" />
    <glyph glyph-name="agrave" unicode="&#xe0;" horiz-adv-x="573" 
d="M243 -8q-62 0 -102 11.5t-59 43t-19 92.5q0 56 13 88t46 45t93 13q11 0 35.5 -0.5t56 -1t63.5 -1t60 -1.5v42q0 54 -6.5 84.5t-24.5 46t-52 19.5t-88 4q-23 0 -53.5 -2t-59.5 -4.5t-48 -5.5v41q32 5 78.5 8.5t99.5 3.5q50 0 85.5 -5.5t58 -18t34.5 -34t17 -54.5t5 -78
v-328h-39l-3 80h-4q-15 -39 -46 -58t-68.5 -24.5t-72.5 -5.5zM249 32q34 0 65.5 3.5t55.5 15.5t37 38q13 28 18 56.5t5 64.5v37h-203q-47 0 -73 -7.5t-36 -30.5t-10 -69q0 -44 11.5 -67.5t42 -32t87.5 -8.5zM306 603l-127 133v5h56l106 -133v-5h-35z" />
    <glyph glyph-name="aacute" unicode="&#xe1;" horiz-adv-x="573" 
d="M243 -8q-62 0 -102 11.5t-59 43t-19 92.5q0 56 13 88t46 45t93 13q11 0 35.5 -0.5t56 -1t63.5 -1t60 -1.5v42q0 54 -6.5 84.5t-24.5 46t-52 19.5t-88 4q-23 0 -53.5 -2t-59.5 -4.5t-48 -5.5v41q32 5 78.5 8.5t99.5 3.5q50 0 85.5 -5.5t58 -18t34.5 -34t17 -54.5t5 -78
v-328h-39l-3 80h-4q-15 -39 -46 -58t-68.5 -24.5t-72.5 -5.5zM249 32q34 0 65.5 3.5t55.5 15.5t37 38q13 28 18 56.5t5 64.5v37h-203q-47 0 -73 -7.5t-36 -30.5t-10 -69q0 -44 11.5 -67.5t42 -32t87.5 -8.5zM230 603v5l106 134h56v-5l-127 -134h-35z" />
    <glyph glyph-name="acircumflex" unicode="&#xe2;" horiz-adv-x="573" 
d="M243 -8q-62 0 -102 11.5t-59 43t-19 92.5q0 56 13 88t46 45t93 13q11 0 35.5 -0.5t56 -1t63.5 -1t60 -1.5v42q0 54 -6.5 84.5t-24.5 46t-52 19.5t-88 4q-23 0 -53.5 -2t-59.5 -4.5t-48 -5.5v41q32 5 78.5 8.5t99.5 3.5q50 0 85.5 -5.5t58 -18t34.5 -34t17 -54.5t5 -78
v-328h-39l-3 80h-4q-15 -39 -46 -58t-68.5 -24.5t-72.5 -5.5zM249 32q34 0 65.5 3.5t55.5 15.5t37 38q13 28 18 56.5t5 64.5v37h-203q-47 0 -73 -7.5t-36 -30.5t-10 -69q0 -44 11.5 -67.5t42 -32t87.5 -8.5zM156 603v6l106 133h55l106 -133v-6h-34l-100 106l-99 -106h-34z
" />
    <glyph glyph-name="atilde" unicode="&#xe3;" horiz-adv-x="573" 
d="M243 -8q-62 0 -102 11.5t-59 43t-19 92.5q0 56 13 88t46 45t93 13q11 0 35.5 -0.5t56 -1t63.5 -1t60 -1.5v42q0 54 -6.5 84.5t-24.5 46t-52 19.5t-88 4q-23 0 -53.5 -2t-59.5 -4.5t-48 -5.5v41q32 5 78.5 8.5t99.5 3.5q50 0 85.5 -5.5t58 -18t34.5 -34t17 -54.5t5 -78
v-328h-39l-3 80h-4q-15 -39 -46 -58t-68.5 -24.5t-72.5 -5.5zM249 32q34 0 65.5 3.5t55.5 15.5t37 38q13 28 18 56.5t5 64.5v37h-203q-47 0 -73 -7.5t-36 -30.5t-10 -69q0 -44 11.5 -67.5t42 -32t87.5 -8.5zM126 616q0 36 4.5 58t18.5 32t42 10t55 -8t55 -19q21 -8 42 -15
t45 -7q22 0 28 13.5t6 46.5h31q0 -36 -4.5 -58t-18.5 -32t-41 -10q-30 0 -55.5 9t-54.5 19q-22 7 -43 14.5t-44 7.5q-22 0 -28 -13.5t-6 -47.5h-32z" />
    <glyph glyph-name="adieresis" unicode="&#xe4;" horiz-adv-x="573" 
d="M243 -8q-62 0 -102 11.5t-59 43t-19 92.5q0 56 13 88t46 45t93 13q11 0 35.5 -0.5t56 -1t63.5 -1t60 -1.5v42q0 54 -6.5 84.5t-24.5 46t-52 19.5t-88 4q-23 0 -53.5 -2t-59.5 -4.5t-48 -5.5v41q32 5 78.5 8.5t99.5 3.5q50 0 85.5 -5.5t58 -18t34.5 -34t17 -54.5t5 -78
v-328h-39l-3 80h-4q-15 -39 -46 -58t-68.5 -24.5t-72.5 -5.5zM249 32q34 0 65.5 3.5t55.5 15.5t37 38q13 28 18 56.5t5 64.5v37h-203q-47 0 -73 -7.5t-36 -30.5t-10 -69q0 -44 11.5 -67.5t42 -32t87.5 -8.5zM159 645v65h51v-65h-51zM368 645v65h51v-65h-51z" />
    <glyph glyph-name="aring" unicode="&#xe5;" horiz-adv-x="573" 
d="M243 -8q-62 0 -102 11.5t-59 43t-19 92.5q0 56 13 88t46 45t93 13q11 0 35.5 -0.5t56 -1t63.5 -1t60 -1.5v42q0 54 -6.5 84.5t-24.5 46t-52 19.5t-88 4q-23 0 -53.5 -2t-59.5 -4.5t-48 -5.5v41q32 5 78.5 8.5t99.5 3.5q50 0 85.5 -5.5t58 -18t34.5 -34t17 -54.5t5 -78
v-328h-39l-3 80h-4q-15 -39 -46 -58t-68.5 -24.5t-72.5 -5.5zM249 32q34 0 65.5 3.5t55.5 15.5t37 38q13 28 18 56.5t5 64.5v37h-203q-47 0 -73 -7.5t-36 -30.5t-10 -69q0 -44 11.5 -67.5t42 -32t87.5 -8.5zM288 589q-41 0 -64 5.5t-34 16.5t-14 29t-3 45q0 26 3 44.5t14 30
t34 17t64 5.5q42 0 65.5 -5.5t34.5 -17t14 -30t3 -44.5q0 -27 -3 -45t-14 -29t-34.5 -16.5t-65.5 -5.5zM288 621q40 0 56.5 5.5t20 19.5t3.5 39q0 26 -3.5 40t-20 20t-56.5 6q-38 0 -54.5 -6t-20 -20t-3.5 -40q0 -25 3.5 -39t20 -19.5t54.5 -5.5z" />
    <glyph glyph-name="ae" unicode="&#xe6;" horiz-adv-x="919" 
d="M245 -8q-46 0 -80.5 6.5t-57 22t-33.5 44t-11 74.5q0 54 13 85t46 44.5t93 13.5h70h72.5t72.5 -1v42q0 54 -6.5 84.5t-24.5 46t-52 19.5t-88 4q-23 0 -54 -2t-59.5 -4.5t-47.5 -5.5v41q31 5 77 8.5t101 3.5q80 0 122 -14.5t59 -53.5q21 37 65 52.5t129 15.5q55 0 91.5 -8
t57 -26t30.5 -48t13 -74t3 -103v-16h-370q0 -63 6 -104.5t23.5 -64.5t54 -32t97.5 -9q27 0 57.5 1.5t59.5 4.5t52 7v-41q-19 -4 -49 -7t-63 -4.5t-65 -1.5q-62 0 -101.5 8.5t-63 29.5t-35.5 58q-18 -44 -51 -64.5t-72.5 -26t-80.5 -5.5zM249 32q34 0 65.5 3.5t56.5 16.5
t37 41q12 26 17 53.5t5 63.5v33h-203q-47 0 -73 -7t-36 -28.5t-10 -67.5q0 -44 11.5 -67.5t42 -32t87.5 -8.5zM801 259q1 72 -4 115t-21.5 65.5t-47 30t-80.5 7.5q-58 0 -92.5 -7t-51.5 -27t-22.5 -59t-5.5 -103h346z" />
    <glyph glyph-name="ccedilla" unicode="&#xe7;" horiz-adv-x="458" 
d="M275 -8q-56 0 -92.5 9t-58.5 29t-33 50.5t-14.5 74t-3.5 99.5q0 63 4.5 107.5t17.5 75t35.5 48t56.5 25.5t83 8q34 0 71 -3t61 -9v-40q-25 4 -59.5 7.5t-61.5 3.5q-53 0 -85 -9.5t-49 -33.5t-22.5 -67.5t-5.5 -110.5q0 -70 5.5 -114.5t23 -68t50 -32t85.5 -8.5
q31 0 66 3.5t58 8.5v-41q-23 -5 -60 -8.5t-72 -3.5zM201 -190v5l62 203h33v-5l-45 -203h-50z" />
    <glyph glyph-name="egrave" unicode="&#xe8;" horiz-adv-x="561" 
d="M292 -8q-58 0 -97.5 7.5t-63.5 25t-37 47.5t-17 75t-4 107q0 74 5 124.5t25.5 81t65.5 44.5t124 14q56 0 92 -8.5t57 -26t31 -48.5t13 -75t3 -104v-17h-370q0 -62 5.5 -102.5t23 -63.5t54 -31.5t98.5 -8.5q26 0 56.5 1.5t60 4.5t52.5 7v-41q-20 -4 -49.5 -7t-62.5 -4.5
t-65 -1.5zM443 258v38q0 61 -7 97t-24 54.5t-47 24t-75 5.5q-58 0 -92 -7t-51.5 -28t-22.5 -60t-5 -104h344zM302 603l-127 133v5h56l106 -133v-5h-35z" />
    <glyph glyph-name="eacute" unicode="&#xe9;" horiz-adv-x="561" 
d="M292 -8q-58 0 -97.5 7.5t-63.5 25t-37 47.5t-17 75t-4 107q0 74 5 124.5t25.5 81t65.5 44.5t124 14q56 0 92 -8.5t57 -26t31 -48.5t13 -75t3 -104v-17h-370q0 -62 5.5 -102.5t23 -63.5t54 -31.5t98.5 -8.5q26 0 56.5 1.5t60 4.5t52.5 7v-41q-20 -4 -49.5 -7t-62.5 -4.5
t-65 -1.5zM443 258v38q0 61 -7 97t-24 54.5t-47 24t-75 5.5q-58 0 -92 -7t-51.5 -28t-22.5 -60t-5 -104h344zM226 603v5l106 134h56v-5l-127 -134h-35z" />
    <glyph glyph-name="ecircumflex" unicode="&#xea;" horiz-adv-x="561" 
d="M292 -8q-58 0 -97.5 7.5t-63.5 25t-37 47.5t-17 75t-4 107q0 74 5 124.5t25.5 81t65.5 44.5t124 14q56 0 92 -8.5t57 -26t31 -48.5t13 -75t3 -104v-17h-370q0 -62 5.5 -102.5t23 -63.5t54 -31.5t98.5 -8.5q26 0 56.5 1.5t60 4.5t52.5 7v-41q-20 -4 -49.5 -7t-62.5 -4.5
t-65 -1.5zM443 258v38q0 61 -7 97t-24 54.5t-47 24t-75 5.5q-58 0 -92 -7t-51.5 -28t-22.5 -60t-5 -104h344zM152 603v6l106 133h55l106 -133v-6h-34l-100 106l-99 -106h-34z" />
    <glyph glyph-name="edieresis" unicode="&#xeb;" horiz-adv-x="561" 
d="M292 -8q-58 0 -97.5 7.5t-63.5 25t-37 47.5t-17 75t-4 107q0 74 5 124.5t25.5 81t65.5 44.5t124 14q56 0 92 -8.5t57 -26t31 -48.5t13 -75t3 -104v-17h-370q0 -62 5.5 -102.5t23 -63.5t54 -31.5t98.5 -8.5q26 0 56.5 1.5t60 4.5t52.5 7v-41q-20 -4 -49.5 -7t-62.5 -4.5
t-65 -1.5zM443 258v38q0 61 -7 97t-24 54.5t-47 24t-75 5.5q-58 0 -92 -7t-51.5 -28t-22.5 -60t-5 -104h344zM155 645v65h51v-65h-51zM364 645v65h51v-65h-51z" />
    <glyph glyph-name="igrave" unicode="&#xec;" horiz-adv-x="240" 
d="M97 0v510h46v-510h-46zM136 603l-127 133v5h56l106 -133v-5h-35z" />
    <glyph glyph-name="iacute" unicode="&#xed;" horiz-adv-x="240" 
d="M97 0v510h46v-510h-46zM60 603v5l106 134h56v-5l-127 -134h-35z" />
    <glyph glyph-name="icircumflex" unicode="&#xee;" horiz-adv-x="240" 
d="M97 0v510h46v-510h-46zM-13 603v6l106 133h55l106 -133v-6h-34l-100 106l-99 -106h-34z" />
    <glyph glyph-name="idieresis" unicode="&#xef;" horiz-adv-x="240" 
d="M97 0v510h46v-510h-46zM-10 645v65h51v-65h-51zM199 645v65h51v-65h-51z" />
    <glyph glyph-name="eth" unicode="&#xf0;" horiz-adv-x="580" 
d="M290 -8q-62 0 -102 7t-63.5 23.5t-34.5 46.5t-14 75.5t-3 109.5q0 79 5.5 131t25.5 81t63 40.5t118 11.5q49 0 84.5 -8.5t59.5 -25.5l6 2q-15 47 -34.5 84.5t-41.5 66.5l-121 -21v38l95 16q-24 28 -44.5 45t-29.5 24v4h54q8 -5 26.5 -21t41.5 -44l101 18v-37l-77 -14
q29 -42 55 -102.5t36 -126.5q5 -27 7 -53t3 -48t1 -38q0 -71 -3 -120.5t-13 -81.5t-33 -50.5t-64 -25.5t-104 -7zM290 33q64 0 99 8.5t50 31.5t18.5 66.5t3.5 114.5q0 57 -3.5 99t-18.5 69.5t-50 41t-99 13.5t-99.5 -8.5t-50.5 -32t-18 -67.5t-3 -115t3 -114.5t18 -66.5
t50.5 -31.5t99.5 -8.5z" />
    <glyph glyph-name="ntilde" unicode="&#xf1;" horiz-adv-x="603" 
d="M97 0v510h39l3 -81h4q9 24 27.5 44t54.5 32.5t97 12.5q60 0 96.5 -11.5t55.5 -34.5t25.5 -61t6.5 -91v-320h-46v309q0 55 -5.5 88t-22 50.5t-46 23t-77.5 5.5q-62 0 -96 -16t-49 -44.5t-18 -67.5t-3 -84v-264h-46zM137 616q0 36 4.5 58t18.5 32t42 10t55 -8t55 -19
q21 -8 42 -15t45 -7q22 0 28 13.5t6 46.5h31q0 -36 -4.5 -58t-18.5 -32t-41 -10q-30 0 -55.5 9t-54.5 19q-22 7 -43 14.5t-44 7.5q-22 0 -28 -13.5t-6 -47.5h-32z" />
    <glyph glyph-name="ograve" unicode="&#xf2;" horiz-adv-x="579" 
d="M290 -8q-62 0 -102 6.5t-63.5 23.5t-34.5 47t-14 75.5t-3 109.5q0 65 3 110.5t14 75.5t34.5 47t63.5 24t102 7q61 0 101 -7t63.5 -24t35 -47t14.5 -75.5t3 -110.5q0 -64 -3 -109.5t-14.5 -75.5t-35 -47t-63.5 -23.5t-101 -6.5zM290 33q64 0 99 8.5t50 31.5t18 67t3 114
q0 71 -3 115t-18 67.5t-50 32t-99 8.5t-99.5 -8.5t-50.5 -32t-18 -67.5t-3 -115q0 -70 3 -114t18 -67t50.5 -31.5t99.5 -8.5zM305 603l-127 133v5h56l106 -133v-5h-35z" />
    <glyph glyph-name="oacute" unicode="&#xf3;" horiz-adv-x="579" 
d="M290 -8q-62 0 -102 6.5t-63.5 23.5t-34.5 47t-14 75.5t-3 109.5q0 65 3 110.5t14 75.5t34.5 47t63.5 24t102 7q61 0 101 -7t63.5 -24t35 -47t14.5 -75.5t3 -110.5q0 -64 -3 -109.5t-14.5 -75.5t-35 -47t-63.5 -23.5t-101 -6.5zM290 33q64 0 99 8.5t50 31.5t18 67t3 114
q0 71 -3 115t-18 67.5t-50 32t-99 8.5t-99.5 -8.5t-50.5 -32t-18 -67.5t-3 -115q0 -70 3 -114t18 -67t50.5 -31.5t99.5 -8.5zM230 603v5l106 134h56v-5l-127 -134h-35z" />
    <glyph glyph-name="ocircumflex" unicode="&#xf4;" horiz-adv-x="579" 
d="M290 -8q-62 0 -102 6.5t-63.5 23.5t-34.5 47t-14 75.5t-3 109.5q0 65 3 110.5t14 75.5t34.5 47t63.5 24t102 7q61 0 101 -7t63.5 -24t35 -47t14.5 -75.5t3 -110.5q0 -64 -3 -109.5t-14.5 -75.5t-35 -47t-63.5 -23.5t-101 -6.5zM290 33q64 0 99 8.5t50 31.5t18 67t3 114
q0 71 -3 115t-18 67.5t-50 32t-99 8.5t-99.5 -8.5t-50.5 -32t-18 -67.5t-3 -115q0 -70 3 -114t18 -67t50.5 -31.5t99.5 -8.5zM156 603v6l106 133h55l106 -133v-6h-34l-100 106l-99 -106h-34z" />
    <glyph glyph-name="otilde" unicode="&#xf5;" horiz-adv-x="579" 
d="M290 -8q-62 0 -102 6.5t-63.5 23.5t-34.5 47t-14 75.5t-3 109.5q0 65 3 110.5t14 75.5t34.5 47t63.5 24t102 7q61 0 101 -7t63.5 -24t35 -47t14.5 -75.5t3 -110.5q0 -64 -3 -109.5t-14.5 -75.5t-35 -47t-63.5 -23.5t-101 -6.5zM290 33q64 0 99 8.5t50 31.5t18 67t3 114
q0 71 -3 115t-18 67.5t-50 32t-99 8.5t-99.5 -8.5t-50.5 -32t-18 -67.5t-3 -115q0 -70 3 -114t18 -67t50.5 -31.5t99.5 -8.5zM125 616q0 36 4.5 58t18.5 32t42 10t55 -8t55 -19q21 -8 42 -15t45 -7q22 0 28 13.5t6 46.5h31q0 -36 -4.5 -58t-18.5 -32t-41 -10q-30 0 -55.5 9
t-54.5 19q-22 7 -43 14.5t-44 7.5q-22 0 -28 -13.5t-6 -47.5h-32z" />
    <glyph glyph-name="odieresis" unicode="&#xf6;" horiz-adv-x="579" 
d="M290 -8q-62 0 -102 6.5t-63.5 23.5t-34.5 47t-14 75.5t-3 109.5q0 65 3 110.5t14 75.5t34.5 47t63.5 24t102 7q61 0 101 -7t63.5 -24t35 -47t14.5 -75.5t3 -110.5q0 -64 -3 -109.5t-14.5 -75.5t-35 -47t-63.5 -23.5t-101 -6.5zM290 33q64 0 99 8.5t50 31.5t18 67t3 114
q0 71 -3 115t-18 67.5t-50 32t-99 8.5t-99.5 -8.5t-50.5 -32t-18 -67.5t-3 -115q0 -70 3 -114t18 -67t50.5 -31.5t99.5 -8.5zM159 645v65h51v-65h-51zM368 645v65h51v-65h-51z" />
    <glyph glyph-name="divide" unicode="&#xf7;" horiz-adv-x="540" 
d="M70 233v40h400v-40h-400zM245 31v65h50v-65h-50zM245 410v65h50v-65h-50z" />
    <glyph glyph-name="oslash" unicode="&#xf8;" horiz-adv-x="579" 
d="M73 -55l388 620h45l-389 -620h-44zM290 -8q-62 0 -102 6.5t-63.5 23.5t-34.5 47t-14 75.5t-3 109.5q0 65 3 110.5t14 75.5t34.5 47t63.5 24t102 7q61 0 101 -7t63.5 -24t35 -47t14.5 -75.5t3 -110.5q0 -64 -3 -109.5t-14.5 -75.5t-35 -47t-63.5 -23.5t-101 -6.5zM290 33
q64 0 99 8.5t50 31.5t18 67t3 114q0 71 -3 115t-18 67.5t-50 32t-99 8.5t-99.5 -8.5t-50.5 -32t-18 -67.5t-3 -115q0 -70 3 -114t18 -67t50.5 -31.5t99.5 -8.5z" />
    <glyph glyph-name="ugrave" unicode="&#xf9;" horiz-adv-x="603" 
d="M281 -8q-60 0 -96.5 11.5t-55.5 34.5t-25.5 61t-6.5 91v320h46v-309q0 -54 5.5 -87.5t21.5 -51t46 -23t78 -5.5q62 0 96 16t49 44.5t18 67.5t3 84v264h46v-510h-39l-3 81h-5q-8 -24 -26.5 -44t-54.5 -32.5t-97 -12.5zM317 603l-127 133v5h56l106 -133v-5h-35z" />
    <glyph glyph-name="uacute" unicode="&#xfa;" horiz-adv-x="603" 
d="M281 -8q-60 0 -96.5 11.5t-55.5 34.5t-25.5 61t-6.5 91v320h46v-309q0 -54 5.5 -87.5t21.5 -51t46 -23t78 -5.5q62 0 96 16t49 44.5t18 67.5t3 84v264h46v-510h-39l-3 81h-5q-8 -24 -26.5 -44t-54.5 -32.5t-97 -12.5zM241 603v5l106 134h56v-5l-127 -134h-35z" />
    <glyph glyph-name="ucircumflex" unicode="&#xfb;" horiz-adv-x="603" 
d="M281 -8q-60 0 -96.5 11.5t-55.5 34.5t-25.5 61t-6.5 91v320h46v-309q0 -54 5.5 -87.5t21.5 -51t46 -23t78 -5.5q62 0 96 16t49 44.5t18 67.5t3 84v264h46v-510h-39l-3 81h-5q-8 -24 -26.5 -44t-54.5 -32.5t-97 -12.5zM168 603v6l106 133h55l106 -133v-6h-34l-100 106
l-99 -106h-34z" />
    <glyph glyph-name="udieresis" unicode="&#xfc;" horiz-adv-x="603" 
d="M281 -8q-60 0 -96.5 11.5t-55.5 34.5t-25.5 61t-6.5 91v320h46v-309q0 -54 5.5 -87.5t21.5 -51t46 -23t78 -5.5q62 0 96 16t49 44.5t18 67.5t3 84v264h46v-510h-39l-3 81h-5q-8 -24 -26.5 -44t-54.5 -32.5t-97 -12.5zM171 645v65h51v-65h-51zM380 645v65h51v-65h-51z" />
    <glyph glyph-name="yacute" unicode="&#xfd;" horiz-adv-x="603" 
d="M284 -206q-29 0 -60.5 1t-60.5 2.5t-50 3.5v41q29 -2 57.5 -3.5t55.5 -2.5t50 -1q63 0 100.5 12t55 37.5t23 65.5t5.5 96v28h-5q-6 -19 -24 -38t-53.5 -31t-96.5 -12q-60 0 -96.5 11t-55.5 34.5t-25.5 61t-6.5 91.5v319h46v-309q0 -54 5.5 -87.5t21.5 -50.5t46 -23t78 -6
q62 0 96 16t49 45t18 67.5t3 84.5v263h46v-444q0 -75 -8.5 -127.5t-31.5 -84t-67 -46t-115 -14.5zM241 603v5l106 134h56v-5l-127 -134h-35z" />
    <glyph glyph-name="thorn" unicode="&#xfe;" horiz-adv-x="595" 
d="M97 -190v933h46v-305h4q13 30 36.5 47.5t59 25t81.5 7.5q62 0 101 -11.5t60 -40.5t29 -80t8 -131q0 -79 -8 -130.5t-29 -80.5t-60 -40.5t-100 -11.5q-71 0 -115 18t-63 62h-4v-262h-46zM309 34q54 0 87.5 7.5t50.5 30t23 66.5t6 117t-6 117t-23 66.5t-50.5 30t-87.5 7.5
q-62 0 -100 -18t-53 -62q-10 -27 -11.5 -62t-1.5 -79q0 -45 1.5 -79t8.5 -54q17 -49 54.5 -68.5t101.5 -19.5z" />
    <glyph glyph-name="ydieresis" unicode="&#xff;" horiz-adv-x="603" 
d="M284 -206q-29 0 -60.5 1t-60.5 2.5t-50 3.5v41q29 -2 57.5 -3.5t55.5 -2.5t50 -1q63 0 100.5 12t55 37.5t23 65.5t5.5 96v28h-5q-6 -19 -24 -38t-53.5 -31t-96.5 -12q-60 0 -96.5 11t-55.5 34.5t-25.5 61t-6.5 91.5v319h46v-309q0 -54 5.5 -87.5t21.5 -50.5t46 -23t78 -6
q62 0 96 16t49 45t18 67.5t3 84.5v263h46v-444q0 -75 -8.5 -127.5t-31.5 -84t-67 -46t-115 -14.5zM171 645v65h51v-65h-51zM380 645v65h51v-65h-51z" />
    <glyph glyph-name="Amacron" unicode="&#x100;" horiz-adv-x="683" 
d="M37 0l278 688h53l278 -688h-51l-86 214h-336l-86 -214h-50zM190 258h302l-148 370h-5zM206 823v37h271v-37h-271z" />
    <glyph glyph-name="amacron" unicode="&#x101;" horiz-adv-x="573" 
d="M243 -8q-62 0 -102 11.5t-59 43t-19 92.5q0 56 13 88t46 45t93 13q11 0 35.5 -0.5t56 -1t63.5 -1t60 -1.5v42q0 54 -6.5 84.5t-24.5 46t-52 19.5t-88 4q-23 0 -53.5 -2t-59.5 -4.5t-48 -5.5v41q32 5 78.5 8.5t99.5 3.5q50 0 85.5 -5.5t58 -18t34.5 -34t17 -54.5t5 -78
v-328h-39l-3 80h-4q-15 -39 -46 -58t-68.5 -24.5t-72.5 -5.5zM249 32q34 0 65.5 3.5t55.5 15.5t37 38q13 28 18 56.5t5 64.5v37h-203q-47 0 -73 -7.5t-36 -30.5t-10 -69q0 -44 11.5 -67.5t42 -32t87.5 -8.5zM154 645v37h271v-37h-271z" />
    <glyph glyph-name="Abreve" unicode="&#x102;" horiz-adv-x="683" 
d="M37 0l278 688h53l278 -688h-51l-86 214h-336l-86 -214h-50zM190 258h302l-148 370h-5zM341 772q-48 0 -75 10.5t-38.5 30t-14 45t-2.5 56.5h36q0 -35 4 -59.5t24 -36.5t66 -12q47 0 66.5 12t24 36.5t4.5 59.5h36q0 -31 -2.5 -56.5t-14.5 -45t-39 -30t-75 -10.5z" />
    <glyph glyph-name="abreve" unicode="&#x103;" horiz-adv-x="573" 
d="M243 -8q-62 0 -102 11.5t-59 43t-19 92.5q0 56 13 88t46 45t93 13q11 0 35.5 -0.5t56 -1t63.5 -1t60 -1.5v42q0 54 -6.5 84.5t-24.5 46t-52 19.5t-88 4q-23 0 -53.5 -2t-59.5 -4.5t-48 -5.5v41q32 5 78.5 8.5t99.5 3.5q50 0 85.5 -5.5t58 -18t34.5 -34t17 -54.5t5 -78
v-328h-39l-3 80h-4q-15 -39 -46 -58t-68.5 -24.5t-72.5 -5.5zM249 32q34 0 65.5 3.5t55.5 15.5t37 38q13 28 18 56.5t5 64.5v37h-203q-47 0 -73 -7.5t-36 -30.5t-10 -69q0 -44 11.5 -67.5t42 -32t87.5 -8.5zM289 594q-48 0 -75 11t-38.5 30t-14 44.5t-2.5 56.5h36
q0 -35 4 -59.5t24 -36.5t66 -12q47 0 66.5 12t24 36.5t4.5 59.5h36q0 -31 -2.5 -56.5t-14.5 -44.5t-39 -30t-75 -11z" />
    <glyph glyph-name="Aogonek" unicode="&#x104;" horiz-adv-x="683" 
d="M37 0l278 688h53l278 -688h-51l-86 214h-336l-86 -214h-50zM190 258h302l-148 370h-5zM621 -200q-30 0 -47.5 9.5t-25.5 26.5t-8 37q0 33 21 70.5t54 66.5l31 -10q-13 -12 -28 -32t-25 -43t-10 -43q0 -19 10.5 -32t36.5 -13h6.5t10.5 1v-37q-8 -1 -13 -1h-13z" />
    <glyph glyph-name="aogonek" unicode="&#x105;" horiz-adv-x="573" 
d="M243 -8q-62 0 -102 11.5t-59 43t-19 92.5q0 56 13 88t46 45t93 13q11 0 35.5 -0.5t56 -1t63.5 -1t60 -1.5v42q0 54 -6.5 84.5t-24.5 46t-52 19.5t-88 4q-23 0 -53.5 -2t-59.5 -4.5t-48 -5.5v41q32 5 78.5 8.5t99.5 3.5q50 0 85.5 -5.5t58 -18t34.5 -34t17 -54.5t5 -78
v-328h-39l-3 80h-4q-15 -39 -46 -58t-68.5 -24.5t-72.5 -5.5zM249 32q34 0 65.5 3.5t55.5 15.5t37 38q13 28 18 56.5t5 64.5v37h-203q-47 0 -73 -7.5t-36 -30.5t-10 -69q0 -44 11.5 -67.5t42 -32t87.5 -8.5zM451 -200q-30 0 -47.5 9.5t-25.5 26.5t-8 37q0 33 21 70.5
t54 66.5l31 -10q-13 -12 -28 -32t-25 -43t-10 -43q0 -19 10.5 -32t36.5 -13h6.5t10.5 1v-37q-8 -1 -13 -1h-13z" />
    <glyph glyph-name="Cacute" unicode="&#x106;" horiz-adv-x="577" 
d="M356 -8q-69 0 -117 7t-77.5 27t-46 58.5t-22.5 102t-6 157.5q0 93 6 156t22.5 101.5t46 59t77.5 28t117 7.5q26 0 54 -1.5t54.5 -4.5t45.5 -7v-41q-20 3 -45 5.5t-50 3.5t-46 1q-63 0 -106 -5t-68.5 -21.5t-38.5 -50t-17 -90t-4 -141.5t4 -141.5t17 -90t38.5 -50
t68.5 -21.5t106 -5q35 0 75 3t70 7v-43q-20 -3 -47.5 -5.5t-56.5 -4t-54 -1.5zM290 781v5l106 134h56v-5l-127 -134h-35z" />
    <glyph glyph-name="cacute" unicode="&#x107;" horiz-adv-x="458" 
d="M275 -8q-56 0 -92.5 9t-58.5 29t-33 50.5t-14.5 74t-3.5 99.5q0 63 4.5 107.5t17.5 75t35.5 48t56.5 25.5t83 8q34 0 71 -3t61 -9v-40q-25 4 -59.5 7.5t-61.5 3.5q-53 0 -85 -9.5t-49 -33.5t-22.5 -67.5t-5.5 -110.5q0 -70 5.5 -114.5t23 -68t50 -32t85.5 -8.5
q31 0 66 3.5t58 8.5v-41q-23 -5 -60 -8.5t-72 -3.5zM198 603v5l106 134h56v-5l-127 -134h-35z" />
    <glyph glyph-name="Ccircumflex" unicode="&#x108;" horiz-adv-x="577" 
d="M356 -8q-69 0 -117 7t-77.5 27t-46 58.5t-22.5 102t-6 157.5q0 93 6 156t22.5 101.5t46 59t77.5 28t117 7.5q26 0 54 -1.5t54.5 -4.5t45.5 -7v-41q-20 3 -45 5.5t-50 3.5t-46 1q-63 0 -106 -5t-68.5 -21.5t-38.5 -50t-17 -90t-4 -141.5t4 -141.5t17 -90t38.5 -50
t68.5 -21.5t106 -5q35 0 75 3t70 7v-43q-20 -3 -47.5 -5.5t-56.5 -4t-54 -1.5zM196 782v5l106 134h55l106 -134v-5h-34l-100 105l-99 -105h-34z" />
    <glyph glyph-name="ccircumflex" unicode="&#x109;" horiz-adv-x="458" 
d="M275 -8q-56 0 -92.5 9t-58.5 29t-33 50.5t-14.5 74t-3.5 99.5q0 63 4.5 107.5t17.5 75t35.5 48t56.5 25.5t83 8q34 0 71 -3t61 -9v-40q-25 4 -59.5 7.5t-61.5 3.5q-53 0 -85 -9.5t-49 -33.5t-22.5 -67.5t-5.5 -110.5q0 -70 5.5 -114.5t23 -68t50 -32t85.5 -8.5
q31 0 66 3.5t58 8.5v-41q-23 -5 -60 -8.5t-72 -3.5zM124 603v6l106 133h55l106 -133v-6h-34l-100 106l-99 -106h-34z" />
    <glyph glyph-name="Cdotaccent" unicode="&#x10a;" horiz-adv-x="577" 
d="M356 -8q-69 0 -117 7t-77.5 27t-46 58.5t-22.5 102t-6 157.5q0 93 6 156t22.5 101.5t46 59t77.5 28t117 7.5q26 0 54 -1.5t54.5 -4.5t45.5 -7v-41q-20 3 -45 5.5t-50 3.5t-46 1q-63 0 -106 -5t-68.5 -21.5t-38.5 -50t-17 -90t-4 -141.5t4 -141.5t17 -90t38.5 -50
t68.5 -21.5t106 -5q35 0 75 3t70 7v-43q-20 -3 -47.5 -5.5t-56.5 -4t-54 -1.5zM304 824v65h51v-65h-51z" />
    <glyph glyph-name="cdotaccent" unicode="&#x10b;" horiz-adv-x="458" 
d="M275 -8q-56 0 -92.5 9t-58.5 29t-33 50.5t-14.5 74t-3.5 99.5q0 63 4.5 107.5t17.5 75t35.5 48t56.5 25.5t83 8q34 0 71 -3t61 -9v-40q-25 4 -59.5 7.5t-61.5 3.5q-53 0 -85 -9.5t-49 -33.5t-22.5 -67.5t-5.5 -110.5q0 -70 5.5 -114.5t23 -68t50 -32t85.5 -8.5
q31 0 66 3.5t58 8.5v-41q-23 -5 -60 -8.5t-72 -3.5zM232 645v65h51v-65h-51z" />
    <glyph glyph-name="Ccaron" unicode="&#x10c;" horiz-adv-x="577" 
d="M356 -8q-69 0 -117 7t-77.5 27t-46 58.5t-22.5 102t-6 157.5q0 93 6 156t22.5 101.5t46 59t77.5 28t117 7.5q26 0 54 -1.5t54.5 -4.5t45.5 -7v-41q-20 3 -45 5.5t-50 3.5t-46 1q-63 0 -106 -5t-68.5 -21.5t-38.5 -50t-17 -90t-4 -141.5t4 -141.5t17 -90t38.5 -50
t68.5 -21.5t106 -5q35 0 75 3t70 7v-43q-20 -3 -47.5 -5.5t-56.5 -4t-54 -1.5zM302 781l-106 133v5h34l99 -104l100 104h34v-5l-106 -133h-55z" />
    <glyph glyph-name="ccaron" unicode="&#x10d;" horiz-adv-x="458" 
d="M275 -8q-56 0 -92.5 9t-58.5 29t-33 50.5t-14.5 74t-3.5 99.5q0 63 4.5 107.5t17.5 75t35.5 48t56.5 25.5t83 8q34 0 71 -3t61 -9v-40q-25 4 -59.5 7.5t-61.5 3.5q-53 0 -85 -9.5t-49 -33.5t-22.5 -67.5t-5.5 -110.5q0 -70 5.5 -114.5t23 -68t50 -32t85.5 -8.5
q31 0 66 3.5t58 8.5v-41q-23 -5 -60 -8.5t-72 -3.5zM230 603l-106 133v5h34l99 -104l100 104h34v-5l-106 -133h-55z" />
    <glyph glyph-name="Dcaron" unicode="&#x10e;" horiz-adv-x="692" 
d="M111 0v688h209q81 0 133.5 -7t83 -27t45.5 -58.5t19 -99.5t4 -152t-4 -152t-19 -99.5t-45.5 -58.5t-83 -27t-133.5 -7h-209zM159 44h142q73 0 120.5 3t75 17t40 46t16.5 89t4 145t-4 145t-17 89t-41 46t-75 17t-119 3h-142v-600zM319 781l-106 133v5h34l99 -104l100 104
h34v-5l-106 -133h-55z" />
    <glyph glyph-name="dcaron" unicode="&#x10f;" horiz-adv-x="595" 
d="M271 -8q-62 0 -101 11.5t-60 40.5t-29 80t-8 131q0 79 8 130.5t29 80.5t59.5 40.5t100.5 11.5q47 0 82 -7.5t59 -25t36 -47.5h5v305h46v-743h-39l-3 81h-5q-14 -39 -42 -58t-64 -25t-74 -6zM286 34q62 0 99.5 17t50.5 54q12 34 14 72t2 90q0 36 -2 69.5t-11 59.5
q-16 44 -53.5 62t-104.5 18q-52 0 -84.5 -7.5t-49.5 -30t-22.5 -66.5t-5.5 -117t6 -117t23 -66.5t50 -30t88 -7.5zM528 452l13 150v86h42v-86l-25 -150h-30z" />
    <glyph glyph-name="Dcroat" unicode="&#x110;" horiz-adv-x="692" 
d="M111 0v327h-69v44h69v317h209q81 0 133.5 -7t83 -27t45.5 -58.5t19 -99.5t4 -152t-4 -152t-19 -99.5t-45.5 -58.5t-83 -27t-133.5 -7h-209zM159 44h142q73 0 120.5 3t75 17t40 46t16.5 89t4 145t-4 145t-17 89t-41 46t-75 17t-119 3h-142v-273h125v-44h-125v-283z" />
    <glyph glyph-name="dcroat" unicode="&#x111;" horiz-adv-x="595" 
d="M304 650v38h262v-38h-262zM271 -8q-62 0 -101 11.5t-60 40.5t-29 80t-8 131q0 79 8 130.5t29 80.5t59.5 40.5t100.5 11.5q47 0 82 -7.5t59 -25t36 -47.5h5v305h46v-743h-39l-3 81h-5q-14 -39 -42 -58t-64 -25t-74 -6zM286 34q62 0 99.5 17t50.5 54q12 34 14 72t2 90
q0 36 -2 69.5t-11 59.5q-16 44 -53.5 62t-104.5 18q-52 0 -84.5 -7.5t-49.5 -30t-22.5 -66.5t-5.5 -117t6 -117t23 -66.5t50 -30t88 -7.5z" />
    <glyph glyph-name="Emacron" unicode="&#x112;" horiz-adv-x="599" 
d="M111 0v688h431v-44h-383v-274h336v-44h-336v-282h383v-44h-431zM196 823v37h271v-37h-271z" />
    <glyph glyph-name="emacron" unicode="&#x113;" horiz-adv-x="561" 
d="M292 -8q-58 0 -97.5 7.5t-63.5 25t-37 47.5t-17 75t-4 107q0 74 5 124.5t25.5 81t65.5 44.5t124 14q56 0 92 -8.5t57 -26t31 -48.5t13 -75t3 -104v-17h-370q0 -62 5.5 -102.5t23 -63.5t54 -31.5t98.5 -8.5q26 0 56.5 1.5t60 4.5t52.5 7v-41q-20 -4 -49.5 -7t-62.5 -4.5
t-65 -1.5zM443 258v38q0 61 -7 97t-24 54.5t-47 24t-75 5.5q-58 0 -92 -7t-51.5 -28t-22.5 -60t-5 -104h344zM150 645v37h271v-37h-271z" />
    <glyph glyph-name="Ebreve" unicode="&#x114;" horiz-adv-x="599" 
d="M111 0v688h431v-44h-383v-274h336v-44h-336v-282h383v-44h-431zM331 772q-48 0 -75 10.5t-38.5 30t-14 45t-2.5 56.5h36q0 -35 4 -59.5t24 -36.5t66 -12q47 0 66.5 12t24 36.5t4.5 59.5h36q0 -31 -2.5 -56.5t-14.5 -45t-39 -30t-75 -10.5z" />
    <glyph glyph-name="ebreve" unicode="&#x115;" horiz-adv-x="561" 
d="M292 -8q-58 0 -97.5 7.5t-63.5 25t-37 47.5t-17 75t-4 107q0 74 5 124.5t25.5 81t65.5 44.5t124 14q56 0 92 -8.5t57 -26t31 -48.5t13 -75t3 -104v-17h-370q0 -62 5.5 -102.5t23 -63.5t54 -31.5t98.5 -8.5q26 0 56.5 1.5t60 4.5t52.5 7v-41q-20 -4 -49.5 -7t-62.5 -4.5
t-65 -1.5zM443 258v38q0 61 -7 97t-24 54.5t-47 24t-75 5.5q-58 0 -92 -7t-51.5 -28t-22.5 -60t-5 -104h344zM285 594q-48 0 -75 11t-38.5 30t-14 44.5t-2.5 56.5h36q0 -35 4 -59.5t24 -36.5t66 -12q47 0 66.5 12t24 36.5t4.5 59.5h36q0 -31 -2.5 -56.5t-14.5 -44.5t-39 -30
t-75 -11z" />
    <glyph glyph-name="Edotaccent" unicode="&#x116;" horiz-adv-x="599" 
d="M111 0v688h431v-44h-383v-274h336v-44h-336v-282h383v-44h-431zM306 824v65h51v-65h-51z" />
    <glyph glyph-name="edotaccent" unicode="&#x117;" horiz-adv-x="561" 
d="M292 -8q-58 0 -97.5 7.5t-63.5 25t-37 47.5t-17 75t-4 107q0 74 5 124.5t25.5 81t65.5 44.5t124 14q56 0 92 -8.5t57 -26t31 -48.5t13 -75t3 -104v-17h-370q0 -62 5.5 -102.5t23 -63.5t54 -31.5t98.5 -8.5q26 0 56.5 1.5t60 4.5t52.5 7v-41q-20 -4 -49.5 -7t-62.5 -4.5
t-65 -1.5zM443 258v38q0 61 -7 97t-24 54.5t-47 24t-75 5.5q-58 0 -92 -7t-51.5 -28t-22.5 -60t-5 -104h344zM260 645v65h51v-65h-51z" />
    <glyph glyph-name="Eogonek" unicode="&#x118;" horiz-adv-x="599" 
d="M111 0v688h431v-44h-383v-274h336v-44h-336v-282h383v-44h-431zM518 -200q-30 0 -47.5 9.5t-25.5 26.5t-8 37q0 33 21 70.5t54 66.5l31 -10q-13 -12 -28 -32t-25 -43t-10 -43q0 -19 10.5 -32t36.5 -13h6.5t10.5 1v-37q-8 -1 -13 -1h-13z" />
    <glyph glyph-name="eogonek" unicode="&#x119;" horiz-adv-x="561" 
d="M292 -8q-58 0 -97.5 7.5t-63.5 25t-37 47.5t-17 75t-4 107q0 74 5 124.5t25.5 81t65.5 44.5t124 14q56 0 92 -8.5t57 -26t31 -48.5t13 -75t3 -104v-17h-370q0 -62 5.5 -102.5t23 -63.5t54 -31.5t98.5 -8.5q26 0 56.5 1.5t60 4.5t52.5 7v-41q-20 -4 -49.5 -7t-62.5 -4.5
t-65 -1.5zM443 258v38q0 61 -7 97t-24 54.5t-47 24t-75 5.5q-58 0 -92 -7t-51.5 -28t-22.5 -60t-5 -104h344zM444 -195q-30 0 -47.5 9.5t-25.5 26.5t-8 37q0 33 21 70.5t54 66.5l31 -10q-13 -12 -28 -32t-25 -43t-10 -43q0 -19 10.5 -32t36.5 -13h6.5t10.5 1v-37
q-8 -1 -13 -1h-13z" />
    <glyph glyph-name="Ecaron" unicode="&#x11a;" horiz-adv-x="599" 
d="M111 0v688h431v-44h-383v-274h336v-44h-336v-282h383v-44h-431zM305 781l-106 133v5h34l99 -104l100 104h34v-5l-106 -133h-55z" />
    <glyph glyph-name="ecaron" unicode="&#x11b;" horiz-adv-x="561" 
d="M292 -8q-58 0 -97.5 7.5t-63.5 25t-37 47.5t-17 75t-4 107q0 74 5 124.5t25.5 81t65.5 44.5t124 14q56 0 92 -8.5t57 -26t31 -48.5t13 -75t3 -104v-17h-370q0 -62 5.5 -102.5t23 -63.5t54 -31.5t98.5 -8.5q26 0 56.5 1.5t60 4.5t52.5 7v-41q-20 -4 -49.5 -7t-62.5 -4.5
t-65 -1.5zM443 258v38q0 61 -7 97t-24 54.5t-47 24t-75 5.5q-58 0 -92 -7t-51.5 -28t-22.5 -60t-5 -104h344zM258 603l-106 133v5h34l99 -104l100 104h34v-5l-106 -133h-55z" />
    <glyph glyph-name="Gcircumflex" unicode="&#x11c;" horiz-adv-x="681" 
d="M371 -8q-71 0 -121 7.5t-82 28t-49.5 59.5t-24.5 101.5t-7 155.5t7 155.5t25 101.5t50.5 59.5t82 28t119.5 7.5q34 0 72.5 -2.5t74.5 -6.5t63 -10v-41q-30 5 -63 8.5t-63 5.5t-51 2q-66 0 -113 -3t-77.5 -17.5t-47.5 -47.5t-24 -90.5t-7 -149.5q0 -81 4 -136t18 -89
t40 -52.5t68 -25t106 -6.5q23 0 53.5 2t61 4.5t51.5 4.5v265h-185v43h232v-344q-32 -6 -70 -10t-75.5 -6t-67.5 -2zM228 782v5l106 134h55l106 -134v-5h-34l-100 105l-99 -105h-34z" />
    <glyph glyph-name="gcircumflex" unicode="&#x11d;" horiz-adv-x="595" 
d="M278 -206q-32 0 -66 1t-65.5 2.5t-53.5 4.5v40q28 -2 59.5 -3.5t62 -2.5t55.5 -1q61 0 97 10t54.5 35t24.5 68t6 109v16h-5q-12 -30 -35.5 -47.5t-58.5 -25t-82 -7.5q-63 0 -101.5 11.5t-59.5 40t-29 80t-8 130.5t8 130.5t29 80.5t60 40.5t101 11.5q38 0 74 -6t64 -25
t42 -58h5l3 81h39v-439q0 -78 -7.5 -131.5t-30 -85.5t-66 -46t-116.5 -14zM286 34q63 0 100 17.5t50 57.5q11 29 13.5 65t2.5 81t-2 79.5t-11 60.5q-15 45 -53 63t-100 18q-55 0 -88 -7.5t-50 -30t-23 -66.5t-6 -117t6 -117t23 -66.5t50 -30t88 -7.5zM164 603v6l106 133h55
l106 -133v-6h-34l-100 106l-99 -106h-34z" />
    <glyph glyph-name="Gbreve" unicode="&#x11e;" horiz-adv-x="681" 
d="M371 -8q-71 0 -121 7.5t-82 28t-49.5 59.5t-24.5 101.5t-7 155.5t7 155.5t25 101.5t50.5 59.5t82 28t119.5 7.5q34 0 72.5 -2.5t74.5 -6.5t63 -10v-41q-30 5 -63 8.5t-63 5.5t-51 2q-66 0 -113 -3t-77.5 -17.5t-47.5 -47.5t-24 -90.5t-7 -149.5q0 -81 4 -136t18 -89
t40 -52.5t68 -25t106 -6.5q23 0 53.5 2t61 4.5t51.5 4.5v265h-185v43h232v-344q-32 -6 -70 -10t-75.5 -6t-67.5 -2zM360 772q-48 0 -75 10.5t-38.5 30t-14 45t-2.5 56.5h36q0 -35 4 -59.5t24 -36.5t66 -12q47 0 66.5 12t24 36.5t4.5 59.5h36q0 -31 -2.5 -56.5t-14.5 -45
t-39 -30t-75 -10.5z" />
    <glyph glyph-name="gbreve" unicode="&#x11f;" horiz-adv-x="595" 
d="M278 -206q-32 0 -66 1t-65.5 2.5t-53.5 4.5v40q28 -2 59.5 -3.5t62 -2.5t55.5 -1q61 0 97 10t54.5 35t24.5 68t6 109v16h-5q-12 -30 -35.5 -47.5t-58.5 -25t-82 -7.5q-63 0 -101.5 11.5t-59.5 40t-29 80t-8 130.5t8 130.5t29 80.5t60 40.5t101 11.5q38 0 74 -6t64 -25
t42 -58h5l3 81h39v-439q0 -78 -7.5 -131.5t-30 -85.5t-66 -46t-116.5 -14zM286 34q63 0 100 17.5t50 57.5q11 29 13.5 65t2.5 81t-2 79.5t-11 60.5q-15 45 -53 63t-100 18q-55 0 -88 -7.5t-50 -30t-23 -66.5t-6 -117t6 -117t23 -66.5t50 -30t88 -7.5zM296 594q-48 0 -75 11
t-38.5 30t-14 44.5t-2.5 56.5h36q0 -35 4 -59.5t24 -36.5t66 -12q47 0 66.5 12t24 36.5t4.5 59.5h36q0 -31 -2.5 -56.5t-14.5 -44.5t-39 -30t-75 -11z" />
    <glyph glyph-name="Gdotaccent" unicode="&#x120;" horiz-adv-x="681" 
d="M371 -8q-71 0 -121 7.5t-82 28t-49.5 59.5t-24.5 101.5t-7 155.5t7 155.5t25 101.5t50.5 59.5t82 28t119.5 7.5q34 0 72.5 -2.5t74.5 -6.5t63 -10v-41q-30 5 -63 8.5t-63 5.5t-51 2q-66 0 -113 -3t-77.5 -17.5t-47.5 -47.5t-24 -90.5t-7 -149.5q0 -81 4 -136t18 -89
t40 -52.5t68 -25t106 -6.5q23 0 53.5 2t61 4.5t51.5 4.5v265h-185v43h232v-344q-32 -6 -70 -10t-75.5 -6t-67.5 -2zM335 824v65h51v-65h-51z" />
    <glyph glyph-name="gdotaccent" unicode="&#x121;" horiz-adv-x="595" 
d="M278 -206q-32 0 -66 1t-65.5 2.5t-53.5 4.5v40q28 -2 59.5 -3.5t62 -2.5t55.5 -1q61 0 97 10t54.5 35t24.5 68t6 109v16h-5q-12 -30 -35.5 -47.5t-58.5 -25t-82 -7.5q-63 0 -101.5 11.5t-59.5 40t-29 80t-8 130.5t8 130.5t29 80.5t60 40.5t101 11.5q38 0 74 -6t64 -25
t42 -58h5l3 81h39v-439q0 -78 -7.5 -131.5t-30 -85.5t-66 -46t-116.5 -14zM286 34q63 0 100 17.5t50 57.5q11 29 13.5 65t2.5 81t-2 79.5t-11 60.5q-15 45 -53 63t-100 18q-55 0 -88 -7.5t-50 -30t-23 -66.5t-6 -117t6 -117t23 -66.5t50 -30t88 -7.5zM271 645v65h51v-65h-51
z" />
    <glyph glyph-name="uni0122" unicode="&#x122;" horiz-adv-x="681" 
d="M371 -8q-71 0 -121 7.5t-82 28t-49.5 59.5t-24.5 101.5t-7 155.5t7 155.5t25 101.5t50.5 59.5t82 28t119.5 7.5q34 0 72.5 -2.5t74.5 -6.5t63 -10v-41q-30 5 -63 8.5t-63 5.5t-51 2q-66 0 -113 -3t-77.5 -17.5t-47.5 -47.5t-24 -90.5t-7 -149.5q0 -81 4 -136t18 -89
t40 -52.5t68 -25t106 -6.5q23 0 53.5 2t61 4.5t51.5 4.5v265h-185v43h232v-344q-32 -6 -70 -10t-75.5 -6t-67.5 -2zM305 -262v25q23 0 34 5t14.5 18t3.5 37v17h-24v72h58v-77q0 -29 -3.5 -48t-13 -30t-26 -15t-43.5 -4z" />
    <glyph glyph-name="uni0123" unicode="&#x123;" horiz-adv-x="595" 
d="M278 -206q-32 0 -66 1t-65.5 2.5t-53.5 4.5v40q28 -2 59.5 -3.5t62 -2.5t55.5 -1q61 0 97 10t54.5 35t24.5 68t6 109v16h-5q-12 -30 -35.5 -47.5t-58.5 -25t-82 -7.5q-63 0 -101.5 11.5t-59.5 40t-29 80t-8 130.5t8 130.5t29 80.5t60 40.5t101 11.5q38 0 74 -6t64 -25
t42 -58h5l3 81h39v-439q0 -78 -7.5 -131.5t-30 -85.5t-66 -46t-116.5 -14zM286 34q63 0 100 17.5t50 57.5q11 29 13.5 65t2.5 81t-2 79.5t-11 60.5q-15 45 -53 63t-100 18q-55 0 -88 -7.5t-50 -30t-23 -66.5t-6 -117t6 -117t23 -66.5t50 -30t88 -7.5zM268 583v77
q0 29 3.5 48t13 30t26 15t43.5 4v-25q-34 0 -43 -12t-9 -48v-17h24v-72h-58z" />
    <glyph glyph-name="Hcircumflex" unicode="&#x124;" horiz-adv-x="736" 
d="M111 0v688h48v-318h418v318h48v-688h-48v326h-418v-326h-48zM235 782v5l106 134h55l106 -134v-5h-34l-100 105l-99 -105h-34z" />
    <glyph glyph-name="hcircumflex" unicode="&#x125;" horiz-adv-x="603" 
d="M97 0v743h46v-306h4q8 19 25.5 37.5t53 31t96.5 12.5q60 0 96.5 -11.5t55.5 -34.5t25.5 -61t6.5 -91v-320h-46v309q0 55 -5.5 88t-22 50.5t-46 23t-77.5 5.5q-62 0 -96 -16t-49 -44.5t-18 -67.5t-3 -84v-264h-46zM-13 782v5l106 134h55l106 -134v-5h-34l-100 105
l-99 -105h-34z" />
    <glyph glyph-name="Hbar" unicode="&#x126;" horiz-adv-x="736" 
d="M111 0v688h48v-153h418v153h48v-688h-48v303h-418v-303h-48zM159 347h418v146h-418v-146z" />
    <glyph glyph-name="hbar" unicode="&#x127;" horiz-adv-x="603" 
d="M28 650v38h262v-38h-262zM97 0v743h46v-306h4q8 19 25.5 37.5t53 31t96.5 12.5q60 0 96.5 -11.5t55.5 -34.5t25.5 -61t6.5 -91v-320h-46v309q0 55 -5.5 88t-22 50.5t-46 23t-77.5 5.5q-62 0 -96 -16t-49 -44.5t-18 -67.5t-3 -84v-264h-46z" />
    <glyph glyph-name="Itilde" unicode="&#x128;" horiz-adv-x="271" 
d="M111 0v688h48v-688h-48zM-29 794q0 36 4.5 58t18.5 32t42 10t55 -8t55 -19q21 -8 42 -15t45 -7q22 0 28 13.5t6 46.5h31q0 -36 -4.5 -58t-18.5 -32t-41 -10q-30 0 -55.5 9t-54.5 19q-22 7 -43 14.5t-44 7.5q-22 0 -28 -13.5t-6 -47.5h-32z" />
    <glyph glyph-name="itilde" unicode="&#x129;" horiz-adv-x="240" 
d="M97 0v510h46v-510h-46zM-44 616q0 36 4.5 58t18.5 32t42 10t55 -8t55 -19q21 -8 42 -15t45 -7q22 0 28 13.5t6 46.5h31q0 -36 -4.5 -58t-18.5 -32t-41 -10q-30 0 -55.5 9t-54.5 19q-22 7 -43 14.5t-44 7.5q-22 0 -28 -13.5t-6 -47.5h-32z" />
    <glyph glyph-name="Imacron" unicode="&#x12a;" horiz-adv-x="271" 
d="M111 0v688h48v-688h-48zM-1 823v37h271v-37h-271z" />
    <glyph glyph-name="imacron" unicode="&#x12b;" horiz-adv-x="240" 
d="M97 0v510h46v-510h-46zM-16 645v37h271v-37h-271z" />
    <glyph glyph-name="Ibreve" unicode="&#x12c;" horiz-adv-x="271" 
d="M111 0v688h48v-688h-48zM134 772q-48 0 -75 10.5t-38.5 30t-14 45t-2.5 56.5h36q0 -35 4 -59.5t24 -36.5t66 -12q47 0 66.5 12t24 36.5t4.5 59.5h36q0 -31 -2.5 -56.5t-14.5 -45t-39 -30t-75 -10.5z" />
    <glyph glyph-name="ibreve" unicode="&#x12d;" horiz-adv-x="240" 
d="M97 0v510h46v-510h-46zM119 594q-48 0 -75 11t-38.5 30t-14 44.5t-2.5 56.5h36q0 -35 4 -59.5t24 -36.5t66 -12q47 0 66.5 12t24 36.5t4.5 59.5h36q0 -31 -2.5 -56.5t-14.5 -44.5t-39 -30t-75 -11z" />
    <glyph glyph-name="Iogonek" unicode="&#x12e;" horiz-adv-x="271" 
d="M111 0v688h48v-688h-48zM134 -200q-30 0 -47.5 9.5t-25.5 26.5t-8 37q0 33 21 70.5t54 66.5l31 -10q-13 -12 -28 -32t-25 -43t-10 -43q0 -19 10.5 -32t36.5 -13h6.5t10.5 1v-37q-8 -1 -13 -1h-13z" />
    <glyph glyph-name="iogonek" unicode="&#x12f;" horiz-adv-x="240" 
d="M93 675v68h54v-68h-54zM97 0v510h46v-510h-46zM118 -200q-30 0 -47.5 9.5t-25.5 26.5t-8 37q0 33 21 70.5t54 66.5l31 -10q-13 -12 -28 -32t-25 -43t-10 -43q0 -19 10.5 -32t36.5 -13h6.5t10.5 1v-37q-8 -1 -13 -1h-13z" />
    <glyph glyph-name="Idotaccent" unicode="&#x130;" horiz-adv-x="271" 
d="M111 0v688h48v-688h-48zM109 824v65h51v-65h-51z" />
    <glyph glyph-name="dotlessi" unicode="&#x131;" horiz-adv-x="240" 
d="M97 0v510h46v-510h-46z" />
    <glyph glyph-name="IJ" unicode="&#x132;" horiz-adv-x="602" 
d="M111 0v688h48v-688h-48zM309 0v43q54 2 83 7t42 23t15.5 59.5t2.5 115.5v440h48v-420q0 -76 -2.5 -126t-11.5 -78.5t-30 -41.5t-56 -17t-91 -5z" />
    <glyph glyph-name="ij" unicode="&#x133;" horiz-adv-x="479" 
d="M93 675v68h54v-68h-54zM97 0v510h46v-510h-46zM333 675v68h54v-68h-54zM236 -200v38q47 0 68 5t27 17.5t6 34.5v615h46v-603q0 -38 -8.5 -59.5t-26.5 -31.5t-45.5 -13t-66.5 -3z" />
    <glyph glyph-name="Jcircumflex" unicode="&#x134;" horiz-adv-x="331" 
d="M38 0v43q54 2 83 7t42 23t15.5 59.5t2.5 115.5v440h48v-420q0 -76 -2.5 -126t-11.5 -78.5t-30 -41.5t-56 -17t-91 -5zM72 782v5l106 134h55l106 -134v-5h-34l-100 105l-99 -105h-34z" />
    <glyph glyph-name="jcircumflex" unicode="&#x135;" horiz-adv-x="240" 
d="M-4 -200v38q47 0 68 5t27 17.5t6 34.5v615h46v-603q0 -38 -8.5 -59.5t-26.5 -31.5t-45.5 -13t-66.5 -3zM-13 603v6l106 133h55l106 -133v-6h-34l-100 106l-99 -106h-34z" />
    <glyph glyph-name="uni0136" unicode="&#x136;" horiz-adv-x="666" 
d="M111 0v688h48v-317h161l252 317h54l-266 -338l269 -350h-56l-253 327h-161v-327h-48zM278 -262v25q23 0 34 5t14.5 18t3.5 37v17h-24v72h58v-77q0 -29 -3.5 -48t-13 -30t-26 -15t-43.5 -4z" />
    <glyph glyph-name="uni0137" unicode="&#x137;" horiz-adv-x="524" 
d="M97 0v743h46v-462h80l205 229h55l-222 -248l225 -262h-57l-206 238h-80v-238h-46zM211 -262v25q23 0 34 5t14.5 18t3.5 37v17h-24v72h58v-77q0 -29 -3.5 -48t-13 -30t-26 -15t-43.5 -4z" />
    <glyph glyph-name="kgreenlandic" unicode="&#x138;" horiz-adv-x="524" 
d="M97 0v510h46v-229h80l205 229h55l-222 -248l225 -262h-57l-206 238h-80v-238h-46z" />
    <glyph glyph-name="Lacute" unicode="&#x139;" horiz-adv-x="536" 
d="M111 0v688h48v-644h343v-44h-391zM96 781v5l106 134h56v-5l-127 -134h-35z" />
    <glyph glyph-name="lacute" unicode="&#x13a;" horiz-adv-x="240" 
d="M97 0v743h46v-743h-46zM81 843v5l106 134h56v-5l-127 -134h-35z" />
    <glyph glyph-name="uni013B" unicode="&#x13b;" horiz-adv-x="536" 
d="M111 0v688h48v-644h343v-44h-391zM260 -262v25q23 0 34 5t14.5 18t3.5 37v17h-24v72h58v-77q0 -29 -3.5 -48t-13 -30t-26 -15t-43.5 -4z" />
    <glyph glyph-name="uni013C" unicode="&#x13c;" horiz-adv-x="240" 
d="M97 0v743h46v-743h-46zM64 -262v25q23 0 34 5t14.5 18t3.5 37v17h-24v72h58v-77q0 -29 -3.5 -48t-13 -30t-26 -15t-43.5 -4z" />
    <glyph glyph-name="Lcaron" unicode="&#x13d;" horiz-adv-x="536" 
d="M111 0v688h48v-644h343v-44h-391zM321 452l13 150v86h42v-86l-25 -150h-30z" />
    <glyph glyph-name="lcaron" unicode="&#x13e;" horiz-adv-x="240" 
d="M97 0v743h46v-743h-46zM206 452l13 150v86h42v-86l-25 -150h-30z" />
    <glyph glyph-name="Ldot" unicode="&#x13f;" horiz-adv-x="536" 
d="M111 0v688h48v-644h343v-44h-391zM374 323v73h55v-73h-55z" />
    <glyph glyph-name="ldot" unicode="&#x140;" horiz-adv-x="244" 
d="M97 0v743h46v-743h-46zM215 263v73h55v-73h-55z" />
    <glyph glyph-name="Lslash" unicode="&#x141;" horiz-adv-x="536" 
d="M44 280v42l323 119v-42zM111 0v688h48v-644h343v-44h-391z" />
    <glyph glyph-name="lslash" unicode="&#x142;" horiz-adv-x="241" 
d="M97 0v337l-64 -23v43l64 23v363h46v-346l67 24v-43l-67 -24v-354h-46z" />
    <glyph glyph-name="Nacute" unicode="&#x143;" horiz-adv-x="736" 
d="M111 0v688h48l416 -599h4v599h46v-688h-46l-417 602h-4v-602h-47zM339 781v5l106 134h56v-5l-127 -134h-35z" />
    <glyph glyph-name="nacute" unicode="&#x144;" horiz-adv-x="603" 
d="M97 0v510h39l3 -81h4q9 24 27.5 44t54.5 32.5t97 12.5q60 0 96.5 -11.5t55.5 -34.5t25.5 -61t6.5 -91v-320h-46v309q0 55 -5.5 88t-22 50.5t-46 23t-77.5 5.5q-62 0 -96 -16t-49 -44.5t-18 -67.5t-3 -84v-264h-46zM241 603v5l106 134h56v-5l-127 -134h-35z" />
    <glyph glyph-name="uni0145" unicode="&#x145;" horiz-adv-x="736" 
d="M111 0v688h48l416 -599h4v599h46v-688h-46l-417 602h-4v-602h-47zM322 -262v25q23 0 34 5t14.5 18t3.5 37v17h-24v72h58v-77q0 -29 -3.5 -48t-13 -30t-26 -15t-43.5 -4z" />
    <glyph glyph-name="uni0146" unicode="&#x146;" horiz-adv-x="603" 
d="M97 0v510h39l3 -81h4q9 24 27.5 44t54.5 32.5t97 12.5q60 0 96.5 -11.5t55.5 -34.5t25.5 -61t6.5 -91v-320h-46v309q0 55 -5.5 88t-22 50.5t-46 23t-77.5 5.5q-62 0 -96 -16t-49 -44.5t-18 -67.5t-3 -84v-264h-46zM245 -262v25q23 0 34 5t14.5 18t3.5 37v17h-24v72h58
v-77q0 -29 -3.5 -48t-13 -30t-26 -15t-43.5 -4z" />
    <glyph glyph-name="Ncaron" unicode="&#x147;" horiz-adv-x="736" 
d="M111 0v688h48l416 -599h4v599h46v-688h-46l-417 602h-4v-602h-47zM351 781l-106 133v5h34l99 -104l100 104h34v-5l-106 -133h-55z" />
    <glyph glyph-name="ncaron" unicode="&#x148;" horiz-adv-x="603" 
d="M97 0v510h39l3 -81h4q9 24 27.5 44t54.5 32.5t97 12.5q60 0 96.5 -11.5t55.5 -34.5t25.5 -61t6.5 -91v-320h-46v309q0 55 -5.5 88t-22 50.5t-46 23t-77.5 5.5q-62 0 -96 -16t-49 -44.5t-18 -67.5t-3 -84v-264h-46zM274 603l-106 133v5h34l99 -104l100 104h34v-5
l-106 -133h-55z" />
    <glyph glyph-name="napostrophe" unicode="&#x149;" horiz-adv-x="604" 
d="M97 0v510h39l3 -81h4q9 24 27.5 44t54.5 32.5t97 12.5q60 0 96.5 -11.5t55.5 -34.5t25.5 -61t6.5 -91v-320h-46v309q0 55 -5.5 88t-22 50.5t-46 23t-77.5 5.5q-62 0 -96 -16t-49 -44.5t-18 -67.5t-3 -84v-264h-46zM0 540v24q23 0 34 5.5t14.5 19.5t3.5 38v17h-24v69h58
v-73q0 -30 -3.5 -49.5t-13 -31t-26 -15.5t-43.5 -4z" />
    <glyph glyph-name="Eng" unicode="&#x14a;" horiz-adv-x="736" 
d="M478 -200v38q47 0 68 5t27 17.5t6 34.5v105l-417 602h-4v-602h-47v688h48l416 -599h4v599h46v-781q0 -31 -5.5 -50t-16.5 -31t-28.5 -17.5t-41.5 -7t-55 -1.5z" />
    <glyph glyph-name="eng" unicode="&#x14b;" horiz-adv-x="603" 
d="M359 -200v38q47 0 68 5t27 17.5t6 34.5v414q0 55 -5.5 88t-22 50.5t-46 23t-77.5 5.5q-62 0 -96 -16t-49 -44.5t-18 -67.5t-3 -84v-264h-46v510h39l3 -81h4q9 24 27.5 44t54.5 32.5t97 12.5q60 0 96.5 -11.5t55.5 -34.5t25.5 -61t6.5 -91v-413q0 -38 -8.5 -59.5
t-26.5 -31.5t-45.5 -13t-66.5 -3z" />
    <glyph glyph-name="Omacron" unicode="&#x14c;" horiz-adv-x="724" 
d="M362 -8q-78 0 -129 7.5t-80.5 28t-43.5 59.5t-18 101.5t-4 155.5t4 155.5t18 101.5t43.5 59.5t80.5 28t129 7.5t129 -7.5t80.5 -28t43.5 -59.5t18 -101.5t4 -155.5t-4 -155.5t-18 -101.5t-43.5 -59.5t-80.5 -28t-129 -7.5zM362 36q62 0 103.5 3.5t66.5 18t37.5 47.5
t16 90.5t3.5 148.5t-3.5 148.5t-16 90.5t-37.5 47.5t-66.5 18t-103.5 3.5q-63 0 -104 -3.5t-66 -18t-37.5 -47.5t-16 -90.5t-3.5 -148.5t3.5 -148.5t16 -90.5t37.5 -47.5t66 -18t104 -3.5zM226 823v37h271v-37h-271z" />
    <glyph glyph-name="omacron" unicode="&#x14d;" horiz-adv-x="579" 
d="M290 -8q-62 0 -102 6.5t-63.5 23.5t-34.5 47t-14 75.5t-3 109.5q0 65 3 110.5t14 75.5t34.5 47t63.5 24t102 7q61 0 101 -7t63.5 -24t35 -47t14.5 -75.5t3 -110.5q0 -64 -3 -109.5t-14.5 -75.5t-35 -47t-63.5 -23.5t-101 -6.5zM290 33q64 0 99 8.5t50 31.5t18 67t3 114
q0 71 -3 115t-18 67.5t-50 32t-99 8.5t-99.5 -8.5t-50.5 -32t-18 -67.5t-3 -115q0 -70 3 -114t18 -67t50.5 -31.5t99.5 -8.5zM154 645v37h271v-37h-271z" />
    <glyph glyph-name="Obreve" unicode="&#x14e;" horiz-adv-x="724" 
d="M362 -8q-78 0 -129 7.5t-80.5 28t-43.5 59.5t-18 101.5t-4 155.5t4 155.5t18 101.5t43.5 59.5t80.5 28t129 7.5t129 -7.5t80.5 -28t43.5 -59.5t18 -101.5t4 -155.5t-4 -155.5t-18 -101.5t-43.5 -59.5t-80.5 -28t-129 -7.5zM362 36q62 0 103.5 3.5t66.5 18t37.5 47.5
t16 90.5t3.5 148.5t-3.5 148.5t-16 90.5t-37.5 47.5t-66.5 18t-103.5 3.5q-63 0 -104 -3.5t-66 -18t-37.5 -47.5t-16 -90.5t-3.5 -148.5t3.5 -148.5t16 -90.5t37.5 -47.5t66 -18t104 -3.5zM361 772q-48 0 -75 10.5t-38.5 30t-14 45t-2.5 56.5h36q0 -35 4 -59.5t24 -36.5
t66 -12q47 0 66.5 12t24 36.5t4.5 59.5h36q0 -31 -2.5 -56.5t-14.5 -45t-39 -30t-75 -10.5z" />
    <glyph glyph-name="obreve" unicode="&#x14f;" horiz-adv-x="579" 
d="M290 -8q-62 0 -102 6.5t-63.5 23.5t-34.5 47t-14 75.5t-3 109.5q0 65 3 110.5t14 75.5t34.5 47t63.5 24t102 7q61 0 101 -7t63.5 -24t35 -47t14.5 -75.5t3 -110.5q0 -64 -3 -109.5t-14.5 -75.5t-35 -47t-63.5 -23.5t-101 -6.5zM290 33q64 0 99 8.5t50 31.5t18 67t3 114
q0 71 -3 115t-18 67.5t-50 32t-99 8.5t-99.5 -8.5t-50.5 -32t-18 -67.5t-3 -115q0 -70 3 -114t18 -67t50.5 -31.5t99.5 -8.5zM288 594q-48 0 -75 11t-38.5 30t-14 44.5t-2.5 56.5h36q0 -35 4 -59.5t24 -36.5t66 -12q47 0 66.5 12t24 36.5t4.5 59.5h36q0 -31 -2.5 -56.5
t-14.5 -44.5t-39 -30t-75 -11z" />
    <glyph glyph-name="Ohungarumlaut" unicode="&#x150;" horiz-adv-x="724" 
d="M362 -8q-78 0 -129 7.5t-80.5 28t-43.5 59.5t-18 101.5t-4 155.5t4 155.5t18 101.5t43.5 59.5t80.5 28t129 7.5t129 -7.5t80.5 -28t43.5 -59.5t18 -101.5t4 -155.5t-4 -155.5t-18 -101.5t-43.5 -59.5t-80.5 -28t-129 -7.5zM362 36q62 0 103.5 3.5t66.5 18t37.5 47.5
t16 90.5t3.5 148.5t-3.5 148.5t-16 90.5t-37.5 47.5t-66.5 18t-103.5 3.5q-63 0 -104 -3.5t-66 -18t-37.5 -47.5t-16 -90.5t-3.5 -148.5t3.5 -148.5t16 -90.5t37.5 -47.5t66 -18t104 -3.5zM237 781v5l90 114h54v-5l-111 -114h-33zM409 781v5l90 114h54v-5l-111 -114h-33z
" />
    <glyph glyph-name="ohungarumlaut" unicode="&#x151;" horiz-adv-x="579" 
d="M290 -8q-62 0 -102 6.5t-63.5 23.5t-34.5 47t-14 75.5t-3 109.5q0 65 3 110.5t14 75.5t34.5 47t63.5 24t102 7q61 0 101 -7t63.5 -24t35 -47t14.5 -75.5t3 -110.5q0 -64 -3 -109.5t-14.5 -75.5t-35 -47t-63.5 -23.5t-101 -6.5zM290 33q64 0 99 8.5t50 31.5t18 67t3 114
q0 71 -3 115t-18 67.5t-50 32t-99 8.5t-99.5 -8.5t-50.5 -32t-18 -67.5t-3 -115q0 -70 3 -114t18 -67t50.5 -31.5t99.5 -8.5zM180 603v5l90 114h54v-5l-111 -114h-33zM352 603v5l90 114h54v-5l-111 -114h-33z" />
    <glyph glyph-name="OE" unicode="&#x152;" horiz-adv-x="1066" 
d="M362 0q-78 0 -129 7t-80.5 27.5t-43.5 58.5t-18 99t-4 152t4 152t18 99t43.5 58.5t80.5 27.5t129 7h647v-44h-367q-22 0 -41.5 1.5t-30.5 3.5q29 -20 43 -55.5t19 -90t5 -133.5h325v-44h-325q0 -81 -4.5 -138t-18.5 -92.5t-44 -56.5q11 2 30.5 3.5t41.5 1.5h367v-44h-647
zM362 44q62 0 103.5 3t66.5 17.5t37.5 46.5t16 88.5t3.5 144.5t-3.5 144.5t-16 88.5t-37.5 46.5t-66.5 17.5t-103.5 3q-63 0 -104 -3t-66 -17.5t-37.5 -46.5t-16 -88.5t-3.5 -144.5t3.5 -144.5t16 -88.5t37.5 -46.5t66 -17.5t104 -3z" />
    <glyph glyph-name="oe" unicode="&#x153;" horiz-adv-x="950" 
d="M290 -8q-77 0 -121 11t-64.5 39.5t-26 80t-5.5 131.5q0 81 5.5 132.5t26 80.5t64.5 40t121 11q88 0 132.5 -16.5t61.5 -62.5q19 42 64 60.5t133 18.5q69 0 109 -13t58.5 -43t23.5 -80t5 -126v-17h-370q0 -62 5.5 -102.5t23 -63.5t54 -31.5t98.5 -8.5q26 0 56.5 1.5
t60 4.5t52.5 7v-41q-19 -4 -49 -7t-63 -4.5t-65 -1.5q-84 0 -129 17.5t-66 63.5q-12 -31 -35 -49t-61.5 -25t-98.5 -7zM290 33q64 0 99 8.5t50 31.5t18 67t3 114q0 71 -3 115t-18 67.5t-50 32t-99 8.5t-99.5 -8.5t-50.5 -32t-18 -67.5t-3 -115q0 -70 3 -114t18 -67
t50.5 -31.5t99.5 -8.5zM832 260v36q0 61 -7.5 97t-24.5 54.5t-47 24t-75 5.5q-57 0 -91.5 -7t-51.5 -28t-22.5 -60t-5.5 -104h342z" />
    <glyph glyph-name="Racute" unicode="&#x154;" horiz-adv-x="684" 
d="M111 0v688h309q64 0 100.5 -16.5t53.5 -45t21.5 -64t4.5 -73.5q0 -40 -6.5 -79t-30 -68.5t-75.5 -43.5l120 -298h-53l-119 300l17 -7q-7 -2 -18 -3t-33 -1h-243v-289h-48zM159 333h239q54 0 85 11t45.5 32t19 49t4.5 64q0 35 -3.5 63.5t-16.5 49t-42 31.5t-79 11h-252
v-311zM303 781v5l106 134h56v-5l-127 -134h-35z" />
    <glyph glyph-name="racute" unicode="&#x155;" horiz-adv-x="347" 
d="M97 0v510h38l4 -106h4q12 46 37.5 71t60.5 34t77 9v-47q-72 0 -110 -25t-51.5 -74t-13.5 -120v-252h-46zM114 603v5l106 134h56v-5l-127 -134h-35z" />
    <glyph glyph-name="uni0156" unicode="&#x156;" horiz-adv-x="684" 
d="M111 0v688h309q64 0 100.5 -16.5t53.5 -45t21.5 -64t4.5 -73.5q0 -40 -6.5 -79t-30 -68.5t-75.5 -43.5l120 -298h-53l-119 300l17 -7q-7 -2 -18 -3t-33 -1h-243v-289h-48zM159 333h239q54 0 85 11t45.5 32t19 49t4.5 64q0 35 -3.5 63.5t-16.5 49t-42 31.5t-79 11h-252
v-311zM286 -262v25q23 0 34 5t14.5 18t3.5 37v17h-24v72h58v-77q0 -29 -3.5 -48t-13 -30t-26 -15t-43.5 -4z" />
    <glyph glyph-name="uni0157" unicode="&#x157;" horiz-adv-x="347" 
d="M97 0v510h38l4 -106h4q12 46 37.5 71t60.5 34t77 9v-47q-72 0 -110 -25t-51.5 -74t-13.5 -120v-252h-46zM64 -262v25q23 0 34 5t14.5 18t3.5 37v17h-24v72h58v-77q0 -29 -3.5 -48t-13 -30t-26 -15t-43.5 -4z" />
    <glyph glyph-name="Rcaron" unicode="&#x158;" horiz-adv-x="684" 
d="M111 0v688h309q64 0 100.5 -16.5t53.5 -45t21.5 -64t4.5 -73.5q0 -40 -6.5 -79t-30 -68.5t-75.5 -43.5l120 -298h-53l-119 300l17 -7q-7 -2 -18 -3t-33 -1h-243v-289h-48zM159 333h239q54 0 85 11t45.5 32t19 49t4.5 64q0 35 -3.5 63.5t-16.5 49t-42 31.5t-79 11h-252
v-311zM315 781l-106 133v5h34l99 -104l100 104h34v-5l-106 -133h-55z" />
    <glyph glyph-name="rcaron" unicode="&#x159;" horiz-adv-x="347" 
d="M97 0v510h38l4 -106h4q12 46 37.5 71t60.5 34t77 9v-47q-72 0 -110 -25t-51.5 -74t-13.5 -120v-252h-46zM146 603l-106 133v5h34l99 -104l100 104h34v-5l-106 -133h-55z" />
    <glyph glyph-name="Sacute" unicode="&#x15a;" horiz-adv-x="634" 
d="M332 -8q-36 0 -79 1.5t-83.5 4.5t-72.5 6v45q34 -3 74.5 -6t79.5 -5t67 -2q52 0 86.5 4t62.5 19q19 11 28 29.5t11.5 43.5t2.5 53q0 43 -2.5 68.5t-13 39.5t-35.5 20t-68 11l-180 19q-48 5 -75 18.5t-39.5 35t-15.5 50.5t-3 65q0 59 14.5 95.5t44 55.5t75 26t106.5 7
q38 0 77 -1.5t73 -5t55 -7.5v-42q-27 4 -62 6.5t-70.5 4t-66.5 1.5q-60 0 -98.5 -6t-61.5 -22q-25 -16 -31.5 -45t-6.5 -68q0 -46 6 -71t27 -36t62 -15l173 -19q42 -3 73.5 -9.5t51.5 -21t30 -44.5q4 -13 6 -28.5t2.5 -34.5t0.5 -42q0 -56 -10 -93t-30 -58t-47.5 -31.5
t-62 -13t-75.5 -2.5zM278 781v5l106 134h56v-5l-127 -134h-35z" />
    <glyph glyph-name="sacute" unicode="&#x15b;" horiz-adv-x="500" 
d="M254 -8q-26 0 -58 1.5t-62.5 4t-54.5 5.5v41q32 -3 55.5 -5t43.5 -3.5t40.5 -2t45.5 -0.5q56 0 83 10t36 32.5t9 59.5q0 43 -7 62t-22.5 24.5t-44.5 8.5l-145 15q-44 5 -68 17.5t-33 39.5t-9 70q0 50 12.5 79.5t38 44t61.5 18.5t82 4q24 0 51 -1.5t53.5 -4t47.5 -7.5v-40
q-28 4 -54 7t-52.5 4t-58.5 1q-40 0 -71 -5t-48 -25.5t-17 -68.5q0 -37 6.5 -55.5t23 -25t45.5 -9.5l142 -14q45 -4 68.5 -15.5t33.5 -39t10 -84.5q0 -45 -10.5 -73t-33 -43t-57 -21t-82.5 -6zM190 603v5l106 134h56v-5l-127 -134h-35z" />
    <glyph glyph-name="Scircumflex" unicode="&#x15c;" horiz-adv-x="634" 
d="M332 -8q-36 0 -79 1.5t-83.5 4.5t-72.5 6v45q34 -3 74.5 -6t79.5 -5t67 -2q52 0 86.5 4t62.5 19q19 11 28 29.5t11.5 43.5t2.5 53q0 43 -2.5 68.5t-13 39.5t-35.5 20t-68 11l-180 19q-48 5 -75 18.5t-39.5 35t-15.5 50.5t-3 65q0 59 14.5 95.5t44 55.5t75 26t106.5 7
q38 0 77 -1.5t73 -5t55 -7.5v-42q-27 4 -62 6.5t-70.5 4t-66.5 1.5q-60 0 -98.5 -6t-61.5 -22q-25 -16 -31.5 -45t-6.5 -68q0 -46 6 -71t27 -36t62 -15l173 -19q42 -3 73.5 -9.5t51.5 -21t30 -44.5q4 -13 6 -28.5t2.5 -34.5t0.5 -42q0 -56 -10 -93t-30 -58t-47.5 -31.5
t-62 -13t-75.5 -2.5zM184 782v5l106 134h55l106 -134v-5h-34l-100 105l-99 -105h-34z" />
    <glyph glyph-name="scircumflex" unicode="&#x15d;" horiz-adv-x="500" 
d="M254 -8q-26 0 -58 1.5t-62.5 4t-54.5 5.5v41q32 -3 55.5 -5t43.5 -3.5t40.5 -2t45.5 -0.5q56 0 83 10t36 32.5t9 59.5q0 43 -7 62t-22.5 24.5t-44.5 8.5l-145 15q-44 5 -68 17.5t-33 39.5t-9 70q0 50 12.5 79.5t38 44t61.5 18.5t82 4q24 0 51 -1.5t53.5 -4t47.5 -7.5v-40
q-28 4 -54 7t-52.5 4t-58.5 1q-40 0 -71 -5t-48 -25.5t-17 -68.5q0 -37 6.5 -55.5t23 -25t45.5 -9.5l142 -14q45 -4 68.5 -15.5t33.5 -39t10 -84.5q0 -45 -10.5 -73t-33 -43t-57 -21t-82.5 -6zM116 603v6l106 133h55l106 -133v-6h-34l-100 106l-99 -106h-34z" />
    <glyph glyph-name="Scedilla" unicode="&#x15e;" horiz-adv-x="634" 
d="M332 -8q-36 0 -79 1.5t-83.5 4.5t-72.5 6v45q34 -3 74.5 -6t79.5 -5t67 -2q52 0 86.5 4t62.5 19q19 11 28 29.5t11.5 43.5t2.5 53q0 43 -2.5 68.5t-13 39.5t-35.5 20t-68 11l-180 19q-48 5 -75 18.5t-39.5 35t-15.5 50.5t-3 65q0 59 14.5 95.5t44 55.5t75 26t106.5 7
q38 0 77 -1.5t73 -5t55 -7.5v-42q-27 4 -62 6.5t-70.5 4t-66.5 1.5q-60 0 -98.5 -6t-61.5 -22q-25 -16 -31.5 -45t-6.5 -68q0 -46 6 -71t27 -36t62 -15l173 -19q42 -3 73.5 -9.5t51.5 -21t30 -44.5q4 -13 6 -28.5t2.5 -34.5t0.5 -42q0 -56 -10 -93t-30 -58t-47.5 -31.5
t-62 -13t-75.5 -2.5zM243 -190v5l62 203h33v-5l-45 -203h-50z" />
    <glyph glyph-name="scedilla" unicode="&#x15f;" horiz-adv-x="500" 
d="M254 -8q-26 0 -58 1.5t-62.5 4t-54.5 5.5v41q32 -3 55.5 -5t43.5 -3.5t40.5 -2t45.5 -0.5q56 0 83 10t36 32.5t9 59.5q0 43 -7 62t-22.5 24.5t-44.5 8.5l-145 15q-44 5 -68 17.5t-33 39.5t-9 70q0 50 12.5 79.5t38 44t61.5 18.5t82 4q24 0 51 -1.5t53.5 -4t47.5 -7.5v-40
q-28 4 -54 7t-52.5 4t-58.5 1q-40 0 -71 -5t-48 -25.5t-17 -68.5q0 -37 6.5 -55.5t23 -25t45.5 -9.5l142 -14q45 -4 68.5 -15.5t33.5 -39t10 -84.5q0 -45 -10.5 -73t-33 -43t-57 -21t-82.5 -6zM175 -190v5l62 203h33v-5l-45 -203h-50z" />
    <glyph glyph-name="Scaron" unicode="&#x160;" horiz-adv-x="634" 
d="M332 -8q-36 0 -79 1.5t-83.5 4.5t-72.5 6v45q34 -3 74.5 -6t79.5 -5t67 -2q52 0 86.5 4t62.5 19q19 11 28 29.5t11.5 43.5t2.5 53q0 43 -2.5 68.5t-13 39.5t-35.5 20t-68 11l-180 19q-48 5 -75 18.5t-39.5 35t-15.5 50.5t-3 65q0 59 14.5 95.5t44 55.5t75 26t106.5 7
q38 0 77 -1.5t73 -5t55 -7.5v-42q-27 4 -62 6.5t-70.5 4t-66.5 1.5q-60 0 -98.5 -6t-61.5 -22q-25 -16 -31.5 -45t-6.5 -68q0 -46 6 -71t27 -36t62 -15l173 -19q42 -3 73.5 -9.5t51.5 -21t30 -44.5q4 -13 6 -28.5t2.5 -34.5t0.5 -42q0 -56 -10 -93t-30 -58t-47.5 -31.5
t-62 -13t-75.5 -2.5zM290 781l-106 133v5h34l99 -104l100 104h34v-5l-106 -133h-55z" />
    <glyph glyph-name="scaron" unicode="&#x161;" horiz-adv-x="500" 
d="M254 -8q-26 0 -58 1.5t-62.5 4t-54.5 5.5v41q32 -3 55.5 -5t43.5 -3.5t40.5 -2t45.5 -0.5q56 0 83 10t36 32.5t9 59.5q0 43 -7 62t-22.5 24.5t-44.5 8.5l-145 15q-44 5 -68 17.5t-33 39.5t-9 70q0 50 12.5 79.5t38 44t61.5 18.5t82 4q24 0 51 -1.5t53.5 -4t47.5 -7.5v-40
q-28 4 -54 7t-52.5 4t-58.5 1q-40 0 -71 -5t-48 -25.5t-17 -68.5q0 -37 6.5 -55.5t23 -25t45.5 -9.5l142 -14q45 -4 68.5 -15.5t33.5 -39t10 -84.5q0 -45 -10.5 -73t-33 -43t-57 -21t-82.5 -6zM222 603l-106 133v5h34l99 -104l100 104h34v-5l-106 -133h-55z" />
    <glyph glyph-name="uni0162" unicode="&#x162;" horiz-adv-x="582" 
d="M267 0v644h-229v44h506v-44h-229v-644h-48zM217 -190v5l62 203h33v-5l-45 -203h-50z" />
    <glyph glyph-name="uni0163" unicode="&#x163;" horiz-adv-x="336" 
d="M136 0v469h-107v41h107v148h46v-148h125v-41h-125v-469h-46zM85 -190v5l62 203h33v-5l-45 -203h-50z" />
    <glyph glyph-name="Tcaron" unicode="&#x164;" horiz-adv-x="582" 
d="M267 0v644h-229v44h506v-44h-229v-644h-48zM263 781l-106 133v5h34l99 -104l100 104h34v-5l-106 -133h-55z" />
    <glyph glyph-name="tcaron" unicode="&#x165;" horiz-adv-x="336" 
d="M136 0v469h-107v41h107v148h46v-148h125v-41h-125v-469h-46zM237 577l13 150v86h42v-86l-25 -150h-30z" />
    <glyph glyph-name="Tbar" unicode="&#x166;" horiz-adv-x="582" 
d="M67 337v40h448v-40h-448zM267 0v644h-229v44h506v-44h-229v-644h-48z" />
    <glyph glyph-name="tbar" unicode="&#x167;" horiz-adv-x="336" 
d="M32 247v40h275v-40h-275zM136 0v469h-107v41h107v148h46v-148h125v-41h-125v-469h-46z" />
    <glyph glyph-name="Utilde" unicode="&#x168;" horiz-adv-x="715" 
d="M358 -8q-70 0 -117 8.5t-74.5 28.5t-42 55t-18.5 87t-4 125v392h48v-423q0 -70 5.5 -114.5t25 -70t62 -35t115.5 -9.5q74 0 115.5 9.5t61.5 35t25 70t5 114.5v423h48v-392q0 -73 -4 -125t-18 -87t-41.5 -55t-74.5 -28.5t-117 -8.5zM194 794q0 36 4.5 58t18.5 32t42 10
t55 -8t55 -19q21 -8 42 -15t45 -7q22 0 28 13.5t6 46.5h31q0 -36 -4.5 -58t-18.5 -32t-41 -10q-30 0 -55.5 9t-54.5 19q-22 7 -43 14.5t-44 7.5q-22 0 -28 -13.5t-6 -47.5h-32z" />
    <glyph glyph-name="utilde" unicode="&#x169;" horiz-adv-x="603" 
d="M281 -8q-60 0 -96.5 11.5t-55.5 34.5t-25.5 61t-6.5 91v320h46v-309q0 -54 5.5 -87.5t21.5 -51t46 -23t78 -5.5q62 0 96 16t49 44.5t18 67.5t3 84v264h46v-510h-39l-3 81h-5q-8 -24 -26.5 -44t-54.5 -32.5t-97 -12.5zM137 616q0 36 4.5 58t18.5 32t42 10t55 -8t55 -19
q21 -8 42 -15t45 -7q22 0 28 13.5t6 46.5h31q0 -36 -4.5 -58t-18.5 -32t-41 -10q-30 0 -55.5 9t-54.5 19q-22 7 -43 14.5t-44 7.5q-22 0 -28 -13.5t-6 -47.5h-32z" />
    <glyph glyph-name="Umacron" unicode="&#x16a;" horiz-adv-x="715" 
d="M358 -8q-70 0 -117 8.5t-74.5 28.5t-42 55t-18.5 87t-4 125v392h48v-423q0 -70 5.5 -114.5t25 -70t62 -35t115.5 -9.5q74 0 115.5 9.5t61.5 35t25 70t5 114.5v423h48v-392q0 -73 -4 -125t-18 -87t-41.5 -55t-74.5 -28.5t-117 -8.5zM222 823v37h271v-37h-271z" />
    <glyph glyph-name="umacron" unicode="&#x16b;" horiz-adv-x="603" 
d="M281 -8q-60 0 -96.5 11.5t-55.5 34.5t-25.5 61t-6.5 91v320h46v-309q0 -54 5.5 -87.5t21.5 -51t46 -23t78 -5.5q62 0 96 16t49 44.5t18 67.5t3 84v264h46v-510h-39l-3 81h-5q-8 -24 -26.5 -44t-54.5 -32.5t-97 -12.5zM165 645v37h271v-37h-271z" />
    <glyph glyph-name="Ubreve" unicode="&#x16c;" horiz-adv-x="715" 
d="M358 -8q-70 0 -117 8.5t-74.5 28.5t-42 55t-18.5 87t-4 125v392h48v-423q0 -70 5.5 -114.5t25 -70t62 -35t115.5 -9.5q74 0 115.5 9.5t61.5 35t25 70t5 114.5v423h48v-392q0 -73 -4 -125t-18 -87t-41.5 -55t-74.5 -28.5t-117 -8.5zM357 772q-48 0 -75 10.5t-38.5 30
t-14 45t-2.5 56.5h36q0 -35 4 -59.5t24 -36.5t66 -12q47 0 66.5 12t24 36.5t4.5 59.5h36q0 -31 -2.5 -56.5t-14.5 -45t-39 -30t-75 -10.5z" />
    <glyph glyph-name="ubreve" unicode="&#x16d;" horiz-adv-x="603" 
d="M281 -8q-60 0 -96.5 11.5t-55.5 34.5t-25.5 61t-6.5 91v320h46v-309q0 -54 5.5 -87.5t21.5 -51t46 -23t78 -5.5q62 0 96 16t49 44.5t18 67.5t3 84v264h46v-510h-39l-3 81h-5q-8 -24 -26.5 -44t-54.5 -32.5t-97 -12.5zM300 594q-48 0 -75 11t-38.5 30t-14 44.5t-2.5 56.5
h36q0 -35 4 -59.5t24 -36.5t66 -12q47 0 66.5 12t24 36.5t4.5 59.5h36q0 -31 -2.5 -56.5t-14.5 -44.5t-39 -30t-75 -11z" />
    <glyph glyph-name="Uring" unicode="&#x16e;" horiz-adv-x="715" 
d="M358 -8q-70 0 -117 8.5t-74.5 28.5t-42 55t-18.5 87t-4 125v392h48v-423q0 -70 5.5 -114.5t25 -70t62 -35t115.5 -9.5q74 0 115.5 9.5t61.5 35t25 70t5 114.5v423h48v-392q0 -73 -4 -125t-18 -87t-41.5 -55t-74.5 -28.5t-117 -8.5zM356 767q-41 0 -64 5.5t-34 16.5
t-14 29t-3 45q0 26 3 44.5t14 30t34 17t64 5.5q42 0 65.5 -5.5t34.5 -17t14 -30t3 -44.5q0 -27 -3 -45t-14 -29t-34.5 -16.5t-65.5 -5.5zM356 799q40 0 56.5 5.5t20 19.5t3.5 39q0 26 -3.5 40t-20 20t-56.5 6q-38 0 -54.5 -6t-20 -20t-3.5 -40q0 -25 3.5 -39t20 -19.5
t54.5 -5.5z" />
    <glyph glyph-name="uring" unicode="&#x16f;" horiz-adv-x="603" 
d="M281 -8q-60 0 -96.5 11.5t-55.5 34.5t-25.5 61t-6.5 91v320h46v-309q0 -54 5.5 -87.5t21.5 -51t46 -23t78 -5.5q62 0 96 16t49 44.5t18 67.5t3 84v264h46v-510h-39l-3 81h-5q-8 -24 -26.5 -44t-54.5 -32.5t-97 -12.5zM300 589q-41 0 -64 5.5t-34 16.5t-14 29t-3 45
q0 26 3 44.5t14 30t34 17t64 5.5q42 0 65.5 -5.5t34.5 -17t14 -30t3 -44.5q0 -27 -3 -45t-14 -29t-34.5 -16.5t-65.5 -5.5zM300 621q40 0 56.5 5.5t20 19.5t3.5 39q0 26 -3.5 40t-20 20t-56.5 6q-38 0 -54.5 -6t-20 -20t-3.5 -40q0 -25 3.5 -39t20 -19.5t54.5 -5.5z" />
    <glyph glyph-name="Uhungarumlaut" unicode="&#x170;" horiz-adv-x="715" 
d="M358 -8q-70 0 -117 8.5t-74.5 28.5t-42 55t-18.5 87t-4 125v392h48v-423q0 -70 5.5 -114.5t25 -70t62 -35t115.5 -9.5q74 0 115.5 9.5t61.5 35t25 70t5 114.5v423h48v-392q0 -73 -4 -125t-18 -87t-41.5 -55t-74.5 -28.5t-117 -8.5zM233 781v5l90 114h54v-5l-111 -114h-33
zM405 781v5l90 114h54v-5l-111 -114h-33z" />
    <glyph glyph-name="uhungarumlaut" unicode="&#x171;" horiz-adv-x="603" 
d="M281 -8q-60 0 -96.5 11.5t-55.5 34.5t-25.5 61t-6.5 91v320h46v-309q0 -54 5.5 -87.5t21.5 -51t46 -23t78 -5.5q62 0 96 16t49 44.5t18 67.5t3 84v264h46v-510h-39l-3 81h-5q-8 -24 -26.5 -44t-54.5 -32.5t-97 -12.5zM192 603v5l90 114h54v-5l-111 -114h-33zM364 603v5
l90 114h54v-5l-111 -114h-33z" />
    <glyph glyph-name="Uogonek" unicode="&#x172;" horiz-adv-x="715" 
d="M358 -8q-70 0 -117 8.5t-74.5 28.5t-42 55t-18.5 87t-4 125v392h48v-423q0 -70 5.5 -114.5t25 -70t62 -35t115.5 -9.5q74 0 115.5 9.5t61.5 35t25 70t5 114.5v423h48v-392q0 -73 -4 -125t-18 -87t-41.5 -55t-74.5 -28.5t-117 -8.5zM385 -200q-30 0 -47.5 9.5t-25.5 26.5
t-8 37q0 33 21 70.5t54 66.5l31 -10q-13 -12 -28 -32t-25 -43t-10 -43q0 -19 10.5 -32t36.5 -13h6.5t10.5 1v-37q-8 -1 -13 -1h-13z" />
    <glyph glyph-name="uogonek" unicode="&#x173;" horiz-adv-x="603" 
d="M281 -8q-60 0 -96.5 11.5t-55.5 34.5t-25.5 61t-6.5 91v320h46v-309q0 -54 5.5 -87.5t21.5 -51t46 -23t78 -5.5q62 0 96 16t49 44.5t18 67.5t3 84v264h46v-510h-39l-3 81h-5q-8 -24 -26.5 -44t-54.5 -32.5t-97 -12.5zM481 -200q-30 0 -47.5 9.5t-25.5 26.5t-8 37
q0 33 21 70.5t54 66.5l31 -10q-13 -12 -28 -32t-25 -43t-10 -43q0 -19 10.5 -32t36.5 -13h6.5t10.5 1v-37q-8 -1 -13 -1h-13z" />
    <glyph glyph-name="Wcircumflex" unicode="&#x174;" horiz-adv-x="985" 
d="M245 0l-200 688h51l174 -612h6l192 612h51l193 -612h5l174 612h49l-200 -688h-51l-195 607h-4l-194 -607h-51zM359 782v5l106 134h55l106 -134v-5h-34l-100 105l-99 -105h-34z" />
    <glyph glyph-name="wcircumflex" unicode="&#x175;" horiz-adv-x="806" 
d="M211 0l-174 510h49l148 -443h6l140 443h48l140 -443h7l146 443h48l-174 -510h-49l-140 431h-7l-138 -431h-50zM270 603v6l106 133h55l106 -133v-6h-34l-100 106l-99 -106h-34z" />
    <glyph glyph-name="Ycircumflex" unicode="&#x176;" horiz-adv-x="601" 
d="M276 0v277l-258 411h54l226 -362h7l226 362h52l-259 -411v-277h-48zM168 782v5l106 134h55l106 -134v-5h-34l-100 105l-99 -105h-34z" />
    <glyph glyph-name="ycircumflex" unicode="&#x177;" horiz-adv-x="603" 
d="M284 -206q-29 0 -60.5 1t-60.5 2.5t-50 3.5v41q29 -2 57.5 -3.5t55.5 -2.5t50 -1q63 0 100.5 12t55 37.5t23 65.5t5.5 96v28h-5q-6 -19 -24 -38t-53.5 -31t-96.5 -12q-60 0 -96.5 11t-55.5 34.5t-25.5 61t-6.5 91.5v319h46v-309q0 -54 5.5 -87.5t21.5 -50.5t46 -23t78 -6
q62 0 96 16t49 45t18 67.5t3 84.5v263h46v-444q0 -75 -8.5 -127.5t-31.5 -84t-67 -46t-115 -14.5zM168 603v6l106 133h55l106 -133v-6h-34l-100 106l-99 -106h-34z" />
    <glyph glyph-name="Ydieresis" unicode="&#x178;" horiz-adv-x="601" 
d="M276 0v277l-258 411h54l226 -362h7l226 362h52l-259 -411v-277h-48zM171 823v65h51v-65h-51zM380 823v65h51v-65h-51z" />
    <glyph glyph-name="Zacute" unicode="&#x179;" horiz-adv-x="602" 
d="M58 0v41l422 603h-411v44h472v-41l-422 -603h429v-44h-490zM262 781v5l106 134h56v-5l-127 -134h-35z" />
    <glyph glyph-name="zacute" unicode="&#x17a;" horiz-adv-x="499" 
d="M54 0v36l328 433h-316v41h377v-36l-327 -433h329v-41h-391zM193 603v5l106 134h56v-5l-127 -134h-35z" />
    <glyph glyph-name="Zdotaccent" unicode="&#x17b;" horiz-adv-x="602" 
d="M58 0v41l422 603h-411v44h472v-41l-422 -603h429v-44h-490zM275 824v65h51v-65h-51z" />
    <glyph glyph-name="zdotaccent" unicode="&#x17c;" horiz-adv-x="499" 
d="M54 0v36l328 433h-316v41h377v-36l-327 -433h329v-41h-391zM227 645v65h51v-65h-51z" />
    <glyph glyph-name="Zcaron" unicode="&#x17d;" horiz-adv-x="602" 
d="M58 0v41l422 603h-411v44h472v-41l-422 -603h429v-44h-490zM274 781l-106 133v5h34l99 -104l100 104h34v-5l-106 -133h-55z" />
    <glyph glyph-name="zcaron" unicode="&#x17e;" horiz-adv-x="499" 
d="M54 0v36l328 433h-316v41h377v-36l-327 -433h329v-41h-391zM226 603l-106 133v5h34l99 -104l100 104h34v-5l-106 -133h-55z" />
    <glyph glyph-name="longs" unicode="&#x17f;" horiz-adv-x="313" 
d="M136 0v469h-107v41h107v107q0 34 7 57t21.5 36.5t36.5 21t51 9.5t65 2v-38q-40 0 -66 -3.5t-41 -12t-21.5 -24.5t-6.5 -40v-625h-46z" />
    <glyph glyph-name="uni018F" unicode="&#x18f;" horiz-adv-x="704" 
d="M352 -8q-75 0 -124 7.5t-77.5 28t-42 59.5t-17.5 101.5t-4 155.5v26h482q0 78 -5.5 129t-19.5 82t-41 46.5t-70.5 20t-107.5 4.5q-39 0 -84.5 -5t-79.5 -13v43q23 6 53.5 10t63 6.5t60.5 2.5q71 0 121 -7t81 -27t47.5 -58.5t23 -102t6.5 -157.5q0 -93 -4 -155.5
t-17.5 -101.5t-42 -59.5t-77.5 -28t-124 -7.5zM352 36q59 0 98 3t62.5 17t35.5 45t16.5 85t4.5 140h-434q0 -86 4 -140t16 -85t36 -45t63.5 -17t97.5 -3z" />
    <glyph glyph-name="florin" unicode="&#x192;" horiz-adv-x="332" 
d="M-155 -190l9 38q39 0 66 4.5t45 19.5t31 46t24 83l99 468h-107l9 41h118l-14 -16l8 38q12 53 24 90t28.5 61t40 37t56 18t77.5 5l-9 -38q-42 0 -70 -6t-46.5 -24t-31.5 -53.5t-25 -94.5l-6 -33l-7 16h145l-9 -41h-135l-97 -459q-13 -59 -27.5 -96.5t-33.5 -59t-42 -31
t-53 -11.5t-67 -2z" />
    <glyph glyph-name="uni019D" unicode="&#x19d;" horiz-adv-x="736" 
d="M11 -200v38q35 0 55 2.5t29.5 9t12.5 17.5t3 28v793h48l416 -599h4v599h46v-688h-46l-417 602h-4v-695q0 -31 -5.5 -50t-16.5 -31t-28.5 -17.5t-41.5 -7t-55 -1.5z" />
    <glyph glyph-name="Ohorn" unicode="&#x1a0;" horiz-adv-x="724" 
d="M492 657v31h61q35 0 43 13t8 50v34h39v-27q0 -30 -3.5 -49.5t-13.5 -30.5t-28 -16t-45 -5h-61zM362 -8q-78 0 -129 7.5t-80.5 28t-43.5 59.5t-18 101.5t-4 155.5t4 155.5t18 101.5t43.5 59.5t80.5 28t129 7.5t129 -7.5t80.5 -28t43.5 -59.5t18 -101.5t4 -155.5t-4 -155.5
t-18 -101.5t-43.5 -59.5t-80.5 -28t-129 -7.5zM362 36q62 0 103.5 3.5t66.5 18t37.5 47.5t16 90.5t3.5 148.5t-3.5 148.5t-16 90.5t-37.5 47.5t-66.5 18t-103.5 3.5q-63 0 -104 -3.5t-66 -18t-37.5 -47.5t-16 -90.5t-3.5 -148.5t3.5 -148.5t16 -90.5t37.5 -47.5t66 -18
t104 -3.5z" />
    <glyph glyph-name="ohorn" unicode="&#x1a1;" horiz-adv-x="579" 
d="M370 479v31h60q35 0 43.5 13t8.5 50v34h39v-27q0 -30 -3.5 -49.5t-13.5 -30.5t-28 -16t-46 -5h-60zM290 -8q-62 0 -102 6.5t-63.5 23.5t-34.5 47t-14 75.5t-3 109.5q0 65 3 110.5t14 75.5t34.5 47t63.5 24t102 7q61 0 101 -7t63.5 -24t35 -47t14.5 -75.5t3 -110.5
q0 -64 -3 -109.5t-14.5 -75.5t-35 -47t-63.5 -23.5t-101 -6.5zM290 33q64 0 99 8.5t50 31.5t18 67t3 114q0 71 -3 115t-18 67.5t-50 32t-99 8.5t-99.5 -8.5t-50.5 -32t-18 -67.5t-3 -115q0 -70 3 -114t18 -67t50.5 -31.5t99.5 -8.5z" />
    <glyph glyph-name="Uhorn" unicode="&#x1af;" horiz-adv-x="715" 
d="M570 657v31h61q35 0 43 13t8 50v34h40v-27q0 -30 -4 -49.5t-13.5 -30.5t-27.5 -16t-46 -5h-61zM358 -8q-70 0 -117 8.5t-74.5 28.5t-42 55t-18.5 87t-4 125v392h48v-423q0 -70 5.5 -114.5t25 -70t62 -35t115.5 -9.5q74 0 115.5 9.5t61.5 35t25 70t5 114.5v423h48v-392
q0 -73 -4 -125t-18 -87t-41.5 -55t-74.5 -28.5t-117 -8.5z" />
    <glyph glyph-name="uhorn" unicode="&#x1b0;" horiz-adv-x="603" 
d="M460 479v31h61q34 0 42.5 13t8.5 50v34h39v-27q0 -30 -3.5 -49.5t-13.5 -30.5t-28 -16t-45 -5h-61zM281 -8q-60 0 -96.5 11.5t-55.5 34.5t-25.5 61t-6.5 91v320h46v-309q0 -54 5.5 -87.5t21.5 -51t46 -23t78 -5.5q62 0 96 16t49 44.5t18 67.5t3 84v264h46v-510h-39l-3 81
h-5q-8 -24 -26.5 -44t-54.5 -32.5t-97 -12.5z" />
    <glyph glyph-name="uni01C4" unicode="&#x1c4;" horiz-adv-x="1294" 
d="M111 0v688h209q81 0 133.5 -7t83 -27t45.5 -58.5t19 -99.5t4 -152t-4 -152t-19 -99.5t-45.5 -58.5t-83 -27t-133.5 -7h-209zM159 44h142q73 0 120.5 3t75 17t40 46t16.5 89t4 145t-4 145t-17 89t-41 46t-75 17t-119 3h-142v-600zM750 0v41l422 603h-411v44h472v-41
l-422 -603h429v-44h-490zM966 781l-106 133v5h34l99 -104l100 104h34v-5l-106 -133h-55z" />
    <glyph glyph-name="uni01C5" unicode="&#x1c5;" horiz-adv-x="1191" 
d="M111 0v688h209q81 0 133.5 -7t83 -27t45.5 -58.5t19 -99.5t4 -152t-4 -152t-19 -99.5t-45.5 -58.5t-83 -27t-133.5 -7h-209zM159 44h142q73 0 120.5 3t75 17t40 46t16.5 89t4 145t-4 145t-17 89t-41 46t-75 17t-119 3h-142v-600zM746 0v36l328 433h-316v41h377v-36
l-327 -433h329v-41h-391zM918 603l-106 133v5h34l99 -104l100 104h34v-5l-106 -133h-55z" />
    <glyph glyph-name="uni01C6" unicode="&#x1c6;" horiz-adv-x="1093" 
d="M271 -8q-62 0 -101 11.5t-60 40.5t-29 80t-8 131q0 79 8 130.5t29 80.5t59.5 40.5t100.5 11.5q47 0 82 -7.5t59 -25t36 -47.5h5v305h46v-743h-39l-3 81h-5q-14 -39 -42 -58t-64 -25t-74 -6zM286 34q62 0 99.5 17t50.5 54q12 34 14 72t2 90q0 36 -2 69.5t-11 59.5
q-16 44 -53.5 62t-104.5 18q-52 0 -84.5 -7.5t-49.5 -30t-22.5 -66.5t-5.5 -117t6 -117t23 -66.5t50 -30t88 -7.5zM649 0v36l328 433h-316v41h377v-36l-327 -433h329v-41h-391zM820 603l-106 133v5h34l99 -104l100 104h34v-5l-106 -133h-55z" />
    <glyph glyph-name="uni01C7" unicode="&#x1c7;" horiz-adv-x="868" 
d="M111 0v688h48v-644h343v-44h-391zM574 0v43q54 2 83 7t42 23t15.5 59.5t2.5 115.5v440h48v-420q0 -76 -2.5 -126t-11.5 -78.5t-30 -41.5t-56 -17t-91 -5z" />
    <glyph glyph-name="uni01C8" unicode="&#x1c8;" horiz-adv-x="776" 
d="M111 0v688h48v-644h343v-44h-391zM629 675v68h54v-68h-54zM532 -200v38q47 0 68 5t27 17.5t6 34.5v615h46v-603q0 -38 -8.5 -59.5t-26.5 -31.5t-45.5 -13t-66.5 -3z" />
    <glyph glyph-name="uni01C9" unicode="&#x1c9;" horiz-adv-x="479" 
d="M97 0v743h46v-743h-46zM333 675v68h54v-68h-54zM236 -200v38q47 0 68 5t27 17.5t6 34.5v615h46v-603q0 -38 -8.5 -59.5t-26.5 -31.5t-45.5 -13t-66.5 -3z" />
    <glyph glyph-name="uni01CA" unicode="&#x1ca;" horiz-adv-x="1068" 
d="M111 0v688h48l416 -599h4v599h46v-688h-46l-417 602h-4v-602h-47zM774 0v43q54 2 83 7t42 23t15.5 59.5t2.5 115.5v440h48v-420q0 -76 -2.5 -126t-11.5 -78.5t-30 -41.5t-56 -17t-91 -5z" />
    <glyph glyph-name="uni01CB" unicode="&#x1cb;" horiz-adv-x="976" 
d="M111 0v688h48l416 -599h4v599h46v-688h-46l-417 602h-4v-602h-47zM829 675v68h54v-68h-54zM732 -200v38q47 0 68 5t27 17.5t6 34.5v615h46v-603q0 -38 -8.5 -59.5t-26.5 -31.5t-45.5 -13t-66.5 -3z" />
    <glyph glyph-name="uni01CC" unicode="&#x1cc;" horiz-adv-x="842" 
d="M97 0v510h39l3 -81h4q9 24 27.5 44t54.5 32.5t97 12.5q60 0 96.5 -11.5t55.5 -34.5t25.5 -61t6.5 -91v-320h-46v309q0 55 -5.5 88t-22 50.5t-46 23t-77.5 5.5q-62 0 -96 -16t-49 -44.5t-18 -67.5t-3 -84v-264h-46zM696 675v68h54v-68h-54zM599 -200v38q47 0 68 5t27 17.5
t6 34.5v615h46v-603q0 -38 -8.5 -59.5t-26.5 -31.5t-45.5 -13t-66.5 -3z" />
    <glyph glyph-name="uni01CD" unicode="&#x1cd;" horiz-adv-x="683" 
d="M37 0l278 688h53l278 -688h-51l-86 214h-336l-86 -214h-50zM190 258h302l-148 370h-5zM314 781l-106 133v5h34l99 -104l100 104h34v-5l-106 -133h-55z" />
    <glyph glyph-name="uni01CE" unicode="&#x1ce;" horiz-adv-x="573" 
d="M243 -8q-62 0 -102 11.5t-59 43t-19 92.5q0 56 13 88t46 45t93 13q11 0 35.5 -0.5t56 -1t63.5 -1t60 -1.5v42q0 54 -6.5 84.5t-24.5 46t-52 19.5t-88 4q-23 0 -53.5 -2t-59.5 -4.5t-48 -5.5v41q32 5 78.5 8.5t99.5 3.5q50 0 85.5 -5.5t58 -18t34.5 -34t17 -54.5t5 -78
v-328h-39l-3 80h-4q-15 -39 -46 -58t-68.5 -24.5t-72.5 -5.5zM249 32q34 0 65.5 3.5t55.5 15.5t37 38q13 28 18 56.5t5 64.5v37h-203q-47 0 -73 -7.5t-36 -30.5t-10 -69q0 -44 11.5 -67.5t42 -32t87.5 -8.5zM262 603l-106 133v5h34l99 -104l100 104h34v-5l-106 -133h-55z
" />
    <glyph glyph-name="uni01CF" unicode="&#x1cf;" horiz-adv-x="271" 
d="M111 0v688h48v-688h-48zM108 781l-106 133v5h34l99 -104l100 104h34v-5l-106 -133h-55z" />
    <glyph glyph-name="uni01D0" unicode="&#x1d0;" horiz-adv-x="240" 
d="M97 0v510h46v-510h-46zM93 603l-106 133v5h34l99 -104l100 104h34v-5l-106 -133h-55z" />
    <glyph glyph-name="uni01D1" unicode="&#x1d1;" horiz-adv-x="724" 
d="M362 -8q-78 0 -129 7.5t-80.5 28t-43.5 59.5t-18 101.5t-4 155.5t4 155.5t18 101.5t43.5 59.5t80.5 28t129 7.5t129 -7.5t80.5 -28t43.5 -59.5t18 -101.5t4 -155.5t-4 -155.5t-18 -101.5t-43.5 -59.5t-80.5 -28t-129 -7.5zM362 36q62 0 103.5 3.5t66.5 18t37.5 47.5
t16 90.5t3.5 148.5t-3.5 148.5t-16 90.5t-37.5 47.5t-66.5 18t-103.5 3.5q-63 0 -104 -3.5t-66 -18t-37.5 -47.5t-16 -90.5t-3.5 -148.5t3.5 -148.5t16 -90.5t37.5 -47.5t66 -18t104 -3.5zM334 781l-106 133v5h34l99 -104l100 104h34v-5l-106 -133h-55z" />
    <glyph glyph-name="uni01D2" unicode="&#x1d2;" horiz-adv-x="579" 
d="M290 -8q-62 0 -102 6.5t-63.5 23.5t-34.5 47t-14 75.5t-3 109.5q0 65 3 110.5t14 75.5t34.5 47t63.5 24t102 7q61 0 101 -7t63.5 -24t35 -47t14.5 -75.5t3 -110.5q0 -64 -3 -109.5t-14.5 -75.5t-35 -47t-63.5 -23.5t-101 -6.5zM290 33q64 0 99 8.5t50 31.5t18 67t3 114
q0 71 -3 115t-18 67.5t-50 32t-99 8.5t-99.5 -8.5t-50.5 -32t-18 -67.5t-3 -115q0 -70 3 -114t18 -67t50.5 -31.5t99.5 -8.5zM262 603l-106 133v5h34l99 -104l100 104h34v-5l-106 -133h-55z" />
    <glyph glyph-name="uni01D3" unicode="&#x1d3;" horiz-adv-x="715" 
d="M358 -8q-70 0 -117 8.5t-74.5 28.5t-42 55t-18.5 87t-4 125v392h48v-423q0 -70 5.5 -114.5t25 -70t62 -35t115.5 -9.5q74 0 115.5 9.5t61.5 35t25 70t5 114.5v423h48v-392q0 -73 -4 -125t-18 -87t-41.5 -55t-74.5 -28.5t-117 -8.5zM330 781l-106 133v5h34l99 -104
l100 104h34v-5l-106 -133h-55z" />
    <glyph glyph-name="uni01D4" unicode="&#x1d4;" horiz-adv-x="603" 
d="M281 -8q-60 0 -96.5 11.5t-55.5 34.5t-25.5 61t-6.5 91v320h46v-309q0 -54 5.5 -87.5t21.5 -51t46 -23t78 -5.5q62 0 96 16t49 44.5t18 67.5t3 84v264h46v-510h-39l-3 81h-5q-8 -24 -26.5 -44t-54.5 -32.5t-97 -12.5zM274 603l-106 133v5h34l99 -104l100 104h34v-5
l-106 -133h-55z" />
    <glyph glyph-name="uni01D5" unicode="&#x1d5;" horiz-adv-x="715" 
d="M358 -8q-70 0 -117 8.5t-74.5 28.5t-42 55t-18.5 87t-4 125v392h48v-423q0 -70 5.5 -114.5t25 -70t62 -35t115.5 -9.5q74 0 115.5 9.5t61.5 35t25 70t5 114.5v423h48v-392q0 -73 -4 -125t-18 -87t-41.5 -55t-74.5 -28.5t-117 -8.5zM227 823v65h51v-65h-51zM436 823v65h51
v-65h-51zM222 1003v37h271v-37h-271z" />
    <glyph glyph-name="uni01D6" unicode="&#x1d6;" horiz-adv-x="603" 
d="M281 -8q-60 0 -96.5 11.5t-55.5 34.5t-25.5 61t-6.5 91v320h46v-309q0 -54 5.5 -87.5t21.5 -51t46 -23t78 -5.5q62 0 96 16t49 44.5t18 67.5t3 84v264h46v-510h-39l-3 81h-5q-8 -24 -26.5 -44t-54.5 -32.5t-97 -12.5zM171 645v65h51v-65h-51zM380 645v65h51v-65h-51z
M165 810v37h271v-37h-271z" />
    <glyph glyph-name="uni01D7" unicode="&#x1d7;" horiz-adv-x="715" 
d="M358 -8q-70 0 -117 8.5t-74.5 28.5t-42 55t-18.5 87t-4 125v392h48v-423q0 -70 5.5 -114.5t25 -70t62 -35t115.5 -9.5q74 0 115.5 9.5t61.5 35t25 70t5 114.5v423h48v-392q0 -73 -4 -125t-18 -87t-41.5 -55t-74.5 -28.5t-117 -8.5zM227 823v65h51v-65h-51zM436 823v65h51
v-65h-51zM319 961v5l106 134h56v-5l-127 -134h-35z" />
    <glyph glyph-name="uni01D8" unicode="&#x1d8;" horiz-adv-x="603" 
d="M281 -8q-60 0 -96.5 11.5t-55.5 34.5t-25.5 61t-6.5 91v320h46v-309q0 -54 5.5 -87.5t21.5 -51t46 -23t78 -5.5q62 0 96 16t49 44.5t18 67.5t3 84v264h46v-510h-39l-3 81h-5q-8 -24 -26.5 -44t-54.5 -32.5t-97 -12.5zM171 645v65h51v-65h-51zM380 645v65h51v-65h-51z
M241 768v5l106 134h56v-5l-127 -134h-35z" />
    <glyph glyph-name="uni01D9" unicode="&#x1d9;" horiz-adv-x="715" 
d="M358 -8q-70 0 -117 8.5t-74.5 28.5t-42 55t-18.5 87t-4 125v392h48v-423q0 -70 5.5 -114.5t25 -70t62 -35t115.5 -9.5q74 0 115.5 9.5t61.5 35t25 70t5 114.5v423h48v-392q0 -73 -4 -125t-18 -87t-41.5 -55t-74.5 -28.5t-117 -8.5zM227 823v65h51v-65h-51zM436 823v65h51
v-65h-51zM330 961l-106 133v5h34l99 -104l100 104h34v-5l-106 -133h-55z" />
    <glyph glyph-name="uni01DA" unicode="&#x1da;" horiz-adv-x="603" 
d="M281 -8q-60 0 -96.5 11.5t-55.5 34.5t-25.5 61t-6.5 91v320h46v-309q0 -54 5.5 -87.5t21.5 -51t46 -23t78 -5.5q62 0 96 16t49 44.5t18 67.5t3 84v264h46v-510h-39l-3 81h-5q-8 -24 -26.5 -44t-54.5 -32.5t-97 -12.5zM171 645v65h51v-65h-51zM380 645v65h51v-65h-51z
M274 768l-106 133v5h34l99 -104l100 104h34v-5l-106 -133h-55z" />
    <glyph glyph-name="uni01DB" unicode="&#x1db;" horiz-adv-x="715" 
d="M358 -8q-70 0 -117 8.5t-74.5 28.5t-42 55t-18.5 87t-4 125v392h48v-423q0 -70 5.5 -114.5t25 -70t62 -35t115.5 -9.5q74 0 115.5 9.5t61.5 35t25 70t5 114.5v423h48v-392q0 -73 -4 -125t-18 -87t-41.5 -55t-74.5 -28.5t-117 -8.5zM227 823v65h51v-65h-51zM436 823v65h51
v-65h-51zM377 962l-127 133v5h56l106 -133v-5h-35z" />
    <glyph glyph-name="uni01DC" unicode="&#x1dc;" horiz-adv-x="603" 
d="M281 -8q-60 0 -96.5 11.5t-55.5 34.5t-25.5 61t-6.5 91v320h46v-309q0 -54 5.5 -87.5t21.5 -51t46 -23t78 -5.5q62 0 96 16t49 44.5t18 67.5t3 84v264h46v-510h-39l-3 81h-5q-8 -24 -26.5 -44t-54.5 -32.5t-97 -12.5zM171 645v65h51v-65h-51zM380 645v65h51v-65h-51z
M317 768l-127 133v5h56l106 -133v-5h-35z" />
    <glyph glyph-name="Gcaron" unicode="&#x1e6;" horiz-adv-x="681" 
d="M371 -8q-71 0 -121 7.5t-82 28t-49.5 59.5t-24.5 101.5t-7 155.5t7 155.5t25 101.5t50.5 59.5t82 28t119.5 7.5q34 0 72.5 -2.5t74.5 -6.5t63 -10v-41q-30 5 -63 8.5t-63 5.5t-51 2q-66 0 -113 -3t-77.5 -17.5t-47.5 -47.5t-24 -90.5t-7 -149.5q0 -81 4 -136t18 -89
t40 -52.5t68 -25t106 -6.5q23 0 53.5 2t61 4.5t51.5 4.5v265h-185v43h232v-344q-32 -6 -70 -10t-75.5 -6t-67.5 -2zM334 781l-106 133v5h34l99 -104l100 104h34v-5l-106 -133h-55z" />
    <glyph glyph-name="gcaron" unicode="&#x1e7;" horiz-adv-x="595" 
d="M278 -206q-32 0 -66 1t-65.5 2.5t-53.5 4.5v40q28 -2 59.5 -3.5t62 -2.5t55.5 -1q61 0 97 10t54.5 35t24.5 68t6 109v16h-5q-12 -30 -35.5 -47.5t-58.5 -25t-82 -7.5q-63 0 -101.5 11.5t-59.5 40t-29 80t-8 130.5t8 130.5t29 80.5t60 40.5t101 11.5q38 0 74 -6t64 -25
t42 -58h5l3 81h39v-439q0 -78 -7.5 -131.5t-30 -85.5t-66 -46t-116.5 -14zM286 34q63 0 100 17.5t50 57.5q11 29 13.5 65t2.5 81t-2 79.5t-11 60.5q-15 45 -53 63t-100 18q-55 0 -88 -7.5t-50 -30t-23 -66.5t-6 -117t6 -117t23 -66.5t50 -30t88 -7.5zM270 603l-106 133v5h34
l99 -104l100 104h34v-5l-106 -133h-55z" />
    <glyph glyph-name="uni01EA" unicode="&#x1ea;" horiz-adv-x="724" 
d="M362 -8q-78 0 -129 7.5t-80.5 28t-43.5 59.5t-18 101.5t-4 155.5t4 155.5t18 101.5t43.5 59.5t80.5 28t129 7.5t129 -7.5t80.5 -28t43.5 -59.5t18 -101.5t4 -155.5t-4 -155.5t-18 -101.5t-43.5 -59.5t-80.5 -28t-129 -7.5zM362 36q62 0 103.5 3.5t66.5 18t37.5 47.5
t16 90.5t3.5 148.5t-3.5 148.5t-16 90.5t-37.5 47.5t-66.5 18t-103.5 3.5q-63 0 -104 -3.5t-66 -18t-37.5 -47.5t-16 -90.5t-3.5 -148.5t3.5 -148.5t16 -90.5t37.5 -47.5t66 -18t104 -3.5zM378 -200q-30 0 -47.5 9.5t-25.5 26.5t-8 37q0 33 21 70.5t54 66.5l31 -10
q-13 -12 -28 -32t-25 -43t-10 -43q0 -19 10.5 -32t36.5 -13h6.5t10.5 1v-37q-8 -1 -13 -1h-13z" />
    <glyph glyph-name="uni01EB" unicode="&#x1eb;" horiz-adv-x="579" 
d="M290 -8q-62 0 -102 6.5t-63.5 23.5t-34.5 47t-14 75.5t-3 109.5q0 65 3 110.5t14 75.5t34.5 47t63.5 24t102 7q61 0 101 -7t63.5 -24t35 -47t14.5 -75.5t3 -110.5q0 -64 -3 -109.5t-14.5 -75.5t-35 -47t-63.5 -23.5t-101 -6.5zM290 33q64 0 99 8.5t50 31.5t18 67t3 114
q0 71 -3 115t-18 67.5t-50 32t-99 8.5t-99.5 -8.5t-50.5 -32t-18 -67.5t-3 -115q0 -70 3 -114t18 -67t50.5 -31.5t99.5 -8.5zM306 -200q-30 0 -47.5 9.5t-25.5 26.5t-8 37q0 33 21 70.5t54 66.5l31 -10q-13 -12 -28 -32t-25 -43t-10 -43q0 -19 10.5 -32t36.5 -13h6.5t10.5 1
v-37q-8 -1 -13 -1h-13z" />
    <glyph glyph-name="uni01F1" unicode="&#x1f1;" horiz-adv-x="1294" 
d="M111 0v688h209q81 0 133.5 -7t83 -27t45.5 -58.5t19 -99.5t4 -152t-4 -152t-19 -99.5t-45.5 -58.5t-83 -27t-133.5 -7h-209zM159 44h142q73 0 120.5 3t75 17t40 46t16.5 89t4 145t-4 145t-17 89t-41 46t-75 17t-119 3h-142v-600zM750 0v41l422 603h-411v44h472v-41
l-422 -603h429v-44h-490z" />
    <glyph glyph-name="uni01F2" unicode="&#x1f2;" horiz-adv-x="1191" 
d="M111 0v688h209q81 0 133.5 -7t83 -27t45.5 -58.5t19 -99.5t4 -152t-4 -152t-19 -99.5t-45.5 -58.5t-83 -27t-133.5 -7h-209zM159 44h142q73 0 120.5 3t75 17t40 46t16.5 89t4 145t-4 145t-17 89t-41 46t-75 17t-119 3h-142v-600zM746 0v36l328 433h-316v41h377v-36
l-327 -433h329v-41h-391z" />
    <glyph glyph-name="uni01F3" unicode="&#x1f3;" horiz-adv-x="1093" 
d="M271 -8q-62 0 -101 11.5t-60 40.5t-29 80t-8 131q0 79 8 130.5t29 80.5t59.5 40.5t100.5 11.5q47 0 82 -7.5t59 -25t36 -47.5h5v305h46v-743h-39l-3 81h-5q-14 -39 -42 -58t-64 -25t-74 -6zM286 34q62 0 99.5 17t50.5 54q12 34 14 72t2 90q0 36 -2 69.5t-11 59.5
q-16 44 -53.5 62t-104.5 18q-52 0 -84.5 -7.5t-49.5 -30t-22.5 -66.5t-5.5 -117t6 -117t23 -66.5t50 -30t88 -7.5zM649 0v36l328 433h-316v41h377v-36l-327 -433h329v-41h-391z" />
    <glyph glyph-name="uni01F4" unicode="&#x1f4;" horiz-adv-x="681" 
d="M371 -8q-71 0 -121 7.5t-82 28t-49.5 59.5t-24.5 101.5t-7 155.5t7 155.5t25 101.5t50.5 59.5t82 28t119.5 7.5q34 0 72.5 -2.5t74.5 -6.5t63 -10v-41q-30 5 -63 8.5t-63 5.5t-51 2q-66 0 -113 -3t-77.5 -17.5t-47.5 -47.5t-24 -90.5t-7 -149.5q0 -81 4 -136t18 -89
t40 -52.5t68 -25t106 -6.5q23 0 53.5 2t61 4.5t51.5 4.5v265h-185v43h232v-344q-32 -6 -70 -10t-75.5 -6t-67.5 -2zM322 781v5l106 134h56v-5l-127 -134h-35z" />
    <glyph glyph-name="uni01F5" unicode="&#x1f5;" horiz-adv-x="595" 
d="M278 -206q-32 0 -66 1t-65.5 2.5t-53.5 4.5v40q28 -2 59.5 -3.5t62 -2.5t55.5 -1q61 0 97 10t54.5 35t24.5 68t6 109v16h-5q-12 -30 -35.5 -47.5t-58.5 -25t-82 -7.5q-63 0 -101.5 11.5t-59.5 40t-29 80t-8 130.5t8 130.5t29 80.5t60 40.5t101 11.5q38 0 74 -6t64 -25
t42 -58h5l3 81h39v-439q0 -78 -7.5 -131.5t-30 -85.5t-66 -46t-116.5 -14zM286 34q63 0 100 17.5t50 57.5q11 29 13.5 65t2.5 81t-2 79.5t-11 60.5q-15 45 -53 63t-100 18q-55 0 -88 -7.5t-50 -30t-23 -66.5t-6 -117t6 -117t23 -66.5t50 -30t88 -7.5zM237 603v5l106 134h56
v-5l-127 -134h-35z" />
    <glyph glyph-name="Aringacute" unicode="&#x1fa;" horiz-adv-x="683" 
d="M37 0l278 688h53l278 -688h-51l-86 214h-336l-86 -214h-50zM190 258h302l-148 370h-5zM344 658q-41 0 -64 5.5t-34 16.5t-14 29t-3 45q0 26 3 44.5t14 30t34 17t64 5.5q42 0 65.5 -5.5t34.5 -17t14 -30t3 -44.5q0 -27 -3 -45t-14 -29t-34.5 -16.5t-65.5 -5.5zM344 690
q40 0 56.5 5.5t20 19.5t3.5 39q0 26 -3.5 40t-20 20t-56.5 6q-38 0 -54.5 -6t-20 -20t-3.5 -40q0 -25 3.5 -39t20 -19.5t54.5 -5.5zM307 902v5l106 134h56v-5l-127 -134h-35z" />
    <glyph glyph-name="aringacute" unicode="&#x1fb;" horiz-adv-x="573" 
d="M243 -8q-62 0 -102 11.5t-59 43t-19 92.5q0 56 13 88t46 45t93 13q11 0 35.5 -0.5t56 -1t63.5 -1t60 -1.5v42q0 54 -6.5 84.5t-24.5 46t-52 19.5t-88 4q-23 0 -53.5 -2t-59.5 -4.5t-48 -5.5v41q32 5 78.5 8.5t99.5 3.5q50 0 85.5 -5.5t58 -18t34.5 -34t17 -54.5t5 -78
v-328h-39l-3 80h-4q-15 -39 -46 -58t-68.5 -24.5t-72.5 -5.5zM249 32q34 0 65.5 3.5t55.5 15.5t37 38q13 28 18 56.5t5 64.5v37h-203q-47 0 -73 -7.5t-36 -30.5t-10 -69q0 -44 11.5 -67.5t42 -32t87.5 -8.5zM288 589q-41 0 -64 5.5t-34 16.5t-14 29t-3 45q0 26 3 44.5t14 30
t34 17t64 5.5q42 0 65.5 -5.5t34.5 -17t14 -30t3 -44.5q0 -27 -3 -45t-14 -29t-34.5 -16.5t-65.5 -5.5zM288 621q40 0 56.5 5.5t20 19.5t3.5 39q0 26 -3.5 40t-20 20t-56.5 6q-38 0 -54.5 -6t-20 -20t-3.5 -40q0 -25 3.5 -39t20 -19.5t54.5 -5.5zM230 837v5l106 134h56v-5
l-127 -134h-35z" />
    <glyph glyph-name="AEacute" unicode="&#x1fc;" horiz-adv-x="949" 
d="M-2 0l350 688h544v-44h-479l84 -274h348v-44h-336l85 -282h298v-44h-336l-64 214h-336l-108 -214h-50zM178 258h302l-110 370h-5zM430 781v5l106 134h56v-5l-127 -134h-35z" />
    <glyph glyph-name="aeacute" unicode="&#x1fd;" horiz-adv-x="919" 
d="M245 -8q-46 0 -80.5 6.5t-57 22t-33.5 44t-11 74.5q0 54 13 85t46 44.5t93 13.5h70h72.5t72.5 -1v42q0 54 -6.5 84.5t-24.5 46t-52 19.5t-88 4q-23 0 -54 -2t-59.5 -4.5t-47.5 -5.5v41q31 5 77 8.5t101 3.5q80 0 122 -14.5t59 -53.5q21 37 65 52.5t129 15.5q55 0 91.5 -8
t57 -26t30.5 -48t13 -74t3 -103v-16h-370q0 -63 6 -104.5t23.5 -64.5t54 -32t97.5 -9q27 0 57.5 1.5t59.5 4.5t52 7v-41q-19 -4 -49 -7t-63 -4.5t-65 -1.5q-62 0 -101.5 8.5t-63 29.5t-35.5 58q-18 -44 -51 -64.5t-72.5 -26t-80.5 -5.5zM249 32q34 0 65.5 3.5t56.5 16.5
t37 41q12 26 17 53.5t5 63.5v33h-203q-47 0 -73 -7t-36 -28.5t-10 -67.5q0 -44 11.5 -67.5t42 -32t87.5 -8.5zM801 259q1 72 -4 115t-21.5 65.5t-47 30t-80.5 7.5q-58 0 -92.5 -7t-51.5 -27t-22.5 -59t-5.5 -103h346zM400 603v5l106 134h56v-5l-127 -134h-35z" />
    <glyph glyph-name="Oslashacute" unicode="&#x1fe;" horiz-adv-x="724" 
d="M87 -55l503 798h47l-504 -798h-46zM362 -8q-78 0 -129 7.5t-80.5 28t-43.5 59.5t-18 101.5t-4 155.5t4 155.5t18 101.5t43.5 59.5t80.5 28t129 7.5t129 -7.5t80.5 -28t43.5 -59.5t18 -101.5t4 -155.5t-4 -155.5t-18 -101.5t-43.5 -59.5t-80.5 -28t-129 -7.5zM362 36
q62 0 103.5 3.5t66.5 18t37.5 47.5t16 90.5t3.5 148.5t-3.5 148.5t-16 90.5t-37.5 47.5t-66.5 18t-103.5 3.5q-63 0 -104 -3.5t-66 -18t-37.5 -47.5t-16 -90.5t-3.5 -148.5t3.5 -148.5t16 -90.5t37.5 -47.5t66 -18t104 -3.5zM323 781v5l105 134h56v-5l-126 -134h-35z" />
    <glyph glyph-name="oslashacute" unicode="&#x1ff;" horiz-adv-x="579" 
d="M73 -55l388 620h45l-389 -620h-44zM290 -8q-62 0 -102 6.5t-63.5 23.5t-34.5 47t-14 75.5t-3 109.5q0 65 3 110.5t14 75.5t34.5 47t63.5 24t102 7q61 0 101 -7t63.5 -24t35 -47t14.5 -75.5t3 -110.5q0 -64 -3 -109.5t-14.5 -75.5t-35 -47t-63.5 -23.5t-101 -6.5zM290 33
q64 0 99 8.5t50 31.5t18 67t3 114q0 71 -3 115t-18 67.5t-50 32t-99 8.5t-99.5 -8.5t-50.5 -32t-18 -67.5t-3 -115q0 -70 3 -114t18 -67t50.5 -31.5t99.5 -8.5zM230 603v5l105 134h56v-5l-127 -134h-34z" />
    <glyph glyph-name="uni0200" unicode="&#x200;" horiz-adv-x="683" 
d="M37 0l278 688h53l278 -688h-51l-86 214h-336l-86 -214h-50zM190 258h302l-148 370h-5zM476 781h-33l-111 114v5h53l91 -114v-5zM304 781h-33l-111 114v5h54l90 -114v-5z" />
    <glyph glyph-name="uni0201" unicode="&#x201;" horiz-adv-x="573" 
d="M243 -8q-62 0 -102 11.5t-59 43t-19 92.5q0 56 13 88t46 45t93 13q11 0 35.5 -0.5t56 -1t63.5 -1t60 -1.5v42q0 54 -6.5 84.5t-24.5 46t-52 19.5t-88 4q-23 0 -53.5 -2t-59.5 -4.5t-48 -5.5v41q32 5 78.5 8.5t99.5 3.5q50 0 85.5 -5.5t58 -18t34.5 -34t17 -54.5t5 -78
v-328h-39l-3 80h-4q-15 -39 -46 -58t-68.5 -24.5t-72.5 -5.5zM249 32q34 0 65.5 3.5t55.5 15.5t37 38q13 28 18 56.5t5 64.5v37h-203q-47 0 -73 -7.5t-36 -30.5t-10 -69q0 -44 11.5 -67.5t42 -32t87.5 -8.5zM413 603h-33l-111 114v5h53l91 -114v-5zM241 603h-33l-111 114v5
h54l90 -114v-5z" />
    <glyph glyph-name="uni0202" unicode="&#x202;" horiz-adv-x="683" 
d="M37 0l278 688h53l278 -688h-51l-86 214h-336l-86 -214h-50zM190 258h302l-148 370h-5zM342 919q49 0 75.5 -10.5t38 -29.5t14 -44.5t2.5 -56.5h-36q0 36 -4 60t-23.5 36t-66.5 12q-46 0 -66 -12t-24.5 -36t-4.5 -60h-36q0 31 3 56.5t14.5 44.5t38.5 29.5t75 10.5z" />
    <glyph glyph-name="uni0203" unicode="&#x203;" horiz-adv-x="573" 
d="M243 -8q-62 0 -102 11.5t-59 43t-19 92.5q0 56 13 88t46 45t93 13q11 0 35.5 -0.5t56 -1t63.5 -1t60 -1.5v42q0 54 -6.5 84.5t-24.5 46t-52 19.5t-88 4q-23 0 -53.5 -2t-59.5 -4.5t-48 -5.5v41q32 5 78.5 8.5t99.5 3.5q50 0 85.5 -5.5t58 -18t34.5 -34t17 -54.5t5 -78
v-328h-39l-3 80h-4q-15 -39 -46 -58t-68.5 -24.5t-72.5 -5.5zM249 32q34 0 65.5 3.5t55.5 15.5t37 38q13 28 18 56.5t5 64.5v37h-203q-47 0 -73 -7.5t-36 -30.5t-10 -69q0 -44 11.5 -67.5t42 -32t87.5 -8.5zM290 741q49 0 75.5 -10.5t38 -29.5t14 -44.5t2.5 -56.5h-36
q0 36 -4 60t-23.5 36t-66.5 12q-46 0 -66 -12t-24.5 -36t-4.5 -60h-36q0 31 3 56.5t14.5 44.5t38.5 29.5t75 10.5z" />
    <glyph glyph-name="uni0204" unicode="&#x204;" horiz-adv-x="599" 
d="M111 0v688h431v-44h-383v-274h336v-44h-336v-282h383v-44h-431zM466 781h-33l-111 114v5h53l91 -114v-5zM294 781h-33l-111 114v5h54l90 -114v-5z" />
    <glyph glyph-name="uni0205" unicode="&#x205;" horiz-adv-x="561" 
d="M292 -8q-58 0 -97.5 7.5t-63.5 25t-37 47.5t-17 75t-4 107q0 74 5 124.5t25.5 81t65.5 44.5t124 14q56 0 92 -8.5t57 -26t31 -48.5t13 -75t3 -104v-17h-370q0 -62 5.5 -102.5t23 -63.5t54 -31.5t98.5 -8.5q26 0 56.5 1.5t60 4.5t52.5 7v-41q-20 -4 -49.5 -7t-62.5 -4.5
t-65 -1.5zM443 258v38q0 61 -7 97t-24 54.5t-47 24t-75 5.5q-58 0 -92 -7t-51.5 -28t-22.5 -60t-5 -104h344zM409 603h-33l-111 114v5h53l91 -114v-5zM237 603h-33l-111 114v5h54l90 -114v-5z" />
    <glyph glyph-name="uni0206" unicode="&#x206;" horiz-adv-x="599" 
d="M111 0v688h431v-44h-383v-274h336v-44h-336v-282h383v-44h-431zM332 919q49 0 75.5 -10.5t38 -29.5t14 -44.5t2.5 -56.5h-36q0 36 -4 60t-23.5 36t-66.5 12q-46 0 -66 -12t-24.5 -36t-4.5 -60h-36q0 31 3 56.5t14.5 44.5t38.5 29.5t75 10.5z" />
    <glyph glyph-name="uni0207" unicode="&#x207;" horiz-adv-x="561" 
d="M292 -8q-58 0 -97.5 7.5t-63.5 25t-37 47.5t-17 75t-4 107q0 74 5 124.5t25.5 81t65.5 44.5t124 14q56 0 92 -8.5t57 -26t31 -48.5t13 -75t3 -104v-17h-370q0 -62 5.5 -102.5t23 -63.5t54 -31.5t98.5 -8.5q26 0 56.5 1.5t60 4.5t52.5 7v-41q-20 -4 -49.5 -7t-62.5 -4.5
t-65 -1.5zM443 258v38q0 61 -7 97t-24 54.5t-47 24t-75 5.5q-58 0 -92 -7t-51.5 -28t-22.5 -60t-5 -104h344zM286 741q49 0 75.5 -10.5t38 -29.5t14 -44.5t2.5 -56.5h-36q0 36 -4 60t-23.5 36t-66.5 12q-46 0 -66 -12t-24.5 -36t-4.5 -60h-36q0 31 3 56.5t14.5 44.5
t38.5 29.5t75 10.5z" />
    <glyph glyph-name="uni0208" unicode="&#x208;" horiz-adv-x="271" 
d="M111 0v688h48v-688h-48zM269 781h-33l-111 114v5h53l91 -114v-5zM97 781h-33l-111 114v5h54l90 -114v-5z" />
    <glyph glyph-name="uni0209" unicode="&#x209;" horiz-adv-x="240" 
d="M97 0v510h46v-510h-46zM243 603h-33l-111 114v5h53l91 -114v-5zM71 603h-33l-111 114v5h54l90 -114v-5z" />
    <glyph glyph-name="uni020A" unicode="&#x20a;" horiz-adv-x="271" 
d="M111 0v688h48v-688h-48zM135 919q49 0 75.5 -10.5t38 -29.5t14 -44.5t2.5 -56.5h-36q0 36 -4 60t-23.5 36t-66.5 12q-46 0 -66 -12t-24.5 -36t-4.5 -60h-36q0 31 3 56.5t14.5 44.5t38.5 29.5t75 10.5z" />
    <glyph glyph-name="uni020B" unicode="&#x20b;" horiz-adv-x="240" 
d="M97 0v510h46v-510h-46zM120 741q49 0 75.5 -10.5t38 -29.5t14 -44.5t2.5 -56.5h-36q0 36 -4 60t-23.5 36t-66.5 12q-46 0 -66 -12t-24.5 -36t-4.5 -60h-36q0 31 3 56.5t14.5 44.5t38.5 29.5t75 10.5z" />
    <glyph glyph-name="uni020C" unicode="&#x20c;" horiz-adv-x="724" 
d="M362 -8q-78 0 -129 7.5t-80.5 28t-43.5 59.5t-18 101.5t-4 155.5t4 155.5t18 101.5t43.5 59.5t80.5 28t129 7.5t129 -7.5t80.5 -28t43.5 -59.5t18 -101.5t4 -155.5t-4 -155.5t-18 -101.5t-43.5 -59.5t-80.5 -28t-129 -7.5zM362 36q62 0 103.5 3.5t66.5 18t37.5 47.5
t16 90.5t3.5 148.5t-3.5 148.5t-16 90.5t-37.5 47.5t-66.5 18t-103.5 3.5q-63 0 -104 -3.5t-66 -18t-37.5 -47.5t-16 -90.5t-3.5 -148.5t3.5 -148.5t16 -90.5t37.5 -47.5t66 -18t104 -3.5zM496 781h-33l-111 114v5h53l91 -114v-5zM324 781h-33l-111 114v5h54l90 -114v-5z
" />
    <glyph glyph-name="uni020D" unicode="&#x20d;" horiz-adv-x="579" 
d="M290 -8q-62 0 -102 6.5t-63.5 23.5t-34.5 47t-14 75.5t-3 109.5q0 65 3 110.5t14 75.5t34.5 47t63.5 24t102 7q61 0 101 -7t63.5 -24t35 -47t14.5 -75.5t3 -110.5q0 -64 -3 -109.5t-14.5 -75.5t-35 -47t-63.5 -23.5t-101 -6.5zM290 33q64 0 99 8.5t50 31.5t18 67t3 114
q0 71 -3 115t-18 67.5t-50 32t-99 8.5t-99.5 -8.5t-50.5 -32t-18 -67.5t-3 -115q0 -70 3 -114t18 -67t50.5 -31.5t99.5 -8.5zM413 603h-33l-111 114v5h53l91 -114v-5zM241 603h-33l-111 114v5h54l90 -114v-5z" />
    <glyph glyph-name="uni020E" unicode="&#x20e;" horiz-adv-x="724" 
d="M362 -8q-78 0 -129 7.5t-80.5 28t-43.5 59.5t-18 101.5t-4 155.5t4 155.5t18 101.5t43.5 59.5t80.5 28t129 7.5t129 -7.5t80.5 -28t43.5 -59.5t18 -101.5t4 -155.5t-4 -155.5t-18 -101.5t-43.5 -59.5t-80.5 -28t-129 -7.5zM362 36q62 0 103.5 3.5t66.5 18t37.5 47.5
t16 90.5t3.5 148.5t-3.5 148.5t-16 90.5t-37.5 47.5t-66.5 18t-103.5 3.5q-63 0 -104 -3.5t-66 -18t-37.5 -47.5t-16 -90.5t-3.5 -148.5t3.5 -148.5t16 -90.5t37.5 -47.5t66 -18t104 -3.5zM362 919q49 0 75.5 -10.5t38 -29.5t14 -44.5t2.5 -56.5h-36q0 36 -4 60t-23.5 36
t-66.5 12q-46 0 -66 -12t-24.5 -36t-4.5 -60h-36q0 31 3 56.5t14.5 44.5t38.5 29.5t75 10.5z" />
    <glyph glyph-name="uni020F" unicode="&#x20f;" horiz-adv-x="579" 
d="M290 -8q-62 0 -102 6.5t-63.5 23.5t-34.5 47t-14 75.5t-3 109.5q0 65 3 110.5t14 75.5t34.5 47t63.5 24t102 7q61 0 101 -7t63.5 -24t35 -47t14.5 -75.5t3 -110.5q0 -64 -3 -109.5t-14.5 -75.5t-35 -47t-63.5 -23.5t-101 -6.5zM290 33q64 0 99 8.5t50 31.5t18 67t3 114
q0 71 -3 115t-18 67.5t-50 32t-99 8.5t-99.5 -8.5t-50.5 -32t-18 -67.5t-3 -115q0 -70 3 -114t18 -67t50.5 -31.5t99.5 -8.5zM289 741q49 0 75.5 -10.5t38 -29.5t14 -44.5t2.5 -56.5h-36q0 36 -4 60t-23.5 36t-66.5 12q-46 0 -66 -12t-24.5 -36t-4.5 -60h-36q0 31 3 56.5
t14.5 44.5t38.5 29.5t75 10.5z" />
    <glyph glyph-name="uni0210" unicode="&#x210;" horiz-adv-x="684" 
d="M111 0v688h309q64 0 100.5 -16.5t53.5 -45t21.5 -64t4.5 -73.5q0 -40 -6.5 -79t-30 -68.5t-75.5 -43.5l120 -298h-53l-119 300l17 -7q-7 -2 -18 -3t-33 -1h-243v-289h-48zM159 333h239q54 0 85 11t45.5 32t19 49t4.5 64q0 35 -3.5 63.5t-16.5 49t-42 31.5t-79 11h-252
v-311zM476 781h-33l-111 114v5h53l91 -114v-5zM304 781h-33l-111 114v5h54l90 -114v-5z" />
    <glyph glyph-name="uni0211" unicode="&#x211;" horiz-adv-x="347" 
d="M97 0v510h38l4 -106h4q12 46 37.5 71t60.5 34t77 9v-47q-72 0 -110 -25t-51.5 -74t-13.5 -120v-252h-46zM297 603h-33l-111 114v5h53l91 -114v-5zM125 603h-33l-111 114v5h54l90 -114v-5z" />
    <glyph glyph-name="uni0212" unicode="&#x212;" horiz-adv-x="684" 
d="M111 0v688h309q64 0 100.5 -16.5t53.5 -45t21.5 -64t4.5 -73.5q0 -40 -6.5 -79t-30 -68.5t-75.5 -43.5l120 -298h-53l-119 300l17 -7q-7 -2 -18 -3t-33 -1h-243v-289h-48zM159 333h239q54 0 85 11t45.5 32t19 49t4.5 64q0 35 -3.5 63.5t-16.5 49t-42 31.5t-79 11h-252
v-311zM342 919q49 0 75.5 -10.5t38 -29.5t14 -44.5t2.5 -56.5h-36q0 36 -4 60t-23.5 36t-66.5 12q-46 0 -66 -12t-24.5 -36t-4.5 -60h-36q0 31 3 56.5t14.5 44.5t38.5 29.5t75 10.5z" />
    <glyph glyph-name="uni0213" unicode="&#x213;" horiz-adv-x="347" 
d="M97 0v510h38l4 -106h4q12 46 37.5 71t60.5 34t77 9v-47q-72 0 -110 -25t-51.5 -74t-13.5 -120v-252h-46zM174 741q49 0 75.5 -10.5t38 -29.5t14 -44.5t2.5 -56.5h-36q0 36 -4 60t-23.5 36t-66.5 12q-46 0 -66 -12t-24.5 -36t-4.5 -60h-36q0 31 3 56.5t14.5 44.5
t38.5 29.5t75 10.5z" />
    <glyph glyph-name="uni0214" unicode="&#x214;" horiz-adv-x="715" 
d="M358 -8q-70 0 -117 8.5t-74.5 28.5t-42 55t-18.5 87t-4 125v392h48v-423q0 -70 5.5 -114.5t25 -70t62 -35t115.5 -9.5q74 0 115.5 9.5t61.5 35t25 70t5 114.5v423h48v-392q0 -73 -4 -125t-18 -87t-41.5 -55t-74.5 -28.5t-117 -8.5zM492 781h-33l-111 114v5h53l91 -114v-5
zM320 781h-33l-111 114v5h54l90 -114v-5z" />
    <glyph glyph-name="uni0215" unicode="&#x215;" horiz-adv-x="603" 
d="M281 -8q-60 0 -96.5 11.5t-55.5 34.5t-25.5 61t-6.5 91v320h46v-309q0 -54 5.5 -87.5t21.5 -51t46 -23t78 -5.5q62 0 96 16t49 44.5t18 67.5t3 84v264h46v-510h-39l-3 81h-5q-8 -24 -26.5 -44t-54.5 -32.5t-97 -12.5zM424 603h-33l-111 114v5h53l91 -114v-5zM252 603h-33
l-111 114v5h54l90 -114v-5z" />
    <glyph glyph-name="uni0216" unicode="&#x216;" horiz-adv-x="715" 
d="M358 -8q-70 0 -117 8.5t-74.5 28.5t-42 55t-18.5 87t-4 125v392h48v-423q0 -70 5.5 -114.5t25 -70t62 -35t115.5 -9.5q74 0 115.5 9.5t61.5 35t25 70t5 114.5v423h48v-392q0 -73 -4 -125t-18 -87t-41.5 -55t-74.5 -28.5t-117 -8.5zM358 919q49 0 75.5 -10.5t38 -29.5
t14 -44.5t2.5 -56.5h-36q0 36 -4 60t-23.5 36t-66.5 12q-46 0 -66 -12t-24.5 -36t-4.5 -60h-36q0 31 3 56.5t14.5 44.5t38.5 29.5t75 10.5z" />
    <glyph glyph-name="uni0217" unicode="&#x217;" horiz-adv-x="603" 
d="M281 -8q-60 0 -96.5 11.5t-55.5 34.5t-25.5 61t-6.5 91v320h46v-309q0 -54 5.5 -87.5t21.5 -51t46 -23t78 -5.5q62 0 96 16t49 44.5t18 67.5t3 84v264h46v-510h-39l-3 81h-5q-8 -24 -26.5 -44t-54.5 -32.5t-97 -12.5zM301 741q49 0 75.5 -10.5t38 -29.5t14 -44.5
t2.5 -56.5h-36q0 36 -4 60t-23.5 36t-66.5 12q-46 0 -66 -12t-24.5 -36t-4.5 -60h-36q0 31 3 56.5t14.5 44.5t38.5 29.5t75 10.5z" />
    <glyph glyph-name="uni0218" unicode="&#x218;" horiz-adv-x="634" 
d="M332 -8q-36 0 -79 1.5t-83.5 4.5t-72.5 6v45q34 -3 74.5 -6t79.5 -5t67 -2q52 0 86.5 4t62.5 19q19 11 28 29.5t11.5 43.5t2.5 53q0 43 -2.5 68.5t-13 39.5t-35.5 20t-68 11l-180 19q-48 5 -75 18.5t-39.5 35t-15.5 50.5t-3 65q0 59 14.5 95.5t44 55.5t75 26t106.5 7
q38 0 77 -1.5t73 -5t55 -7.5v-42q-27 4 -62 6.5t-70.5 4t-66.5 1.5q-60 0 -98.5 -6t-61.5 -22q-25 -16 -31.5 -45t-6.5 -68q0 -46 6 -71t27 -36t62 -15l173 -19q42 -3 73.5 -9.5t51.5 -21t30 -44.5q4 -13 6 -28.5t2.5 -34.5t0.5 -42q0 -56 -10 -93t-30 -58t-47.5 -31.5
t-62 -13t-75.5 -2.5zM261 -262v25q23 0 34 5t14.5 18t3.5 37v17h-24v72h58v-77q0 -29 -3.5 -48t-13 -30t-26 -15t-43.5 -4z" />
    <glyph glyph-name="uni0219" unicode="&#x219;" horiz-adv-x="500" 
d="M254 -8q-26 0 -58 1.5t-62.5 4t-54.5 5.5v41q32 -3 55.5 -5t43.5 -3.5t40.5 -2t45.5 -0.5q56 0 83 10t36 32.5t9 59.5q0 43 -7 62t-22.5 24.5t-44.5 8.5l-145 15q-44 5 -68 17.5t-33 39.5t-9 70q0 50 12.5 79.5t38 44t61.5 18.5t82 4q24 0 51 -1.5t53.5 -4t47.5 -7.5v-40
q-28 4 -54 7t-52.5 4t-58.5 1q-40 0 -71 -5t-48 -25.5t-17 -68.5q0 -37 6.5 -55.5t23 -25t45.5 -9.5l142 -14q45 -4 68.5 -15.5t33.5 -39t10 -84.5q0 -45 -10.5 -73t-33 -43t-57 -21t-82.5 -6zM194 -262v25q23 0 34 5t14.5 18t3.5 37v17h-24v72h58v-77q0 -29 -3.5 -48
t-13 -30t-26 -15t-43.5 -4z" />
    <glyph glyph-name="uni021A" unicode="&#x21a;" horiz-adv-x="582" 
d="M267 0v644h-229v44h506v-44h-229v-644h-48zM235 -262v25q23 0 34 5t14.5 18t3.5 37v17h-24v72h58v-77q0 -29 -3.5 -48t-13 -30t-26 -15t-43.5 -4z" />
    <glyph glyph-name="uni021B" unicode="&#x21b;" horiz-adv-x="336" 
d="M136 0v469h-107v41h107v148h46v-148h125v-41h-125v-469h-46zM103 -262v25q23 0 34 5t14.5 18t3.5 37v17h-24v72h58v-77q0 -29 -3.5 -48t-13 -30t-26 -15t-43.5 -4z" />
    <glyph glyph-name="uni022A" unicode="&#x22a;" horiz-adv-x="724" 
d="M362 -8q-78 0 -129 7.5t-80.5 28t-43.5 59.5t-18 101.5t-4 155.5t4 155.5t18 101.5t43.5 59.5t80.5 28t129 7.5t129 -7.5t80.5 -28t43.5 -59.5t18 -101.5t4 -155.5t-4 -155.5t-18 -101.5t-43.5 -59.5t-80.5 -28t-129 -7.5zM362 36q62 0 103.5 3.5t66.5 18t37.5 47.5
t16 90.5t3.5 148.5t-3.5 148.5t-16 90.5t-37.5 47.5t-66.5 18t-103.5 3.5q-63 0 -104 -3.5t-66 -18t-37.5 -47.5t-16 -90.5t-3.5 -148.5t3.5 -148.5t16 -90.5t37.5 -47.5t66 -18t104 -3.5zM231 823v65h51v-65h-51zM440 823v65h51v-65h-51zM226 1003v37h271v-37h-271z" />
    <glyph glyph-name="uni022B" unicode="&#x22b;" horiz-adv-x="579" 
d="M290 -8q-62 0 -102 6.5t-63.5 23.5t-34.5 47t-14 75.5t-3 109.5q0 65 3 110.5t14 75.5t34.5 47t63.5 24t102 7q61 0 101 -7t63.5 -24t35 -47t14.5 -75.5t3 -110.5q0 -64 -3 -109.5t-14.5 -75.5t-35 -47t-63.5 -23.5t-101 -6.5zM290 33q64 0 99 8.5t50 31.5t18 67t3 114
q0 71 -3 115t-18 67.5t-50 32t-99 8.5t-99.5 -8.5t-50.5 -32t-18 -67.5t-3 -115q0 -70 3 -114t18 -67t50.5 -31.5t99.5 -8.5zM159 645v65h51v-65h-51zM368 645v65h51v-65h-51zM154 810v37h271v-37h-271z" />
    <glyph glyph-name="uni022C" unicode="&#x22c;" horiz-adv-x="724" 
d="M362 -8q-78 0 -129 7.5t-80.5 28t-43.5 59.5t-18 101.5t-4 155.5t4 155.5t18 101.5t43.5 59.5t80.5 28t129 7.5t129 -7.5t80.5 -28t43.5 -59.5t18 -101.5t4 -155.5t-4 -155.5t-18 -101.5t-43.5 -59.5t-80.5 -28t-129 -7.5zM362 36q62 0 103.5 3.5t66.5 18t37.5 47.5
t16 90.5t3.5 148.5t-3.5 148.5t-16 90.5t-37.5 47.5t-66.5 18t-103.5 3.5q-63 0 -104 -3.5t-66 -18t-37.5 -47.5t-16 -90.5t-3.5 -148.5t3.5 -148.5t16 -90.5t37.5 -47.5t66 -18t104 -3.5zM198 794q0 36 4.5 58t18.5 32t42 10t55 -8t55 -19q21 -8 42 -15t45 -7q22 0 28 13.5
t6 46.5h31q0 -36 -4.5 -58t-18.5 -32t-41 -10q-30 0 -55.5 9t-54.5 19q-22 7 -43 14.5t-44 7.5q-22 0 -28 -13.5t-6 -47.5h-32zM226 1001v37h271v-37h-271z" />
    <glyph glyph-name="uni022D" unicode="&#x22d;" horiz-adv-x="579" 
d="M290 -8q-62 0 -102 6.5t-63.5 23.5t-34.5 47t-14 75.5t-3 109.5q0 65 3 110.5t14 75.5t34.5 47t63.5 24t102 7q61 0 101 -7t63.5 -24t35 -47t14.5 -75.5t3 -110.5q0 -64 -3 -109.5t-14.5 -75.5t-35 -47t-63.5 -23.5t-101 -6.5zM290 33q64 0 99 8.5t50 31.5t18 67t3 114
q0 71 -3 115t-18 67.5t-50 32t-99 8.5t-99.5 -8.5t-50.5 -32t-18 -67.5t-3 -115q0 -70 3 -114t18 -67t50.5 -31.5t99.5 -8.5zM125 616q0 36 4.5 58t18.5 32t42 10t55 -8t55 -19q21 -8 42 -15t45 -7q22 0 28 13.5t6 46.5h31q0 -36 -4.5 -58t-18.5 -32t-41 -10q-30 0 -55.5 9
t-54.5 19q-22 7 -43 14.5t-44 7.5q-22 0 -28 -13.5t-6 -47.5h-32zM154 823v37h271v-37h-271z" />
    <glyph glyph-name="uni0230" unicode="&#x230;" horiz-adv-x="724" 
d="M362 -8q-78 0 -129 7.5t-80.5 28t-43.5 59.5t-18 101.5t-4 155.5t4 155.5t18 101.5t43.5 59.5t80.5 28t129 7.5t129 -7.5t80.5 -28t43.5 -59.5t18 -101.5t4 -155.5t-4 -155.5t-18 -101.5t-43.5 -59.5t-80.5 -28t-129 -7.5zM362 36q62 0 103.5 3.5t66.5 18t37.5 47.5
t16 90.5t3.5 148.5t-3.5 148.5t-16 90.5t-37.5 47.5t-66.5 18t-103.5 3.5q-63 0 -104 -3.5t-66 -18t-37.5 -47.5t-16 -90.5t-3.5 -148.5t3.5 -148.5t16 -90.5t37.5 -47.5t66 -18t104 -3.5zM336 824v65h51v-65h-51zM226 988v37h271v-37h-271z" />
    <glyph glyph-name="uni0231" unicode="&#x231;" horiz-adv-x="579" 
d="M290 -8q-62 0 -102 6.5t-63.5 23.5t-34.5 47t-14 75.5t-3 109.5q0 65 3 110.5t14 75.5t34.5 47t63.5 24t102 7q61 0 101 -7t63.5 -24t35 -47t14.5 -75.5t3 -110.5q0 -64 -3 -109.5t-14.5 -75.5t-35 -47t-63.5 -23.5t-101 -6.5zM290 33q64 0 99 8.5t50 31.5t18 67t3 114
q0 71 -3 115t-18 67.5t-50 32t-99 8.5t-99.5 -8.5t-50.5 -32t-18 -67.5t-3 -115q0 -70 3 -114t18 -67t50.5 -31.5t99.5 -8.5zM264 645v65h51v-65h-51zM154 810v37h271v-37h-271z" />
    <glyph glyph-name="uni0232" unicode="&#x232;" horiz-adv-x="601" 
d="M276 0v277l-258 411h54l226 -362h7l226 362h52l-259 -411v-277h-48zM165 823v37h271v-37h-271z" />
    <glyph glyph-name="uni0233" unicode="&#x233;" horiz-adv-x="603" 
d="M284 -206q-29 0 -60.5 1t-60.5 2.5t-50 3.5v41q29 -2 57.5 -3.5t55.5 -2.5t50 -1q63 0 100.5 12t55 37.5t23 65.5t5.5 96v28h-5q-6 -19 -24 -38t-53.5 -31t-96.5 -12q-60 0 -96.5 11t-55.5 34.5t-25.5 61t-6.5 91.5v319h46v-309q0 -54 5.5 -87.5t21.5 -50.5t46 -23t78 -6
q62 0 96 16t49 45t18 67.5t3 84.5v263h46v-444q0 -75 -8.5 -127.5t-31.5 -84t-67 -46t-115 -14.5zM165 645v37h271v-37h-271z" />
    <glyph glyph-name="uni0237" unicode="&#x237;" horiz-adv-x="240" 
d="M-4 -200v38q47 0 68 5t27 17.5t6 34.5v615h46v-603q0 -38 -8.5 -59.5t-26.5 -31.5t-45.5 -13t-66.5 -3z" />
    <glyph glyph-name="uni0259" unicode="&#x259;" horiz-adv-x="561" 
d="M270 518q58 0 97 -7.5t63.5 -25t37 -47.5t17 -75t4.5 -107q0 -74 -5.5 -124.5t-25.5 -81t-65 -44.5t-125 -14q-56 0 -92 8.5t-56.5 26t-30.5 48.5t-13 75t-3 104v17h370q0 62 -6 102.5t-23.5 63.5t-54 31.5t-97.5 8.5q-27 0 -57.5 -1.5t-59.5 -4.5t-52 -7v41q20 4 49 7
t62.5 4.5t65.5 1.5zM118 252v-38q0 -61 7 -97t24.5 -54.5t47 -24t74.5 -5.5q58 0 92.5 7t51.5 28t22.5 60t5.5 104h-345z" />
    <glyph glyph-name="uni0272" unicode="&#x272;" horiz-adv-x="603" 
d="M-4 -200v38q47 0 68 5t27 17.5t6 34.5v615h39l3 -81h4q9 24 27.5 44t54.5 32.5t97 12.5q60 0 96.5 -11.5t55.5 -34.5t25.5 -61t6.5 -91v-320h-46v309q0 55 -5.5 88t-22 50.5t-46 23t-77.5 5.5q-62 0 -96 -16t-49 -44.5t-18 -67.5t-3 -84v-357q0 -38 -8.5 -59.5
t-26.5 -31.5t-45.5 -13t-66.5 -3z" />
    <glyph glyph-name="uni02B9" unicode="&#x2b9;" horiz-adv-x="69" 
d="M0 392l20 296h48l-9 -146l-28 -150h-31z" />
    <glyph glyph-name="uni02BA" unicode="&#x2ba;" horiz-adv-x="196" 
d="M128 392l20 296h48l-9 -146l-28 -150h-31zM0 392l20 296h48l-9 -146l-28 -150h-31z" />
    <glyph glyph-name="uni02BC" unicode="&#x2bc;" horiz-adv-x="86" 
d="M0 570v24q23 0 34 5.5t14.5 19.5t3.5 38v17h-24v69h58v-73q0 -30 -3.5 -49.5t-13 -31t-26 -15.5t-43.5 -4z" />
    <glyph glyph-name="circumflex" unicode="&#x2c6;" horiz-adv-x="267" 
d="M0 603v6l106 133h55l106 -133v-6h-34l-100 106l-99 -106h-34z" />
    <glyph glyph-name="caron" unicode="&#x2c7;" horiz-adv-x="267" 
d="M106 603l-106 133v5h34l99 -104l100 104h34v-5l-106 -133h-55z" />
    <glyph glyph-name="uni02C9" unicode="&#x2c9;" horiz-adv-x="271" 
d="M0 645v37h271v-37h-271z" />
    <glyph glyph-name="breve" unicode="&#x2d8;" horiz-adv-x="261" 
d="M130 594q-48 0 -75 10.5t-38.5 30t-14 45t-2.5 56.5h36q0 -35 4 -59.5t24 -36.5t66 -12q47 0 66.5 12t24 36.5t4.5 59.5h36q0 -31 -2.5 -56.5t-14.5 -45t-39 -30t-75 -10.5z" />
    <glyph glyph-name="dotaccent" unicode="&#x2d9;" horiz-adv-x="51" 
d="M0 645v65h51v-65h-51z" />
    <glyph glyph-name="ring" unicode="&#x2da;" horiz-adv-x="232" 
d="M115 589q-41 0 -64 5.5t-34 16.5t-14 29t-3 45q0 26 3 44.5t14 30t34 17t64 5.5q42 0 65.5 -5.5t34.5 -17t14 -30t3 -44.5q0 -27 -3 -45t-14 -29t-34.5 -16.5t-65.5 -5.5zM115 621q40 0 56.5 5.5t20 19.5t3.5 39q0 26 -3.5 40t-20 20t-56.5 6q-38 0 -54.5 -6t-20 -20
t-3.5 -40q0 -25 3.5 -39t20 -19.5t54.5 -5.5z" />
    <glyph glyph-name="ogonek" unicode="&#x2db;" horiz-adv-x="107" 
d="M81 -196q-30 0 -47.5 9.5t-25.5 26.5t-8 37q0 33 21 70.5t54 66.5l31 -10q-13 -12 -28 -32t-25 -43t-10 -43q0 -19 10.5 -32t36.5 -13h6.5t10.5 1v-37q-8 -1 -13 -1h-13z" />
    <glyph glyph-name="tilde" unicode="&#x2dc;" horiz-adv-x="327" 
d="M0 616q0 36 4.5 58t18.5 32t42 10t55 -8t55 -19q21 -8 42 -15t45 -7q22 0 28 13.5t6 46.5h31q0 -36 -4.5 -58t-18.5 -32t-41 -10q-30 0 -55.5 9t-54.5 19q-22 7 -43 14.5t-44 7.5q-22 0 -28 -13.5t-6 -47.5h-32z" />
    <glyph glyph-name="hungarumlaut" unicode="&#x2dd;" horiz-adv-x="316" 
d="M0 603v5l90 114h54v-5l-111 -114h-33zM172 603v5l90 114h54v-5l-111 -114h-33z" />
    <glyph glyph-name="gravecomb" unicode="&#x300;" 
d="M127 603l-127 133v5h56l106 -133v-5h-35z" />
    <glyph glyph-name="acutecomb" unicode="&#x301;" 
d="M0 603v5l106 134h56v-5l-127 -134h-35z" />
    <glyph glyph-name="uni0302" unicode="&#x302;" 
d="M0 603v6l106 133h55l106 -133v-6h-34l-100 106l-99 -106h-34z" />
    <glyph glyph-name="tildecomb" unicode="&#x303;" 
d="M0 616q0 36 4.5 58t18.5 32t42 10t55 -8t55 -19q21 -8 42 -15t45 -7q22 0 28 13.5t6 46.5h31q0 -36 -4.5 -58t-18.5 -32t-41 -10q-30 0 -55.5 9t-54.5 19q-22 7 -43 14.5t-44 7.5q-22 0 -28 -13.5t-6 -47.5h-32z" />
    <glyph glyph-name="uni0304" unicode="&#x304;" 
d="M0 645v37h271v-37h-271z" />
    <glyph glyph-name="uni0306" unicode="&#x306;" 
d="M130 594q-48 0 -75 11t-38.5 30t-14 44.5t-2.5 56.5h36q0 -35 4 -59.5t24 -36.5t66 -12q47 0 66.5 12t24 36.5t4.5 59.5h36q0 -31 -2.5 -56.5t-14.5 -44.5t-39 -30t-75 -11z" />
    <glyph glyph-name="uni0307" unicode="&#x307;" 
d="M0 645v65h51v-65h-51z" />
    <glyph glyph-name="uni0308" unicode="&#x308;" 
d="M0 645v65h51v-65h-51zM209 645v65h51v-65h-51z" />
    <glyph glyph-name="hookabovecomb" unicode="&#x309;" 
d="M74 589v11q0 16 4 25t13 14.5t26 10.5l25 6q26 8 38.5 13.5t16.5 12.5t4 21q0 21 -8 29.5t-29.5 10.5t-61.5 2q-12 0 -29 -0.5t-36 -1.5t-37 -3v30q24 3 56 4.5t56 1.5q44 0 72 -4.5t41 -19t13 -45.5q0 -19 -4 -32.5t-16 -22.5t-38 -16l-29 -8q-21 -5 -30.5 -9
t-11.5 -10.5t-2 -19.5h-33z" />
    <glyph glyph-name="uni030A" unicode="&#x30a;" 
d="M115 589q-41 0 -64 5.5t-34 16.5t-14 29t-3 45q0 26 3 44.5t14 30t34 17t64 5.5q42 0 65.5 -5.5t34.5 -17t14 -30t3 -44.5q0 -27 -3 -45t-14 -29t-34.5 -16.5t-65.5 -5.5zM115 621q40 0 56.5 5.5t20 19.5t3.5 39q0 26 -3.5 40t-20 20t-56.5 6q-38 0 -54.5 -6t-20 -20
t-3.5 -40q0 -25 3.5 -39t20 -19.5t54.5 -5.5z" />
    <glyph glyph-name="uni030B" unicode="&#x30b;" 
d="M0 603v5l90 114h54v-5l-111 -114h-33zM172 603v5l90 114h54v-5l-111 -114h-33z" />
    <glyph glyph-name="uni030C" unicode="&#x30c;" 
d="M106 603l-106 133v5h34l99 -104l100 104h34v-5l-106 -133h-55z" />
    <glyph glyph-name="uni030F" unicode="&#x30f;" 
d="M316 603h-33l-111 114v5h53l91 -114v-5zM144 603h-33l-111 114v5h54l90 -114v-5z" />
    <glyph glyph-name="uni0311" unicode="&#x311;" 
d="M131 741q49 0 75.5 -10.5t38 -29.5t14 -44.5t2.5 -56.5h-36q0 36 -4 60t-23.5 36t-66.5 12q-46 0 -66 -12t-24.5 -36t-4.5 -60h-36q0 31 3 56.5t14.5 44.5t38.5 29.5t75 10.5z" />
    <glyph glyph-name="uni0312" unicode="&#x312;" 
d="M0 583v77q0 29 3.5 48t13 30t26 15t43.5 4v-25q-34 0 -43 -12t-9 -48v-17h24v-72h-58z" />
    <glyph glyph-name="uni031B" unicode="&#x31b;" 
d="M0 479v31h61q35 0 43 13t8 50v34h39v-27q0 -30 -3.5 -49.5t-13.5 -30.5t-28 -16t-45 -5h-61z" />
    <glyph glyph-name="dotbelowcomb" unicode="&#x323;" 
d="M0 -188v61h51v-61h-51z" />
    <glyph glyph-name="uni0324" unicode="&#x324;" 
d="M0 -148v65h51v-65h-51zM209 -148v65h51v-65h-51z" />
    <glyph glyph-name="uni0326" unicode="&#x326;" 
d="M0 -262v25q23 0 34 5t14.5 18t3.5 37v17h-24v72h58v-77q0 -29 -3.5 -48t-13 -30t-26 -15t-43.5 -4z" />
    <glyph glyph-name="uni0327" unicode="&#x327;" 
d="M0 -190v5l62 203h33v-5l-45 -203h-50z" />
    <glyph glyph-name="uni0328" unicode="&#x328;" 
d="M81 -196q-30 0 -47.5 9.5t-25.5 26.5t-8 37q0 33 21 70.5t54 66.5l31 -10q-13 -12 -28 -32t-25 -43t-10 -43q0 -19 10.5 -32t36.5 -13h6.5t10.5 1v-37q-8 -1 -13 -1h-13z" />
    <glyph glyph-name="uni032E" unicode="&#x32e;" 
d="M130 -211q-48 0 -75 10.5t-38.5 30t-14 45t-2.5 56.5h36q0 -35 4 -59.5t24 -36.5t66 -12q47 0 66.5 12t24 36.5t4.5 59.5h36q0 -31 -2.5 -56.5t-14.5 -45t-39 -30t-75 -10.5z" />
    <glyph glyph-name="uni0331" unicode="&#x331;" 
d="M0 -159v37h271v-37h-271z" />
    <glyph glyph-name="uni0335" unicode="&#x335;" 
d="M0 327v44h242v-44h-242z" />
    <glyph glyph-name="uni0336" unicode="&#x336;" 
d="M0 491v44h514v-44h-514z" />
    <glyph glyph-name="uni0394" unicode="&#x394;" horiz-adv-x="683" 
d="M37 0l278 688h53l278 -688h-609zM103 44h476l-235 585h-5z" />
    <glyph glyph-name="uni03A9" unicode="&#x3a9;" horiz-adv-x="724" 
d="M90 0v44h4l119 -11v6q-57 18 -84 58.5t-34.5 106.5t-7.5 156q0 80 4 137.5t18 96t44 61t81 32t128 9.5q78 0 128.5 -9.5t80.5 -32t44 -61t18 -96t4 -137.5q0 -90 -8 -156t-34.5 -106.5t-83.5 -58.5v-6l119 11h5v-44h-213v38q57 9 90.5 28t49.5 54t21.5 93t5.5 146
q0 79 -4 132t-16 85t-37 49t-66.5 22t-103.5 5t-103.5 -5t-66.5 -22t-37 -49t-16 -85t-4 -132q0 -88 5.5 -146t21.5 -93t49.5 -54t90.5 -28v-38h-212z" />
    <glyph glyph-name="uni03BC" unicode="&#x3bc;" horiz-adv-x="603" 
d="M97 -190v700h46v-309q0 -54 5.5 -87.5t21.5 -51t46 -23t78 -5.5q62 0 96 16t49 44.5t18 67.5t3 84v264h46v-510h-39l-3 81h-5q-8 -24 -26.5 -44t-54.5 -32.5t-97 -12.5q-42 0 -73 7t-51.5 22t-33.5 40l38 -25h-18v-226h-46z" />
    <glyph glyph-name="pi" unicode="&#x3c0;" horiz-adv-x="593" 
d="M97 0v510h399v-510h-46v469h-307v-469h-46z" />
    <glyph glyph-name="uni1E0C" unicode="&#x1e0c;" horiz-adv-x="692" 
d="M111 0v688h209q81 0 133.5 -7t83 -27t45.5 -58.5t19 -99.5t4 -152t-4 -152t-19 -99.5t-45.5 -58.5t-83 -27t-133.5 -7h-209zM159 44h142q73 0 120.5 3t75 17t40 46t16.5 89t4 145t-4 145t-17 89t-41 46t-75 17t-119 3h-142v-600zM321 -188v61h51v-61h-51z" />
    <glyph glyph-name="uni1E0D" unicode="&#x1e0d;" horiz-adv-x="595" 
d="M271 -8q-62 0 -101 11.5t-60 40.5t-29 80t-8 131q0 79 8 130.5t29 80.5t59.5 40.5t100.5 11.5q47 0 82 -7.5t59 -25t36 -47.5h5v305h46v-743h-39l-3 81h-5q-14 -39 -42 -58t-64 -25t-74 -6zM286 34q62 0 99.5 17t50.5 54q12 34 14 72t2 90q0 36 -2 69.5t-11 59.5
q-16 44 -53.5 62t-104.5 18q-52 0 -84.5 -7.5t-49.5 -30t-22.5 -66.5t-5.5 -117t6 -117t23 -66.5t50 -30t88 -7.5zM272 -188v61h51v-61h-51z" />
    <glyph glyph-name="uni1E24" unicode="&#x1e24;" horiz-adv-x="736" 
d="M111 0v688h48v-318h418v318h48v-688h-48v326h-418v-326h-48zM343 -188v61h51v-61h-51z" />
    <glyph glyph-name="uni1E25" unicode="&#x1e25;" horiz-adv-x="603" 
d="M97 0v743h46v-306h4q8 19 25.5 37.5t53 31t96.5 12.5q60 0 96.5 -11.5t55.5 -34.5t25.5 -61t6.5 -91v-320h-46v309q0 55 -5.5 88t-22 50.5t-46 23t-77.5 5.5q-62 0 -96 -16t-49 -44.5t-18 -67.5t-3 -84v-264h-46zM276 -188v61h51v-61h-51z" />
    <glyph glyph-name="uni1E44" unicode="&#x1e44;" horiz-adv-x="736" 
d="M111 0v688h48l416 -599h4v599h46v-688h-46l-417 602h-4v-602h-47zM352 824v65h51v-65h-51z" />
    <glyph glyph-name="uni1E45" unicode="&#x1e45;" horiz-adv-x="603" 
d="M97 0v510h39l3 -81h4q9 24 27.5 44t54.5 32.5t97 12.5q60 0 96.5 -11.5t55.5 -34.5t25.5 -61t6.5 -91v-320h-46v309q0 55 -5.5 88t-22 50.5t-46 23t-77.5 5.5q-62 0 -96 -16t-49 -44.5t-18 -67.5t-3 -84v-264h-46zM275 645v65h51v-65h-51z" />
    <glyph glyph-name="uni1E5A" unicode="&#x1e5a;" horiz-adv-x="684" 
d="M111 0v688h309q64 0 100.5 -16.5t53.5 -45t21.5 -64t4.5 -73.5q0 -40 -6.5 -79t-30 -68.5t-75.5 -43.5l120 -298h-53l-119 300l17 -7q-7 -2 -18 -3t-33 -1h-243v-289h-48zM159 333h239q54 0 85 11t45.5 32t19 49t4.5 64q0 35 -3.5 63.5t-16.5 49t-42 31.5t-79 11h-252
v-311zM317 -188v61h51v-61h-51z" />
    <glyph glyph-name="uni1E5B" unicode="&#x1e5b;" horiz-adv-x="347" 
d="M97 0v510h38l4 -106h4q12 46 37.5 71t60.5 34t77 9v-47q-72 0 -110 -25t-51.5 -74t-13.5 -120v-252h-46zM95 -188v61h51v-61h-51z" />
    <glyph glyph-name="uni1E62" unicode="&#x1e62;" horiz-adv-x="634" 
d="M332 -8q-36 0 -79 1.5t-83.5 4.5t-72.5 6v45q34 -3 74.5 -6t79.5 -5t67 -2q52 0 86.5 4t62.5 19q19 11 28 29.5t11.5 43.5t2.5 53q0 43 -2.5 68.5t-13 39.5t-35.5 20t-68 11l-180 19q-48 5 -75 18.5t-39.5 35t-15.5 50.5t-3 65q0 59 14.5 95.5t44 55.5t75 26t106.5 7
q38 0 77 -1.5t73 -5t55 -7.5v-42q-27 4 -62 6.5t-70.5 4t-66.5 1.5q-60 0 -98.5 -6t-61.5 -22q-25 -16 -31.5 -45t-6.5 -68q0 -46 6 -71t27 -36t62 -15l173 -19q42 -3 73.5 -9.5t51.5 -21t30 -44.5q4 -13 6 -28.5t2.5 -34.5t0.5 -42q0 -56 -10 -93t-30 -58t-47.5 -31.5
t-62 -13t-75.5 -2.5zM292 -188v61h51v-61h-51z" />
    <glyph glyph-name="uni1E63" unicode="&#x1e63;" horiz-adv-x="500" 
d="M254 -8q-26 0 -58 1.5t-62.5 4t-54.5 5.5v41q32 -3 55.5 -5t43.5 -3.5t40.5 -2t45.5 -0.5q56 0 83 10t36 32.5t9 59.5q0 43 -7 62t-22.5 24.5t-44.5 8.5l-145 15q-44 5 -68 17.5t-33 39.5t-9 70q0 50 12.5 79.5t38 44t61.5 18.5t82 4q24 0 51 -1.5t53.5 -4t47.5 -7.5v-40
q-28 4 -54 7t-52.5 4t-58.5 1q-40 0 -71 -5t-48 -25.5t-17 -68.5q0 -37 6.5 -55.5t23 -25t45.5 -9.5l142 -14q45 -4 68.5 -15.5t33.5 -39t10 -84.5q0 -45 -10.5 -73t-33 -43t-57 -21t-82.5 -6zM224 -188v61h51v-61h-51z" />
    <glyph glyph-name="uni1E6C" unicode="&#x1e6c;" horiz-adv-x="582" 
d="M267 0v644h-229v44h506v-44h-229v-644h-48zM265 -188v61h51v-61h-51z" />
    <glyph glyph-name="uni1E6D" unicode="&#x1e6d;" horiz-adv-x="336" 
d="M136 0v469h-107v41h107v148h46v-148h125v-41h-125v-469h-46zM134 -188v61h51v-61h-51z" />
    <glyph glyph-name="Wgrave" unicode="&#x1e80;" horiz-adv-x="985" 
d="M245 0l-200 688h51l174 -612h6l192 612h51l193 -612h5l174 612h49l-200 -688h-51l-195 607h-4l-194 -607h-51zM511 782l-127 133v5h56l106 -133v-5h-35z" />
    <glyph glyph-name="wgrave" unicode="&#x1e81;" horiz-adv-x="806" 
d="M211 0l-174 510h49l148 -443h6l140 443h48l140 -443h7l146 443h48l-174 -510h-49l-140 431h-7l-138 -431h-50zM419 603l-127 133v5h56l106 -133v-5h-35z" />
    <glyph glyph-name="Wacute" unicode="&#x1e82;" horiz-adv-x="985" 
d="M245 0l-200 688h51l174 -612h6l192 612h51l193 -612h5l174 612h49l-200 -688h-51l-195 607h-4l-194 -607h-51zM453 781v5l106 134h56v-5l-127 -134h-35z" />
    <glyph glyph-name="wacute" unicode="&#x1e83;" horiz-adv-x="806" 
d="M211 0l-174 510h49l148 -443h6l140 443h48l140 -443h7l146 443h48l-174 -510h-49l-140 431h-7l-138 -431h-50zM343 603v5l106 134h56v-5l-127 -134h-35z" />
    <glyph glyph-name="Wdieresis" unicode="&#x1e84;" horiz-adv-x="985" 
d="M245 0l-200 688h51l174 -612h6l192 612h51l193 -612h5l174 612h49l-200 -688h-51l-195 607h-4l-194 -607h-51zM362 823v65h51v-65h-51zM571 823v65h51v-65h-51z" />
    <glyph glyph-name="wdieresis" unicode="&#x1e85;" horiz-adv-x="806" 
d="M211 0l-174 510h49l148 -443h6l140 443h48l140 -443h7l146 443h48l-174 -510h-49l-140 431h-7l-138 -431h-50zM273 645v65h51v-65h-51zM482 645v65h51v-65h-51z" />
    <glyph glyph-name="uni1E92" unicode="&#x1e92;" horiz-adv-x="602" 
d="M58 0v41l422 603h-411v44h472v-41l-422 -603h429v-44h-490zM276 -188v61h51v-61h-51z" />
    <glyph glyph-name="uni1E93" unicode="&#x1e93;" horiz-adv-x="499" 
d="M54 0v36l328 433h-316v41h377v-36l-327 -433h329v-41h-391zM228 -188v61h51v-61h-51z" />
    <glyph glyph-name="uni1E9E" unicode="&#x1e9e;" horiz-adv-x="716" 
d="M412 -8q-38 0 -84 4.5t-79 10.5v41q42 -5 87.5 -8.5t78.5 -3.5q63 0 101 13.5t54 45t16 86.5q0 52 -14 84.5t-44 47t-80 14.5h-116v31l211 282l-3 -21q-39 13 -71.5 20t-65.5 10t-70 3q-50 0 -83 -6t-53 -24t-30 -51.5t-13.5 -89t-3.5 -137.5v-344h-48v382
q0 79 5.5 134.5t19.5 90.5t39 54.5t63.5 27t92.5 7.5q52 0 99.5 -6t88 -16t70.5 -22v-37l-199 -265l-7 16h73q62 0 103.5 -19t62.5 -59.5t21 -106.5q0 -49 -12 -84t-38.5 -58.5t-69 -35t-102.5 -11.5z" />
    <glyph glyph-name="uni1EA0" unicode="&#x1ea0;" horiz-adv-x="683" 
d="M37 0l278 688h53l278 -688h-51l-86 214h-336l-86 -214h-50zM190 258h302l-148 370h-5zM317 -188v61h51v-61h-51z" />
    <glyph glyph-name="uni1EA1" unicode="&#x1ea1;" horiz-adv-x="573" 
d="M243 -8q-62 0 -102 11.5t-59 43t-19 92.5q0 56 13 88t46 45t93 13q11 0 35.5 -0.5t56 -1t63.5 -1t60 -1.5v42q0 54 -6.5 84.5t-24.5 46t-52 19.5t-88 4q-23 0 -53.5 -2t-59.5 -4.5t-48 -5.5v41q32 5 78.5 8.5t99.5 3.5q50 0 85.5 -5.5t58 -18t34.5 -34t17 -54.5t5 -78
v-328h-39l-3 80h-4q-15 -39 -46 -58t-68.5 -24.5t-72.5 -5.5zM249 32q34 0 65.5 3.5t55.5 15.5t37 38q13 28 18 56.5t5 64.5v37h-203q-47 0 -73 -7.5t-36 -30.5t-10 -69q0 -44 11.5 -67.5t42 -32t87.5 -8.5zM261 -188v61h51v-61h-51z" />
    <glyph glyph-name="uni1EA2" unicode="&#x1ea2;" horiz-adv-x="683" 
d="M37 0l278 688h53l278 -688h-51l-86 214h-336l-86 -214h-50zM190 258h302l-148 370h-5zM304 767v11q0 16 4 25t13 14.5t26 10.5l25 6q26 8 38.5 13.5t16.5 12.5t4 21q0 21 -8 29.5t-29.5 10.5t-61.5 2q-12 0 -29 -0.5t-36 -1.5t-37 -3v30q24 3 56 4.5t56 1.5q44 0 72 -4.5
t41 -19t13 -45.5q0 -19 -4 -32.5t-16 -22.5t-38 -16l-29 -8q-21 -5 -30.5 -9t-11.5 -10.5t-2 -19.5h-33z" />
    <glyph glyph-name="uni1EA3" unicode="&#x1ea3;" horiz-adv-x="573" 
d="M243 -8q-62 0 -102 11.5t-59 43t-19 92.5q0 56 13 88t46 45t93 13q11 0 35.5 -0.5t56 -1t63.5 -1t60 -1.5v42q0 54 -6.5 84.5t-24.5 46t-52 19.5t-88 4q-23 0 -53.5 -2t-59.5 -4.5t-48 -5.5v41q32 5 78.5 8.5t99.5 3.5q50 0 85.5 -5.5t58 -18t34.5 -34t17 -54.5t5 -78
v-328h-39l-3 80h-4q-15 -39 -46 -58t-68.5 -24.5t-72.5 -5.5zM249 32q34 0 65.5 3.5t55.5 15.5t37 38q13 28 18 56.5t5 64.5v37h-203q-47 0 -73 -7.5t-36 -30.5t-10 -69q0 -44 11.5 -67.5t42 -32t87.5 -8.5zM252 589v11q0 16 4 25t13 14.5t26 10.5l25 6q26 8 38.5 13.5
t16.5 12.5t4 21q0 21 -8 29.5t-29.5 10.5t-61.5 2q-12 0 -29 -0.5t-36 -1.5t-37 -3v30q24 3 56 4.5t56 1.5q44 0 72 -4.5t41 -19t13 -45.5q0 -19 -4 -32.5t-16 -22.5t-38 -16l-29 -8q-21 -5 -30.5 -9t-11.5 -10.5t-2 -19.5h-33z" />
    <glyph glyph-name="uni1EA4" unicode="&#x1ea4;" horiz-adv-x="683" 
d="M37 0l278 688h53l278 -688h-51l-86 214h-336l-86 -214h-50zM190 258h302l-148 370h-5zM208 782v5l106 134h55l106 -134v-5h-34l-100 105l-99 -105h-34zM302 959v5l106 134h56v-5l-127 -134h-35z" />
    <glyph glyph-name="uni1EA5" unicode="&#x1ea5;" horiz-adv-x="573" 
d="M243 -8q-62 0 -102 11.5t-59 43t-19 92.5q0 56 13 88t46 45t93 13q11 0 35.5 -0.5t56 -1t63.5 -1t60 -1.5v42q0 54 -6.5 84.5t-24.5 46t-52 19.5t-88 4q-23 0 -53.5 -2t-59.5 -4.5t-48 -5.5v41q32 5 78.5 8.5t99.5 3.5q50 0 85.5 -5.5t58 -18t34.5 -34t17 -54.5t5 -78
v-328h-39l-3 80h-4q-15 -39 -46 -58t-68.5 -24.5t-72.5 -5.5zM249 32q34 0 65.5 3.5t55.5 15.5t37 38q13 28 18 56.5t5 64.5v37h-203q-47 0 -73 -7.5t-36 -30.5t-10 -69q0 -44 11.5 -67.5t42 -32t87.5 -8.5zM156 603v6l106 133h55l106 -133v-6h-34l-100 106l-99 -106h-34z
M229 781v5l106 134h56v-5l-127 -134h-35z" />
    <glyph glyph-name="uni1EA6" unicode="&#x1ea6;" horiz-adv-x="683" 
d="M37 0l278 688h53l278 -688h-51l-86 214h-336l-86 -214h-50zM190 258h302l-148 370h-5zM208 782v5l106 134h55l106 -134v-5h-34l-100 105l-99 -105h-34zM360 960l-127 133v5h56l106 -133v-5h-35z" />
    <glyph glyph-name="uni1EA7" unicode="&#x1ea7;" horiz-adv-x="573" 
d="M243 -8q-62 0 -102 11.5t-59 43t-19 92.5q0 56 13 88t46 45t93 13q11 0 35.5 -0.5t56 -1t63.5 -1t60 -1.5v42q0 54 -6.5 84.5t-24.5 46t-52 19.5t-88 4q-23 0 -53.5 -2t-59.5 -4.5t-48 -5.5v41q32 5 78.5 8.5t99.5 3.5q50 0 85.5 -5.5t58 -18t34.5 -34t17 -54.5t5 -78
v-328h-39l-3 80h-4q-15 -39 -46 -58t-68.5 -24.5t-72.5 -5.5zM249 32q34 0 65.5 3.5t55.5 15.5t37 38q13 28 18 56.5t5 64.5v37h-203q-47 0 -73 -7.5t-36 -30.5t-10 -69q0 -44 11.5 -67.5t42 -32t87.5 -8.5zM156 603v6l106 133h55l106 -133v-6h-34l-100 106l-99 -106h-34z
M305 781l-127 133v5h56l106 -133v-5h-35z" />
    <glyph glyph-name="uni1EA8" unicode="&#x1ea8;" horiz-adv-x="683" 
d="M37 0l278 688h53l278 -688h-51l-86 214h-336l-86 -214h-50zM190 258h302l-148 370h-5zM208 782v5l106 134h55l106 -134v-5h-34l-100 105l-99 -105h-34zM304 945v11q0 16 4 25t13 14.5t26 10.5l25 6q26 8 38.5 13.5t16.5 12.5t4 21q0 21 -8 29.5t-29.5 10.5t-61.5 2
q-12 0 -29 -0.5t-36.5 -1.5t-36.5 -3v30q24 3 56 4.5t55 1.5q45 0 73 -4.5t41 -19t13 -45.5q0 -19 -4 -32.5t-16.5 -22.5t-37.5 -16l-29 -8q-21 -5 -30.5 -9t-11.5 -10.5t-2 -19.5h-33z" />
    <glyph glyph-name="uni1EA9" unicode="&#x1ea9;" horiz-adv-x="573" 
d="M243 -8q-62 0 -102 11.5t-59 43t-19 92.5q0 56 13 88t46 45t93 13q11 0 35.5 -0.5t56 -1t63.5 -1t60 -1.5v42q0 54 -6.5 84.5t-24.5 46t-52 19.5t-88 4q-23 0 -53.5 -2t-59.5 -4.5t-48 -5.5v41q32 5 78.5 8.5t99.5 3.5q50 0 85.5 -5.5t58 -18t34.5 -34t17 -54.5t5 -78
v-328h-39l-3 80h-4q-15 -39 -46 -58t-68.5 -24.5t-72.5 -5.5zM249 32q34 0 65.5 3.5t55.5 15.5t37 38q13 28 18 56.5t5 64.5v37h-203q-47 0 -73 -7.5t-36 -30.5t-10 -69q0 -44 11.5 -67.5t42 -32t87.5 -8.5zM156 603v6l106 133h55l106 -133v-6h-34l-100 106l-99 -106h-34z
M252 767v11q0 16 4 25t13 14.5t26 10.5l25 6q26 8 38.5 13.5t16.5 12.5t4 21q0 21 -8 29.5t-29.5 10.5t-61.5 2q-12 0 -29 -0.5t-36.5 -1.5t-36.5 -3v30q24 3 56 4.5t55 1.5q45 0 73 -4.5t41 -19t13 -45.5q0 -19 -4 -32.5t-16.5 -22.5t-37.5 -16l-29 -8q-21 -5 -30.5 -9
t-11.5 -10.5t-2 -19.5h-33z" />
    <glyph glyph-name="uni1EAA" unicode="&#x1eaa;" horiz-adv-x="683" 
d="M37 0l278 688h53l278 -688h-51l-86 214h-336l-86 -214h-50zM190 258h302l-148 370h-5zM208 782v5l106 134h55l106 -134v-5h-34l-100 105l-99 -105h-34zM177 972q0 36 4.5 58t19 32t41.5 10q28 0 55 -8t55 -19q22 -8 43 -15t44 -7t28.5 13.5t5.5 46.5h32q0 -36 -4.5 -58
t-18.5 -32t-42 -10q-30 0 -55.5 9t-54.5 19q-21 7 -42.5 14.5t-44.5 7.5q-21 0 -27.5 -13.5t-6.5 -47.5h-32z" />
    <glyph glyph-name="uni1EAB" unicode="&#x1eab;" horiz-adv-x="573" 
d="M243 -8q-62 0 -102 11.5t-59 43t-19 92.5q0 56 13 88t46 45t93 13q11 0 35.5 -0.5t56 -1t63.5 -1t60 -1.5v42q0 54 -6.5 84.5t-24.5 46t-52 19.5t-88 4q-23 0 -53.5 -2t-59.5 -4.5t-48 -5.5v41q32 5 78.5 8.5t99.5 3.5q50 0 85.5 -5.5t58 -18t34.5 -34t17 -54.5t5 -78
v-328h-39l-3 80h-4q-15 -39 -46 -58t-68.5 -24.5t-72.5 -5.5zM249 32q34 0 65.5 3.5t55.5 15.5t37 38q13 28 18 56.5t5 64.5v37h-203q-47 0 -73 -7.5t-36 -30.5t-10 -69q0 -44 11.5 -67.5t42 -32t87.5 -8.5zM157 603v6l106 133h55l106 -133v-6h-34l-100 106l-99 -106h-34z
M126 794q0 36 4.5 58t18.5 32t42 10t55 -8t55 -19q21 -8 42 -15t45 -7q22 0 28 13.5t6 46.5h31q0 -36 -4.5 -58t-18.5 -32t-41 -10q-30 0 -55.5 9t-54.5 19q-22 7 -43 14.5t-44 7.5q-22 0 -28 -13.5t-6 -47.5h-32z" />
    <glyph glyph-name="uni1EAC" unicode="&#x1eac;" horiz-adv-x="683" 
d="M37 0l278 688h53l278 -688h-51l-86 214h-336l-86 -214h-50zM190 258h302l-148 370h-5zM317 -188v61h51v-61h-51zM208 782v5l106 134h55l106 -134v-5h-34l-100 105l-99 -105h-34z" />
    <glyph glyph-name="uni1EAD" unicode="&#x1ead;" horiz-adv-x="573" 
d="M243 -8q-62 0 -102 11.5t-59 43t-19 92.5q0 56 13 88t46 45t93 13q11 0 35.5 -0.5t56 -1t63.5 -1t60 -1.5v42q0 54 -6.5 84.5t-24.5 46t-52 19.5t-88 4q-23 0 -53.5 -2t-59.5 -4.5t-48 -5.5v41q32 5 78.5 8.5t99.5 3.5q50 0 85.5 -5.5t58 -18t34.5 -34t17 -54.5t5 -78
v-328h-39l-3 80h-4q-15 -39 -46 -58t-68.5 -24.5t-72.5 -5.5zM249 32q34 0 65.5 3.5t55.5 15.5t37 38q13 28 18 56.5t5 64.5v37h-203q-47 0 -73 -7.5t-36 -30.5t-10 -69q0 -44 11.5 -67.5t42 -32t87.5 -8.5zM261 -188v61h51v-61h-51zM156 603v6l106 133h55l106 -133v-6h-34
l-100 106l-99 -106h-34z" />
    <glyph glyph-name="uni1EAE" unicode="&#x1eae;" horiz-adv-x="683" 
d="M37 0l278 688h53l278 -688h-51l-86 214h-336l-86 -214h-50zM190 258h302l-148 370h-5zM341 772q-48 0 -75 10.5t-38.5 30t-14 45t-2.5 56.5h36q0 -35 4 -59.5t24 -36.5t66 -12q47 0 66.5 12t24 36.5t4.5 59.5h36q0 -31 -2.5 -56.5t-14.5 -45t-39 -30t-75 -10.5zM303 956
v5l105 133h57v-5l-127 -133h-35z" />
    <glyph glyph-name="uni1EAF" unicode="&#x1eaf;" horiz-adv-x="573" 
d="M243 -8q-62 0 -102 11.5t-59 43t-19 92.5q0 56 13 88t46 45t93 13q11 0 35.5 -0.5t56 -1t63.5 -1t60 -1.5v42q0 54 -6.5 84.5t-24.5 46t-52 19.5t-88 4q-23 0 -53.5 -2t-59.5 -4.5t-48 -5.5v41q32 5 78.5 8.5t99.5 3.5q50 0 85.5 -5.5t58 -18t34.5 -34t17 -54.5t5 -78
v-328h-39l-3 80h-4q-15 -39 -46 -58t-68.5 -24.5t-72.5 -5.5zM249 32q34 0 65.5 3.5t55.5 15.5t37 38q13 28 18 56.5t5 64.5v37h-203q-47 0 -73 -7.5t-36 -30.5t-10 -69q0 -44 11.5 -67.5t42 -32t87.5 -8.5zM289 594q-48 0 -75 11t-38.5 30t-14 44.5t-2.5 56.5h36
q0 -35 4 -59.5t24 -36.5t66 -12q47 0 66.5 12t24 36.5t4.5 59.5h36q0 -31 -2.5 -56.5t-14.5 -44.5t-39 -30t-75 -11zM230 778v5l106 133h56v-5l-127 -133h-35z" />
    <glyph glyph-name="uni1EB0" unicode="&#x1eb0;" horiz-adv-x="683" 
d="M37 0l278 688h53l278 -688h-51l-86 214h-336l-86 -214h-50zM190 258h302l-148 370h-5zM341 772q-48 0 -75 11t-38.5 30t-14 44.5t-2.5 56.5h36q0 -35 4 -59.5t24 -36.5t66 -12q47 0 66.5 12t24 36.5t4.5 59.5h36q0 -31 -2.5 -56.5t-14.5 -44.5t-39 -30t-75 -11zM358 956
l-127 132v5h56l106 -132v-5h-35z" />
    <glyph glyph-name="uni1EB1" unicode="&#x1eb1;" horiz-adv-x="573" 
d="M243 -8q-62 0 -102 11.5t-59 43t-19 92.5q0 56 13 88t46 45t93 13q11 0 35.5 -0.5t56 -1t63.5 -1t60 -1.5v42q0 54 -6.5 84.5t-24.5 46t-52 19.5t-88 4q-23 0 -53.5 -2t-59.5 -4.5t-48 -5.5v41q32 5 78.5 8.5t99.5 3.5q50 0 85.5 -5.5t58 -18t34.5 -34t17 -54.5t5 -78
v-328h-39l-3 80h-4q-15 -39 -46 -58t-68.5 -24.5t-72.5 -5.5zM249 32q34 0 65.5 3.5t55.5 15.5t37 38q13 28 18 56.5t5 64.5v37h-203q-47 0 -73 -7.5t-36 -30.5t-10 -69q0 -44 11.5 -67.5t42 -32t87.5 -8.5zM289 594q-48 0 -75 11t-38.5 30t-14 44.5t-2.5 56.5h36
q0 -35 4 -59.5t23.5 -36.5t66.5 -12q46 0 66 12t24.5 36.5t4.5 59.5h36q0 -31 -2.5 -56.5t-14.5 -44.5t-39 -30t-75 -11zM306 778l-127 132v5h56l105 -132v-5h-34z" />
    <glyph glyph-name="uni1EB2" unicode="&#x1eb2;" horiz-adv-x="683" 
d="M37 0l278 688h53l278 -688h-51l-86 214h-336l-86 -214h-50zM190 258h302l-148 370h-5zM341 772q-48 0 -75 11t-38.5 30t-14 44.5t-2.5 56.5h36q0 -35 4 -59.5t24 -36.5t66 -12q47 0 66.5 12t24 36.5t4.5 59.5h36q0 -31 -2.5 -56.5t-14.5 -44.5t-39 -30t-75 -11zM305 942
v10q0 16 4 25t13 15t25 10l25 7q26 8 39 13t16.5 12.5t3.5 20.5q0 22 -8 30t-29 10t-61 2q-12 0 -29.5 -0.5t-36.5 -1.5t-36 -3v30q24 3 55.5 4.5t55.5 1.5q45 0 72.5 -4.5t41 -19t13.5 -44.5q0 -20 -4 -33.5t-16.5 -22t-38.5 -15.5l-28 -8q-22 -6 -31 -10t-11 -10.5
t-2 -18.5h-33z" />
    <glyph glyph-name="uni1EB3" unicode="&#x1eb3;" horiz-adv-x="573" 
d="M243 -8q-62 0 -102 11.5t-59 43t-19 92.5q0 56 13 88t46 45t93 13q11 0 35.5 -0.5t56 -1t63.5 -1t60 -1.5v42q0 54 -6.5 84.5t-24.5 46t-52 19.5t-88 4q-23 0 -53.5 -2t-59.5 -4.5t-48 -5.5v41q32 5 78.5 8.5t99.5 3.5q50 0 85.5 -5.5t58 -18t34.5 -34t17 -54.5t5 -78
v-328h-39l-3 80h-4q-15 -39 -46 -58t-68.5 -24.5t-72.5 -5.5zM249 32q34 0 65.5 3.5t55.5 15.5t37 38q13 28 18 56.5t5 64.5v37h-203q-47 0 -73 -7.5t-36 -30.5t-10 -69q0 -44 11.5 -67.5t42 -32t87.5 -8.5zM289 594q-48 0 -75 11t-38.5 30t-14 44.5t-2.5 56.5h36
q0 -35 4 -59.5t24 -36.5t66 -12q47 0 66.5 12t24 36.5t4.5 59.5h36q0 -31 -2.5 -56.5t-14.5 -44.5t-39 -30t-75 -11zM253 764v10q0 16 4 25t13 15t25 10l25 7q26 8 39 13t16.5 12.5t3.5 20.5q0 22 -8 30t-29 10t-61 2q-12 0 -29.5 -0.5t-36.5 -1.5t-36 -3v30q24 3 55.5 4.5
t55.5 1.5q45 0 72.5 -4.5t41 -19t13.5 -44.5q0 -20 -4 -33.5t-16.5 -22t-38.5 -15.5l-28 -8q-22 -6 -31 -10t-11 -10.5t-2 -18.5h-33z" />
    <glyph glyph-name="uni1EB4" unicode="&#x1eb4;" horiz-adv-x="683" 
d="M37 0l278 688h53l278 -688h-51l-86 214h-336l-86 -214h-50zM190 258h302l-148 370h-5zM341 772q-48 0 -75 10.5t-38.5 30t-14 45t-2.5 56.5h36q0 -35 4 -59.5t24 -36.5t66 -12q47 0 66.5 12t24 36.5t4.5 59.5h36q0 -31 -2.5 -56.5t-14.5 -45t-39 -30t-75 -10.5zM178 969
q0 36 4.5 58t18.5 31.5t42 9.5t55 -8t55 -19q21 -7 42.5 -14.5t44.5 -7.5q22 0 28 13.5t6 46.5h32q0 -36 -4.5 -58t-18.5 -31.5t-42 -9.5q-30 0 -55.5 8.5t-54.5 18.5q-22 8 -43 15t-44 7q-22 0 -28 -13.5t-6 -46.5h-32z" />
    <glyph glyph-name="uni1EB5" unicode="&#x1eb5;" horiz-adv-x="573" 
d="M243 -8q-62 0 -102 11.5t-59 43t-19 92.5q0 56 13 88t46 45t93 13q11 0 35.5 -0.5t56 -1t63.5 -1t60 -1.5v42q0 54 -6.5 84.5t-24.5 46t-52 19.5t-88 4q-23 0 -53.5 -2t-59.5 -4.5t-48 -5.5v41q32 5 78.5 8.5t99.5 3.5q50 0 85.5 -5.5t58 -18t34.5 -34t17 -54.5t5 -78
v-328h-39l-3 80h-4q-15 -39 -46 -58t-68.5 -24.5t-72.5 -5.5zM249 32q34 0 65.5 3.5t55.5 15.5t37 38q13 28 18 56.5t5 64.5v37h-203q-47 0 -73 -7.5t-36 -30.5t-10 -69q0 -44 11.5 -67.5t42 -32t87.5 -8.5zM289 594q-48 0 -75 11t-38 30t-14 44.5t-3 56.5h36
q0 -35 4.5 -59.5t24 -36.5t65.5 -12q47 0 66.5 12t24 36.5t4.5 59.5h37q0 -31 -3 -56.5t-15 -44.5t-39 -30t-75 -11zM126 791q0 36 4.5 58t18.5 31.5t42 9.5t55 -8t55 -19q21 -7 42 -14.5t45 -7.5q22 0 28 13.5t6 46.5h31q0 -36 -4.5 -58t-18.5 -31.5t-41 -9.5
q-30 0 -55.5 8.5t-54.5 18.5q-22 8 -43 15t-44 7q-22 0 -28 -13.5t-6 -46.5h-32z" />
    <glyph glyph-name="uni1EB6" unicode="&#x1eb6;" horiz-adv-x="683" 
d="M37 0l278 688h53l278 -688h-51l-86 214h-336l-86 -214h-50zM190 258h302l-148 370h-5zM317 -188v61h51v-61h-51zM341 772q-48 0 -75 10.5t-38.5 30t-14 45t-2.5 56.5h36q0 -35 4 -59.5t24 -36.5t66 -12q47 0 66.5 12t24 36.5t4.5 59.5h36q0 -31 -2.5 -56.5t-14.5 -45
t-39 -30t-75 -10.5z" />
    <glyph glyph-name="uni1EB7" unicode="&#x1eb7;" horiz-adv-x="573" 
d="M243 -8q-62 0 -102 11.5t-59 43t-19 92.5q0 56 13 88t46 45t93 13q11 0 35.5 -0.5t56 -1t63.5 -1t60 -1.5v42q0 54 -6.5 84.5t-24.5 46t-52 19.5t-88 4q-23 0 -53.5 -2t-59.5 -4.5t-48 -5.5v41q32 5 78.5 8.5t99.5 3.5q50 0 85.5 -5.5t58 -18t34.5 -34t17 -54.5t5 -78
v-328h-39l-3 80h-4q-15 -39 -46 -58t-68.5 -24.5t-72.5 -5.5zM249 32q34 0 65.5 3.5t55.5 15.5t37 38q13 28 18 56.5t5 64.5v37h-203q-47 0 -73 -7.5t-36 -30.5t-10 -69q0 -44 11.5 -67.5t42 -32t87.5 -8.5zM261 -188v61h51v-61h-51zM289 594q-48 0 -75 11t-38.5 30
t-14 44.5t-2.5 56.5h36q0 -35 4 -59.5t24 -36.5t66 -12q47 0 66.5 12t24 36.5t4.5 59.5h36q0 -31 -2.5 -56.5t-14.5 -44.5t-39 -30t-75 -11z" />
    <glyph glyph-name="uni1EB8" unicode="&#x1eb8;" horiz-adv-x="599" 
d="M111 0v688h431v-44h-383v-274h336v-44h-336v-282h383v-44h-431zM307 -188v61h51v-61h-51z" />
    <glyph glyph-name="uni1EB9" unicode="&#x1eb9;" horiz-adv-x="561" 
d="M292 -8q-58 0 -97.5 7.5t-63.5 25t-37 47.5t-17 75t-4 107q0 74 5 124.5t25.5 81t65.5 44.5t124 14q56 0 92 -8.5t57 -26t31 -48.5t13 -75t3 -104v-17h-370q0 -62 5.5 -102.5t23 -63.5t54 -31.5t98.5 -8.5q26 0 56.5 1.5t60 4.5t52.5 7v-41q-20 -4 -49.5 -7t-62.5 -4.5
t-65 -1.5zM443 258v38q0 61 -7 97t-24 54.5t-47 24t-75 5.5q-58 0 -92 -7t-51.5 -28t-22.5 -60t-5 -104h344zM255 -188v61h51v-61h-51z" />
    <glyph glyph-name="uni1EBA" unicode="&#x1eba;" horiz-adv-x="599" 
d="M111 0v688h431v-44h-383v-274h336v-44h-336v-282h383v-44h-431zM295 767v11q0 16 4 25t13 14.5t26 10.5l25 6q26 8 38.5 13.5t16.5 12.5t4 21q0 21 -8 29.5t-29.5 10.5t-61.5 2q-12 0 -29 -0.5t-36 -1.5t-37 -3v30q24 3 56 4.5t56 1.5q44 0 72 -4.5t41 -19t13 -45.5
q0 -19 -4 -32.5t-16 -22.5t-38 -16l-29 -8q-21 -5 -30.5 -9t-11.5 -10.5t-2 -19.5h-33z" />
    <glyph glyph-name="uni1EBB" unicode="&#x1ebb;" horiz-adv-x="561" 
d="M292 -8q-58 0 -97.5 7.5t-63.5 25t-37 47.5t-17 75t-4 107q0 74 5 124.5t25.5 81t65.5 44.5t124 14q56 0 92 -8.5t57 -26t31 -48.5t13 -75t3 -104v-17h-370q0 -62 5.5 -102.5t23 -63.5t54 -31.5t98.5 -8.5q26 0 56.5 1.5t60 4.5t52.5 7v-41q-20 -4 -49.5 -7t-62.5 -4.5
t-65 -1.5zM443 258v38q0 61 -7 97t-24 54.5t-47 24t-75 5.5q-58 0 -92 -7t-51.5 -28t-22.5 -60t-5 -104h344zM248 589v11q0 16 4 25t13 14.5t26 10.5l25 6q26 8 38.5 13.5t16.5 12.5t4 21q0 21 -8 29.5t-29.5 10.5t-61.5 2q-12 0 -29 -0.5t-36 -1.5t-37 -3v30q24 3 56 4.5
t56 1.5q44 0 72 -4.5t41 -19t13 -45.5q0 -19 -4 -32.5t-16 -22.5t-38 -16l-29 -8q-21 -5 -30.5 -9t-11.5 -10.5t-2 -19.5h-33z" />
    <glyph glyph-name="uni1EBC" unicode="&#x1ebc;" horiz-adv-x="599" 
d="M111 0v688h431v-44h-383v-274h336v-44h-336v-282h383v-44h-431zM168 794q0 36 4.5 58t18.5 32t42 10t55 -8t55 -19q21 -8 42 -15t45 -7q22 0 28 13.5t6 46.5h31q0 -36 -4.5 -58t-18.5 -32t-41 -10q-30 0 -55.5 9t-54.5 19q-22 7 -43 14.5t-44 7.5q-22 0 -28 -13.5
t-6 -47.5h-32z" />
    <glyph glyph-name="uni1EBD" unicode="&#x1ebd;" horiz-adv-x="561" 
d="M292 -8q-58 0 -97.5 7.5t-63.5 25t-37 47.5t-17 75t-4 107q0 74 5 124.5t25.5 81t65.5 44.5t124 14q56 0 92 -8.5t57 -26t31 -48.5t13 -75t3 -104v-17h-370q0 -62 5.5 -102.5t23 -63.5t54 -31.5t98.5 -8.5q26 0 56.5 1.5t60 4.5t52.5 7v-41q-20 -4 -49.5 -7t-62.5 -4.5
t-65 -1.5zM443 258v38q0 61 -7 97t-24 54.5t-47 24t-75 5.5q-58 0 -92 -7t-51.5 -28t-22.5 -60t-5 -104h344zM122 616q0 36 4.5 58t18.5 32t42 10t55 -8t55 -19q21 -8 42 -15t45 -7q22 0 28 13.5t6 46.5h31q0 -36 -4.5 -58t-18.5 -32t-41 -10q-30 0 -55.5 9t-54.5 19
q-22 7 -43 14.5t-44 7.5q-22 0 -28 -13.5t-6 -47.5h-32z" />
    <glyph glyph-name="uni1EBE" unicode="&#x1ebe;" horiz-adv-x="599" 
d="M111 0v688h431v-44h-383v-274h336v-44h-336v-282h383v-44h-431zM199 782v5l106 134h55l106 -134v-5h-34l-100 105l-99 -105h-34zM293 959v5l106 134h56v-5l-127 -134h-35z" />
    <glyph glyph-name="uni1EBF" unicode="&#x1ebf;" horiz-adv-x="561" 
d="M292 -8q-58 0 -97.5 7.5t-63.5 25t-37 47.5t-17 75t-4 107q0 74 5 124.5t25.5 81t65.5 44.5t124 14q56 0 92 -8.5t57 -26t31 -48.5t13 -75t3 -104v-17h-370q0 -62 5.5 -102.5t23 -63.5t54 -31.5t98.5 -8.5q26 0 56.5 1.5t60 4.5t52.5 7v-41q-20 -4 -49.5 -7t-62.5 -4.5
t-65 -1.5zM443 258v38q0 61 -7 97t-24 54.5t-47 24t-75 5.5q-58 0 -92 -7t-51.5 -28t-22.5 -60t-5 -104h344zM152 603v6l106 133h55l106 -133v-6h-34l-100 106l-99 -106h-34zM225 781v5l106 134h56v-5l-127 -134h-35z" />
    <glyph glyph-name="uni1EC0" unicode="&#x1ec0;" horiz-adv-x="599" 
d="M111 0v688h431v-44h-383v-274h336v-44h-336v-282h383v-44h-431zM199 782v5l106 134h55l106 -134v-5h-34l-100 105l-99 -105h-34zM351 960l-127 133v5h56l106 -133v-5h-35z" />
    <glyph glyph-name="uni1EC1" unicode="&#x1ec1;" horiz-adv-x="561" 
d="M292 -8q-58 0 -97.5 7.5t-63.5 25t-37 47.5t-17 75t-4 107q0 74 5 124.5t25.5 81t65.5 44.5t124 14q56 0 92 -8.5t57 -26t31 -48.5t13 -75t3 -104v-17h-370q0 -62 5.5 -102.5t23 -63.5t54 -31.5t98.5 -8.5q26 0 56.5 1.5t60 4.5t52.5 7v-41q-20 -4 -49.5 -7t-62.5 -4.5
t-65 -1.5zM443 258v38q0 61 -7 97t-24 54.5t-47 24t-75 5.5q-58 0 -92 -7t-51.5 -28t-22.5 -60t-5 -104h344zM152 603v6l106 133h55l106 -133v-6h-34l-100 106l-99 -106h-34zM301 781l-127 133v5h56l106 -133v-5h-35z" />
    <glyph glyph-name="uni1EC2" unicode="&#x1ec2;" horiz-adv-x="599" 
d="M111 0v688h431v-44h-383v-274h336v-44h-336v-282h383v-44h-431zM199 782v5l106 134h55l106 -134v-5h-34l-100 105l-99 -105h-34zM295 945v11q0 16 4 25t13 14.5t26 10.5l25 6q26 8 38.5 13.5t16.5 12.5t4 21q0 21 -8 29.5t-29.5 10.5t-61.5 2q-12 0 -29 -0.5t-36.5 -1.5
t-36.5 -3v30q24 3 56 4.5t55 1.5q45 0 73 -4.5t41 -19t13 -45.5q0 -19 -4 -32.5t-16.5 -22.5t-37.5 -16l-29 -8q-21 -5 -30.5 -9t-11.5 -10.5t-2 -19.5h-33z" />
    <glyph glyph-name="uni1EC3" unicode="&#x1ec3;" horiz-adv-x="561" 
d="M292 -8q-58 0 -97.5 7.5t-63.5 25t-37 47.5t-17 75t-4 107q0 74 5 124.5t25.5 81t65.5 44.5t124 14q56 0 92 -8.5t57 -26t31 -48.5t13 -75t3 -104v-17h-370q0 -62 5.5 -102.5t23 -63.5t54 -31.5t98.5 -8.5q26 0 56.5 1.5t60 4.5t52.5 7v-41q-20 -4 -49.5 -7t-62.5 -4.5
t-65 -1.5zM443 258v38q0 61 -7 97t-24 54.5t-47 24t-75 5.5q-58 0 -92 -7t-51.5 -28t-22.5 -60t-5 -104h344zM152 603v6l106 133h55l106 -133v-6h-34l-100 106l-99 -106h-34zM248 767v11q0 16 4 25t13 14.5t26 10.5l25 6q26 8 38.5 13.5t16.5 12.5t4 21q0 21 -8 29.5
t-29.5 10.5t-61.5 2q-12 0 -29 -0.5t-36.5 -1.5t-36.5 -3v30q24 3 56 4.5t55 1.5q45 0 73 -4.5t41 -19t13 -45.5q0 -19 -4 -32.5t-16.5 -22.5t-37.5 -16l-29 -8q-21 -5 -30.5 -9t-11.5 -10.5t-2 -19.5h-33z" />
    <glyph glyph-name="uni1EC4" unicode="&#x1ec4;" horiz-adv-x="599" 
d="M111 0v688h431v-44h-383v-274h336v-44h-336v-282h383v-44h-431zM199 782v5l106 134h55l106 -134v-5h-34l-100 105l-99 -105h-34zM168 972q0 36 4.5 58t19 32t41.5 10q28 0 55 -8t55 -19q22 -8 43 -15t44 -7t28.5 13.5t5.5 46.5h32q0 -36 -4.5 -58t-18.5 -32t-42 -10
q-30 0 -55.5 9t-54.5 19q-21 7 -42.5 14.5t-44.5 7.5q-21 0 -27.5 -13.5t-6.5 -47.5h-32z" />
    <glyph glyph-name="uni1EC5" unicode="&#x1ec5;" horiz-adv-x="561" 
d="M292 -8q-58 0 -97.5 7.5t-63.5 25t-37 47.5t-17 75t-4 107q0 74 5 124.5t25.5 81t65.5 44.5t124 14q56 0 92 -8.5t57 -26t31 -48.5t13 -75t3 -104v-17h-370q0 -62 5.5 -102.5t23 -63.5t54 -31.5t98.5 -8.5q26 0 56.5 1.5t60 4.5t52.5 7v-41q-20 -4 -49.5 -7t-62.5 -4.5
t-65 -1.5zM443 258v38q0 61 -7 97t-24 54.5t-47 24t-75 5.5q-58 0 -92 -7t-51.5 -28t-22.5 -60t-5 -104h344zM153 603v6l106 133h55l106 -133v-6h-34l-100 106l-99 -106h-34zM122 794q0 36 4.5 58t18.5 32t42 10t55 -8t55 -19q21 -8 42 -15t45 -7q22 0 28 13.5t6 46.5h31
q0 -36 -4.5 -58t-18.5 -32t-41 -10q-30 0 -55.5 9t-54.5 19q-22 7 -43 14.5t-44 7.5q-22 0 -28 -13.5t-6 -47.5h-32z" />
    <glyph glyph-name="uni1EC6" unicode="&#x1ec6;" horiz-adv-x="599" 
d="M111 0v688h431v-44h-383v-274h336v-44h-336v-282h383v-44h-431zM307 -188v61h51v-61h-51zM199 782v5l106 134h55l106 -134v-5h-34l-100 105l-99 -105h-34z" />
    <glyph glyph-name="uni1EC7" unicode="&#x1ec7;" horiz-adv-x="561" 
d="M292 -8q-58 0 -97.5 7.5t-63.5 25t-37 47.5t-17 75t-4 107q0 74 5 124.5t25.5 81t65.5 44.5t124 14q56 0 92 -8.5t57 -26t31 -48.5t13 -75t3 -104v-17h-370q0 -62 5.5 -102.5t23 -63.5t54 -31.5t98.5 -8.5q26 0 56.5 1.5t60 4.5t52.5 7v-41q-20 -4 -49.5 -7t-62.5 -4.5
t-65 -1.5zM443 258v38q0 61 -7 97t-24 54.5t-47 24t-75 5.5q-58 0 -92 -7t-51.5 -28t-22.5 -60t-5 -104h344zM255 -188v61h51v-61h-51zM152 603v6l106 133h55l106 -133v-6h-34l-100 106l-99 -106h-34z" />
    <glyph glyph-name="uni1EC8" unicode="&#x1ec8;" horiz-adv-x="271" 
d="M111 0v688h48v-688h-48zM98 767v11q0 16 4 25t13 14.5t26 10.5l25 6q26 8 38.5 13.5t16.5 12.5t4 21q0 21 -8 29.5t-29.5 10.5t-61.5 2q-12 0 -29 -0.5t-36 -1.5t-37 -3v30q24 3 56 4.5t56 1.5q44 0 72 -4.5t41 -19t13 -45.5q0 -19 -4 -32.5t-16 -22.5t-38 -16l-29 -8
q-21 -5 -30.5 -9t-11.5 -10.5t-2 -19.5h-33z" />
    <glyph glyph-name="uni1EC9" unicode="&#x1ec9;" horiz-adv-x="240" 
d="M97 0v510h46v-510h-46zM83 589v11q0 16 4 25t13 14.5t26 10.5l25 6q26 8 38.5 13.5t16.5 12.5t4 21q0 21 -8 29.5t-29.5 10.5t-61.5 2q-12 0 -29 -0.5t-36 -1.5t-37 -3v30q24 3 56 4.5t56 1.5q44 0 72 -4.5t41 -19t13 -45.5q0 -19 -4 -32.5t-16 -22.5t-38 -16l-29 -8
q-21 -5 -30.5 -9t-11.5 -10.5t-2 -19.5h-33z" />
    <glyph glyph-name="uni1ECA" unicode="&#x1eca;" horiz-adv-x="271" 
d="M111 0v688h48v-688h-48zM110 -188v61h51v-61h-51z" />
    <glyph glyph-name="uni1ECB" unicode="&#x1ecb;" horiz-adv-x="240" 
d="M93 675v68h54v-68h-54zM97 0v510h46v-510h-46zM95 -188v61h51v-61h-51z" />
    <glyph glyph-name="uni1ECC" unicode="&#x1ecc;" horiz-adv-x="724" 
d="M362 -8q-78 0 -129 7.5t-80.5 28t-43.5 59.5t-18 101.5t-4 155.5t4 155.5t18 101.5t43.5 59.5t80.5 28t129 7.5t129 -7.5t80.5 -28t43.5 -59.5t18 -101.5t4 -155.5t-4 -155.5t-18 -101.5t-43.5 -59.5t-80.5 -28t-129 -7.5zM362 36q62 0 103.5 3.5t66.5 18t37.5 47.5
t16 90.5t3.5 148.5t-3.5 148.5t-16 90.5t-37.5 47.5t-66.5 18t-103.5 3.5q-63 0 -104 -3.5t-66 -18t-37.5 -47.5t-16 -90.5t-3.5 -148.5t3.5 -148.5t16 -90.5t37.5 -47.5t66 -18t104 -3.5zM337 -188v61h51v-61h-51z" />
    <glyph glyph-name="uni1ECD" unicode="&#x1ecd;" horiz-adv-x="579" 
d="M290 -8q-62 0 -102 6.5t-63.5 23.5t-34.5 47t-14 75.5t-3 109.5q0 65 3 110.5t14 75.5t34.5 47t63.5 24t102 7q61 0 101 -7t63.5 -24t35 -47t14.5 -75.5t3 -110.5q0 -64 -3 -109.5t-14.5 -75.5t-35 -47t-63.5 -23.5t-101 -6.5zM290 33q64 0 99 8.5t50 31.5t18 67t3 114
q0 71 -3 115t-18 67.5t-50 32t-99 8.5t-99.5 -8.5t-50.5 -32t-18 -67.5t-3 -115q0 -70 3 -114t18 -67t50.5 -31.5t99.5 -8.5zM264 -188v61h51v-61h-51z" />
    <glyph glyph-name="uni1ECE" unicode="&#x1ece;" horiz-adv-x="724" 
d="M362 -8q-78 0 -129 7.5t-80.5 28t-43.5 59.5t-18 101.5t-4 155.5t4 155.5t18 101.5t43.5 59.5t80.5 28t129 7.5t129 -7.5t80.5 -28t43.5 -59.5t18 -101.5t4 -155.5t-4 -155.5t-18 -101.5t-43.5 -59.5t-80.5 -28t-129 -7.5zM362 36q62 0 103.5 3.5t66.5 18t37.5 47.5
t16 90.5t3.5 148.5t-3.5 148.5t-16 90.5t-37.5 47.5t-66.5 18t-103.5 3.5q-63 0 -104 -3.5t-66 -18t-37.5 -47.5t-16 -90.5t-3.5 -148.5t3.5 -148.5t16 -90.5t37.5 -47.5t66 -18t104 -3.5zM324 767v11q0 16 4 25t13 14.5t26 10.5l25 6q26 8 38.5 13.5t16.5 12.5t4 21
q0 21 -8 29.5t-29.5 10.5t-61.5 2q-12 0 -29 -0.5t-36 -1.5t-37 -3v30q24 3 56 4.5t56 1.5q44 0 72 -4.5t41 -19t13 -45.5q0 -19 -4 -32.5t-16 -22.5t-38 -16l-29 -8q-21 -5 -30.5 -9t-11.5 -10.5t-2 -19.5h-33z" />
    <glyph glyph-name="uni1ECF" unicode="&#x1ecf;" horiz-adv-x="579" 
d="M290 -8q-62 0 -102 6.5t-63.5 23.5t-34.5 47t-14 75.5t-3 109.5q0 65 3 110.5t14 75.5t34.5 47t63.5 24t102 7q61 0 101 -7t63.5 -24t35 -47t14.5 -75.5t3 -110.5q0 -64 -3 -109.5t-14.5 -75.5t-35 -47t-63.5 -23.5t-101 -6.5zM290 33q64 0 99 8.5t50 31.5t18 67t3 114
q0 71 -3 115t-18 67.5t-50 32t-99 8.5t-99.5 -8.5t-50.5 -32t-18 -67.5t-3 -115q0 -70 3 -114t18 -67t50.5 -31.5t99.5 -8.5zM252 589v11q0 16 4 25t13 14.5t26 10.5l25 6q26 8 38.5 13.5t16.5 12.5t4 21q0 21 -8 29.5t-29.5 10.5t-61.5 2q-12 0 -29 -0.5t-36 -1.5t-37 -3
v30q24 3 56 4.5t56 1.5q44 0 72 -4.5t41 -19t13 -45.5q0 -19 -4 -32.5t-16 -22.5t-38 -16l-29 -8q-21 -5 -30.5 -9t-11.5 -10.5t-2 -19.5h-33z" />
    <glyph glyph-name="uni1ED0" unicode="&#x1ed0;" horiz-adv-x="724" 
d="M362 -8q-78 0 -129 7.5t-80.5 28t-43.5 59.5t-18 101.5t-4 155.5t4 155.5t18 101.5t43.5 59.5t80.5 28t129 7.5t129 -7.5t80.5 -28t43.5 -59.5t18 -101.5t4 -155.5t-4 -155.5t-18 -101.5t-43.5 -59.5t-80.5 -28t-129 -7.5zM362 36q62 0 103.5 3.5t66.5 18t37.5 47.5
t16 90.5t3.5 148.5t-3.5 148.5t-16 90.5t-37.5 47.5t-66.5 18t-103.5 3.5q-63 0 -104 -3.5t-66 -18t-37.5 -47.5t-16 -90.5t-3.5 -148.5t3.5 -148.5t16 -90.5t37.5 -47.5t66 -18t104 -3.5zM228 782v5l106 134h55l106 -134v-5h-34l-100 105l-99 -105h-34zM322 959v5l106 134
h56v-5l-127 -134h-35z" />
    <glyph glyph-name="uni1ED1" unicode="&#x1ed1;" horiz-adv-x="579" 
d="M290 -8q-62 0 -102 6.5t-63.5 23.5t-34.5 47t-14 75.5t-3 109.5q0 65 3 110.5t14 75.5t34.5 47t63.5 24t102 7q61 0 101 -7t63.5 -24t35 -47t14.5 -75.5t3 -110.5q0 -64 -3 -109.5t-14.5 -75.5t-35 -47t-63.5 -23.5t-101 -6.5zM290 33q64 0 99 8.5t50 31.5t18 67t3 114
q0 71 -3 115t-18 67.5t-50 32t-99 8.5t-99.5 -8.5t-50.5 -32t-18 -67.5t-3 -115q0 -70 3 -114t18 -67t50.5 -31.5t99.5 -8.5zM156 603v6l106 133h55l106 -133v-6h-34l-100 106l-99 -106h-34zM229 781v5l106 134h56v-5l-127 -134h-35z" />
    <glyph glyph-name="uni1ED2" unicode="&#x1ed2;" horiz-adv-x="724" 
d="M362 -8q-78 0 -129 7.5t-80.5 28t-43.5 59.5t-18 101.5t-4 155.5t4 155.5t18 101.5t43.5 59.5t80.5 28t129 7.5t129 -7.5t80.5 -28t43.5 -59.5t18 -101.5t4 -155.5t-4 -155.5t-18 -101.5t-43.5 -59.5t-80.5 -28t-129 -7.5zM362 36q62 0 103.5 3.5t66.5 18t37.5 47.5
t16 90.5t3.5 148.5t-3.5 148.5t-16 90.5t-37.5 47.5t-66.5 18t-103.5 3.5q-63 0 -104 -3.5t-66 -18t-37.5 -47.5t-16 -90.5t-3.5 -148.5t3.5 -148.5t16 -90.5t37.5 -47.5t66 -18t104 -3.5zM228 782v5l106 134h55l106 -134v-5h-34l-100 105l-99 -105h-34zM380 960l-127 133v5
h56l106 -133v-5h-35z" />
    <glyph glyph-name="uni1ED3" unicode="&#x1ed3;" horiz-adv-x="579" 
d="M290 -8q-62 0 -102 6.5t-63.5 23.5t-34.5 47t-14 75.5t-3 109.5q0 65 3 110.5t14 75.5t34.5 47t63.5 24t102 7q61 0 101 -7t63.5 -24t35 -47t14.5 -75.5t3 -110.5q0 -64 -3 -109.5t-14.5 -75.5t-35 -47t-63.5 -23.5t-101 -6.5zM290 33q64 0 99 8.5t50 31.5t18 67t3 114
q0 71 -3 115t-18 67.5t-50 32t-99 8.5t-99.5 -8.5t-50.5 -32t-18 -67.5t-3 -115q0 -70 3 -114t18 -67t50.5 -31.5t99.5 -8.5zM156 603v6l106 133h55l106 -133v-6h-34l-100 106l-99 -106h-34zM305 781l-127 133v5h56l106 -133v-5h-35z" />
    <glyph glyph-name="uni1ED4" unicode="&#x1ed4;" horiz-adv-x="724" 
d="M362 -8q-78 0 -129 7.5t-80.5 28t-43.5 59.5t-18 101.5t-4 155.5t4 155.5t18 101.5t43.5 59.5t80.5 28t129 7.5t129 -7.5t80.5 -28t43.5 -59.5t18 -101.5t4 -155.5t-4 -155.5t-18 -101.5t-43.5 -59.5t-80.5 -28t-129 -7.5zM362 36q62 0 103.5 3.5t66.5 18t37.5 47.5
t16 90.5t3.5 148.5t-3.5 148.5t-16 90.5t-37.5 47.5t-66.5 18t-103.5 3.5q-63 0 -104 -3.5t-66 -18t-37.5 -47.5t-16 -90.5t-3.5 -148.5t3.5 -148.5t16 -90.5t37.5 -47.5t66 -18t104 -3.5zM228 782v5l106 134h55l106 -134v-5h-34l-100 105l-99 -105h-34zM324 945v11
q0 16 4 25t13 14.5t26 10.5l25 6q26 8 38.5 13.5t16.5 12.5t4 21q0 21 -8 29.5t-29.5 10.5t-61.5 2q-12 0 -29 -0.5t-36.5 -1.5t-36.5 -3v30q24 3 56 4.5t55 1.5q45 0 73 -4.5t41 -19t13 -45.5q0 -19 -4 -32.5t-16.5 -22.5t-37.5 -16l-29 -8q-21 -5 -30.5 -9t-11.5 -10.5
t-2 -19.5h-33z" />
    <glyph glyph-name="uni1ED5" unicode="&#x1ed5;" horiz-adv-x="579" 
d="M290 -8q-62 0 -102 6.5t-63.5 23.5t-34.5 47t-14 75.5t-3 109.5q0 65 3 110.5t14 75.5t34.5 47t63.5 24t102 7q61 0 101 -7t63.5 -24t35 -47t14.5 -75.5t3 -110.5q0 -64 -3 -109.5t-14.5 -75.5t-35 -47t-63.5 -23.5t-101 -6.5zM290 33q64 0 99 8.5t50 31.5t18 67t3 114
q0 71 -3 115t-18 67.5t-50 32t-99 8.5t-99.5 -8.5t-50.5 -32t-18 -67.5t-3 -115q0 -70 3 -114t18 -67t50.5 -31.5t99.5 -8.5zM156 603v6l106 133h55l106 -133v-6h-34l-100 106l-99 -106h-34zM252 767v11q0 16 4 25t13 14.5t26 10.5l25 6q26 8 38.5 13.5t16.5 12.5t4 21
q0 21 -8 29.5t-29.5 10.5t-61.5 2q-12 0 -29 -0.5t-36.5 -1.5t-36.5 -3v30q24 3 56 4.5t55 1.5q45 0 73 -4.5t41 -19t13 -45.5q0 -19 -4 -32.5t-16.5 -22.5t-37.5 -16l-29 -8q-21 -5 -30.5 -9t-11.5 -10.5t-2 -19.5h-33z" />
    <glyph glyph-name="uni1ED6" unicode="&#x1ed6;" horiz-adv-x="724" 
d="M362 -8q-78 0 -129 7.5t-80.5 28t-43.5 59.5t-18 101.5t-4 155.5t4 155.5t18 101.5t43.5 59.5t80.5 28t129 7.5t129 -7.5t80.5 -28t43.5 -59.5t18 -101.5t4 -155.5t-4 -155.5t-18 -101.5t-43.5 -59.5t-80.5 -28t-129 -7.5zM362 36q62 0 103.5 3.5t66.5 18t37.5 47.5
t16 90.5t3.5 148.5t-3.5 148.5t-16 90.5t-37.5 47.5t-66.5 18t-103.5 3.5q-63 0 -104 -3.5t-66 -18t-37.5 -47.5t-16 -90.5t-3.5 -148.5t3.5 -148.5t16 -90.5t37.5 -47.5t66 -18t104 -3.5zM228 782v5l106 134h55l106 -134v-5h-34l-100 105l-99 -105h-34zM197 972
q0 36 4.5 58t19 32t41.5 10q28 0 55 -8t55 -19q22 -8 43 -15t44 -7t28.5 13.5t5.5 46.5h32q0 -36 -4.5 -58t-18.5 -32t-42 -10q-30 0 -55.5 9t-54.5 19q-21 7 -42.5 14.5t-44.5 7.5q-21 0 -27.5 -13.5t-6.5 -47.5h-32z" />
    <glyph glyph-name="uni1ED7" unicode="&#x1ed7;" horiz-adv-x="579" 
d="M290 -8q-62 0 -102 6.5t-63.5 23.5t-34.5 47t-14 75.5t-3 109.5q0 65 3 110.5t14 75.5t34.5 47t63.5 24t102 7q61 0 101 -7t63.5 -24t35 -47t14.5 -75.5t3 -110.5q0 -64 -3 -109.5t-14.5 -75.5t-35 -47t-63.5 -23.5t-101 -6.5zM290 33q64 0 99 8.5t50 31.5t18 67t3 114
q0 71 -3 115t-18 67.5t-50 32t-99 8.5t-99.5 -8.5t-50.5 -32t-18 -67.5t-3 -115q0 -70 3 -114t18 -67t50.5 -31.5t99.5 -8.5zM156 603v6l106 133h55l106 -133v-6h-34l-100 106l-99 -106h-34zM125 794q0 36 4.5 58t18.5 32t42 10t55 -8t55 -19q21 -8 42 -15t45 -7
q22 0 28 13.5t6 46.5h31q0 -36 -4.5 -58t-18.5 -32t-41 -10q-30 0 -55.5 9t-54.5 19q-22 7 -43 14.5t-44 7.5q-22 0 -28 -13.5t-6 -47.5h-32z" />
    <glyph glyph-name="uni1ED8" unicode="&#x1ed8;" horiz-adv-x="724" 
d="M362 -8q-78 0 -129 7.5t-80.5 28t-43.5 59.5t-18 101.5t-4 155.5t4 155.5t18 101.5t43.5 59.5t80.5 28t129 7.5t129 -7.5t80.5 -28t43.5 -59.5t18 -101.5t4 -155.5t-4 -155.5t-18 -101.5t-43.5 -59.5t-80.5 -28t-129 -7.5zM362 36q62 0 103.5 3.5t66.5 18t37.5 47.5
t16 90.5t3.5 148.5t-3.5 148.5t-16 90.5t-37.5 47.5t-66.5 18t-103.5 3.5q-63 0 -104 -3.5t-66 -18t-37.5 -47.5t-16 -90.5t-3.5 -148.5t3.5 -148.5t16 -90.5t37.5 -47.5t66 -18t104 -3.5zM337 -188v61h51v-61h-51zM228 782v5l106 134h55l106 -134v-5h-34l-100 105l-99 -105
h-34z" />
    <glyph glyph-name="uni1ED9" unicode="&#x1ed9;" horiz-adv-x="579" 
d="M290 -8q-62 0 -102 6.5t-63.5 23.5t-34.5 47t-14 75.5t-3 109.5q0 65 3 110.5t14 75.5t34.5 47t63.5 24t102 7q61 0 101 -7t63.5 -24t35 -47t14.5 -75.5t3 -110.5q0 -64 -3 -109.5t-14.5 -75.5t-35 -47t-63.5 -23.5t-101 -6.5zM290 33q64 0 99 8.5t50 31.5t18 67t3 114
q0 71 -3 115t-18 67.5t-50 32t-99 8.5t-99.5 -8.5t-50.5 -32t-18 -67.5t-3 -115q0 -70 3 -114t18 -67t50.5 -31.5t99.5 -8.5zM264 -188v61h51v-61h-51zM156 603v6l106 133h55l106 -133v-6h-34l-100 106l-99 -106h-34z" />
    <glyph glyph-name="uni1EDA" unicode="&#x1eda;" horiz-adv-x="724" 
d="M492 657v31h61q35 0 43 13t8 50v34h39v-27q0 -30 -3.5 -49.5t-13.5 -30.5t-28 -16t-45 -5h-61zM362 -8q-78 0 -129 7.5t-80.5 28t-43.5 59.5t-18 101.5t-4 155.5t4 155.5t18 101.5t43.5 59.5t80.5 28t129 7.5t129 -7.5t80.5 -28t43.5 -59.5t18 -101.5t4 -155.5t-4 -155.5
t-18 -101.5t-43.5 -59.5t-80.5 -28t-129 -7.5zM362 36q62 0 103.5 3.5t66.5 18t37.5 47.5t16 90.5t3.5 148.5t-3.5 148.5t-16 90.5t-37.5 47.5t-66.5 18t-103.5 3.5q-63 0 -104 -3.5t-66 -18t-37.5 -47.5t-16 -90.5t-3.5 -148.5t3.5 -148.5t16 -90.5t37.5 -47.5t66 -18
t104 -3.5zM323 781v5l106 134h56v-5l-127 -134h-35z" />
    <glyph glyph-name="uni1EDB" unicode="&#x1edb;" horiz-adv-x="579" 
d="M370 479v31h60q35 0 43.5 13t8.5 50v34h39v-27q0 -30 -3.5 -49.5t-13.5 -30.5t-28 -16t-46 -5h-60zM290 -8q-62 0 -102 6.5t-63.5 23.5t-34.5 47t-14 75.5t-3 109.5q0 65 3 110.5t14 75.5t34.5 47t63.5 24t102 7q61 0 101 -7t63.5 -24t35 -47t14.5 -75.5t3 -110.5
q0 -64 -3 -109.5t-14.5 -75.5t-35 -47t-63.5 -23.5t-101 -6.5zM290 33q64 0 99 8.5t50 31.5t18 67t3 114q0 71 -3 115t-18 67.5t-50 32t-99 8.5t-99.5 -8.5t-50.5 -32t-18 -67.5t-3 -115q0 -70 3 -114t18 -67t50.5 -31.5t99.5 -8.5zM230 603v5l106 134h56v-5l-127 -134h-35z
" />
    <glyph glyph-name="uni1EDC" unicode="&#x1edc;" horiz-adv-x="724" 
d="M492 657v31h61q35 0 43 13t8 50v34h39v-27q0 -30 -3.5 -49.5t-13.5 -30.5t-28 -16t-45 -5h-61zM362 -8q-78 0 -129 7.5t-80.5 28t-43.5 59.5t-18 101.5t-4 155.5t4 155.5t18 101.5t43.5 59.5t80.5 28t129 7.5t129 -7.5t80.5 -28t43.5 -59.5t18 -101.5t4 -155.5t-4 -155.5
t-18 -101.5t-43.5 -59.5t-80.5 -28t-129 -7.5zM362 36q62 0 103.5 3.5t66.5 18t37.5 47.5t16 90.5t3.5 148.5t-3.5 148.5t-16 90.5t-37.5 47.5t-66.5 18t-103.5 3.5q-63 0 -104 -3.5t-66 -18t-37.5 -47.5t-16 -90.5t-3.5 -148.5t3.5 -148.5t16 -90.5t37.5 -47.5t66 -18
t104 -3.5zM381 782l-127 133v5h56l106 -133v-5h-35z" />
    <glyph glyph-name="uni1EDD" unicode="&#x1edd;" horiz-adv-x="579" 
d="M370 479v31h60q35 0 43.5 13t8.5 50v34h39v-27q0 -30 -3.5 -49.5t-13.5 -30.5t-28 -16t-46 -5h-60zM290 -8q-62 0 -102 6.5t-63.5 23.5t-34.5 47t-14 75.5t-3 109.5q0 65 3 110.5t14 75.5t34.5 47t63.5 24t102 7q61 0 101 -7t63.5 -24t35 -47t14.5 -75.5t3 -110.5
q0 -64 -3 -109.5t-14.5 -75.5t-35 -47t-63.5 -23.5t-101 -6.5zM290 33q64 0 99 8.5t50 31.5t18 67t3 114q0 71 -3 115t-18 67.5t-50 32t-99 8.5t-99.5 -8.5t-50.5 -32t-18 -67.5t-3 -115q0 -70 3 -114t18 -67t50.5 -31.5t99.5 -8.5zM305 603l-127 133v5h56l106 -133v-5h-35z
" />
    <glyph glyph-name="uni1EDE" unicode="&#x1ede;" horiz-adv-x="724" 
d="M492 657v31h61q35 0 43 13t8 50v34h39v-27q0 -30 -3.5 -49.5t-13.5 -30.5t-28 -16t-45 -5h-61zM362 -8q-78 0 -129 7.5t-80.5 28t-43.5 59.5t-18 101.5t-4 155.5t4 155.5t18 101.5t43.5 59.5t80.5 28t129 7.5t129 -7.5t80.5 -28t43.5 -59.5t18 -101.5t4 -155.5t-4 -155.5
t-18 -101.5t-43.5 -59.5t-80.5 -28t-129 -7.5zM362 36q62 0 103.5 3.5t66.5 18t37.5 47.5t16 90.5t3.5 148.5t-3.5 148.5t-16 90.5t-37.5 47.5t-66.5 18t-103.5 3.5q-63 0 -104 -3.5t-66 -18t-37.5 -47.5t-16 -90.5t-3.5 -148.5t3.5 -148.5t16 -90.5t37.5 -47.5t66 -18
t104 -3.5zM324 767v11q0 16 4 25t13 14.5t26 10.5l25 6q26 8 38.5 13.5t16.5 12.5t4 21q0 21 -8 29.5t-29.5 10.5t-61.5 2q-12 0 -29 -0.5t-36 -1.5t-37 -3v30q24 3 56 4.5t56 1.5q44 0 72 -4.5t41 -19t13 -45.5q0 -19 -4 -32.5t-16 -22.5t-38 -16l-29 -8q-21 -5 -30.5 -9
t-11.5 -10.5t-2 -19.5h-33z" />
    <glyph glyph-name="uni1EDF" unicode="&#x1edf;" horiz-adv-x="579" 
d="M370 479v31h60q35 0 43.5 13t8.5 50v34h39v-27q0 -30 -3.5 -49.5t-13.5 -30.5t-28 -16t-46 -5h-60zM290 -8q-62 0 -102 6.5t-63.5 23.5t-34.5 47t-14 75.5t-3 109.5q0 65 3 110.5t14 75.5t34.5 47t63.5 24t102 7q61 0 101 -7t63.5 -24t35 -47t14.5 -75.5t3 -110.5
q0 -64 -3 -109.5t-14.5 -75.5t-35 -47t-63.5 -23.5t-101 -6.5zM290 33q64 0 99 8.5t50 31.5t18 67t3 114q0 71 -3 115t-18 67.5t-50 32t-99 8.5t-99.5 -8.5t-50.5 -32t-18 -67.5t-3 -115q0 -70 3 -114t18 -67t50.5 -31.5t99.5 -8.5zM252 589v11q0 16 4 25t13 14.5t26 10.5
l25 6q26 8 38.5 13.5t16.5 12.5t4 21q0 21 -8 29.5t-29.5 10.5t-61.5 2q-12 0 -29 -0.5t-36 -1.5t-37 -3v30q24 3 56 4.5t56 1.5q44 0 72 -4.5t41 -19t13 -45.5q0 -19 -4 -32.5t-16 -22.5t-38 -16l-29 -8q-21 -5 -30.5 -9t-11.5 -10.5t-2 -19.5h-33z" />
    <glyph glyph-name="uni1EE0" unicode="&#x1ee0;" horiz-adv-x="724" 
d="M492 657v31h61q35 0 43 13t8 50v34h39v-27q0 -30 -3.5 -49.5t-13.5 -30.5t-28 -16t-45 -5h-61zM362 -8q-78 0 -129 7.5t-80.5 28t-43.5 59.5t-18 101.5t-4 155.5t4 155.5t18 101.5t43.5 59.5t80.5 28t129 7.5t129 -7.5t80.5 -28t43.5 -59.5t18 -101.5t4 -155.5t-4 -155.5
t-18 -101.5t-43.5 -59.5t-80.5 -28t-129 -7.5zM362 36q62 0 103.5 3.5t66.5 18t37.5 47.5t16 90.5t3.5 148.5t-3.5 148.5t-16 90.5t-37.5 47.5t-66.5 18t-103.5 3.5q-63 0 -104 -3.5t-66 -18t-37.5 -47.5t-16 -90.5t-3.5 -148.5t3.5 -148.5t16 -90.5t37.5 -47.5t66 -18
t104 -3.5zM198 794q0 36 4.5 58t18.5 32t42 10t55 -8t55 -19q21 -8 42 -15t45 -7q22 0 28 13.5t6 46.5h31q0 -36 -4.5 -58t-18.5 -32t-41 -10q-30 0 -55.5 9t-54.5 19q-22 7 -43 14.5t-44 7.5q-22 0 -28 -13.5t-6 -47.5h-32z" />
    <glyph glyph-name="uni1EE1" unicode="&#x1ee1;" horiz-adv-x="580" 
d="M370 479v31h60q35 0 43.5 13t8.5 50v34h39v-27q0 -30 -3.5 -49.5t-13.5 -30.5t-28 -16t-46 -5h-60zM290 -8q-62 0 -102 6.5t-63.5 23.5t-34.5 47t-14 75.5t-3 109.5q0 65 3 110.5t14 75.5t34.5 47t63.5 24t102 7q61 0 101 -7t63.5 -24t35 -47t14.5 -75.5t3 -110.5
q0 -64 -3 -109.5t-14.5 -75.5t-35 -47t-63.5 -23.5t-101 -6.5zM290 33q64 0 99 8.5t50 31.5t18 67t3 114q0 71 -3 115t-18 67.5t-50 32t-99 8.5t-99.5 -8.5t-50.5 -32t-18 -67.5t-3 -115q0 -70 3 -114t18 -67t50.5 -31.5t99.5 -8.5zM128 616q0 36 4.5 58t18.5 32t42 10
t55 -8t55 -19q21 -8 42 -15t45 -7q22 0 28 13.5t6 46.5h31q0 -36 -4.5 -58t-18.5 -32t-41 -10q-30 0 -55.5 9t-54.5 19q-22 7 -43 14.5t-44 7.5q-22 0 -28 -13.5t-6 -47.5h-32z" />
    <glyph glyph-name="uni1EE2" unicode="&#x1ee2;" horiz-adv-x="724" 
d="M492 657v31h61q35 0 43 13t8 50v34h39v-27q0 -30 -3.5 -49.5t-13.5 -30.5t-28 -16t-45 -5h-61zM362 -8q-78 0 -129 7.5t-80.5 28t-43.5 59.5t-18 101.5t-4 155.5t4 155.5t18 101.5t43.5 59.5t80.5 28t129 7.5t129 -7.5t80.5 -28t43.5 -59.5t18 -101.5t4 -155.5t-4 -155.5
t-18 -101.5t-43.5 -59.5t-80.5 -28t-129 -7.5zM362 36q62 0 103.5 3.5t66.5 18t37.5 47.5t16 90.5t3.5 148.5t-3.5 148.5t-16 90.5t-37.5 47.5t-66.5 18t-103.5 3.5q-63 0 -104 -3.5t-66 -18t-37.5 -47.5t-16 -90.5t-3.5 -148.5t3.5 -148.5t16 -90.5t37.5 -47.5t66 -18
t104 -3.5zM337 -188v61h51v-61h-51z" />
    <glyph glyph-name="uni1EE3" unicode="&#x1ee3;" horiz-adv-x="579" 
d="M370 479v31h60q35 0 43.5 13t8.5 50v34h39v-27q0 -30 -3.5 -49.5t-13.5 -30.5t-28 -16t-46 -5h-60zM290 -8q-62 0 -102 6.5t-63.5 23.5t-34.5 47t-14 75.5t-3 109.5q0 65 3 110.5t14 75.5t34.5 47t63.5 24t102 7q61 0 101 -7t63.5 -24t35 -47t14.5 -75.5t3 -110.5
q0 -64 -3 -109.5t-14.5 -75.5t-35 -47t-63.5 -23.5t-101 -6.5zM290 33q64 0 99 8.5t50 31.5t18 67t3 114q0 71 -3 115t-18 67.5t-50 32t-99 8.5t-99.5 -8.5t-50.5 -32t-18 -67.5t-3 -115q0 -70 3 -114t18 -67t50.5 -31.5t99.5 -8.5zM264 -188v61h51v-61h-51z" />
    <glyph glyph-name="uni1EE4" unicode="&#x1ee4;" horiz-adv-x="715" 
d="M358 -8q-70 0 -117 8.5t-74.5 28.5t-42 55t-18.5 87t-4 125v392h48v-423q0 -70 5.5 -114.5t25 -70t62 -35t115.5 -9.5q74 0 115.5 9.5t61.5 35t25 70t5 114.5v423h48v-392q0 -73 -4 -125t-18 -87t-41.5 -55t-74.5 -28.5t-117 -8.5zM333 -188v61h51v-61h-51z" />
    <glyph glyph-name="uni1EE5" unicode="&#x1ee5;" horiz-adv-x="603" 
d="M281 -8q-60 0 -96.5 11.5t-55.5 34.5t-25.5 61t-6.5 91v320h46v-309q0 -54 5.5 -87.5t21.5 -51t46 -23t78 -5.5q62 0 96 16t49 44.5t18 67.5t3 84v264h46v-510h-39l-3 81h-5q-8 -24 -26.5 -44t-54.5 -32.5t-97 -12.5zM264 -188v61h51v-61h-51z" />
    <glyph glyph-name="uni1EE6" unicode="&#x1ee6;" horiz-adv-x="715" 
d="M358 -8q-70 0 -117 8.5t-74.5 28.5t-42 55t-18.5 87t-4 125v392h48v-423q0 -70 5.5 -114.5t25 -70t62 -35t115.5 -9.5q74 0 115.5 9.5t61.5 35t25 70t5 114.5v423h48v-392q0 -73 -4 -125t-18 -87t-41.5 -55t-74.5 -28.5t-117 -8.5zM320 767v11q0 16 4 25t13 14.5t26 10.5
l25 6q26 8 38.5 13.5t16.5 12.5t4 21q0 21 -8 29.5t-29.5 10.5t-61.5 2q-12 0 -29 -0.5t-36 -1.5t-37 -3v30q24 3 56 4.5t56 1.5q44 0 72 -4.5t41 -19t13 -45.5q0 -19 -4 -32.5t-16 -22.5t-38 -16l-29 -8q-21 -5 -30.5 -9t-11.5 -10.5t-2 -19.5h-33z" />
    <glyph glyph-name="uni1EE7" unicode="&#x1ee7;" horiz-adv-x="603" 
d="M281 -8q-60 0 -96.5 11.5t-55.5 34.5t-25.5 61t-6.5 91v320h46v-309q0 -54 5.5 -87.5t21.5 -51t46 -23t78 -5.5q62 0 96 16t49 44.5t18 67.5t3 84v264h46v-510h-39l-3 81h-5q-8 -24 -26.5 -44t-54.5 -32.5t-97 -12.5zM264 589v11q0 16 4 25t13 14.5t26 10.5l25 6
q26 8 38.5 13.5t16.5 12.5t4 21q0 21 -8 29.5t-29.5 10.5t-61.5 2q-12 0 -29 -0.5t-36 -1.5t-37 -3v30q24 3 56 4.5t56 1.5q44 0 72 -4.5t41 -19t13 -45.5q0 -19 -4 -32.5t-16 -22.5t-38 -16l-29 -8q-21 -5 -30.5 -9t-11.5 -10.5t-2 -19.5h-33z" />
    <glyph glyph-name="uni1EE8" unicode="&#x1ee8;" horiz-adv-x="715" 
d="M570 657v31h61q35 0 43 13t8 50v34h40v-27q0 -30 -4 -49.5t-13.5 -30.5t-27.5 -16t-46 -5h-61zM358 -8q-70 0 -117 8.5t-74.5 28.5t-42 55t-18.5 87t-4 125v392h48v-423q0 -70 5.5 -114.5t25 -70t62 -35t115.5 -9.5q74 0 115.5 9.5t61.5 35t25 70t5 114.5v423h48v-392
q0 -73 -4 -125t-18 -87t-41.5 -55t-74.5 -28.5t-117 -8.5zM319 781v5l106 134h56v-5l-127 -134h-35z" />
    <glyph glyph-name="uni1EE9" unicode="&#x1ee9;" horiz-adv-x="603" 
d="M460 479v31h61q34 0 42.5 13t8.5 50v34h39v-27q0 -30 -3.5 -49.5t-13.5 -30.5t-28 -16t-45 -5h-61zM281 -8q-60 0 -96.5 11.5t-55.5 34.5t-25.5 61t-6.5 91v320h46v-309q0 -54 5.5 -87.5t21.5 -51t46 -23t78 -5.5q62 0 96 16t49 44.5t18 67.5t3 84v264h46v-510h-39l-3 81
h-5q-8 -24 -26.5 -44t-54.5 -32.5t-97 -12.5zM241 603v5l106 134h56v-5l-127 -134h-35z" />
    <glyph glyph-name="uni1EEA" unicode="&#x1eea;" horiz-adv-x="715" 
d="M570 657v31h61q35 0 43 13t8 50v34h40v-27q0 -30 -4 -49.5t-13.5 -30.5t-27.5 -16t-46 -5h-61zM358 -8q-70 0 -117 8.5t-74.5 28.5t-42 55t-18.5 87t-4 125v392h48v-423q0 -70 5.5 -114.5t25 -70t62 -35t115.5 -9.5q74 0 115.5 9.5t61.5 35t25 70t5 114.5v423h48v-392
q0 -73 -4 -125t-18 -87t-41.5 -55t-74.5 -28.5t-117 -8.5zM377 782l-127 133v5h56l106 -133v-5h-35z" />
    <glyph glyph-name="uni1EEB" unicode="&#x1eeb;" horiz-adv-x="603" 
d="M460 479v31h61q34 0 42.5 13t8.5 50v34h39v-27q0 -30 -3.5 -49.5t-13.5 -30.5t-28 -16t-45 -5h-61zM281 -8q-60 0 -96.5 11.5t-55.5 34.5t-25.5 61t-6.5 91v320h46v-309q0 -54 5.5 -87.5t21.5 -51t46 -23t78 -5.5q62 0 96 16t49 44.5t18 67.5t3 84v264h46v-510h-39l-3 81
h-5q-8 -24 -26.5 -44t-54.5 -32.5t-97 -12.5zM317 603l-127 133v5h56l106 -133v-5h-35z" />
    <glyph glyph-name="uni1EEC" unicode="&#x1eec;" horiz-adv-x="715" 
d="M570 657v31h61q35 0 43 13t8 50v34h40v-27q0 -30 -4 -49.5t-13.5 -30.5t-27.5 -16t-46 -5h-61zM358 -8q-70 0 -117 8.5t-74.5 28.5t-42 55t-18.5 87t-4 125v392h48v-423q0 -70 5.5 -114.5t25 -70t62 -35t115.5 -9.5q74 0 115.5 9.5t61.5 35t25 70t5 114.5v423h48v-392
q0 -73 -4 -125t-18 -87t-41.5 -55t-74.5 -28.5t-117 -8.5zM320 767v11q0 16 4 25t13 14.5t26 10.5l25 6q26 8 38.5 13.5t16.5 12.5t4 21q0 21 -8 29.5t-29.5 10.5t-61.5 2q-12 0 -29 -0.5t-36 -1.5t-37 -3v30q24 3 56 4.5t56 1.5q44 0 72 -4.5t41 -19t13 -45.5
q0 -19 -4 -32.5t-16 -22.5t-38 -16l-29 -8q-21 -5 -30.5 -9t-11.5 -10.5t-2 -19.5h-33z" />
    <glyph glyph-name="uni1EED" unicode="&#x1eed;" horiz-adv-x="603" 
d="M460 479v31h61q34 0 42.5 13t8.5 50v34h39v-27q0 -30 -3.5 -49.5t-13.5 -30.5t-28 -16t-45 -5h-61zM281 -8q-60 0 -96.5 11.5t-55.5 34.5t-25.5 61t-6.5 91v320h46v-309q0 -54 5.5 -87.5t21.5 -51t46 -23t78 -5.5q62 0 96 16t49 44.5t18 67.5t3 84v264h46v-510h-39l-3 81
h-5q-8 -24 -26.5 -44t-54.5 -32.5t-97 -12.5zM264 589v11q0 16 4 25t13 14.5t26 10.5l25 6q26 8 38.5 13.5t16.5 12.5t4 21q0 21 -8 29.5t-29.5 10.5t-61.5 2q-12 0 -29 -0.5t-36 -1.5t-37 -3v30q24 3 56 4.5t56 1.5q44 0 72 -4.5t41 -19t13 -45.5q0 -19 -4 -32.5t-16 -22.5
t-38 -16l-29 -8q-21 -5 -30.5 -9t-11.5 -10.5t-2 -19.5h-33z" />
    <glyph glyph-name="uni1EEE" unicode="&#x1eee;" horiz-adv-x="715" 
d="M570 657v31h61q35 0 43 13t8 50v34h40v-27q0 -30 -4 -49.5t-13.5 -30.5t-27.5 -16t-46 -5h-61zM358 -8q-70 0 -117 8.5t-74.5 28.5t-42 55t-18.5 87t-4 125v392h48v-423q0 -70 5.5 -114.5t25 -70t62 -35t115.5 -9.5q74 0 115.5 9.5t61.5 35t25 70t5 114.5v423h48v-392
q0 -73 -4 -125t-18 -87t-41.5 -55t-74.5 -28.5t-117 -8.5zM194 794q0 36 4.5 58t18.5 32t42 10t55 -8t55 -19q21 -8 42 -15t45 -7q22 0 28 13.5t6 46.5h31q0 -36 -4.5 -58t-18.5 -32t-41 -10q-30 0 -55.5 9t-54.5 19q-22 7 -43 14.5t-44 7.5q-22 0 -28 -13.5t-6 -47.5h-32z
" />
    </font>
</defs>
</svg>
