<svg xmlns="http://www.w3.org/2000/svg" width="196.482" height="170.288" viewBox="0 0 196.482 170.288">
  <path id="arrow-image" d="M682.02,117.3c.441-1.788.56-3.741,1.376-5.337,4.822-9.436,9.685-18.857,14.844-28.111a8.236,8.236,0,0,1,5.017-3.569c2.791-.561,4.362,1.7,5.271,4.2,3.366,9.263,6.911,18.465,10.017,27.814,1.311,3.943,1.788,8.176,2.462,12.308a14.882,14.882,0,0,1-.009,5.142c-.2,1.042-1.31,2.721-1.951,2.693-1.193-.051-3.016-.876-3.391-1.841-1.511-3.89-2.487-7.985-3.826-11.948-.878-2.6-.841-5.7-3.735-7.965-.324,2.991-.506,5.446-.865,7.875-3.526,23.8-13.726,44.258-31.793,60.216-11.581,10.229-24.861,14.061-39.474,5.876-2.529-1.416-4.352-.968-6.785.294a93.486,93.486,0,0,1-47.925,10.277c-6.267-.281-12.52-2.28-18.624-4.036-2.17-.626-4.138-2.636-5.68-4.455-.669-.79-.023-2.691.04-4.53,18.871,9.781,53.65,7.163,69.575-4.916-1.268-2-2.615-4.007-3.844-6.084-5.9-9.965-9.934-20.542-8.41-32.318,1.453-11.226,11.121-14.993,20.081-8.2a32.219,32.219,0,0,1,8.762,40.587c-1.016,1.9-2.006,3.8-3.088,5.856,6.133,3.807,12.1,3.737,18.242,1.86,5.83-1.783,10.591-5.3,14.716-9.621,16.91-17.7,26.171-38.6,26.042-63.316a55.637,55.637,0,0,0-.663-5.8c-6.036,5.736-7.25,14.546-14.386,18.33Zm-51.836,49.61a4.033,4.033,0,0,0,6.789.189,18.475,18.475,0,0,0,2.359-14.845c-1.648-6.671-4.491-12.578-11.627-16.167a3.275,3.275,0,0,0-4.665,2.564C621.615,149.625,625.1,158.481,630.185,166.908Z" transform="matrix(0.921, 0.391, -0.391, 0.921, -436.076, -291.32)" fill="#39b6e9"/>
</svg>
