<svg xmlns="http://www.w3.org/2000/svg" width="141.602" height="142.157" viewBox="0 0 141.602 142.157">
  <g id="building-icon" transform="translate(-1)">
    <path id="Path_10455" data-name="Path 10455" d="M209.42,39.918a4.165,4.165,0,0,0,6.689,0l9.977-13.443a16.589,16.589,0,1,0-26.642,0Zm3.344-27.424a4.165,4.165,0,1,1-4.165,4.165A4.165,4.165,0,0,1,212.764,12.494Z" transform="translate(-140.963)" fill="#39b6e9"/>
    <path id="Path_10456" data-name="Path 10456" d="M430.989,182H406v91.625h24.989a4.165,4.165,0,0,0,4.165-4.165v-83.3A4.165,4.165,0,0,0,430.989,182Zm-10.412,74.966a4.165,4.165,0,1,1,4.165-4.165A4.165,4.165,0,0,1,420.577,256.966Zm0-16.659a4.165,4.165,0,1,1,4.165-4.165A4.165,4.165,0,0,1,420.577,240.307Zm0-16.659a4.165,4.165,0,1,1,4.165-4.165A4.165,4.165,0,0,1,420.577,223.648Zm0-16.659a4.165,4.165,0,1,1,4.165-4.165A4.165,4.165,0,0,1,420.577,206.989Z" transform="translate(-292.551 -131.468)" fill="#39b6e9"/>
    <path id="Path_10457" data-name="Path 10457" d="M1,186.165v83.3a4.165,4.165,0,0,0,4.165,4.165H30.153V182H5.165A4.165,4.165,0,0,0,1,186.165Zm14.577,12.494a4.165,4.165,0,1,1-4.165,4.165A4.165,4.165,0,0,1,15.577,198.659Zm0,16.659a4.165,4.165,0,1,1-4.165,4.165A4.165,4.165,0,0,1,15.577,215.318Zm0,16.659a4.165,4.165,0,1,1-4.165,4.165A4.165,4.165,0,0,1,15.577,231.977Zm0,16.659a4.165,4.165,0,1,1-4.165,4.165A4.165,4.165,0,0,1,15.577,248.636Z" transform="translate(0 -131.468)" fill="#39b6e9"/>
    <path id="Path_10458" data-name="Path 10458" d="M231,432h13.883v22.212H231Z" transform="translate(-166.14 -312.055)" fill="#083f85"/>
    <path id="Path_10459" data-name="Path 10459" d="M198.471,102H191.3a25.283,25.283,0,0,1-1.977,3.118l-9.977,13.443a12.494,12.494,0,0,1-20.066,0l-9.977-13.443A25.285,25.285,0,0,1,147.331,102h-7.166A4.165,4.165,0,0,0,136,106.165V215.837h18.047V189.46a4.165,4.165,0,0,1,4.165-4.165h22.212a4.165,4.165,0,0,1,4.165,4.165v26.377h18.047V106.165A4.165,4.165,0,0,0,198.471,102Zm-45.812,74.966a4.165,4.165,0,1,1,4.165-4.165A4.165,4.165,0,0,1,152.659,176.966Zm0-16.659a4.165,4.165,0,1,1,4.165-4.165A4.165,4.165,0,0,1,152.659,160.307Zm0-16.659a4.165,4.165,0,1,1,4.165-4.165A4.165,4.165,0,0,1,152.659,143.648Zm0-16.659a4.165,4.165,0,1,1,4.165-4.165A4.165,4.165,0,0,1,152.659,126.989Zm16.659,49.977a4.165,4.165,0,1,1,4.165-4.165A4.165,4.165,0,0,1,169.318,176.966Zm0-16.659a4.165,4.165,0,1,1,4.165-4.165A4.165,4.165,0,0,1,169.318,160.307Zm0-16.659a4.165,4.165,0,1,1,4.165-4.165A4.165,4.165,0,0,1,169.318,143.648Zm16.659,33.318a4.165,4.165,0,1,1,4.165-4.165A4.165,4.165,0,0,1,185.977,176.966Zm0-16.659a4.165,4.165,0,1,1,4.165-4.165A4.165,4.165,0,0,1,185.977,160.307Zm0-16.659a4.165,4.165,0,1,1,4.165-4.165A4.165,4.165,0,0,1,185.977,143.648Zm0-16.659a4.165,4.165,0,1,1,4.165-4.165A4.165,4.165,0,0,1,185.977,126.989Z" transform="translate(-97.517 -73.68)" fill="#083f85"/>
  </g>
</svg>
