<svg xmlns="http://www.w3.org/2000/svg" width="17.27" height="16.184" viewBox="0 0 17.27 16.184">
  <g id="calendar-icon" transform="translate(0 0)">
    <path id="Path_11071" data-name="Path 11071" d="M0,160.414v8.244a2.533,2.533,0,0,0,2.53,2.53H14.741a2.533,2.533,0,0,0,2.53-2.53v-8.244Zm13.4,2.166h.8a.506.506,0,0,1,.506.506v.8a.506.506,0,0,1-.506.506h-.8a.506.506,0,0,1-.506-.506v-.8A.506.506,0,0,1,13.4,162.58Zm0,3.641h.8a.506.506,0,0,1,.506.506v.8a.506.506,0,0,1-.506.506h-.8a.506.506,0,0,1-.506-.506v-.8A.506.506,0,0,1,13.4,166.222ZM9.955,162.58h.8a.506.506,0,0,1,.506.506v.8a.506.506,0,0,1-.506.506h-.8a.506.506,0,0,1-.506-.506v-.8A.506.506,0,0,1,9.955,162.58Zm0,3.641h.8a.506.506,0,0,1,.506.506v.8a.506.506,0,0,1-.506.506h-.8a.506.506,0,0,1-.506-.506v-.8A.506.506,0,0,1,9.955,166.222ZM6.511,162.58h.8a.506.506,0,0,1,.506.506v.8a.506.506,0,0,1-.506.506h-.8A.506.506,0,0,1,6,163.891v-.8A.506.506,0,0,1,6.511,162.58Zm0,3.641h.8a.506.506,0,0,1,.506.506v.8a.506.506,0,0,1-.506.506h-.8A.506.506,0,0,1,6,167.532v-.8A.506.506,0,0,1,6.511,166.222ZM3.066,162.58h.8a.506.506,0,0,1,.506.506v.8a.506.506,0,0,1-.506.506h-.8a.506.506,0,0,1-.506-.506v-.8A.506.506,0,0,1,3.066,162.58Zm0,3.641h.8a.506.506,0,0,1,.506.506v.8a.506.506,0,0,1-.506.506h-.8a.506.506,0,0,1-.506-.506v-.8A.506.506,0,0,1,3.066,166.222Zm0,0" transform="translate(0 -155.003)" fill="#083f85"/>
    <path id="Path_11072" data-name="Path 11072" d="M17.27,4.4V4.315a2.533,2.533,0,0,0-2.53-2.53h-1.1V1.464a1.464,1.464,0,1,0-2.929,0v.321H10.1V1.464a1.464,1.464,0,1,0-2.929,0v.321H6.559V1.464a1.464,1.464,0,1,0-2.929,0v.321H2.53A2.533,2.533,0,0,0,0,4.315V4.4ZM11.723,1.464a.452.452,0,1,1,.9,0v.321h-.9Zm-3.54,0a.452.452,0,0,1,.9,0v.321h-.9Zm-3.54,0a.452.452,0,1,1,.9,0v.321h-.9Zm0,0" fill="#39b6e9"/>
  </g>
</svg>
