<svg xmlns="http://www.w3.org/2000/svg" width="75.275" height="36.875" viewBox="0 0 75.275 36.875">
  <g id="cws-logo" transform="translate(-116.725 -975.72)">
    <g id="Group_2949" data-name="Group 2949" transform="translate(-564.143 -465.201)">
      <rect id="Rectangle_1777" data-name="Rectangle 1777" width="13.36" height="6.18" rx="0.5" transform="translate(702.813 1447.829)" fill="#fdb627"/>
      <rect id="Rectangle_1778" data-name="Rectangle 1778" width="13.36" height="6.18" rx="0.5" transform="translate(694.684 1445.29) rotate(135)" fill="#fdb627"/>
      <rect id="Rectangle_1779" data-name="Rectangle 1779" width="13.36" height="6.18" rx="0.5" transform="translate(690.314 1459.82) rotate(-135)" fill="#fdb627"/>
      <path id="Path_10079" data-name="Path 10079" d="M716.094,1485.589a.6.6,0,0,1,.595.7,16.034,16.034,0,0,1-31.487,0,.6.6,0,0,1,.6-.7h5.156a.608.608,0,0,1,.572.418,9.958,9.958,0,0,0,18.841,0,.608.608,0,0,1,.572-.418Z" transform="translate(-2.08 -21.495)" fill="#fdb627"/>
    </g>
    <text id="Website_by_CWS" data-name="Website by
CWS" transform="translate(158 994.595)" fill="#fff" font-size="6" font-family="Poppins-Black, Poppins" font-weight="800" letter-spacing="-0.025em"><tspan x="0" y="0">Website by</tspan><tspan x="0" y="8">CWS</tspan></text>
  </g>
</svg>
