<svg xmlns="http://www.w3.org/2000/svg" width="30.868" height="27.13" viewBox="0 0 30.868 27.13">
  <g id="fax" transform="translate(0 -31)">
    <path id="Path_10460" data-name="Path 10460" d="M28.155,211H2.713A2.716,2.716,0,0,0,0,213.713v5.426a2.716,2.716,0,0,0,2.713,2.713H6.391v-.9A2.716,2.716,0,0,1,9.1,218.235H21.764a2.716,2.716,0,0,1,2.713,2.713v.9h3.678a2.716,2.716,0,0,0,2.713-2.713v-5.426A2.716,2.716,0,0,0,28.155,211Zm-9.1,4.522a.9.9,0,1,1,.9-.9A.9.9,0,0,1,19.051,215.522Zm3.617,0a.9.9,0,1,1,.9-.9A.9.9,0,0,1,22.669,215.522Z" transform="translate(0 -169.148)" fill="#083f85"/>
    <path id="Path_10461" data-name="Path 10461" d="M331,32.518v3.526h3.526A4.534,4.534,0,0,0,331,32.518Z" transform="translate(-311.044 -1.426)" fill="#083f85"/>
    <path id="Path_10462" data-name="Path 10462" d="M121.9,31a.9.9,0,0,0-.9.9v8.139h16.278V36.426h-4.522a.9.9,0,0,1-.9-.9V31Z" transform="translate(-113.705)" fill="#fff"/>
    <path id="Path_10463" data-name="Path 10463" d="M149.565,368.235a.9.9,0,0,0,.9-.9V361.9a.9.9,0,0,0-.9-.9H136.9a.9.9,0,0,0-.9.9v5.426a.9.9,0,0,0,.9.9Zm-9.948-4.522h7.235a.9.9,0,1,1,0,1.809h-7.235a.9.9,0,0,1,0-1.809Z" transform="translate(-127.801 -310.105)" fill="#fff"/>
  </g>
</svg>
