<svg id="instagram" xmlns="http://www.w3.org/2000/svg" width="27.985" height="27.985" viewBox="0 0 27.985 27.985">
  <path id="Path_2292" data-name="Path 2292" d="M13.992,2.521c3.736,0,4.179.014,5.654.082a6.173,6.173,0,0,1,4.207,1.529,6.133,6.133,0,0,1,1.529,4.207c.068,1.475.082,1.918.082,5.654s-.014,4.179-.082,5.654a6.2,6.2,0,0,1-1.529,4.207,6.131,6.131,0,0,1-4.207,1.529c-1.475.068-1.918.082-5.654.082s-4.179-.014-5.654-.082a6.247,6.247,0,0,1-4.207-1.529A6.167,6.167,0,0,1,2.6,19.646c-.068-1.475-.082-1.918-.082-5.654s.014-4.179.082-5.654A6.224,6.224,0,0,1,4.131,4.131,6.146,6.146,0,0,1,8.338,2.6c1.475-.068,1.918-.082,5.654-.082m0-2.521c-3.8,0-4.277.016-5.769.084A8.648,8.648,0,0,0,2.348,2.348,8.633,8.633,0,0,0,.084,8.223C.016,9.715,0,10.192,0,13.992s.016,4.277.084,5.769a8.657,8.657,0,0,0,2.264,5.874A8.641,8.641,0,0,0,8.223,27.9c1.493.068,1.969.084,5.769.084s4.277-.016,5.769-.084a8.653,8.653,0,0,0,5.874-2.264A8.629,8.629,0,0,0,27.9,19.762c.068-1.493.084-1.969.084-5.769s-.016-4.277-.084-5.769a8.651,8.651,0,0,0-2.264-5.874A8.648,8.648,0,0,0,19.762.084C18.269.016,17.792,0,13.992,0Z" transform="translate(0 0)" fill="#fff"/>
  <path id="Path_2293" data-name="Path 2293" d="M13.023,5.838a7.185,7.185,0,1,0,7.185,7.185A7.185,7.185,0,0,0,13.023,5.838Zm0,11.849a4.664,4.664,0,1,1,4.664-4.664A4.664,4.664,0,0,1,13.023,17.687Z" transform="translate(0.969 0.969)" fill="#fff"/>
  <circle id="Ellipse_354" data-name="Ellipse 354" cx="1.679" cy="1.679" r="1.679" transform="translate(19.783 4.844)" fill="#fff"/>
</svg>
