<svg xmlns="http://www.w3.org/2000/svg" width="425.058" height="90.014" viewBox="0 0 425.058 90.014">
  <g id="location-connector-graphic" transform="translate(565.697 -24.277)">
    <g id="Group_5428" data-name="Group 5428" transform="translate(-561.209 106.345)">
      <path id="Path_11165" data-name="Path 11165" d="M-558.551,137.81a1.116,1.116,0,0,1-.981-.582,1.117,1.117,0,0,1,.445-1.515q.991-.54,1.974-1.066a1.115,1.115,0,0,1,1.51.459,1.116,1.116,0,0,1-.459,1.511q-.975.519-1.956,1.056A1.106,1.106,0,0,1-558.551,137.81Z" transform="translate(559.669 -134.515)" fill="#083f85"/>
    </g>
    <g id="Group_5429" data-name="Group 5429" transform="translate(-555.327 24.277)">
      <path id="Path_11166" data-name="Path 11166" d="M-550.65,106.535a1.116,1.116,0,0,1-1-.61,1.116,1.116,0,0,1,.488-1.5q2-1.021,3.975-1.977a1.119,1.119,0,0,1,1.493.517,1.118,1.118,0,0,1-.517,1.493q-1.954.947-3.936,1.957A1.114,1.114,0,0,1-550.65,106.535Zm7.949-3.853a1.116,1.116,0,0,1-1.016-.651,1.116,1.116,0,0,1,.548-1.481q2.044-.94,4.054-1.813a1.117,1.117,0,0,1,1.469.58,1.116,1.116,0,0,1-.58,1.469q-1.988.863-4.01,1.793A1.116,1.116,0,0,1-542.7,102.682Zm140.981-3.314c-1.148,0-2.32-.035-3.483-.1a1.117,1.117,0,0,1-1.049-1.181,1.127,1.127,0,0,1,1.18-1.05c1.447.085,2.887.116,4.328.091h.02a1.117,1.117,0,0,1,1.116,1.1,1.117,1.117,0,0,1-1.1,1.136Q-401.213,99.369-401.719,99.369Zm-132.879-.2a1.118,1.118,0,0,1-1.034-.695,1.117,1.117,0,0,1,.612-1.456c1.379-.563,2.769-1.112,4.132-1.633a1.117,1.117,0,0,1,1.441.645,1.116,1.116,0,0,1-.645,1.441c-1.348.514-2.722,1.057-4.084,1.614A1.126,1.126,0,0,1-534.6,99.164Zm138.283-.052a1.116,1.116,0,0,1-1.11-1.011,1.116,1.116,0,0,1,1.006-1.217c1.418-.135,2.864-.327,4.3-.57a1.117,1.117,0,0,1,1.288.913,1.116,1.116,0,0,1-.913,1.288c-1.487.253-2.987.452-4.459.592A1.034,1.034,0,0,1-396.315,99.112Zm-13.213-.26a1.194,1.194,0,0,1-.144-.009c-1.439-.186-2.886-.418-4.424-.709a1.116,1.116,0,0,1-.889-1.305,1.112,1.112,0,0,1,1.305-.889c1.493.283,2.9.508,4.293.688a1.117,1.117,0,0,1,.965,1.251A1.117,1.117,0,0,1-409.529,98.852Zm21.918-1.21a1.117,1.117,0,0,1-1.085-.856,1.117,1.117,0,0,1,.825-1.347c1.1-.264,2.218-.562,3.336-.889q.428-.125.857-.255a1.116,1.116,0,0,1,1.394.742,1.117,1.117,0,0,1-.742,1.394c-.294.09-.588.177-.883.264-1.151.336-2.309.645-3.439.916A1.1,1.1,0,0,1-387.61,97.641Zm-30.594-.413a1.136,1.136,0,0,1-.258-.03c-1.333-.315-2.744-.673-4.316-1.094a1.116,1.116,0,0,1-.79-1.367,1.117,1.117,0,0,1,1.368-.79c1.55.415,2.941.768,4.251,1.077a1.116,1.116,0,0,1,.831,1.343A1.117,1.117,0,0,1-418.2,97.228Zm-108.141-1.214a1.117,1.117,0,0,1-1.052-.744,1.116,1.116,0,0,1,.678-1.426c1.4-.5,2.817-.981,4.206-1.436a1.118,1.118,0,0,1,1.409.713,1.117,1.117,0,0,1-.713,1.409c-1.372.45-2.77.927-4.155,1.418A1.113,1.113,0,0,1-526.346,96.014Zm147.18-.94a1.118,1.118,0,0,1-1.049-.733,1.118,1.118,0,0,1,.665-1.432c1.344-.492,2.708-1.032,4.053-1.605a1.118,1.118,0,0,1,1.465.59,1.117,1.117,0,0,1-.59,1.464c-1.38.589-2.78,1.143-4.16,1.648A1.122,1.122,0,0,1-379.166,95.074Zm-47.578-.111a1.119,1.119,0,0,1-.306-.042l-4.246-1.216a1.117,1.117,0,0,1-.768-1.38,1.118,1.118,0,0,1,1.381-.767l4.244,1.214a1.116,1.116,0,0,1,.768,1.379A1.116,1.116,0,0,1-426.744,94.964Zm-91.206-1.7a1.118,1.118,0,0,1-1.07-.8,1.117,1.117,0,0,1,.75-1.391c1.424-.427,2.862-.838,4.275-1.222a1.117,1.117,0,0,1,1.37.785,1.117,1.117,0,0,1-.785,1.371c-1.394.378-2.813.784-4.219,1.205A1.121,1.121,0,0,1-517.951,93.265Zm82.71-.715a1.117,1.117,0,0,1-.3-.041q-2.079-.574-4.247-1.136a1.116,1.116,0,0,1-.8-1.359,1.117,1.117,0,0,1,1.36-.8q2.19.564,4.285,1.146a1.116,1.116,0,0,1,.779,1.374A1.117,1.117,0,0,1-435.24,92.55Zm64.2-.937a1.116,1.116,0,0,1-1.005-.628,1.116,1.116,0,0,1,.515-1.493c1.3-.631,2.6-1.306,3.879-2.006a1.116,1.116,0,0,1,1.516.443,1.116,1.116,0,0,1-.443,1.516c-1.309.718-2.646,1.409-3.974,2.055A1.112,1.112,0,0,1-371.039,91.613Zm-138.389-.663a1.118,1.118,0,0,1-1.084-.854,1.117,1.117,0,0,1,.822-1.348c1.444-.351,2.9-.684,4.337-.99a1.116,1.116,0,0,1,1.324.859,1.116,1.116,0,0,1-.858,1.325c-1.413.3-2.851.63-4.276.976A1.158,1.158,0,0,1-509.427,90.951Zm65.632-.593a1.1,1.1,0,0,1-.253-.029c-1.444-.335-2.886-.648-4.284-.931a1.115,1.115,0,0,1-.872-1.315,1.114,1.114,0,0,1,1.315-.873c1.419.287,2.881.6,4.346.945a1.117,1.117,0,0,1,.835,1.34A1.118,1.118,0,0,1-443.795,90.358Zm-56.993-1.25a1.117,1.117,0,0,1-1.1-.915,1.117,1.117,0,0,1,.9-1.3c1.461-.268,2.938-.517,4.388-.739a1.113,1.113,0,0,1,1.273.934,1.116,1.116,0,0,1-.934,1.273c-1.429.22-2.884.465-4.324.729A1.116,1.116,0,0,1-500.788,89.108Zm48.337-.5a1.162,1.162,0,0,1-.188-.016c-1.436-.244-2.893-.466-4.328-.662a1.116,1.116,0,0,1-.956-1.257,1.119,1.119,0,0,1,1.257-.956c1.459.2,2.94.425,4.4.673a1.117,1.117,0,0,1,.914,1.288A1.117,1.117,0,0,1-452.451,88.613Zm-39.606-.844a1.116,1.116,0,0,1-1.106-.98,1.117,1.117,0,0,1,.972-1.245c1.473-.18,2.962-.34,4.427-.474a1.119,1.119,0,0,1,1.214,1.01,1.117,1.117,0,0,1-1.01,1.214c-1.441.132-2.908.289-4.358.467A1.072,1.072,0,0,1-492.057,87.768Zm30.858-.346c-.038,0-.076,0-.115-.006-1.368-.14-2.758-.261-4.133-.359l-.23-.016a1.117,1.117,0,0,1-1.036-1.193,1.108,1.108,0,0,1,1.193-1.036l.226.016c1.4.1,2.817.223,4.208.366a1.116,1.116,0,0,1,1,1.225A1.116,1.116,0,0,1-461.2,87.422Zm97.912-.056a1.117,1.117,0,0,1-.954-.534,1.117,1.117,0,0,1,.37-1.536c1.234-.755,2.469-1.551,3.67-2.366a1.117,1.117,0,0,1,1.551.3,1.118,1.118,0,0,1-.3,1.551c-1.231.835-2.495,1.65-3.759,2.423A1.112,1.112,0,0,1-363.286,87.366Zm-119.972-.4a1.117,1.117,0,0,1-1.114-1.05,1.116,1.116,0,0,1,1.047-1.181c1.482-.089,2.979-.155,4.449-.2a1.117,1.117,0,0,1,1.148,1.085,1.117,1.117,0,0,1-1.085,1.147c-1.446.041-2.919.106-4.377.193Zm13.248-.155h-.042c-1.455-.054-2.929-.084-4.38-.09a1.118,1.118,0,0,1-1.112-1.122,1.116,1.116,0,0,1,1.117-1.111h.005c1.476.006,2.973.037,4.453.092a1.118,1.118,0,0,1,1.075,1.157A1.117,1.117,0,0,1-470.01,86.809ZM-355.977,82.4a1.115,1.115,0,0,1-.893-.444,1.118,1.118,0,0,1,.22-1.564c1.168-.879,2.318-1.79,3.42-2.71a1.117,1.117,0,0,1,1.572.141A1.116,1.116,0,0,1-351.8,79.4c-1.13.943-2.31,1.878-3.507,2.779A1.111,1.111,0,0,1-355.977,82.4Zm6.78-5.665a1.113,1.113,0,0,1-.818-.357,1.117,1.117,0,0,1,.058-1.578c1.07-.994,2.114-2.021,3.105-3.054a1.116,1.116,0,0,1,1.578-.033,1.115,1.115,0,0,1,.033,1.579c-1.02,1.064-2.095,2.121-3.2,3.144A1.112,1.112,0,0,1-349.2,76.736Zm6.108-6.382a1.114,1.114,0,0,1-.719-.263,1.116,1.116,0,0,1-.133-1.574c.949-1.126,1.851-2.274,2.678-3.412a1.116,1.116,0,0,1,1.56-.246,1.116,1.116,0,0,1,.246,1.56c-.858,1.181-1.793,2.372-2.777,3.538A1.115,1.115,0,0,1-343.09,70.354Zm5.176-7.152a1.115,1.115,0,0,1-.578-.162,1.117,1.117,0,0,1-.377-1.534,42.552,42.552,0,0,0,2.046-3.786,1.119,1.119,0,0,1,1.487-.531,1.118,1.118,0,0,1,.531,1.488,44.812,44.812,0,0,1-2.154,3.985A1.115,1.115,0,0,1-337.914,63.2Zm3.751-7.979a1.1,1.1,0,0,1-.35-.057,1.117,1.117,0,0,1-.71-1.411,27.323,27.323,0,0,0,1.025-4.111,1.113,1.113,0,0,1,1.283-.92A1.117,1.117,0,0,1-332,50.008a29.52,29.52,0,0,1-1.108,4.448A1.116,1.116,0,0,1-334.163,55.223Zm1.376-8.675a1.116,1.116,0,0,1-1.115-1.083q-.017-.561-.064-1.115a22.346,22.346,0,0,0-.474-3.054,1.117,1.117,0,0,1,.845-1.334,1.116,1.116,0,0,1,1.335.844,24.336,24.336,0,0,1,.519,3.352q.054.62.072,1.241a1.117,1.117,0,0,1-1.083,1.149Zm-40.52-6.837a1.105,1.105,0,0,1-.463-.1,1.116,1.116,0,0,1-.552-1.479,26.117,26.117,0,0,1,2.271-4.012,1.118,1.118,0,0,1,1.554-.283,1.117,1.117,0,0,1,.282,1.554,23.907,23.907,0,0,0-2.077,3.668A1.115,1.115,0,0,1-373.306,39.71Zm38.6-1.742a1.117,1.117,0,0,1-1.025-.672,18.921,18.921,0,0,0-2.058-3.619,1.118,1.118,0,0,1,.243-1.561,1.117,1.117,0,0,1,1.56.243,21.176,21.176,0,0,1,2.3,4.047,1.118,1.118,0,0,1-.579,1.47A1.122,1.122,0,0,1-334.71,37.968Zm-33.568-5.463a1.112,1.112,0,0,1-.8-.342,1.115,1.115,0,0,1,.031-1.578,22.025,22.025,0,0,1,3.666-2.851,1.117,1.117,0,0,1,1.537.36,1.117,1.117,0,0,1-.36,1.538,19.772,19.772,0,0,0-3.294,2.562A1.113,1.113,0,0,1-368.278,32.505Zm28.369-1.58a1.116,1.116,0,0,1-.71-.255,17.184,17.184,0,0,0-3.491-2.221,1.116,1.116,0,0,1-.522-1.49,1.117,1.117,0,0,1,1.49-.523,19.432,19.432,0,0,1,3.943,2.51,1.117,1.117,0,0,1,.151,1.572A1.115,1.115,0,0,1-339.909,30.925Zm-20.922-3.049a1.117,1.117,0,0,1-1.049-.734,1.118,1.118,0,0,1,.667-1.432,23.934,23.934,0,0,1,4.48-1.154,1.121,1.121,0,0,1,1.276.931,1.117,1.117,0,0,1-.93,1.276,21.7,21.7,0,0,0-4.061,1.046A1.117,1.117,0,0,1-360.831,27.876Zm13.046-.782a1.107,1.107,0,0,1-.258-.031,21.241,21.241,0,0,0-4.153-.555,1.117,1.117,0,0,1-1.077-1.155,1.1,1.1,0,0,1,1.155-1.076,23.526,23.526,0,0,1,4.59.613,1.117,1.117,0,0,1,.829,1.344A1.118,1.118,0,0,1-347.785,27.095Z" transform="translate(551.767 -24.277)" fill="#083f85"/>
    </g>
    <g id="Group_5430" data-name="Group 5430" transform="translate(-380.406 41.691)">
      <path id="Path_11167" data-name="Path 11167" d="M-315.246,52.093a1.117,1.117,0,0,1-1.1-.948c-.107-.7-.249-1.4-.421-2.087a1.118,1.118,0,0,1,.811-1.355,1.115,1.115,0,0,1,.736.067,1.118,1.118,0,0,1,.733-.055,1.117,1.117,0,0,1,.792,1.367,19.661,19.661,0,0,0-.443,2.062,1.115,1.115,0,0,1-1.1.949Z" transform="translate(316.804 -47.669)" fill="#083f85"/>
    </g>
    <g id="Group_5431" data-name="Group 5431" transform="translate(-422.399 24.68)">
      <path id="Path_11168" data-name="Path 11168" d="M-138.539,112.548h-.351A1.117,1.117,0,0,1-140,111.422a1.116,1.116,0,0,1,1.117-1.109h.348c1.333,0,2.686-.051,4.02-.15a1.129,1.129,0,0,1,1.2,1.03,1.117,1.117,0,0,1-1.03,1.2C-135.738,112.5-137.148,112.548-138.539,112.548Zm-4.79-.2c-.03,0-.06,0-.09,0-1.5-.12-3.016-.295-4.5-.52a1.117,1.117,0,0,1-.937-1.272,1.123,1.123,0,0,1,1.272-.937c1.429.217,2.889.386,4.338.5a1.116,1.116,0,0,1,1.024,1.2A1.116,1.116,0,0,1-143.329,112.35Zm13.318-.46a1.117,1.117,0,0,1-1.1-.947,1.116,1.116,0,0,1,.934-1.273c1.423-.219,2.867-.5,4.29-.827a1.116,1.116,0,0,1,1.34.836,1.117,1.117,0,0,1-.835,1.34c-1.479.342-2.976.631-4.454.858A1.034,1.034,0,0,1-130.01,111.889Zm-22.108-.878a1.1,1.1,0,0,1-.248-.028c-1.45-.329-2.922-.718-4.375-1.158a1.116,1.116,0,0,1-.745-1.392,1.12,1.12,0,0,1,1.391-.746c1.4.424,2.825.8,4.224,1.117a1.117,1.117,0,0,1,.841,1.336A1.117,1.117,0,0,1-152.118,111.011Zm30.779-1.121a1.116,1.116,0,0,1-1.066-.789,1.116,1.116,0,0,1,.739-1.4c1.37-.421,2.763-.9,4.143-1.422a1.116,1.116,0,0,1,1.441.648,1.116,1.116,0,0,1-.648,1.44c-1.425.541-2.865,1.036-4.28,1.47A1.123,1.123,0,0,1-121.339,109.89Zm-39.292-1.444a1.112,1.112,0,0,1-.392-.071c-1.363-.51-2.769-1.084-4.179-1.706a1.116,1.116,0,0,1-.572-1.472,1.118,1.118,0,0,1,1.472-.572c1.373.6,2.739,1.162,4.063,1.658a1.115,1.115,0,0,1,.654,1.437A1.116,1.116,0,0,1-160.631,108.446Zm47.617-1.707a1.118,1.118,0,0,1-1.019-.66,1.116,1.116,0,0,1,.561-1.476c1.309-.589,2.639-1.232,3.952-1.911a1.115,1.115,0,0,1,1.505.478,1.117,1.117,0,0,1-.479,1.505c-1.35.7-2.717,1.359-4.063,1.965A1.112,1.112,0,0,1-113.014,106.739Zm-55.768-1.866a1.114,1.114,0,0,1-.5-.117c-1.262-.626-2.565-1.3-3.985-2.067a1.116,1.116,0,0,1-.453-1.513,1.117,1.117,0,0,1,1.512-.453c1.4.753,2.681,1.417,3.92,2.032a1.117,1.117,0,0,1,.5,1.5A1.116,1.116,0,0,1-168.782,104.874Zm63.678-2.218a1.117,1.117,0,0,1-.966-.555,1.117,1.117,0,0,1,.4-1.527c1.239-.721,2.5-1.495,3.752-2.3a1.116,1.116,0,0,1,1.543.334,1.116,1.116,0,0,1-.334,1.543c-1.28.825-2.571,1.617-3.839,2.355A1.111,1.111,0,0,1-105.1,102.656Zm-71.526-1.985a1.112,1.112,0,0,1-.549-.144q-1.607-.907-3.2-1.821l-.671-.383a1.117,1.117,0,0,1-.416-1.523,1.117,1.117,0,0,1,1.523-.418l.671.383q1.594.909,3.2,1.816a1.117,1.117,0,0,1,.424,1.522A1.116,1.116,0,0,1-176.63,100.67Zm-112.05-.643q-1.477,0-3.028-.045a1.116,1.116,0,0,1-1.083-1.149,1.107,1.107,0,0,1,1.149-1.084q2.283.066,4.4.033h.018a1.118,1.118,0,0,1,1.116,1.1,1.116,1.116,0,0,1-1.1,1.135Q-287.934,100.027-288.68,100.027Zm5.9-.188a1.117,1.117,0,0,1-1.114-1.044,1.117,1.117,0,0,1,1.041-1.187c1.473-.1,2.941-.233,4.367-.406a1.118,1.118,0,0,1,1.243.975,1.117,1.117,0,0,1-.974,1.243c-1.467.177-2.977.318-4.491.417Zm-13.352-.114a.994.994,0,0,1-.115-.006c-.95-.1-2.5-.275-4.485-.577a1.116,1.116,0,0,1-.937-1.272,1.118,1.118,0,0,1,1.272-.936c1.94.294,3.451.468,4.377.563a1.116,1.116,0,0,1,1,1.225A1.116,1.116,0,0,1-296.132,99.725Zm22.178-.963a1.115,1.115,0,0,1-1.1-.918,1.116,1.116,0,0,1,.9-1.3c1.421-.258,2.863-.564,4.288-.91a1.117,1.117,0,0,1,1.349.822,1.118,1.118,0,0,1-.823,1.349c-1.466.356-2.952.671-4.415.937A1.17,1.17,0,0,1-273.953,98.762ZM-304.96,98.4a1.121,1.121,0,0,1-.211-.02c-1.459-.278-2.942-.59-4.4-.925a1.117,1.117,0,0,1-.84-1.338,1.117,1.117,0,0,1,1.337-.84c1.438.329,2.894.634,4.326.908a1.116,1.116,0,0,1,.887,1.307A1.117,1.117,0,0,1-304.96,98.4Zm39.653-1.724a1.117,1.117,0,0,1-1.069-.8,1.117,1.117,0,0,1,.751-1.389c1.318-.394,2.69-.835,4.194-1.349a1.117,1.117,0,0,1,1.417.7,1.117,1.117,0,0,1-.7,1.417c-1.531.523-2.93.973-4.278,1.376A1.129,1.129,0,0,1-265.307,96.676Zm-48.351-.263a1.128,1.128,0,0,1-.287-.037c-1.443-.383-2.9-.8-4.328-1.233a1.116,1.116,0,0,1-.744-1.393,1.117,1.117,0,0,1,1.394-.744c1.4.427,2.833.834,4.251,1.21a1.117,1.117,0,0,1,.793,1.366A1.117,1.117,0,0,1-313.657,96.413Zm129.279-.135a1.108,1.108,0,0,1-.543-.141c-1.424-.794-2.7-1.484-3.89-2.111a1.118,1.118,0,0,1-.47-1.508,1.117,1.117,0,0,1,1.508-.47c1.21.634,2.5,1.334,3.939,2.137A1.116,1.116,0,0,1-183.4,95.7,1.115,1.115,0,0,1-184.378,96.277Zm-72.5-2.454a1.116,1.116,0,0,1-1.049-.734,1.116,1.116,0,0,1,.666-1.432l4.178-1.535a1.117,1.117,0,0,1,1.432.666,1.117,1.117,0,0,1-.666,1.432l-4.179,1.534A1.113,1.113,0,0,1-256.877,93.823Zm-65.312-.006a1.108,1.108,0,0,1-.363-.061c-1.422-.49-2.844-1.009-4.227-1.544a1.117,1.117,0,0,1-.639-1.444,1.117,1.117,0,0,1,1.444-.639c1.357.525,2.753,1.035,4.149,1.515a1.118,1.118,0,0,1,.692,1.42A1.118,1.118,0,0,1-322.189,93.817Zm129.917-1.66a1.114,1.114,0,0,1-.479-.109c-1.389-.661-2.7-1.245-4.012-1.787a1.117,1.117,0,0,1-.607-1.458,1.117,1.117,0,0,1,1.458-.606c1.347.556,2.694,1.157,4.12,1.834a1.116,1.116,0,0,1,.529,1.488A1.115,1.115,0,0,1-192.272,92.157ZM-248.507,90.8a1.117,1.117,0,0,1-1.056-.756,1.116,1.116,0,0,1,.7-1.418c1.514-.517,2.912-.969,4.274-1.379a1.118,1.118,0,0,1,1.391.747,1.118,1.118,0,0,1-.747,1.391c-1.336.4-2.708.845-4.2,1.353A1.113,1.113,0,0,1-248.507,90.8Zm-82-.2a1.109,1.109,0,0,1-.442-.092c-1.384-.6-2.762-1.228-4.1-1.871a1.116,1.116,0,0,1-.521-1.49,1.115,1.115,0,0,1,1.49-.521c1.307.63,2.657,1.246,4.013,1.832a1.118,1.118,0,0,1,.582,1.469A1.118,1.118,0,0,1-330.5,90.6Zm130-1.822a1.119,1.119,0,0,1-.359-.06c-1.4-.474-2.8-.9-4.182-1.257a1.117,1.117,0,0,1-.8-1.362,1.118,1.118,0,0,1,1.363-.8c1.43.373,2.889.811,4.336,1.3a1.116,1.116,0,0,1,.7,1.417A1.116,1.116,0,0,1-200.5,88.777Zm-39.482-.528a1.117,1.117,0,0,1-1.082-.846,1.116,1.116,0,0,1,.812-1.354c1.459-.366,2.939-.7,4.4-.983a1.117,1.117,0,0,1,1.311.881,1.117,1.117,0,0,1-.881,1.311c-1.421.278-2.863.6-4.286.957A1.1,1.1,0,0,1-239.984,88.249Zm-98.547-1.522a1.118,1.118,0,0,1-.526-.132c-1.331-.713-2.651-1.459-3.924-2.217a1.117,1.117,0,0,1-.389-1.531,1.117,1.117,0,0,1,1.531-.388c1.244.741,2.535,1.47,3.836,2.167a1.117,1.117,0,0,1,.456,1.512A1.117,1.117,0,0,1-338.531,86.727Zm129.429-.185a1.071,1.071,0,0,1-.2-.019c-1.423-.255-2.875-.459-4.318-.6a1.116,1.116,0,0,1-1-1.222,1.113,1.113,0,0,1,1.222-1c1.5.15,3.011.361,4.491.628a1.116,1.116,0,0,1,.9,1.3A1.118,1.118,0,0,1-209.1,86.541Zm-22.154,0a1.118,1.118,0,0,1-1.1-.959,1.117,1.117,0,0,1,.948-1.263c1.461-.208,2.965-.385,4.472-.526a1.123,1.123,0,0,1,1.214,1.009,1.116,1.116,0,0,1-1.008,1.216c-1.47.136-2.937.309-4.363.512A1.171,1.171,0,0,1-231.256,86.537Zm8.858-.83a1.116,1.116,0,0,1-1.114-1.063,1.116,1.116,0,0,1,1.062-1.169c1.515-.073,3.05-.092,4.532-.056a1.118,1.118,0,0,1,1.09,1.143,1.118,1.118,0,0,1-1.116,1.09h-.028c-1.43-.034-2.909-.016-4.371.054Zm-123.787-3.541a1.114,1.114,0,0,1-.615-.185c-1.257-.832-2.5-1.7-3.7-2.58a1.115,1.115,0,0,1-.238-1.56,1.115,1.115,0,0,1,1.56-.239c1.169.859,2.383,1.706,3.609,2.516a1.117,1.117,0,0,1,.316,1.547A1.115,1.115,0,0,1-346.185,82.165Zm-7.175-5.277a1.112,1.112,0,0,1-.707-.252c-1.168-.956-2.317-1.949-3.416-2.951a1.116,1.116,0,0,1-.072-1.578,1.115,1.115,0,0,1,1.577-.072c1.069.975,2.187,1.942,3.325,2.871a1.117,1.117,0,0,1,.157,1.572A1.114,1.114,0,0,1-353.36,76.888Zm-6.574-6a1.112,1.112,0,0,1-.8-.335c-1.056-1.078-2.087-2.194-3.066-3.316a1.116,1.116,0,0,1,.106-1.575,1.117,1.117,0,0,1,1.576.106c.951,1.091,1.953,2.175,2.979,3.222a1.116,1.116,0,0,1-.016,1.579A1.113,1.113,0,0,1-359.934,70.885Zm-5.854-6.707a1.117,1.117,0,0,1-.884-.434,39.108,39.108,0,0,1-2.6-3.777,1.116,1.116,0,0,1,.382-1.532,1.118,1.118,0,0,1,1.533.382,36.688,36.688,0,0,0,2.453,3.562,1.117,1.117,0,0,1-.2,1.566A1.11,1.11,0,0,1-365.789,64.178Zm-4.529-7.643a1.116,1.116,0,0,1-1.034-.7,25.571,25.571,0,0,1-1.365-4.447,1.115,1.115,0,0,1,.867-1.32,1.115,1.115,0,0,1,1.32.867A23.435,23.435,0,0,0-369.283,55a1.117,1.117,0,0,1-.613,1.455A1.107,1.107,0,0,1-370.317,56.535Zm-1.777-8.674a1.116,1.116,0,0,1-1.116-1.107v-.128a25.075,25.075,0,0,1,.381-4.517,1.116,1.116,0,0,1,1.3-.9,1.117,1.117,0,0,1,.9,1.3,22.651,22.651,0,0,0-.345,4.071c0,.008,0,.068,0,.076v.083a1.118,1.118,0,0,1-1.107,1.127Zm40.508-7.993a1.116,1.116,0,0,1-1.013-.646,22.1,22.1,0,0,0-2.144-3.651,1.118,1.118,0,0,1,.249-1.56,1.116,1.116,0,0,1,1.56.249,24.3,24.3,0,0,1,2.361,4.021,1.117,1.117,0,0,1-.542,1.483A1.116,1.116,0,0,1-331.586,39.867Zm-38.909-.716a1.108,1.108,0,0,1-.424-.084,1.116,1.116,0,0,1-.608-1.457,20.057,20.057,0,0,1,2.283-4.115,1.117,1.117,0,0,1,1.559-.252,1.117,1.117,0,0,1,.252,1.56,17.844,17.844,0,0,0-2.028,3.657A1.116,1.116,0,0,1-370.494,39.151Zm33.7-6.448a1.11,1.11,0,0,1-.758-.3,20.814,20.814,0,0,0-3.371-2.538,1.117,1.117,0,0,1-.379-1.534,1.117,1.117,0,0,1,1.534-.379,23.131,23.131,0,0,1,3.733,2.811,1.117,1.117,0,0,1,.062,1.578A1.112,1.112,0,0,1-336.79,32.7ZM-365.326,32a1.115,1.115,0,0,1-.849-.39,1.117,1.117,0,0,1,.122-1.575A21.235,21.235,0,0,1-362.17,27.4a1.116,1.116,0,0,1,1.509.465,1.116,1.116,0,0,1-.465,1.509,19.028,19.028,0,0,0-3.474,2.355A1.114,1.114,0,0,1-365.326,32Zm20.96-3.855a1.122,1.122,0,0,1-.366-.062c-.518-.179-1.05-.339-1.581-.473a20.307,20.307,0,0,0-2.522-.473,1.116,1.116,0,0,1-.972-1.244,1.12,1.12,0,0,1,1.244-.972,22.487,22.487,0,0,1,2.8.524c.591.15,1.184.328,1.761.528a1.116,1.116,0,0,1,.69,1.42A1.117,1.117,0,0,1-344.366,28.143Zm-13.156-.3a1.117,1.117,0,0,1-1.073-.808,1.117,1.117,0,0,1,.765-1.382,23.475,23.475,0,0,1,4.6-.833,1.112,1.112,0,0,1,1.2,1.024,1.116,1.116,0,0,1-1.024,1.2,21.3,21.3,0,0,0-4.158.754A1.132,1.132,0,0,1-357.522,27.846Z" transform="translate(373.211 -24.818)" fill="#083f85"/>
    </g>
    <g id="Group_5433" data-name="Group 5433" transform="translate(-565.697 102.533)">
      <g id="Group_5432" data-name="Group 5432">
        <path id="Path_11169" data-name="Path 11169" d="M-556.975,140.418a5.879,5.879,0,0,1-7.988-2.3,5.879,5.879,0,0,1,2.3-7.988,5.878,5.878,0,0,1,7.987,2.3A5.878,5.878,0,0,1-556.975,140.418Z" transform="translate(565.697 -129.395)" fill="#083f85"/>
      </g>
    </g>
    <g id="Group_5435" data-name="Group 5435" transform="translate(-152.394 91.178)">
      <g id="Group_5434" data-name="Group 5434" transform="translate(0)">
        <path id="Path_11170" data-name="Path 11170" d="M-.214,123.877a5.879,5.879,0,0,0-.578-8.293,5.879,5.879,0,0,0-8.293.578,5.879,5.879,0,0,0,.578,8.293A5.879,5.879,0,0,0-.214,123.877Z" transform="translate(10.527 -114.142)" fill="#083f85"/>
      </g>
    </g>
  </g>
</svg>
