<svg id="map" xmlns="http://www.w3.org/2000/svg" width="28.689" height="28.689" viewBox="0 0 28.689 28.689">
  <path id="Path_10422" data-name="Path 10422" d="M33.636,272.066H32.349a.845.845,0,0,0-.776.51l-3.562,8.293,8.459-4.32a39.891,39.891,0,0,1-2.835-4.484Zm0,0" transform="translate(-26.442 -256.849)" fill="#083f85"/>
  <path id="Path_10423" data-name="Path 10423" d="M184.051,272.577a.845.845,0,0,0-.775-.51h-1.287a45.128,45.128,0,0,1-5.241,7.552,2.536,2.536,0,0,1-3.821,0c-.1-.118-.641-.742-1.383-1.7l-1.525.779,5.768,5.757,10.93-5.666Zm0,0" transform="translate(-160.493 -256.85)" fill="#083f85"/>
  <path id="Path_10424" data-name="Path 10424" d="M.529,408.594l-.46,1.071a.843.843,0,0,0,.776,1.174H13.231a3.42,3.42,0,0,1,.494-.27L7.948,404.8Zm0,0" transform="translate(0 -382.15)" fill="#083f85"/>
  <path id="Path_10425" data-name="Path 10425" d="M312.743,423.759l-1.728-4.024-10.027,5.2h10.979a.843.843,0,0,0,.776-1.174Zm0,0" transform="translate(-284.123 -396.243)" fill="#083f85"/>
  <path id="Path_10426" data-name="Path 10426" d="M244.056,122.35A1.557,1.557,0,1,0,242.5,123.9,1.557,1.557,0,0,0,244.056,122.35Zm0,0" transform="translate(-228.154 -114.768)" fill="#083f85"/>
  <path id="Path_10427" data-name="Path 10427" d="M128.707,22.108c.284-.326,6.957-8.045,6.957-13.351,0-10.942-15.188-11.075-15.188,0,0,5.306,6.673,13.025,6.957,13.351a.845.845,0,0,0,1.273,0ZM125.539,8.083a2.531,2.531,0,1,1,2.531,2.526A2.532,2.532,0,0,1,125.539,8.083Zm0,0" transform="translate(-113.725 -0.5)" fill="#fff"/>
</svg>
