<svg xmlns="http://www.w3.org/2000/svg" width="191.207" height="190.902" viewBox="0 0 191.207 190.902">
  <g id="overlay-img" transform="translate(0 0)">
    <path id="Path_10335" data-name="Path 10335" d="M-1948.153-30.036l.794.021-.286,10.906-.795-.021Z" transform="translate(2045.912 30.036)" fill="#083f85"/>
    <path id="Path_10336" data-name="Path 10336" d="M-1926.285-28.463l-1.355,10.824-.65-.081-6.2-10.325-1.177,9.4-.789-.1,1.355-10.824.665.083,6.184,10.323,1.177-9.4Z" transform="translate(2038.271 29.736)" fill="#083f85"/>
    <path id="Path_10337" data-name="Path 10337" d="M-1885.449-13.91l-1.11,3.588-.759-.235,1.11-3.588-2.084-8.132.834.258,1.869,7.3,5.665-4.968.789.244Z" transform="translate(2007.564 25.089)" fill="#083f85"/>
    <path id="Path_10338" data-name="Path 10338" d="M-1866.2-5.136a5.462,5.462,0,0,1,7.453-2.693,5.462,5.462,0,0,1,2.879,7.383,5.462,5.462,0,0,1-7.453,2.693A5.463,5.463,0,0,1-1866.2-5.136Zm9.594,4.355a4.712,4.712,0,0,0-2.443-6.381,4.715,4.715,0,0,0-6.427,2.354,4.715,4.715,0,0,0,2.458,6.387A4.711,4.711,0,0,0-1856.608-.78Z" transform="translate(1993.813 16.234)" fill="#083f85"/>
    <path id="Path_10339" data-name="Path 10339" d="M-1832.419,10.457l3.4-5.28.668.43-3.384,5.254c-1.477,2.293-1.068,4.076.844,5.308s3.692.859,5.169-1.435l3.384-5.254.668.431-3.4,5.28c-1.688,2.62-3.951,3.054-6.23,1.585S-1834.107,13.077-1832.419,10.457Z" transform="translate(1972.575 7.586)" fill="#083f85"/>
    <path id="Path_10340" data-name="Path 10340" d="M-1804.185,39.495l.389-4.463a7.672,7.672,0,0,1-.857-.629l-2.37-2.024-2.318,2.714-.6-.516,7.085-8.3,2.975,2.54c2.085,1.781,2.451,3.9.954,5.651a3.348,3.348,0,0,1-4.16.936l-.406,4.675Zm-.012-5.626c1.778,1.518,3.434,1.5,4.649.076s.975-3.062-.8-4.58l-2.37-2.024-3.846,4.5Z" transform="translate(1957.614 -5.869)" fill="#083f85"/>
    <path id="Path_10341" data-name="Path 10341" d="M-1766.042,64.734l-8.466,6.879-.5-.617,4.027-3.272-4.6-5.66-4.028,3.272-.5-.617,8.467-6.88.5.617-3.895,3.164,4.6,5.661,3.894-3.164Z" transform="translate(1938.592 -25.99)" fill="#083f85"/>
    <path id="Path_10342" data-name="Path 10342" d="M-1752.555,91.99a5.462,5.462,0,0,1,7.652,2.058,5.462,5.462,0,0,1-1.866,7.7,5.462,5.462,0,0,1-7.652-2.058A5.462,5.462,0,0,1-1752.555,91.99Zm5.372,9.063a4.711,4.711,0,0,0,1.649-6.631,4.715,4.715,0,0,0-6.616-1.748,4.715,4.715,0,0,0-1.642,6.644A4.711,4.711,0,0,0-1747.183,101.053Z" transform="translate(1922.763 -47.249)" fill="#083f85"/>
    <path id="Path_10343" data-name="Path 10343" d="M-1738.154,136.427l8.683-3.427-9.009-1.368-.143-.362,5.642-7.121-8.661,3.4-.284-.726,10.154-3.987.245.624-6.065,7.622,9.631,1.459.24.609-10.149,4Z" transform="translate(1914.247 -67.429)" fill="#083f85"/>
    <path id="Path_10344" data-name="Path 10344" d="M-1725.962,174.326l-.7.162-1.7-7.333,10.627-2.466,1.649,7.1-.7.162-1.469-6.33-4.19.972,1.314,5.662-.683.159-1.314-5.663-4.357,1.011Z" transform="translate(1905.6 -94.113)" fill="#083f85"/>
    <path id="Path_10345" data-name="Path 10345" d="M-1725.62,197.755a3.626,3.626,0,0,1-1.6-.192l-2.349-.556-.222-1.527,2.551.321a1.352,1.352,0,0,1,1.19-1.023,1.444,1.444,0,0,1,1.7,1.28A1.432,1.432,0,0,1-1725.62,197.755Z" transform="translate(1906.513 -113.284)" fill="#083f85"/>
    <path id="Path_10346" data-name="Path 10346" d="M-1709.718,218.686l.105,2.523-10.9.457-.105-2.523Z" transform="translate(1900.663 -128.538)" fill="#083f85"/>
    <path id="Path_10347" data-name="Path 10347" d="M-1710.583,243.952l-10.89-.635.121-2.069,6.928-5.044-6.612-.386.145-2.489,10.89.635-.122,2.084-6.927,5.029,6.612.386Z" transform="translate(1901.208 -137.875)" fill="#083f85"/>
    <path id="Path_10348" data-name="Path 10348" d="M-1724.1,286.643l-3.752-.923.6-2.451,3.783.93,7.818-2.426-.64,2.6-5.4,1.672,4.01,3.987-.592,2.406Z" transform="translate(1905.272 -168.761)" fill="#083f85"/>
    <path id="Path_10349" data-name="Path 10349" d="M-1730.089,307.7a5.647,5.647,0,0,1,3.082,7.614,5.646,5.646,0,0,1-7.429,3.506,5.646,5.646,0,0,1-3.082-7.614A5.646,5.646,0,0,1-1730.089,307.7Zm-3.416,8.739a3.329,3.329,0,0,0,4.495-1.908,3.329,3.329,0,0,0-2.009-4.45,3.328,3.328,0,0,0-4.494,1.909A3.328,3.328,0,0,0-1733.505,316.44Z" transform="translate(1911.738 -185.033)" fill="#083f85"/>
    <path id="Path_10350" data-name="Path 10350" d="M-1745.962,342.163l5.305,3.031-1.253,2.192-5.224-2.984c-1.8-1.028-2.993-.668-3.75.658s-.462,2.536,1.338,3.565l5.224,2.984-1.237,2.165-5.305-3.031c-2.788-1.593-3.418-4.071-1.88-6.764S-1748.749,340.57-1745.962,342.163Z" transform="translate(1921.666 -206.727)" fill="#083f85"/>
    <path id="Path_10351" data-name="Path 10351" d="M-1775.555,371.125l3.691.182.076-.1,1.338-1.743-2.41-1.851,1.537-2,8.653,6.643-2.876,3.745c-1.774,2.312-4.084,2.837-6.024,1.347a3.547,3.547,0,0,1-1.365-3.877l-4.271-.195Zm8.463,3.512,1.252-1.631-3.016-2.316-1.253,1.632c-.939,1.224-.846,2.278.094,3S-1768.031,375.86-1767.091,374.636Z" transform="translate(1936.741 -222.212)" fill="#083f85"/>
    <path id="Path_10352" data-name="Path 10352" d="M-1801.346,413.1l-7.263-8.142,1.884-1.681,2.978,3.338,3.7-3.3-2.978-3.338,1.884-1.681,7.263,8.141-1.884,1.681-2.864-3.21-3.7,3.3,2.863,3.21Z" transform="translate(1956.762 -243.049)" fill="#083f85"/>
    <path id="Path_10353" data-name="Path 10353" d="M-1831.739,426.755l-1.139-1.676,6.987-4.748,6.132,9.024-6.82,4.634-1.139-1.676,4.744-3.224-1.332-1.96-4.19,2.847-1.1-1.624,4.19-2.847-1.419-2.088Z" transform="translate(1972.235 -257.099)" fill="#083f85"/>
    <path id="Path_10354" data-name="Path 10354" d="M-1859.152,440.007l4.519-2.288-.194-2.522,2.308-1.169.59,11.929-2.225,1.126-9.28-7.529,2.364-1.2Zm1.575,1.351,3.43,2.945-.343-4.508Z" transform="translate(1991.716 -265.831)" fill="#083f85"/>
    <path id="Path_10355" data-name="Path 10355" d="M-1888.179,452.11l2.983,2.182.118-.041,2.076-.72-1-2.871,2.385-.827,3.573,10.305-4.461,1.547c-2.753.954-4.97.124-5.772-2.188a3.546,3.546,0,0,1,.992-3.989l-3.46-2.511Zm5.137,7.586,1.943-.674-1.245-3.592-1.944.674c-1.457.505-1.958,1.438-1.571,2.557S-1884.5,460.2-1883.042,459.7Z" transform="translate(2009.126 -275.908)" fill="#083f85"/>
    <path id="Path_10356" data-name="Path 10356" d="M-1905.6,469.261l3.412-.741.436,2.01-9.291,2.017-.437-2.01,3.412-.74-1.879-8.651,2.468-.536Z" transform="translate(2022.348 -282.779)" fill="#083f85"/>
    <path id="Path_10357" data-name="Path 10357" d="M-1936.174,474.357a1.923,1.923,0,0,1-1.793,2.106,1.933,1.933,0,0,1-2.092-1.81,1.946,1.946,0,0,1,1.792-2.121A1.936,1.936,0,0,1-1936.174,474.357Z" transform="translate(2040.573 -290.376)" fill="#083f85"/>
    <path id="Path_10358" data-name="Path 10358" d="M-1962.249,477.447l-.794-.025.341-10.905.794.025Z" transform="translate(2055.223 -286.545)" fill="#083f85"/>
    <path id="Path_10359" data-name="Path 10359" d="M-2000.085,473.932l1.409-10.816.649.084,6.147,10.355,1.224-9.395.788.1-1.409,10.817-.664-.087-6.132-10.353-1.224,9.395Z" transform="translate(2078.839 -284.376)" fill="#083f85"/>
    <path id="Path_10360" data-name="Path 10360" d="M-2039.022,459.2l1.128-3.582.758.238-1.128,3.583,2.044,8.143-.832-.262-1.834-7.308-5.688,4.941-.788-.248Z" transform="translate(2107.706 -279.597)" fill="#083f85"/>
    <path id="Path_10361" data-name="Path 10361" d="M-2062.111,451.637a5.461,5.461,0,0,1-7.464,2.657,5.461,5.461,0,0,1-2.842-7.4,5.46,5.46,0,0,1,7.464-2.657A5.461,5.461,0,0,1-2062.111,451.637Zm-9.571-4.4a4.711,4.711,0,0,0,2.413,6.392,4.715,4.715,0,0,0,6.436-2.324,4.714,4.714,0,0,0-2.426-6.4A4.711,4.711,0,0,0-2071.682,447.237Z" transform="translate(2125.296 -271.979)" fill="#083f85"/>
    <path id="Path_10362" data-name="Path 10362" d="M-2096.485,433.706l-3.425,5.264-.666-.434,3.408-5.238c1.487-2.286,1.087-4.071-.82-5.312s-3.688-.875-5.176,1.411l-3.408,5.238-.666-.433,3.426-5.264c1.7-2.612,3.965-3.035,6.238-1.556S-2094.785,431.093-2096.485,433.706Z" transform="translate(2147.156 -261.054)" fill="#083f85"/>
    <path id="Path_10363" data-name="Path 10363" d="M-2124.883,402.111l-.41,4.461a7.727,7.727,0,0,1,.854.633l2.36,2.035,2.33-2.7.6.519-7.123,8.262-2.962-2.554c-2.077-1.791-2.433-3.908-.927-5.655a3.346,3.346,0,0,1,4.164-.916l.428-4.672Zm-.015,5.625c-1.77-1.526-3.427-1.514-4.648-.1s-.989,3.056.781,4.583l2.36,2.035,3.867-4.485Z" transform="translate(2162.357 -245.106)" fill="#083f85"/>
    <path id="Path_10364" data-name="Path 10364" d="M-2166.669,376.734l8.5-6.837.5.619-4.044,3.253,4.571,5.683,4.044-3.252.5.619-8.5,6.837-.5-.619,3.911-3.145-4.571-5.684-3.911,3.145Z" transform="translate(2185.046 -224.944)" fill="#083f85"/>
    <path id="Path_10365" data-name="Path 10365" d="M-2175.045,353.655a5.462,5.462,0,0,1-7.641-2.1,5.461,5.461,0,0,1,1.9-7.691,5.462,5.462,0,0,1,7.642,2.1A5.462,5.462,0,0,1-2175.045,353.655Zm-5.327-9.089a4.711,4.711,0,0,0-1.682,6.622,4.715,4.715,0,0,0,6.608,1.781,4.715,4.715,0,0,0,1.675-6.636A4.711,4.711,0,0,0-2180.373,344.566Z" transform="translate(2195.797 -207.843)" fill="#083f85"/>
    <path id="Path_10366" data-name="Path 10366" d="M-2194.413,303.974l-8.7,3.384,9,1.412.14.363-5.677,7.093,8.677-3.358.281.727-10.174,3.937-.242-.625,6.1-7.592-9.623-1.506-.236-.61,10.168-3.951Z" transform="translate(2209.396 -182.451)" fill="#083f85"/>
    <path id="Path_10367" data-name="Path 10367" d="M-2203.053,273.963l.7-.158,1.664,7.34-10.639,2.412-1.612-7.112.7-.159,1.437,6.338,4.194-.951L-2207.9,276l.684-.155,1.285,5.669,4.362-.989Z" transform="translate(2214.547 -163.68)" fill="#083f85"/>
    <path id="Path_10368" data-name="Path 10368" d="M-2191.34,262.439a3.627,3.627,0,0,1,1.6.2l2.346.568.215,1.528-2.549-.335a1.354,1.354,0,0,1-1.2,1.018,1.445,1.445,0,0,1-1.692-1.289A1.432,1.432,0,0,1-2191.34,262.439Z" transform="translate(2201.598 -156.417)" fill="#083f85"/>
    <path id="Path_10369" data-name="Path 10369" d="M-2216.886,241.541l-.093-2.523,10.9-.4.093,2.523Z" transform="translate(2217.121 -141.244)" fill="#083f85"/>
    <path id="Path_10370" data-name="Path 10370" d="M-2216.742,202.757l10.886.685-.129,2.068-6.951,5.012,6.609.416-.156,2.488-10.886-.685.131-2.084,6.95-5-6.609-.416Z" transform="translate(2217.371 -118.383)" fill="#083f85"/>
    <path id="Path_10371" data-name="Path 10371" d="M-2204.311,160.035l3.749.942-.616,2.449-3.779-.95-7.832,2.387.654-2.6,5.411-1.645-3.99-4.008.6-2.4Z" transform="translate(2214.45 -87.429)" fill="#083f85"/>
    <path id="Path_10372" data-name="Path 10372" d="M-2196.849,136.847a5.647,5.647,0,0,1-3.045-7.63,5.646,5.646,0,0,1,7.446-3.469,5.646,5.646,0,0,1,3.045,7.629A5.647,5.647,0,0,1-2196.849,136.847Zm3.459-8.723a3.328,3.328,0,0,0-4.5,1.886,3.328,3.328,0,0,0,1.987,4.46,3.328,3.328,0,0,0,4.5-1.886A3.328,3.328,0,0,0-2193.39,128.124Z" transform="translate(2206.537 -69.021)" fill="#083f85"/>
    <path id="Path_10373" data-name="Path 10373" d="M-2183.37,101.52l-5.29-3.057,1.263-2.186,5.209,3.01c1.795,1.037,2.989.683,3.753-.639s.474-2.534-1.321-3.571l-5.209-3.01,1.247-2.159,5.29,3.057c2.78,1.606,3.4,4.088,1.846,6.773S-2180.59,103.126-2183.37,101.52Z" transform="translate(2199.066 -46.435)" fill="#083f85"/>
    <path id="Path_10374" data-name="Path 10374" d="M-2156.488,72.485l-3.691-.2-.077.1-1.346,1.737,2.4,1.862-1.547,2-8.621-6.686,2.894-3.732c1.786-2.3,4.1-2.818,6.031-1.319a3.547,3.547,0,0,1,1.346,3.885l4.271.215Zm-8.447-3.553-1.261,1.626,3.005,2.331,1.261-1.626c.946-1.219.856-2.274-.08-3S-2163.989,67.713-2164.935,68.932Z" transform="translate(2186.767 -30.805)" fill="#083f85"/>
    <path id="Path_10375" data-name="Path 10375" d="M-2130.821,26.727l7.224,8.176-1.892,1.672-2.962-3.352-3.714,3.282,2.962,3.352-1.892,1.672-7.224-8.176,1.892-1.672,2.848,3.224,3.714-3.282-2.848-3.224Z" transform="translate(2166.971 -6.154)" fill="#083f85"/>
    <path id="Path_10376" data-name="Path 10376" d="M-2097.521,15.239l1.131,1.681-7.008,4.715-6.089-9.051,6.84-4.6,1.131,1.681-4.759,3.2,1.323,1.965,4.2-2.827,1.1,1.629-4.2,2.827,1.409,2.095Z" transform="translate(2148.59 5.797)" fill="#083f85"/>
    <path id="Path_10377" data-name="Path 10377" d="M-2067.156,3.15l-4.531,2.265.181,2.523-2.315,1.157-.528-11.933,2.231-1.115,9.241,7.579-2.37,1.184Zm-1.568-1.36-3.415-2.963.32,4.51Z" transform="translate(2126.187 13.407)" fill="#083f85"/>
    <path id="Path_10378" data-name="Path 10378" d="M-2040.185-7.357l-2.972-2.2-.118.04-2.08.71.981,2.876-2.389.815-3.523-10.325,4.469-1.525c2.758-.941,4.972-.1,5.762,2.216a3.547,3.547,0,0,1-1.012,3.984l3.448,2.528Zm-5.1-7.613-1.947.664,1.228,3.6,1.947-.664c1.46-.5,1.966-1.428,1.584-2.549S-2043.825-15.468-2045.285-14.97Z" transform="translate(2110.845 21.942)" fill="#083f85"/>
    <path id="Path_10379" data-name="Path 10379" d="M-2017.483-23.832l-3.415.725-.427-2.013,9.3-1.974.427,2.013-3.415.725,1.838,8.661-2.47.524Z" transform="translate(2092.381 28.16)" fill="#083f85"/>
    <path id="Path_10380" data-name="Path 10380" d="M-1976.667-14.727a1.923,1.923,0,0,1,1.8-2.1A1.933,1.933,0,0,1-1972.78-15a1.946,1.946,0,0,1-1.8,2.113A1.936,1.936,0,0,1-1976.667-14.727Z" transform="translate(2063.912 21.616)" fill="#083f85"/>
  </g>
</svg>
