<svg xmlns="http://www.w3.org/2000/svg" width="223.594" height="223.236" viewBox="0 0 223.594 223.236">
  <g id="overlay-img-dual-color" transform="translate(0 0.001)">
    <path id="Path_10335" data-name="Path 10335" d="M-1948.1-30.036l.929.024-.335,12.753-.929-.024Z" transform="translate(2062.422 30.035)" fill="#fff"/>
    <path id="Path_10336" data-name="Path 10336" d="M-1924.563-28.276l-1.584,12.657-.76-.095-7.249-12.074-1.376,10.994-.922-.115,1.584-12.657.778.1,7.231,12.072,1.376-10.994Z" transform="translate(2055.516 29.765)" fill="#fff"/>
    <path id="Path_10337" data-name="Path 10337" d="M-1884.967-12.492l-1.3,4.2-.888-.275,1.3-4.2-2.437-9.51.975.3,2.185,8.536,6.624-5.81.923.286Z" transform="translate(2027.766 25.565)" fill="#fff"/>
    <path id="Path_10338" data-name="Path 10338" d="M-1866.114-4.585a6.388,6.388,0,0,1,8.715-3.149A6.387,6.387,0,0,1-1854.032.9a6.387,6.387,0,0,1-8.715,3.149A6.388,6.388,0,0,1-1866.114-4.585ZM-1854.9.508a5.51,5.51,0,0,0-2.857-7.462,5.514,5.514,0,0,0-7.515,2.753,5.514,5.514,0,0,0,2.874,7.469A5.509,5.509,0,0,0-1854.9.508Z" transform="translate(2015.34 17.562)" fill="#fff"/>
    <path id="Path_10339" data-name="Path 10339" d="M-1832.251,11.351l3.977-6.174.781.5-3.958,6.143c-1.727,2.682-1.249,4.766.988,6.207s4.318,1,6.045-1.678l3.958-6.143.781.5-3.977,6.174c-1.974,3.064-4.62,3.571-7.285,1.854S-1834.225,14.415-1832.251,11.351Z" transform="translate(1996.146 9.747)" fill="#fff"/>
    <path id="Path_10340" data-name="Path 10340" d="M-1803.209,41.733l.455-5.219a8.979,8.979,0,0,1-1-.735l-2.771-2.367-2.71,3.174-.707-.6,8.285-9.7,3.479,2.971c2.439,2.083,2.866,4.557,1.115,6.608a3.915,3.915,0,0,1-4.865,1.094l-.474,5.467Zm-.014-6.579c2.079,1.775,4.016,1.752,5.436.089s1.14-3.58-.939-5.356l-2.772-2.367-4.5,5.267Z" transform="translate(1982.626 -2.412)" fill="#fff"/>
    <path id="Path_10341" data-name="Path 10341" d="M-1763.659,65.9l-9.9,8.044-.586-.721,4.71-3.827-5.378-6.619-4.71,3.826-.586-.721,9.9-8.045.586.721-4.555,3.7,5.379,6.619,4.554-3.7Z" transform="translate(1965.436 -20.596)" fill="#fff"/>
    <path id="Path_10342" data-name="Path 10342" d="M-1752.093,92.127a6.387,6.387,0,0,1,8.948,2.407,6.387,6.387,0,0,1-2.182,9.006,6.387,6.387,0,0,1-8.948-2.407A6.387,6.387,0,0,1-1752.093,92.127Zm6.282,10.6a5.509,5.509,0,0,0,1.929-7.754,5.514,5.514,0,0,0-7.737-2.045,5.514,5.514,0,0,0-1.92,7.769A5.509,5.509,0,0,0-1745.811,102.724Z" transform="translate(1951.131 -39.808)" fill="#fff"/>
    <path id="Path_10343" data-name="Path 10343" d="M-1737.516,138.728l10.154-4.007-10.535-1.6-.167-.424,6.6-8.327-10.128,3.977-.333-.849,11.874-4.663.286.729-7.092,8.913,11.262,1.706.28.712-11.868,4.68Z" transform="translate(1943.435 -58.045)" fill="#fff"/>
    <path id="Path_10344" data-name="Path 10344" d="M-1725.556,175.958l-.817.19-1.99-8.575,12.427-2.884,1.928,8.308-.816.189-1.718-7.4-4.9,1.137,1.536,6.622-.8.186-1.537-6.622-5.095,1.182Z" transform="translate(1935.62 -82.16)" fill="#fff"/>
    <path id="Path_10345" data-name="Path 10345" d="M-1724.913,198.262a4.239,4.239,0,0,1-1.875-.225l-2.747-.65-.26-1.785,2.983.376a1.58,1.58,0,0,1,1.391-1.2,1.689,1.689,0,0,1,1.986,1.5A1.674,1.674,0,0,1-1724.913,198.262Z" transform="translate(1936.446 -99.485)" fill="#083f85"/>
    <path id="Path_10346" data-name="Path 10346" d="M-1707.871,218.686l.123,2.95-12.748.534-.123-2.95Z" transform="translate(1931.159 -113.27)" fill="#083f85"/>
    <path id="Path_10347" data-name="Path 10347" d="M-1708.738,245.752l-12.735-.743.141-2.42,8.1-5.9-7.732-.451.17-2.91,12.734.743-.142,2.437-8.1,5.88,7.732.451Z" transform="translate(1931.651 -121.708)" fill="#083f85"/>
    <path id="Path_10348" data-name="Path 10348" d="M-1723.46,287.468l-4.388-1.079.7-2.866,4.424,1.088,9.142-2.837-.749,3.044-6.317,1.955,4.689,4.663-.692,2.813Z" transform="translate(1935.324 -149.62)" fill="#083f85"/>
    <path id="Path_10349" data-name="Path 10349" d="M-1728.751,307.769c3.531,1.38,5.07,5.152,3.6,8.9-1.46,3.735-5.139,5.487-8.687,4.1s-5.064-5.169-3.6-8.9C-1735.972,308.117-1732.282,306.388-1728.751,307.769Zm-3.995,10.219a3.892,3.892,0,0,0,5.256-2.231,3.893,3.893,0,0,0-2.35-5.2,3.892,3.892,0,0,0-5.256,2.232A3.892,3.892,0,0,0-1732.746,317.988Z" transform="translate(1941.168 -164.325)" fill="#083f85"/>
    <path id="Path_10350" data-name="Path 10350" d="M-1744.674,342.3l6.2,3.544-1.465,2.563-6.108-3.49c-2.1-1.2-3.5-.782-4.385.769-.9,1.567-.54,2.966,1.564,4.168l6.109,3.49-1.447,2.532-6.2-3.544c-3.26-1.862-4-4.76-2.2-7.91S-1747.934,340.442-1744.674,342.3Z" transform="translate(1950.14 -183.931)" fill="#083f85"/>
    <path id="Path_10351" data-name="Path 10351" d="M-1775.275,372.058l4.317.213.089-.115,1.565-2.038-2.819-2.164,1.8-2.342,10.118,7.768-3.363,4.379c-2.075,2.7-4.776,3.318-7.045,1.575a4.148,4.148,0,0,1-1.6-4.534l-4.995-.228Zm9.9,4.107,1.465-1.908-3.526-2.708-1.465,1.908c-1.1,1.431-.989,2.664.11,3.507S-1766.477,377.6-1765.378,376.165Z" transform="translate(1963.763 -197.925)" fill="#083f85"/>
    <path id="Path_10352" data-name="Path 10352" d="M-1800.116,415.6l-8.493-9.521,2.2-1.965,3.482,3.9,4.325-3.858-3.482-3.9,2.2-1.965,8.493,9.52-2.2,1.966-3.349-3.754-4.325,3.858,3.348,3.754Z" transform="translate(1981.856 -216.756)" fill="#083f85"/>
    <path id="Path_10353" data-name="Path 10353" d="M-1831.546,427.843l-1.332-1.96,8.171-5.552,7.171,10.552-7.975,5.419-1.332-1.96,5.547-3.77-1.557-2.292-4.9,3.329-1.291-1.9,4.9-3.33-1.659-2.442Z" transform="translate(1995.839 -229.452)" fill="#083f85"/>
    <path id="Path_10354" data-name="Path 10354" d="M-1858.427,441.019l5.284-2.676-.227-2.949,2.7-1.366.69,13.949-2.6,1.317-10.852-8.8,2.764-1.4Zm1.842,1.58,4.01,3.444-.4-5.271Z" transform="translate(2013.444 -237.344)" fill="#083f85"/>
    <path id="Path_10355" data-name="Path 10355" d="M-1887.745,452.5l3.488,2.551.138-.048,2.427-.842-1.164-3.357,2.789-.967,4.179,12.051-5.217,1.809c-3.219,1.116-5.812.145-6.75-2.558a4.147,4.147,0,0,1,1.16-4.664l-4.046-2.936Zm6.007,8.871,2.272-.788-1.456-4.2-2.273.788c-1.7.591-2.29,1.681-1.837,2.99C-1884.572,461.481-1883.442,461.957-1881.738,461.366Z" transform="translate(2029.177 -246.45)" fill="#083f85"/>
    <path id="Path_10356" data-name="Path 10356" d="M-1904.6,470.726l3.99-.866.51,2.351-10.864,2.359-.511-2.351,3.989-.866-2.2-10.117,2.885-.626Z" transform="translate(2041.126 -252.659)" fill="#083f85"/>
    <path id="Path_10357" data-name="Path 10357" d="M-1935.515,474.667a2.249,2.249,0,0,1-2.1,2.463,2.26,2.26,0,0,1-2.446-2.117,2.275,2.275,0,0,1,2.1-2.481A2.264,2.264,0,0,1-1935.515,474.667Z" transform="translate(2057.597 -259.525)" fill="#083f85"/>
    <path id="Path_10358" data-name="Path 10358" d="M-1962.114,479.3l-.929-.029.4-12.752.929.029Z" transform="translate(2070.836 -256.063)" fill="#083f85"/>
    <path id="Path_10359" data-name="Path 10359" d="M-2000.085,475.764l1.648-12.648.759.1,7.188,12.109,1.431-10.986.921.12-1.648,12.649-.777-.1-7.17-12.107-1.431,10.986Z" transform="translate(2092.178 -254.103)" fill="#083f85"/>
    <path id="Path_10360" data-name="Path 10360" d="M-2037.948,459.808l1.319-4.189.887.279-1.319,4.19,2.391,9.522-.973-.306-2.145-8.546-6.652,5.778-.922-.29Z" transform="translate(2118.265 -249.784)" fill="#083f85"/>
    <path id="Path_10361" data-name="Path 10361" d="M-2060.275,452.987a6.386,6.386,0,0,1-8.729,3.107,6.385,6.385,0,0,1-3.324-8.648,6.385,6.385,0,0,1,8.728-3.107A6.386,6.386,0,0,1-2060.275,452.987Zm-11.192-5.145a5.509,5.509,0,0,0,2.821,7.474,5.513,5.513,0,0,0,7.526-2.717,5.512,5.512,0,0,0-2.837-7.482A5.509,5.509,0,0,0-2071.467,447.841Z" transform="translate(2134.161 -242.9)" fill="#083f85"/>
    <path id="Path_10362" data-name="Path 10362" d="M-2094.664,434.921l-4.005,6.156-.779-.507,3.986-6.125c1.739-2.673,1.271-4.761-.958-6.212s-4.313-1.023-6.053,1.65l-3.985,6.125-.779-.507,4.006-6.156c1.988-3.055,4.636-3.55,7.294-1.82S-2092.675,431.865-2094.664,434.921Z" transform="translate(2153.916 -233.026)" fill="#083f85"/>
    <path id="Path_10363" data-name="Path 10363" d="M-2123.833,402.211l-.48,5.217a9.052,9.052,0,0,1,1,.74l2.76,2.38,2.725-3.16.7.607-8.33,9.661-3.464-2.987c-2.429-2.094-2.845-4.57-1.084-6.613a3.913,3.913,0,0,1,4.869-1.071l.5-5.464Zm-.018,6.578c-2.07-1.785-4.007-1.771-5.435-.114s-1.156,3.574.913,5.359l2.76,2.38,4.522-5.244Z" transform="translate(2167.655 -218.614)" fill="#083f85"/>
    <path id="Path_10364" data-name="Path 10364" d="M-2166.669,377.892l9.941-7.995.583.724-4.729,3.8,5.345,6.646,4.729-3.8.583.724-9.941,7.995-.583-.724,4.573-3.678-5.345-6.647-4.573,3.678Z" transform="translate(2188.158 -200.393)" fill="#083f85"/>
    <path id="Path_10365" data-name="Path 10365" d="M-2173.608,355.447a6.387,6.387,0,0,1-8.936-2.451,6.386,6.386,0,0,1,2.227-8.994,6.387,6.387,0,0,1,8.936,2.451A6.387,6.387,0,0,1-2173.608,355.447Zm-6.23-10.628a5.51,5.51,0,0,0-1.967,7.743,5.514,5.514,0,0,0,7.727,2.083,5.514,5.514,0,0,0,1.958-7.759A5.509,5.509,0,0,0-2179.838,344.819Z" transform="translate(2197.875 -184.939)" fill="#083f85"/>
    <path id="Path_10366" data-name="Path 10366" d="M-2192.643,304.1l-10.174,3.957,10.528,1.652.164.425-6.639,8.294,10.147-3.927.329.85-11.9,4.6-.283-.731,7.136-8.878-11.253-1.761-.276-.714,11.89-4.621Z" transform="translate(2210.163 -161.992)" fill="#083f85"/>
    <path id="Path_10367" data-name="Path 10367" d="M-2201.379,273.99l.817-.185,1.946,8.583-12.44,2.82-1.885-8.317.817-.186,1.681,7.411,4.9-1.112-1.5-6.629.8-.181,1.5,6.629,5.1-1.156Z" transform="translate(2214.819 -145.028)" fill="#083f85"/>
    <path id="Path_10368" data-name="Path 10368" d="M-2191.122,262.443a4.241,4.241,0,0,1,1.874.234l2.743.664.251,1.787-2.981-.391a1.583,1.583,0,0,1-1.4,1.191,1.689,1.689,0,0,1-1.979-1.508A1.674,1.674,0,0,1-2191.122,262.443Z" transform="translate(2203.117 -138.464)" fill="#083f85"/>
    <path id="Path_10369" data-name="Path 10369" d="M-2216.871,242.036l-.109-2.95,12.749-.471.108,2.95Z" transform="translate(2217.146 -124.753)" fill="#083f85"/>
    <path id="Path_10370" data-name="Path 10370" d="M-2216.636,202.757l12.73.8-.151,2.418-8.129,5.861,7.729.486-.183,2.91-12.73-.8.154-2.437,8.127-5.842-7.728-.487Z" transform="translate(2217.371 -104.093)" fill="#083f85"/>
    <path id="Path_10371" data-name="Path 10371" d="M-2202.875,161.023l4.384,1.1-.72,2.863-4.418-1.111-9.158,2.791.765-3.04,6.327-1.923-4.666-4.687.707-2.81Z" transform="translate(2214.731 -76.12)" fill="#083f85"/>
    <path id="Path_10372" data-name="Path 10372" d="M-2196.251,138.8c-3.524-1.4-5.046-5.178-3.561-8.922,1.478-3.728,5.166-5.462,8.707-4.057s5.039,5.194,3.561,8.922C-2189.03,138.485-2192.727,140.195-2196.251,138.8Zm4.045-10.2a3.892,3.892,0,0,0-5.267,2.206,3.892,3.892,0,0,0,2.324,5.216,3.892,3.892,0,0,0,5.267-2.206A3.891,3.891,0,0,0-2192.206,128.6Z" transform="translate(2207.58 -59.484)" fill="#083f85"/>
    <path id="Path_10373" data-name="Path 10373" d="M-2182.474,103.487l-6.186-3.575,1.478-2.557,6.091,3.52c2.1,1.213,3.5.8,4.389-.748.9-1.562.554-2.963-1.544-4.176l-6.091-3.52,1.458-2.525,6.186,3.575c3.251,1.878,3.974,4.78,2.159,7.92S-2179.223,105.365-2182.474,103.487Z" transform="translate(2200.828 -39.073)" fill="#083f85"/>
    <path id="Path_10374" data-name="Path 10374" d="M-2154.306,73.686l-4.316-.234-.089.115-1.574,2.031,2.808,2.178-1.809,2.333-10.082-7.818,3.384-4.364c2.088-2.693,4.792-3.3,7.053-1.542a4.147,4.147,0,0,1,1.574,4.543l4.994.252Zm-9.878-4.154-1.474,1.9,3.514,2.725,1.475-1.9c1.106-1.426,1-2.66-.093-3.508S-2163.079,68.106-2164.185,69.532Z" transform="translate(2189.714 -24.948)" fill="#083f85"/>
    <path id="Path_10375" data-name="Path 10375" d="M-2129.551,26.727l8.447,9.561-2.212,1.955-3.464-3.92-4.344,3.838,3.463,3.92-2.213,1.955-8.447-9.561,2.213-1.955,3.331,3.77,4.343-3.838-3.331-3.77Z" transform="translate(2171.825 -2.67)" fill="#fff"/>
    <path id="Path_10376" data-name="Path 10376" d="M-2095.495,16.468l1.322,1.966-8.2,5.514-7.121-10.584,8-5.381,1.322,1.966-5.565,3.744,1.547,2.3,4.914-3.306,1.282,1.905-4.914,3.306,1.648,2.449Z" transform="translate(2155.213 8.131)" fill="#fff"/>
    <path id="Path_10377" data-name="Path 10377" d="M-2065.938,4.353l-5.3,2.649.212,2.95-2.707,1.353-.617-13.955,2.609-1.3,10.807,8.862-2.771,1.385Zm-1.834-1.59L-2071.766-.7l.374,5.274Z" transform="translate(2134.967 15.008)" fill="#fff"/>
    <path id="Path_10378" data-name="Path 10378" d="M-2038.474-5.666l-3.476-2.569-.138.047-2.432.83,1.148,3.364-2.794.953-4.12-12.073,5.226-1.783c3.225-1.1,5.814-.116,6.738,2.592a4.148,4.148,0,0,1-1.183,4.659l4.032,2.957Zm-5.964-8.9-2.277.777,1.436,4.208,2.277-.776c1.708-.583,2.3-1.67,1.852-2.981C-2041.6-14.669-2042.73-15.151-2044.438-14.568Z" transform="translate(2121.102 22.721)" fill="#fff"/>
    <path id="Path_10379" data-name="Path 10379" d="M-2016.832-23.28l-3.994.847-.5-2.354,10.876-2.308.5,2.354-3.994.848,2.149,10.127-2.888.613Z" transform="translate(2104.416 28.34)" fill="#fff"/>
    <path id="Path_10380" data-name="Path 10380" d="M-1976.666-14.371a2.249,2.249,0,0,1,2.109-2.452,2.26,2.26,0,0,1,2.435,2.129,2.276,2.276,0,0,1-2.108,2.471A2.264,2.264,0,0,1-1976.666-14.371Z" transform="translate(2078.688 22.426)" fill="#fff"/>
  </g>
</svg>
