<svg id="radius-icon" xmlns="http://www.w3.org/2000/svg" width="27.379" height="27.379" viewBox="0 0 27.379 27.379">
  <circle id="Ellipse_455" data-name="Ellipse 455" cx="1.744" cy="1.744" r="1.744" transform="translate(11.946 11.946)" fill="#39b6e9"/>
  <path id="Path_11175" data-name="Path 11175" d="M25.42,6.612a3.306,3.306,0,0,1-3.757.239l-5.132,5.132A3.318,3.318,0,1,1,15.4,10.849l5.132-5.132A3.307,3.307,0,0,1,20.84,1.87,13.511,13.511,0,0,0,13.69,0a13.69,13.69,0,1,0,13.69,13.69A13.408,13.408,0,0,0,25.42,6.612Z" transform="translate(0 0)" fill="#083f85"/>
  <circle id="Ellipse_456" data-name="Ellipse 456" cx="1.711" cy="1.711" r="1.711" transform="translate(21.659 2.298)" fill="#39b6e9"/>
</svg>
