<svg xmlns="http://www.w3.org/2000/svg" width="280.57" height="280.123" viewBox="0 0 280.57 280.123">
  <g id="round-img-white" transform="translate(2217.371 30.036)">
    <path id="Path_10335" data-name="Path 10335" d="M-1948.019-30.036l1.166.03-.42,16-1.166-.03Z" transform="translate(-125.904 0)" fill="#fff"/>
    <path id="Path_10336" data-name="Path 10336" d="M-1921.532-27.947l-1.988,15.883-.953-.119-9.1-15.15-1.727,13.8-1.157-.145,1.988-15.883.976.122,9.073,15.148,1.727-13.8Z" transform="translate(-131.516 -0.22)" fill="#fff"/>
    <path id="Path_10337" data-name="Path 10337" d="M-1884.12-10l-1.629,5.265-1.114-.345,1.629-5.265-3.057-11.933,1.223.378,2.742,10.711,8.312-7.29,1.158.358Z" transform="translate(-154.063 -3.632)" fill="#fff"/>
    <path id="Path_10338" data-name="Path 10338" d="M-1865.958-3.616a8.015,8.015,0,0,1,10.936-3.951A8.014,8.014,0,0,1-1850.8,3.266a8.015,8.015,0,0,1-10.936,3.952A8.016,8.016,0,0,1-1865.958-3.616Zm14.077,6.391a6.914,6.914,0,0,0-3.585-9.363,6.919,6.919,0,0,0-9.43,3.454,6.919,6.919,0,0,0,3.606,9.373A6.913,6.913,0,0,0-1851.881,2.775Z" transform="translate(-164.161 -10.135)" fill="#fff"/>
    <path id="Path_10339" data-name="Path 10339" d="M-1831.956,12.924l4.991-7.747.98.631-4.966,7.709c-2.167,3.365-1.567,5.981,1.239,7.789s5.418,1.26,7.585-2.105l4.966-7.709.98.632-4.991,7.747c-2.477,3.845-5.8,4.481-9.142,2.326S-1834.433,16.769-1831.956,12.924Z" transform="translate(-179.757 -16.486)" fill="#fff"/>
    <path id="Path_10340" data-name="Path 10340" d="M-1801.493,45.671l.571-6.55a11.254,11.254,0,0,1-1.258-.923l-3.478-2.97-3.4,3.982-.887-.757,10.4-12.173,4.365,3.728c3.06,2.613,3.6,5.718,1.4,8.292a4.912,4.912,0,0,1-6.1,1.373l-.595,6.86Zm-.018-8.255c2.609,2.228,5.04,2.2,6.822.112,1.8-2.1,1.43-4.492-1.178-6.72l-3.478-2.97-5.643,6.609Z" transform="translate(-190.743 -26.365)" fill="#fff"/>
    <path id="Path_10341" data-name="Path 10341" d="M-1759.467,67.957l-12.423,10.094-.736-.905,5.91-4.8-6.749-8.306-5.91,4.8-.735-.9,12.424-10.095.735.905-5.715,4.643,6.749,8.306,5.715-4.643Z" transform="translate(-204.711 -41.14)" fill="#fff"/>
    <path id="Path_10342" data-name="Path 10342" d="M-1751.281,92.367a8.015,8.015,0,0,1,11.228,3.02,8.014,8.014,0,0,1-2.738,11.3,8.014,8.014,0,0,1-11.228-3.02A8.015,8.015,0,0,1-1751.281,92.367Zm7.884,13.3a6.913,6.913,0,0,0,2.42-9.729,6.919,6.919,0,0,0-9.708-2.566,6.919,6.919,0,0,0-2.409,9.749A6.913,6.913,0,0,0-1743.4,105.665Z" transform="translate(-216.334 -56.751)" fill="#fff"/>
    <path id="Path_10343" data-name="Path 10343" d="M-1736.392,142.778l12.742-5.028-13.219-2.008-.21-.532,8.28-10.45-12.708,4.99-.417-1.065,14.9-5.851.359.915-8.9,11.184,14.132,2.141.351.894-14.892,5.872Z" transform="translate(-222.587 -71.569)" fill="#fff"/>
    <path id="Path_10344" data-name="Path 10344" d="M-1724.841,178.83l-1.025.238-2.5-10.76,15.593-3.619,2.419,10.425-1.024.238-2.156-9.289-6.148,1.427,1.928,8.309-1,.233-1.929-8.309-6.393,1.484Z" transform="translate(-228.937 -91.164)" fill="#fff"/>
    <path id="Path_10345" data-name="Path 10345" d="M-1723.669,199.155a5.32,5.32,0,0,1-2.352-.282l-3.447-.816-.326-2.24,3.744.472a1.983,1.983,0,0,1,1.746-1.5,2.119,2.119,0,0,1,2.492,1.879A2.1,2.1,0,0,1-1723.669,199.155Z" transform="translate(-228.266 -105.241)" fill="#fff"/>
    <path id="Path_10346" data-name="Path 10346" d="M-1704.623,218.686l.155,3.7-16,.671-.155-3.7Z" transform="translate(-232.562 -116.443)" fill="#fff"/>
    <path id="Path_10347" data-name="Path 10347" d="M-1705.493,248.917l-15.98-.932.177-3.036,10.167-7.4-9.7-.566.213-3.652,15.979.932-.178,3.059-10.165,7.379,9.7.566Z" transform="translate(-232.162 -123.299)" fill="#fff"/>
    <path id="Path_10348" data-name="Path 10348" d="M-1722.342,288.919l-5.506-1.354.885-3.6,5.551,1.365,11.472-3.56-.939,3.819-7.926,2.453,5.884,5.851-.869,3.53Z" transform="translate(-229.178 -145.979)" fill="#fff"/>
    <path id="Path_10349" data-name="Path 10349" d="M-1726.4,307.889c4.431,1.732,6.362,6.465,4.523,11.173-1.833,4.687-6.449,6.885-10.9,5.144s-6.354-6.486-4.523-11.173C-1735.458,308.326-1730.828,306.157-1726.4,307.889Zm-5.012,12.824a4.884,4.884,0,0,0,6.6-2.8,4.885,4.885,0,0,0-2.948-6.53,4.884,4.884,0,0,0-6.595,2.8A4.883,4.883,0,0,0-1731.41,320.713Z" transform="translate(-224.429 -157.927)" fill="#fff"/>
    <path id="Path_10350" data-name="Path 10350" d="M-1742.409,342.555l7.784,4.447-1.838,3.217-7.665-4.379c-2.641-1.509-4.391-.981-5.5.965-1.124,1.966-.678,3.722,1.963,5.231l7.666,4.379-1.815,3.177-7.784-4.447c-4.091-2.337-5.016-5.974-2.758-9.926S-1746.5,340.217-1742.409,342.555Z" transform="translate(-217.139 -173.858)" fill="#fff"/>
    <path id="Path_10351" data-name="Path 10351" d="M-1774.783,373.7l5.417.267.112-.145,1.964-2.558-3.537-2.716,2.256-2.938,12.7,9.748-4.22,5.5c-2.6,3.392-5.993,4.163-8.84,1.977a5.2,5.2,0,0,1-2-5.69l-6.267-.286Zm12.419,5.153,1.838-2.394-4.425-3.4-1.838,2.394c-1.379,1.8-1.241,3.343.137,4.4C-1765.255,380.93-1763.743,380.65-1762.364,378.854Z" transform="translate(-206.07 -185.229)" fill="#fff"/>
    <path id="Path_10352" data-name="Path 10352" d="M-1797.952,420.015l-10.657-11.947,2.764-2.466,4.37,4.9,5.427-4.841-4.369-4.9,2.765-2.466L-1787,410.241l-2.765,2.467-4.2-4.71-5.427,4.841,4.2,4.71Z" transform="translate(-191.368 -200.53)" fill="#fff"/>
    <path id="Path_10353" data-name="Path 10353" d="M-1831.207,429.757l-1.671-2.459,10.253-6.966,9,13.241-10.007,6.8-1.671-2.459,6.961-4.73-1.954-2.876-6.148,4.177-1.62-2.383,6.148-4.178L-1824,424.86Z" transform="translate(-180.006 -210.846)" fill="#fff"/>
    <path id="Path_10354" data-name="Path 10354" d="M-1857.151,442.8l6.63-3.358-.285-3.7,3.386-1.715.866,17.5-3.265,1.653-13.617-11.047,3.468-1.756Zm2.312,1.983,5.032,4.321-.5-6.615Z" transform="translate(-165.701 -217.259)" fill="#fff"/>
    <path id="Path_10355" data-name="Path 10355" d="M-1886.982,453.174l4.377,3.2.173-.06,3.046-1.056-1.46-4.212,3.5-1.214,5.243,15.122-6.546,2.27c-4.04,1.4-7.293.181-8.469-3.21a5.2,5.2,0,0,1,1.456-5.853l-5.077-3.685Zm7.538,11.132,2.851-.989-1.827-5.271-2.852.989c-2.138.741-2.874,2.11-2.3,3.751C-1883,464.449-1881.583,465.047-1879.444,464.305Z" transform="translate(-152.917 -224.658)" fill="#fff"/>
    <path id="Path_10356" data-name="Path 10356" d="M-1902.853,473.3l5.006-1.087.64,2.95-13.633,2.96-.641-2.95,5.006-1.087-2.756-12.695,3.621-.786Z" transform="translate(-143.208 -229.703)" fill="#fff"/>
    <path id="Path_10357" data-name="Path 10357" d="M-1934.355,475.213a2.822,2.822,0,0,1-2.632,3.09,2.836,2.836,0,0,1-3.069-2.657,2.855,2.855,0,0,1,2.63-3.113A2.841,2.841,0,0,1-1934.355,475.213Z" transform="translate(-129.825 -235.282)" fill="#fff"/>
    <path id="Path_10358" data-name="Path 10358" d="M-1961.877,482.556l-1.166-.037.5-16,1.166.036Z" transform="translate(-119.068 -232.469)" fill="#fff"/>
    <path id="Path_10359" data-name="Path 10359" d="M-2000.085,478.987l2.068-15.871.952.124,9.02,15.195,1.8-13.786,1.156.15-2.067,15.872-.975-.127-9-15.192-1.8,13.786Z" transform="translate(-101.726 -230.877)" fill="#fff"/>
    <path id="Path_10360" data-name="Path 10360" d="M-2036.059,460.876l1.655-5.257,1.113.35-1.655,5.257,3,11.948-1.221-.385-2.691-10.724-8.347,7.251-1.156-.364Z" transform="translate(-80.528 -227.367)" fill="#fff"/>
    <path id="Path_10361" data-name="Path 10361" d="M-2057.045,455.36a8.013,8.013,0,0,1-10.953,3.9,8.013,8.013,0,0,1-4.171-10.852,8.012,8.012,0,0,1,10.952-3.9A8.013,8.013,0,0,1-2057.045,455.36Zm-14.044-6.457a6.913,6.913,0,0,0,3.54,9.379,6.918,6.918,0,0,0,9.444-3.41,6.917,6.917,0,0,0-3.56-9.388A6.913,6.913,0,0,0-2071.088,448.9Z" transform="translate(-67.613 -221.773)" fill="#fff"/>
    <path id="Path_10362" data-name="Path 10362" d="M-2091.459,437.058l-5.026,7.724-.978-.636,5-7.686c2.182-3.354,1.6-5.974-1.2-7.8s-5.412-1.284-7.6,2.07l-5,7.686-.978-.636,5.026-7.724c2.5-3.833,5.818-4.454,9.153-2.284S-2088.964,433.224-2091.459,437.058Z" transform="translate(-51.56 -213.75)" fill="#fff"/>
    <path id="Path_10363" data-name="Path 10363" d="M-2121.986,402.387l-.6,6.546a11.355,11.355,0,0,1,1.252.929l3.464,2.986,3.419-3.965.883.761-10.452,12.123-4.347-3.748c-3.048-2.628-3.57-5.735-1.36-8.3a4.91,4.91,0,0,1,6.11-1.344l.628-6.856Zm-.022,8.254c-2.6-2.24-5.028-2.222-6.82-.144-1.807,2.1-1.451,4.485,1.146,6.724l3.463,2.986,5.675-6.58Z" transform="translate(-40.397 -202.04)" fill="#fff"/>
    <path id="Path_10364" data-name="Path 10364" d="M-2166.669,379.929l12.475-10.032.731.909-5.935,4.773,6.707,8.34,5.934-4.772.731.909-12.474,10.032-.731-.909,5.738-4.615-6.707-8.34-5.738,4.615Z" transform="translate(-23.737 -187.235)" fill="#fff"/>
    <path id="Path_10365" data-name="Path 10365" d="M-2171.079,358.6a8.014,8.014,0,0,1-11.212-3.076,8.014,8.014,0,0,1,2.794-11.286,8.015,8.015,0,0,1,11.213,3.076A8.015,8.015,0,0,1-2171.079,358.6Zm-7.817-13.336a6.914,6.914,0,0,0-2.469,9.717,6.919,6.919,0,0,0,9.7,2.613,6.919,6.919,0,0,0,2.457-9.737A6.913,6.913,0,0,0-2178.9,345.263Z" transform="translate(-15.842 -174.677)" fill="#fff"/>
    <path id="Path_10366" data-name="Path 10366" d="M-2189.529,304.314l-12.767,4.965,13.21,2.073.206.533-8.331,10.408,12.732-4.927.413,1.067-14.928,5.777-.355-.917,8.954-11.14-14.12-2.21-.347-.9,14.92-5.8Z" transform="translate(-5.856 -156.032)" fill="#fff"/>
    <path id="Path_10367" data-name="Path 10367" d="M-2198.432,274.037l1.026-.232,2.442,10.771-15.611,3.539-2.365-10.436,1.026-.233,2.109,9.3,6.154-1.4-1.885-8.318,1-.228,1.886,8.318,6.4-1.451Z" transform="translate(-2.074 -142.248)" fill="#fff"/>
    <path id="Path_10368" data-name="Path 10368" d="M-2190.737,262.451a5.32,5.32,0,0,1,2.351.294l3.443.833.315,2.242-3.741-.491a1.987,1.987,0,0,1-1.754,1.494,2.12,2.12,0,0,1-2.483-1.892A2.1,2.1,0,0,1-2190.737,262.451Z" transform="translate(-11.582 -136.914)" fill="#fff"/>
    <path id="Path_10369" data-name="Path 10369" d="M-2216.843,242.908l-.136-3.7,16-.591.136,3.7Z" transform="translate(-0.184 -125.773)" fill="#fff"/>
    <path id="Path_10370" data-name="Path 10370" d="M-2216.449,202.757l15.973,1.006-.19,3.035-10.2,7.354,9.7.61-.23,3.651-15.974-1.005.193-3.058,10.2-7.33-9.7-.611Z" transform="translate(0 -108.986)" fill="#fff"/>
    <path id="Path_10371" data-name="Path 10371" d="M-2200.349,162.759l5.5,1.383-.9,3.593-5.544-1.394-11.492,3.5.96-3.815,7.939-2.413-5.854-5.882.886-3.526Z" transform="translate(-2.145 -86.256)" fill="#fff"/>
    <path id="Path_10372" data-name="Path 10372" d="M-2195.2,142.228c-4.422-1.754-6.331-6.5-4.468-11.2,1.855-4.678,6.482-6.853,10.926-5.091s6.323,6.518,4.468,11.2C-2186.138,141.836-2190.778,143.982-2195.2,142.228Zm5.076-12.8a4.883,4.883,0,0,0-6.609,2.768,4.883,4.883,0,0,0,2.916,6.545,4.884,4.884,0,0,0,6.609-2.768A4.883,4.883,0,0,0-2190.124,129.429Z" transform="translate(-7.955 -72.739)" fill="#fff"/>
    <path id="Path_10373" data-name="Path 10373" d="M-2180.9,106.947l-7.762-4.485,1.854-3.208,7.644,4.417c2.633,1.522,4.386,1,5.507-.938,1.133-1.96.7-3.718-1.938-5.24l-7.643-4.417,1.83-3.168,7.762,4.485c4.08,2.357,4.987,6,2.709,9.938S-2176.819,109.3-2180.9,106.947Z" transform="translate(-13.441 -56.154)" fill="#fff"/>
    <path id="Path_10374" data-name="Path 10374" d="M-2150.468,75.8l-5.416-.293-.112.145-1.975,2.549,3.523,2.733-2.27,2.928-12.651-9.81,4.247-5.476c2.62-3.38,6.014-4.135,8.85-1.935a5.2,5.2,0,0,1,1.976,5.7l6.267.316Zm-12.4-5.213-1.85,2.385,4.41,3.42,1.85-2.386c1.387-1.789,1.257-3.337-.117-4.4C-2159.961,68.524-2161.475,68.8-2162.863,70.586Z" transform="translate(-22.473 -44.677)" fill="#fff"/>
    <path id="Path_10375" data-name="Path 10375" d="M-2127.316,26.727l10.6,12-2.776,2.453-4.347-4.919-5.45,4.816,4.346,4.919-2.777,2.453-10.6-12,2.776-2.453,4.179,4.731,5.45-4.816-4.179-4.73Z" transform="translate(-37.009 -26.574)" fill="#fff"/>
    <path id="Path_10376" data-name="Path 10376" d="M-2091.928,18.631l1.659,2.467-10.283,6.919-8.935-13.282,10.037-6.753,1.659,2.467-6.983,4.7,1.941,2.884,6.166-4.148,1.608,2.391-6.166,4.149,2.068,3.073Z" transform="translate(-50.507 -17.799)" fill="#fff"/>
    <path id="Path_10377" data-name="Path 10377" d="M-2063.795,6.47l-6.649,3.323.266,3.7-3.4,1.7-.775-17.511,3.274-1.636,13.561,11.121-3.478,1.738Zm-2.3-1.995-5.011-4.348.469,6.618Z" transform="translate(-66.958 -12.211)" fill="#fff"/>
    <path id="Path_10378" data-name="Path 10378" d="M-2035.464-2.691l-4.362-3.223-.173.059-3.052,1.041,1.44,4.221-3.506,1.2-5.17-15.15,6.558-2.237c4.047-1.381,7.3-.146,8.455,3.252a5.2,5.2,0,0,1-1.485,5.846l5.06,3.71Zm-7.484-11.171-2.857.975,1.8,5.281,2.857-.974c2.143-.731,2.885-2.1,2.324-3.741C-2039.391-13.989-2040.805-14.593-2042.948-13.862Z" transform="translate(-78.223 -5.944)" fill="#fff"/>
    <path id="Path_10379" data-name="Path 10379" d="M-2015.687-22.308l-5.011,1.063-.627-2.953,13.648-2.9.627,2.953-5.012,1.064,2.7,12.708-3.625.769Z" transform="translate(-91.782 -1.377)" fill="#fff"/>
    <path id="Path_10380" data-name="Path 10380" d="M-1976.664-13.744a2.822,2.822,0,0,1,2.647-3.077,2.836,2.836,0,0,1,3.056,2.671,2.856,2.856,0,0,1-2.645,3.1A2.841,2.841,0,0,1-1976.664-13.744Z" transform="translate(-112.687 -6.183)" fill="#fff"/>
  </g>
</svg>
