<svg id="telephone" xmlns="http://www.w3.org/2000/svg" width="28.689" height="27.67" viewBox="0 0 28.689 27.67">
  <g id="Group_4678" data-name="Group 4678" transform="translate(0 0)">
    <g id="Group_4677" data-name="Group 4677">
      <path id="Path_10428" data-name="Path 10428" d="M27.59,14.448a12.468,12.468,0,0,0-5.428-3.85,21.24,21.24,0,0,0-15.614-.023,12.463,12.463,0,0,0-5.441,3.833,4.922,4.922,0,0,0-.884,4.524A2.371,2.371,0,0,0,2.5,20.57l3.583,0h0a2.394,2.394,0,0,0,1.842-.859,2.355,2.355,0,0,0,.513-1.936q-.006-.03-.013-.06l-.189-.733a14.62,14.62,0,0,1,6.112-1.445,15.008,15.008,0,0,1,6.11,1.474l-.192.729q-.008.031-.014.062a2.355,2.355,0,0,0,.507,1.937,2.394,2.394,0,0,0,1.844.864l3.583,0h0a2.371,2.371,0,0,0,2.273-1.632A4.927,4.927,0,0,0,27.59,14.448Z" transform="translate(0 -9.1)" fill="#083f85"/>
    </g>
  </g>
  <g id="Group_4680" data-name="Group 4680" transform="translate(2.994 10.074)">
    <g id="Group_4679" data-name="Group 4679">
      <path id="Path_10429" data-name="Path 10429" d="M72.885,193.984l-2.672-2.806a.856.856,0,0,0-.62-.266H67.866v-1.167a.856.856,0,0,0-1.712,0v1.167H63.412v-1.167a.856.856,0,0,0-1.712,0v1.167H59.973a.856.856,0,0,0-.62.266l-2.672,2.806a11.729,11.729,0,0,0-3.249,8.123v3.522a.856.856,0,0,0,.856.856h20.99a.856.856,0,0,0,.856-.856v-3.522A11.728,11.728,0,0,0,72.885,193.984Zm-8.1,9.372a4.48,4.48,0,1,1,4.48-4.48A4.486,4.486,0,0,1,64.783,203.356Z" transform="translate(-53.432 -188.89)" fill="#fff"/>
    </g>
  </g>
  <g id="Group_4682" data-name="Group 4682" transform="translate(11.577 17.292)">
    <g id="Group_4681" data-name="Group 4681">
      <path id="Path_10430" data-name="Path 10430" d="M209.371,317.691a2.768,2.768,0,1,0,2.768,2.768A2.771,2.771,0,0,0,209.371,317.691Z" transform="translate(-206.603 -317.691)" fill="#083f85"/>
    </g>
  </g>
</svg>
