<svg id="telephone-icon" xmlns="http://www.w3.org/2000/svg" width="124.661" height="120.23" viewBox="0 0 124.661 120.23">
  <g id="Group_4678" data-name="Group 4678" transform="translate(0 0)">
    <g id="Group_4677" data-name="Group 4677">
      <path id="Path_10428" data-name="Path 10428" d="M119.884,32.339C115.1,25.757,106.724,19.816,96.3,15.611a92.29,92.29,0,0,0-67.844-.1C18.008,19.683,9.611,25.6,4.81,32.165.2,38.471-1.13,45.269.967,51.823a10.3,10.3,0,0,0,9.875,7.119l15.571.015h.016a10.4,10.4,0,0,0,8-3.731,10.233,10.233,0,0,0,2.229-8.412q-.024-.132-.057-.262l-.819-3.185C40.322,41.2,50.6,37.019,62.342,37.085s22,4.24,26.547,6.406l-.832,3.167q-.035.135-.06.271A10.234,10.234,0,0,0,90.2,55.347,10.4,10.4,0,0,0,98.213,59.1l15.571.015h.016a10.3,10.3,0,0,0,9.878-7.09C125.794,45.473,124.482,38.666,119.884,32.339Z" transform="translate(0 -9.1)" fill="#39b6e9"/>
    </g>
  </g>
  <g id="Group_4680" data-name="Group 4680" transform="translate(13.009 43.775)">
    <g id="Group_4679" data-name="Group 4679">
      <path id="Path_10429" data-name="Path 10429" d="M137.959,211.026l-11.611-12.192a3.72,3.72,0,0,0-2.694-1.154h-7.5v-5.07a3.72,3.72,0,0,0-7.44,0v5.07H96.8v-5.07a3.72,3.72,0,0,0-7.44,0v5.07h-7.5a3.72,3.72,0,0,0-2.694,1.154L67.55,211.026a50.963,50.963,0,0,0-14.118,35.3v15.3a3.72,3.72,0,0,0,3.72,3.72h91.205a3.72,3.72,0,0,0,3.72-3.72v-15.3A50.962,50.962,0,0,0,137.959,211.026Zm-35.2,40.721a19.468,19.468,0,1,1,19.468-19.469A19.49,19.49,0,0,1,102.754,251.747Z" transform="translate(-53.432 -188.89)" fill="#083f85"/>
    </g>
  </g>
  <g id="Group_4682" data-name="Group 4682" transform="translate(50.303 75.135)">
    <g id="Group_4681" data-name="Group 4681">
      <path id="Path_10430" data-name="Path 10430" d="M218.632,317.691A12.029,12.029,0,1,0,230.66,329.72,12.042,12.042,0,0,0,218.632,317.691Z" transform="translate(-206.603 -317.691)" fill="#39b6e9"/>
    </g>
  </g>
</svg>
