<svg xmlns="http://www.w3.org/2000/svg" width="90" height="90" viewBox="0 0 90 90">
  <g id="application-usp-icon2" transform="translate(-818 -3975)">
    <rect id="Rectangle_3700" data-name="Rectangle 3700" width="90" height="90" rx="32" transform="translate(818 3975)" fill="rgba(21,180,235,0.14)"/>
    <g id="time" transform="translate(825.762 3988.627)">
      <path id="Path_11185" data-name="Path 11185" d="M58.2,9.042A30.671,30.671,0,0,0,36.366,0a1.809,1.809,0,0,0-1.809,1.809V15.8H46.013a1.809,1.809,0,1,1,0,3.618h-.6v.212a12.375,12.375,0,0,1-5.123,10.039A12.375,12.375,0,0,1,45.41,39.706v.212h.6a1.809,1.809,0,0,1,0,3.618h-19.3a1.809,1.809,0,0,1,0-3.618h.6v-.212a12.373,12.373,0,0,1,3.664-8.8L8.43,39.115a1.809,1.809,0,0,0-1.081,2.319A30.876,30.876,0,1,0,58.2,9.042Z" fill="#083f85"/>
      <path id="Path_11186" data-name="Path 11186" d="M53.377,67.588a12.372,12.372,0,0,1-2.733-7.767v-.212h-.6a1.809,1.809,0,1,1,0-3.618h4.221V45.705a25.946,25.946,0,0,0-20.5,25.361,25.3,25.3,0,0,0,.255,3.569Z" transform="translate(-23.324 -40.193)" fill="#39b6e9"/>
      <path id="Path_11187" data-name="Path 11187" d="M214.615,161H203.761v.212a8.761,8.761,0,0,0,5.427,8.11,8.761,8.761,0,0,0,5.427-8.11Z" transform="translate(-172.822 -141.584)" fill="#39b6e9"/>
      <path id="Path_11188" data-name="Path 11188" d="M203.76,270.105v.212h10.854v-.212a8.761,8.761,0,0,0-5.427-8.11A8.761,8.761,0,0,0,203.76,270.105Z" transform="translate(-172.821 -230.4)" fill="#39b6e9"/>
    </g>
  </g>
</svg>
