<svg xmlns="http://www.w3.org/2000/svg" width="90" height="90" viewBox="0 0 90 90">
  <g id="application-usp-icon3" transform="translate(-1378 -4198)">
    <rect id="Rectangle_3700" data-name="Rectangle 3700" width="90" height="90" rx="32" transform="translate(1378 4198)" fill="rgba(21,180,235,0.14)"/>
    <g id="team-leader" transform="translate(1393.5 4213.5)">
      <g id="Team_Leader_1_" transform="translate(3.457)">
        <g id="Group_5529" data-name="Group 5529" transform="translate(0 7.145)">
          <path id="Path_11179" data-name="Path 11179" d="M36.914,75.828a6.914,6.914,0,1,1,6.914-6.914A6.921,6.921,0,0,1,36.914,75.828Z" transform="translate(-30 -62)" fill="#083f85"/>
        </g>
        <g id="Group_5530" data-name="Group 5530" transform="translate(38.258 7.145)">
          <path id="Path_11180" data-name="Path 11180" d="M368.914,75.828a6.914,6.914,0,1,1,6.914-6.914A6.921,6.921,0,0,1,368.914,75.828Z" transform="translate(-362 -62)" fill="#083f85"/>
        </g>
        <g id="Group_5531" data-name="Group 5531" transform="translate(17.4)">
          <path id="Path_11181" data-name="Path 11181" d="M189.643,17.285a8.643,8.643,0,1,1,8.643-8.643A8.653,8.653,0,0,1,189.643,17.285Z" transform="translate(-181)" fill="#39b6e9"/>
        </g>
        <path id="Path_11182" data-name="Path 11182" d="M164.828,151.516v11.925a1.729,1.729,0,0,1-3.457,0V151.516A12.082,12.082,0,0,0,151,163.441v10.371a1.728,1.728,0,0,0,1.729,1.729H156.6l1.32,15.932a1.728,1.728,0,0,0,1.722,1.583h6.914a1.728,1.728,0,0,0,1.722-1.583l1.32-15.932h3.872a1.728,1.728,0,0,0,1.729-1.729V163.441A12.082,12.082,0,0,0,164.828,151.516Z" transform="translate(-137.057 -134.056)" fill="#39b6e9"/>
      </g>
      <path id="Path_11183" data-name="Path 11183" d="M13.828,201.014V190.643a15.358,15.358,0,0,1,1.822-7.149A10.259,10.259,0,0,0,10.371,182,10.382,10.382,0,0,0,0,192.371v8.643a1.728,1.728,0,0,0,1.729,1.729H3.621l1.573,15.729a1.729,1.729,0,0,0,1.72,1.556h6.914a1.729,1.729,0,0,0,1.72-1.556L16.826,205.7a5.18,5.18,0,0,1-3-4.684Z" transform="translate(0 -161.027)" fill="#083f85"/>
      <path id="Path_11184" data-name="Path 11184" d="M382.812,192.371A10.382,10.382,0,0,0,372.441,182a10.259,10.259,0,0,0-5.279,1.493,15.358,15.358,0,0,1,1.822,7.149v10.371a5.18,5.18,0,0,1-3,4.684l1.278,12.773a1.729,1.729,0,0,0,1.72,1.556H375.9a1.729,1.729,0,0,0,1.72-1.556l1.573-15.729h1.892a1.728,1.728,0,0,0,1.729-1.729Z" transform="translate(-323.812 -161.027)" fill="#083f85"/>
    </g>
  </g>
</svg>
