<svg xmlns="http://www.w3.org/2000/svg" width="90" height="90" viewBox="0 0 90 90">
  <g id="usp-icon1" transform="translate(-215 -4199)">
    <rect id="Rectangle_3700" data-name="Rectangle 3700" width="90" height="90" rx="32" transform="translate(215 4199)" fill="rgba(21,180,235,0.14)"/>
    <g id="love" transform="translate(186.425 4213)">
      <path id="Path_11177" data-name="Path 11177" d="M96.881,272.854a3.828,3.828,0,0,0-5.414,0l-11.9,11.9-.041.04a5.577,5.577,0,0,1-3.93,1.6H68.211a1.787,1.787,0,1,1,0-3.574h6.645a3.828,3.828,0,0,0,0-7.657H64.535a9.458,9.458,0,0,0-9.413,8.673L49.1,289.863a1.787,1.787,0,0,0,0,2.527l7.445,7.445a1.787,1.787,0,0,0,2.527,0l5.78-5.78H75.6a13.184,13.184,0,0,0,9.385-3.887l11.9-11.9A3.829,3.829,0,0,0,96.881,272.854Z" transform="translate(0 -239.357)" fill="#083f85"/>
      <path id="Path_11178" data-name="Path 11178" d="M129.851,30.373c3.059,0,17.1-10.221,17.1-20.929A9.455,9.455,0,0,0,137.508,0a9.154,9.154,0,0,0-7.657,3.915A9.154,9.154,0,0,0,122.194,0a9.455,9.455,0,0,0-9.444,9.444C112.75,20.153,126.792,30.373,129.851,30.373Z" transform="translate(-56.529)" fill="#39b6e9"/>
    </g>
  </g>
</svg>
