<svg width="590" height="160" viewBox="0 0 590 160" fill="none" xmlns="http://www.w3.org/2000/svg">
<path d="M141.64 114.51C157.72 114.51 165.35 107.72 165.35 93.5V91.08C165.35 89.5 164.51 88.57 163.03 88.57H156.52C155.03 88.57 154.19 89.5 154.19 90.99V93.5C154.19 101.87 150.56 105.31 141.64 105.31C133.27 105.31 128.9 100.94 128.9 92.39V69.52C128.9 60.97 133.27 56.6 141.64 56.6C150.57 56.6 154.19 60.04 154.19 68.41V70.27C154.19 71.76 155.03 72.69 156.52 72.69H163.03C164.52 72.69 165.35 71.76 165.35 70.18V68.41C165.35 54.19 157.73 47.4 141.64 47.4C125.55 47.4 117.28 55.77 117.28 70.55V91.38C117.28 106.16 126.02 114.53 141.64 114.53M189.89 114.51C203.65 114.51 211.37 107.72 211.37 95.45V84.76C211.37 72.49 203.65 65.7 189.8 65.7C175.95 65.7 168.32 72.49 168.32 84.76V95.45C168.32 107.72 176.04 114.51 189.89 114.51ZM189.89 105.67C183.2 105.67 179.66 102.51 179.66 96.56V83.64C179.66 77.69 183.19 74.53 189.79 74.53C196.39 74.53 200.02 77.69 200.02 83.64V96.56C200.02 102.51 196.49 105.67 189.89 105.67ZM220.48 113.48H225.13C227.08 113.48 228.38 112.18 228.38 110.23V84.1C228.38 77.96 231.45 74.8 237.31 74.8C243.17 74.8 246.14 78.05 246.14 84.1V110.23C246.14 112.18 247.44 113.48 249.39 113.48H254.04C255.99 113.48 257.29 112.18 257.29 110.23V84.1C257.29 77.96 260.36 74.8 266.22 74.8C272.08 74.8 275.05 78.05 275.05 84.1V110.23C275.05 112.18 276.35 113.48 278.3 113.48H282.95C284.9 113.48 286.2 112.18 286.2 110.23V84.1C286.2 72.29 278.76 65.69 267.51 65.69C261.19 65.69 256.45 68.11 253.66 72.57C250.5 68.11 245.11 65.69 238.41 65.69C232.37 65.69 227.72 67.92 225.02 72.2L220.47 67.46C218.7 65.69 216.47 65.51 214.7 67.27L212.84 69.13C211.07 70.9 211.26 73.13 213.03 74.89L217.21 79.07V110.22C217.21 112.17 218.51 113.47 220.46 113.47M296.62 113.48H301.27C303.22 113.48 304.52 112.18 304.52 110.23V84.1C304.52 77.96 307.59 74.8 313.45 74.8C319.31 74.8 322.28 78.05 322.28 84.1V110.23C322.28 112.18 323.58 113.48 325.53 113.48H330.18C332.13 113.48 333.43 112.18 333.43 110.23V84.1C333.43 77.96 336.5 74.8 342.36 74.8C348.22 74.8 351.19 78.05 351.19 84.1V110.23C351.19 112.18 352.49 113.48 354.44 113.48H359.09C361.04 113.48 362.34 112.18 362.34 110.23V84.1C362.34 72.29 354.9 65.69 343.65 65.69C337.33 65.69 332.59 68.11 329.8 72.57C326.64 68.11 321.25 65.69 314.55 65.69C308.51 65.69 303.86 67.92 301.16 72.2L296.6 67.46C294.83 65.69 292.6 65.51 290.84 67.27L288.98 69.13C287.21 70.9 287.4 73.13 289.17 74.89L293.35 79.07V110.22C293.35 112.17 294.65 113.47 296.6 113.47M386.52 114.51C392.75 114.51 397.49 112.28 400.37 108L405.11 112.74C406.88 114.51 409.11 114.69 410.87 112.92L412.73 111.06C414.5 109.29 414.31 107.06 412.54 105.3L408.36 101.12V69.97C408.36 68.02 407.06 66.72 405.11 66.72H400.46C398.51 66.72 397.21 68.02 397.21 69.97V95.63C397.21 102.04 393.96 105.39 387.82 105.39C381.68 105.39 378.52 101.95 378.52 95.63V69.97C378.52 68.02 377.22 66.72 375.27 66.72H370.62C368.67 66.72 367.37 68.02 367.37 69.97V95.63C367.37 107.72 374.99 114.5 386.52 114.5M420.92 113.48H425.57C427.52 113.48 428.82 112.18 428.82 110.23V84.57C428.82 78.16 432.08 74.81 438.21 74.81C444.34 74.81 447.51 78.25 447.51 84.57V110.23C447.51 112.18 448.81 113.48 450.76 113.48H455.41C457.36 113.48 458.66 112.18 458.66 110.23V84.57C458.66 72.48 451.04 65.7 439.51 65.7C433.28 65.7 428.54 67.93 425.66 72.21L420.92 67.47C419.15 65.7 416.92 65.52 415.16 67.28L413.3 69.14C411.53 70.91 411.72 73.14 413.49 74.9L417.67 79.08V110.23C417.67 112.18 418.97 113.48 420.92 113.48ZM470.11 60.95H473.92C476.89 60.95 478.57 59.28 478.57 56.3V52.77C478.57 49.8 476.9 48.12 473.92 48.12H470.11C467.14 48.12 465.46 49.79 465.46 52.77V56.3C465.46 59.27 467.13 60.95 470.11 60.95ZM480.43 113.48H484.89C486.56 113.48 487.59 112.46 487.59 110.69V106.78C487.59 105.2 486.57 104.27 485.08 104.27H481.36C479.32 104.27 478.57 103.43 478.57 101.11V70.61C478.57 67.82 477.27 66.7 474.66 66.7H461.74C460.25 66.7 459.23 67.63 459.23 69.12V73.3C459.23 74.79 460.25 75.72 461.74 75.72H467.41V101.75C467.41 110.02 470.48 113.46 480.43 113.46M506.36 113.48H511.84C513.51 113.48 514.54 112.46 514.54 110.69V106.78C514.54 105.2 513.52 104.27 512.03 104.27H506.92C503.76 104.27 502.64 103.15 502.64 99.9V75.73H512.03C513.52 75.73 514.54 74.8 514.54 73.31V69.13C514.54 67.64 513.52 66.71 512.03 66.71H502.64V57.6C502.64 55.09 501.06 53.51 498.64 53.51H495.48C493.06 53.51 491.48 55.09 491.48 57.6V66.71H485.44C483.95 66.71 482.93 67.64 482.93 69.13V73.31C482.93 74.8 483.95 75.73 485.44 75.73H491.48V100C491.48 109.95 495.39 113.48 506.36 113.48ZM528.77 113.48H530.44L525.88 126.03C524.77 129.01 525.88 131.89 528.95 132.82C531.83 133.75 534.72 132.45 535.64 129.66L554.51 71.74C554.79 70.9 554.98 70.16 554.98 69.51C554.98 67.84 553.96 66.72 551.91 66.72H548.19C546.05 66.72 545.03 67.46 544.1 70.44L533.41 105.4L522.53 70.44C521.6 67.46 520.58 66.72 518.44 66.72H510.2C508.15 66.72 511.01 67.84 511.01 69.51C511.01 70.16 511.2 70.9 511.47 71.74L524.21 110.04C525.05 112.64 526.25 113.48 528.77 113.48Z" fill="white"/>
<path d="M463.11 52.8V57.4C463.11 60.99 465.13 63 468.71 63H472.97C476.56 63 478.57 60.98 478.57 57.4V52.8C478.57 49.21 476.55 47.2 472.97 47.2H468.71C465.12 47.2 463.11 49.22 463.11 52.8Z" fill="white"/>
<path d="M476.75 41.33L476.96 40.89C477.05 40.7 476.98 40.51 476.79 40.43L468.53 36.62C468.34 36.53 468.15 36.6 468.07 36.79L467.87 37.23C467.78 37.42 467.85 37.61 468.04 37.69L476.3 41.5C476.49 41.59 476.68 41.52 476.76 41.33M478.6 37.37L478.82 37.03C478.94 36.84 478.9 36.66 478.72 36.55L472.33 32.35L480.97 32.92C481.34 32.95 481.54 32.89 481.73 32.6L481.91 32.32C482.12 32 482.05 31.72 481.76 31.53L474.33 26.65C474.15 26.53 473.96 26.58 473.84 26.75L473.61 27.1C473.5 27.28 473.54 27.47 473.71 27.59L480.07 31.77L471.48 31.18C471.11 31.16 470.92 31.19 470.73 31.49L470.52 31.81C470.31 32.13 470.38 32.4 470.67 32.6L478.1 37.48C478.28 37.6 478.47 37.56 478.58 37.38M488.07 25.24L488.42 24.9C488.57 24.75 488.57 24.56 488.42 24.4L485.88 21.78L484.47 16.03C484.41 15.79 484.39 15.72 484.3 15.63C484.18 15.51 484.03 15.51 483.87 15.65L483.59 15.92C483.4 16.11 483.39 16.23 483.45 16.5L484.68 21.37L479.84 20C479.57 19.93 479.44 19.94 479.25 20.12L478.94 20.42C478.8 20.56 478.79 20.72 478.9 20.85C478.99 20.94 479.06 20.97 479.29 21.03L485.01 22.6L487.55 25.22C487.7 25.37 487.89 25.37 488.04 25.22M489.41 11.27C487.53 12.56 487.09 14.31 488.31 16.09L490.25 18.9C491.47 20.68 493.26 20.89 495.14 19.59C497.02 18.3 497.46 16.55 496.24 14.77L494.3 11.96C493.08 10.18 491.29 9.97 489.41 11.27ZM491.28 18.28L489.26 15.35C488.41 14.12 488.65 12.96 489.96 12.07C491.26 11.17 492.42 11.36 493.26 12.6L495.28 15.53C496.13 16.76 495.87 17.93 494.59 18.81C493.29 19.71 492.12 19.52 491.27 18.29M503.66 14.76C505.68 13.88 506.37 12.29 505.55 10.42L502.99 4.57001C502.91 4.38001 502.72 4.31 502.53 4.39L502.08 4.59C501.88 4.68 501.8 4.86 501.89 5.06L504.47 10.96C505.04 12.27 504.62 13.29 503.27 13.88C501.91 14.47 500.87 14.09 500.3 12.78L497.72 6.88C497.64 6.69 497.45 6.62 497.26 6.7L496.81 6.89999C496.62 6.97999 496.55 7.17 496.63 7.36L499.19 13.21C500.01 15.08 501.63 15.66 503.66 14.77M515.73 10.66C515.95 10.39 515.94 10.05 515.64 9.82001L512.46 7.41C514.13 6.88 514.82 5.80001 514.43 4.24001L514.31 3.74001C513.88 2.03001 512.6 1.38 510.6 1.88L507.87 2.56C507.49 2.65 507.32 2.94001 507.41 3.32001L509.53 11.88C509.58 12.08 509.75 12.19 509.95 12.14L510.42 12.02C510.62 11.97 510.73 11.8 510.68 11.6L508.64 3.38L510.83 2.84C512.08 2.53 512.85 2.92 513.12 4L513.26 4.56C513.53 5.63 513.02 6.33999 511.77 6.64999L511.15 6.8C510.87 6.87 510.72 7.08 510.79 7.37V7.39999C510.84 7.57999 510.96 7.69 511.17 7.87L514.87 10.76C515.16 10.98 515.52 10.94 515.73 10.69M522.11 9.8H522.6C522.81 9.8 522.95 9.66 522.95 9.45L522.97 5.25999L527.56 5.28L527.54 9.47C527.54 9.68 527.68 9.82001 527.89 9.82001H528.38C528.59 9.82001 528.73 9.68 528.73 9.47L528.76 0.369995C528.76 0.159995 528.62 0.0200043 528.41 0.0200043H527.92C527.71 0.0200043 527.57 0.159995 527.57 0.369995L527.55 4.28L522.96 4.25999L522.98 0.350006C522.98 0.140006 522.84 0 522.63 0H522.14C521.93 0 521.79 0.140006 521.79 0.350006L521.76 9.45C521.76 9.66 521.9 9.8 522.11 9.8ZM536.93 0.839996C534.68 0.429996 533.14 1.36 532.75 3.48L532.14 6.84C531.75 8.96 532.87 10.37 535.12 10.78C537.37 11.19 538.91 10.26 539.3 8.14L539.91 4.78C540.3 2.66 539.17 1.25 536.93 0.839996ZM533.31 7.12L533.95 3.62C534.22 2.15 535.2 1.5 536.76 1.78C538.32 2.06 539 3.01001 538.73 4.49001L538.09 7.99001C537.82 9.46001 536.82 10.11 535.29 9.83C533.73 9.55 533.04 8.59 533.31 7.12ZM541.83 12.04L542.21 12.19C542.4 12.27 542.59 12.19 542.66 12L545.53 4.87L545.91 10.35C545.93 10.64 546.03 10.81 546.24 10.89C546.47 10.98 546.65 10.93 546.86 10.73L550.93 7.03999L548.06 14.17C547.98 14.37 548.06 14.55 548.25 14.62L548.63 14.77C548.82 14.85 549.01 14.77 549.08 14.58L552.4 6.33C552.53 6.01 552.41 5.73001 552.08 5.60001L551.72 5.45C551.37 5.31 551.2 5.35 550.91 5.62L546.91 9.31L546.57 3.88C546.55 3.48 546.46 3.34 546.09 3.19L545.7 3.03C545.36 2.89 545.09 3.01 544.96 3.34L541.64 11.59C541.56 11.78 541.64 11.97 541.83 12.05M552.19 16.59L556.53 19.29C556.71 19.4 556.88 19.36 556.99 19.18L557.16 18.91C557.27 18.73 557.23 18.56 557.05 18.45L553.25 16.08L555.1 13.11L558.22 15.06C558.47 15.22 558.74 15.17 558.9 14.92L558.93 14.87C559.08 14.63 559 14.37 558.75 14.21L555.62 12.26L557.37 9.44L561.17 11.81C561.35 11.92 561.52 11.88 561.63 11.7L561.8 11.43C561.91 11.25 561.87 11.08 561.69 10.97L557.35 8.27C557.05 8.09 556.76 8.15 556.58 8.45L551.99 15.82C551.81 16.12 551.87 16.4 552.17 16.59M558.54 20.24C558.33 20.52 558.36 20.77 558.64 20.99L559.02 21.28C559.3 21.49 559.55 21.46 559.77 21.18L560.22 20.59C560.42 20.32 560.4 20.06 560.12 19.85L559.74 19.56C559.46 19.35 559.2 19.39 559 19.66L558.55 20.25L558.54 20.24ZM564.02 25.61L565.16 26.78C565.44 27.07 565.78 27.08 566.07 26.79L572.18 20.86C572.47 20.58 572.48 20.24 572.19 19.95L571.05 18.77C570.78 18.49 570.43 18.47 570.14 18.76L564.03 24.69C563.74 24.97 563.74 25.32 564.02 25.6M567.5 29.26L568.34 30.42C568.55 30.72 568.87 30.76 569.17 30.54L573.05 27.73L570.76 32.35C570.44 33 570.43 33.3 570.81 33.83L571.51 34.79C571.85 35.27 572.35 35.34 572.82 35L579.51 30.15C579.82 29.93 579.87 29.62 579.65 29.32L578.81 28.17C578.6 27.88 578.28 27.82 577.98 28.05L574.13 30.84L576.43 26.29C576.77 25.63 576.76 25.34 576.38 24.81L575.65 23.8C575.3 23.32 574.8 23.25 574.34 23.59L567.65 28.43C567.34 28.65 567.29 28.96 567.51 29.26M575.59 42.78L576.21 44.31C576.36 44.67 576.67 44.82 577.05 44.66L579.82 43.53L585.19 44.16C585.59 44.21 585.8 44.18 586.02 44.09C586.37 43.95 586.51 43.63 586.33 43.18L585.89 42.1C585.73 41.71 585.5 41.55 585.04 41.51L581.88 41.22L583.92 38.78C584.22 38.43 584.27 38.15 584.11 37.76L583.59 36.49C583.4 36.04 583.09 35.92 582.74 36.07C582.52 36.16 582.35 36.29 582.1 36.61L578.71 40.82L575.94 41.95C575.56 42.1 575.43 42.41 575.58 42.78M588.5 50.64C588 48.11 586.54 46.67 584.41 47.09L580.95 47.77C578.82 48.19 578.01 50.07 578.51 52.6C579.01 55.14 580.47 56.55 582.6 56.13L586.06 55.45C588.19 55.03 589.01 53.17 588.51 50.63M581.39 50.73L585.1 50C585.77 49.87 586.23 50.22 586.39 51.06C586.55 51.9 586.27 52.4 585.59 52.53L581.88 53.26C581.21 53.39 580.75 53.03 580.59 52.2C580.42 51.36 580.71 50.86 581.39 50.73ZM579.66 62.64C579.71 65.23 580.89 66.69 583.08 66.64L589.1 66.51C589.51 66.51 589.74 66.26 589.73 65.85L589.7 64.25C589.7 63.86 589.45 63.61 589.04 63.62L582.97 63.75C582.3 63.76 581.93 63.37 581.91 62.58C581.89 61.8 582.25 61.37 582.92 61.35L588.99 61.22C589.4 61.22 589.63 60.97 589.62 60.56L589.59 58.97C589.59 58.58 589.34 58.33 588.93 58.34L582.91 58.47C580.73 58.52 579.61 60.04 579.67 62.63M578.53 76.23C578.85 77.07 579.67 77.42 580.46 77.05L582.47 76.12C582.69 77.2 583.36 77.79 584.5 78L585.31 78.15C587.1 78.48 588.23 77.4 588.67 75.01L589.32 71.43C589.42 70.91 589.13 70.5 588.61 70.41L580.47 68.93C580.07 68.86 579.79 69.05 579.72 69.45L579.43 71.06C579.36 71.45 579.55 71.74 579.95 71.81L586.91 73.08L586.66 74.46C586.54 75.09 586.2 75.34 585.57 75.23L584.73 75.08C584.1 74.96 583.86 74.61 583.98 73.97L584.02 73.76C584.1 73.33 583.91 73.09 583.43 73L583.25 72.97C582.92 72.91 582.69 72.94 582.26 73.12L579.42 74.31C578.62 74.65 578.25 75.48 578.54 76.25M576.77 82.15L576.12 83.65C575.96 84.01 576.08 84.33 576.46 84.5L579.37 85.75L578.32 88.18L575.41 86.93C575.04 86.77 574.73 86.89 574.56 87.27L573.91 88.77C573.75 89.14 573.87 89.46 574.25 89.62L582.06 92.99C582.43 93.15 582.75 93.03 582.91 92.65L583.56 91.15C583.72 90.78 583.6 90.46 583.22 90.3L580.46 89.11L581.51 86.68L584.27 87.87C584.64 88.03 584.96 87.89 585.12 87.53L585.77 86.03C585.93 85.66 585.81 85.34 585.43 85.18L577.62 81.81C577.25 81.65 576.93 81.77 576.77 82.15ZM572.11 91.9L568.82 96.65C568.61 96.95 568.65 97.21 568.96 97.43L569.83 98.03C570.14 98.25 570.4 98.19 570.61 97.89L572.75 94.81L574.12 95.76L572.64 97.89C572.25 98.45 572.33 99.02 572.9 99.41L572.94 99.43C573.52 99.83 574.08 99.71 574.47 99.14L575.94 97.01L577.22 97.9L575.08 100.98C574.87 101.28 574.91 101.54 575.22 101.76L576.09 102.37C576.4 102.59 576.66 102.53 576.87 102.23L580.16 97.48C580.45 97.05 580.36 96.6 579.95 96.31L573.28 91.69C572.87 91.4 572.41 91.48 572.11 91.9ZM567.41 98.59L566.59 99.43C566.32 99.71 566.27 100 566.49 100.37L567.32 101.78L565.33 103.81L563.91 103C563.53 102.79 563.25 102.84 562.97 103.12L561.99 104.12C561.69 104.43 561.7 104.78 561.98 105.05C562.12 105.19 562.29 105.3 562.69 105.51L569.27 109.09C570.02 109.49 570.48 109.47 571.03 108.92L572.37 107.55C572.92 106.99 572.92 106.53 572.51 105.79L568.81 99.27C568.59 98.88 568.48 98.71 568.34 98.57C568.06 98.3 567.71 98.29 567.41 98.6M568.49 103.66L570.33 106.74L567.22 104.95L568.48 103.66H568.49ZM554.14 109.96C553.77 110.78 554.1 111.6 554.92 111.91L556.99 112.68C556.38 113.59 556.44 114.49 557.09 115.45L557.56 116.13C558.59 117.63 560.15 117.67 562.16 116.29L565.16 114.23C565.6 113.93 565.69 113.44 565.39 113L560.7 106.19C560.47 105.86 560.14 105.79 559.8 106.02L558.45 106.95C558.13 107.17 558.05 107.51 558.28 107.84L562.29 113.66L561.14 114.45C560.61 114.82 560.19 114.75 559.82 114.22L559.34 113.52C558.97 112.99 559.06 112.57 559.59 112.21L559.76 112.09C560.12 111.84 560.16 111.54 559.89 111.14L559.79 110.99C559.6 110.71 559.41 110.57 558.99 110.39L556.14 109.22C555.34 108.89 554.49 109.22 554.14 109.97M549.74 112.27L548.26 112.96C547.89 113.13 547.78 113.45 547.95 113.82L550.88 120.1L549.04 120.96C548.7 121.12 548.6 121.37 548.76 121.71L549.23 122.71C549.39 123.05 549.64 123.13 549.99 122.97L556.32 120.02C556.66 119.86 556.75 119.62 556.59 119.28L556.12 118.28C555.96 117.94 555.72 117.85 555.38 118.01L553.54 118.87L550.61 112.59C550.44 112.22 550.11 112.11 549.76 112.28" fill="white"/>
<path d="M255.981 135.166V149.62H252.289V117.584H255.981V129.347H256.293C256.857 128.106 257.701 127.121 258.828 126.391C259.964 125.65 261.476 125.28 263.364 125.28C265.001 125.28 266.435 125.608 267.666 126.265C268.896 126.912 269.85 127.908 270.528 129.253C271.217 130.588 271.561 132.288 271.561 134.353V149.62H267.869V134.603C267.869 132.695 267.374 131.219 266.383 130.176C265.403 129.123 264.042 128.596 262.3 128.596C261.091 128.596 260.006 128.852 259.047 129.363C258.098 129.874 257.347 130.619 256.794 131.6C256.252 132.58 255.981 133.769 255.981 135.166ZM288.076 150.121C285.906 150.121 284.003 149.604 282.366 148.572C280.739 147.54 279.467 146.095 278.549 144.239C277.642 142.383 277.188 140.213 277.188 137.732C277.188 135.229 277.642 133.044 278.549 131.177C279.467 129.31 280.739 127.861 282.366 126.829C284.003 125.796 285.906 125.28 288.076 125.28C290.245 125.28 292.143 125.796 293.77 126.829C295.407 127.861 296.679 129.31 297.586 131.177C298.504 133.044 298.963 135.229 298.963 137.732C298.963 140.213 298.504 142.383 297.586 144.239C296.679 146.095 295.407 147.54 293.77 148.572C292.143 149.604 290.245 150.121 288.076 150.121ZM288.076 146.804C289.723 146.804 291.079 146.382 292.143 145.537C293.206 144.693 293.994 143.582 294.505 142.205C295.016 140.829 295.271 139.337 295.271 137.732C295.271 136.126 295.016 134.629 294.505 133.242C293.994 131.855 293.206 130.734 292.143 129.879C291.079 129.024 289.723 128.596 288.076 128.596C286.428 128.596 285.072 129.024 284.008 129.879C282.945 130.734 282.157 131.855 281.646 133.242C281.135 134.629 280.88 136.126 280.88 137.732C280.88 139.337 281.135 140.829 281.646 142.205C282.157 143.582 282.945 144.693 284.008 145.537C285.072 146.382 286.428 146.804 288.076 146.804ZM304.598 149.62V125.593H308.165V129.347H308.478C308.978 128.064 309.786 127.068 310.902 126.359C312.018 125.64 313.358 125.28 314.922 125.28C316.508 125.28 317.827 125.64 318.88 126.359C319.944 127.068 320.773 128.064 321.367 129.347H321.617C322.233 128.106 323.156 127.121 324.386 126.391C325.617 125.65 327.092 125.28 328.813 125.28C330.961 125.28 332.719 125.953 334.085 127.298C335.451 128.633 336.134 130.713 336.134 133.539V149.62H332.442V133.539C332.442 131.766 331.957 130.499 330.987 129.738C330.018 128.977 328.876 128.596 327.562 128.596C325.872 128.596 324.564 129.107 323.635 130.129C322.707 131.141 322.243 132.423 322.243 133.977V149.62H318.489V133.164C318.489 131.798 318.046 130.697 317.159 129.863C316.273 129.018 315.131 128.596 313.734 128.596C312.774 128.596 311.877 128.852 311.043 129.363C310.219 129.874 309.552 130.583 309.041 131.49C308.54 132.387 308.29 133.425 308.29 134.603V149.62H304.598ZM352.958 150.121C350.643 150.121 348.646 149.61 346.967 148.588C345.298 147.555 344.01 146.116 343.103 144.27C342.206 142.414 341.758 140.255 341.758 137.794C341.758 135.333 342.206 133.164 343.103 131.287C344.01 129.399 345.272 127.929 346.888 126.875C348.515 125.812 350.413 125.28 352.582 125.28C353.834 125.28 355.07 125.488 356.29 125.906C357.51 126.323 358.62 127.001 359.622 127.939C360.623 128.867 361.42 130.098 362.015 131.631C362.609 133.164 362.907 135.051 362.907 137.294V138.858H344.386V135.667H359.152C359.152 134.311 358.881 133.101 358.339 132.038C357.807 130.974 357.046 130.134 356.055 129.519C355.075 128.904 353.917 128.596 352.582 128.596C351.112 128.596 349.84 128.961 348.765 129.691C347.702 130.411 346.883 131.349 346.31 132.507C345.736 133.664 345.449 134.905 345.449 136.23V138.357C345.449 140.172 345.762 141.71 346.388 142.972C347.024 144.223 347.905 145.177 349.031 145.834C350.158 146.481 351.466 146.804 352.958 146.804C353.928 146.804 354.804 146.669 355.586 146.398C356.378 146.116 357.061 145.699 357.635 145.146C358.208 144.583 358.652 143.884 358.965 143.05L362.531 144.051C362.156 145.261 361.525 146.325 360.638 147.242C359.752 148.15 358.657 148.859 357.353 149.37C356.05 149.87 354.585 150.121 352.958 150.121ZM371.885 135.839V149.62H368.365V119.075H371.885V130.29H372.183C372.72 129.107 373.526 128.168 374.599 127.472C375.683 126.766 377.125 126.413 378.925 126.413C380.486 126.413 381.853 126.726 383.026 127.352C384.2 127.969 385.109 128.918 385.756 130.201C386.412 131.474 386.74 133.094 386.74 135.063V149.62H383.22V135.302C383.22 133.482 382.748 132.075 381.803 131.081C380.869 130.077 379.571 129.575 377.91 129.575C376.757 129.575 375.723 129.818 374.808 130.305C373.903 130.793 373.187 131.504 372.66 132.438C372.143 133.373 371.885 134.506 371.885 135.839ZM402.785 150.097C400.577 150.097 398.673 149.61 397.072 148.636C395.481 147.651 394.253 146.279 393.388 144.519C392.533 142.749 392.106 140.691 392.106 138.344C392.106 135.998 392.533 133.93 393.388 132.14C394.253 130.34 395.456 128.938 396.998 127.934C398.549 126.92 400.358 126.413 402.427 126.413C403.62 126.413 404.798 126.611 405.961 127.009C407.125 127.407 408.184 128.053 409.138 128.948C410.093 129.833 410.853 131.006 411.42 132.468C411.987 133.93 412.27 135.729 412.27 137.867V139.359H394.611V136.316H408.691C408.691 135.023 408.432 133.87 407.915 132.856C407.408 131.842 406.682 131.041 405.738 130.455C404.803 129.868 403.699 129.575 402.427 129.575C401.025 129.575 399.812 129.923 398.787 130.619C397.773 131.305 396.993 132.2 396.446 133.303C395.899 134.407 395.625 135.59 395.625 136.853V138.881C395.625 140.611 395.924 142.078 396.52 143.281C397.127 144.474 397.967 145.384 399.041 146.011C400.115 146.627 401.363 146.935 402.785 146.935C403.709 146.935 404.545 146.806 405.29 146.548C406.046 146.279 406.697 145.881 407.244 145.354C407.791 144.817 408.214 144.151 408.512 143.356L411.912 144.31C411.554 145.464 410.953 146.478 410.108 147.353C409.263 148.218 408.219 148.894 406.976 149.381C405.733 149.859 404.336 150.097 402.785 150.097ZM424.366 150.157C422.915 150.157 421.597 149.883 420.414 149.337C419.231 148.78 418.291 147.979 417.595 146.935C416.899 145.881 416.551 144.609 416.551 143.117C416.551 141.805 416.809 140.741 417.326 139.925C417.844 139.1 418.535 138.454 419.4 137.986C420.265 137.519 421.219 137.171 422.263 136.942C423.317 136.704 424.376 136.515 425.44 136.376C426.832 136.197 427.961 136.062 428.826 135.973C429.701 135.874 430.337 135.709 430.735 135.481C431.143 135.252 431.346 134.854 431.346 134.288V134.168C431.346 132.697 430.944 131.553 430.138 130.738C429.343 129.923 428.135 129.515 426.514 129.515C424.834 129.515 423.516 129.883 422.562 130.619C421.607 131.354 420.936 132.14 420.548 132.975L417.207 131.782C417.804 130.39 418.599 129.306 419.594 128.531C420.598 127.745 421.692 127.198 422.875 126.89C424.068 126.572 425.241 126.413 426.395 126.413C427.13 126.413 427.976 126.502 428.93 126.681C429.895 126.85 430.824 127.203 431.719 127.74C432.624 128.277 433.375 129.087 433.971 130.171C434.568 131.255 434.866 132.707 434.866 134.526V149.62H431.346V146.518H431.167C430.929 147.015 430.531 147.547 429.974 148.114C429.417 148.68 428.677 149.163 427.752 149.56C426.827 149.958 425.699 150.157 424.366 150.157ZM424.903 146.995C426.295 146.995 427.469 146.722 428.423 146.175C429.388 145.628 430.113 144.922 430.601 144.057C431.098 143.192 431.346 142.282 431.346 141.327V138.106C431.197 138.285 430.869 138.449 430.362 138.598C429.865 138.737 429.288 138.861 428.632 138.971C427.986 139.07 427.354 139.16 426.738 139.239C426.131 139.309 425.639 139.369 425.261 139.418C424.346 139.538 423.491 139.732 422.696 140C421.91 140.258 421.274 140.651 420.787 141.178C420.309 141.695 420.071 142.401 420.071 143.296C420.071 144.519 420.523 145.444 421.428 146.07C422.343 146.687 423.501 146.995 424.903 146.995ZM444.811 119.075V149.62H441.291V119.075H444.811ZM461.221 126.711V129.694H449.349V126.711H461.221ZM452.809 121.222H456.329V143.057C456.329 144.052 456.473 144.798 456.761 145.295C457.059 145.782 457.437 146.11 457.895 146.279C458.362 146.438 458.854 146.518 459.371 146.518C459.759 146.518 460.077 146.498 460.326 146.458C460.574 146.408 460.773 146.369 460.922 146.339L461.638 149.501C461.4 149.59 461.067 149.68 460.639 149.769C460.211 149.869 459.67 149.918 459.013 149.918C458.019 149.918 457.045 149.705 456.09 149.277C455.145 148.849 454.36 148.198 453.733 147.323C453.117 146.448 452.809 145.344 452.809 144.012V121.222ZM470.527 135.839V149.62H467.008V119.075H470.527V130.29H470.826C471.363 129.107 472.168 128.168 473.242 127.472C474.326 126.766 475.768 126.413 477.567 126.413C479.128 126.413 480.496 126.726 481.669 127.352C482.842 127.969 483.752 128.918 484.398 130.201C485.054 131.474 485.383 133.094 485.383 135.063V149.62H481.863V135.302C481.863 133.482 481.39 132.075 480.446 131.081C479.511 130.077 478.214 129.575 476.553 129.575C475.4 129.575 474.366 129.818 473.451 130.305C472.546 130.793 471.83 131.504 471.303 132.438C470.786 133.373 470.527 134.506 470.527 135.839ZM501.129 150.097C498.981 150.097 497.132 149.59 495.581 148.576C494.029 147.562 492.836 146.165 492.001 144.385C491.166 142.605 490.748 140.572 490.748 138.285C490.748 135.958 491.176 133.905 492.031 132.125C492.896 130.335 494.099 128.938 495.64 127.934C497.191 126.92 499.001 126.413 501.069 126.413C502.68 126.413 504.132 126.711 505.424 127.307C506.717 127.904 507.776 128.739 508.601 129.813C509.426 130.887 509.939 132.14 510.137 133.572H506.618C506.349 132.528 505.752 131.603 504.828 130.798C503.913 129.982 502.68 129.575 501.129 129.575C499.757 129.575 498.554 129.932 497.519 130.648C496.495 131.354 495.695 132.354 495.118 133.646C494.551 134.929 494.268 136.435 494.268 138.165C494.268 139.935 494.546 141.477 495.103 142.789C495.67 144.102 496.466 145.121 497.49 145.847C498.524 146.572 499.737 146.935 501.129 146.935C502.044 146.935 502.874 146.776 503.62 146.458C504.365 146.14 504.997 145.682 505.514 145.086C506.031 144.489 506.399 143.773 506.618 142.938H510.137C509.939 144.29 509.446 145.508 508.661 146.592C507.885 147.666 506.856 148.521 505.573 149.158C504.301 149.784 502.819 150.097 501.129 150.097ZM522.024 150.157C520.573 150.157 519.255 149.883 518.072 149.337C516.889 148.78 515.949 147.979 515.253 146.935C514.557 145.881 514.209 144.609 514.209 143.117C514.209 141.805 514.468 140.741 514.985 139.925C515.502 139.1 516.193 138.454 517.058 137.986C517.923 137.519 518.877 137.171 519.921 136.942C520.975 136.704 522.034 136.515 523.098 136.376C524.49 136.197 525.619 136.062 526.484 135.973C527.359 135.874 527.995 135.709 528.393 135.481C528.801 135.252 529.005 134.854 529.005 134.288V134.168C529.005 132.697 528.602 131.553 527.796 130.738C527.001 129.923 525.793 129.515 524.172 129.515C522.492 129.515 521.174 129.883 520.22 130.619C519.265 131.354 518.594 132.14 518.206 132.975L514.865 131.782C515.462 130.39 516.257 129.306 517.252 128.531C518.256 127.745 519.35 127.198 520.533 126.89C521.726 126.572 522.899 126.413 524.053 126.413C524.789 126.413 525.634 126.502 526.588 126.681C527.553 126.85 528.483 127.203 529.377 127.74C530.282 128.277 531.033 129.087 531.63 130.171C532.226 131.255 532.524 132.707 532.524 134.526V149.62H529.005V146.518H528.826C528.587 147.015 528.189 147.547 527.632 148.114C527.076 148.68 526.335 149.163 525.41 149.56C524.485 149.958 523.357 150.157 522.024 150.157ZM522.561 146.995C523.953 146.995 525.127 146.722 526.081 146.175C527.046 145.628 527.772 144.922 528.259 144.057C528.756 143.192 529.005 142.282 529.005 141.327V138.106C528.855 138.285 528.527 138.449 528.02 138.598C527.523 138.737 526.946 138.861 526.29 138.971C525.644 139.07 525.012 139.16 524.396 139.239C523.789 139.309 523.297 139.369 522.919 139.418C522.005 139.538 521.149 139.732 520.354 140C519.568 140.258 518.932 140.651 518.445 141.178C517.968 141.695 517.729 142.401 517.729 143.296C517.729 144.519 518.181 145.444 519.086 146.07C520.001 146.687 521.159 146.995 522.561 146.995ZM538.949 149.62V126.711H542.35V130.171H542.588C543.006 129.038 543.761 128.118 544.855 127.412C545.949 126.706 547.182 126.353 548.554 126.353C548.813 126.353 549.136 126.358 549.524 126.368C549.911 126.378 550.205 126.393 550.404 126.413V129.992C550.284 129.962 550.011 129.918 549.583 129.858C549.166 129.788 548.723 129.754 548.256 129.754C547.142 129.754 546.148 129.987 545.273 130.455C544.408 130.912 543.722 131.548 543.215 132.364C542.717 133.169 542.469 134.089 542.469 135.123V149.62H538.949ZM563.484 150.097C561.276 150.097 559.372 149.61 557.771 148.636C556.181 147.651 554.953 146.279 554.087 144.519C553.232 142.749 552.805 140.691 552.805 138.344C552.805 135.998 553.232 133.93 554.087 132.14C554.953 130.34 556.156 128.938 557.697 127.934C559.248 126.92 561.058 126.413 563.126 126.413C564.319 126.413 565.497 126.611 566.661 127.009C567.824 127.407 568.883 128.053 569.837 128.948C570.792 129.833 571.553 131.006 572.119 132.468C572.686 133.93 572.97 135.729 572.97 137.867V139.359H555.31V136.316H569.39C569.39 135.023 569.132 133.87 568.614 132.856C568.107 131.842 567.382 131.041 566.437 130.455C565.502 129.868 564.399 129.575 563.126 129.575C561.724 129.575 560.511 129.923 559.487 130.619C558.472 131.305 557.692 132.2 557.145 133.303C556.598 134.407 556.325 135.59 556.325 136.853V138.881C556.325 140.611 556.623 142.078 557.22 143.281C557.826 144.474 558.666 145.384 559.74 146.011C560.814 146.627 562.062 146.935 563.484 146.935C564.409 146.935 565.244 146.806 565.989 146.548C566.745 146.279 567.396 145.881 567.943 145.354C568.49 144.817 568.913 144.151 569.211 143.356L572.612 144.31C572.254 145.464 571.652 146.478 570.807 147.353C569.962 148.218 568.918 148.894 567.675 149.381C566.432 149.859 565.035 150.097 563.484 150.097Z" fill="white"/>
<path d="M16.11 90.94C16 88.13 18.15 86.64 19.12 90.75C20.09 94.86 21.43 104.06 21.43 104.06C21.43 104.06 16.27 103.15 16.33 102.79C16.39 102.43 16.11 90.94 16.11 90.94Z" fill="white"/>
<path d="M11.14 84.04C11 80.57 13.66 78.73 14.86 83.81C16.06 88.89 17.71 100.24 17.71 100.24C17.71 100.24 11.34 99.12 11.41 98.67C11.48 98.22 11.14 84.04 11.14 84.04Z" fill="white"/>
<path d="M6.15001 79.19C6.00001 75.34 8.95001 73.28 10.29 78.94C11.63 84.59 13.46 97.21 13.46 97.21C13.46 97.21 4.99 88.47 5.06 87.96C5.14 87.46 6.16001 79.19 6.16001 79.19H6.15001Z" fill="white"/>
<path d="M39.84 131.63C38.66 113.04 19.42 111.94 11.14 105.34C2.86002 98.74 1.03002 81.92 1.55002 78.14C2.07002 74.36 4.07002 72.5 5.73002 77.77C7.39002 83.04 8.95001 92.54 15.24 96.93C21.53 101.32 35.34 103.39 26.6 97.05C17.85 90.71 19.84 83.82 21.31 82.36C22.78 80.9 26.76 89.2 31.94 92C37.12 94.8 44.29 97.76 47.88 106.47C52.87 118.59 39.85 131.62 39.85 131.62L39.84 131.63Z" fill="white"/>
<path d="M79.35 38.5C73.63 34.6 64.13 32.37 54.81 38.36C51.03 41.96 47.85 46.84 45.71 53.16C45.71 53.16 34.75 41.1 17.21 47.68C-0.329988 54.26 0.770011 73.26 0.770011 73.26C0.770011 73.26 5.81002 57.79 22.69 56.82C39.6 55.85 46.82 73.12 46.82 73.12C46.82 73.12 50.5 55.61 65.8 51.7C79.91 48.1 88.41 59.18 84.84 72.98C90.91 58.92 88.44 44.7 79.35 38.5Z" fill="white"/>
<path d="M70.62 99.66C70.62 99.66 58.07 80.34 32.55 89.52C32.55 89.52 45.59 89.25 51.53 104.14C55.23 113.4 47.85 126.42 47.85 126.42C47.85 126.42 60.44 115.06 70.62 99.66Z" fill="white"/>
<path d="M98.69 41.84C90.06 29.12 68.49 25.34 54.81 38.36C64.13 32.37 73.63 34.6 79.35 38.5C88.44 44.7 90.91 58.92 84.84 72.98C84.49 74.35 84.01 75.75 83.41 77.16C77.58 90.91 70.62 99.66 70.62 99.66C60.44 115.05 47.85 126.42 47.85 126.42C104.25 102.74 113.49 63.66 98.68 41.84H98.69Z" fill="white"/>
<g style="mix-blend-mode:multiply" opacity="0.29">
<path d="M83.26 57.64C85.67 61.62 86.37 67.04 84.84 72.97C90.91 58.91 88.44 44.69 79.35 38.49C73.63 34.59 64.13 32.36 54.81 38.35C62.34 33.97 84.48 35.04 83.27 57.63L83.26 57.64Z" fill="white"/>
</g>
<g style="mix-blend-mode:multiply" opacity="0.29">
<path d="M66.06 94.67C63.32 106.53 53.36 120.96 47.85 126.42C47.85 126.42 60.44 115.06 70.62 99.66C70.62 99.66 69.1 97.33 66.06 94.67Z" fill="white"/>
</g>
</svg>
