<svg xmlns="http://www.w3.org/2000/svg" width="51.461" height="51.461" viewBox="0 0 51.461 51.461">
  <g id="eligible-usp-icon7" transform="translate(-1399.539 -4663.273)">
    <circle id="Ellipse_442" data-name="Ellipse 442" cx="25.73" cy="25.73" r="25.73" transform="translate(1399.539 4663.273)" fill="#083f85"/>
    <g id="crowd-of-users" transform="translate(1407.758 4664.131)">
      <g id="Group_5315" data-name="Group 5315" transform="translate(0 11.458)">
        <path id="Path_11104" data-name="Path 11104" d="M44.609,35.128a4.084,4.084,0,0,1,1.63.338,4.067,4.067,0,0,1,.771-2.2,4.8,4.8,0,0,0-.982-.1H42.843a4.8,4.8,0,0,0-.979.1,4.07,4.07,0,0,1,.774,2.367A4.078,4.078,0,0,1,44.609,35.128Z" transform="translate(-26.898 -25.405)" fill="#39b6e9"/>
        <circle id="Ellipse_416" data-name="Ellipse 416" cx="3.752" cy="3.752" r="3.752" transform="translate(13.784)" fill="#39b6e9"/>
        <path id="Path_11105" data-name="Path 11105" d="M59.33,37.934a3.457,3.457,0,1,0-3.454-3.509,4.284,4.284,0,0,1,1.994,3.182A3.431,3.431,0,0,0,59.33,37.934Z" transform="translate(-35.9 -24.027)" fill="#fff"/>
        <path id="Path_11106" data-name="Path 11106" d="M26.357,31.019A3.457,3.457,0,1,0,28.2,37.4,4.282,4.282,0,0,1,29.8,34.67c0-.065.01-.129.01-.194A3.457,3.457,0,0,0,26.357,31.019Z" transform="translate(-14.713 -24.026)" fill="#fff"/>
        <path id="Path_11107" data-name="Path 11107" d="M71.82,24.694a4.283,4.283,0,0,1,1.993,3.182,3.455,3.455,0,1,0-1.993-3.182Z" transform="translate(-46.145 -17.775)" fill="#39b6e9"/>
        <circle id="Ellipse_417" data-name="Ellipse 417" cx="3.457" cy="3.457" r="3.457" transform="translate(14.253 10.562)" fill="#39b6e9"/>
        <path id="Path_11108" data-name="Path 11108" d="M62.047,51.019H59.135a4.261,4.261,0,0,1-1.315,2.968,5.261,5.261,0,0,1,3.757,5.034v1.105a11.9,11.9,0,0,0,4.64-.976l.231-.117h.024V55.446A4.43,4.43,0,0,0,62.047,51.019Z" transform="translate(-37.15 -36.876)" fill="#fff"/>
        <path id="Path_11109" data-name="Path 11109" d="M77.991,41.289H75.08a4.26,4.26,0,0,1-1.315,2.968,5.261,5.261,0,0,1,3.757,5.034V50.4a11.886,11.886,0,0,0,4.64-.976l.231-.117h.025V45.716A4.432,4.432,0,0,0,77.991,41.289Z" transform="translate(-47.394 -30.625)" fill="#39b6e9"/>
        <path id="Path_11110" data-name="Path 11110" d="M25.084,53.986a4.264,4.264,0,0,1-1.315-2.951c-.108-.008-.214-.017-.325-.017H20.512a4.432,4.432,0,0,0-4.427,4.427v3.588l.009.055.247.078a20.754,20.754,0,0,0,4.985.937V59.02A5.263,5.263,0,0,1,25.084,53.986Z" transform="translate(-10.335 -36.875)" fill="#fff"/>
        <path id="Path_11111" data-name="Path 11111" d="M40.415,61H37.481a4.432,4.432,0,0,0-4.427,4.427v3.588l.009.056.247.077a20.161,20.161,0,0,0,6.018.971,12.362,12.362,0,0,0,5.256-.987l.231-.117h.024V65.43A4.43,4.43,0,0,0,40.415,61Z" transform="translate(-21.237 -43.291)" fill="#39b6e9"/>
        <path id="Path_11112" data-name="Path 11112" d="M10.272,28.511a3.436,3.436,0,0,0,1.461-.327A4.285,4.285,0,0,1,13.726,25a3.456,3.456,0,1,0-3.454,3.51Z" transform="translate(-4.379 -17.972)" fill="#39b6e9"/>
        <path id="Path_11113" data-name="Path 11113" d="M8.652,44.564A4.263,4.263,0,0,1,7.338,41.6H4.427A4.432,4.432,0,0,0,0,46.023v3.588H.025l.231.117A11.905,11.905,0,0,0,4.9,50.7V49.6A5.26,5.26,0,0,1,8.652,44.564Z" transform="translate(0 -30.822)" fill="#39b6e9"/>
        <path id="Path_11114" data-name="Path 11114" d="M24.132,19.793a4.666,4.666,0,0,1,1.652-.374,4.09,4.09,0,0,1,2,.525,3.477,3.477,0,0,0,.375-.436,4.4,4.4,0,0,1-.479-4.549,3.388,3.388,0,0,0-2.288-.88,3.425,3.425,0,0,0-3.3,2.534A4.113,4.113,0,0,1,24.132,19.793Z" transform="translate(-14.195 -13.142)" fill="#fff"/>
        <path id="Path_11115" data-name="Path 11115" d="M59.117,19.31a3.42,3.42,0,0,0,.42.538,4.084,4.084,0,0,1,1.82-.432,5.128,5.128,0,0,1,1.6.29,4.12,4.12,0,0,1,2.288-3.343,3.416,3.416,0,0,0-5.708-1.219,4.386,4.386,0,0,1-.419,4.165Z" transform="translate(-37.983 -13.139)" fill="#fff"/>
      </g>
    </g>
  </g>
</svg>
