<svg xmlns="http://www.w3.org/2000/svg" width="51.461" height="51.461" viewBox="0 0 51.461 51.461">
  <g id="eligible-usp-icon5" transform="translate(-1399.539 -4527.763)">
    <circle id="Ellipse_440" data-name="Ellipse 440" cx="25.73" cy="25.73" r="25.73" transform="translate(1399.539 4527.763)" fill="#083f85"/>
    <g id="teamwork" transform="translate(1409.652 4540.818)">
      <g id="Group_5312" data-name="Group 5312" transform="translate(16.191)">
        <path id="Path_11093" data-name="Path 11093" d="M269.439,6.879a3.439,3.439,0,1,1,3.439-3.439A3.443,3.443,0,0,1,269.439,6.879Z" transform="translate(-266)" fill="#fff"/>
      </g>
      <path id="Path_11094" data-name="Path 11094" d="M231.143,0a1.743,1.743,0,0,0-1.671,1.755V3.44A2.866,2.866,0,0,1,226.6,6.306h-.012a5.153,5.153,0,0,1-7.782.926A6.014,6.014,0,0,0,216,12.325v5.159a2.006,2.006,0,0,0,2.006,2.006h.86v9a.86.86,0,0,0,.86.86h2.15v-9a.86.86,0,0,1,1.72,0v9h2.15a.86.86,0,0,0,.86-.86V9.746a6.306,6.306,0,0,0,6.306-6.306V1.72A1.72,1.72,0,0,0,231.143,0Z" transform="translate(-202.675 0)" fill="#39b6e9"/>
      <path id="Path_11095" data-name="Path 11095" d="M74.153,6.306a3.153,3.153,0,1,1,3.153-3.153A3.156,3.156,0,0,1,74.153,6.306Z" transform="translate(-65.987 0)" fill="#39b6e9"/>
      <g id="Group_5313" data-name="Group 5313" transform="translate(1 6.306)">
        <path id="Path_11096" data-name="Path 11096" d="M11.876,110a4.862,4.862,0,0,1-7.034.406A6.021,6.021,0,0,0,1,116.019v5.159a2.006,2.006,0,0,0,2.006,2.006h.86v9a.86.86,0,0,0,.86.86h2.15v-9a.86.86,0,0,1,1.72,0v9h2.15a.86.86,0,0,0,.86-.86V116.019A7.727,7.727,0,0,1,14.486,110Z" transform="translate(-1 -110)" fill="#fff"/>
      </g>
    </g>
  </g>
</svg>
