<svg xmlns="http://www.w3.org/2000/svg" width="51.461" height="51.461" viewBox="0 0 51.461 51.461">
  <g id="eligible-usp-icon3" transform="translate(-1014 -4662.511)">
    <circle id="Ellipse_438" data-name="Ellipse 438" cx="25.73" cy="25.73" r="25.73" transform="translate(1014 4662.511)" fill="#083f85"/>
    <g id="Page-1" transform="translate(1024.078 4673.533)">
      <g id="_006---Family-Tree" data-name="006---Family-Tree" transform="translate(0 -0.017)">
        <path id="Shape" d="M43.88,30a3.873,3.873,0,0,0-3.356,5.82A3.847,3.847,0,0,1,41.952,34.4a2.194,2.194,0,0,1-.289-1.075,2.217,2.217,0,1,1,4.435,0,2.194,2.194,0,0,1-.289,1.074,3.847,3.847,0,0,1,1.428,1.419A3.873,3.873,0,0,0,43.88,30Z" transform="translate(-17.826 -13.915)" fill="#39b6e9"/>
        <path id="Shape-2" data-name="Shape" d="M2.336,20.969a3.857,3.857,0,0,0,5.171,0,2.756,2.756,0,0,0-1.465-1.537,2.15,2.15,0,0,1-2.241,0A2.756,2.756,0,0,0,2.336,20.969Z" transform="translate(-1.041 -9.205)" fill="#fff"/>
        <path id="Shape-3" data-name="Shape" d="M23.336,11.969a3.857,3.857,0,0,0,5.171,0,2.756,2.756,0,0,0-1.465-1.537,2.15,2.15,0,0,1-2.241,0A2.756,2.756,0,0,0,23.336,11.969Z" transform="translate(-10.4 -5.194)" fill="#fff"/>
        <circle id="Oval" cx="1.109" cy="1.109" r="1.109" transform="translate(14.413 2.227)" fill="#fff"/>
        <path id="Shape-4" data-name="Shape" d="M44.336,20.969a3.857,3.857,0,0,0,5.171,0,2.756,2.756,0,0,0-1.465-1.537,2.15,2.15,0,0,1-2.241,0A2.756,2.756,0,0,0,44.336,20.969Z" transform="translate(-19.759 -9.205)" fill="#fff"/>
        <path id="Shape-5" data-name="Shape" d="M1.952,14.392a2.194,2.194,0,0,1-.289-1.074,2.217,2.217,0,0,1,4.435,0,2.194,2.194,0,0,1-.289,1.074,3.847,3.847,0,0,1,1.428,1.419,3.88,3.88,0,1,0-6.712,0A3.846,3.846,0,0,1,1.952,14.392Z" transform="translate(0 -4.994)" fill="#39b6e9"/>
        <circle id="Oval-2" data-name="Oval" cx="1.109" cy="1.109" r="1.109" transform="translate(24.945 18.302)" fill="#fff"/>
        <circle id="Oval-3" data-name="Oval" cx="1.109" cy="1.109" r="1.109" transform="translate(2.772 7.216)" fill="#fff"/>
        <path id="Shape-6" data-name="Shape" d="M46.042,39.432a2.15,2.15,0,0,1-2.241,0,2.756,2.756,0,0,0-1.465,1.537,3.857,3.857,0,0,0,5.171,0A2.756,2.756,0,0,0,46.042,39.432Z" transform="translate(-18.868 -18.118)" fill="#fff"/>
        <path id="Shape-7" data-name="Shape" d="M14.549,20.524c1.8.931,3.507,1.81,5.044,2.8a3.844,3.844,0,0,1,.973.827,1.892,1.892,0,0,1,.136,2.229,2.008,2.008,0,0,1-1.477.887,4.613,4.613,0,0,1-.568.034,8.24,8.24,0,0,1-2.673-.538,4.949,4.949,0,0,1,.164,1.257v.019c4.37.2,4.435,2.644,4.435,2.753v4.435a2.672,2.672,0,0,1-2.772,2.772,2.145,2.145,0,0,0-1.794.911c1.532-.257,4.223-.563,5.678.123,1.455-.682,4.137-.38,5.669-.123a2.143,2.143,0,0,0-1.792-.911A2.672,2.672,0,0,1,22.8,35.222V30.787c0-.111.065-2.557,4.435-2.753v-.019a4.955,4.955,0,0,1,.166-1.257,8.225,8.225,0,0,1-2.674.538,4.751,4.751,0,0,1-.57-.033,2.008,2.008,0,0,1-1.475-.887,1.891,1.891,0,0,1,.139-2.23,3.837,3.837,0,0,1,.971-.825c1.534-.986,3.238-1.865,5.042-2.8l.7-.365a4.989,4.989,0,0,1-.746-1.175c-1.473,1.037-3.62,2.378-4.883,2.378a1.216,1.216,0,0,1-.967-.46c-.665-.808-.554-2.642-.335-4.063a4.8,4.8,0,0,1-1.829,0c.217,1.42.329,3.255-.335,4.063a1.216,1.216,0,0,1-.968.46c-1.262,0-3.409-1.341-4.883-2.379a4.989,4.989,0,0,1-.746,1.175Z" transform="translate(-6.171 -8.05)" fill="#39b6e9"/>
        <path id="Shape-8" data-name="Shape" d="M45.88,10a3.873,3.873,0,0,0-3.356,5.82A3.847,3.847,0,0,1,43.952,14.4a2.194,2.194,0,0,1-.289-1.075,2.217,2.217,0,1,1,4.435,0,2.194,2.194,0,0,1-.289,1.074,3.847,3.847,0,0,1,1.428,1.419A3.873,3.873,0,0,0,45.88,10Z" transform="translate(-18.717 -5.002)" fill="#39b6e9"/>
        <path id="Shape-9" data-name="Shape" d="M22.952,5.392a2.194,2.194,0,0,1-.289-1.074,2.217,2.217,0,1,1,4.435,0,2.194,2.194,0,0,1-.289,1.074,3.847,3.847,0,0,1,1.428,1.419,3.88,3.88,0,1,0-6.712,0A3.847,3.847,0,0,1,22.952,5.392Z" transform="translate(-9.359 -0.983)" fill="#39b6e9"/>
        <circle id="Oval-4" data-name="Oval" cx="1.109" cy="1.109" r="1.109" transform="translate(26.054 7.216)" fill="#fff"/>
        <path id="Shape-10" data-name="Shape" d="M3.663,33.318a2.217,2.217,0,0,1,4.435,0,2.194,2.194,0,0,1-.289,1.074,3.847,3.847,0,0,1,1.428,1.419,3.88,3.88,0,1,0-6.712,0,3.846,3.846,0,0,1,1.428-1.419A2.194,2.194,0,0,1,3.663,33.318Z" transform="translate(-0.891 -13.907)" fill="#39b6e9"/>
        <circle id="Oval-5" data-name="Oval" cx="1.109" cy="1.109" r="1.109" transform="translate(3.88 18.302)" fill="#fff"/>
        <path id="Shape-11" data-name="Shape" d="M9.507,40.969a2.756,2.756,0,0,0-1.465-1.537,2.15,2.15,0,0,1-2.241,0,2.756,2.756,0,0,0-1.465,1.537A3.857,3.857,0,0,0,9.507,40.969Z" transform="translate(-1.932 -18.118)" fill="#fff"/>
      </g>
    </g>
  </g>
</svg>
