<svg xmlns="http://www.w3.org/2000/svg" width="51.461" height="51.461" viewBox="0 0 51.461 51.461">
  <g id="eligible-usp-icon8" transform="translate(-1399.539 -4731.889)">
    <circle id="Ellipse_443" data-name="Ellipse 443" cx="25.73" cy="25.73" r="25.73" transform="translate(1399.539 4731.889)" fill="#083f85"/>
    <g id="Group_5389" data-name="Group 5389" transform="translate(105.313 482.043)">
      <path id="Path_11118" data-name="Path 11118" d="M30.5,313.914a3.854,3.854,0,0,0-5.29-1.311l-.045.029-.048.032a9.658,9.658,0,0,1-18.676,0l-.048-.031-.045-.029a3.854,3.854,0,0,0-4.008,6.583l6.688,4.435v6.023a1.453,1.453,0,0,0,1.453,1.453h10.6a1.453,1.453,0,0,0,1.453-1.453v-6.023l6.688-4.435a3.854,3.854,0,0,0,1.281-5.272Zm0,0" transform="translate(1304.183 3958.304)" fill="#39b6e9"/>
      <path id="Path_11119" data-name="Path 11119" d="M96.729,235.253a6.752,6.752,0,1,0-6.752-6.752A6.759,6.759,0,0,0,96.729,235.253Zm0,0" transform="translate(1223.228 4040.001)" fill="#fff"/>
    </g>
  </g>
</svg>
