<svg xmlns="http://www.w3.org/2000/svg" width="51.461" height="51.461" viewBox="0 0 51.461 51.461">
  <g id="eligible-usp-icon4" transform="translate(-1014 -4731.126)">
    <circle id="Ellipse_439" data-name="Ellipse 439" cx="25.73" cy="25.73" r="25.73" transform="translate(1014 4731.126)" fill="#083f85"/>
    <g id="Group_5391" data-name="Group 5391" transform="translate(-21.5 919.51)">
      <ellipse id="Ellipse_422" data-name="Ellipse 422" cx="11" cy="6.5" rx="11" ry="6.5" transform="translate(1050 3836)" fill="#fff"/>
      <g id="users-relation" transform="translate(1044.115 3730.121)">
        <path id="Path_11116" data-name="Path 11116" d="M2.851,100.887A4.045,4.045,0,1,1,6.9,104.933,4.045,4.045,0,0,1,2.851,100.887Zm24.155,4.045a4.045,4.045,0,1,0-4.046-4.045A4.046,4.046,0,0,0,27.006,104.933Zm6.9,4.579v4.2h-.029l-.271.137A14.265,14.265,0,0,1,27.8,115c-1.8,2.435-5.887,4.14-10.63,4.14s-8.841-1.71-10.639-4.151a22.275,22.275,0,0,1-2.537-.251l-1.11-.2A26.1,26.1,0,0,1,.3,113.867l-.29-.091L0,113.711v-4.2a5.184,5.184,0,0,1,3.86-5,4.434,4.434,0,0,0,6.071,0,5.171,5.171,0,0,1,2.39,1.412,18.9,18.9,0,0,1,9.343-.095,5.189,5.189,0,0,1,2.305-1.317,4.434,4.434,0,0,0,6.071,0,5.2,5.2,0,0,1,3.623,3.472l.216,1.074Q33.9,109.281,33.9,109.512Zm-7.164,5.476a22.212,22.212,0,0,1-2.634-.254l-1.11-.2a26.262,26.262,0,0,1-2.584-.665l-.289-.091-.011-.065v-4.2a5.134,5.134,0,0,1,.942-2.964,18.531,18.531,0,0,0-8.151.089,5.15,5.15,0,0,1,.654,1.345l.216,1.074c.013.151.021.3.021.456v4.2h-.029l-.271.137A14.328,14.328,0,0,1,7.61,115c1.793,1.951,5.4,3.288,9.56,3.288S24.947,116.945,26.738,114.988Z" fill="#39b6e9"/>
      </g>
    </g>
  </g>
</svg>
