<svg xmlns="http://www.w3.org/2000/svg" width="51.461" height="51.461" viewBox="0 0 51.461 51.461">
  <g id="eligible-usp-icon1" transform="translate(-1013.835 -4527)">
    <circle id="Ellipse_436" data-name="Ellipse 436" cx="25.73" cy="25.73" r="25.73" transform="translate(1013.835 4527)" fill="#083f85"/>
    <g id="Group_5392" data-name="Group 5392" transform="translate(1678.156 4481.862)">
      <path id="Path_11126" data-name="Path 11126" d="M-505.193,60.472a4.334,4.334,0,0,1,4.334-4.334,4.334,4.334,0,0,1,4.334,4.334,4.334,4.334,0,0,1-4.334,4.333A4.334,4.334,0,0,1-505.193,60.472Z" transform="translate(-137.85)" fill="#fff"/>
      <path id="Path_11127" data-name="Path 11127" d="M-478.507,200.916a4.69,4.69,0,0,1,.891-2.539,5.528,5.528,0,0,0-1.135-.118h-3.677a5.556,5.556,0,0,0-1.131.116,4.7,4.7,0,0,1,.894,2.733,4.709,4.709,0,0,1,2.276-.584A4.707,4.707,0,0,1-478.507,200.916Z" transform="translate(-158.119 -133.158)" fill="#fff"/>
      <path id="Path_11128" data-name="Path 11128" d="M-391.816,188.129a4.95,4.95,0,0,1,2.3,3.675,3.971,3.971,0,0,0,1.687.378,3.993,3.993,0,0,0,3.993-3.993,3.992,3.992,0,0,0-3.993-3.993A3.991,3.991,0,0,0-391.816,188.129Z" transform="translate(-244.077 -119.983)" fill="#39b6e9"/>
      <path id="Path_11129" data-name="Path 11129" d="M-492.624,257.552a3.993,3.993,0,0,0,3.992-3.993,3.993,3.993,0,0,0-3.992-3.993,3.993,3.993,0,0,0-3.993,3.993A3.994,3.994,0,0,0-492.624,257.552Z" transform="translate(-145.885 -181.231)" fill="#fff"/>
      <path id="Path_11130" data-name="Path 11130" d="M-532.725,380.5h-3.388a5.119,5.119,0,0,0-5.113,5.113v4.143l.011.065.285.089a23.284,23.284,0,0,0,6.951,1.121,14.266,14.266,0,0,0,6.069-1.14l.267-.135h.028v-4.143A5.117,5.117,0,0,0-532.725,380.5Z" transform="translate(-104.09 -303.905)" fill="#fff"/>
      <path id="Path_11131" data-name="Path 11131" d="M-374.2,315.142h-3.362a4.921,4.921,0,0,1-1.519,3.428,6.074,6.074,0,0,1,4.339,5.813v1.277a13.765,13.765,0,0,0,5.358-1.126l.267-.136h.028v-4.144A5.117,5.117,0,0,0-374.2,315.142Z" transform="translate(-256.011 -242.67)" fill="#39b6e9"/>
      <path id="Path_11132" data-name="Path 11132" d="M-603.707,192.183a3.966,3.966,0,0,0,2.123-.617,4.942,4.942,0,0,1,1.857-3.152c0-.075.011-.149.011-.225a3.993,3.993,0,0,0-3.992-3.993,3.992,3.992,0,0,0-3.993,3.993A3.992,3.992,0,0,0-603.707,192.183Z" transform="translate(-41.807 -119.984)" fill="#39b6e9"/>
      <path id="Path_11133" data-name="Path 11133" d="M-641.928,318.57a4.925,4.925,0,0,1-1.518-3.409c-.124-.009-.248-.019-.375-.019h-3.387a5.118,5.118,0,0,0-5.112,5.112V324.4l.01.065.286.089a23.866,23.866,0,0,0,5.757,1.082v-1.251A6.074,6.074,0,0,1-641.928,318.57Z" transform="translate(0 -242.67)" fill="#39b6e9"/>
    </g>
  </g>
</svg>
