<svg xmlns="http://www.w3.org/2000/svg" width="51.461" height="51.461" viewBox="0 0 51.461 51.461">
  <g id="eligible-usp-icon6" transform="translate(-1399.539 -4595.763)">
    <circle id="Ellipse_441" data-name="Ellipse 441" cx="25.73" cy="25.73" r="25.73" transform="translate(1399.539 4595.763)" fill="#083f85"/>
    <g id="Group_5390" data-name="Group 5390" transform="translate(365.107 958.495)">
      <circle id="Ellipse_421" data-name="Ellipse 421" cx="3.096" cy="3.096" r="3.096" transform="translate(1057.97 3645.609)" fill="#fff"/>
      <path id="Path_11120" data-name="Path 11120" d="M9.524,414.961a5.142,5.142,0,0,1-7.529,0,4.546,4.546,0,0,0-2,3.761v1.213a.909.909,0,0,0,.909.909h9.7a.909.909,0,0,0,.909-.909v-1.213A4.546,4.546,0,0,0,9.524,414.961Z" transform="translate(1045.544 3255.765)" fill="#fff"/>
      <path id="Path_11121" data-name="Path 11121" d="M331.524,414.961a5.142,5.142,0,0,1-7.529,0,4.546,4.546,0,0,0-2,3.761v1.213a.909.909,0,0,0,.909.909h9.7a.909.909,0,0,0,.909-.909v-1.213A4.546,4.546,0,0,0,331.524,414.961Z" transform="translate(743.067 3255.765)" fill="#fff"/>
      <path id="Path_11122" data-name="Path 11122" d="M158.927,218.91a3.325,3.325,0,0,0,.043.536l-4.274-1.328a2.725,2.725,0,0,1-4.371,0l-4.274,1.328a3.354,3.354,0,0,0-.219-1.836l3.954-1.228a2.734,2.734,0,0,1,1.816-2.466V210h1.819v3.915a2.733,2.733,0,0,1,1.816,2.466l3.954,1.228A3.328,3.328,0,0,0,158.927,218.91Z" transform="translate(908.556 3448.3)" fill="#39b6e9"/>
      <path id="Path_11123" data-name="Path 11123" d="M46.416,304.032a3.354,3.354,0,0,1,.219,1.836l-.01,0a3.334,3.334,0,1,1-.22-1.836Z" transform="translate(1007.969 3361.877)" fill="#fff"/>
      <path id="Path_11124" data-name="Path 11124" d="M172.52,116.721v1.213a.91.91,0,0,1-.909.909h-9.7a.91.91,0,0,1-.909-.909v-1.213a4.546,4.546,0,0,1,2-3.761,5.142,5.142,0,0,0,7.529,0A4.546,4.546,0,0,1,172.52,116.721Z" transform="translate(894.306 3539.456)" fill="#fff"/>
      <path id="Path_11125" data-name="Path 11125" d="M368.529,305.144a3.345,3.345,0,1,1-3.344-3.344A3.344,3.344,0,0,1,368.529,305.144Z" transform="translate(705.642 3362.065)" fill="#fff"/>
    </g>
  </g>
</svg>
