<svg xmlns="http://www.w3.org/2000/svg" width="51.461" height="51.461" viewBox="0 0 51.461 51.461">
  <g id="eligible-usp-icon2" transform="translate(-1014 -4595)">
    <circle id="Ellipse_437" data-name="Ellipse 437" cx="25.73" cy="25.73" r="25.73" transform="translate(1014 4595)" fill="#083f85"/>
    <g id="community" transform="translate(1025 4606)">
      <path id="Path_11100" data-name="Path 11100" d="M262.747,326.42h2.631v10.549h-2.631Z" transform="translate(-247.811 -307.865)" fill="#fff"/>
      <g id="Group_5314" data-name="Group 5314" transform="translate(0 6.128)">
        <path id="Path_11101" data-name="Path 11101" d="M5.486,116.056A2.566,2.566,0,0,1,6.5,114.02l5.055-3.823-2.938-2.222a.853.853,0,0,0-1.03,0l-7.25,5.482a.851.851,0,0,0-.338.679V126.39a.852.852,0,0,0,.853.851H5.486Z" transform="translate(0 -107.803)" fill="#fff"/>
      </g>
      <path id="Path_11102" data-name="Path 11102" d="M242.8,5.655,235.554.173a.854.854,0,0,0-1.03,0l-7.25,5.482a.851.851,0,0,0-.338.679V7.4l.067.051,1.74-1.316a2.561,2.561,0,0,1,3.089,0l8.207,6.206a2.566,2.566,0,0,1,1.014,2.036v5.057h1.236a.852.852,0,0,0,.853-.851V6.334a.851.851,0,0,0-.338-.679Z" transform="translate(-214.037)" fill="#39b6e9"/>
      <path id="Path_11103" data-name="Path 11103" d="M144.3,135.217l-8.207-6.206a.853.853,0,0,0-1.03,0l-8.207,6.206a.851.851,0,0,0-.338.679v13.872a.852.852,0,0,0,.853.851h5.186v-11.4a.852.852,0,0,1,.853-.851h4.336a.852.852,0,0,1,.853.851v11.4h5.186a.852.852,0,0,0,.853-.851V135.9a.851.851,0,0,0-.338-.679Z" transform="translate(-119.325 -121.514)" fill="#39b6e9"/>
    </g>
  </g>
</svg>
