<svg id="family-hover-icon" xmlns="http://www.w3.org/2000/svg" width="84.779" height="84.779" viewBox="0 0 84.779 84.779">
  <path id="Path_10437" data-name="Path 10437" d="M359.021,261.042a9.521,9.521,0,1,1,9.521-9.521A9.532,9.532,0,0,1,359.021,261.042Z" transform="translate(-291.628 -201.929)" fill="#fff"/>
  <path id="Path_10438" data-name="Path 10438" d="M57.021,261.042a9.521,9.521,0,1,1,9.521-9.521A9.532,9.532,0,0,1,57.021,261.042Z" transform="translate(-39.635 -201.929)" fill="#fff"/>
  <path id="Path_10439" data-name="Path 10439" d="M176.6,6.623a8.188,8.188,0,0,1-7.364-4.551l-.35-.7A2.484,2.484,0,0,0,166.666,0H153.419A2.484,2.484,0,0,0,151.2,1.373l-.35.7a8.188,8.188,0,0,1-7.364,4.551A2.484,2.484,0,0,0,141,9.107V23.281a25.718,25.718,0,0,0,18.329,24.634,2.482,2.482,0,0,0,1.427,0,25.718,25.718,0,0,0,18.329-24.634V9.107A2.484,2.484,0,0,0,176.6,6.623Zm-7.777,14.459-9.367,9.367a2.483,2.483,0,0,1-3.512,0l-4.683-4.683a2.484,2.484,0,0,1,3.513-3.513L157.7,25.18l7.611-7.61a2.484,2.484,0,1,1,3.512,3.513Z" transform="translate(-117.653)" fill="#083f85"/>
  <g id="Group_4701" data-name="Group 4701" transform="translate(0 59.902)">
    <g id="Group_4700" data-name="Group 4700">
      <path id="Path_10440" data-name="Path 10440" d="M347.44,361.771a14.462,14.462,0,0,1-20.326-.012,17.406,17.406,0,0,0-3.665,3.564l1.365,1.2a19.047,19.047,0,0,1,6.509,14.323v5.8h20.864a2.484,2.484,0,0,0,2.484-2.484v-8.279A17.375,17.375,0,0,0,347.44,361.771Z" transform="translate(-269.89 -361.759)" fill="#fff"/>
      <path id="Path_10441" data-name="Path 10441" d="M7.229,361.771A17.375,17.375,0,0,0,0,375.874v8.279a2.484,2.484,0,0,0,2.484,2.484H23.347v-5.8a19.047,19.047,0,0,1,6.509-14.323l1.365-1.2a17.405,17.405,0,0,0-3.665-3.564,14.462,14.462,0,0,1-20.326.012Z" transform="translate(0 -361.759)" fill="#fff"/>
    </g>
    <path id="Path_10442" data-name="Path 10442" d="M194.335,413.07a12.8,12.8,0,0,1-18.52,0A14.042,14.042,0,0,0,171,423.656v5.8h28.149v-5.8A14.042,14.042,0,0,0,194.335,413.07Z" transform="translate(-142.685 -404.574)" fill="#fff"/>
  </g>
  <path id="Path_10443" data-name="Path 10443" d="M216.365,327.731a7.865,7.865,0,1,1,7.865-7.865A7.874,7.874,0,0,1,216.365,327.731Z" transform="translate(-173.976 -260.338)" fill="#fff"/>
</svg>
