<svg xmlns="http://www.w3.org/2000/svg" width="67.856" height="63.618" viewBox="0 0 67.856 63.618">
  <g id="guidance-hover-icon" transform="translate(0 0)">
    <path id="Path_11150" data-name="Path 11150" d="M184.387,11.344l4.559-4.559v7.129a1.988,1.988,0,1,0,3.976,0V6.785l4.559,4.559a1.988,1.988,0,1,0,2.811-2.811l-7.95-7.95a2,2,0,0,0-2.816,0l-7.95,7.95a1.988,1.988,0,1,0,2.812,2.811Zm0,0" transform="translate(-157.005 0)" fill="#39b6e9"/>
    <path id="Path_11151" data-name="Path 11151" d="M8.532,199.291a1.988,1.988,0,1,0,2.812-2.812l-4.559-4.559h7.129a1.988,1.988,0,1,0,0-3.976H6.785l4.559-4.559a1.988,1.988,0,0,0-2.811-2.812l-7.95,7.95a2,2,0,0,0,0,2.816Zm0,0" transform="translate(0 -156.137)" fill="#39b6e9"/>
    <path id="Path_11152" data-name="Path 11152" d="M394,191.922h7.129l-4.559,4.559a1.988,1.988,0,0,0,2.812,2.811l7.95-7.95a2,2,0,0,0,0-2.816l-7.95-7.95a1.988,1.988,0,0,0-2.812,2.811l4.559,4.559H394a1.988,1.988,0,0,0,0,3.976Zm0,0" transform="translate(-340.061 -156.138)" fill="#39b6e9"/>
    <path id="Path_11153" data-name="Path 11153" d="M123.9,362.9h31.566a1.986,1.986,0,0,0,1.972-2.235,17.9,17.9,0,0,0-35.511,0A1.986,1.986,0,0,0,123.9,362.9Zm0,0" transform="translate(-105.755 -299.286)" fill="#fff"/>
    <path id="Path_11154" data-name="Path 11154" d="M190.933,184.874a9.941,9.941,0,1,0-9.941-9.941A9.952,9.952,0,0,0,190.933,184.874Zm0,0" transform="translate(-157.005 -143.125)" fill="#fff"/>
  </g>
</svg>
