<svg xmlns="http://www.w3.org/2000/svg" width="84.784" height="84.779" viewBox="0 0 84.784 84.779">
  <g id="happiness-hover-icon" transform="translate(0 -0.014)">
    <path id="Path_10444" data-name="Path 10444" d="M138.438,303.377A21.008,21.008,0,0,1,121.8,295.2a39.579,39.579,0,0,1-6.7,10.35A48,48,0,0,0,121.5,308.2v20.412a2.484,2.484,0,0,0,2.484,2.484h28.913a2.484,2.484,0,0,0,2.484-2.484V308.2a48,48,0,0,0,6.392-2.656,39.585,39.585,0,0,1-6.7-10.35A21.007,21.007,0,0,1,138.438,303.377Z" transform="translate(-96.046 -246.307)" fill="#fff"/>
    <path id="Path_10445" data-name="Path 10445" d="M397.481,194.219a7.54,7.54,0,0,0-5.058-4.274l-.225-.057a7.627,7.627,0,0,0-8.612,3.833,19.189,19.189,0,0,1-4.2,5.18,25,25,0,0,1-3.849,2.824,35.616,35.616,0,0,0,8.015,13.248,37.578,37.578,0,0,0,13.691-14.083,7.6,7.6,0,0,0,.235-6.671Z" transform="translate(-313.355 -158.236)" fill="#fff"/>
    <path id="Path_10446" data-name="Path 10446" d="M22.6,201.724a25.019,25.019,0,0,1-3.85-2.824,19.182,19.182,0,0,1-4.2-5.181,7.627,7.627,0,0,0-8.611-3.832l-.224.057A7.608,7.608,0,0,0,.894,200.89a37.579,37.579,0,0,0,13.691,14.083A35.62,35.62,0,0,0,22.6,201.724Z" transform="translate(0 -158.235)" fill="#fff"/>
    <path id="Path_10447" data-name="Path 10447" d="M175.044,120.514a16.068,16.068,0,1,0,16.068,16.068A16.086,16.086,0,0,0,175.044,120.514Zm4.464,17.264a6.312,6.312,0,0,1-8.927,0,2.484,2.484,0,0,1,3.513-3.513,1.344,1.344,0,0,0,1.9,0,2.484,2.484,0,0,1,3.513,3.513Z" transform="translate(-132.652 -100.547)" fill="#fff"/>
    <path id="Path_10448" data-name="Path 10448" d="M243.5,10.962a2.484,2.484,0,0,0,2.484-2.484V2.5a2.484,2.484,0,1,0-4.968,0V8.479A2.484,2.484,0,0,0,243.5,10.962Z" transform="translate(-201.105 0)" fill="#083f85"/>
    <path id="Path_10449" data-name="Path 10449" d="M148.188,43.193A2.484,2.484,0,0,0,151.7,39.68l-4.229-4.229a2.484,2.484,0,0,0-3.513,3.513Z" transform="translate(-119.514 -28.962)" fill="#083f85"/>
    <path id="Path_10450" data-name="Path 10450" d="M315.738,43.92a2.476,2.476,0,0,0,1.756-.728l4.229-4.229a2.484,2.484,0,0,0-3.513-3.513l-4.229,4.229a2.484,2.484,0,0,0,1.756,4.24Z" transform="translate(-261.384 -28.962)" fill="#083f85"/>
  </g>
</svg>
