<svg xmlns="http://www.w3.org/2000/svg" width="50.275" height="50.275" viewBox="0 0 50.275 50.275">
  <g id="happy-hover-icon" transform="translate(0 0)">
    <path id="Path_11134" data-name="Path 11134" d="M161.31,113.084a10.323,10.323,0,0,0,10.31-10.312V98.867a10.537,10.537,0,0,1-10.31-1.9,10.538,10.538,0,0,1-10.31,1.9v3.906A10.323,10.323,0,0,0,161.31,113.084Zm-3.288-8.815a1.473,1.473,0,0,1,1.939.762,1.473,1.473,0,0,0,2.7,0,1.473,1.473,0,1,1,2.7,1.172,4.42,4.42,0,0,1-8.1,0A1.473,1.473,0,0,1,158.023,104.27Z" transform="translate(-136.173 -87.449)" fill="#39b6e9"/>
    <path id="Path_11135" data-name="Path 11135" d="M202.512,283.931a7.356,7.356,0,0,1-2.117.278v-.857a13.249,13.249,0,0,1-8.837,0v.857a7.355,7.355,0,0,1-2.117-.278,6.627,6.627,0,0,0,13.071,0Z" transform="translate(-170.839 -255.529)" fill="#fff"/>
    <path id="Path_11136" data-name="Path 11136" d="M162,6.509a1.476,1.476,0,0,1,2.21,0,7.6,7.6,0,0,0,9.01,1.822,10.311,10.311,0,0,0-20.23,0A7.6,7.6,0,0,0,162,6.509Z" transform="translate(-137.967 -0.017)" fill="#39b6e9"/>
    <path id="Path_11137" data-name="Path 11137" d="M6.713,16.933,16,15.045,13.724,3.691A4.591,4.591,0,0,0,4.7,5.384Z" transform="translate(-4.177 -0.001)" fill="#39b6e9"/>
    <path id="Path_11138" data-name="Path 11138" d="M1.234,314.757A1.473,1.473,0,0,0,0,316.211v.906a7.932,7.932,0,0,0,3.573,6.623l-1.594-9.147c-.465.116-.739.164-.745.164Z" transform="translate(0 -283.702)" fill="#fff"/>
    <path id="Path_11139" data-name="Path 11139" d="M43.522,191.4a7.343,7.343,0,0,1-2.209-3.938l-.969-4.829-9.363,1.9,5.093,29.219a1.473,1.473,0,0,0,1.451,1.22H51.6V201.47A9.587,9.587,0,0,1,43.522,191.4Z" transform="translate(-27.939 -164.702)" fill="#fff"/>
    <path id="Path_11140" data-name="Path 11140" d="M477.961,314.76c-.007,0-.282-.049-.747-.165l-1.594,9.147a7.932,7.932,0,0,0,3.572-6.623v-.906A1.476,1.476,0,0,0,477.961,314.76Z" transform="translate(-428.917 -283.704)" fill="#fff"/>
    <path id="Path_11141" data-name="Path 11141" d="M282.259,182.636l-.969,4.829a7.343,7.343,0,0,1-2.209,3.938A9.588,9.588,0,0,1,271,201.47v13.508h14.08a1.473,1.473,0,0,0,1.451-1.22l5.092-29.219Z" transform="translate(-244.389 -164.702)" fill="#fff"/>
    <path id="Path_11142" data-name="Path 11142" d="M402.872,5.384a4.591,4.591,0,0,0-9.024-1.694L391.57,15.045l9.29,1.887Z" transform="translate(-353.12 0)" fill="#39b6e9"/>
  </g>
</svg>
