<svg xmlns="http://www.w3.org/2000/svg" width="83.243" height="83.157" viewBox="0 0 83.243 83.157">
  <g id="home-hover-icon" transform="translate(0 -0.266)">
    <g id="Group_4702" data-name="Group 4702" transform="translate(0 54.401)">
      <path id="Path_10451" data-name="Path 10451" d="M75.826,338.944l-20.4,9.784a10.729,10.729,0,0,1-11.532,2.964l-9.225-3.244a2.607,2.607,0,0,1,1.73-4.919l9.225,3.244a5.5,5.5,0,0,0,7.005-3.36,1.555,1.555,0,0,0-.946-2l-19.841-6.949a15.605,15.605,0,0,0-11.926.651L0,344.941V362.6l18.791-9.291,25.189,8.655a11.721,11.721,0,0,0,8.877-.517L80.3,348.28a5.177,5.177,0,0,0-4.478-9.336Z" transform="translate(0 -333.575)" fill="#fff"/>
    </g>
    <g id="Group_4704" data-name="Group 4704" transform="translate(6.589 0.266)">
      <path id="Path_10452" data-name="Path 10452" d="M108.108,23.848a2.424,2.424,0,0,1-1.211-.324L75.524,5.511,44.218,23.485a2.436,2.436,0,1,1-2.426-4.226L74.311.589a2.437,2.437,0,0,1,2.426,0L109.324,19.3a2.437,2.437,0,0,1-1.215,4.549Z" transform="translate(-40.568 -0.266)" fill="#083f85"/>
      <g id="Group_4703" data-name="Group 4703" transform="translate(7.791 10.864)">
        <path id="Path_10453" data-name="Path 10453" d="M115.7,67.155l-27.165,15.6v19.6a2.738,2.738,0,0,0,2.738,2.738H140.2a2.738,2.738,0,0,0,2.738-2.738V82.79Zm10.274,25.107-8.661,7.373a2.436,2.436,0,0,1-3.16,0l-8.663-7.384a7.931,7.931,0,0,1-2.826-6.09q0-.14.006-.281a8.471,8.471,0,0,1,13.063-6.769A8.471,8.471,0,0,1,128.8,85.9c0,.1.006.193.006.288A7.941,7.941,0,0,1,125.977,92.262Z" transform="translate(-88.538 -67.155)" fill="#fff"/>
        <path id="Path_10454" data-name="Path 10454" d="M218.428,162.412a3.574,3.574,0,0,0-2.846,1.272,2.436,2.436,0,0,1-3.716,0,3.585,3.585,0,0,0-2.745-1.273h-.1a3.6,3.6,0,0,0-3.49,3.446c0,.042,0,.082,0,.122a3.071,3.071,0,0,0,1.115,2.347l7.084,6.038,7.081-6.028a3.077,3.077,0,0,0,1.116-2.343c0-.041,0-.085,0-.129A3.6,3.6,0,0,0,218.428,162.412Z" transform="translate(-186.526 -146.939)" fill="#083f85"/>
      </g>
    </g>
  </g>
</svg>
