<svg xmlns="http://www.w3.org/2000/svg" width="48.117" height="60.099" viewBox="0 0 48.117 60.099">
  <g id="membership-hover-icon" transform="translate(-28.353 0)">
    <path id="Path_11143" data-name="Path 11143" d="M450.73,4.2V2.389a2.389,2.389,0,0,0-4.779,0V4.871h4.1A.675.675,0,0,0,450.73,4.2Z" transform="translate(-374.26 0)" fill="#39b6e9"/>
    <path id="Path_11144" data-name="Path 11144" d="M27.726,379.035a2.433,2.433,0,0,0,.244-.012,2.393,2.393,0,0,0,2.145-2.377v-2.481h-4.1a.675.675,0,0,0-.674.674v1.807a2.392,2.392,0,0,0,2.39,2.389Z" transform="translate(3.017 -330.244)" fill="#39b6e9"/>
    <path id="Path_11145" data-name="Path 11145" d="M123.4,47.273a7.872,7.872,0,0,0-.227,1.108c-.021.132-.043.269-.067.409h4.312a2.393,2.393,0,0,0,2.39-2.39V2.389a5.878,5.878,0,0,1,.5-2.389H94.649a2.393,2.393,0,0,0-2.39,2.39V46.4a5.877,5.877,0,0,1-.5,2.39H98.96c-.024-.14-.046-.277-.067-.409a7.889,7.889,0,0,0-.227-1.109,7.373,7.373,0,0,0-.447-.973,6.594,6.594,0,0,1-.937-3.045,6.6,6.6,0,0,1,.937-3.045,7.367,7.367,0,0,0,.447-.973,7.871,7.871,0,0,0,.227-1.108,6.57,6.57,0,0,1,1.015-2.958,6.581,6.581,0,0,1,2.511-1.884,7.686,7.686,0,0,0,.971-.55,7.543,7.543,0,0,0,.807-.743,6.571,6.571,0,0,1,2.586-1.821,6.442,6.442,0,0,1,3.1-.048,5.246,5.246,0,0,0,2.307,0,6.444,6.444,0,0,1,3.1.048,6.572,6.572,0,0,1,2.586,1.821,7.559,7.559,0,0,0,.807.743,7.725,7.725,0,0,0,.971.55,6.579,6.579,0,0,1,2.511,1.884,6.567,6.567,0,0,1,1.015,2.958,7.891,7.891,0,0,0,.227,1.109,7.373,7.373,0,0,0,.447.973,6.594,6.594,0,0,1,.937,3.045,6.6,6.6,0,0,1-.937,3.045,7.394,7.394,0,0,0-.447.973ZM119.067,24.96H103a1.761,1.761,0,1,1,0-3.521h16.067a1.761,1.761,0,1,1,0,3.521Zm0-8.336H103a1.761,1.761,0,1,1,0-3.521h16.067a1.761,1.761,0,1,1,0,3.521Zm0-8.336H103a1.761,1.761,0,1,1,0-3.521h16.067a1.761,1.761,0,1,1,0,3.521Z" transform="translate(-58.622 0)" fill="#fff"/>
    <path id="Path_11146" data-name="Path 11146" d="M296.458,452.89l1.629,3.567a.674.674,0,0,0,1.223.009l.339-.715a1.76,1.76,0,0,1,2.064-.942l.762.212a.674.674,0,0,0,.794-.929l-2.089-4.574Z" transform="translate(-239.297 -396.752)" fill="#fff"/>
    <path id="Path_11147" data-name="Path 11147" d="M159.117,449.517l-2.089,4.574a.674.674,0,0,0,.794.929l.762-.212a1.761,1.761,0,0,1,2.064.942l.339.715a.674.674,0,0,0,1.223-.009l1.629-3.567Z" transform="translate(-116.175 -396.752)" fill="#fff"/>
    <path id="Path_11148" data-name="Path 11148" d="M180.773,304.641a4.081,4.081,0,0,0,1.465.082,4.019,4.019,0,0,0,1.178-.955,10.36,10.36,0,0,1,1.231-1.106,10.5,10.5,0,0,1,1.445-.841,2.087,2.087,0,0,0,1.647-2.26,10.73,10.73,0,0,1,.355-1.639,10.144,10.144,0,0,1,.663-1.494,2.158,2.158,0,0,0,0-2.874,10.126,10.126,0,0,1-.663-1.494,10.719,10.719,0,0,1-.355-1.64,2.087,2.087,0,0,0-1.647-2.26,10.507,10.507,0,0,1-1.445-.841,10.355,10.355,0,0,1-1.231-1.107,4.022,4.022,0,0,0-1.177-.955,4.081,4.081,0,0,0-1.465.082,8.527,8.527,0,0,1-3.4,0,4.085,4.085,0,0,0-1.465-.082,4.025,4.025,0,0,0-1.177.955,10.35,10.35,0,0,1-1.231,1.106,10.511,10.511,0,0,1-1.445.841,2.087,2.087,0,0,0-1.647,2.26,10.728,10.728,0,0,1-.355,1.639,10.139,10.139,0,0,1-.663,1.494,2.158,2.158,0,0,0,0,2.874,10.13,10.13,0,0,1,.663,1.494,10.716,10.716,0,0,1,.355,1.64,2.087,2.087,0,0,0,1.647,2.26,10.5,10.5,0,0,1,1.445.841,10.358,10.358,0,0,1,1.231,1.106,4.023,4.023,0,0,0,1.177.955,4.084,4.084,0,0,0,1.465-.082,8.532,8.532,0,0,1,3.4,0Zm-1.7-11.412a1.761,1.761,0,1,1-1.761,1.761A1.791,1.791,0,0,1,179.075,293.229Z" transform="translate(-126.664 -251.735)" fill="#39b6e9"/>
  </g>
</svg>
