<svg xmlns="http://www.w3.org/2000/svg" width="96" height="96" viewBox="0 0 96 96">
  <g id="things-usp-icon2" transform="translate(-938 -2206.227)">
    <circle id="Ellipse_356" data-name="Ellipse 356" cx="48" cy="48" r="48" transform="translate(938 2206.227)" fill="#083f85"/>
    <g id="nurse" transform="translate(960.414 2223.539)">
      <path id="Path_10399" data-name="Path 10399" d="M93.111,308.615a16.926,16.926,0,0,1-16.95-16.864,16.638,16.638,0,0,1,2.934-9.5,2.822,2.822,0,0,1,4.324-.4c4.26,4.3,10.8,6.88,17.78,6.88a28.047,28.047,0,0,0,5.472-.532,2.824,2.824,0,0,1,3.364,2.621q.026.465.026.932a16.926,16.926,0,0,1-16.95,16.863Zm0,0" transform="translate(-67.063 -247.457)" fill="#fff"/>
      <path id="Path_10400" data-name="Path 10400" d="M46.713,152.6c-.116.363-.231.724-.347,1.078a7.805,7.805,0,0,1-7.429,5.4h0a7.757,7.757,0,0,1-2.25-.334,36.817,36.817,0,0,0-21.354,0,7.8,7.8,0,0,1-9.68-5.064c-.109-.334-.218-.673-.327-1.014A21.705,21.705,0,0,0,0,166.917v22.226a1.787,1.787,0,0,0,1.792,1.783H9.625a20.378,20.378,0,0,1-.545-23.791,6.425,6.425,0,0,1,5.291-2.78,6.33,6.33,0,0,1,4.529,1.887c3.61,3.643,9.305,5.818,15.235,5.818a24.53,24.53,0,0,0,4.773-.464,6.4,6.4,0,0,1,7.641,5.938c.021.373.031.753.031,1.129a20.288,20.288,0,0,1-4.112,12.262H50.3a1.788,1.788,0,0,0,1.792-1.784V166.917A21.708,21.708,0,0,0,46.713,152.6Zm0,0" transform="translate(0 -134.37)" fill="#39b6e9"/>
      <path id="Path_10401" data-name="Path 10401" d="M85.417,2.749A56.275,56.275,0,0,0,68.074,0h-.021l0,0V0H68.03A56.275,56.275,0,0,0,50.687,2.749a4.244,4.244,0,0,0-2.728,5.359c.541,1.643,1.081,3.419,1.61,5.163.5,1.658,1.016,3.346,1.531,4.92a4.233,4.233,0,0,0,5.236,2.749A40.564,40.564,0,0,1,68.051,19.2v0A40.564,40.564,0,0,1,79.767,20.94,4.233,4.233,0,0,0,85,18.191c.515-1.574,1.028-3.262,1.531-4.92.53-1.744,1.069-3.52,1.61-5.163a4.243,4.243,0,0,0-2.728-5.359Zm-14.863,8.98h-.672V12.4a1.792,1.792,0,0,1-3.583,0v-.669h-.673a1.784,1.784,0,1,1,0-3.567H66.3v-.67a1.792,1.792,0,0,1,3.583,0v.67h.672a1.784,1.784,0,1,1,0,3.567Zm0,0" transform="translate(-42.043)" fill="#fff"/>
    </g>
  </g>
</svg>
