<svg xmlns="http://www.w3.org/2000/svg" width="96" height="96" viewBox="0 0 96 96">
  <g id="things-usp-icon3" transform="translate(-938 -2331.227)">
    <circle id="Ellipse_357" data-name="Ellipse 357" cx="48" cy="48" r="48" transform="translate(938 2331.227)" fill="#083f85"/>
    <g id="high-quality" transform="translate(952.436 2345.661)">
      <path id="Path_10402" data-name="Path 10402" d="M5.331,358.826.57,363.587a1.947,1.947,0,0,0,.761,3.224l7.923,2.641,2.641,7.923a1.947,1.947,0,0,0,3.224.761l6.131-6.131a33.14,33.14,0,0,1-15.919-13.18Z" transform="translate(0 -312.254)" fill="#39b6e9"/>
      <path id="Path_10403" data-name="Path 10403" d="M368.951,363.588l-4.761-4.761a33.14,33.14,0,0,1-15.919,13.179l6.131,6.131a1.947,1.947,0,0,0,3.224-.761l2.641-7.923,7.923-2.641a1.947,1.947,0,0,0,.761-3.224Z" transform="translate(-303.069 -312.255)" fill="#39b6e9"/>
      <path id="Path_10404" data-name="Path 10404" d="M213.953,173.659l-1.995-3-1.995,3a1.948,1.948,0,0,1-1.1.8l-3.475.969,2.242,2.826a1.947,1.947,0,0,1,.42,1.292l-.152,3.6,3.38-1.259a1.947,1.947,0,0,1,1.359,0l3.38,1.259-.152-3.6a1.947,1.947,0,0,1,.42-1.292l2.242-2.826-3.475-.969a1.947,1.947,0,0,1-1.1-.8Z" transform="translate(-178.732 -148.505)" fill="#fff"/>
      <path id="Path_10405" data-name="Path 10405" d="M143.221,94.267A16.84,16.84,0,0,0,126.4,111.088c.924,22.315,32.721,22.308,33.641,0A16.84,16.84,0,0,0,143.221,94.267Zm11.442,14.809-3.614,4.555.246,5.809a1.947,1.947,0,0,1-2.624,1.907l-5.449-2.029-5.449,2.029a1.947,1.947,0,0,1-2.624-1.907l.246-5.809-3.614-4.555a1.947,1.947,0,0,1,1-3.085l5.6-1.561,3.216-4.844a1.954,1.954,0,0,1,3.244,0l3.216,4.844,5.6,1.561a1.947,1.947,0,0,1,1,3.085Z" transform="translate(-109.995 -82.032)" fill="#39b6e9"/>
      <path id="Path_10406" data-name="Path 10406" d="M91.251,29.055A29.088,29.088,0,0,0,62.2,0c-38.546,1.6-38.535,56.521,0,58.111A29.089,29.089,0,0,0,91.251,29.055ZM62.2,49.77A20.738,20.738,0,0,1,41.481,29.055c1.138-27.48,40.3-27.472,41.429,0A20.738,20.738,0,0,1,62.2,49.77Z" transform="translate(-28.97)" fill="#fff"/>
    </g>
  </g>
</svg>
