<svg xmlns="http://www.w3.org/2000/svg" width="96" height="96" viewBox="0 0 96 96">
  <g id="things-usp-icon1" transform="translate(-938.485 -2082.636)">
    <circle id="Ellipse_355" data-name="Ellipse 355" cx="48" cy="48" r="48" transform="translate(938.485 2082.636)" fill="#083f85"/>
    <g id="recruitment" transform="translate(957.595 2101.745)">
      <path id="Path_10407" data-name="Path 10407" d="M1.992,362.918l12.45-12.45a18.775,18.775,0,0,0,4.788,4.788L6.78,367.706a3.386,3.386,0,0,1-4.788-4.788Z" transform="translate(-0.887 -310.916)" fill="#39b6e9"/>
      <path id="Path_10408" data-name="Path 10408" d="M35,5.643a5.643,5.643,0,1,1,5.643,5.643A5.649,5.649,0,0,1,35,5.643Z" transform="translate(-31.05)" fill="#fff"/>
      <path id="Path_10409" data-name="Path 10409" d="M377,5.643a5.643,5.643,0,1,1,5.643,5.643A5.649,5.649,0,0,1,377,5.643Z" transform="translate(-334.454)" fill="#fff"/>
      <path id="Path_10410" data-name="Path 10410" d="M201,308.207a6.207,6.207,0,0,1,12.414,0v2.627a15.223,15.223,0,0,1-12.414,0Z" transform="translate(-178.316 -267.918)" fill="#39b6e9"/>
      <circle id="Ellipse_400" data-name="Ellipse 400" cx="3.476" cy="3.476" r="3.476" transform="translate(25.415 24.255)" fill="#39b6e9"/>
      <path id="Path_10411" data-name="Path 10411" d="M345.532,421.169a9,9,0,0,0,12.126,0,9.577,9.577,0,0,1,3.527,7.425v1.129a1.693,1.693,0,0,1-1.693,1.693h-15.8A1.693,1.693,0,0,1,342,429.727V428.6A9.577,9.577,0,0,1,345.532,421.169Z" transform="translate(-303.404 -373.638)" fill="#fff"/>
      <path id="Path_10412" data-name="Path 10412" d="M383.041,312a5.643,5.643,0,1,1-5.592,6.388,18.544,18.544,0,0,0,3.739-6.074A5.619,5.619,0,0,1,383.041,312Z" transform="translate(-334.852 -276.79)" fill="#fff"/>
      <path id="Path_10413" data-name="Path 10413" d="M3.527,109.206a9.012,9.012,0,0,0,12.131,0,9.681,9.681,0,0,1,1.822,1.974,18.706,18.706,0,0,0-6.065,8.272H1.693A1.693,1.693,0,0,1,0,117.76v-1.129a9.577,9.577,0,0,1,3.527-7.425Z" transform="translate(0 -96.882)" fill="#fff"/>
      <path id="Path_10414" data-name="Path 10414" d="M357.106,111.18a9.676,9.676,0,0,1,1.822-1.974,9.012,9.012,0,0,0,12.131,0,9.577,9.577,0,0,1,3.527,7.425v1.129a1.693,1.693,0,0,1-1.693,1.693h-9.723A18.706,18.706,0,0,0,357.106,111.18Z" transform="translate(-316.805 -96.882)" fill="#fff"/>
      <path id="Path_10415" data-name="Path 10415" d="M136.235,122a15.229,15.229,0,0,1,9.593,27.062v-.541a9.6,9.6,0,0,0-4.736-8.267,6.771,6.771,0,1,0-9.714,0,9.6,9.6,0,0,0-4.736,8.267v.541A15.229,15.229,0,0,1,136.235,122Z" transform="translate(-107.345 -108.232)" fill="#39b6e9"/>
    </g>
  </g>
</svg>
