<svg xmlns="http://www.w3.org/2000/svg" width="69.373" height="65.036" viewBox="0 0 69.373 65.036">
  <g id="usp-icon3" transform="translate(0 -16.006)">
    <path id="Path_10387" data-name="Path 10387" d="M68.249,62.48,35.6,46.221a2.035,2.035,0,0,0-1.818,0L1.124,62.48a2.033,2.033,0,1,0,1.818,3.636l5.324-2.594v41.423a2.031,2.031,0,0,0,2.032,2.032H59.075a2.031,2.031,0,0,0,2.032-2.032V63.521l5.324,2.594a2.033,2.033,0,1,0,1.818-3.636ZM40.226,94.731c-1.32,1.125-2.725,2.322-4.2,3.614a2.033,2.033,0,0,1-2.675,0c-1.477-1.292-2.882-2.489-4.2-3.614C21.468,88.188,16.4,83.865,16.4,77.272c0-6.135,4.464-10.942,10.162-10.942a9.654,9.654,0,0,1,8.129,4.531,9.654,9.654,0,0,1,8.129-4.531c5.7,0,10.162,4.807,10.162,10.942C52.978,83.865,47.905,88.188,40.226,94.731Z" transform="translate(0 -25.935)" fill="#fff"/>
    <path id="Path_10388" data-name="Path 10388" d="M173.362,226.006c-4.575,0-6.155,5.563-6.169,5.619a2.113,2.113,0,0,1-3.918.008c-.066-.23-1.645-5.627-6.173-5.627-3.475,0-6.1,2.957-6.1,6.877,0,4.716,4.261,8.348,11.323,14.365q1.393,1.185,2.9,2.485,1.509-1.3,2.9-2.485c7.062-6.018,11.323-9.65,11.323-14.365C179.459,228.963,176.837,226.006,173.362,226.006Z" transform="translate(-130.546 -181.547)" fill="#39b6e9"/>
    <path id="Path_10389" data-name="Path 10389" d="M367.1,16.006h-4.065a2.031,2.031,0,0,0-2.032,2.032V22.4l8.129,4.065V18.038A2.031,2.031,0,0,0,367.1,16.006Z" transform="translate(-312.093 0)" fill="#fff"/>
  </g>
</svg>
