<svg id="usp-icon4" xmlns="http://www.w3.org/2000/svg" width="60.72" height="60.72" viewBox="0 0 60.72 60.72">
  <path id="Path_10384" data-name="Path 10384" d="M48.078,344.387a4.183,4.183,0,0,0-3.76.579l-9.2,6.571a6.527,6.527,0,0,1-6.587.586l-3.84-1.822H28.5a4.155,4.155,0,0,0,4.15-4.251A4.2,4.2,0,0,0,28.423,342H14.55a11.888,11.888,0,0,0-5.231,1.22A10.9,10.9,0,0,1,4.5,344.372H1.779A1.779,1.779,0,0,0,0,346.151V358.01a1.779,1.779,0,0,0,1.779,1.779H4.5a10.694,10.694,0,0,1,4.759,1.123,11.887,11.887,0,0,0,5.289,1.249H29.987a17.148,17.148,0,0,0,10.382-3.524l8.974-6.884a4.223,4.223,0,0,0-1.264-7.366Z" transform="translate(0 -301.441)" fill="#fff"/>
  <path id="Path_10385" data-name="Path 10385" d="M200.486,201.693l-.454.454-.454-.454a5.78,5.78,0,1,0-8.174,8.174l7.316,7.212a1.868,1.868,0,0,0,2.623,0l7.316-7.212a5.78,5.78,0,1,0-8.174-8.174Z" transform="translate(-169.672 -178.38)" fill="#39b6e9"/>
  <path id="Path_10386" data-name="Path 10386" d="M131.218,2.372H128.5a10.694,10.694,0,0,1-4.759-1.123A11.889,11.889,0,0,0,118.448,0H103.011A17.148,17.148,0,0,0,92.628,3.524l-8.973,6.884a4.223,4.223,0,0,0,5.025,6.786l9.2-6.571a6.527,6.527,0,0,1,6.587-.586l3.84,1.822H104.5a4.155,4.155,0,0,0-4.15,4.251,4.2,4.2,0,0,0,4.227,4.051h13.873a11.887,11.887,0,0,0,5.231-1.22,10.9,10.9,0,0,1,4.817-1.152h2.723A1.779,1.779,0,0,0,133,16.01V4.151a1.779,1.779,0,0,0-1.779-1.779Z" transform="translate(-72.278)" fill="#fff"/>
</svg>
