<svg xmlns="http://www.w3.org/2000/svg" width="61.356" height="65.036" viewBox="0 0 61.356 65.036">
  <g id="usp-icon2" transform="translate(8106 15763.129)">
    <g id="care" transform="translate(-8106 -15763.129)">
      <circle id="Ellipse_399" data-name="Ellipse 399" cx="7.571" cy="7.571" r="7.571" transform="translate(23.107 0)" fill="#39b6e9"/>
      <path id="Path_10390" data-name="Path 10390" d="M167.909,143.73H187a1.91,1.91,0,0,0,1.909-1.909v-5.728a11.432,11.432,0,0,0-3.888-8.592,11.431,11.431,0,0,1-15.138,0A11.432,11.432,0,0,0,166,136.092v5.728A1.909,1.909,0,0,0,167.909,143.73Z" transform="translate(-146.778 -111.409)" fill="#39b6e9"/>
      <path id="Path_10391" data-name="Path 10391" d="M41.886,182.883l-6.06-6a7.957,7.957,0,0,0-10.059-.941,1.272,1.272,0,0,0-.18,1.951l7.6,7.6a1.625,1.625,0,1,1-2.3,2.293l-8.117-8.19V160.883a3.883,3.883,0,1,0-7.765,0v18.36a8.911,8.911,0,0,0,2.652,6.342l9.6,9.477v5.218a1.91,1.91,0,0,0,1.909,1.909H41.859a1.91,1.91,0,0,0,1.909-1.909V187.4A6.365,6.365,0,0,0,41.886,182.883Z" transform="translate(-15 -137.154)" fill="#fff"/>
      <path id="Path_10392" data-name="Path 10392" d="M272.883,182.883l6.06-6A7.957,7.957,0,0,1,289,175.946a1.272,1.272,0,0,1,.18,1.951l-7.6,7.6a1.625,1.625,0,1,0,2.3,2.293L292,179.6V160.883a3.883,3.883,0,1,1,7.765,0v18.36a8.911,8.911,0,0,1-2.652,6.342l-9.6,9.477v5.218a1.909,1.909,0,0,1-1.909,1.909H272.909A1.91,1.91,0,0,1,271,200.281V187.4A6.365,6.365,0,0,1,272.883,182.883Z" transform="translate(-238.412 -137.154)" fill="#fff"/>
    </g>
    <path id="Path_10398" data-name="Path 10398" d="M195.448,200.9l-.242.242-.242-.242a3.077,3.077,0,0,0-4.352,4.352l3.9,3.84a1,1,0,0,0,1.4,0l3.9-3.84a3.077,3.077,0,0,0-4.352-4.352Z" transform="translate(-8270.292 -15928.138)" fill="#fff"/>
  </g>
</svg>
