<svg xmlns="http://www.w3.org/2000/svg" width="61.952" height="70.547" viewBox="0 0 61.952 70.547">
  <g id="usp-icon1" transform="translate(827.812)">
    <path id="Path_10381" data-name="Path 10381" d="M-755.625,24.284a12.156,12.156,0,0,0,12.142-12.142A12.156,12.156,0,0,0-755.625,0a12.156,12.156,0,0,0-12.142,12.142A12.156,12.156,0,0,0-755.625,24.284Z" transform="translate(-51.772 0)" fill="#fff"/>
    <path id="Path_10382" data-name="Path 10382" d="M-787.636,188.19A15.125,15.125,0,0,0-799.6,177.711l-3.859,5.495a10.285,10.285,0,0,0-1.869,5.912v12.547a2.071,2.071,0,0,1-2.071,2.071h0a2.071,2.071,0,0,1-2.071-2.071V189.118a10.287,10.287,0,0,0-1.869-5.912l-3.86-5.495a15.1,15.1,0,0,0-12.616,14.877v26.654h29.22a20.148,20.148,0,0,1-3.653-11.592,20.3,20.3,0,0,1,14.609-19.46Zm-27.616,7.75h-2.557a1.015,1.015,0,0,1-1.015-1.015v-2.557a1.015,1.015,0,0,1,1.015-1.015h2.557a1.015,1.015,0,0,1,1.015,1.015v2.557A1.015,1.015,0,0,1-815.252,195.94Z" transform="translate(0 -153.225)" fill="#fff"/>
    <path id="Path_10383" data-name="Path 10383" d="M-596.083,277.984a16.06,16.06,0,0,0-5,.8A16.15,16.15,0,0,0-612.2,294.106a16.075,16.075,0,0,0,4.929,11.592,16.067,16.067,0,0,0,11.193,4.53,16.14,16.14,0,0,0,16.122-16.122,16.14,16.14,0,0,0-16.122-16.122Zm-1.441,22.721a.4.4,0,0,1-.564,0l-3-3-2.365-2.365a.4.4,0,0,1,0-.564l2.365-2.365h0a.4.4,0,0,1,.563,0l2.432,2.432a.4.4,0,0,0,.564,0l5.876-5.876a.4.4,0,0,1,.564,0l2.365,2.364a.4.4,0,0,1,0,.564Z" transform="translate(-185.899 -239.681)" fill="#39b6e9"/>
  </g>
</svg>
